<?xml version="1.0" standalone="no"?>
<!DOCTYPE svg PUBLIC "-//W3C//DTD SVG 20010904//EN"
 "http://www.w3.org/TR/2001/REC-SVG-20010904/DTD/svg10.dtd">
<svg version="1.0" xmlns="http://www.w3.org/2000/svg"
 width="16.000000pt" height="16.000000pt" viewBox="0 0 16.000000 16.000000"
 preserveAspectRatio="xMidYMid meet">
<metadata>
Created by potrace 1.11, written by Peter Selinger 2001-2013
</metadata>
<g transform="translate(0.000000,16.000000) scale(0.001709,-0.001709)"
fill="#000000" stroke="none">
<path d="M8578 9213 c-9 -10 -23 -33 -32 -50 -9 -18 -19 -33 -22 -33 -3 0 -10
14 -15 30 -6 17 -15 30 -20 30 -23 0 -88 -42 -117 -74 -62 -71 -52 -146 41
-328 34 -65 58 -121 54 -125 -4 -4 -92 -8 -195 -8 -166 -1 -195 -4 -257 -24
-189 -62 -352 -176 -561 -394 -129 -134 -232 -265 -321 -405 -112 -178 -161
-296 -242 -590 -67 -242 -80 -273 -171 -410 -86 -130 -162 -211 -226 -243 -56
-27 -177 -39 -399 -39 -329 0 -898 -34 -1084 -64 l-84 -13 -61 37 c-76 46
-184 90 -301 124 -146 42 -213 48 -410 41 -168 -6 -188 -5 -305 19 -91 18
-152 25 -225 23 -68 -1 -127 5 -185 18 -111 25 -325 26 -418 1 -75 -20 -90
-17 -160 36 -85 63 -135 82 -225 82 -89 1 -92 3 -132 92 -12 28 -28 55 -34 59
-21 12 -57 77 -175 312 -64 126 -125 238 -136 248 -26 24 -44 9 -59 -50 -6
-25 -15 -45 -19 -45 -4 0 -17 26 -30 58 -27 70 -80 136 -132 162 -50 25 -138
38 -231 32 l-75 -4 -230 118 c-450 232 -520 263 -581 251 -55 -10 -162 -53
-182 -72 -11 -11 -31 -32 -45 -47 -24 -27 -29 -28 -108 -26 -92 2 -135 -12
-122 -40 4 -9 9 -34 12 -54 3 -32 1 -39 -21 -49 -24 -11 -32 -22 -56 -81 -6
-16 -18 -28 -26 -28 -18 0 -45 -57 -45 -93 0 -13 9 -32 20 -42 27 -24 25 -29
-12 -40 l-33 -10 -2 -143 c-2 -79 -7 -152 -13 -162 -5 -10 -28 -26 -50 -36
-51 -23 -93 -79 -79 -107 18 -32 71 -75 141 -112 62 -33 67 -38 58 -59 -6 -17
-4 -30 7 -46 8 -12 11 -25 7 -30 -5 -4 -43 -15 -84 -25 -81 -19 -146 -49 -155
-73 -3 -8 -8 -74 -12 -147 l-6 -132 55 -84 c30 -46 72 -118 93 -159 23 -47 56
-93 88 -123 l50 -48 -42 -43 c-54 -55 -51 -74 14 -101 61 -24 64 -28 58 -75
-5 -37 -3 -39 35 -59 50 -25 72 -55 72 -97 0 -26 6 -34 30 -44 22 -9 33 -23
42 -52 7 -24 21 -44 37 -53 19 -10 26 -21 27 -49 0 -22 9 -45 22 -59 17 -18
21 -31 16 -54 -7 -37 15 -63 54 -63 15 0 59 18 97 41 121 71 130 73 283 65 75
-4 140 -10 144 -14 3 -4 8 -27 10 -51 3 -43 2 -45 -28 -53 -43 -11 -50 -23
-57 -91 -5 -55 -4 -59 33 -106 57 -72 89 -90 208 -118 135 -31 156 -39 148
-58 -3 -8 -9 -22 -12 -30 -4 -10 15 -34 56 -72 99 -92 126 -170 75 -217 -39
-37 -32 -57 49 -132 48 -44 77 -80 82 -99 10 -42 19 -51 86 -87 102 -54 166
-140 305 -404 51 -99 68 -142 88 -235 77 -349 281 -772 535 -1111 99 -131 303
-360 387 -434 134 -117 272 -197 404 -232 l64 -17 2 -50 c2 -28 10 -90 19
-138 10 -51 14 -108 11 -137 -8 -64 -54 -216 -72 -234 -8 -7 -36 -17 -62 -21
-26 -4 -64 -15 -83 -26 -19 -10 -59 -28 -89 -39 -30 -12 -66 -29 -80 -39 -14
-10 -38 -21 -52 -24 -15 -4 -41 -23 -58 -43 -37 -41 -38 -77 -4 -82 13 -2 24
-13 27 -27 5 -18 17 -27 46 -35 53 -14 82 -5 122 39 25 29 44 39 77 45 24 4
57 16 72 27 l29 20 9 -24 c6 -14 20 -28 33 -32 44 -14 49 -24 32 -63 -18 -41
-31 -218 -24 -317 2 -22 0 -74 -4 -115 -7 -69 -6 -78 16 -110 13 -19 36 -41
51 -48 60 -29 122 47 138 169 9 76 27 110 65 127 37 18 42 15 50 -24 5 -29 18
-44 66 -80 33 -24 66 -44 72 -44 7 0 32 -20 56 -45 24 -25 50 -45 56 -45 7 0
41 -19 76 -43 35 -24 86 -55 113 -69 28 -14 81 -41 118 -62 53 -28 80 -36 120
-36 30 0 60 -7 71 -15 43 -33 136 -11 136 31 0 29 42 35 105 15 33 -10 61 -18
63 -16 9 8 -15 36 -60 70 -29 22 -73 60 -98 85 -35 36 -69 56 -150 88 -58 24
-125 58 -150 77 -25 19 -76 58 -115 85 -71 52 -75 57 -226 306 -12 20 -25 74
-34 150 -9 65 -36 222 -61 348 -28 143 -46 262 -47 315 l-2 85 105 18 c76 14
135 18 215 14 99 -4 125 -9 265 -56 85 -28 182 -58 214 -65 32 -8 62 -18 66
-22 4 -4 15 -30 25 -58 24 -68 63 -136 170 -295 51 -76 110 -179 134 -235 24
-55 79 -174 123 -264 57 -117 84 -186 94 -239 24 -125 21 -136 -40 -198 -30
-31 -62 -70 -70 -89 -16 -33 -21 -109 -10 -139 8 -20 33 -21 40 -1 4 10 20 15
51 15 39 0 50 5 97 50 29 27 60 50 69 50 10 0 25 -16 34 -37 26 -56 60 -68
147 -55 110 17 257 22 301 11 50 -13 429 -22 845 -20 173 1 345 2 382 1 37 0
69 4 73 9 7 12 -38 55 -79 75 -175 85 -224 95 -456 96 -167 0 -691 42 -752 60
-58 17 -96 56 -140 144 -48 95 -77 135 -173 236 -85 89 -94 105 -190 349 -40
104 -87 215 -103 247 -31 62 -82 197 -82 217 0 9 47 12 178 13 251 1 422 38
547 119 103 66 123 108 136 284 5 69 14 146 20 171 25 110 126 158 629 301
544 155 685 216 970 417 63 44 169 109 235 143 66 34 139 75 163 91 84 58 147
175 193 364 12 49 27 94 33 100 6 6 30 16 53 23 33 9 54 26 105 89 97 116 114
146 157 278 100 305 113 388 171 1144 17 217 35 438 41 490 5 52 14 183 19
290 19 394 -25 714 -145 1075 -37 110 -55 184 -60 239 -4 43 -16 103 -26 134
-10 30 -19 63 -19 72 0 10 20 34 45 54 24 20 73 78 107 129 80 116 130 167
164 167 15 0 74 -12 132 -26 79 -19 113 -24 136 -17 29 8 31 12 30 54 -2 112
-53 199 -153 264 -80 52 -74 33 -90 264 -9 119 -13 137 -36 171 -23 34 -26 45
-20 92 8 74 -4 89 -45 55 -17 -15 -36 -27 -41 -27 -17 0 -9 41 21 100 50 99
38 117 -29 45 -76 -81 -80 -54 -16 99 45 108 54 149 35 161 -16 10 -37 -11
-90 -90 -87 -129 -100 -125 -111 34 -4 60 -10 115 -14 120 -14 24 -37 8 -62
-44 -15 -30 -32 -54 -38 -52 -5 2 -11 21 -12 43 -9 145 -14 164 -37 164 -13 0
-30 -8 -38 -17z"/>
</g>
</svg>
