<?xml version="1.0" encoding="utf-8"?>
<!-- Generator: Adobe Illustrator 21.0.0, SVG Export Plug-In . SVG Version: 6.00 Build 0)  -->
<svg version="1.1" xmlns="http://www.w3.org/2000/svg" xmlns:xlink="http://www.w3.org/1999/xlink" x="0px" y="0px"
	 viewBox="0 0 907.1 540" style="enable-background:new 0 0 907.1 540;" xml:space="preserve">
<style type="text/css">
	.st0{fill-rule:evenodd;clip-rule:evenodd;}
	.st1{display:none;}
	.st2{display:inline;}
	.st3{fill:#5A5B5D;}
	.st4{font-family:'DIN-Regular';}
	.st5{font-size:10px;}
</style>
<g id="Calque_1">
	<g>
		<path d="M283.6,279.9c-0.2-0.5-0.4-1.1-0.7-1.6v-0.9l-0.6-0.4c-0.2-0.3-0.4-0.7-0.6-1c-0.6-1.1-1.2-2.1-1.5-3.1
			c-1.2-2.5-2.3-5.1-3.2-7.7c-1-2.7-1.9-5.4-2.9-7.9c-1.7-4.1-3.7-8.1-5.9-11.8c-2.2-3.5-4.3-7.4-6.5-11.4c-0.8-1.4-1.7-3-2.8-5
			c-1.2-2.2-1.6-3.3-1.7-3.9l-0.1-0.3l-0.2-0.3c-0.9-1.7-1.9-3.3-3-5c-1.1-1.6-2.1-3.3-2.9-5.1c-0.3-0.5-0.5-1.1-0.9-1.9
			c-0.5-1.1-1.2-2-2-2.7l-3.7-3v4.7c0,4.5-0.1,9-0.2,13.5c-0.1,4.6-0.1,9.3,0.2,13.9c0.1,2.8,0.3,5.8,0.7,8.9c0.3,3,0.5,5.9,0.5,8.6
			c0,1.1-0.1,2.5-0.3,4.2c-0.2,1.8-0.4,3.7-0.5,5.6c-0.1,1.9-0.1,3.7-0.1,5.5c0,1.5,0.3,2.9,0.7,4.1c-0.1,0.5,0,1.1,0,1.6
			c0.1,0.8,0.1,1.2,0.1,1.5c0,0.3,0,0.5-0.1,0.7c-0.1,0.2-0.1,0.3-0.2,0.5h-0.2v2.2c0,0.2,0,0.3,0,0.5c-0.2,0.5-0.3,1.1-0.3,1.8
			c0,0.3,0,0.6,0,0.8h-4l0.4,0.4l-4,1.8l-3.9-1.1h-4.1c0,0,0,0,0,0c-0.1-0.3-0.1-0.6-0.2-0.8c0.1-0.3,0.1-0.6,0.1-0.8l0.2-2.7
			c0.1-1,0.1-2.1,0-3.1c0-0.5-0.1-0.9-0.1-1.1c0.1-0.5,0.1-1-0.1-1.5c0,0,0-0.1,0-0.1c0.1-0.8,0.2-1.8,0.2-2.8
			c0.1-2.4,0.2-5.4,0.2-8.8c0-3.5,0-7.3-0.1-11.5c-0.1-4.2-0.1-8.1-0.2-11.8c-0.1-3.7-0.2-6.9-0.2-9.6c-0.1-2.7-0.1-4.3-0.1-5
			c0-4.1,0-8.2,0.2-12.4c0.1-4.2,0.1-8.6-0.2-12.9c-0.3-2.7-0.5-5.2-0.6-7.7c-0.1-2.6-0.1-5.1-0.1-7.7v-0.2l0-0.2
			c0-0.1-0.1-0.7,0-2.2c0.1-1.3,0.1-2.7,0.1-4c0-1.3,0-2.6-0.1-3.7c0-0.7-0.1-1.5-0.4-2.2c0-0.2,0-0.3,0.1-0.5
			c0.1-0.7,0.1-1.4,0.2-2.2c0-0.5,0.1-1,0.1-1.4l0.3-0.3c0.1,0,0.1,0,0.2,0c1.6-0.1,2.7-0.5,3.5-1.1l0.9-0.7c0.4,0,0.7-0.1,1.1-0.1
			c0.4,0,0.8-0.1,1.2-0.1c0.4,0.6,1.1,1,2,1.1l0,0.5l1.6-0.8c0.1,0.1,0.1,0.3,0.2,0.4l0.7,1.1l1.3,0c0.5,0,0.9-0.1,1.4-0.4
			c0.2-0.1,0.3-0.2,0.5-0.3l0.5,0.1c0.1,0.1,1.7,2.6,1.7,2.6l1.7-1.7c0.4,0.8,0.7,1.8,1,2.7l1.4,4.4c0.5,1.6,1,2.7,1.8,3.4
			c0.9,1.9,1.7,3.6,2.4,5.2c0.6,1.5,1.3,2.9,1.9,4.2c0.6,1.3,1,2,1.3,2.4c1,2.5,2,5,3,7.4c1.1,2.5,2.1,4.8,3.1,7l0.1,0.2l0.1,0.2
			c1.5,2.1,2.8,4.1,3.9,6c1.1,2,2.4,4.1,3.7,6.3l0.2,0.2c1.7,2.2,3,4.5,4,6.8c1.1,2.7,2.6,5.4,4.4,8l4.1,5.9v-8.8
			c0.2-3.2,0.7-6.6,1.3-10c0.7-3.6,1.2-7.2,1.4-10.7c0.1-3.3,0.3-6.5,0.5-9.6c0.2-3.2,0.5-6.3,0.8-9.5c0-0.4,0-1.1,0.3-3.2
			c0.2-1.7,0.4-3.5,0.6-5.3c0.2-1.8,0.3-3.5,0.3-5.1c0-1.1,0-1.9-0.1-2.6c0-0.2,0.1-0.4,0.1-0.6c0.1-0.7,0.1-1.4,0-2.2l-0.2-1.9
			c0.4-0.5,0.7-1.2,0.9-2.1c0.2,0,0.5,0.1,0.8,0.2c0.7,0.2,1.5,0.5,2.5,0.7l2.8,0.7v-1.1c0,0,0,0,0.1,0c0.8,0.2,1.7,0.3,2.6,0.3
			c0.3,0,1.5,0,1.6,0v1.4l2.4,0.2h0.5l0.2-0.1l0.9,5.4c0,0,0.1,0.6-0.3,2.7c-0.3,1.8-0.5,3.7-0.7,5.8c-0.2,2-0.4,3.9-0.5,5.6
			c-0.1,1.9,0.1,3.2,0.6,4.1c0,0.4,0,0.9-0.1,1.6c-0.1,1.7-0.3,3.9-0.5,6.5l-0.7,8.7c-0.3,3.2-0.5,6.2-0.8,9.1
			c-0.3,2.9-0.5,5.5-0.7,7.7c-0.2,2-0.3,3.5-0.3,4.3c-0.4,2.3-0.5,4.6-0.3,6.9c0.2,2.1,0.3,4.3,0.3,6.4c0,0.4,0,0.9,0.1,1.5
			c0,0.5,0.1,1,0.1,1.5c0,0.8,0.1,1.6,0.2,2.2c0.1,0.4,0.2,0.7,0.4,1l-0.5,5c-0.2,1.7-0.4,3.5-0.6,5.5c-0.2,2-0.4,3.9-0.5,5.7
			c-0.1,1.8-0.2,3.3-0.2,4.6c0,0.8,0,1.6,0.2,2.2c0,0.2-0.1,0.3-0.1,0.5c0,0.4-0.2,1.5,0.6,2.4l0.1,0.1c0.4,0.8,0.7,1.5,1,2.1
			l-0.6-0.6l-0.1,3.6l-0.1-0.1l-1.3,1.3l-0.7-0.7l-0.5,0.3l-2.9-2.9v4.8l-1,0.7h-1l0.2,0.5l-1.4,0.9h-0.2v0.1l-0.2,0.2
			c-0.3,0-1.7-0.2-2.2-0.2l0.3-0.7h-1.8l3.4-3.4h-4.2c0-0.1-0.1-0.2-0.1-0.3c-0.2-0.7-0.5-1.2-0.8-1.7c-0.2-0.2-0.3-0.4-0.5-0.6
			c-0.1-0.3-0.1-0.6-0.2-0.8L283.6,279.9z"/>
		<line x1="282.7" y1="279.3" x2="282.7" y2="279.3"/>
		<path d="M490.4,291c-2.2,0-4.4-0.2-6.6-0.4c-5.2-0.8-10-2.4-14.2-4.7c-2.5-1.4-4.6-3.1-6.3-5.1v-2.7l-1.5,0.6
			c-0.4-0.7-0.8-1.4-1.2-2.2c-1.2-2.6-1.7-5.4-1.6-8.2c0.2-3.1,0.2-6.2,0.2-9.1c0-0.1,0-0.5,0.3-2.2c0.2-1.3,0.4-2.6,0.6-4.1
			c0.2-1.4,0.3-2.8,0.3-4c0-1-0.1-2.3-1-3.1c0-0.2,0-0.6,0.1-1.2c0.2-1.5,0.3-3.2,0.6-5.1c0.2-1.9,0.4-3.7,0.4-5.4
			c0-1.1,0-2.3-0.5-3.2c0.1-0.4,0.1-0.7,0.2-1.1c0.2-1.1,0.3-2.6,0.3-4.3c0.1-1.7,0.1-3.5,0.2-5.5c0.1-2,0.1-3.9,0.1-5.7v-7.3
			l-0.1-0.3c0,0-0.1-0.3-0.3-1.5c-0.2-0.9-0.3-1.9-0.4-3c-0.1-0.8-0.2-1.6-0.2-2.3h0.1c0,0,0-1.9,0-1.9l0-0.1c0-0.2,0-0.4,0-0.6h1.2
			c0,0-0.3-1.1,0-1.3c0.3-0.2,2.8,1.4,2.8,1.4s-0.1-0.4,0-0.5c0.1-0.1,2.3,0.2,2.3,0.2h0.9l0.7-0.6l1.1-0.8l-0.2-0.4h1.3
			c0.4,0,0.9,0,1.3,0.1c0.2,0,0.5,0.1,0.8,0.1c0.4,0.2,0.8,0.3,1.4,0.3c0,0.4,0.1,0.7,0.4,1.1c0.1,0.1,0.1,0.1,0.2,0.2v0.6
			c0,4.2,0,8.5,0.1,12.7c-0.4-0.4-2.3,2.9-1.7,2.9c0,0,1.6-0.2,1.8,0c0,0,0,2.6,0.1,3.9c-0.4-0.5-1.1-0.8-2.1-0.8l2.4,5.6l0.3,2.4
			c0.3,1-1.1,5.1-1.1,5.1s0.7-1.2,0.7-1.3c0.1,7.5,0.1,15.1-0.1,22.6c0,2.7-0.1,5.5-0.4,8.2c-0.3,2.8-0.4,5.6-0.4,8.4
			c0,1.6,0.3,3.3,1,5c0.7,2,2.3,3.6,4.6,4.7c1.2,0.7,2.8,1.2,4.7,1.7c1.9,0.4,3.8,0.7,5.7,0.7l0.6,0c1.8,0,3.4-0.2,4.9-0.6
			c1.6-0.4,2.9-1.1,4-2.1l2,2.1v-5.3c0-0.4,0.2-1,0.5-1.6c0.6-1,0.9-1.8,0.9-2.6c0.4-1.8,0.5-3.7,0.3-5.6c-0.2-1.7-0.3-3.4-0.3-5
			c0-0.6-0.1-1.4-0.3-2.5c-0.2-1-0.3-2.1-0.5-3.2c-0.2-1-0.2-2-0.2-2.9c0-0.6,0.1-0.9,0.2-1l0.5,0.2v-0.7l0,0l0-0.6v-1.5
			c0,0,0.1-0.2,0.1-0.5c0.1-0.5,0.1-0.9,0-1.3c0-0.1,0-0.2,0-0.2c0-0.3-0.1-0.5-0.1-0.7c0-0.6,0-1.3,0.1-2.1
			c0.1-1.5,0.1-3.2,0.2-5.2l0.3-6.1c0.1-2.1,0.2-4,0.3-5.8c0.1-1.8,0.2-3.2,0.3-4.3c0,0,0-0.1,0-0.1h0.3v-3c0-0.5-0.1-1.3-0.2-2.3
			c0-0.2,0-0.4,0-0.5c1-1,1-2.6,0.9-3.2c-0.1-1.1-0.1-1.8-0.1-2.2c0-0.2,0-0.3,0.1-0.4l0.2-0.4v-1.1l0.3,0.1l-0.2-2h0.1v-1.8
			c0-0.3,0.1-0.8,0.1-1.5l0.2-1.2l0.4-0.3l-0.3-0.3c0,0,0.1-0.6,0.1-0.6h0.6l0.7-0.4c0.4-0.3,0.7-0.6,0.9-0.9h0v0
			c0-0.1,0.1-0.2,0.1-0.3h0.2l0-0.6c0.2-0.2,0.3-0.4,0.4-0.7l0.6-1.3c0.2,0,0.3,0,0.5-0.1c0.7-0.1,1.4-0.1,2.1-0.2l1.2,0
			c0.2,0,0.6,0,1-0.2c0.9,0.2,1.8,0.3,2.9,0.5l3.3,0.6c-0.1,0.2-0.2,0.4-0.2,0.6L519,197v0.7c0,0.4,0.1,0.8,0.3,1v0.1h0
			c0,0.4,0.2,0.7,0.4,1.1c0.1,0.2,0.1,0.3,0.2,0.4c-0.4,1.2-0.5,2.6-0.4,4.1c0.1,1.6,0,3.1-0.2,4.5c-0.2,1.6-0.4,3.1-0.5,4.6
			c-0.1,1.5-0.2,3.1-0.2,4.7c-0.4,3.3-0.7,6.8-0.7,10.2c-0.1,3.3-0.2,6.7-0.4,10c-0.2,3.6-0.5,7.3-1,11c-0.4,3.7-0.2,7.4,0.6,10.9
			c-0.3,0.6-0.1,1.2-0.1,1.4c0.1,0.3,0.1,0.4,0.1,0.6v5.2c0,0.4-0.1,1.2-0.5,2.8c-0.4,1.4-0.8,2.8-1.2,4.3c-0.4,1.6-0.9,3.3-1.5,5.1
			l-2.3,2.5c-0.7,0.7-1.3,1.4-1.9,2.1c-0.4,0.5-0.6,0.8-0.8,0.9c-0.6,0.6-1.3,1.1-2,1.6c-0.7,0.4-1.3,0.8-1.8,1.2
			c-0.2,0-0.3,0.1-0.5,0.2c-0.4,0.2-0.8,0.3-1.2,0.6c-0.4,0.2-0.7,0.4-1.1,0.6c-0.9,0.1-1.9,0.3-2.9,0.7c-1.1,0.4-2.1,0.6-3.1,0.8
			c-1.4,0.1-3,0.2-4.7,0.2C491.3,291,490.8,291,490.4,291z"/>
		<path d="M238.7,314.2c0.4,0,0.8,0.1,1.3,0.1c1.5,0,3.3,0,5.2,0c1.9,0,3.8-0.1,5.6-0.2c1.8-0.1,3-0.1,3.6,0
			c5.7,0.5,10.6,2.3,14.6,5.7c1.6,1.6,3,3.3,4.3,5c1.3,1.8,2.4,3.7,3.4,5.7c0.7,2.1,1.2,4.3,1.7,6.6c0.2,0.8,0.2,2,0.3,3.4
			c0,1.4,0.2,2.5,0.6,3.3c0,5.8-0.1,11.6-0.3,17.3c-0.2,5.7-0.7,11.6-1.6,17.5c-0.2,2.2-0.5,4.3-1,6.3c-0.5,2-1.3,4-2.3,6
			c-0.8,1.3-1.7,2.4-2.7,3.4c-1,1-3.2,4-3.8,4.5c-0.7,0.5-1.5,0.9-2.3,1.4c-0.9,0.4-1.7,0.8-2.5,1.1c-0.8,0.3-1.4,0.5-1.7,0.7
			c-1.4,0.4-2.7,0.7-4.1,1.1c-1.4,0.3-2.8,0.7-4.3,1.1v-0.3c0,0-3.6,0.1-5.5,0.2c-1.8,0.1-3.7,0.2-5.5,0.2c-0.7,0-1.7-0.1-2.9-0.2
			c-1.3-0.2-2.3,0-3.2,0.3c0,0-0.5,0-0.9,0c-0.4,0-0.8,0.1-1.1,0.2c0,0-1.8,0-2.5-0.5c0,0-0.2-0.6,0.1-0.6c0.3-0.1-0.4-0.2-1-0.2
			c-0.6,0-1.8-1.2-1.5-1.5c0,0,0.9-1,0.5-1.2s-1.9-1.4-1.9-1.4s-0.4-2.3,0.3-2.9c0.7-0.5,2-2,2-2l-1.6-0.4l0.5-0.6l0.5-0.9l-1.4-2.2
			c0-0.1,0-0.1,0-0.2c0-1.1,0-2.7,0.1-4.7c0.1-2,0-3.8-0.1-5.4c-0.1-5.1-0.1-10,0-14.8c0.2-2.3,0.3-4.6,0.3-7c0.1-2.4,0-4.7-0.3-7.1
			c0-1.8-0.1-3.6-0.3-5.5c-0.2-1.9-0.3-3.7-0.2-5.6c0.3-3.6,0.6-7.2,0.8-10.7c0.2-3.5,0.3-7.2,0.3-11h-0.3c0-0.1,0-0.2,0.1-0.5
			c0-0.3,0.1-0.5,0.2-0.8c0-0.1,0-0.1,0.1-0.2l0.1-0.7c0,0,0-0.8,0-0.9c0-0.1,0.2-0.6,0.2-0.6s0.4-0.2,0.4-0.1
			c0,0.1,0.4,0.1,0.5,0.2c0.1,0.1,0.7-0.1,0.9-0.1c0.2,0,0.5,1,0.6,1c0.2,0,0.2-0.9,0.4-1c0.1-0.1,0.9-0.5,1.1-0.3
			c0.2,0.2,1,0.2,1,0.2s1.3,0.7,1.8,0.8c0,0-0.3-0.5-0.5-0.8c-0.2-0.3,0.7-0.3,1.1-0.1c0.4,0.2,2.8,0.3,2.8,0.3l0.4,0.4L238.7,314.2
			z M265.3,351c0.1-2.7,0.1-5.4,0-8.1c-0.1-2.7-0.7-5.3-1.9-7.8c-1.1-2.3-2.5-4-4.1-5.1c-1.6-1.1-3.3-1.8-5.3-2.1
			c-1.9-0.3-4-0.5-6.2-0.4c-2.2,0.1-4.5,0-6.8-0.1c0,0.4,0.1,0.5,0.4,0.5c0.3,0,0.5,0,0.6,0.2c-0.5,0-0.8,0.2-1,0.7
			c-0.2,0.5-0.4,1.1-0.4,1.8c0,0.7-0.1,1.4-0.1,2.1c0,0.7,0,1.3,0,1.8c0,1.3-0.1,2.8-0.3,4.2c-0.2,1.5-0.2,3-0.1,4.5
			c0,2.2,0.1,4.2,0.2,6c0.1,1.8,0.2,3.9,0.2,6.3c0.2,5.7,0.3,11.3,0.2,17c-0.1,5.7-0.2,11.4-0.2,17c2.6,0,5.1,0.1,7.5,0.5
			c2.4,0.3,4.8,0.2,7.4-0.5c1.8-0.6,3.2-1.5,4.3-2.8c1.1-1.3,1.8-2.7,2.4-4.3c0.5-1.6,0.9-3.3,1.1-5c0.2-1.8,0.4-3.4,0.5-5
			c0.3-3.5,0.6-7.1,0.8-10.7C265,358,265.2,354.4,265.3,351z M240.3,340c0.1,0.2,0.2,0.2,0.1,0.2C240.4,340.2,240.3,340.2,240.3,340
			z"/>
		<path d="M318.9,289.1c-0.6,0-1.1-0.1-1.6-0.2l0.1-1.7v-1l-0.3-0.2c0.2-0.3,0.3-0.6,0.3-0.9l0.7-0.6l4.9-2.9h-4.2
			c0,0-0.2-1,0.2-1.5c0.3-0.5,0.3-2.2,0-2.4c-0.3-0.2,0-0.7,0-0.7l1-0.6l-1-0.9v-1.6c0.1-0.1,0.1-0.1,0.2-0.2c0.8-0.9,1.4-2,1.9-3.3
			c0.5-1.2,0.8-2.5,1-3.8c0.2-1.1,0.3-2,0.5-2.8c0.1-0.2,0.3-0.4,0.4-0.6c0.4-0.7,0.6-1.5,0.6-2.1c0-1,0.3-2.1,1-3.3
			c0.8-1.4,1.3-2.8,1.6-4c0.6-0.7,1.1-1.7,1.5-3.1c0.4-1.3,0.6-2.3,0.5-3.1c0.2-0.6,0.3-1.3-0.1-1.9c0,0,0.1-0.1,0.1-0.1
			c0.8-1.1,1.4-2.3,1.7-3.3c0,0-0.2-0.7,0-0.9l0.8-1l-0.5-0.9c0.2-0.5,0.5-0.9,0.8-1.4c0.9-1.2,1.5-2.5,1.8-4c0.4-0.6,0.7-1.3,1-2.1
			c0.4-1.1,0.7-2.1,0.9-3l0.1-0.5c0.2-0.3,0.3-0.5,0.5-0.8c0.2-0.4,0.5-0.8,0.6-1.2c0.2-0.3,0.2-0.6,0.3-0.9
			c0.3-0.4,0.5-0.7,0.6-0.9c0.5-0.9,0.9-1.9,1.3-2.9c0.4-1,0.7-2,0.9-2.9c0.1-0.3,0.1-0.5,0.2-0.8c0.6-0.7,0.9-1.6,1.2-2.4l0.4-1
			c0.3-0.5,0.4-1,0.6-1.6c0.2-0.4,0.3-1,0.6-1.5c0.6-0.5,0.8-1,1-1.4c0-0.1,0.1-0.1,0.1-0.2c0.4-0.5,0.5-1.2,0.7-1.8
			c0-0.2,0.1-0.5,0.2-0.7c0.7-0.7,1.4-2,1.7-2.5c0.2-0.5,0.4-0.9,0.5-1c0.6-0.5,0.9-1.1,1.2-1.6c0.1-0.2,0.2-0.4,0.3-0.5
			c0.2-0.2,0.5-0.5,0.8-0.9c0.4-0.4,0.7-0.9,1.4-1.4c0.7-0.6,1.1-0.9,1.3-1.2c0,0,0.1,0,0.2-0.1c0.9-0.4,1.4-0.8,1.7-1.1
			c1-0.2,1.8-0.6,2.5-1c0.7-0.4,1.3-0.7,2-0.8c1.2-0.1,2.7-0.5,4-0.9c0.5-0.1,1.2-0.4,1.6-0.4l0,0c0.4,0.1,0.9,0.3,1.7,0.3
			c0.5,0,1-0.1,1.6-0.2c0.6-0.2,1.1-0.3,1.4-0.5c0.1,0,0.3,0,0.5,0c0.1,0,0.3,0,0.4,0c1.4,5.5,3,10.8,4.8,15.8
			c2.9,8.1,5.9,16.4,9,24.7l3.7,9c1.2,3,2.5,6,3.8,8.8c0.2,0.5,0.6,1.8,1.3,3.9c0.8,2.3,1.6,4.8,2.5,7.4c0.9,2.6,1.9,5,2.8,7.2
			c0.6,1.5,1.3,2.8,2.2,3.6c0.2,0.5,0.4,1.2,0.8,1.9c0.2,0.3,0.4,0.8,0.8,1.3c0,0.1,0,0.1,0,0.2c0,0.1,0,0.2,0,0.3H398l3.6,3.2
			c0.1,0.1,0.2,0.4,0.3,0.8c0,0.1,0,0.1,0.1,0.2c-0.2,0.4-0.2,0.7-0.2,0.9v1.1l-3.9-3.2l1.3,3.7H399v0.7c-1.3,0.3-1.8,1-2,1.4
			l-0.3,0.6h-0.4l0.2,0.4l-1,1.8c-0.3,0-0.7-0.1-1.1-0.1c-0.7-0.1-1.3-0.1-1.8-0.1c-0.7,0-1.3,0.1-1.8,0.2l0-0.1
			c-0.3,0-0.5,0-0.8,0.1c-0.3-0.1-0.6-0.1-1-0.1c-0.1,0-0.3,0-0.4,0v-0.2l0.3-0.3h1.8l-0.9-0.8l0.8-0.7l-1.6,0l-0.6-0.5l1.9-1.7
			h-3.7c-0.1-0.1-0.1-0.2-0.2-0.3c-0.2-0.3-0.3-0.6-0.5-0.8c0-0.3-0.1-0.6-0.2-0.8c-0.1-0.2-0.2-0.3-0.3-0.5c0-0.2-0.1-0.4-0.2-0.6
			c-0.2-0.7-0.6-1.4-1-2.2c-0.4-0.8-0.9-1.5-1.3-2.2c-0.1-0.2-0.2-0.3-0.3-0.5v0l-0.2-0.4c-0.4-0.7-0.7-1.2-0.9-1.7
			c-0.3-0.7-0.7-1.3-1.1-1.8c-0.5-0.6-1.1-1.1-1.9-1.5c-0.7-0.3-1.6-0.6-2.8-0.8c-4.2-0.9-8.6-1.3-13.1-1.4c-4.3,0-8.5-0.1-12.6-0.1
			h-7c-1.7,0.1-2.8,0.3-3.6,0.5c-1.5,0.5-2.2,1.3-2.5,2c-0.3,0.7-0.5,1.5-0.5,2.4c0,0.5-0.1,1.3-0.3,2.2l0,0.2v0.2
			c0,0,0,0.4-0.2,0.6c-0.2,0.2-4.1,0-4.1,0s3,2.5,3.1,2.7c0.1,0.2-0.1,0.2-0.1,0.4c0,0-1.7,3-1.5,3.2c0.2,0.3,0.1,2.1,0,2.4
			c-0.1,0.3-0.8,0.2-0.6,0.6c0.1,0.3-1,1.5-1.1,1.7c0,0.2,0.1,0.5,0.1,0.5c-0.1,0.1-0.2,0.2-0.3,0.3c-0.4,0-0.8,0-1.2,0.1
			c-1.2,0.1-2.5,0.2-3.5,0.7c-0.1,0-0.2,0-0.3,0c-1.2-0.1-2.3-0.2-3.3-0.2c-1,0-1.8-0.1-2.6-0.2c-0.3,0-0.5-0.1-0.6-0.1
			C320.2,289.4,318.9,289.1,318.9,289.1z M350.3,228.7v1.6c0,0.8-0.2,1.7-0.5,2.7c-0.4,1.1-0.9,2.3-1.4,3.5
			c-0.5,1.2-1.1,2.5-1.6,3.7c-0.5,1.3-0.9,2.5-1.3,3.7c-0.6,1.3-1.2,3-1.9,4.7c-0.7,1.8-1.2,3.6-1.4,5.2l-0.2,1.5l1.7,0.5
			c0.9,0.3,2,0.4,3.3,0.4c0.9,0,1.8-0.1,2.9-0.2l5.4-0.7h4c1.2,0,2.5,0.1,3.9,0.3l0.2,0h0.2c0.3,0,0.7,0,1.2,0.1
			c0.7,0.1,1.5,0.2,2.3,0.3c0.9,0.1,1.8,0.2,2.5,0.2c1.2,0,2.1-0.2,2.8-0.6l1.9-1.1L373,253c-1.6-2.1-2.8-4.4-3.5-6.8
			c-0.8-2.7-1.7-5.3-2.7-7.5c-1.3-2.9-2.5-6.2-3.7-9.5c-1.2-3.6-2.9-6.9-4.9-9.9l-1.9-2.9l-1.9,2.9c-0.5,0.7-0.8,1.6-1.1,3
			c-0.2,1.1-0.5,2.1-0.7,3.3c-0.3,1.1-0.5,2-0.8,2.7c0,0.1-0.1,0.1-0.1,0.2L350.3,228.7z"/>
		<path d="M536.7,232.5c-0.1,0.8-0.2,2.4-0.4,4.8c-0.2,2.4-0.1,4.4,0.4,6l1-9.3C537.8,233.1,537.4,232.6,536.7,232.5z"/>
		<path d="M536.6,244.7c-0.2,1.5-0.3,2.9-0.4,4.4c-0.3,4.3-0.4,8.5-0.4,12.8h0.6c0.2-2.7,0.3-5.7,0.3-8.9
			C536.6,250,536.6,247.3,536.6,244.7z"/>
		<path d="M536.1,253.8c0,0.1,0,0.2,0,0.3C536.2,254,536.2,253.9,536.1,253.8C536.2,253.8,536.2,253.8,536.1,253.8z"/>
		<path d="M536.7,172.3v5.2c0-0.8,0.1-1.9,0.4-3.2C537.4,173,537.2,172.3,536.7,172.3z"/>
		<path d="M536.6,187.5c0.4-1.1,0.7-2.3,0.8-3.6c0.1-1.3,0.2-2.5,0.2-3.6c0-1.1-0.1-1.8-0.4-2c0,1.9-0.3,3.8-0.8,5.6
			c-0.6,1.9-0.8,3.6-0.8,5.2C535.8,189.1,536.2,188.6,536.6,187.5z"/>
		<path d="M536.8,216.6c0.2,2.6,0,4.9,0.5,7.9c0.3,0.1,0.2-1.1,0.1-3.1c-0.1-1.6,0.1-3.3,0.2-5.2c0.1-1.9,0-3.6-0.1-5.1
			c-0.1-1.5-0.3-2.5-0.7-2.8C536.9,211.2,536.7,214,536.8,216.6z"/>
		<path d="M605.7,360.4c-0.2,1.3-0.3,2.7-0.4,4.1c-0.3,3.9-0.4,7.9-0.4,11.8l1.1,0c0.2-2.5-0.3-5.3-0.3-8.2
			C605.7,365.3,605.7,362.8,605.7,360.4z"/>
		<path d="M587,378.5c-0.6,1.7-0.9,3.7-1,5.9c-0.1,2.2-0.1,4.1,0,5.8c0.1,1.7,0.4,2.8,0.8,3.2c-0.2-3,0.1-6,0.8-9.1
			c0.7-3.1,1-5.9,0.9-8.4C588.1,375.8,587.6,376.7,587,378.5z"/>
		<path d="M634.6,290.6c-5.7,0-11.3-0.1-17-0.2c-0.7,0-1.4,0-2,0l-0.8,0c-0.2,0-0.6-0.1-1-0.1c-0.8-0.1-1-0.2-1.4-0.3l-1-0.2
			c-0.7-0.1-1-0.3-1.4-0.4l-0.7-0.3c-0.7-0.2-1.2-0.3-1.8-0.5c-0.3-0.1-0.7-0.1-1.2-0.3c-0.7-0.2-1-0.3-1.4-0.5
			c-0.3-0.1-0.6-0.3-0.9-0.4c-0.5-0.2-0.9-0.3-1.4-0.3h-0.1c-0.1-0.3-0.3-0.6-0.6-0.8l-0.2-0.2l-0.3-0.2c0,0-3.1-1.6-3.9-1.9
			c-0.3-0.1-0.9-0.5-1.2-0.8c-0.6-0.7-1.4-1.5-2.3-2c-0.5-0.3-1-0.7-1.4-1c-0.2-0.2-0.4-0.3-0.6-0.4c-0.4-0.3-0.8-0.7-1.1-1
			c-0.1-0.1-0.1-0.2-0.2-0.3c-0.2-0.3-0.4-0.6-0.7-0.8c-0.2-0.2-0.5-0.8-0.5-0.8c-0.1-0.2-0.7-1-0.9-1.4l-0.6-1.7l-0.4,0.1
			c-0.2-0.5-0.4-0.8-0.5-1.1c0,0,0-0.1,0-0.1c0-0.3,0-0.6-0.1-0.8c-0.1-0.3-0.2-0.7-0.5-1.1c-0.1-0.4-0.3-0.9-0.5-1.9
			c-0.3-1.1-0.7-2-1.2-2.7c-0.1-0.8-0.4-2.1-1.3-4.7c-0.8-2.3-1.9-4.9-3.1-7.8c-1.3-2.9-2.7-6-4.2-9.1c-1.5-3.2-3-6-4.3-8.6
			c-1.4-2.6-2.6-4.7-3.6-6.4c-0.4-0.7-0.8-1.2-1.2-1.7v-1.2l-1.2-0.6c-0.8-0.4-1.8-0.6-2.9-0.6c-0.3,0-0.7,0-1,0
			c-1.1,0.1-1.9,0.2-2.4,0.2h-2.2v0.2H557v2.2c0,5.6-0.1,11.2-0.4,16.7c-0.3,5.5-0.4,11.1-0.4,16.8c0,0.8-0.1,1.6-0.3,2.3
			c-0.3,1.1-0.4,2.1-0.4,3.2c0,0.4-0.1,1.2-0.2,2.4c-0.1,1.3-0.2,2.7-0.3,4.2c-0.1,1.5-0.1,2.9,0,4.1c0,0.2,0,0.5,0,0.7
			c-0.1,0.1-0.2,0.2-0.2,0.4l-0.5,1l0.5,1.2c0.1,0.1,0.1,0.3,0.2,0.4c-0.1,0.2-0.1,0.5-0.1,0.7h-0.5v0.4l-3.5,2l3.5,0.1v1.3
			l-1.6,0.8l0.2,1.2l-1.6,2.4h0.8v0.2l0,0c-0.8,0.1-2,0.1-3.5,0.1c-0.5,0-1.3,0-2.5-0.1c-1.2-0.1-2.4-0.1-3.7-0.1
			c-0.6,0-1.2,0-1.8,0l1.6-1.6h-1.2l0.2-0.3l0.8-0.8h-0.4l0.7-1.5h-2.3c0.1-0.5-0.1-0.9-0.2-1.2c0-0.3-0.1-0.5-0.2-0.7l-0.6-1.2h0
			l-0.1-0.5l-0.3,0v-1.2h-0.6c0-0.3,0-0.6,0-0.9c0-0.4,0-0.7,0.1-1.1c0.3-0.4,0.5-0.8,0.6-1.1l0.5-0.5l-0.4-1.1l0-0.3l0,0
			c0.1-0.6,0.1-1.4,0.1-2.4c0-1.5-0.1-2.7-0.3-3.7v-2l0,0l0-0.1v-1.8h0.3l0.2-2.2c0-0.5,0-1.4,0.2-3c0.2-1.4,0.3-2.9,0.4-4.5
			c0.1-1.6,0.1-3.2,0.1-4.6c-0.1-1.3-0.3-2.4-0.6-3.3c0.1-1.1,0.3-2.2,0.5-3.3l0-0.2l0-0.2c0-0.8,0.1-1.8,0.1-2.7h0.4
			c0-1.3,0.1-2.9,0.3-4.7c0.2-2,0.1-3.6-0.3-5.1c0.3-2.1,0.5-4.3,0.5-6.5c0.1-2.4,0.1-4.7,0.1-7v-0.3l-0.1-0.3
			c-0.1-0.5-0.2-1.3-0.2-2.8c0.1-1.4,0.1-2.9,0.1-4.5c0-1.6,0-3.1-0.1-4.5c-0.1-1.5-0.3-2.6-0.6-3.5l0-0.1v-1.6l0-0.1
			c-0.1-0.9-0.2-1.8-0.3-2.5l0.3,0v-10.8c0-4.5,0.2-9.1,0.7-13.7l0.6,0.6v-4.9h0.5c0,0.2-0.1,0.4-0.2,0.5c0,0,0.1-0.1,0.4-0.2
			c0.5-0.1,1-0.3,1.7-0.5c0.3,0.1,0.6,0.2,0.9,0.2h1.5l0.3-0.8c0.1,0,0.1,0,0.2,0h0.4c0.9,0,1.6-0.2,2.3-0.5c3-0.3,6.2-0.5,9.6-0.5
			c3.5,0,6.9,0,10.2,0.1c3.2,0.1,6.2,0.2,8.8,0.4c2.6,0.2,4.5,0.4,5.5,0.5c6,0.7,11.3,2.4,15.8,5c4.3,2.5,7.5,6.6,9.6,12.3
			c0.9,2.3,1.6,4.6,2.1,6.7c0.4,2,0.4,4.1-0.1,6.3l-0.1,0.2v0.2c0,0.7-0.1,1.4-0.3,2.1l-0.7,2.6l-0.1,0.3c-0.4,0.4-0.6,1-0.8,1.7
			l-0.2,0.2l0,0.2l-0.7,1.2c-0.2,0.3-0.4,0.6-0.6,1c-0.1,0.2-0.3,0.6-0.3,0.6c-0.4,0.7-0.7,1.4-1.1,2l-1.7,2
			c-0.6,0.7-1.1,1.4-1.6,1.9c-0.5,0.6-0.8,1-1.4,1.5L598,214l1,1.6c0,0.4-0.1,1.2-0.1,1.2l1.6,1.3c-0.4,0.4-0.7,0.6-0.9,0.8
			c-0.9,0.8-2.1,1.5-3.5,2l-0.2,0.1l-0.2,0.1c0,0-0.3,0.2-1.2,0.4c-0.9,0.3-1.9,0.6-3,0.9c-1,0.3-2,0.6-2.9,0.9
			c-1.2,0.3-2.6,0.9-3,2.3l-0.4,1.2c0,0,0.9,1,0.9,1.1v0.4l0.4,0.6c0,0,0.1,0.2,0.3,0.8c0.2,0.7,0.3,1.2,0.6,1.6
			c0.1,0.7,0.4,1.4,0.7,2.2c0.4,0.8,0.9,1.7,1.5,2.6c0.5,0.8,1,1.7,1.5,2.5l1.1,1.8c0.5,1.6,1.1,3,1.6,4.3c0.6,1.4,1.3,3,2.2,4.6
			c0.5,1.2,1.2,3,1.8,5.1c0.7,2.2,1.5,4.1,2.4,5.6c0.1,0.3,0.2,0.7,0.4,1c0.3,0.7,0.6,1.4,1,2.1c0.3,0.6,0.5,1.1,0.7,1.6l0,0.3
			l0.1,0.3c0.1,0.3,0.7,2,1.6,2.9c0,0,0.1,0.2,0.2,0.3c0.3,0.6,0.7,1.3,1.4,1.7c0.1,0.2,0.2,0.3,0.4,0.5c0.7,0.7,1.5,0.9,2,1.1
			c0.2,0.1,0.4,0.1,0.5,0.1c0.1,0.2,0.2,0.5,0.4,0.8c0.4,0.9,1.4,1.3,1.8,1.4c0.5,0.2,1.1,0.3,1.6,0.4c0.3,0.1,0.8,0.2,0.9,0.2
			l0.4,0.2l0.6,0.2c0.1,0,0.3,0,0.9,0.2c0.9,0.2,1.8,0.4,2.4,0.6c0.5,0.1,0.9,0.2,1.2,0.3l0.5,0.2c0,0,0.7,0.1,0.8,0.1
			c1.4,0,3-0.1,4.1-1c0,0,0,0,0.1,0c0.4,0,0.9,0,1.4,0.1c1.9,0.2,4.1,0.3,6.5,0.6c2.5,0.2,4.8,0.4,6.9,0.4l0.6,0
			c1.1,0,2.4-0.1,3.4-0.5c0.5,0.1,0.9,0.1,1.4,0.2c1.5,0.2,3.3,0.3,5.5,0.3l7,0.2c2.5,0.1,5,0.1,7.3,0.1h9.3l0.3-0.1
			c0,0,0.4-0.1,1.9-0.3c1.2-0.2,2.5-0.3,3.8-0.4c1.3-0.1,2.5-0.2,3.5-0.3l2,0.1c0.3,0,0.6,0,0.8,0v1.2c0,0,1.5-0.2,1.7,0l-1.8,2.8
			l1.4,0c0,0-1.1,0.9-0.8,1.4c0.3,0.5-0.6,1.4-0.6,1.4l1.1,1.2l0.7,0.7c0,0,0.8-0.2,0.9,0c0.2,0.3,0,1.4,0,1.4c0,0.4,0,0.9-0.1,1.3
			c0,0.2-0.1,0.5-0.2,0.8c-0.1,0.2-0.3,0.6-0.4,1l-0.1,0.4c-0.5,0-1.1,0.2-1.5,0.6h-0.8c-8.3,0-16.6,0.1-25,0.2
			c0.6-0.4,1.1-1.1,1.1-2.1v-5.4c0,0-1.9,2.6-2.6,2.6c-0.7,0,0-2.6,0-2.6s-1.9,2.5-3.2,3.1c-1.2,0.7-8.5,0-8.5,0
			c-1.7,0-2.6,1.2-2.6,2.4v2.2C641.4,290.6,638,290.6,634.6,290.6z M564.9,210c0.8,0,1.1,0.2,1.1,0.2l3.4,2v-1.7h0.2v0c0,0,0,0,0,0
			v0c0.9,0,1.7,0.1,2.6,0.3c0.7,0.2,1.5,0.3,2.2,0.3c0.5,0,1-0.1,1.5-0.1h0.3l0.1,0.4l2.3-0.6l1.7-0.3c0.2,0,0.5,0,0.7,0
			c0.7,0,1.4,0,2.1-0.1c1.1-0.1,2.1-0.3,3-0.5c0.8-0.2,1.5-0.6,2.2-1.1l0.2-0.2l0.2-0.3c0.2-0.3,0.5-0.7,0.9-1.1
			c0.5-0.6,0.9-1.2,1.4-1.9c1.2-2,2.1-4,2.6-6.1c0.5-2.2,0.5-4.3-0.1-6.3c-0.6-2-1.8-3.7-3.4-5.1c-0.5-0.4-1-0.8-1.6-1.2v-1
			c0,0-1.8,0.2-2.1,0c-0.3-0.2-1.9-0.7-2.9-0.9c-1.8-0.4-3.5-0.6-5.3-0.6c-1.6-0.1-3.4-0.1-5.3-0.1h-10.8l-1.8-7.7l-1.2,7.6
			c-0.5-0.2-0.9-0.2-1-0.2h-0.9l-0.8,0.7l-0.9,0.9l-0.1,0.8c-0.2,3.6-0.3,7.3-0.1,11c0.2,3.6,0.4,7.3,0.7,10.9l0.2,2
			c0,0,2.1,0,2.1,0l0.5,0.5l1-0.1c0.3,0,0.5,0,0.7-0.1c0.4-0.1,0.8-0.2,1.3-0.4H564.9z"/>
		<path d="M635.1,382.9l4.2,8.1l-0.4,1.1c0.6,2.1,3.3,8.6,3.3,8.6l1.2,3.3l-3.2,0.1l-2.2-0.4l-2.2-0.7l-1.1-1.9l0.1,2.5l-3.2,0.8
			l-1.5-0.4l-1.8-3.3l-1-3.5c0,0-0.4-3.2-0.6-3.6c-0.1-0.4-1.1-2.2-1.5-3.1c-0.4-0.8-0.6-2.5-0.6-2.5l1.3-2.2l-2.3,0.8
			c-0.1-0.6-0.4-1.6-0.9-3.1c-0.6-1.7-1.4-3.6-2.3-5.7c-0.9-2.1-2-4.4-3.1-6.7c-1.1-2.3-2.2-4.4-3.2-6.3c-1-1.9-1.9-3.5-2.7-4.7
			c-0.3-0.5-0.6-0.9-0.9-1.3V358l-0.9-0.5c-0.6-0.3-1.3-0.4-2.1-0.4c-0.2,0-0.5,0-0.8,0c-0.8,0.1-1.4,0.1-1.8,0.1h-1.7v0.1h-0.2v1.7
			c0,4.1-0.1,8.3-0.3,12.3c-0.2,4-0.3,8.2-0.3,12.3c0,0.6-0.1,1.2-0.2,1.7c-0.2,0.8-0.3,1.6-0.3,2.3c0,0.3,0,0.9-0.1,1.8
			c-0.1,1-0.1,2-0.2,3.1c0,1.1,0,2.1,0,3c0,0.2,0,0.3,0,0.5c-0.1,0.1-0.1,0.2-0.2,0.3l-0.4,0.7l0.4,0.9c0.1,0.1,0.1,0.2,0.2,0.3
			c-0.1,0.2-0.1,0.3-0.1,0.5h-0.4v0.3l-2.5,1.5l2.5,0.1v0.9l-1.2,0.6l0.1,0.9l-1.2,1.8h0.6v0.2l0,0c-0.6,0.1-1.5,0.1-2.6,0.1
			c-0.4,0-1,0-1.8-0.1c-0.9,0-1.8-0.1-2.7-0.1c-0.5,0-0.9,0-1.3,0l1.2-1.2h-0.9l0.1-0.2l0.6-0.6h-0.3l0.5-1.1h-1.7
			c0-0.4,0-0.7-0.1-0.9c0-0.2-0.1-0.4-0.2-0.5l-0.5-0.9h0l-0.1-0.4l-0.2,0v-0.9h-0.4c0-0.2,0-0.4,0-0.6c0-0.3,0-0.5,0-0.8
			c0.2-0.3,0.4-0.6,0.4-0.8l0.4-0.4l-0.3-0.8l0-0.2l0,0c0.1-0.5,0.1-1,0.1-1.8c0-1.1-0.1-2-0.2-2.7v-1.5l0,0l0-0.1v-1.3h0.2l0.1-1.7
			c0-0.3,0-1,0.2-2.2c0.1-1,0.2-2.1,0.3-3.3c0.1-1.2,0.1-2.3,0.1-3.4c0-1-0.2-1.8-0.5-2.4c0.1-0.8,0.2-1.6,0.4-2.4l0-0.1l0-0.1
			c0-0.6,0-1.3,0-2h0.3c0-1,0.1-2.1,0.2-3.4c0.2-1.5,0.1-2.7-0.2-3.7c0.2-1.5,0.3-3.1,0.4-4.8c0-1.8,0.1-3.5,0.1-5.2v-0.2l-0.1-0.2
			c-0.1-0.3-0.2-1-0.1-2c0-1.1,0.1-2.2,0.1-3.3c0-1.2,0-2.3-0.1-3.3c0-1.1-0.2-1.9-0.5-2.6l0-0.1v-1.1l0-0.1
			c-0.1-0.7-0.2-1.3-0.2-1.9l0.2,0v-7.9c0-3.3,0.2-6.7,0.5-10.1l0.4,0.4v-3.6h0.4c0,0.1-0.1,0.3-0.2,0.3c0,0,0.1-0.1,0.3-0.1
			c0.3-0.1,0.8-0.2,1.2-0.3c0.2,0.1,0.4,0.1,0.6,0.1h1.1l0.3-0.6c0,0,0.1,0,0.1,0h0.3c0.7,0,1.2-0.1,1.7-0.3
			c2.2-0.2,4.5-0.4,7.1-0.4c2.6,0,5.1,0,7.5,0.1c2.4,0,4.5,0.1,6.4,0.3c1.9,0.2,3.3,0.3,4.1,0.4c4.4,0.5,8.3,1.8,11.6,3.7
			c3.2,1.8,5.5,4.9,7.1,9.1c0.7,1.7,1.2,3.4,1.5,4.9c0.3,1.5,0.3,3-0.1,4.6l0,0.2v0.2c0,0.5-0.1,1-0.2,1.6l-0.5,1.9l-0.1,0.2
			c-0.3,0.3-0.5,0.7-0.6,1.2l-0.1,0.1l0,0.2l-0.5,0.9c-0.1,0.2-0.3,0.5-0.4,0.7c-0.1,0.1-0.2,0.4-0.2,0.4c-0.3,0.5-0.5,1-0.8,1.5
			l-1.2,1.5c-0.4,0.5-0.8,1-1.2,1.4c-0.4,0.4-0.6,0.7-1,1.1l-4.3-3.9l1.8,2.6c0,0.3-0.1,1.4-0.1,1.4l1.9,0.6
			c-0.3,0.3-0.5,0.5-0.7,0.6c-0.7,0.6-1.6,1.1-2.6,1.5l-0.2,0.1l-0.1,0.1c0,0-0.2,0.1-0.9,0.3c-0.7,0.2-1.4,0.4-2.2,0.7
			c-0.7,0.2-1.4,0.4-2.1,0.6c-0.9,0.3-1.9,0.7-2.2,1.7l-0.3,0.9c0,0,0.6,0.8,0.7,0.8v0.3l0.3,0.4c0,0,0.1,0.1,0.2,0.6
			c0.1,0.5,0.2,0.9,0.4,1.2c0.1,0.5,0.3,1,0.5,1.6c0.3,0.6,0.7,1.2,1.1,1.9c0.4,0.6,0.8,1.2,1.1,1.8l0.8,1.3
			c0.4,1.2,0.8,2.2,1.2,3.2c0.4,1.1,1,2.2,1.6,3.4c0.4,0.9,0.9,2.2,1.4,3.7c0.5,1.6,1.1,3,1.8,4.1 M609.1,345.8
			c0.6,0,0.8,0.1,0.8,0.1l2.8,2.6l-0.3-2.3h0.1v0c0,0,0,0,0,0v0c0.6,0,1.3,0.1,1.9,0.2c0.5,0.1,1.1,0.2,1.6,0.2c0.4,0,0.7,0,1.1-0.1
			h0.2l0.1,0.3l1.7-0.4l1.3-0.2c0.2,0,0.4,0,0.5,0c0.5,0,1,0,1.6-0.1c0.8-0.1,1.5-0.2,2.2-0.4c0.6-0.2,1.1-0.4,1.6-0.8l0.2-0.1
			l0.1-0.2c0.1-0.2,0.3-0.5,0.6-0.8c0.3-0.4,0.7-0.9,1-1.4c0.9-1.4,1.5-2.9,1.9-4.5c0.4-1.6,0.4-3.2-0.1-4.6
			c-0.4-1.4-1.3-2.7-2.5-3.8c-0.3-0.3-0.7-0.6-1.2-0.9c0,0,0.2-0.5,0-0.7c-0.2-0.3-1.3,0.2-1.5,0c-0.2-0.2-1.4-0.5-2.2-0.7
			c-1.3-0.3-2.6-0.4-3.9-0.5c-1.2,0-2.5-0.1-3.9-0.1h-7.9c0,0-0.6-1.7-1.1-1.7c-0.5,0-1.1,1.6-1.1,1.6c-0.4-0.2-0.7-0.2-0.8-0.2
			h-0.7l-0.6,0.5l-0.7,0.7l0,0.6c-0.2,2.6-0.2,5.4-0.1,8.1c0.1,2.7,0.3,5.4,0.5,8l0.1,1.5c0,0,1.5,0,1.5,0l0.4,0.4l0.8,0
			c0.2,0,0.3,0,0.5-0.1c0.3,0,0.6-0.1,1-0.3H609.1z"/>
		<path d="M287.9,315.8c0.6,0,2.3,0.6,3,0.8c0.6,0.2-0.6-0.4,0.6,0.2c1.3,0.6,1.7,0.4,2.6,0.6c0.9,0.2,0.9,0.2,0.9,0.2
			s-0.2,1.3-0.4,1.9c-0.2,0.6-0.8,1.1-1.3,1.9c-0.4,0.8-0.8,0.4-1.5,1.9c-0.6,1.5,0.4-0.2-0.6,1.5c-1.1,1.7-0.2,0.4-1.7,2.3
			c-1.5,1.9,0,0.2-1.5,1.9c-1.5,1.7-1.7,2.1-2.3,3c-0.6,0.8-1.7,1.5-1.7,1.5l-0.2-1.3l-0.9-2.3l-0.8-0.2c0,0-1.3-1.1-0.9-1.7
			c0.4-0.6,1.5-5.7,3-7.7c1.5-1.9,1.3-3.6,2.1-4c0.9-0.4,0.9-0.4,0.9-0.4"/>
		<path d="M477,239.8c0.3,4,0.4,8.2,0.4,12.4c0-0.7,0-2.3,0.1-4.8c0.1-2.5,0.2-5.2,0.3-8.1c0.1-2.9,0.1-5.6-0.1-8
			c-0.2-2.4-0.6-3.9-1.1-4.4C476.6,231.4,476.7,235.8,477,239.8z"/>
		<path d="M556.1,403.8c-1.8,0-3.6-0.2-5.4-0.4c-4.2-0.7-8.1-2.2-11.6-4.4c-2-1.3-3.8-2.9-5.1-4.8v-2.5l-1.2,0.5
			c-0.4-0.6-0.7-1.3-1-2c-1-2.4-1.4-5-1.3-7.7c0.1-2.9,0.2-5.8,0.2-8.5c0-0.1,0-0.5,0.2-2c0.2-1.2,0.3-2.5,0.5-3.8
			c0.1-1.3,0.2-2.6,0.2-3.8c0-1-0.1-2.1-0.8-2.9c0-0.2,0-0.6,0.1-1.1c0.1-1.4,0.3-3,0.5-4.8c0.2-1.8,0.3-3.5,0.3-5
			c0-1,0-2.1-0.4-2.9c0.1-0.3,0.1-0.7,0.2-1c0.1-1.1,0.2-2.4,0.3-4c0-1.6,0.1-3.3,0.1-5.1c0-1.9,0.1-3.6,0.1-5.3v-6.8l-0.1-0.3
			c0,0-0.1-0.3-0.2-1.4c-0.1-0.9-0.2-1.8-0.3-2.8c-0.1-0.8-0.1-1.5-0.2-2.1h0.1c0,0,0-1.7,0-1.8l0-0.1c0-0.2,0-0.4,0-0.6h0.9
			c0,0-0.2-1,0-1.2c0.2-0.2,2.2,1.3,2.2,1.3s0-0.4,0-0.5c0.1-0.1,1.9,0.2,1.9,0.2h0.8l0.6-0.5l0.9-0.8l-0.2-0.4h1c0.4,0,0.7,0,1,0
			c0.2,0,0.4,0.1,0.6,0.1c0.3,0.2,0.7,0.3,1.1,0.3c0,0.3,0.1,0.7,0.3,1c0,0.1,0.1,0.1,0.2,0.2v0.6c0,3.9,0,7.9,0.1,11.9
			c-0.3-0.4-1.9,2.7-1.4,2.7c0,0,1.3-0.2,1.5,0c0,0,0,2.4,0.1,3.7c-0.3-0.4-0.9-0.8-1.7-0.8l2,5.2l0.3,2.3c0.2,0.9-0.9,4.8-0.9,4.8
			s0.6-1.1,0.6-1.2c0.1,7,0.1,14.1-0.1,21c0,2.6-0.1,5.1-0.3,7.6c-0.2,2.6-0.3,5.2-0.3,7.9c0,1.5,0.3,3.1,0.8,4.7
			c0.6,1.8,1.9,3.3,3.7,4.4c1,0.6,2.3,1.2,3.8,1.6c1.5,0.4,3,0.6,4.6,0.7l0.5,0c1.4,0,2.8-0.2,4-0.6c1.3-0.4,2.4-1,3.2-2l1.6,2v-4.9
			c0-0.4,0.2-0.9,0.4-1.5c0.5-0.9,0.7-1.7,0.7-2.4c0.4-1.7,0.4-3.4,0.3-5.2c-0.2-1.6-0.3-3.2-0.3-4.6c0-0.5-0.1-1.3-0.2-2.3
			c-0.1-0.9-0.3-1.9-0.4-2.9c-0.1-1-0.2-1.9-0.2-2.7c0-0.6,0.1-0.8,0.1-0.9l0.4,0.2v-0.6l0,0l0-0.6v-1.4c0,0,0-0.2,0.1-0.5
			c0.1-0.5,0.1-0.9,0-1.2c0-0.1,0-0.1,0-0.2c0-0.3,0-0.5-0.1-0.7c0-0.5,0-1.2,0.1-2c0-1.4,0.1-3,0.2-4.8l0.3-5.7
			c0.1-2,0.2-3.8,0.3-5.4c0.1-1.6,0.2-3,0.3-4c0,0,0,0,0-0.1h0.3v-2.8c0-0.5,0-1.2-0.1-2.1c0-0.2,0-0.4,0-0.5c0.8-0.9,0.8-2.4,0.8-3
			c0-1-0.1-1.7-0.1-2c0-0.1,0-0.3,0.1-0.3l0.2-0.3v-1l0.2,0.1l-0.2-1.8h0.1v-1.6c0-0.3,0-0.7,0.1-1.4l0.1-1.2l0.3-0.3l-0.3-0.3
			c0,0,0.1-0.5,0.1-0.6h0.5l0.6-0.4c0.4-0.2,0.6-0.5,0.7-0.8h0v0c0-0.1,0.1-0.2,0.1-0.3h0.1l0-0.6c0.1-0.2,0.2-0.4,0.3-0.7l0.5-1.2
			c0.1,0,0.3,0,0.4,0c0.5-0.1,1.1-0.1,1.7-0.2l1,0c0.2,0,0.5,0,0.8-0.2c0.7,0.2,1.5,0.3,2.4,0.5l2.7,0.5c-0.1,0.2-0.1,0.4-0.2,0.6
			l-0.3,0.3v0.7c0,0.4,0.1,0.7,0.3,1v0.1h0c0,0.3,0.1,0.7,0.3,1c0,0.1,0.1,0.3,0.1,0.4c-0.3,1.1-0.4,2.4-0.3,3.8
			c0.1,1.5,0,2.9-0.1,4.2c-0.2,1.5-0.3,2.9-0.4,4.3c-0.1,1.4-0.1,2.9-0.1,4.4c-0.3,3.1-0.5,6.3-0.6,9.5c0,3.1-0.2,6.2-0.3,9.3
			c-0.2,3.4-0.4,6.8-0.8,10.3c-0.4,3.5-0.2,6.9,0.5,10.2c-0.2,0.6-0.1,1.1,0,1.3c0.1,0.2,0.1,0.4,0.1,0.5v4.8c0,0.3-0.1,1.1-0.4,2.6
			c-0.3,1.3-0.6,2.6-1,4c-0.3,1.5-0.7,3.1-1.2,4.7l-1.9,2.3c-0.5,0.6-1.1,1.3-1.5,2c-0.3,0.5-0.5,0.7-0.6,0.9
			c-0.5,0.6-1,1.1-1.6,1.5c-0.6,0.4-1.1,0.8-1.5,1.1c-0.1,0-0.3,0.1-0.4,0.1c-0.3,0.2-0.7,0.3-1,0.5c-0.3,0.2-0.6,0.4-0.9,0.5
			c-0.8,0.1-1.5,0.3-2.3,0.6c-0.9,0.3-1.7,0.6-2.5,0.7c-1.1,0.1-2.5,0.2-3.9,0.2C556.8,403.8,556.5,403.8,556.1,403.8z"/>
		<path d="M545.2,358.6c0.1,3.8,0.2,7.6,0.1,11.6c0-0.7,0.1-2.2,0.2-4.5c0.1-2.3,0.3-4.8,0.4-7.6c0.1-2.7,0.2-5.2,0.1-7.5
			c-0.1-2.2-0.4-3.6-0.8-4.1C545,350.8,545.1,354.8,545.2,358.6z"/>
		<path d="M435.6,251.9c0,0.7,0,2.1,0.1,4.3c0.1,2.2,0.4,3.9,0.9,5.3v-8.3C436.7,252.3,436.3,251.9,435.6,251.9z"/>
		<path d="M223.8,358.9c0,1.1,0.1,3.2,0.2,6.5c0.1,3.3,0.6,6,1.4,8.1v-12.6C225.4,359.5,224.8,358.9,223.8,358.9z"/>
		<path d="M224.5,384.4c0-0.7-0.1-2.1-0.1-4.3c0-2.2,0.2-3.9,0.6-5.4l0.5,8.3C225.5,383.9,225.2,384.3,224.5,384.4z"/>
		<path d="M437.3,221c-0.3,2.3-0.5,4.7-0.7,7.1c-0.5,6.8-0.7,13.6-0.7,20.4h0.9c0.3-4.3,0.5-9,0.5-14.1
			C437.3,229.5,437.3,225.1,437.3,221z"/>
		<path d="M224.9,314.8c-0.2,1.5-0.3,3-0.4,4.5c-0.3,4.3-0.4,8.7-0.4,13h0.6c0.2-2.8,0.3-5.8,0.3-9
			C224.9,320.3,224.9,317.4,224.9,314.8z"/>
		<path d="M357.6,221.5c0.4,1.2,0.7,2.4,1.2,3.6c1.2,3.5,2.6,6.9,4,10.3l0.5-0.2c-0.8-2.2-1.7-4.6-2.8-7.1
			C359.4,225.7,358.5,223.5,357.6,221.5z"/>
		<path d="M393.1,254.1c0.4,1.4,0.9,2.9,1.4,4.4c1.5,4.2,3.1,8.2,4.8,12.3l0.6-0.2c-0.9-2.6-2-5.5-3.4-8.5
			C395.3,259.1,394.2,256.5,393.1,254.1z"/>
		<path d="M338.1,211.7c0.3-0.4,0.5-0.8,0.7-1.3c0.2-0.5,0.4-0.9,0.5-1.4c0.1-0.4,0.2-0.7,0.1-0.8c-0.2,0.7-0.6,1.4-1,2.1
			c-0.4,0.7-0.7,1.3-0.9,1.9C337.7,212.2,337.8,212.1,338.1,211.7z"/>
		<path d="M334.5,221.4c-0.6,2.3-1.4,4.6-2.2,6.9c0.1-0.4,0.5-1.3,1-2.6c0.5-1.4,1.1-2.8,1.7-4.4c0.6-1.6,1.1-3.1,1.5-4.4
			c0.4-1.4,0.5-2.2,0.3-2.7C335.9,216.7,335.1,219.1,334.5,221.4z"/>
		<path d="M562.3,383.7c0-1.1,0-3.3,0-6.7c0-3.4-0.4-6.1-1.2-8.3l-0.4,12.9C560.8,383,561.3,383.6,562.3,383.7z"/>
		<path d="M302.3,274.3l0.2-8c0,1.2-0.3,2.9-0.8,4.9C301.3,273.3,301.5,274.3,302.3,274.3z"/>
		<path d="M303.9,252.1c-0.6,1.6-1.1,3.5-1.4,5.5c-0.3,2-0.4,3.9-0.5,5.5c0,1.7,0.1,2.7,0.5,3.1c0.1-2.9,0.6-5.7,1.5-8.6
			c0.9-2.9,1.4-5.5,1.5-8C305.1,249.7,304.5,250.5,303.9,252.1z"/>
		<path d="M316.5,335.3c-0.2,1.1-0.3,2.3-0.2,3.7c0.1,1.3,0.2,2.5,0.4,3.6c0.2,1.1,0.4,1.7,0.7,1.9c-0.3-1.8-0.4-3.7-0.2-5.6
			c0.2-2,0.2-3.7-0.1-5.3C317,333.6,316.7,334.2,316.5,335.3z"/>
		<path d="M297.2,354c-0.1-2.4,0.9-6.1,0-7.3c0,0-0.4,1.4-0.5,2.8c-0.1,1.5-0.1,3.8-0.2,5.5c-0.1,1.7,0.2,2.5,0.3,3.9
			c0.1,1.4,0.3,2.3,0.6,2.6C297.3,358.9,297.3,356.4,297.2,354z"/>
		<path d="M490.3,385.7c4.6-0.3,9.4-0.5,14.2-0.6c-0.8,0-2.7,0-5.5-0.1c-2.8-0.1-6-0.2-9.3-0.3c-3.4-0.1-6.4,0-9.2,0.2
			c-2.7,0.2-4.4,0.7-5.1,1.3C480.7,386.2,485.6,386.1,490.3,385.7z"/>
		<path class="st0" d="M525.5,178.4c0-0.2,0.1-0.8,0-2.4c0-0.5,0-0.9,0-1.3h0v-3.5c-6.7,0.2-30.2,0.3-50.8,0.3c-5.3,0-10.8,0-15.9,0
			c0,0,0,0,0,0c-1.3-1.2-1.7-0.9-2.3-1.3c-1.2-0.8-3.5-0.6-5.2-0.6c-2.6-0.1-5.2-0.4-7.6-0.6c-4.1-0.3-2.6-1.5-4.9-4.2
			c-0.5-0.6-1.2-1.1-1.8-1.8c-1-1.4-2-4.9-3.1-7c-0.7-1.3-0.8-1.7-1.2-3c3.5,0.2,7.5,0,10-1.8c2.5-1.8,0.6-5.6,2.4-7
			c2.9-2.2,12.7-3.2,18.2-6.7c0.9-0.6,1.8-1.3,2.7-1.9c4.5-3.1,6-1.4,7.6-8.9c1.2-0.2,1.4-0.5,1.8-0.9c0.5-0.6,1.4-1.5,1.8-2.3
			c0.4-0.7,1.6-5.2,1.9-6.4c0.5-2.9,1-10.7,1.3-14c0.7-7.3,1.1-12.7-1.1-20c-0.4-1.2-0.8-1.9-1-2.7c-0.2-0.8-0.1-1.5-0.2-2.2
			c-0.1-1.2-0.8-1.8-0.4-2.3c0.2-0.2,0.7-0.4,0.9-0.7c0.6-0.6,1.8-3,2.8-3.5c0.7-0.3,4.4,1.6,4.2-0.1c-0.3-2.4-1-3.1-3-4.1
			c0-0.3-0.3-4.5-0.3-4.6c-0.2-0.5-0.7-1-0.7-1.2c0-0.2,0.2-0.9,0.1-1.4c-0.2-0.9-0.9,0.7-1.3,0.3c-0.3-0.3,0.9-1.9,0.8-2.3
			c-0.1-0.7-1.1,1.3-1.5,1c-0.5-0.3,1.6-3.5,1-4c-0.6-0.6-1.8,2.8-2.4,2.4c-0.4-0.2,0-3.9-0.8-3.5c-0.5,0.3-0.7,1.8-1,1.6
			c-0.4-0.2,0-2.7-0.4-3c-0.7-0.4-1.2,1.8-1.4,1.4c-0.3-0.6,0-1.2-1.3-0.3c-2.6,1.7-0.1,4.5,0.8,6.5c-0.5,0-1,0-1.4,0.1
			c-0.6,0-1.2-0.1-2.1-0.1c-4.6,0-8.9,4.1-11.8,7.7c-6.3,7.8-4.7,11.7-7.3,15.7c-3.1,4.8-3.6,4.2-9.1,4.3c-3.4,0.1-11.9,0.3-15,1
			c-1.1-0.8-3-1.7-4.3-2.2c-3.9-1.4-6.2-0.1-9.6-0.8c-2.9-0.6-0.7-0.4-3.3-0.3c-2,0.1-2.6-0.8-6.5-0.5c-1.4,0.1-1.7,0.5-2.1,0.4
			c-1.3-0.2-2-2.3-5.1-1.7c-0.8-0.7-0.7-1.3-1-1.9c-0.1-0.2-0.3,0-0.7-0.6c-0.8-1.2-2.6-5.2-3.4-6.5c-1.3-2.1-0.9,2.5-1.6,0.5
			c-1.3-3.9-4.8-2.6-5.8-2.8c-0.9-0.2-6.7-3.5-8.2-4.1c-1.9-0.8-2.4-1-3.4-0.4c-0.9,0.5-1-0.1-1.8,0.8c-0.3,0.3-0.3,0.5-0.4,0.6
			c-0.5,0.4-1.2,0-1.8,0.1c-1.7,0.1-1,0.8-0.9,1.1c0.4,1.3-0.7,0.4-0.9,1.8c-0.1,0.6-0.5,0.4-0.8,0.6c-0.1,0.1-0.4,1.4-0.3,1.5
			c1.4,0.9,0.1,0.3-0.3,1c-0.3,0.4,0.2,0.9,0,1.6c-0.2,0.6,0.2,2.1-0.3,2.5c-0.8,0.7-0.8,0-1.2,0.8c-0.2,0.3-0.7,0.5-0.1,1.2
			c0.5,0.5,1.8,1.3,2.3,1.5c0.4,0.1,0,0.5,0,0.7c0,0.5,1.1,0.7-0.9,1c-3.3,0.6-1.8,1.7-2.3,2.4c0,0,0,0-0.1,0.4
			c-0.4,1.7,0.3,2.2,1.2,3.7c0.5,0.7,0.8,1.5,1.1,2c0.5,1,1.7,1.5,1.5,1.7c-0.5,0.7-2.2,1.5,0.1,2c0.7,0.2,0.4,0.6,0.2,1.1
			c-0.2,0.8,1.7,0.4,1.4,1.9c-0.1,0.6,0.8,0.2,0.9,0.9c0.3,1-0.2,0.8,0.8,1.1c0.3,0.1-0.6,0.8,0.6,1.6c0,0-0.3,0.6,0,1
			c0.6,0.8,2.2-0.6,2.9-0.9c1.5-0.7,2.7,0,4.7-0.1c-0.1,0.4,0.1,0.9,0.1,1.1c0,0.4-0.5,0.1-0.9,0.4c-0.4,0.3-0.2,1-0.2,1.3
			c0,0.2-0.2,0.2-0.1,0.4c0,0.4,1.2,1.7,1.8,1.9c1.4,0.6,1.8,0.5,2.9,0.8c1,0.2,0.1,0.6,0.3,1.1c0.2,0.5,2.1,1.3,2,3
			c-0.1,0.6-0.5,0.5-0.6,0.7c-0.5,0.7,1.3,1.7,1.7,2.1c0.7,0.7,0.3,1,0.5,1.3c0.3,0.4,1.5,0.6,2.6,1.8c0.6,0.7,1.1,1.8,1.8,2.8
			c2.6,4.4,1.2,3.2,2.8,7.8c1.6,4.7,4.7,9.9,7.9,13.5c2.7,3.1,5.3,6,9.5,6.8c-0.3,2.4,1,2.9,0,5.8c-0.3,0.9-0.1,1.8-1.1,1.8
			c-1.1,0-1.3,0.4-1.8,0.7c-0.7,0.3-1.6,0.5-2.1,1.1c-1.1-0.2-2.2,2-0.8,1.7c-0.1,0.8,1.1,0.9,1.6,0.8c0.7-0.1,0.8-1,1.2-1
			c0.7-0.1,1,0,1.5-0.5c0.4-0.4,0.3,0.1,0.4,0.3c0.2,0.3,0.8,0.3,0.9,0.4c0.2,0.2-0.2,0.7-0.3,1.1c-0.1,0.6,0.1,1.2,0,1.6
			c0,0.2-0.2,0.4-0.2,0.6c-0.1,0.6,0.1,1.2,0.2,1.6c0.1,0.5-0.3,1.4-0.3,1.9c0,0.9,1.1,2.2,2,1.3c1.6-1.6,0.1-3.1,1.8-3.8
			c0.7-0.3,0.5,0.4,0.7,0.8c0.1,0.3,1.1,1,1.3,1.1c1.2,0.4,1.1,1,1.8,1.4c0.3,0.2,0.6,0.2,0.9,0.4c0.3,0.2,0.6,0.5,0.9,0.7
			c0.3,0.2,0.7,0.2,0.9,0.4c0.1,0,0.2,0.1,0.3,0.2c-5.3,0.2-10.7,0.5-16,0.7c-5.6,0.3-70.8,0.4-74.8,0.4h-0.9
			c-0.2,0.1,0.3,0.2,0.1,0.2h0.3l1.5,3.2c-0.3,0.6-1.1,1.6-2.9,1.6c-0.1,0-0.2,0-0.3,0v1.3h-2.2c-0.1,0-0.2,0-0.3,0
			c0,0.6-0.3,1.1-0.6,1.5c0.1,0.5,0.1,1.1,0.2,1.6c0.2,1.6,0.1,2.9-0.2,4h3.1c0.3,0,0.6,0,0.8,0.1v-0.1h9.7l-1.1,0.6
			c5.7,0,16-0.1,34.7-0.1c9.5,0,18.5-0.1,19-0.1c0.7-0.1,1.4-0.1,2.1-0.1c0.5,0,1,0.1,1.3,0.1c0.5,0,1.2-0.1,2.1-0.2
			c1.4-0.2,3-0.3,4.6-0.4c1.1-0.1,2.1-0.1,3.1-0.1c0.5,0,1,0,1.4,0c1.2,0,9.3,0.2,10.3,1.3c0.7,0.6,1.1-6.8,1.4-5.6
			c0.2,0.9,0.3,1.8,0.4,2.9c0.1,1.1,0,2.1-0.1,3.1c-0.1,0.8-0.2,1.4-0.3,1.9c0,2.7-0.1,3.2-0.3,4.9c-0.2,1.1-0.2,2.2-0.3,3.2
			c0.3,0.6,0.5,1.4,0.6,2.3c0.1,1,0.2,2.1,0.3,3.3c0.1,1.2,0.1,2.3,0.1,3.3c0,0.9,0.1,1.2,0.1,1.2l0.2,0.5v0.5
			c0,1.1,0.1,2.1,0.2,3.1c0.2,1.2,0.3,2.4,0.3,3.6c0,2.5-0.1,5.1-0.2,7.8c-0.1,2.7-0.2,5.2-0.2,7.7v12c0,2.9,0,6-0.1,9.3
			c-0.1,3.3-0.1,6.3-0.2,9c-0.1,2.8-0.2,5.1-0.4,6.9c-0.1,0.8-0.2,1.7-0.4,2.6c0,0.2,0.1,0.3,0.1,0.5v1.3l2,2h-3.7
			c0,0.1,0,0.1-0.1,0.2l0,0c0.2,0.4,0.3,0.8,0.2,1.3l0.1,0.7h1v2.2c0,0.7-0.3,1.4-0.8,2v0c0.2,0.3,0.4,0.5,0.5,0.8
			c0,0,3.1-0.3,3.2,0c0.1,0.3-1.1,0.8-1,1c0.1,0.2,1.9-0.3,1.9,0c-0.1,0.3-2.9,1.6-3,2.1c-0.1,0.5,5.2,3.4,5.2,3.4s-0.1,0.2,0.1,0.2
			c0.2,0,1.8,0,2.7,0.1l0.2,0c0.5,0,0.9-0.1,1.7-0.3c0.4-0.1,0.7-0.2,0.9-0.4c0,0-2.3,0.2-2.4,0c-0.1-0.2,3.9-3.8,3.9-3.8
			c0.5-0.5,1.2-0.9,1.9-1l0.3-0.1h0.2v-2.7c0-0.2,0-0.4,0-0.5c0,0,0-0.1,0-0.1V278h0.1c-0.1-0.6-0.2-1.3-0.2-2
			c0-0.6,0.2-1.2,0.4-1.7l-0.9-0.9l0.9-0.9V272h0.5l0.1-0.1c-0.1-0.3-0.1-0.6-0.1-0.9c-0.1-1.3-0.1-2.7,0-4.3
			c0.1-1.6,0.3-3.1,0.5-4.6c0.2-1.3,0.4-2.3,0.5-2.9c0-3.5-0.1-7-0.2-10.3c-0.2-3.5-0.1-7.1,0.2-10.4v-4c0-2,0-4.3-0.1-6.8
			c-0.1-2.6-0.1-5.3-0.2-8.1c-0.1-2.8-0.2-5.5-0.3-7.9c-0.1-2.4-0.2-4.4-0.3-5.9c0-0.6-0.1-1-0.1-1.2c-0.8-1-0.8-2.3-0.8-3.5
			c0.1-1.3,0.2-2.7,0.4-4.1c0.2-1.4,0.4-2.8,0.6-4.1c0.2-1.2,0.3-2.1,0.5-2.7c0-0.7-0.3-1.5,0.5-2.1c0.8-1,3-1.6,4.8-1.9l-1.7-1.1
			c0.7,0,2,0.2,2.7,0.2c1.3,0.1,1.8,0.5,2.6,0.5h2.3l0,0.5c4.3-0.4,18.5-0.8,69.3-0.8h3.1c0,0,0.3,0,1.1-0.2
			c0.6-0.2,1.2-0.2,1.7-0.2c0.4,0,0.9,0.1,1.3,0.2h0.3l0.7,0l0.2,0.1c0.4-0.2,0.8-0.2,1.2-0.2c0.1,0,0.2,0,0.2,0
			c0.4-0.2,0.8-0.3,1.2-0.3l0.2,0c0,0,0.2,0,0.2,0l0.1-0.3c0.1-0.6,0.5-1.2,1-1.6c0,0,0,0,0,0H525v-2.2
			C525,179.7,525.2,179,525.5,178.4z M435.6,170.6c0.2,0.2,0.2,0.4,0.2,0.6c-0.5,0-0.9,0-1.4-0.1
			C434.9,170.6,435.2,170.1,435.6,170.6z M427.5,171c-0.3,0-0.6,0-0.9,0c-0.5-0.4-1.2-0.9-1.3-0.9c-0.2-1.2-2.5-1-4.1-2.4
			c-2.7-2.3-1.8-0.7-3.5-3.7c-0.6-1.1-1.2-1.5-1.3-2.6c-0.2-3.8-1.5-6.5-1.6-10.6c1-0.1,1.9-0.3,2.6-0.4c3.4-0.6,4.9,1,8.8,1.8
			c0.6,2.6,2.6,4.4,3.8,6.7c0.5,0.9,0.9,2,1.4,3.1c0.5,1.1,1.1,2.2,1.5,2.9c0.6,1.3,0.4,1.9,0.8,3c0.3,1-1.6,1.3-1.9,3
			c0,0.1,0,0.2,0,0.3C430.4,171,428.9,171,427.5,171z"/>
		<path class="st0" d="M434.9,198.2l1.7-7c0,0-1.2-1.4-1.7-0.3C434.4,192,434.9,198.2,434.9,198.2z"/>
		<path class="st0" d="M373.3,385.4c-0.2-1.1-0.2-2.2-0.2-3.2c0-2.3,0-4.6,0.1-7.1c0.1-2.4,0.1-4.7,0.1-6.9v-10.8
			c0-2.6,0-5.4,0.1-8.4c0-2.9,0.1-5.7,0.2-8.2c0.1-2.6,0.2-4.6,0.4-6.3c0.1-0.7,0.1-1.6,0.4-2.4c0-0.1,0-0.3,0-0.4v-1.2l-1.8-1.9
			h3.4c0-0.1,0-0.1,0.1-0.2l0,0c-0.1-0.3-0.3-0.8-0.2-1.2l-0.1-0.6h-0.9v-2c0-0.6,0.2-1.3,0.7-1.8v0c-0.2-0.2-0.4-0.5-0.5-0.7
			c0,0-2.8,0.2-2.9,0c-0.1-0.2,1-0.7,0.9-0.9c-0.1-0.2-1.7,0.3-1.7,0c0-0.3,2.7-1.4,2.7-1.9c0.1-0.5-4.7-3.1-4.7-3.1
			s0.1-0.2-0.1-0.2c-0.2,0-1.6,0-2.5-0.1l-0.2,0c-0.4,0-0.9,0.1-1.5,0.3c-0.4,0.1-0.6,0.2-0.8,0.4c0,0,2.1-0.2,2.2,0
			c0.1,0.2-3.5,3.5-3.5,3.5c-0.5,0.5-1.1,0.8-1.7,0.9l-0.3,0h-0.2v2.4c0,0.2,0,0.4,0,0.5c0,0,0,0.1,0,0.1v1h-0.1
			c0.1,0.5,0.2,1.1,0.1,1.8c0,0.6-0.1,1.1-0.3,1.5l0.8,0.8l-0.8,0.8v0.5H360l-0.1,0.1c0.1,0.2,0.1,0.5,0.1,0.8
			c0.1,1.1,0.1,2.5,0,3.9c-0.1,1.4-0.3,2.8-0.5,4.1c-0.2,1.2-0.3,2-0.4,2.6c0,3.2,0.1,6.3,0.2,9.3c0.1,3.2,0.1,6.4-0.2,9.4v3.6
			c0,1.8,0,3.9,0.1,6.2c0.1,2.3,0.1,4.8,0.2,7.4c0.1,2.6,0.2,5,0.3,7.2c0.1,2.2,0.2,4,0.3,5.4c0,0.5,0.1,0.9,0.1,1.1
			c0.7,0.9,0.8,2.1,0.7,3.2c-0.1,1.2-0.2,2.4-0.4,3.7l1.3,1l-0.7,1l1,0.3l1,1c0,0,4.8-0.2,5.7-0.2c0.9,0,5.8-0.1,7.4-0.2
			c1.6-0.1,6.9,0.6,9,0.4s2.1-0.2,2.1-0.2s5.4,0,7.9,0s2.5,0,2.5,0s15.9,0.4,18.9,0.3s9.3-0.5,10.6-0.4s3.9-1,5-0.5s5,0.4,5,0.4
			l1.3-0.5l1,0.9c0,0,5.3,0.4,7.1,0.1s10.8-0.5,13.1-0.4s11.5,0.3,14.1,0.1s12.9-0.6,16-0.3s9-0.1,11.4,0.1s6.5-0.9,7.6-0.6
			s3-0.1,3.1,0.4c0.1,0.5,1,1.2,1,1.2s0.2-1.8,1.5-1.5c1.3,0.3,2.6,0.2,2.6,0.2l1.5-0.6l-0.5-1.5l-1.5-1.3l1.5-0.8
			c0,0-0.7-0.4,0-1.6c0.7-1.2,0.9-2.7,0.9-2.7s0.5-2.2-0.5-2.6c-0.9-0.4-0.8-2.4-0.8-2.4s-2.8-1-4.3-0.3c-1.5,0.7-5.4,0.4-7.3,0.8
			s-8.1,0-10.6,0.3s-7.6,0.4-10.9,0.3s-10.1,0.4-13.8-0.1s-12.4-0.5-15.5-0.3s-10.3,0.8-13,0.4s-9.8-0.3-14,0l-0.4-0.5
			c0,0-5.6-0.4-8.1,0s-11.9,0.3-15,0.3s-9.6,0-12.1,0.1s-8.5-0.6-11-0.1s-6.1,1.1-7-0.1S373.3,385.4,373.3,385.4z"/>
		<path d="M304.8,204.6c0.3-1.2,0.2-4,0.5-6.3c0.3-2.3,0.2-6.2,0.3-8.2c0.2-2-0.2-6.3,0.2-7.2c0.3-0.9,0.8-0.3,0.8-0.3
			s-0.5,0.5-0.2,2.2c0.3,1.7,0.2,4.3,0.3,4.8c0.2,0.5-0.2,2.2-0.3,4.2s-0.8,4.8-0.5,5.2C306.2,199.4,304.8,204.6,304.8,204.6z"/>
		<path d="M297,335.7c-0.3,1.1-0.4,2.3-0.4,3.7c0,1.3,0.1,2.5,0.2,3.6c0.1,1.1,0.3,1.7,0.6,1.9c-0.2-1.8-0.2-3.7,0.1-5.6
			c0.3-1.9,0.4-3.7,0.2-5.3C297.6,334,297.3,334.6,297,335.7z"/>
		<path d="M297.3,332.7c0.2-0.7,0.1-2.2,0.3-3.4c0.2-1.3,0.1-3.3,0.2-4.4c0.1-1.1-0.1-3.4,0.1-3.9c0.2-0.5,0.4-0.2,0.4-0.2
			s-0.2,0.2-0.1,1.2s0.1,2.3,0.2,2.6c0.1,0.3-0.1,1.2-0.2,2.3c-0.1,1.1-0.4,2.6-0.3,2.8S297.3,332.7,297.3,332.7z"/>
		<path d="M245.7,237.1c0.3-1.3,0.2-4.3,0.5-6.7c0.3-2.5,0.2-6.6,0.3-8.7c0.2-2.1-0.2-6.7,0.2-7.7c0.3-1,0.8-0.3,0.8-0.3
			s-0.5,0.5-0.2,2.3c0.3,1.8,0.2,4.6,0.3,5.1c0.2,0.5-0.2,2.3-0.3,4.4c-0.2,2.1-0.8,5.1-0.5,5.6
			C247.2,231.5,245.7,237.1,245.7,237.1z"/>
		<path d="M331,229.3c0,0-0.9,1.5-1.5,3.3s-1.6,3.9-1.5,4.3s0.4,1.1-0.3,2.5s-1.1,3.5-1.1,3.5s0.4-0.8,1.1-1.9s0.6-2.1,1.1-3.4
			s1.1-3.5,1.1-3.5l0.9-2.9L331,229.3z"/>
		<path d="M476.4,263.8c0,0-1,6.8,2.1,9.1l0.9-0.6c0,0-0.5,1.8,1.7,3c0,0-0.6-2.7-1.2-3.2c-0.6-0.4-1.9-2.7-1.9-2.7
			S476.9,267.8,476.4,263.8z"/>
		<path d="M645.8,208.6c0,0,1-3.5,0.5-7s-0.5-6-0.3-7.3s0.5-4,0.5-4s-1.3,2-1.5,4.5s-0.8,7.3-0.8,7.3L645.8,208.6z"/>
		<path d="M298.5,394.1c0,0,0.6-0.3,0.6-1.8s0-1.8,0-1.8l-0.1-1.5c0,0,0.3-0.9,0.5-2.1s0.6-3.6,0.4-5s0.3-4.8,0.3-6.3
			s-0.1-1.5-0.1-3.8s0.3-3.7,0.3-4.9c0-1.3,0.7-3.1-0.4-3.5c0,0,0.6-4.8,0.6-6.9s0-3.1,0.2-4.1s0.3-0.7,0-2.1
			c-0.2-1.4-0.3-5.8-0.2-7.8s0-2.3,0-4.4s-0.3-3.4,0.1-4.6s0-2.7,0-3.4c0-0.7,0.3-1.4,0.7-1.5s0.5-0.8,0.2-1.1s-0.9-0.9-0.9-0.9
			s0.1-0.3,0.5-0.7s-0.3-1.3-0.3-1.3s0.9-5.3-0.2-6.7l6.2-0.4c0,0,3.3-0.3,4.4,0s4.7,0,6.7-0.1s6.1-0.2,7.4-0.4s4.8-0.4,6.7-0.4
			s6.2-0.1,6.2-0.1l3.1,1l2.7,0.2l2.3-0.3l1.8,0.6l-2.5,2l2.9,2.3l0.6,7.1l-1.2,0.7l-0.8,1.1l-1.6-0.8l-0.7,0.8h-1.2
			c0,0-2.9-0.6-4.6-0.3s-5.8,0.4-7.6,0.2s-6.2-0.1-6.2-0.1s-0.7,0.9-2.1,0.7c-1.4-0.2-1.4-1.2-2.7-0.7s-1.7,0.7-2.8,0.5
			s-2.1-0.3-2.1-0.3l-0.8,0.6l-0.5,0.1l0.2,0.7c0,0-0.7,1.5-0.6,3.5c0.1,2-0.1,7.6,0.1,9.2s0.4,3.2,0.2,5c-0.2,1.9-1.1,4.3-0.6,5.1
			c0.5,0.8,0.8,2.2,0.8,2.2l-0.7,1.2c0,0,2.7,0.3,4.5,0.1c1.8-0.2,3-0.6,3-0.6s2.1,0.5,3.9,0.3s3.1,0.8,3.1,0.8s1-0.6,1.5-0.3
			s1.3,1.2,1.3,1.2s-1,10.3-0.8,10.9c0.2,0.6,0.2,0.6,0.2,0.6l-0.7,0.4c0,0-0.3-0.3-1.4-0.3c-1-0.1-1.5-0.4-3.6,0
			c-2.2,0.4-3.5,0.4-5.7,0.4s-4.8-0.1-4.8-0.1s-1.1,2.2-0.7,3.9s0.6,2.7,0,4.6c-0.6,1.9-1.3,4.6-0.8,5.6s0.3,2.3,0.3,2.3l2.3,0.5
			c0,0,2.1,0.5,3.5,0.3c1.4-0.2,4.5-0.1,5.5-0.2c1,0,4.2,0.4,5,0.2s3.8,0.2,5,0.2c1.3-0.1,5.1,0.1,5.4,0.2s2.8,0.9,3.7,0.4l-0.4,1.2
			l1.8,1l-0.8,1.2l0.6,0.7l0.6,1.2l-3.4,1.7l3.5,2.1l-1.2,1.5l-1,0.5l-1.3,0.8c0,0-0.9-0.6-1.8-0.1s-3.4,0.3-5.6,0.5
			c-2.2,0.3-5.2-0.2-7.3-0.1s-4.8,0.2-6.9-0.1s-2.7-0.5-5.3-0.2c-2.6,0.3-5.4-0.1-7.5,0.3c-2.1,0.3-7.5,0.3-9,0.1
			C298.7,402.4,299.1,395.1,298.5,394.1z"/>
		<path d="M624.7,256.1c0,0,0.7-0.4,0.7-2c0-1.6,0-2,0-2l-0.1-1.6c0,0,0.3-1,0.5-2.3s0.6-4,0.5-5.5c-0.1-1.5,0.3-5.2,0.3-6.8
			c0.1-1.6-0.1-1.6-0.1-4.2c0.1-2.5,0.3-4,0.4-5.4c0.1-1.4,0.7-3.4-0.4-3.8c0,0,0.7-5.3,0.6-7.5c-0.1-2.3,0-3.4,0.2-4.5
			c0.2-1.2,0.3-0.8,0-2.3c-0.2-1.5-0.3-6.4-0.2-8.5c0.1-2.1,0-2.5,0-4.8c0-2.3-0.3-3.8,0.1-5.1c0.4-1.3,0-2.9,0-3.7
			c0-0.8,0.3-1.5,0.8-1.6c0.5-0.1,0.5-0.9,0.2-1.2c-0.3-0.3-1-1-1-1s0.1-0.3,0.5-0.7c0.4-0.4-0.3-1.4-0.3-1.4s1-5.8-0.3-7.3l6.8-0.4
			c0,0,3.6-0.3,4.8,0c1.2,0.3,5.1,0,7.3-0.1c2.2-0.1,6.6-0.2,8.1-0.5c1.5-0.3,5.2-0.4,7.3-0.4c2.1,0,6.8-0.1,6.8-0.1l3.4,1.1l3,0.2
			l2.5-0.3l2,0.6l-2.7,2.2l3.2,2.5l0.7,7.7l-1.3,0.7l-0.8,1.2l-1.7-0.9l-0.8,0.8h-1.4c0,0-3.2-0.6-5.1-0.4c-1.9,0.3-6.3,0.5-8.3,0.2
			c-2-0.3-6.8-0.1-6.8-0.1s-0.8,1-2.3,0.8c-1.5-0.2-1.6-1.4-2.9-0.7c-1.4,0.6-1.8,0.7-3.1,0.5c-1.3-0.2-2.3-0.4-2.3-0.4l-0.8,0.6
			l-0.5,0.1l0.2,0.8c0,0-0.7,1.6-0.6,3.8c0.1,2.2-0.1,8.3,0.1,10c0.2,1.7,0.4,3.5,0.2,5.5c-0.2,2-1.2,4.7-0.6,5.6
			c0.5,0.9,0.9,2.4,0.9,2.4l-0.7,1.3c0,0,3,0.4,4.9,0.1c1.9-0.3,3.3-0.7,3.3-0.7s2.4,0.5,4.3,0.3c1.9-0.2,3.4,0.8,3.4,0.8
			s1.1-0.6,1.6-0.4c0.5,0.3,1.4,1.3,1.4,1.3s-1.1,11.3-0.9,12c0.2,0.6,0.2,0.6,0.2,0.6l-0.8,0.5c0,0-0.4-0.3-1.5-0.4
			c-1.1-0.1-1.6-0.5-4,0c-2.4,0.5-3.8,0.5-6.3,0.5s-5.2-0.1-5.2-0.1s-1.3,2.4-0.8,4.3c0.5,1.9,0.6,2.9,0,5c-0.6,2.1-1.4,5-0.8,6.1
			c0.5,1.1,0.4,2.5,0.4,2.5l2.5,0.5c0,0,2.3,0.5,3.8,0.4c1.6-0.2,5-0.2,6-0.2c1.1,0,4.5,0.4,5.5,0.3c0.9-0.2,4.1,0.3,5.5,0.2
			c1.4-0.1,5.6,0.1,5.9,0.2c0.4,0.1,3.1,0.9,4,0.4l-0.4,1.3l1.9,1.1l-0.8,1.3l0.7,0.8l0.6,1.4l-3.8,1.9l3.8,2.3l-1.3,1.7l-1.1,0.5
			l-1.4,0.8c0,0-1-0.6-2-0.1c-1,0.5-3.7,0.3-6.1,0.5c-2.4,0.3-5.7-0.2-8-0.1c-2.4,0.1-5.3,0.2-7.5-0.1s-3-0.6-5.8-0.2
			c-2.8,0.4-5.9-0.1-8.2,0.3c-2.3,0.4-8.2,0.3-9.9,0.1C625,265.1,625.4,257.1,624.7,256.1z"/>
		<path d="M316.5,387c0,0,1.6-0.1,3.6,0.4c2,0.5,5.6-0.1,7.7,0.1c2.1,0.2,5.9-0.1,5.9-0.1l0.1-0.9c-0.4,0-1.8-0.5-3.3-0.1
			s-4.7,0.6-7,0.5C317,386.6,316.5,387,316.5,387z"/>
		<path d="M494.9,357.3c-0.2,0.5-0.2,0.5-0.2,0.5s-0.4,2.8-0.7,4.8c-0.4,2-0.7,2.7-0.4,3.9c0,0,0.5-1.8,1.2-3.9
			C495.7,360.5,494.9,357.3,494.9,357.3z"/>
		<path d="M376.3,349.3c-0.1,0.9-0.2,2.9-0.3,5.8c-0.1,2.9,0.1,5.3,0.6,7.3l1-11.2C377.7,350,377.2,349.4,376.3,349.3z"/>
		<path d="M376.4,363.8c-0.1,1.8-0.3,3.5-0.3,5.4c-0.1,5.1-0.1,10.3,0.2,15.4l0.7,0c0.1-3.3,0.1-6.8-0.1-10.7
			C376.7,370.2,376.5,366.9,376.4,363.8z"/>
		<path d="M436.2,347c-0.3-1.8-0.6-3.6-0.9-5.4c-1.1-5.2-2.3-10.3-3.7-15.4l-0.7,0.2c0.7,3.3,1.5,6.9,2.6,10.7
			C434.5,340.6,435.4,343.9,436.2,347z"/>
		<path d="M622.2,239.7c0.1,5-0.1,10.1-0.4,15.3c0.1-0.9,0.2-2.9,0.5-5.9c0.3-3,0.6-6.4,0.9-10c0.3-3.6,0.5-6.9,0.4-9.8
			c-0.1-2.9-0.4-4.8-1-5.5C622.3,229.4,622.1,234.7,622.2,239.7z"/>
		<path d="M506.8,326.5c-3.8,0.3-7.8,0.5-11.8,0.6c0.7,0,2.2,0,4.6,0c2.4,0,4.9,0.1,7.7,0.1c2.8,0,5.3-0.1,7.6-0.3
			c2.3-0.2,3.7-0.6,4.2-1.1C514.7,325.9,510.6,326.1,506.8,326.5z"/>
		<path d="M430.6,314.4l1.4-0.2l0.6,1l0.2-1.2l1.6-0.5l2.5,0.2l0.3,2.7l1.1-2l-0.3-1l2-0.7l1.6,2.5c0,0,1.7,4.1,2,5.3
			c0.3,1.2,1.3,5.7,1.8,7.8c0.5,2.1,2.1,7,2.3,7.9c0.2,0.9-0.2,0.3-0.2,0.3l-0.5,0.6c0,0,1,3.4,1.4,4.7c0.4,1.3,1.6,5.5,1.8,7.2
			c0.2,1.7,1.5,4.2,1.9,5.2c0.4,1,1.4,4.4,1.4,4.4s0.4-2.2,1.7-4.4c1.3-2.2,2.4-4.8,2.7-6.3s0.1-2.9,0.1-2.9s0.9-2.1,1.3-3.4
			c0.4-1.3,0.6-4.2,0.6-4.2l-0.5-0.6c0,0,1.7-3.9,2.2-6.2c0.4-2.3,1.4-4.6,2.1-6.7c0.7-2.1,1.9-5.8,1.9-6.9c0-1.1-0.1-2.8-0.1-2.8
			s2.2-0.4,3-0.3l0.2,0.8l1.4-1.3l2.3,0.3l0.7-0.8l2.6,0.3l1.4,1.3c0,0-0.7,1.4-1,3.1c-0.4,1.7-0.9,3.8-1.1,5.5
			c-0.1,1.7-0.1,1.7-0.1,1.7l-0.9,2.8l0.3-3.7c0,0-1.2,2.5-1.3,4c-0.1,1.5-0.9,5.2-1.4,6.6c-0.5,1.4-0.5,1.4-0.5,1.4s-0.7,1.4-1,3.3
			c-0.3,1.8-2.3,7.1-1.9,8.5c0,0-0.8,2-1.1,4c-0.3,2-1.4,2.4-1.9,4c-0.5,1.5-1.9,5.5-2.2,7.7c-0.3,2.2-1.2,4.2-1.9,6.2
			c-0.7,2-1.1,3.6-1.4,4.6c-0.3,1-1.4,3.6-1.5,3.9s-0.6-0.7-0.6-0.7l-0.8,0.9c0,0-1-0.9-2.1,0l-0.7-1.3c0,0-0.9,1.1-1.6,1.2
			c-0.7,0-0.9-1-2.1-0.7c-1.2,0.3-1.3-0.4-1.3-0.4s-0.6-1-0.5-1.9c0.1-0.9-0.7-2-1.4-3.2c-0.7-1.2-1.7-3.5-1.9-5.6
			c-0.2-2.2-0.8-2.9-1.7-5.9c-0.9-3-2-6-2-6l-0.9-0.7l-1-4.1c0,0,0.6-2.3-0.1-4s-1.6-4.8-1.6-4.8l1-0.1l-1.5-1.8
			c0,0-0.6-1.9-1.2-5.7c-0.7-3.8-0.7-3.8-0.7-3.8s-0.5-2.1-1.2-4.2s-1-4.2-1.8-5.8c-0.8-1.7-1.3-4-1.3-4L430.6,314.4z"/>
		<path d="M394.2,378.1c-1.3,0-2.4-0.1-3-0.1c-0.2,0-0.3,0-0.3,0l-2.2,0l1.1-1.4l-0.8-0.7l0,0l-1.2-1.1l-0.2-0.5l0-0.4
			c0-0.2,0-0.4,0-0.7c0-0.3-0.1-0.6-0.2-0.8l-0.1-0.4l0.1-0.4c0.1-0.2,0.1-0.5,0.2-0.8c0-0.3,0-0.6,0-0.9v-1.3l0-0.2l-0.1-0.4
			l0.1-0.4c0.1-0.2,0.1-0.4,0.2-0.7c0.1-0.7,0.2-1.5,0.3-2.5c0.1-0.9,0.1-1.8,0.1-2.7c0-0.9,0.1-1.5,0.1-1.7l0,0c0-1,0-1.9,0-2.8
			c0-0.9,0-1.8,0-2.8c0-0.3,0-0.7,0.1-1.3c0.1-0.6,0.1-1.2,0.1-1.8c0-0.6,0-1.1,0-1.7c0-0.3-0.1-0.6-0.2-0.8l-0.1-0.3l0-0.3
			c0.2-1.7,0.3-3.1,0.3-4.2c0.1-1.2,0.1-2.3,0.2-3.4c0.1-1,0.1-1.6,0.1-1.9c-0.1-1.4-0.2-2.6-0.2-3.8v-7.3c0-0.4,0-1.1,0.1-2
			c0.1-0.9,0.1-1.6,0-2.2l-0.1-1.1l0.1-0.2c0-0.1,0-0.2,0-0.2v-0.2l0.1-0.3l0,0c0-0.1,0-0.1,0-0.2L389,321l0.1-0.3l0-0.4l0-0.1v-0.5
			l0.1-0.1c0-0.3-0.1-0.3-0.1-0.3l1-0.5l-1.1,0.1l0-0.1c0-0.1,0-0.3,0-0.5c0-0.2,0-0.4,0.1-0.5l0-0.3l0,0l0,0l0-0.3l0.1-0.1l0.4-0.8
			l0.6-0.1c0.4-0.1,0.4-0.3,0.4-0.3l0.2-0.7l0.7-0.1c0.1,0,0.2-0.1,0.3-0.1l0.3-0.2l0.6,0.1c0.2,0,0.4,0,0.6,0c0.4,0,0.7-0.1,1-0.2
			l0.3-0.2l0.3,0c1.1,0,2.3,0,3.4,0c1.5,0,3.1-0.1,4.7-0.2l0.2,0c0.5,0,1.7,0,3.3-0.1c1.7-0.1,3.5-0.2,5.3-0.3
			c1.8-0.1,3.5-0.1,5.1-0.1c0.8,0,1.3,0,1.7,0l0.4,0l0.4,0.3c0.1,0.1,0.3,0.2,0.5,0.2h1.3v0.1c0.1,0,0.2,0,0.2,0c0.5,0,1,0,1.4,0.4
			c0.2,0.2,0.3,0.3,0.3,0.5c0.5-0.2,1-0.4,1.4-0.6l0.4-0.2c0,0,0.8,0.3,0.9,0.4l0.7,0.3v0.5l0.1,0.2l0.9-0.2l-0.4,1.8
			c-0.1,0.3-0.1,0.5-0.1,0.8l0,0.3l-0.1,0.3c0,0.1-0.1,0.2-0.1,0.4c0,0.4,0,0.7,0,0.9v3.5l-1.2-0.7v0.3l-1.3,0.9l-0.8-0.1
			c-1.4-0.1-3-0.2-4.7-0.2c-1.3,0-2.4,0-3.4,0h-1.6c-1.5,0-2.2,0.2-3.7,0.3l-1,0.1l-0.4-6.8c0,0-1.4,6.6-1.5,6.7l-0.3,0.3l-0.5,0
			H406l-0.3-0.1l-0.1,0c-0.1,0-0.4,0-0.6,0l-0.3,0.1l-0.2-0.1c-0.2,0-0.7-0.1-0.7-0.1c-0.1,0-0.3,0-0.4,0h-0.3L403,324
			c-0.1,0-0.2-0.1-0.3-0.1h-0.4l0,0.3l-1.2-0.1c-0.2,0-0.3,0-0.3,0c-0.5,0-0.6,0-0.7,0.1l-0.2,0.1l-0.2,0.1
			c-0.6,0.2-0.6,0.3-0.6,0.4l0,0.3l-0.1,0.4c-0.2,0.4-0.2,0.8-0.3,1.3c0,0.6,0,1.1,0,1.7l0.1,1.5c0,0.6,0,1,0,1.4
			c0,1.2,0,2.4,0.1,3.8c0.1,1.3,0.1,2.5,0.1,3.6c0,0.3,0,0.8-0.1,1.4c-0.1,0.6-0.2,1.2-0.2,1.9c0,0.6,0,1.2,0.1,1.7
			c0,0.2,0.1,0.3,0.1,0.5l0.2,0.3l-0.1,0.4c0,0,0,0.1,0,0.1v0.3h0.5c0.2,0,0.6,0,1.1,0c0.6,0,1.2,0,1.9,0c0.7,0,1.3,0,1.8,0
			c0.4,0,0.6-0.1,0.9-0.1l0.2-0.1l0.5,0.1c0.4,0,0.9,0,1.5,0h1.6c0.3,0,0.5,0,0.7,0l1,0.2l0,0.2l0.2,0l0.2,0.2l0.5,0.5
			c0.1,0.1,0.2,0.1,0.3,0.2l0.6,0.3l0,0.7c0,0.3,0,0.6,0,1c0,0.4,0.1,0.7,0.2,1l0,0.2v4h-0.3v0.7l-1.3-0.1c-0.1,0-0.3,0-0.4,0.1
			c-0.3,0.1-0.6,0.2-0.9,0.2h-1.8c-1.1,0-2.4,0.1-3.8,0.3c-0.7,0.1-1.4,0.1-2,0.1c-0.6,0-1.2,0-1.8-0.1l0,0l-1.4,0l0,0.3
			c0,0.3-0.1,0.8-0.2,1.5c-0.1,0.7-0.2,1.4-0.2,2c0,1.3-0.2,2.7-0.5,4.4c-0.3,1.7-0.4,3.1,0,4.4l0.2,0.9h2.1c2.5,0,5,0,7.3,0.1
			c2.4,0.1,4.9,0.1,7.3,0.1h2.8c0.8,0,1.7,0,2.6,0.1l0.1,0l0.1,0c0.3,0.1,0.6,0.1,0.9,0.2l0.9,0.2v2.2c0.3,0.2,0.6,0.3,0.9,0.5
			l0.6,0.3v4.7l-1-0.6c-0.4,0.4-0.9,0.4-1.5,0.4c-0.2,0-0.4,0-0.6,0v1l-4.2,0.1c-1.2,0-2.3,0-3.4,0h-5.3c-1.1,0-2.2,0-3.4-0.1
			c-1.2-0.1-2.4-0.1-3.6-0.1c-0.2,0-0.6,0-1.3,0.1C397.9,377.9,396.1,378.1,394.2,378.1z"/>
		<path d="M493.8,342.6h0.2c0.2,0,0.6,0,1.1,0c0.6,0,0.7,0,1.4,0c0.7,0,1.3,0,1.8,0c0.4,0,0.6-0.1,0.9-0.1l0.2-0.1l0.5,0.1
			c0.4,0,0.9,0,1.5,0h1.6c0.3,0,0.5,0,0.7,0l1,0.2l0,0.2l0.2,0l0.2,0.2l0.5,0.5c0.1,0.1,0.2,0.1,0.3,0.2l0.6,0.3l0,0.7
			c0,0.3,0,0.6,0,1c0,0.4,0.1,0.7,0.2,1l0,0.2v4h-0.3v0.7l-1.3-0.1c-0.1,0-0.3,0-0.4,0.1c-0.3,0.1-0.6,0.2-0.9,0.2H502
			c-1.1,0-2.4,0.1-3.8,0.3c-0.7,0.1-1.4,0.1-2,0.1c-0.6,0-1.2,0-1.8-0.1l0,0l-1.4,0l0,0.3c0,0.3-0.1,0.8-0.2,1.5
			c-0.1,0.7-0.2,4.1-0.2,4.8c0,1.3-0.2,2.7-0.5,4.4c-0.3,1.7-0.4,3.1,0,4.4l0.2,0.9h2.1c2.5,0,5,0,7.3,0.1c2.4,0.1,4.9,0.1,7.3,0.1
			h2.8c0.8,0,1.7,0,2.6,0.1l0.1,0l0.1,0c0.3,0.1,0.6,0.1,0.9,0.2l0.9,0.2v2.2c0.3,0.2,0.6,0.3,0.9,0.5l0.6,0.3v4.7l-1-0.6
			c-0.4,0.4-0.9,0.4-1.5,0.4c-0.2,0-0.4,0-0.6,0v1l-4.2,0.1c-1.2,0-2.3,0-3.4,0h-5.3c-1.1,0-2.2,0-3.4-0.1c-1.2-0.1-2.4-0.1-3.6-0.1
			c-0.2,0-0.6,0-1.3,0.1c-1.6,0.3-3.4,0.4-5.4,0.4c-1.3,0-2.4-0.1-3-0.1c-0.2,0-0.3,0-0.3,0l-2.2,0l-0.4-1.7l0.7-0.5l0,0l-1.2-1.1
			l-0.2-0.5l0-0.4c0-0.2,0-0.4,0-0.7c0-0.3-0.1-0.6-0.2-0.8l-0.1-0.4l0.1-0.4c0.1-0.2,0.1-0.5,0.2-0.8c0-0.3,0-0.6,0-0.9v-1.3l0-0.2
			l-0.1-0.4l0.1-0.4c0.1-0.2,0.1-0.4,0.2-0.7c0.1-0.7,0.2-1.5,0.3-2.5c0.1-0.9,0.1-1.8,0.1-2.7c0-0.9,0.1-1.5,0.1-1.7l0,0
			c0-1,0-1.9,0-2.8c0-0.9,0-1.8,0-2.8c0-0.3,0-0.7,0.1-1.3c0.1-0.6,0.1-1.2,0.1-1.8c0-0.6,0-1.1,0-1.7c0-0.3-0.1-0.6-0.2-0.8
			l-0.1-0.3l0-0.3c0.2-1.7,0.3-3.1,0.3-4.2c0.1-1.2,0.1-2.3,0.2-3.4c0.1-1,0.1-1.6,0.1-1.9c-0.1-1.4-0.2-2.6-0.2-3.8v-7.3
			c0-0.4,0-1.1,0.1-2c0.1-0.9,0.1-1.6,0-2.2l-0.1-1.1l0.1-0.2c0-0.1,0-0.2,0-0.2v-0.2l0.1-0.3l0,0c0-0.1,0-0.1,0-0.2l-0.1-0.3
			l0.1-0.3l0-0.4l0-0.1v-0.5l0.1-0.1c0-0.3-0.1-0.3-0.1-0.3l1-0.5l-1.1,0.1l0-0.1c0-0.1,0-0.3,0-0.5c0-0.2,0-0.4,0.1-0.5l0-0.3l0,0
			l0,0l0-0.3l0.2-0.1l0.4-0.8l0.6-0.1c0.4-0.1,0.4-0.3,0.4-0.3l0.2-0.7l0.7-0.1c0.1,0,0.2-0.1,0.3-0.1l0.3-0.2l0.6,0.1
			c0.2,0,0.4,0,0.6,0c0.4,0,0.7-0.1,1-0.2l0.3-0.2l0.3,0c1.1,0,2.3,0,3.4,0c1.5,0,3.1-0.1,4.7-0.2l0.2,0c0.5,0,1.7,0,3.3-0.1
			c1.7-0.1,3.5-0.2,5.3-0.3c1.8-0.1,3.5-0.1,5.1-0.1c0.8,0,1.3,0,1.7,0l0.4,0l0.4,0.3c0.1,0.1,0.3,0.2,0.5,0.2h1.3v0.1
			c0.1,0,0.2,0,0.2,0c0.5,0,1,0,1.4,0.4c0.2,0.2,0.3,0.3,0.3,0.5c0.5-0.2,1-0.4,1.4-0.6l0.4-0.2c0,0,0.8,0.3,0.9,0.4l0.7,0.3v0.5
			l0.1,0.2l0.9-0.2l-0.4,1.8c-0.1,0.3-0.1,0.5-0.1,0.8l0,0.3l-0.1,0.3c0,0.1-0.1,0.2-0.1,0.4c0,0.4,0,0.7,0,0.9v3.5l-1.2-0.7v0.3
			l-1.3,0.9l-0.8-0.1c-1.4-0.1-3-0.2-4.7-0.2c-1.3,0-2.4,0-3.4,0h-1.6c-1.5,0-3,0.1-4.5,0.2l-1.2,0.1l0.3-2.2c0,0-1.1,2.2-1.1,2.2
			l-0.3,0.3l-0.5,0h-0.5l-0.3-0.1l-0.1,0c-0.1,0-0.4,0-0.6,0l-0.3,0.1l-0.2-0.1c-0.2,0-0.7-0.1-0.7-0.1c-0.1,0-0.3,0-0.4,0H497
			l-0.2-0.1c-0.1,0-0.2-0.1-0.3-0.1h-0.4l0,0.3l-1.2-0.1c-0.2,0-0.3,0-0.3,0c-0.5,0-0.6,0-0.7,0.1l-0.2,0.1l-0.2,0.1
			c-0.6,0.2-0.6,0.3-0.6,0.4l0,0.3l-0.1,0.4c-0.2,0.4-0.2,0.8-0.3,1.3c0,0.6,0,1.1,0,1.7l0.1,1.5c0,0.6,0,1,0,1.4
			c0,1.2,0,2.4,0.1,3.8c0.1,1.3,0.1-0.3,0.1,0.8c0,0.3,0,0.8-0.1,1.4c-0.1,0.6-0.2,1.2-0.2,1.9c0,0.6,0,1.2,0.1,1.7
			c0,0.2,0.1,3.1,0.1,3.2l0.2,1.3L493.8,342.6z"/>
		<path d="M401.6,337.4c0,0,0.7-2.3,0.4-4.6c-0.4-2.3-0.4-4-0.2-4.8c0.2-0.8,0.4-2.6,0.4-2.6s-0.9,1.3-1.1,3
			c-0.2,1.6-0.5,4.8-0.5,4.8L401.6,337.4z"/>
		<path class="st0" d="M662.2,375.2l-1.2-0.9l-0.8,0.8l-0.7-1.1l-1.6,0.7l-3.1-0.6l-0.2,1.4l-0.5,1l-0.9-2.1l-3.6,0.1l-0.1,4.9
			l0.9,0.9c0,0-0.3,1.8-0.5,3.1c-0.2,1.3-0.7,4.1,0,4.6c0.7,0.5,1.3,1.8,1.3,1.8l-0.6,1.2c0,0,2.3,3.8,3.6,4.8s3.4,3.6,4.7,4.3
			c1.3,0.8,4.2,3.4,5.7,3.9c1.5,0.5,3.1,1.4,5.4,1.2s8.1-0.7,10.6-0.7s5.2-1,8.3-2.6c3.1-1.6,6.2-4.1,6.2-4.1v-2.1
			c0,0,1.1-0.9,2.1-2.9s1.8-4.4,1.9-6.9s0.3-6.3-0.8-9.1s-1.5-6-3.8-8.6s-5-5.9-7.1-7.3s-4.1-4.3-7.4-4.9s-7.5-1.6-10.3-3.3
			c-2.7-1.7-5.5-2.9-6.9-6.8s-2.4-6.4-1.6-8l0.9,0c0,0-0.1-3.6,1-5.1s2-4.3,4.1-4.9s4.1-1.4,4.1-1.4s0.4,0.5,0.5,0.7
			s1.4-0.2,2.1-0.1s2.5,0,3.3,0.3s2.6,0.1,3.5,0.7s1.6,1.1,1.5,1.8c0,0,0.9,0.9,1,1.8c0.1,0.8,0.8,3.1,0.8,3.9s0,3.4,0.2,4
			s0.3,1.8,0.3,2.6s-0.3,1.7-0.3,1.7l1.7,0.7l-0.1-1.5l0.8-0.1l0.7-0.7l0.1,2c0,0,0.7-0.5,1-0.1c0.3,0.4,1.6,0.8,1.9,0.7
			c0.2-0.1,1.2-0.9,1.2-0.9l0,1.1l1.2,0.2l1.7,0.2l-0.1,0.5l2.4-0.2c0,0,0.1-0.8,0-1.6s0.4-1.4,0.2-2.6s-0.2-3.4-0.2-3.4l-0.9-0.4
			c0,0,0.3-1.3,0.4-2.1s-0.2-2.9-0.6-4.8s-0.5-3.6-1.6-5.7s-2.4-4.3-4.5-5.6l0.2-0.6c0,0-2-1.3-3.5-1.8s-3.3-1.5-5.1-1.9
			s-2.6-0.8-4.6-0.8c-2,0-3.2,0.4-4.5,0.6s-3.3,0.1-5.3,0.5s-3.3,0.8-4.9,1.2s-2.4,1.1-3.2,1.6c-0.8,0.5-2.6,2.3-2.6,2.3l0.3,0.4
			c0,0-0.8,0.7-1.4,1.4s-1.9,1.8-2.8,3c-0.9,1.2-1.7,2.7-2.2,3.8s-1.2,3.3-1.5,4.9s-0.7,3.8-0.6,5.4c0.1,1.7-0.2,2.8,0.3,3.5
			c0.5,0.7,0.5,1.3,0.4,2.1s-0.7,1.3-0.4,1.4s0.8,1.8,1.1,2.4s2,4.2,2.7,5.5c0.6,1.3,3.4,4.9,4.3,5.4l0.6-0.3c0,0,1.7,1.3,2.7,2.1
			s2.8,1.6,3.9,1.9s1.9,0.6,1.9,0.6l-0.2,0.6c0,0,1.8,0.2,2.5,0.6c0.7,0.4,1.5,0.9,1.5,0.9s1.4,0.2,2.3,0.4c0.8,0.2,1.7,0.8,2.3,0.9
			l0.5-0.4c0,0,2.1,1,2.5,2.1s1.3,2.1,2.1,2.4s1.4,0.5,1.4,0.5l0.1,0.6c0,0,1.3,0.9,1.8,1.9s0.4,1.8,1.1,2.3s1.3,0.6,1,1.4
			s-0.2,0.8-0.2,0.8l0.2,1.7l0,0.9h0.3c0,0-0.3,0.8-0.3,1.4s-0.2,1.4-0.2,1.4l-0.3,0.6l0.4,0.4c0,0,0.1,0.9-0.3,1.6
			s-0.7,0.9-1.2,1.5c-0.5,0.7-0.8,1.7-1.9,1.9s-2.6,0.3-3.8,0.4s-2.5,0.3-3.7,0.3s-2.1,0.6-2.8,0c-0.7-0.6-2.2-2.3-3.4-2.7
			c-1.2-0.4-1.4-1.2-2-1.6c-0.6-0.4-1.1-1.1-1.1-1.1l0.2-0.3c0,0-1.4-1.6-1.6-3.2s-0.9-2.7-0.4-4S662.2,375.2,662.2,375.2z"/>
		<path d="M695.6,319.8c0,0,4,6.3,3.9,14.8l1.3-0.2C700.7,334.4,700.1,325.3,695.6,319.8z"/>
		<path d="M647.4,381c0,0-1.6,4.8,0,7.1c0,0-2.1-2.6-1.3-6.9L647.4,381z"/>
		<path d="M235,430.4l0.1-0.6l0.6-0.3c0,0,0.5,0.1,0.9,0.2c0.4,0.1,2.5-0.1,2.8,0c0.4,0.1,0.5-0.4,0.5-0.4s1.1-0.1,1.6,0
			c0.5,0.1,2.7,0,3.2,0.1c0.5,0.1,0.5,0.1,0.5,0.1l2.1,0l1.6,0.1l0.1-1.3c0,0,0.3-1.3,0.1-1.8c-0.1-0.5-0.2-2-0.2-2l-0.2-0.7
			c0,0-2.5-0.3-3.4-0.3c-0.9,0-3.8,0.1-4.8,0.2c-1,0.1-3.2,0.4-4.3,0.3c-1.1-0.1-3.9-0.2-3.9-0.2l0,0.3l-2.4-0.1l-0.5,0.1
			c0,0,0.1,2,0.1,2.9c0,0.9,0,2.7,0,3.4c0,0.7-0.1,3.8-0.1,4.7c0.1,1,0,3.1,0,4.4c-0.1,1.2-0.3,2.6-0.3,2.6s0.3,0.2,0.3,0.7
			s-0.2,4.3-0.2,5.3c0,1-0.4,4.1-0.4,4.9c0,0.8,0,2.4,0,3c0,0.6-0.1,1.5-0.1,1.5l0.5,0.3l-0.4,0.4c0,0,2.3,0.3,3.2,0.1
			c0.9-0.2,3.1-0.2,4-0.2c1-0.1,2.4,0.4,3.4,0.2c1-0.2,2.6,0.1,3.6,0c1-0.1,2.4,0.2,3.1,0c0.7-0.1,1.2-0.2,1.2-0.2l0-1.8l-0.4-0.3
			c0,0,0.4-0.5,0.4-1.1c0.1-0.6-0.2-1.9-0.2-1.9s-1.4-0.1-2.2,0.1c-0.8,0.1-3.3-0.1-3.3-0.1l-0.6-0.3c0,0-1.6,0.2-2.1,0.3
			c-0.5,0.1-2.2,0-2.9,0.1c-0.7,0.1-1.7-0.2-1.7-0.2s-0.5-1.4-0.2-2.3c0.3-0.9,0.4-1.5,0.4-2.4c0.1-1,0.2-2,0.2-2s1.2,0.1,2,0.1
			c0.8-0.1,1.9-0.3,2.6-0.2c0.7,0.2,2,0.1,2,0.1s0.4-0.6,0.4-1.2c0-0.7-0.2-1.8-0.2-1.8s-0.3-0.9-0.1-1.3c0.1-0.4,0-0.9,0-0.9
			s-0.8-0.5-1.7-0.4c-0.9,0.1-2.1-0.1-3,0.1c-0.9,0.2-2,0.1-2,0.1s-0.3-0.8-0.2-1.6c0.2-0.8,0.2-2,0.1-3.1c-0.1-1.1-0.2-3.7-0.1-4.1
			C235,431.3,235,430.4,235,430.4z"/>
		<path d="M332,430.4l0.1-0.6l0.6-0.3c0,0,0.5,0.1,0.9,0.2c0.4,0.1,2.5-0.1,2.8,0c0.4,0.1,0.5-0.4,0.5-0.4s1.1-0.1,1.6,0
			c0.5,0.1,2.7,0,3.2,0.1c0.5,0.1,0.5,0.1,0.5,0.1l2.1,0l1.6,0.1l0.1-1.3c0,0,0.3-1.3,0.1-1.8c-0.1-0.5-0.2-2-0.2-2l-0.2-0.7
			c0,0-2.5-0.3-3.4-0.3s-3.8,0.1-4.8,0.2c-1,0.1-3.2,0.4-4.3,0.3c-1.1-0.1-3.9-0.2-3.9-0.2l0,0.3l-2.4-0.1l-0.5,0.1
			c0,0,0.1,2,0.1,2.9c0,0.9,0,2.7,0,3.4c0,0.7-0.1,3.8-0.1,4.7c0.1,1,0,3.1,0,4.4c-0.1,1.2-0.3,2.6-0.3,2.6s0.3,0.2,0.3,0.7
			s-0.2,4.3-0.2,5.3c0,1-0.4,4.1-0.4,4.9c0,0.8,0,2.4,0,3c0,0.6-0.1,1.5-0.1,1.5l0.5,0.3l-0.4,0.4c0,0,2.3,0.3,3.2,0.1
			c0.9-0.2,3.1-0.2,4-0.2c1-0.1,2.4,0.4,3.4,0.2c1-0.2,2.6,0.1,3.6,0c1-0.1,2.4,0.2,3.1,0c0.7-0.1,1.2-0.2,1.2-0.2l0-1.8L344,456
			c0,0,0.4-0.5,0.4-1.1c0.1-0.6-0.2-1.9-0.2-1.9s-1.4-0.1-2.2,0.1c-0.8,0.1-3.3-0.1-3.3-0.1l-0.6-0.3c0,0-1.6,0.2-2.1,0.3
			c-0.5,0.1-2.2,0-2.9,0.1c-0.7,0.1-1.7-0.2-1.7-0.2s-0.5-1.4-0.2-2.3c0.3-0.9,0.4-1.5,0.4-2.4c0.1-1,0.2-2,0.2-2s1.2,0.1,2,0.1
			c0.8-0.1,1.9-0.3,2.6-0.2c0.7,0.2,2,0.1,2,0.1s0.4-0.6,0.4-1.2c0-0.7-0.2-1.8-0.2-1.8s-0.3-0.9-0.1-1.3c0.1-0.4,0-0.9,0-0.9
			s-0.8-0.5-1.7-0.4c-0.9,0.1-2.1-0.1-3,0.1c-0.9,0.2-2,0.1-2,0.1s-0.3-0.8-0.2-1.6c0.2-0.8,0.2-2,0.1-3.1c-0.1-1.1-0.2-3.7-0.1-4.1
			C332,431.3,332,430.4,332,430.4z"/>
		<path d="M502.9,430.4l0.1-0.6l0.6-0.3c0,0,0.5,0.1,0.9,0.2c0.4,0.1,2.5-0.1,2.8,0c0.4,0.1,0.5-0.4,0.5-0.4s1.1-0.1,1.6,0
			c0.5,0.1,2.7,0,3.2,0.1c0.5,0.1,0.5,0.1,0.5,0.1l2.1,0l1.6,0.1l0.1-1.3c0,0,0.3-1.3,0.1-1.8c-0.1-0.5-0.2-2-0.2-2l-0.2-0.7
			c0,0-2.5-0.3-3.4-0.3c-0.9,0-3.8,0.1-4.8,0.2c-1,0.1-3.2,0.4-4.3,0.3c-1.1-0.1-3.9-0.2-3.9-0.2l0,0.3l-2.4-0.1l-0.5,0.1
			c0,0,0.1,2,0.1,2.9c0,0.9,0,2.7,0,3.4c0,0.7-0.1,3.8-0.1,4.7c0.1,1,0,3.1,0,4.4c-0.1,1.2-0.3,2.6-0.3,2.6s0.3,0.2,0.3,0.7
			s-0.2,4.3-0.2,5.3c0,1-0.4,4.1-0.4,4.9c0,0.8,0,2.4,0,3c0,0.6-0.1,1.5-0.1,1.5l0.5,0.3l-0.4,0.4c0,0,2.3,0.3,3.2,0.1
			c0.9-0.2,3.1-0.2,4-0.2c1-0.1,2.4,0.4,3.4,0.2c1-0.2,2.6,0.1,3.6,0c1-0.1,2.4,0.2,3.1,0c0.7-0.1,1.2-0.2,1.2-0.2l0-1.8L515,456
			c0,0,0.4-0.5,0.4-1.1c0.1-0.6-0.2-1.9-0.2-1.9s-1.4-0.1-2.2,0.1c-0.8,0.1-3.3-0.1-3.3-0.1l-0.6-0.3c0,0-1.6,0.2-2.1,0.3
			c-0.5,0.1-2.2,0-2.9,0.1c-0.7,0.1-1.7-0.2-1.7-0.2s-0.5-1.4-0.2-2.3c0.3-0.9,0.4-1.5,0.4-2.4c0.1-1,0.2-2,0.2-2s1.2,0.1,2,0.1
			c0.8-0.1,1.9-0.3,2.6-0.2c0.7,0.2,2,0.1,2,0.1s0.4-0.6,0.4-1.2c0-0.7-0.2-1.8-0.2-1.8s-0.3-0.9-0.1-1.3c0.1-0.4,0-0.9,0-0.9
			s-0.8-0.5-1.7-0.4c-0.9,0.1-2.1-0.1-3,0.1c-0.9,0.2-2,0.1-2,0.1s-0.3-0.8-0.2-1.6s0.2-2,0.1-3.1c-0.1-1.1-0.2-3.7-0.1-4.1
			C502.9,431.3,502.9,430.4,502.9,430.4z"/>
		<path d="M680.4,430.4l0.1-0.6l0.6-0.3c0,0,0.5,0.1,0.9,0.2c0.4,0.1,2.5-0.1,2.8,0c0.4,0.1,0.5-0.4,0.5-0.4s1.1-0.1,1.6,0
			c0.5,0.1,2.7,0,3.2,0.1c0.5,0.1,0.5,0.1,0.5,0.1l2.1,0l1.6,0.1l0.1-1.3c0,0,0.3-1.3,0.1-1.8c-0.1-0.5-0.2-2-0.2-2l-0.2-0.7
			c0,0-2.5-0.3-3.4-0.3c-0.9,0-3.8,0.1-4.8,0.2c-1,0.1-3.2,0.4-4.3,0.3c-1.1-0.1-3.9-0.2-3.9-0.2l0,0.3l-2.4-0.1l-0.5,0.1
			c0,0,0.1,2,0.1,2.9c0,0.9,0,2.7,0,3.4c0,0.7-0.1,3.8-0.1,4.7c0.1,1,0,3.1,0,4.4c-0.1,1.2-0.3,2.6-0.3,2.6s0.3,0.2,0.3,0.7
			s-0.2,4.3-0.2,5.3c0,1-0.4,4.1-0.4,4.9c0,0.8,0,2.4,0,3c0,0.6-0.1,1.5-0.1,1.5l0.5,0.3l-0.4,0.4c0,0,2.3,0.3,3.2,0.1
			c0.9-0.2,3.1-0.2,4-0.2c1-0.1,2.4,0.4,3.4,0.2c1-0.2,2.6,0.1,3.6,0c1-0.1,2.4,0.2,3.1,0c0.7-0.1,1.2-0.2,1.2-0.2l0-1.8l-0.4-0.3
			c0,0,0.4-0.5,0.4-1.1c0.1-0.6-0.2-1.9-0.2-1.9s-1.4-0.1-2.2,0.1c-0.8,0.1-3.3-0.1-3.3-0.1l-0.6-0.3c0,0-1.6,0.2-2.1,0.3
			c-0.5,0.1-2.2,0-2.9,0.1c-0.7,0.1-1.7-0.2-1.7-0.2s-0.5-1.4-0.2-2.3c0.3-0.9,0.4-1.5,0.4-2.4c0.1-1,0.2-2,0.2-2s1.2,0.1,2,0.1
			c0.8-0.1,1.9-0.3,2.6-0.2c0.7,0.2,2,0.1,2,0.1s0.4-0.6,0.4-1.2c0-0.7-0.2-1.8-0.2-1.8s-0.3-0.9-0.1-1.3c0.1-0.4,0-0.9,0-0.9
			s-0.8-0.5-1.7-0.4c-0.9,0.1-2.1-0.1-3,0.1c-0.9,0.2-2,0.1-2,0.1s-0.3-0.8-0.2-1.6c0.2-0.8,0.2-2,0.1-3.1c-0.1-1.1-0.2-3.7-0.1-4.1
			C680.4,431.3,680.4,430.4,680.4,430.4z"/>
		<path d="M411.5,430.4l0.1-0.6l0.6-0.3c0,0,0.5,0.1,0.9,0.2c0.4,0.1,2.5-0.1,2.8,0c0.4,0.1,0.5-0.4,0.5-0.4s1.1-0.1,1.6,0
			c0.5,0.1,2.7,0,3.2,0.1c0.5,0.1,0.5,0.1,0.5,0.1l2.1,0l1.6,0.1l0.1-1.3c0,0,0.3-1.3,0.1-1.8c-0.1-0.5-0.2-2-0.2-2l-0.2-0.7
			c0,0-2.5-0.3-3.4-0.3c-0.9,0-3.8,0.1-4.8,0.2c-1,0.1-3.2,0.4-4.3,0.3c-1.1-0.1-3.9-0.2-3.9-0.2l0,0.3l-2.4-0.1l-0.5,0.1
			c0,0,0.1,2,0.1,2.9c0,0.9,0,2.7,0,3.4c0,0.7-0.1,3.8-0.1,4.7c0.1,1,0,3.1,0,4.4c-0.1,1.2-0.3,2.6-0.3,2.6s0.3,0.2,0.3,0.7
			s-0.2,4.3-0.2,5.3c0,1-0.4,4.1-0.4,4.9c0,0.8,0,2.4,0,3c0,0.6-0.1,1.5-0.1,1.5l0.5,0.3l-0.4,0.4c0,0,2.3,0.3,3.2,0.1
			c0.9-0.2,3.1-0.2,4-0.2c1-0.1,2.4,0.4,3.4,0.2c1-0.2,2.6,0.1,3.6,0c1-0.1,2.4,0.2,3.1,0c0.7-0.1,1.2-0.2,1.2-0.2l0-1.8l-0.4-0.3
			c0,0,0.4-0.5,0.4-1.1c0.1-0.6-0.2-1.9-0.2-1.9s-1.4-0.1-2.2,0.1c-0.8,0.1-3.3-0.1-3.3-0.1l-0.6-0.3c0,0-1.6,0.2-2.1,0.3
			c-0.5,0.1-2.2,0-2.9,0.1c-0.7,0.1-1.7-0.2-1.7-0.2s-0.5-1.4-0.2-2.3c0.3-0.9,0.4-1.5,0.4-2.4c0.1-1,0.2-2,0.2-2s1.2,0.1,2,0.1
			c0.8-0.1,1.9-0.3,2.6-0.2c0.7,0.2,2,0.1,2,0.1s0.4-0.6,0.4-1.2c0-0.7-0.2-1.8-0.2-1.8s-0.3-0.9-0.1-1.3c0.1-0.4,0-0.9,0-0.9
			s-0.8-0.5-1.7-0.4c-0.9,0.1-2.1-0.1-3,0.1c-0.9,0.2-2,0.1-2,0.1s-0.3-0.8-0.2-1.6c0.2-0.8,0.2-2,0.1-3.1c-0.1-1.1-0.2-3.7-0.1-4.1
			C411.5,431.3,411.5,430.4,411.5,430.4z"/>
		<path d="M255.1,423.3l1.2-0.2v-0.5l2.3,0.1l1.5,0.2l1.1,0c0,0,0.6,1.5,1,2.5c0.4,1,0.8,2.2,1.2,2.9c0.3,0.7,1.6,3.5,2,4.6
			c0.5,1.1,1.8,3.1,2,3.7c0.3,0.5,3.1,5.4,3.1,5.4s0.2-2.2,0.4-3.4c0.2-1.2,0.4-2.7,0.5-4c0.1-1.4,0.2-3.6,0.3-4.9
			c0.1-1.3,0.3-3.2,0.3-4.2c0-1,0.1-2.3,0.1-2.3l1.8,0.3l0.4-0.4c0,0,2,0.4,2.1,0.5c0.1,0,1,0,1,0l0.3,2.4c0,0-0.4,0.9-0.4,1.7
			c0,0.8,0,3.2,0,3.2l0.1,0.4c0,0-0.3,3.1-0.4,4.2c-0.1,1-0.3,4.4-0.5,5.3c-0.2,0.9-0.1,2.5-0.1,3.3c0,0.8,0.3,2.5,0.2,3.2
			c-0.1,0.7-0.3,3.2-0.4,4.1c-0.1,0.9-0.1,3-0.1,3l0.6,1.9l-0.1,1.4l0.3,0.3l-3.8,0.5l-1.4-0.4c0,0-0.3-1.4-0.8-2.4
			c-0.5-1-1.7-3.9-2.2-5c-0.4-1.1-1.7-3.5-2.2-4.6c-0.5-1.2-2-4-2.6-5c-0.6-1-2.9-4.9-2.9-4.9s-0.2,7.2,0,8.8c0.2,1.6,0.4,4,0.3,4.9
			c-0.1,0.9-0.2,3.6-0.1,4.4c0.1,0.9,0,3.6,0,3.6l-0.3,0.9l-1,0.2l-1.1,0.3l-1.1-0.2l-2.2-0.3c0,0-0.2-0.9-0.2-1.9
			c0-1.1,0.2-3.9,0.1-5.9c-0.1-2-0.1-5.6-0.1-7.6c-0.1-2-0.1-4.3,0-6.4c0.1-2.1-0.2-4.4-0.1-6.2
			C255.3,428.5,255.1,423.3,255.1,423.3z"/>
		<path d="M298.5,423c0,0,2.1-0.1,3.2-0.1c1,0,2.1-0.1,3.1-0.1c1.1,0,2.6-0.2,3.7-0.2c1.1,0,3-0.2,3.9-0.1c0.8,0.1,2.6,0,3.4,0.1
			c0.8,0.1,3.7,0,4.4,0.1c0.6,0.1,1.1,0,1.1,0l0,1.5l-0.3,1.2c0,0,0,0.4,0,1c0,0.6-0.3,1.4-0.3,1.4s-0.2,0.3-0.8,0.2
			c-0.6-0.1-1.3,0-2,0.1c-0.7,0-1.9-0.1-2.7-0.1c-0.8,0.1-2,0.2-2.2,0.2c-0.2,0-1.1,0.3-1.1,1.5c0.1,1.2,0.1,1.6,0,2.1
			c-0.1,0.5-0.4,1.4-0.3,2c0.1,0.6,0.1,4,0.4,5c0.2,1,0,4.1,0.1,5.1c0.1,1-0.1,4.4,0,5.2c0.1,0.8-0.1,3.7-0.1,4.3
			c0.1,0.5-0.2,2.3-0.1,2.6c0.1,0.3,0,1.4,0,1.4l0.1,0.7l-0.7,0.1l0.3,0.5c0,0-1,0.2-1.9,0.4c-0.9,0.2-2.4,0.2-3.2,0.1
			c-0.8-0.1-0.9-0.6-0.9-0.6s-0.1-1.6,0.1-2.6c0.2-1,0.6-3.3,0.6-4.9s-0.1-4.2,0.1-5.6c0.2-1.3,0.2-3.9,0.2-5.1
			c-0.1-1.3-0.2-3.6-0.2-4.7c0.1-1.1-0.4-2.7-0.3-4c0.1-1.2,0.6-3.5-0.1-3.7c-0.7-0.2-2.2-0.2-3.4-0.2c-1.2,0.1-2.6,0.1-2.6,0.1
			l-1.7,0.1l0.2-1.8v-1.6l0.4-0.4L298.5,423z"/>
		<path d="M372.8,457.8c0,0-1-2.8-1.3-3.2c-0.3-0.4-0.5-1.3-0.7-2c-0.2-0.7-1.3-3.2-1.7-3.7c-0.3-0.5-0.9-2.5-1.2-3.1
			c-0.3-0.6-1.1-2.2-1.5-3.1c-0.4-0.9-1.1-2.4-1.1-2.4s0.9-0.4,1.7-0.6c0.8-0.2,1.6-0.7,2.7-1.6c1.1-0.9,1.8-2.2,2.5-3.8
			c0.7-1.6,0.4-4-0.7-6.4c-1.2-2.3-4.1-3.5-5.3-4c-1.2-0.5-3.5-0.6-4.5-0.7c-1-0.1-3.5,0.1-4.4,0c-0.8-0.1-2.5,0.3-3.5,0.3
			c-1,0-2.2,0.7-2.2,0.7s-0.2,2.3-0.2,3.3s-0.2,3-0.3,3.8c-0.1,0.8,0.2,3.3,0.4,4.7c0.3,1.3,0.1,3,0,3.9c-0.1,0.8-0.3,2.8-0.3,3.8
			c0,1-0.2,3.7,0,5.1c0.3,1.3-0.3,1.9-0.3,3.3c0,1.4,0.1,1.7-0.1,3.1c-0.1,1.5,0.1,2.4,0.1,2.4l0.1,1.2c0,0,1.6,0.1,2.1,0.1
			c0.5-0.1,2.3,0.1,2.9-0.2c0.6-0.3,1-0.1,1-0.1s0-1.3-0.1-1.5c-0.1-0.2,0-1.6-0.1-2.4c-0.1-0.8,0.2-3.1,0.3-4.5
			c0-1.4,0.1-3.4,0.1-4.7c0-1.3,0.1-4.8,0.1-4.8l1.6,0.1c0,0,1,1.6,1.3,2.3c0.3,0.7,1.1,2,1.7,3.2c0.6,1.2,1.1,2.5,1.4,4
			c0.3,1.5,1,2.8,1.5,3.8c0.5,1,1.2,2.9,1.2,2.9l0.2,0l0.2,1.6c0,0,0.4,0.5,0.8,0.3c0.5-0.2,2.6,0.3,3.6,0.3c0.9,0,2.1-0.4,2.1-0.4
			L372.8,457.8z M364.4,434.9c-1,0.1-2.2,0.1-2.2,0.1l-1.8-0.1h-0.8l-1.5,0l-1,0l0-0.3c0,0-0.2-4.4-0.2-6c0,0,2.2-0.1,3.3-0.1
			c1.2,0.1,2.6,0,3.4,0.3c0.8,0.2,1.7,0,2.2,1c0.5,0.9,0.7,2,0.1,3.3C365.4,434.4,365.4,434.8,364.4,434.9z"/>
		<path d="M400.2,457.8c0,0-1-2.8-1.3-3.2c-0.3-0.4-0.5-1.3-0.7-2c-0.2-0.7-1.3-3.2-1.7-3.7c-0.3-0.5-0.9-2.5-1.2-3.1
			c-0.3-0.6-1.1-2.2-1.5-3.1c-0.4-0.9-1.1-2.4-1.1-2.4s0.9-0.4,1.7-0.6c0.8-0.2,1.6-0.7,2.7-1.6c1.1-0.9,1.8-2.2,2.5-3.8
			c0.7-1.6,0.4-4-0.7-6.4c-1.2-2.3-4.1-3.5-5.3-4c-1.2-0.5-3.5-0.6-4.5-0.7c-1-0.1-3.5,0.1-4.4,0c-0.8-0.1-2.5,0.3-3.5,0.3
			c-1,0-2.2,0.7-2.2,0.7s-0.2,2.3-0.2,3.3s-0.2,3-0.3,3.8c-0.1,0.8,0.2,3.3,0.4,4.7c0.3,1.3,0.1,3,0,3.9c-0.1,0.8-0.3,2.8-0.3,3.8
			c0,1-0.2,3.7,0,5.1c0.3,1.3-0.3,1.9-0.3,3.3c0,1.4,0.1,1.7-0.1,3.1c-0.1,1.5,0.1,2.4,0.1,2.4l0.1,1.2c0,0,1.6,0.1,2.1,0.1
			c0.5-0.1,2.3,0.1,2.9-0.2c0.6-0.3,1-0.1,1-0.1s0-1.3-0.1-1.5c-0.1-0.2,0-1.6-0.1-2.4c-0.1-0.8,0.2-3.1,0.3-4.5
			c0-1.4,0.1-3.4,0.1-4.7c0-1.3,0.1-4.8,0.1-4.8l1.6,0.1c0,0,1,1.6,1.3,2.3c0.3,0.7,1.1,2,1.7,3.2c0.6,1.2,1.1,2.5,1.4,4
			c0.3,1.5,1,2.8,1.5,3.8c0.5,1,1.2,2.9,1.2,2.9l0.2,0l0.2,1.6c0,0,0.4,0.5,0.8,0.3c0.5-0.2,2.6,0.3,3.6,0.3c0.9,0,2.1-0.4,2.1-0.4
			L400.2,457.8z M391.7,434.9c-1,0.1-2.2,0.1-2.2,0.1l-1.8-0.1h-0.8l-1.5,0l-1,0l0-0.3c0,0-0.2-4.4-0.2-6c0,0,2.2-0.1,3.3-0.1
			c1.2,0.1,2.6,0,3.4,0.3c0.8,0.2,1.7,0,2.2,1c0.5,0.9,0.7,2,0.1,3.3C392.7,434.4,392.7,434.8,391.7,434.9z"/>
		<path d="M584.9,457.8c0,0-1-2.8-1.3-3.2c-0.3-0.4-0.5-1.3-0.7-2c-0.2-0.7-1.3-3.2-1.7-3.7c-0.3-0.5-0.9-2.5-1.2-3.1
			c-0.3-0.6-1.1-2.2-1.5-3.1c-0.4-0.9-1.1-2.4-1.1-2.4s0.9-0.4,1.7-0.6c0.8-0.2,1.6-0.7,2.7-1.6c1.1-0.9,1.8-2.2,2.5-3.8
			c0.7-1.6,0.4-4-0.7-6.4c-1.2-2.3-4.1-3.5-5.3-4c-1.2-0.5-3.5-0.6-4.5-0.7c-1-0.1-3.5,0.1-4.4,0c-0.8-0.1-2.5,0.3-3.5,0.3
			c-1,0-2.2,0.7-2.2,0.7s-0.2,2.3-0.2,3.3s-0.2,3-0.3,3.8c-0.1,0.8,0.2,3.3,0.4,4.7c0.3,1.3,0.1,3,0,3.9c-0.1,0.8-0.3,2.8-0.3,3.8
			c0,1-0.2,3.7,0,5.1c0.3,1.3-0.3,1.9-0.3,3.3c0,1.4,0.1,1.7-0.1,3.1c-0.1,1.5,0.1,2.4,0.1,2.4l0.1,1.2c0,0,1.6,0.1,2.1,0.1
			c0.5-0.1,2.3,0.1,2.9-0.2c0.6-0.3,1-0.1,1-0.1s0-1.3-0.1-1.5c-0.1-0.2,0-1.6-0.1-2.4c-0.1-0.8,0.2-3.1,0.3-4.5
			c0-1.4,0.1-3.4,0.1-4.7c0-1.3,0.1-4.8,0.1-4.8l1.6,0.1c0,0,1,1.6,1.3,2.3c0.3,0.7,1.1,2,1.7,3.2c0.6,1.2,1.1,2.5,1.4,4
			c0.3,1.5,1,2.8,1.5,3.8c0.5,1,1.2,2.9,1.2,2.9l0.2,0l0.2,1.6c0,0,0.4,0.5,0.8,0.3c0.5-0.2,2.6,0.3,3.6,0.3c0.9,0,2.1-0.4,2.1-0.4
			L584.9,457.8z M576.4,434.9c-1,0.1-2.2,0.1-2.2,0.1l-1.8-0.1h-0.8l-1.5,0l-1,0l0-0.3c0,0-0.2-4.4-0.2-6c0,0,2.2-0.1,3.3-0.1
			c1.2,0.1,2.6,0,3.4,0.3c0.8,0.2,1.7,0,2.2,1c0.5,0.9,0.7,2,0.1,3.3C577.4,434.4,577.4,434.8,576.4,434.9z"/>
		<path d="M443.2,435.1l1.2-0.2l1.1,0.1l1.2,0.3l1.2,0.2c0,0,0.2-1.1,0.2-1.4c0-0.3-0.1-1.6-0.2-2.1s-0.1-0.6-0.1-0.9
			c0-0.3,0.1-2-0.5-2.9c-0.5-1-0.9-2.3-1.7-3s-1.8-1.2-2.5-1.5c-0.7-0.3-2-1.1-3.2-1c-1.2,0.1-2.4,0.5-3.6,0.6
			c-1.2,0.1-2.2,0.2-3.1,0.7c-0.8,0.5-1.3,1.3-1.7,1.6c-0.4,0.3-1,1-1.5,1.8c-0.5,0.7-1.8,3.1-1.7,4.2c0.1,1.1,0.4,2.8,0.5,3.6
			c0.1,0.8,0,2,0.9,3.1s1.5,2.6,2.3,2.8c0.8,0.3,1.5,1,2.4,1.5c0.9,0.5,2,1,2.9,1.2c1,0.3,1.8,0.3,1.8,0.3l0.1,0.3
			c0,0,0.8,0.6,1.4,1.4c0.6,0.7,1.3,0.8,1.8,1.9c0.5,1.1,0.9,2.3,0.7,3.2c-0.1,0.9-0.3,1.4-0.8,1.9c-0.5,0.6-0.7,0.7-1.7,0.9
			c-1,0.2-1.8,0.4-2.8,0.2c-1-0.2-1.9-0.6-2.3-1.3c-0.4-0.7-1.4-1.6-1.4-2.7s0.5-2.4,0.5-2.4l0-1l-0.9,0.1c0,0-1-0.1-1.4,0.3
			c-0.4,0.4-0.5,0.2-1,0.4c-0.5,0.2-1.7,0-1.7,0l-0.6,0.3l-0.7,0c0,0,0,2.6,0.4,4.2c0.4,1.6,1.5,3.3,2.4,4.2c0.9,1,1.9,2.1,2.9,2.6
			c0.9,0.5,3.1,1.5,5.4,1c2.4-0.6,4.1-0.4,5.3-1.3c1.2-0.9,3.3-2.5,3.7-4.6c0.5-2.1,0.5-4,0.1-5c-0.3-1-0.5-2.7-1.6-4
			c-1.1-1.3-1.5-2.6-3.2-3.5c-1.7-0.9-2.7-1.8-4.4-2.2c-1.7-0.4-4.1-1.5-4.6-2.3c-0.5-0.8-1.4-2-1.3-3.1l0.3,0c0,0,0.2-0.9,0.3-1.3
			c0.1-0.4-0.1-1.1,0.3-1.7c0.4-0.6,0.7-1.1,1-1.4c0.3-0.4,1.2-1.2,1.8-1.2c0.5,0,1.1-0.1,1.1-0.1l0,0.3c0,0,0.9,0,1.4,0.2
			c0.5,0.1,1.4,0.1,1.8,0.3c0.4,0.2,0.9,0.4,1,1.3c0.1,0.9,0.5,2.6,0.4,3.2C442.9,433.5,443.2,435.1,443.2,435.1z"/>
		<path d="M492.7,437.8c-0.1-0.6,0-3.1,0-3.1l-0.3-0.1V434c0,0-0.3-2.5-0.5-3.6c-0.2-1.2-1.4-2.7-1.8-3.6c-0.5-0.9-2.1-1.9-2.7-2.5
			c-0.6-0.6-2.1-0.8-2.9-1.2c-0.8-0.5-2.9-0.3-3.7-0.4c-0.8-0.1-1.9,0.2-2.7,0.1c-0.8-0.1-2.3,0-2.4-0.2c-0.1-0.2-0.1,0.6-0.1,0.6
			l-1.4-0.1c0,0-1,0.2-1.2-0.1c-0.2-0.3-1,0.3-1,0.3s-0.1,0.8,0,2c0.1,1.1-0.1,2.6-0.1,3.5c0,0.9-0.2,3.1-0.3,4.3
			c-0.1,1.3,0.1,1.9,0.2,3.3c0.1,1.4,0.2,2.2,0.2,3c0,0.8-0.1,2.4-0.2,3.3c-0.1,0.9,0,2.8-0.1,3.8c-0.1,1.1,0,3.1,0,3.8
			s0.2,2.5,0,3.3c-0.2,0.9,0.2,1.5,0.2,2.3c0,0.8,0.2,1.4,0,1.9c-0.2,0.6-0.1,1.4-0.1,1.4s1.2,0.2,1.9,0c0.6-0.2,1.4,0,1.8-0.1
			c0.4-0.1,1.4,0.2,2.1,0c0.7-0.1,2.1,0.1,2.8-0.1c0.6-0.2,1.2-0.2,1.2-0.2s0.5,0.3,0.7,0.1c0.2-0.1,2.5-0.4,3.2-0.7
			c0.7-0.4,2.1-1,2.7-1.3c0.5-0.3,0.5-0.6,0.5-0.6l0.3-0.5c0,0,0,0,0.3-0.4c0.3-0.4,1.2-1.2,1.8-2.1c0.5-0.9,0.9-2.4,1-3.2
			c0.1-0.8,0.4-2.9,0.5-3.8c0.1-0.9,0.3-3.7,0.3-4.5C492.5,441.1,492.7,438.5,492.7,437.8z M487,438.7c-0.1,1-0.1,3.9-0.3,5
			c-0.2,1.1-0.2,3.9-0.5,5c-0.3,1.1-0.8,3.2-1.7,3.6c-0.9,0.5-1.7,1.2-3.7,1.1c-2-0.2-3.8-0.2-3.8-0.2s0-2.7,0-4.8
			c0.1-2.1,0.2-3.9,0.1-5.5c-0.1-1.5-0.3-3.9-0.2-5.5c0.1-1.6-0.4-2.6-0.2-3.9c0.2-1.2-0.1-3.1,0.2-3.8c0.2-0.7,0.3-1.6,0.3-1.6
			s0.5,0,1.2,0.1c0.6,0.1,1.5-0.1,2.1-0.1c0.6,0.1,1.9-0.2,2.6,0.3c0.6,0.5,2.2,0.6,2.5,1.5c0.3,0.8,1.4,2.1,1.4,3.7
			C487,435.2,487,437.7,487,438.7z"/>
		<path d="M543.7,458.1l-0.9,0.3l-0.3-0.5c0,0-0.6,0.5-0.9,0.5c-0.3,0-1.8,0-1.8,0l-0.9-0.1c0,0-0.3-1.2-0.3-1.9
			c0-0.7,0-1.5,0.1-2.3c0.1-0.8-0.1-2.3-0.1-2.3s-0.3-2.4-0.1-3.5c0.3-1.1-0.2-5.3,0.2-5.7c0.4-0.5,0.6-1.9,0.3-2.2
			c0,0-0.1-3.6,0.1-5.1c0.2-1.6,0.3-3.4,0.4-4.3c0.1-1,0.2-1-0.1-2.5c-0.3-1.6-0.5-2.6-0.5-2.6l0.3,0l-0.1-1.3l-0.1-0.8
			c0,0,1.3,0.3,2.3,0.1c1-0.2,2.4-0.1,3.4,0c1.1,0.1,2.1,0,3.2,0.1c1.1,0.1,2.6,0.1,3.6,0.1c0.9,0,2.8-0.5,3.6-0.4
			c0.8,0.1,2.6,0,2.6,0l0.7,0.1c0,0,0,2.9,0.1,3.4c0.1,0.4-0.3,0.8-0.3,0.8l-0.9,0.3l0.5,0.5c0,0-0.9,0.1-1.9,0.3
			c-1,0.3-2.7,0.5-3.8,0.3c-1.1-0.1-3.4-0.2-4.3-0.3c-1-0.1-3.5,0.1-3.5,0.1l0.4,0.3c0,0-0.5,0.3-0.6,0.7c-0.1,0.4-0.1,1-0.1,1.4
			c0.1,0.4,0.2,1.9,0.2,2.1c0,0.1-0.3,1.3-0.3,1.7s-0.3,1.6-0.2,2.2c0.1,0.6,0.2,1.7,0.2,1.7l-0.2,0.4c0,0,0.3,0,0.7,0
			c0.4,0,1.1,0.4,1.3,0.3c0.2-0.1,1.3,0,1.5,0c0.2,0,1.4-0.3,1.4-0.3l0.5,0.1l0.3,0l0,0.8c0,0-0.2,1.1-0.1,1.5
			c0.1,0.4,0.2,1.4,0.2,1.7c-0.1,0.3-0.3,1-0.3,1l-0.4,0.1c0,0-0.6,0.1-1.1,0.4c-0.5,0.2-1.4,0.2-2,0.1c-0.7-0.1-1.3-0.2-1.9-0.2
			c0,0,0,2.5,0.2,3.8c0.1,1.3,0.2,3.9,0.2,4.8c0,0.9-0.3,3.1-0.3,3.5c0,0.4-0.2,0.4-0.2,0.4"/>
		<path d="M616.5,457c0,0-0.3-1.5-0.6-2.1c-0.3-0.6-1.3-3.6-1.9-4.7c-0.6-1.1-1.3-4.1-1.7-5.4c-0.4-1.3-1.6-3.9-1.9-5.5
			c-0.4-1.6-1.5-4.3-1.9-5.7c-0.4-1.4-1.1-4-1.6-5.4c-0.4-1.4-0.9-4.6-0.9-4.6l-1.1-0.3l-1.5,0.4l-1.4-0.1h-1.3l-0.8,0.3
			c0,0-0.4,1.5-0.5,2.3c-0.1,0.8-0.4,1.5-0.8,2.6c-0.3,1.1-0.5,2.8-0.8,3.5c-0.3,0.8-0.6,2-0.9,2.9c-0.3,0.9-0.8,2.1-1.3,3
			c-0.5,0.9-0.8,2.3-1.2,3.4c-0.4,1.1-0.9,2.3-0.9,2.3l0.4,0.2c0,0,0,0.8-0.4,1.8c-0.4,1-0.6,1.8-0.9,2.8c-0.3,1.1-0.2,1.4-0.6,2.5
			c-0.4,1.1-0.9,2.7-1,3.6c0,0.9-0.4,3.6-0.4,3.6s0.4,0.1,0.9,0.1c0.6,0,1.5,0.2,1.5,0.2l0.7-0.2l0.6,0.2l1.8-0.3l0.5-0.6
			c0,0,0.2-0.9,0.3-0.7c0.1,0.2,0.3-0.8,0.2-1.4c-0.1-0.5,0.2-1.5,0.4-2.7c0.2-1.3,1.7-1,2.8-1.2c1.1-0.1,4.2,0.1,5.4,0.1
			s2.9,0.7,2.9,0.7s0.4,0.8,0.6,1.4c0.3,0.6,0.6,1.2,0.7,1.9c0.1,0.7,0.7,1.1,0.7,1.1l0.3,1.5c0,0,0,0,0.5-0.1c0.5-0.1,1.6,0,1.6,0
			s1.3,0.1,2,0.1c0.6-0.1,0.8-0.3,0.8-0.3l-0.3-0.9L616.5,457z M604.2,446.3c-0.7-0.3-1.4,0-2.3,0c-0.9,0-2.7,0.1-2.7,0.1
			s0.5-2.1,0.7-2.8s0.6-1.8,1.2-3.1c0.6-1.3,0.4-1.9,0.4-1.9s0.5-0.5,0.6-1.4c0.1-1,0.4-1.8,0.4-1.8s1,2.5,1.3,3.1
			c0.3,0.6,0.7,2.5,1.1,3.1c0.3,0.7,0.6,2.4,0.9,3.1c0.3,0.7,0.9,1.7,0.9,1.7S604.9,446.5,604.2,446.3z"/>
		<path d="M621.8,458.7c0,0,1.1-0.3,2,0s1.6,0.2,1.6,0.7c0,0,0.3-0.5,0.6-0.5c0.3,0,1-0.1,1-0.1l-0.3-0.8l0.8-0.1c0,0,0-1.6,0.1-2.5
			c0-0.9-0.2-2-0.2-3c0-1,0.6-3.1,0.3-4.3c-0.3-1.2-0.3-3.4-0.4-4.4c-0.1-1,0.2-3.7,0.1-4.6c-0.1-0.9-0.1-3.1-0.1-3.1
			s0.9,1.9,1.5,2.6c0.6,0.7,1,2.1,1.4,2.6c0.4,0.5,1,1.8,1.4,2.6c0.4,0.8,1.7,2.3,2,3.4c0.3,1.1,1.1,2.9,1.5,3.9
			c0.4,1,1,2.4,1.5,3.4c0.5,1,1.1,2.3,1.1,2.3l0.5,1.3l0.3,0.4l1.7-0.2c0,0-0.2-1-0.1-0.8c0.1,0.2,1.2,0,1.2,0l1,0l0.4-0.5l0.9,0
			l-0.3-1.2c0,0-0.6-1.4-0.7-2c-0.1-0.6,0-3.1,0.1-4.2c0.1-1.1,0.1-1.1,0.1-1.1l0.2-1.4l-0.5-0.5c0,0,0.4-1.5,0.3-2.4
			c-0.1-0.9,0-3.5,0.1-4.6c0.1-1.2,0.4-3.9,0.4-5.2c0.1-1.3,0.3-3.6,0.3-3.6l-0.3-0.4c0,0,0-1.4,0.3-2.4c0.3-1,0.5-2.7,0.5-2.7
			l-0.1-1.6l-0.9,0l-1.5-0.1c0,0-1.4-0.2-1.8-0.4c-0.4-0.1-1.3,0-1.3,0s-0.1,3.5-0.2,4.7c-0.1,1.2-0.4,3.1-0.4,4.3
			c0,1.2-0.1,3.9-0.3,4.9c-0.2,1.1-0.8,2.6-0.6,3.3c0.1,0.7-0.1,1.7-0.1,1.7s-1.1-1.7-1.7-2.8c-0.6-1.1-1.3-2.5-1.7-3.2
			c-0.5-0.7-0.8-1-1.2-2c-0.4-0.9-1.8-3.2-1.9-4.1c-0.1-0.9-1.3-3.2-1.3-3.2s-0.8-2-1-2.5c-0.2-0.5-0.6-1.4-0.6-1.4
			s-1.3-0.6-1.9-0.3c-0.6,0.3-1.6,0.5-1.6,0.5l-1.1-0.4l-1.4,0.2c0,0,0.3,2.9,0.2,4.2c-0.1,1.3,0,3.3,0.1,4.5
			c0.1,1.2,0.1,4.9,0.1,6.4c-0.1,1.4-0.1,4.1,0,5.6s0.2,4,0.1,5.3c-0.1,1.3-0.2,4.2-0.1,5.7C621.8,455.9,621.8,458.7,621.8,458.7z"
			/>
		<path d="M664.2,437l2.2,0.1c0,0,0-0.8,0.3-0.6c0.2,0.2,0.6,0.2,1.4,0.2c0.9,0,1.2-0.6,1.2-0.6l0.4,0.2c0,0,0-2,0-2.8
			c0-0.8-0.1-2.4-0.1-3.5c0-1.1-0.6-2.4-0.7-2.9c-0.2-0.5-0.9-1.6-1.1-1.9c-0.2-0.3-1.8-1.4-3-1.8c-1.2-0.5-3.9-0.8-5.4-0.8
			c-1.5,0-3.6,0-4.9,0.8c-1.3,0.8-2,1.7-2.5,2.2c-0.5,0.5-1.8,2-2.3,3c-0.5,1-0.7,3.5-0.7,3.5l0.4,0.3c0,0-0.3,1.6-0.2,2.3
			s0.3,1.7,0.3,1.7s-0.3,2.1-0.1,2.7c0.2,0.6,0.1,1.7,0.1,3.2c-0.1,1.5-0.3,5.1-0.2,6.4c0.1,1.3,0.3,4,0.8,5.1
			c0.5,1.1,1.1,1.6,1.1,1.6l0.4-0.1c0,0,0.5,0.9,1.4,1.6c0.9,0.7,2.2,1.7,3.4,1.8c1.2,0.1,2.6,0.1,2.6,0.1s0.7,0,1,0.1
			s2-0.1,2.9-0.3c0.9-0.2,2.1,0,3.3-1.2s1.7-2,2-2.9c0.3-1,0.6-1.5,0.6-1.5s-0.5-0.3-1-0.8c-0.5-0.5-1.5-0.9-1.5-0.9l-0.9-0.1
			l-0.7-0.6c0,0-0.5,0.5-1.1,1.2c-0.6,0.7-1.7,1.2-2.8,1.4c-1.1,0.2-2.4,0-3.8-0.9c-1.4-0.9-1.6-2-1.6-3.3c0-1.3-0.1-4.4,0-6.3
			c0.1-1.9,0-4.9,0-6.6c0-1.6-0.8-5.1,0.1-6c0.9-0.9,1.9-2.3,4.4-2.1c2.6,0.1,4.3,0.2,4.5,1.8c0.2,1.6,0.4,3.3,0.3,4
			c-0.1,0.7-0.2,1.3-0.2,1.8C664.2,436.1,664.2,437,664.2,437z"/>
		<path d="M522,211.8c0-3.4,0.2-6.9,0.5-10.4c0,0.6-0.2,2-0.4,4c-0.2,2.1-0.5,4.3-0.8,6.8c-0.3,2.5-0.4,4.7-0.4,6.7
			c0,2,0.2,3.3,0.6,3.8C521.7,218.8,521.9,215.2,522,211.8z"/>
		<path d="M603.8,257.1c0.3,0.6,1,1.9,2.1,3.7c1.1,1.9,2.2,3.3,3.3,4.3l-3.8-7.4C604.9,257,604.4,256.7,603.8,257.1z"/>
		<path d="M591,228.9c0.8,2.2,1.7,4.4,2.6,6.6c2.7,6.2,5.6,12.4,8.8,18.4l0.8-0.4c-1.7-4-3.7-8.2-6.1-12.8
			C595,236.4,592.9,232.5,591,228.9z"/>
	</g>
	<path d="M299.9,302.5c0,0,1.3,0,3.1-0.2c1.8-0.2,1.9,0,3.1-0.2c1.2-0.1,0.7-0.6,2.5-0.3c1.8,0.3,1.8,0.5,2.8,0.5s1-0.5,2.3-0.5
		c1.3,0,1.5-0.3,2.8-0.2c1.3,0.2,3-0.2,3.5,0c0.5,0.2,2.7,0.2,2.7,0.2l-0.3,1.2l2.1-1.4c0,0,1.4-0.4,2.7-0.3c1.3,0.2,1.7,0.1,2.8,0
		c1.1-0.1,1.7-0.7,2.7-0.3s2.3,0.5,3.5,0.3c1.2-0.2,2.2-0.5,2.8-0.2c0.7,0.3,1,0.7,1.8,0.2c0.8-0.5,2.2-0.3,2.2-0.3l0.8,0.7l1.5-0.7
		c0,0,2.3-0.5,2.3,0s-1,2-0.5,2.5s0.7,1,0.5,1.5c-0.2,0.5,0,1.9,0,1.9l-0.5,0.8c0,0,0,0.3-1.8,0.3c-1.8,0-3.5,0.3-3.5,0.3
		s1.5,0.5-1,0.2s-3-0.3-3.7-0.2c-0.7,0.2-2.3,0.2-2.3,0.2l-0.3-1l-0.8,0.5l-1.5,0.7l-1.7,0.2c0,0-2.2-0.3-3.7-0.2
		c-1.5,0.2-2.8-0.7-4.5,0c-1.7,0.7-2,0.8-3.3,0.5c-1.3-0.3-2.5,0-3-0.2s-3.2-0.8-5.2,0s-3.3,0.8-4.2,0.8c-0.8,0-2-0.2-2.5-0.2
		s-2.8,0.2-2.8,0.2l-1.4-0.6c0,0,0.5-0.2,0.4-1.7C300.3,306,299.9,302.5,299.9,302.5z"/>
</g>
<g id="logotype_NE_version" class="st1">
	<text transform="matrix(1 0 0 1 25 24)" class="st2"><tspan x="0" y="0" class="st3 st4 st5">LOGOTYPE NATURE DLEVEURS - LDC</tspan><tspan x="0" y="15" class="st3 st4 st5">VERSION MONOCHROME NOIR - FOND BLANC - 00/00/00/100 </tspan></text>
</g>
</svg>
