<?xml version="1.0" encoding="utf-8"?>
<!-- Generator: Adobe Illustrator 17.1.0, SVG Export Plug-In . SVG Version: 6.00 Build 0)  -->
<!DOCTYPE svg PUBLIC "-//W3C//DTD SVG 1.1//EN" "http://www.w3.org/Graphics/SVG/1.1/DTD/svg11.dtd">
<svg version="1.1" id="Layer_1" xmlns="http://www.w3.org/2000/svg" xmlns:xlink="http://www.w3.org/1999/xlink" x="0px" y="0px"
	 viewBox="0 0 1067.3 930.9" enable-background="new 0 0 1067.3 930.9" xml:space="preserve">
<g>
	<defs>
		<rect id="SVGID_1_" width="1067.3" height="930.9"/>
	</defs>
	<clipPath id="SVGID_2_">
		<use xlink:href="#SVGID_1_"  overflow="visible"/>
	</clipPath>
	<path clip-path="url(#SVGID_2_)" fill="#E8AE4A" d="M139.3,74.4c0,0-11.5,48.5,20,77.5c-5.5,4-119.5,31.5-149.5,5
		c-11-9.5-18.5-30,10.5-28S127.3,99.4,139.3,74.4"/>
	<path clip-path="url(#SVGID_2_)" fill="#282726" d="M15.7,130.8c-0.1,0-0.2,0-0.3,0c-1.3,0-2.6,0.7-3.7,1.9
		c-1.1,1.2-1.8,2.8-2.1,4.5c-0.1,0.9-0.2,1.7-0.1,2.6c0.1,0.9,0.3,1.8,0.6,2.7c0.6,1.7,1.5,3.4,2.7,5c1.2,1.5,2.7,2.9,4.3,4.2
		c0.4,0.3,0.8,0.6,1.2,0.9c0.4,0.3,0.8,0.6,1.3,0.9c0.4,0.3,0.8,0.5,1.3,0.8l1.5,0.8l0.4,0.2c0,0,0.2,0.1,0.3,0.1l0.7,0.3
		c0.5,0.2,0.9,0.4,1.4,0.6c1,0.3,1.9,0.7,2.9,1l1.5,0.4c0.5,0.1,1,0.2,1.6,0.3l1.6,0.3l1.6,0.2c8.5,1.3,17.5,1.2,26.3,0.8
		c8.9-0.4,17.7-1.3,26.6-2.5c17.7-2.3,35.3-5.5,52.8-9.3c4.4-0.9,8.7-1.9,13.1-3l6.5-1.6c1.1-0.3,2.3-0.5,3.4-0.8
		c1.1-0.3,2.3-0.5,3.4-0.7c2.3-0.4,4.6-0.7,6.9-0.9c2.3-0.2,4.6-0.4,7-0.4c4.6-0.1,9.3,0.1,13.9,0.8c2.3,0.2,4.6,0.7,6.9,1.1
		c2.3,0.5,4.5,1,6.8,1.7c4.5,1.2,8.9,2.9,13.1,4.8l3.2,1.5c1,0.5,2.1,1.1,3.1,1.7c2.1,1.1,4,2.4,6,3.6c1,0.7,1.9,1.4,2.9,2l1.4,1
		c0.5,0.3,0.9,0.7,1.4,1.1l2.7,2.2c0.9,0.8,1.7,1.6,2.6,2.4c6.8,6.4,12.5,14,16.9,22.2c4.4,8.2,7.5,17,9.6,26
		c1,4.5,1.8,9.1,2.4,13.6c0.3,2.3,0.5,4.6,0.7,6.9l0.3,3.5c0.1,1.1,0.1,2.2,0.1,3.4l0.1,3.4l0,1.8l-0.1,1.7
		c-0.1,2.3-0.1,4.6-0.3,6.9l-0.7,6.9c-0.3,2.3-0.8,4.6-1.2,6.9c-1.8,9.1-4.8,18-8.6,26.4c-3.8,8.4-8.4,16.4-13.4,24
		c-5,7.6-10.3,15-15.6,22.2c-5.3,7.3-10.6,14.5-15.7,21.8c-5.1,7.3-9.9,14.8-14.2,22.4c-2.2,3.8-4.2,7.7-6.3,11.6
		c-1.9,4-3.8,7.9-5.4,12l-1.3,3c-0.4,1-0.8,2.1-1.2,3.1l-2.2,6.2c-1.3,4.2-2.7,8.3-3.7,12.6c-2.3,8.5-3.7,17.1-4.9,25.8l-0.6,6.6
		l-0.3,3.3c-0.1,1.1-0.1,2.2-0.2,3.3c-0.2,4.4-0.5,8.6-0.4,13.2l0,6.7l0,0.7l0,0.8l0.1,1.6l0.2,3.3c0.1,2.2,0.3,4.3,0.5,6.5
		c0.2,2.2,0.4,4.3,0.8,6.5c1.1,8.6,3.1,17.1,5.7,25.4c2.6,8.3,5.8,16.4,9.7,24.2c7.7,15.6,17.6,30.2,29,43.5
		c5.7,6.7,11.7,13.1,18.1,19.2c6.3,6.1,12.9,12,19.7,17.6c6.8,5.6,13.9,11,21,16.1c7.2,5.1,14.6,10.1,22,14.9
		c29.9,19,61.8,35.2,94.4,49.6c16.3,7.2,32.8,14,49.5,20.7l25,10c4.2,1.7,8.4,3.4,12.6,5.3c2.1,0.9,4.3,1.9,6.5,3
		c1.1,0.6,2.2,1.1,3.4,1.9l0.9,0.5c0.1,0.1,0.4,0.3,0.6,0.4l0.6,0.4c0.4,0.3,0.8,0.6,1.2,0.9c0.2,0.2,0.3,0.2,0.4,0.3l0.3,0.3
		l0.3,0.3c0,0,1,1,0.7,0.6c0.1,0.1,0.2,0.2,0.3,0.2c0.2,0.2,0.3,0.4,0.6,0.5c0.2,0.1,0.5,0.3,0.7,0.5c0.3,0.2,0.6,0.3,0.9,0.4
		l0.4,0.2c0.2,0.1,0.4,0.1,0.5,0.2l1.1,0.4c0.4,0.1,0.8,0.2,1.2,0.3c0.4,0.1,0.8,0.2,1.3,0.3c3.5,0.6,7.6,0.8,11.8,0.7
		c8.4-0.2,17.3-1.3,26.1-2.2c17.8-2,36-4,54.3-4.5c9.2-0.3,18.4-0.2,27.6,0.4c2.3,0.1,4.6,0.3,6.9,0.5c2.3,0.2,4.6,0.4,6.9,0.6
		c4.8,0.5,9.1,1.2,13.6,1.7c17.4,2.4,34.9,3.5,52.5,3.2c17.5-0.2,35-2,52.2-5c17.2-3.2,34.1-7.7,50.5-13.8
		c32.9-12,63.6-29.5,91.3-51c3.5-2.7,6.9-5.5,10.3-8.2c3.3-2.8,6.7-5.7,10-8.6c6.5-5.9,12.9-11.9,19.1-18.2
		c12.3-12.6,23.8-26,34.4-40.1c10.6-14.1,20.3-29,28.7-44.5c4.2-7.8,8-15.7,11.2-23.8c1.6-4.1,3-8.2,4.1-12.3c0.3-1,0.5-2.1,0.8-3.1
		c0.2-1,0.4-2,0.6-3.1c0.3-2,0.5-4,0.3-5.8l0-0.3c0-0.1,0-0.3,0-0.4c0-1.9,1.6-3.4,3.5-3.3h0c6.8-0.6,13.2-3.4,18.7-7.3
		c2.7-2,5.3-4.3,7.3-6.7c1-1.2,1.9-2.5,2.7-3.8c0.4-0.6,0.6-1.2,0.8-1.7c0.2-0.5,0.3-1,0.2-1.1c0,0-0.1,0-0.1,0.3
		c0,0.3,0.1,0.8,0.4,1.3c0.3,0.6,0.8,1.1,1.2,1.3c0.2,0.1,0.3,0.2,0.5,0.3c0.1,0.1,0.2,0.1,0.2,0.1c0.1,0.1-0.3,0.1-0.7,0.2
		l-2.2,0.5c-4.3,1-8.2,1.5-12.1,1.9c-7.8,0.8-15.5,1.1-23.3,1.3c-15.4,0.2-30.8-0.5-46.3-2.4c-7.7-1-15.4-2.1-23.1-3.8
		c-7.7-1.7-15.4-3.8-23.1-6.7c-1.9-0.7-3.8-1.6-5.8-2.4l-2.9-1.4l-1.4-0.7l-1.4-0.8c-1-0.5-1.9-1.1-2.9-1.7c-1-0.7-2-1.4-3.1-2.1
		c-1.1-0.8-1.7-1.3-2.5-1.9l-1.1-0.9l-0.5-0.4l-0.6-0.4l-8.8-6.9l-4.4-3.4c-1.5-1.1-3-2.2-4.5-3.3l-9-6.6c-3-2.2-6.1-4.3-9.1-6.4
		c-3.1-2.1-6.1-4.3-9.2-6.3l-9.3-6.2c-24.9-16.4-51-31-77.7-44.1c-3.3-1.7-6.7-3.2-10.1-4.8c-3.4-1.6-6.7-3.2-10.1-4.7
		c-6.8-3-13.6-6.1-20.5-8.8c-13.7-5.8-27.8-10.9-41.8-15.7c-7.1-2.3-14.1-4.7-21.3-6.8c-7.1-2.2-14.3-4.1-21.5-6.1
		c-14.4-3.7-28.9-6.9-43.6-9.5c-14.6-2.5-29.4-4.5-44.1-5.7c-14.8-1.2-29.6-1.5-44.3-0.8l-5.5,0.3l-5.5,0.5l-5.5,0.5
		c-1.8,0.2-3.6,0.5-5.5,0.7l-5.5,0.7c-1.8,0.2-3.6,0.6-5.4,0.9l-5.4,1c-1.8,0.3-3.5,0.8-5.2,1.2l-5.2,1.2c-1.8,0.5-3.6,1-5.4,1.5
		l-5.3,1.5c-1.9,0.6-3.7,1.2-5.6,1.7c-7.5,2.1-15.2,4-23.4,4.9c-4.1,0.4-8.3,0.6-12.6,0.3c-4.3-0.3-8.8-1.2-13.2-3.1
		c-4.4-1.8-8.5-5-11.6-8.8c-3-3.9-4.9-8.2-6.2-12.4c-1.2-4.2-1.8-8.4-2.1-12.5c-0.3-4.1-0.3-8.1-0.2-12c0.3-7.9,1.2-15.6,2.2-23.2
		c2.1-15.2,4.9-30,7.4-44.9c2.5-14.8,4.7-29.6,6.1-44.5c0.3-3.7,0.6-7.3,0.8-11.1c0.1-1.8,0.1-3.6,0.2-5.4c0-1.8,0.2-3.6,0-5.5
		l-0.2-5.5l0-1.4l-0.1-1.4l-0.3-2.7l-0.3-2.7c-0.1-0.9-0.2-1.8-0.3-2.7l-0.8-5.4c-0.2-1.8-0.7-3.6-1-5.4l-0.6-2.7l-0.3-1.3l-0.4-1.3
		l-1.4-5.3l-0.4-1.3l-0.4-1.3l-0.9-2.6c-1.1-3.5-2.5-6.9-3.8-10.3c-0.7-1.7-1.5-3.4-2.2-5c-0.7-1.7-1.5-3.4-2.3-5l-2.5-4.9
		c-0.9-1.6-1.8-3.2-2.7-4.8l-1.4-2.4l-1.5-2.3c-1-1.6-1.9-3.1-2.9-4.7c-4.1-6.1-8.4-12.1-13.1-17.8c-9.4-11.4-20-21.9-31.5-31.2
		c-5.8-4.7-11.7-9.1-17.9-13.2c-6.2-4.1-12.6-7.9-19.1-11.3c-6.6-3.4-13.3-6.4-20.2-8.7l-2.7-0.9l-0.7-0.2l-0.3-0.1
		c-0.1,0-0.1,0-0.2-0.1l-1.3-0.3l-2.6-0.7c-0.9-0.2-1.8-0.3-2.6-0.5c-0.9-0.2-1.8-0.3-2.6-0.5l-2.7-0.3c-1.8-0.3-3.6-0.2-5.3-0.3
		c-7.2-0.2-14.4,1-21.4,2.9c-7,1.9-13.8,4.7-20.3,8.1c-13.1,6.8-25,15.8-36.1,25.7c-11.1,10-21.3,21-30.7,32.6
		c-1.2,1.4-2.3,2.9-3.5,4.4l-0.4,0.6l-0.2,0.3l-0.2,0.3l-1,1.1l-1.9,2.3l-2.1,2.1c-0.7,0.7-1.4,1.4-2.1,2.1
		c-1.5,1.3-2.9,2.7-4.4,3.9c-6.1,4.9-12.7,9-19.6,12.6c-6.8,3.6-13.9,6.5-21.1,9.2c-7.2,2.6-14.5,4.9-21.9,6.8
		c-7.4,2-14.8,3.7-22.3,5.1C30.8,128.7,23.3,129.9,15.7,130.8L15.7,130.8z M15.1,125c7.3-0.9,14.8-2.1,22.1-3.5
		c7.3-1.4,14.6-3.1,21.9-5.1c7.2-2,14.4-4.2,21.3-6.7c7-2.6,13.8-5.5,20.4-8.9c6.5-3.4,12.8-7.4,18.4-12c1.5-1.1,2.7-2.4,4.1-3.6
		c0.7-0.6,1.3-1.3,1.9-1.9l1.9-1.9l1.7-2.1l0.9-1l0.2-0.3l0.2-0.3l0.4-0.6c1.2-1.5,2.3-3,3.5-4.5c9.5-11.9,19.9-23.2,31.2-33.5
		c11.3-10.3,23.6-19.7,37.3-27c6.8-3.6,14.1-6.7,21.6-8.8c7.5-2.1,15.4-3.5,23.4-3.4c2,0.1,4,0,6,0.3l3,0.3c1,0.1,2,0.3,2.9,0.5
		c1,0.2,2,0.3,2.9,0.5l2.9,0.7l1.5,0.4c0,0,0.3,0.1,0.4,0.1l0.3,0.1l0.7,0.2l2.7,0.8c7.5,2.4,14.6,5.5,21.4,9
		c13.8,6.9,26.7,15.4,38.7,24.9c12.1,9.5,23.2,20.2,33.2,32c5,5.9,9.6,12.1,14,18.4c1.1,1.6,2.1,3.3,3.1,4.9l1.6,2.4l1.5,2.5
		c1,1.7,2,3.3,2.9,5l2.7,5.2c0.9,1.7,1.7,3.5,2.5,5.2c0.8,1.8,1.7,3.5,2.4,5.3c1.5,3.6,3,7.2,4.2,10.9l1,2.8l0.5,1.4l0.4,1.4
		l1.6,5.6l0.4,1.4l0.3,1.4l0.7,2.9c0.4,1.9,0.9,3.8,1.2,5.7l1,5.8c0.2,1,0.3,1.9,0.4,2.9l0.3,2.9l0.3,2.9l0.2,1.5l0.1,1.5l0.3,5.9
		c0.2,2,0,3.9,0.1,5.9c0,2,0,3.9-0.1,5.9c-0.2,3.7-0.4,7.7-0.7,11.5c-1.1,15.3-3.2,30.4-5.4,45.4c-2.2,15-4.8,29.9-6.6,44.6
		c-0.9,7.4-1.6,14.7-1.7,21.9c-0.1,7.2,0.3,14.3,2.1,20.4c0.9,3,2.3,5.6,3.9,7.7c1.7,2,3.8,3.6,6.4,4.6c5.2,2.1,12,2.3,18.8,1.4
		c6.9-0.8,13.9-2.6,20.8-4.7c1.7-0.5,3.5-1.1,5.2-1.7l5.6-1.7c1.8-0.5,3.6-1.1,5.4-1.6l5.8-1.4c1.9-0.5,3.9-1,5.8-1.4l5.7-1.1
		c1.9-0.4,3.8-0.8,5.7-1.1l5.8-0.8c1.9-0.3,3.8-0.6,5.8-0.8l5.8-0.6l5.8-0.6l5.8-0.3c15.4-0.9,30.9-0.8,46.3,0.2
		c15.4,1,30.6,2.8,45.8,5.2c15.2,2.4,30.1,5.7,45,9.3c7.4,1.9,14.8,3.8,22.2,6c7.4,2,14.7,4.4,22,6.7c14.5,4.9,29,10,43.1,15.8
		c7.1,2.8,14.1,5.9,21.2,8.9c3.5,1.5,7,3.2,10.4,4.7c3.5,1.6,7,3.2,10.4,4.9l10.3,5c3.4,1.7,6.8,3.5,10.2,5.2l5.1,2.6
		c1.7,0.9,3.4,1.8,5.1,2.7l10,5.5c3.4,1.8,6.7,3.8,10,5.7l9.9,5.8l9.8,6l4.9,3c1.6,1,3.2,2.1,4.8,3.1l9.6,6.3
		c3.2,2.1,6.3,4.3,9.5,6.5c3.1,2.2,6.3,4.3,9.4,6.6l9.3,6.8c1.5,1.1,3.1,2.2,4.6,3.4l4.5,3.5l9.1,7l0.6,0.4l0.6,0.5l1.1,0.9
		c0.7,0.6,1.5,1.3,2,1.5c0.5,0.4,1.1,0.7,1.6,1.1l2,1.2l1,0.6l1.1,0.5l2.2,1.1c1.6,0.7,3.1,1.4,4.7,2c6.4,2.5,13.3,4.5,20.3,6.2
		c7,1.6,14.2,3,21.5,4.1c7.3,1.1,14.6,2,21.9,2.7c7.4,0.7,14.7,1.2,22.1,1.6c3.7,0.2,7.4,0.3,11.1,0.4c3.7,0.1,7.4,0.1,11,0
		c1.8,0,3.6-0.1,5.4-0.2c0.9-0.1,1.8-0.1,2.6-0.2l1.3-0.1l1.1-0.2l0.6-0.1l0.8-0.1l0.9-0.1c0.4-0.1,0.7-0.1,1.1-0.1
		c1.4-0.1,2.9-0.2,4.9,0.3c0.5,0.1,1.1,0.3,1.6,0.5c0.6,0.2,1.1,0.5,1.8,0.9c1.2,0.7,2.4,1.9,3.2,3.2c0.8,1.4,1.2,2.8,1.3,4
		c0.1,1.2,0,2.2-0.2,3.1c-0.3,1.8-0.9,3.1-1.5,4.3c-0.6,1.2-1.3,2.2-1.9,3.2c-1.4,1.9-2.9,3.5-4.5,5c-3.1,3-6.6,5.4-10.3,7.4
		c-7.3,4-15.7,6.3-24.1,5.6h0l3.5-4c0.8,5.4,0.1,10.1-0.7,14.8c-0.9,4.6-2.1,9.1-3.5,13.5c-2.8,8.8-6.3,17.3-10.2,25.6
		c-7.8,16.6-17.1,32.3-27.4,47.4c-10.4,15-21.8,29.3-34.2,42.8c-12.5,13.4-25.8,26-40.1,37.5c-28.6,23-60.9,41.7-95.5,54.4
		c-17.3,6.4-35.2,11.1-53.3,14.5c-18.2,3.2-36.6,5-55,5.2c-18.4,0.2-36.8-1.1-55-3.6c-4.4-0.6-9-1.3-13.1-1.7
		c-2.1-0.3-4.3-0.4-6.5-0.6c-2.2-0.2-4.3-0.4-6.5-0.5c-8.7-0.5-17.5-0.7-26.2-0.5c-8.8,0.2-17.6,0.7-26.4,1.4
		c-8.8,0.7-17.7,1.7-26.6,2.6c-9,0.9-18,1.9-27.5,2.1c-4.8,0.1-9.7,0-15-1c-0.6-0.1-1.4-0.3-2-0.5c-0.7-0.2-1.3-0.3-2-0.5l-2.1-0.7
		c-0.4-0.1-0.7-0.2-1-0.4l-1.1-0.5c-0.7-0.4-1.4-0.7-2.1-1.1c-0.7-0.5-1.4-0.9-2.1-1.4c-0.7-0.4-1.3-1.1-2-1.7l-0.9-0.9
		c-0.6-0.6,0.2,0.2,0,0.1l-0.3-0.3l-0.3-0.3c-0.1-0.1-0.3-0.2-0.3-0.2c-0.1,0-0.1,0-0.2-0.1c0,0,0,0-0.1,0c0,0,0,0-0.1-0.1l-0.6-0.3
		c-0.7-0.4-1.6-0.9-2.5-1.4c-1.8-0.9-3.7-1.8-5.7-2.7c-3.9-1.8-8-3.5-12.1-5.2L443,756.1c-16.6-6.8-33.3-13.9-49.7-21.4
		c-32.9-15-65.1-31.8-95.6-51.7c-7.6-5-15.1-10.2-22.4-15.6c-7.3-5.4-14.5-11.1-21.5-16.9c-7-5.9-13.7-12.1-20.2-18.5
		c-6.5-6.4-12.7-13.2-18.6-20.3c-11.8-14.1-22-29.6-30-46.3c-4-8.3-7.3-17-9.9-25.9c-2.6-8.9-4.7-18-5.8-27.2
		c-0.4-2.3-0.5-4.6-0.7-6.9c-0.2-2.3-0.4-4.6-0.5-6.9l-0.1-3.5l-0.1-1.7l0-0.9l0-0.9l0.1-6.7c-0.1-4.4,0.3-9.1,0.5-13.7
		c0.1-1.2,0.1-2.3,0.2-3.5l0.4-3.4l0.7-6.8c1.3-9.1,2.9-18.2,5.5-27c1.1-4.5,2.7-8.8,4-13.2l2.4-6.5c0.8-2.2,1.7-4.3,2.6-6.4
		c1.7-4.3,3.8-8.3,5.8-12.5c2.2-4,4.3-8.1,6.6-12c4.6-7.9,9.6-15.5,14.9-22.9c5.2-7.4,10.7-14.6,16-21.8
		c5.4-7.2,10.7-14.3,15.6-21.7c4.9-7.4,9.4-14.9,13.1-22.8c3.7-7.9,6.6-16.1,8.3-24.6c0.4-2.1,0.8-4.3,1.1-6.4l0.7-6.5
		c0.1-2.2,0.2-4.3,0.3-6.5l0.1-1.6l0-1.6l-0.1-3.4c0-1.1,0-2.3-0.1-3.4l-0.2-3.2c-0.2-2.2-0.3-4.3-0.6-6.5
		c-0.5-4.4-1.2-8.7-2.2-12.9c-1.9-8.5-4.8-16.8-8.8-24.4c-4-7.6-9.1-14.7-15.4-20.6c-12.4-12-29-19.4-46.1-21.7
		c-4.3-0.6-8.6-0.8-13-0.8c-4.3,0-8.7,0.4-12.9,1.2c-1.1,0.2-2.1,0.3-3.2,0.6c-1.1,0.2-2.1,0.4-3.2,0.7l-6.6,1.6
		c-4.4,1-8.8,2-13.2,3c-17.6,3.8-35.4,7-53.3,9.2c-9,1.1-18,2-27,2.5c-9.1,0.4-18.2,0.5-27.5-0.9l-1.7-0.3l-1.7-0.4
		c-0.6-0.1-1.2-0.2-1.7-0.4l-1.7-0.5c-1.2-0.3-2.3-0.7-3.5-1.1c-0.6-0.2-1.1-0.5-1.7-0.8l-0.9-0.4c-0.2-0.1-0.2-0.1-0.5-0.2
		l-0.4-0.2l-1.5-0.8c-0.5-0.3-1-0.6-1.6-1c-0.5-0.3-1-0.7-1.5-1c-0.5-0.4-1-0.7-1.5-1.1c-1.9-1.5-3.7-3.2-5.3-5.2
		c-1.6-2-2.9-4.3-3.7-6.8c-0.4-1.3-0.7-2.6-0.8-3.9c-0.1-1.3-0.1-2.7,0.1-4.1c0.4-2.7,1.6-5.4,3.5-7.5c1-1.1,2.1-2,3.5-2.7
		C12.1,125.4,13.5,125,15.1,125L15.1,125z"/>
	<path clip-path="url(#SVGID_2_)" fill="#282726" d="M196.3,48.9c0,0-1.1,2-1.9,5.3c-0.2,0.8-0.3,1.7-0.4,2.7c-0.1,1-0.1,2-0.1,3.1
		c0.1,1.1,0.2,2.2,0.5,3.4c0.3,1.2,0.8,2.4,1.5,3.5c0.7,1.1,1.8,2.2,3,2.9c1.3,0.7,2.6,1,3.8,1c0.6,0,1.2-0.1,1.8-0.1
		c0.6-0.1,1.1-0.2,1.6-0.3c1-0.3,1.9-0.6,2.6-1.1c0.4-0.2,0.8-0.4,1.1-0.6c0.3-0.2,0.6-0.4,0.9-0.6c0.3-0.2,0.5-0.4,0.8-0.6
		c0.2-0.2,0.4-0.4,0.6-0.5c0.7-0.6,1.1-1.1,1.1-1.1s-0.6,0.1-1.5,0.2c-0.5,0.1-1,0.2-1.7,0.3c-0.6,0.1-1.4,0.2-2.1,0.3
		c-0.8,0.1-1.6,0.2-2.4,0.2c-0.4,0-0.8,0-1.2,0c-0.4-0.1-0.8-0.1-1.2-0.2c-0.4-0.1-0.8-0.1-1.1-0.3c-0.4-0.1-0.6-0.3-1-0.5
		c-0.6-0.4-1.1-0.9-1.5-1.5c-0.5-0.6-0.8-1.5-1.1-2.3c-0.3-0.8-0.5-1.8-0.8-2.7c-0.2-0.9-0.4-1.8-0.5-2.7c-0.1-0.9-0.2-1.7-0.3-2.5
		C196.5,51.1,196.3,48.9,196.3,48.9"/>
	<path clip-path="url(#SVGID_2_)" fill="#282726" d="M144.1,61.5c0,0-0.1,0.4-0.4,1c-0.2,0.7-0.5,1.6-0.9,2.9
		c-0.4,1.2-0.8,2.7-1.3,4.5c-0.5,1.7-0.9,3.7-1.4,5.8c-0.4,2.1-0.9,4.5-1.2,6.9c-0.4,2.5-0.6,5.1-0.8,7.8c-0.1,2.7-0.3,5.6-0.1,8.4
		c0,1.4,0.2,2.9,0.3,4.3c0.2,1.4,0.3,2.9,0.6,4.4c0.3,1.4,0.5,2.9,0.9,4.3c0.2,0.7,0.4,1.4,0.6,2.1c0.2,0.7,0.4,1.4,0.7,2.1
		c0.4,1.4,1,2.7,1.5,4.1c0.5,1.3,1.2,2.6,1.8,3.8c0.7,1.2,1.3,2.4,2,3.6c0.7,1.1,1.5,2.2,2.2,3.3c0.8,1,1.6,2,2.3,2.9
		c0.8,0.9,1.6,1.7,2.3,2.6c0.7,0.9,1.5,1.5,2.3,2.3c0.4,0.4,0.7,0.7,1.1,1c0.3,0.3,0.7,0.7,1.1,0.9c0.7,0.6,1.4,1.1,2,1.6
		c0.6,0.5,1.2,1,1.7,1.3c2.1,1.5,3.3,2.4,3.3,2.4c1.6,1.1,3.8,0.8,4.9-0.8c1.1-1.6,0.8-3.8-0.8-4.9c-0.2-0.1-0.3-0.2-0.5-0.3
		l-0.2-0.1c0,0-0.3-0.2-0.9-0.4c-0.6-0.3-1.4-0.7-2.4-1.2c-1.1-0.5-2.2-1.4-3.6-2.2c-0.7-0.4-1.4-1-2.1-1.5
		c-0.7-0.6-1.5-1.1-2.2-1.8c-0.7-0.7-1.5-1.4-2.3-2.2c-0.7-0.8-1.5-1.6-2.2-2.5c-0.7-0.9-1.4-1.9-2.1-2.9c-0.6-1-1.3-2.1-2-3.2
		c-0.6-1.1-1.2-2.3-1.7-3.5c-0.5-1.2-1-2.4-1.4-3.7c-0.2-0.6-0.4-1.3-0.6-1.9c-0.2-0.6-0.3-1.3-0.5-2c-0.4-1.3-0.6-2.7-0.8-4
		c-0.2-1.3-0.4-2.7-0.5-4.1c-0.1-1.4-0.2-2.7-0.2-4.1c0-0.7,0-1.3,0-2c0-0.7,0.1-1.3,0.1-2c0-1.3,0.2-2.6,0.3-3.9
		c0.3-2.6,0.7-5,1.1-7.3c0.5-2.3,1-4.5,1.6-6.5c1.2-4,2.4-7.2,3.3-9.4c0.5-1.1,0.9-1.9,1.2-2.5c0.3-0.5,0.4-0.8,0.4-0.8l0-0.1
		c0.9-1.7,0.2-3.8-1.5-4.7c-1.7-0.9-3.8-0.2-4.7,1.5C144.2,61.2,144.1,61.3,144.1,61.5"/>
	<path clip-path="url(#SVGID_2_)" fill="#282726" d="M324.7,453.8c8.2-0.5,16.5-0.5,24.8-0.3c8.3,0.2,16.6,0.6,24.9,1.2
		c8.3,0.6,16.5,1.5,24.8,2.4c4.1,0.5,8.2,1.1,12.3,1.7c4.1,0.6,8.2,1.3,12.3,2c4.1,0.7,8.1,1.5,12.2,2.3c4.1,0.8,8.1,1.7,12.2,2.6
		l3,0.7l3,0.7l6,1.5c2,0.5,4,0.9,6,1.5l6,1.7l6,1.6c2,0.6,4,1.2,5.9,1.8l5.9,1.8l3,0.9l2.9,1l11.7,4.1l11.5,4.5l2.9,1.1l2.8,1.2
		l5.7,2.4l5.7,2.4c1.9,0.9,3.7,1.8,5.6,2.6l5.6,2.6c1.9,0.9,3.7,1.7,5.5,2.7l10.9,5.7c1.8,0.9,3.6,2,5.4,3l5.3,3.1l5.3,3.1
		c1.8,1,3.5,2.2,5.2,3.3l10.4,6.7l10.1,7.1l2.5,1.8c0.8,0.6,1.7,1.2,2.5,1.8l4.9,3.8l4.9,3.8c1.6,1.3,3.3,2.5,4.8,3.9
		c6.2,5.4,12.6,10.6,18.4,16.4l4.5,4.2c1.5,1.4,3,2.8,4.4,4.3l8.5,8.9l2.1,2.2c0.7,0.7,1.4,1.5,2.1,2.3l4,4.7l8,9.4l0.2,0.2
		c0.1,0.1,0.2,0.3,0.4,0.4c3.6,3.6,6.5,8.8,8.6,14.3c1.1,2.7,2,5.6,2.7,8.5c0.7,2.9,1.3,5.9,1.6,8.9c0.2,1.5,0.3,3,0.5,4.5
		c0.1,1.5,0.2,3,0.2,4.6c0.1,3.1,0,6.1-0.3,9.1c-0.5,6.1-1.6,12.1-3.5,17.9c-1.8,5.8-4.3,11.3-7.4,16.4c-3.1,5.1-6.9,9.7-11.2,13.9
		c-4.3,4.1-9.2,7.6-14.5,10.5c-5.3,2.9-11,5.2-16.9,6.9c-5.9,1.8-12,3-18.3,3.7c-1.6,0.2-3.1,0.4-4.7,0.5l-4.7,0.3
		c-3.2,0.1-6.3,0.2-9.5,0.2c-3.2,0-6.4-0.2-9.6-0.3c-1.6-0.1-3.2-0.2-4.8-0.4l-2.4-0.2l-2.4-0.3l-4.8-0.5l-4.8-0.7
		c-3.2-0.4-6.4-1-9.6-1.5c-3.2-0.6-6.4-1.2-9.6-1.9c-3.2-0.7-6.4-1.4-9.5-2.2c-6.3-1.6-12.7-3.2-19-5.1c-6.3-1.9-12.6-3.8-18.8-5.9
		l-9.4-3.2l-9.3-3.3l-0.1,0c-1.8-0.6-3.8,0.3-4.5,2.1c-0.6,1.7,0.2,3.6,1.8,4.3l9.1,4.2c3,1.4,6.1,2.7,9.2,4
		c6.2,2.6,12.4,5.1,18.7,7.4c6.3,2.3,12.7,4.5,19.2,6.4c3.2,1,6.5,1.8,9.8,2.8c3.3,0.8,6.6,1.7,9.9,2.4c3.3,0.7,6.6,1.5,10,2.1
		l5,0.9l5.1,0.8l2.5,0.4l2.6,0.3c1.7,0.2,3.4,0.4,5.1,0.6c3.4,0.3,6.9,0.6,10.3,0.7c6.9,0.3,13.9,0.1,20.8-0.6
		c7-0.7,13.9-1.9,20.8-3.8c6.9-1.9,13.6-4.5,20-7.9c6.4-3.4,12.4-7.6,17.8-12.7c5.3-5,10.1-10.7,13.9-17c3.8-6.3,6.8-12.9,8.9-19.9
		c2.2-6.9,3.5-14,4.1-21.2c0.3-3.6,0.4-7.2,0.3-10.8c0-1.8-0.2-3.6-0.3-5.4c-0.2-1.8-0.3-3.6-0.6-5.4c-0.4-3.6-1.1-7.1-2-10.6
		c-0.9-3.5-1.9-7-3.3-10.4c-2.7-6.8-6.3-13.6-12.1-19.4l0.5,0.6l-8.4-9.7l-4.2-4.8c-0.7-0.8-1.4-1.6-2.2-2.4l-2.2-2.3l-8.9-9.2
		c-1.4-1.6-3.1-3-4.6-4.4l-4.7-4.4c-6.1-6-12.8-11.3-19.3-16.9c-1.6-1.4-3.3-2.7-5-4l-5.1-3.9l-5.1-3.9c-0.8-0.7-1.7-1.3-2.6-1.9
		l-2.6-1.8l-10.5-7.3c-3.6-2.3-7.2-4.5-10.9-6.8c-1.8-1.1-3.6-2.3-5.5-3.3l-5.6-3.1l-5.6-3.1c-1.9-1-3.7-2.1-5.6-3l-11.4-5.8
		c-1.9-1-3.8-1.8-5.8-2.7l-5.8-2.6c-1.9-0.9-3.9-1.8-5.8-2.6l-5.9-2.4l-5.9-2.4l-3-1.2l-3-1.1l-12-4.3l-12.1-3.9l-3-1l-3.1-0.9
		l-6.1-1.8c-2-0.6-4.1-1.2-6.1-1.7l-6.2-1.6l-6.2-1.6c-2.1-0.5-4.1-0.9-6.2-1.4l-6.2-1.4l-3.1-0.7l-3.1-0.6
		c-4.2-0.8-8.3-1.6-12.5-2.3c-4.2-0.7-8.4-1.4-12.5-2c-4.2-0.5-8.4-1.2-12.6-1.7c-4.2-0.4-8.4-1-12.6-1.3c-4.2-0.3-8.4-0.8-12.6-1
		l-6.3-0.4c-2.1-0.1-4.2-0.2-6.3-0.3c-8.4-0.4-16.9-0.5-25.4-0.3c-8.5,0.2-16.9,0.5-25.4,1.3c-1.9,0.2-3.3,1.9-3.1,3.8
		C321.1,452.6,322.7,454,324.7,453.8L324.7,453.8z"/>
	<path clip-path="url(#SVGID_2_)" fill="#282726" d="M495.4,771.3c-2.6,4.7-5.1,9.3-7.6,14c-2.5,4.7-5,9.4-7.4,14.1l-7.3,14.2
		c-2.4,4.7-4.8,9.5-7.2,14.3l-3.6,7.1c-1.2,2.4-2.3,4.8-3.5,7.2l-7,14.3c-2.3,4.8-4.6,9.6-6.9,14.4l-6.8,14.4l2-1.8l-30.4,11.2
		l-15.2,5.7l-7.6,2.9l-7.6,2.9l-7.6,2.9c-2.5,1-5,1.9-7.5,3l-15.1,6l-7.5,3.1c-2.5,1-5,2-7.5,3.1c-5,2.1-10,4.2-14.9,6.4
		c5.2-1.5,10.4-3,15.6-4.6c2.6-0.8,5.2-1.6,7.8-2.4l7.7-2.4l15.4-5c2.6-0.8,5.1-1.7,7.7-2.5l7.7-2.6l7.7-2.6l7.7-2.6l15.3-5.3
		l30.6-10.8c0.9-0.3,1.6-1,2-1.8l6.7-14.5c2.2-4.8,4.5-9.6,6.7-14.5l6.5-14.5c1.1-2.4,2.2-4.8,3.3-7.3l3.2-7.3
		c2.1-4.9,4.3-9.7,6.4-14.6l6.2-14.7c2-4.9,4.1-9.8,6.1-14.8C491.5,781.3,493.4,776.3,495.4,771.3"/>
	<path clip-path="url(#SVGID_2_)" fill="#282726" d="M479.3,899.9c-3.1-1.4-6.1-2.7-9.2-4c-3.1-1.3-6.2-2.6-9.3-3.9
		c-1.6-0.6-3.1-1.3-4.7-1.9l-4.7-1.9c-3.1-1.2-6.2-2.5-9.4-3.7c-0.3-0.1-0.6-0.2-1-0.1l-0.2,0c-6.1,0.6-12.2,1-18.3,1.7
		c-6.1,0.6-12.2,1.2-18.3,1.9l-9.1,1.1l-9.1,1.1c-6.1,0.8-12.2,1.5-18.2,2.4l-9.1,1.3l-9.1,1.3c-3,0.4-6.1,1-9.1,1.4l-9.1,1.4
		l-9.1,1.6c-3,0.5-6,1.1-9.1,1.6c-3,0.6-6,1.1-9,1.7c-3,0.6-6,1.2-9,1.9c3.1-0.1,6.2-0.2,9.2-0.3c3.1-0.1,6.1-0.3,9.2-0.5
		c3.1-0.2,6.1-0.4,9.2-0.6l9.2-0.7l9.2-0.8c3.1-0.3,6.1-0.5,9.2-0.8l9.2-0.9l9.1-1c6.1-0.7,12.2-1.4,18.3-2.1l9.1-1.1l9.1-1.2
		c6.1-0.8,12.1-1.7,18.2-2.6c6.1-0.9,12.1-1.9,18.2-2.8l-1.1-0.1c3.2,1,6.4,1.9,9.6,2.8l4.8,1.4c1.6,0.5,3.2,0.9,4.8,1.3
		c3.2,0.9,6.5,1.8,9.7,2.6C472.7,898.3,476,899.1,479.3,899.9"/>
	<path clip-path="url(#SVGID_2_)" fill="#282726" d="M434.3,885.9c0,0-0.4-0.1-1.1-0.2c-0.7-0.1-1.7-0.2-3-0.4
		c-2.6-0.3-6.3-0.6-10.8-0.9c-4.5-0.2-9.7-0.4-15.3-0.4c-2.8,0-5.7,0-8.6,0.1c-2.9,0-5.9,0.2-8.9,0.3c-3,0.1-5.9,0.3-8.9,0.5
		c-2.9,0.2-5.8,0.4-8.6,0.7c-5.6,0.5-10.7,1.1-15.2,1.7c-4.4,0.6-8.1,1.3-10.7,1.8c-1.3,0.2-2.3,0.5-3,0.6c-0.7,0.2-1.1,0.2-1.1,0.2
		s0.4,0.1,1.1,0.2c0.7,0.1,1.7,0.2,3,0.4c2.6,0.3,6.3,0.6,10.8,0.9c4.5,0.3,9.7,0.4,15.3,0.4c2.8,0,5.7,0,8.6-0.1
		c2.9,0,5.9-0.2,8.9-0.3c3-0.1,5.9-0.3,8.9-0.5c2.9-0.2,5.8-0.4,8.6-0.7c5.6-0.5,10.7-1.1,15.2-1.7c4.4-0.6,8.1-1.3,10.7-1.8
		c1.3-0.2,2.3-0.5,3-0.6C433.9,886,434.3,885.9,434.3,885.9"/>
	<path clip-path="url(#SVGID_2_)" fill="#282726" d="M662.3,772.9c-0.4,2.4-0.8,4.8-1.1,7.2c-0.3,2.4-0.7,4.8-1,7.2l-1,7.2
		c-0.3,2.4-0.6,4.8-0.9,7.2l-0.9,7.2l-0.8,7.2c-0.5,4.8-1,9.6-1.5,14.5l2-2.7l-7.5,2.6l-7.5,2.6c-5,1.8-10,3.6-14.9,5.4l-7.4,2.8
		l-7.4,2.8c-4.9,1.9-9.9,3.8-14.8,5.7l-7.4,2.9c-2.5,1-4.9,2-7.3,3l-7.3,3c-2.5,1-4.9,2-7.3,3.1L561,865l-7.3,3.2
		c-2.4,1.1-4.8,2.2-7.2,3.3c-2.4,1.1-4.8,2.2-7.2,3.4c2.6-0.7,5.1-1.4,7.7-2.1c2.5-0.7,5.1-1.4,7.6-2.2l7.6-2.3l7.6-2.4
		c2.5-0.8,5.1-1.6,7.6-2.4l7.5-2.5c2.5-0.8,5-1.7,7.5-2.5l7.5-2.6c5-1.7,10-3.5,15-5.3l7.5-2.7l7.4-2.7c5-1.8,9.9-3.7,14.8-5.6
		l7.4-2.9l7.4-2.9l0.1,0c1.1-0.4,1.8-1.5,1.9-2.6c0.2-4.8,0.4-9.7,0.5-14.5l0.2-7.3l0.1-7.3c0-2.4,0.1-4.8,0.1-7.3l0-7.3
		c0-2.4,0-4.9,0-7.3C662.4,777.8,662.3,775.3,662.3,772.9"/>
	<path clip-path="url(#SVGID_2_)" fill="#282726" d="M658.3,830.9c0,0-0.6,0.1-1.7,0.2c-1.1,0.1-2.8,0.3-4.9,0.6
		c-2.1,0.3-4.6,0.6-7.5,1c-2.9,0.4-6.2,0.9-9.7,1.5c-3.6,0.6-7.4,1.2-11.5,1.9c-4.1,0.7-8.4,1.4-12.8,2.3c-4.4,0.8-9,1.7-13.6,2.7
		c-4.6,0.9-9.3,2-14,3c-4.7,1-9.4,2.1-14,3.2c-4.6,1.1-9.1,2.2-13.5,3.3c-4.4,1.1-8.6,2.2-12.6,3.3c-4,1-7.8,2.1-11.2,3.1
		c-3.5,1-6.6,1.9-9.5,2.8c-2.8,0.8-5.2,1.6-7.3,2.3c-2,0.6-3.6,1.2-4.7,1.5c-1.1,0.4-1.6,0.6-1.6,0.6s0.6-0.1,1.7-0.2
		c1.1-0.1,2.8-0.3,4.9-0.6c2.1-0.3,4.6-0.6,7.5-1c2.9-0.4,6.2-0.9,9.7-1.5c3.6-0.6,7.4-1.2,11.5-1.9c4.1-0.7,8.4-1.5,12.8-2.3
		c4.4-0.8,9-1.7,13.6-2.7c4.6-0.9,9.3-2,14-3c4.7-1,9.4-2.1,14-3.2c4.6-1.1,9.1-2.2,13.5-3.3c4.4-1.1,8.6-2.2,12.6-3.3
		c4-1,7.8-2.1,11.2-3.1c3.5-1,6.6-1.9,9.5-2.8c2.8-0.8,5.2-1.6,7.3-2.3c2-0.6,3.6-1.2,4.7-1.5C657.7,831.1,658.3,830.9,658.3,830.9"
		/>
	<path clip-path="url(#SVGID_2_)" fill="#282726" d="M680.3,840.9c-0.6-0.3-1.2-0.6-1.8-0.9c-0.6-0.3-1.2-0.6-1.9-0.8l-3.7-1.6
		c-2.5-1-5-2.1-7.5-3c-2.5-1-5-1.9-7.6-2.8c-1.3-0.5-2.5-0.9-3.8-1.4l-3.8-1.3c-0.2-0.1-0.5-0.1-0.7-0.1l-0.3,0
		c-3.2,0.1-6.3,0.2-9.5,0.3c-3.2,0.2-6.3,0.3-9.5,0.5c-3.2,0.2-6.3,0.4-9.5,0.6l-4.7,0.4c-1.6,0.1-3.2,0.3-4.7,0.4
		c-3.2,0.3-6.3,0.6-9.5,1c-3.2,0.4-6.3,0.8-9.5,1.3c-3.2,0.5-6.3,1-9.4,1.5c-1.6,0.3-3.1,0.6-4.7,0.9c-1.6,0.3-3.1,0.7-4.7,1
		c1.6,0.2,3.2,0.3,4.8,0.4c1.6,0.1,3.2,0.2,4.8,0.3c3.2,0.1,6.4,0.2,9.6,0.3c3.2,0,6.4,0,9.5,0c3.2,0,6.4-0.1,9.5-0.2
		c1.6-0.1,3.2-0.1,4.8-0.2l4.8-0.2c3.2-0.2,6.3-0.4,9.5-0.6c3.2-0.2,6.3-0.5,9.5-0.8c3.2-0.3,6.3-0.6,9.5-1l-1-0.1l3.9,0.9
		c1.3,0.3,2.6,0.6,3.9,0.9c2.6,0.6,5.3,1.1,7.9,1.7c2.6,0.5,5.3,1,8,1.5l4,0.6c0.7,0.1,1.3,0.2,2,0.3
		C678.9,840.7,679.6,840.8,680.3,840.9"/>
	<path clip-path="url(#SVGID_2_)" fill="#282726" d="M260.3,288.8c0,0,0.5,0.3,1.3,0.8c0.9,0.5,2.1,1.2,3.7,2
		c3.2,1.7,7.7,4,13.3,6.4c2.8,1.2,5.8,2.5,9.1,3.7c3.3,1.3,6.7,2.5,10.4,3.6c3.6,1.1,7.4,2.3,11.3,3.3c3.9,1,7.8,1.9,11.8,2.6
		c2,0.3,4,0.7,6,1c2,0.3,4,0.6,6,0.8c4,0.4,7.9,0.7,11.7,0.9c3.8,0.2,7.5,0.2,11,0.1c1.8-0.1,3.5-0.1,5.1-0.2
		c1.6-0.1,3.2-0.3,4.8-0.4c1.5-0.1,3-0.3,4.4-0.5c1.4-0.2,2.7-0.3,3.9-0.5c2.5-0.4,4.6-0.7,6.4-1.1c3.5-0.7,5.5-1.1,5.5-1.1
		c1.9-0.4,3.1-2.2,2.7-4.1c-0.4-1.9-2.2-3.1-4.1-2.7c-0.1,0-0.1,0-0.2,0l-0.2,0c0,0-1.9,0.5-5.2,1.3c-1.7,0.4-3.7,0.8-6,1.3
		c-1.2,0.3-2.4,0.4-3.7,0.6c-1.3,0.2-2.7,0.5-4.2,0.6c-1.5,0.2-3,0.3-4.6,0.5c-1.6,0.1-3.2,0.2-4.9,0.3c-3.4,0.2-6.9,0.3-10.6,0.2
		c-3.7,0-7.5-0.3-11.3-0.7c-1.9-0.2-3.9-0.5-5.8-0.7c-1.9-0.3-3.9-0.6-5.8-0.9c-3.9-0.7-7.7-1.5-11.5-2.5c-3.8-0.9-7.4-2.1-10.9-3.2
		c-3.5-1.2-6.9-2.4-10-3.7c-3.1-1.3-6-2.6-8.7-3.9c-2.7-1.3-5.1-2.5-7.1-3.7c-2.1-1.2-3.9-2.2-5.3-3.1c-1.5-0.9-2.6-1.6-3.3-2.1
		c-0.7-0.5-1.1-0.8-1.1-0.8l-0.1-0.1c-1.6-1.1-3.8-0.7-4.9,0.8c-1.1,1.6-0.7,3.8,0.8,4.9C260.2,288.7,260.2,288.8,260.3,288.8"/>
	<path clip-path="url(#SVGID_2_)" fill="#282726" d="M247.7,314.2c0,0,0.5,0.4,1.6,1.2c1,0.7,2.5,1.5,4.3,2.5c0.9,0.5,2,0.9,3.1,1.4
		c0.6,0.2,1.1,0.5,1.8,0.7c0.6,0.2,1.3,0.4,1.9,0.7c2.6,1,5.6,1.8,8.8,2.8c3.3,0.7,6.8,1.7,10.6,2.3c0.9,0.2,1.9,0.4,2.9,0.5
		c1,0.2,1.9,0.4,2.9,0.5c2,0.3,4,0.6,6.1,0.9c1,0.2,2.1,0.3,3.1,0.5c1,0.1,2.1,0.2,3.2,0.3c2.1,0.2,4.3,0.5,6.4,0.7
		c1.1,0.1,2.2,0.2,3.3,0.3c1.1,0.1,2.2,0.1,3.3,0.2c2.2,0.2,4.4,0.3,6.6,0.5c4.4,0.2,8.9,0.3,13.2,0.4c2.2,0.1,4.4,0.1,6.5,0
		c2.1,0,4.3,0,6.3,0c2.1,0,4.1,0,6.1,0c2-0.1,4-0.1,5.9-0.2c3.8-0.1,7.4-0.2,10.8-0.3c1.7,0,3.3-0.1,4.8-0.2c1.5-0.1,3-0.1,4.3-0.2
		c2.7-0.1,5.1-0.2,7-0.3c3.9-0.1,6.2-0.1,6.2-0.1c1.9,0,3.5-1.6,3.5-3.6c0-1.9-1.6-3.5-3.6-3.5c-0.2,0-0.5,0-0.7,0.1l-0.1,0
		c0,0-2.2,0.5-5.9,1.2c-1.9,0.4-4.2,0.8-6.9,1.3c-1.3,0.2-2.7,0.5-4.2,0.8c-1.5,0.3-3.1,0.6-4.7,0.8c-3.3,0.4-6.8,0.9-10.6,1.4
		c-1.9,0.2-3.8,0.5-5.8,0.7c-2,0.1-4,0.3-6.1,0.4c-2.1,0.1-4.2,0.3-6.3,0.4c-2.1,0.1-4.3,0.3-6.5,0.3c-2.2,0-4.4,0-6.6,0.1
		c-2.2,0-4.4,0.1-6.6,0c-4.4-0.2-8.9-0.3-13.2-0.7c-2.2-0.2-4.3-0.5-6.4-0.7c-1.1-0.1-2.1-0.2-3.2-0.4c-1-0.1-2.1-0.4-3.1-0.6
		c-2-0.4-4-0.8-6-1.1c-2-0.4-3.8-1-5.7-1.5c-0.9-0.3-1.8-0.5-2.7-0.8c-0.9-0.2-1.7-0.6-2.6-0.9c-1.7-0.6-3.3-1.2-4.8-1.8
		c-1.5-0.7-2.9-1.4-4.3-2c-1.4-0.6-2.5-1.4-3.7-2c-0.6-0.3-1.1-0.7-1.6-1c-0.5-0.3-1-0.7-1.4-1c-0.9-0.7-1.8-1.2-2.4-1.9
		c-0.7-0.6-1.3-1.1-1.8-1.6c-0.4-0.5-0.9-0.9-1.1-1.3c-0.2-0.3-0.4-0.5-0.5-0.7c-0.1-0.2-0.2-0.3-0.2-0.3l-0.1-0.1
		c-1.1-1.6-3.3-2.1-4.9-1c-1.6,1.1-2.1,3.3-1,4.9C247.1,313.7,247.4,314,247.7,314.2"/>
	<path clip-path="url(#SVGID_2_)" fill="#D9D9D8" d="M439.3,452.2c0,0,140.7-8.7,310.7,98.7c72.7,63.3-54,138.7-54,138.7
		c10.7-28,22.7-73.3-30.7-122.7C611.9,517.6,525.3,464.2,439.3,452.2"/>
	<path clip-path="url(#SVGID_2_)" fill="#282726" d="M128.8,98.4c0,0,0,0.2-0.1,0.6c0,0.2-0.1,0.4-0.2,0.6c-0.1,0.2-0.2,0.5-0.3,0.7
		c-0.1,0.2-0.3,0.5-0.5,0.7c-0.2,0.2-0.4,0.4-0.8,0.6c-0.3,0.2-0.6,0.3-0.9,0.5c-0.3,0.1-0.7,0.2-1.1,0.4c-0.4,0.1-0.8,0.2-1.1,0.3
		c-0.4,0.1-0.8,0.1-1.2,0.2c-0.4,0.1-0.8,0.1-1.1,0.2c-0.4,0.1-0.7,0.1-1,0.2c-1.3,0.2-2.2,0.5-2.2,0.5s0.8,0.4,2.2,0.7
		c0.3,0.1,0.7,0.1,1.1,0.1c0.4,0,0.8,0.1,1.2,0.1c0.4,0,0.9,0,1.3-0.1c0.5-0.1,0.9-0.2,1.4-0.3c0.5-0.2,0.9-0.3,1.3-0.6
		c0.4-0.3,0.8-0.5,1.2-0.9c0.4-0.3,0.6-0.7,0.9-1.1c0.1-0.2,0.2-0.4,0.3-0.6c0.1-0.2,0.1-0.4,0.1-0.6c0.1-0.4,0.1-0.7,0-1
		c0-0.3-0.1-0.5-0.2-0.7C128.9,98.6,128.8,98.4,128.8,98.4"/>
	<path clip-path="url(#SVGID_2_)" fill="#D9D9D8" d="M297.3,329.6c0,0-130.7,215.3,0.7,336.7c-27.3-16.7-132.7-79.3-118.7-203.3
		c12-75.3,32-92.7,71.3-147.3C264.6,322.9,297.3,329.6,297.3,329.6"/>
</g>
</svg>
