<?xml version="1.0" encoding="utf-8"?>
<!-- Generator: Adobe Illustrator 17.1.0, SVG Export Plug-In . SVG Version: 6.00 Build 0)  -->
<!DOCTYPE svg PUBLIC "-//W3C//DTD SVG 1.1//EN" "http://www.w3.org/Graphics/SVG/1.1/DTD/svg11.dtd">
<svg version="1.1" id="Layer_1" xmlns="http://www.w3.org/2000/svg" xmlns:xlink="http://www.w3.org/1999/xlink" x="0px" y="0px"
	 viewBox="0 0 1067.3 930.9" enable-background="new 0 0 1067.3 930.9" xml:space="preserve">
<g>
	<defs>
		<rect id="SVGID_1_" width="1067.3" height="930.9"/>
	</defs>
	<clipPath id="SVGID_2_">
		<use xlink:href="#SVGID_1_"  overflow="visible"/>
	</clipPath>
	<path clip-path="url(#SVGID_2_)" fill="#E8AE4A" d="M928,74.4c0,0,11.5,48.5-20,77.5c5.5,4,119.5,31.5,149.5,5
		c11-9.5,18.5-30-10.5-28S940,99.4,928,74.4"/>
	<path clip-path="url(#SVGID_2_)" fill="#282726" d="M1051.6,130.8c-7.7-0.9-15.1-2.1-22.6-3.5c-7.5-1.4-14.9-3.1-22.3-5.1
		c-7.4-2-14.7-4.2-21.9-6.8c-7.2-2.6-14.3-5.6-21.1-9.2c-6.8-3.5-13.5-7.6-19.6-12.6c-1.6-1.2-3-2.6-4.4-3.9
		c-0.7-0.6-1.4-1.4-2.1-2.1l-2.1-2.1l-1.9-2.3l-1-1.1l-0.2-0.3l-0.2-0.3l-0.4-0.6c-1.2-1.5-2.3-3-3.5-4.4
		C918.9,65,908.8,53.9,897.7,44c-11.1-9.9-23.1-18.9-36.1-25.7c-6.5-3.4-13.3-6.2-20.3-8.1c-7-1.9-14.2-3-21.4-2.9
		c-1.8,0.1-3.6,0.1-5.3,0.3l-2.7,0.3c-0.9,0.1-1.8,0.3-2.6,0.5c-0.9,0.2-1.8,0.3-2.6,0.5L804,9.6l-1.3,0.3c-0.2,0-0.1,0-0.2,0.1
		l-0.3,0.1l-0.7,0.2l-2.7,0.9c-6.9,2.3-13.6,5.3-20.2,8.7c-6.6,3.4-12.9,7.2-19.1,11.3c-6.2,4.1-12.1,8.6-17.9,13.2
		C730,53.8,719.4,64.3,710,75.7c-4.7,5.7-9.1,11.7-13.1,17.8c-1,1.5-2,3.1-2.9,4.7l-1.5,2.3l-1.4,2.4c-0.9,1.6-1.8,3.2-2.7,4.8
		l-2.5,4.9c-0.9,1.6-1.6,3.3-2.3,5c-0.7,1.7-1.5,3.3-2.2,5c-1.3,3.4-2.7,6.8-3.8,10.3l-0.9,2.6l-0.4,1.3l-0.4,1.3l-1.4,5.3l-0.4,1.3
		l-0.3,1.3l-0.6,2.7c-0.4,1.8-0.8,3.6-1,5.4l-0.8,5.4c-0.2,0.9-0.3,1.8-0.3,2.7l-0.3,2.7l-0.3,2.7l-0.1,1.4l0,1.4l-0.2,5.5
		c-0.1,1.8,0,3.6,0,5.5c0.1,1.8,0.1,3.6,0.2,5.4c0.2,3.8,0.5,7.4,0.8,11.1c1.3,14.8,3.6,29.6,6.1,44.5c2.5,14.8,5.3,29.7,7.4,44.9
		c1,7.6,1.9,15.3,2.2,23.2c0.1,4,0.1,8-0.2,12c-0.3,4.1-0.9,8.3-2.1,12.5c-1.2,4.2-3.2,8.5-6.2,12.4c-3,3.8-7.2,7-11.6,8.8
		c-4.4,1.9-8.9,2.8-13.2,3.1c-4.3,0.3-8.5,0.1-12.6-0.3c-8.2-0.9-15.9-2.7-23.4-4.9c-1.9-0.5-3.7-1.1-5.6-1.7l-5.3-1.5
		c-1.8-0.5-3.6-1.1-5.4-1.5l-5.2-1.2c-1.7-0.4-3.5-0.8-5.2-1.2l-5.4-1c-1.8-0.3-3.6-0.7-5.4-0.9l-5.5-0.7c-1.8-0.2-3.6-0.5-5.5-0.7
		l-5.5-0.5l-5.5-0.5l-5.5-0.3c-14.7-0.7-29.5-0.4-44.3,0.8c-14.8,1.2-29.5,3.2-44.1,5.7c-14.6,2.6-29.2,5.8-43.6,9.5
		c-7.2,2-14.4,3.8-21.5,6.1c-7.2,2.1-14.2,4.4-21.3,6.8c-14.1,4.8-28.1,9.9-41.8,15.7c-6.9,2.7-13.7,5.9-20.5,8.8
		c-3.4,1.5-6.8,3.1-10.1,4.7c-3.4,1.6-6.8,3.1-10.1,4.8c-26.8,13.1-52.8,27.7-77.7,44.1l-9.3,6.2c-3.1,2-6.1,4.2-9.2,6.3
		c-3,2.2-6.1,4.2-9.1,6.4l-9,6.6c-1.5,1.1-3,2.2-4.5,3.3l-4.4,3.4l-8.8,6.9l-0.6,0.4l-0.5,0.4l-1.1,0.9c-0.8,0.6-1.3,1.1-2.5,1.9
		c-1,0.7-2,1.4-3.1,2.1c-1,0.6-1.9,1.1-2.9,1.7l-1.4,0.8l-1.4,0.7L147,499c-1.9,0.8-3.8,1.7-5.8,2.4c-7.7,3-15.4,5.1-23.1,6.7
		c-7.7,1.7-15.4,2.9-23.1,3.8c-15.4,1.9-30.8,2.6-46.3,2.4c-7.7-0.1-15.4-0.4-23.3-1.3c-3.9-0.4-7.8-0.9-12.1-1.9l-2.2-0.5
		c-0.5-0.1-0.9-0.1-0.7-0.2c0,0,0.1,0,0.2-0.1c0.1-0.1,0.3-0.1,0.5-0.3c0.4-0.2,0.9-0.7,1.2-1.3c0.3-0.6,0.4-1.1,0.4-1.3
		c0-0.3,0-0.3-0.1-0.3c0,0.1,0,0.6,0.2,1.1c0.2,0.5,0.5,1.1,0.8,1.7c0.7,1.2,1.6,2.5,2.7,3.8c2.1,2.5,4.6,4.7,7.3,6.7
		c5.5,3.9,11.9,6.7,18.7,7.3h0c1.9,0,3.5,1.4,3.5,3.3c0,0.1,0,0.3,0,0.4l0,0.3c-0.2,1.7,0.1,3.8,0.3,5.8c0.2,1,0.3,2,0.6,3.1
		c0.3,1,0.4,2.1,0.8,3.1c1.1,4.1,2.5,8.2,4.1,12.3c3.2,8.1,7,16.1,11.2,23.8c8.4,15.5,18.1,30.3,28.7,44.5
		c10.6,14.1,22.1,27.5,34.4,40.1c6.2,6.3,12.5,12.4,19.1,18.2c3.3,3,6.6,5.8,10,8.6c3.4,2.8,6.8,5.6,10.3,8.2
		c27.7,21.5,58.5,39.1,91.3,51c16.4,6.1,33.3,10.6,50.5,13.8c17.2,3.1,34.7,4.8,52.2,5c17.5,0.2,35-0.9,52.5-3.2
		c4.5-0.6,8.8-1.3,13.6-1.7c2.3-0.3,4.6-0.5,6.9-0.6c2.3-0.2,4.6-0.4,6.9-0.5c9.2-0.5,18.4-0.6,27.6-0.4c18.4,0.5,36.5,2.5,54.3,4.5
		c8.9,1,17.7,2,26.1,2.2c4.2,0.1,8.3,0,11.8-0.7c0.5-0.1,0.8-0.2,1.3-0.3c0.4-0.1,0.8-0.2,1.2-0.3l1.1-0.4c0.2-0.1,0.4-0.1,0.5-0.2
		l0.4-0.2c0.3-0.2,0.6-0.3,0.9-0.4c0.2-0.2,0.5-0.3,0.7-0.5c0.3-0.1,0.4-0.4,0.6-0.5c0.1-0.1,0.2-0.2,0.3-0.2
		c-0.4,0.4,0.6-0.6,0.7-0.6l0.3-0.3l0.3-0.3c0.1-0.1,0.1-0.1,0.4-0.3c0.4-0.3,0.8-0.6,1.2-0.9l0.6-0.4c0.2-0.1,0.5-0.3,0.6-0.4
		l0.9-0.5c1.2-0.7,2.3-1.3,3.4-1.9c2.2-1.1,4.3-2.1,6.5-3c4.2-1.9,8.4-3.6,12.6-5.3l25-10c16.6-6.6,33.2-13.4,49.5-20.7
		c32.6-14.4,64.4-30.6,94.4-49.6c7.5-4.8,14.8-9.7,22-14.9c7.2-5.2,14.2-10.5,21-16.1c6.8-5.6,13.4-11.5,19.7-17.6
		c6.4-6.1,12.4-12.5,18.1-19.2c11.4-13.3,21.3-27.9,29-43.5c3.9-7.8,7-15.9,9.7-24.2c2.6-8.3,4.6-16.8,5.7-25.4
		c0.4-2.1,0.5-4.3,0.8-6.5c0.2-2.2,0.5-4.3,0.5-6.5l0.2-3.3l0.1-1.6l0-0.8l0-0.7l0-6.7c0.1-4.6-0.2-8.8-0.4-13.2
		c-0.1-1.1-0.1-2.2-0.2-3.3l-0.3-3.3l-0.6-6.6c-1.2-8.7-2.6-17.4-4.9-25.8c-1-4.3-2.4-8.4-3.7-12.6l-2.2-6.2c-0.4-1-0.7-2.1-1.2-3.1
		l-1.3-3c-1.6-4.1-3.6-8-5.4-12c-2-3.9-4-7.8-6.3-11.6c-4.4-7.7-9.2-15.1-14.2-22.4c-5.1-7.3-10.4-14.5-15.7-21.8
		c-5.3-7.3-10.6-14.6-15.6-22.2c-5-7.6-9.6-15.6-13.4-24c-3.8-8.4-6.8-17.3-8.6-26.4c-0.4-2.3-0.9-4.6-1.2-6.9l-0.7-6.9
		c-0.1-2.3-0.2-4.6-0.3-6.9l-0.1-1.7l0-1.8l0.1-3.4c0-1.1,0-2.2,0.1-3.4l0.3-3.5c0.2-2.3,0.3-4.6,0.7-6.9c0.5-4.6,1.3-9.1,2.4-13.6
		c2.1-9,5.2-17.8,9.6-26c4.4-8.2,10-15.8,16.9-22.2c0.9-0.8,1.7-1.6,2.6-2.4l2.7-2.2c0.5-0.4,0.9-0.8,1.4-1.1l1.4-1
		c1-0.7,1.9-1.4,2.9-2c2-1.2,3.9-2.6,6-3.6c1-0.6,2-1.1,3.1-1.7l3.2-1.5c4.2-1.9,8.6-3.6,13.1-4.8c2.2-0.7,4.5-1.1,6.8-1.7
		c2.3-0.4,4.6-0.9,6.9-1.1c4.6-0.6,9.2-0.8,13.9-0.8c2.3,0,4.6,0.2,7,0.4c2.3,0.3,4.6,0.5,6.9,0.9c1.1,0.2,2.3,0.4,3.4,0.7
		c1.1,0.3,2.3,0.5,3.4,0.8l6.5,1.6c4.3,1,8.7,2,13.1,3c17.5,3.8,35.1,7,52.8,9.3c8.8,1.1,17.7,2,26.6,2.5c8.8,0.4,17.8,0.5,26.3-0.8
		l1.6-0.2l1.6-0.3c0.5-0.1,1-0.2,1.6-0.3l1.5-0.4c1-0.2,2-0.6,2.9-1c0.5-0.1,0.9-0.4,1.4-0.6l0.7-0.3c0.1,0,0.3-0.1,0.3-0.1l0.4-0.2
		l1.5-0.8c0.5-0.3,0.9-0.5,1.3-0.8c0.4-0.3,0.8-0.6,1.3-0.9c0.4-0.3,0.9-0.6,1.2-0.9c1.6-1.3,3.1-2.7,4.3-4.2c1.2-1.5,2.2-3.2,2.7-5
		c0.3-0.9,0.5-1.8,0.6-2.7c0.1-0.9,0.1-1.8-0.1-2.6c-0.2-1.7-1-3.3-2.1-4.5c-1.1-1.2-2.4-1.9-3.7-1.9
		C1051.8,130.8,1051.7,130.8,1051.6,130.8L1051.6,130.8z M1052.3,125c1.5,0.1,2.9,0.4,4.2,1.1c1.4,0.7,2.5,1.6,3.5,2.7
		c1.9,2.2,3.1,4.8,3.5,7.5c0.2,1.4,0.3,2.7,0.1,4.1c-0.1,1.3-0.4,2.7-0.8,3.9c-0.8,2.5-2.1,4.8-3.7,6.8c-1.6,2-3.4,3.7-5.3,5.2
		c-0.5,0.4-1,0.7-1.5,1.1c-0.5,0.4-1,0.7-1.5,1c-0.5,0.3-1.1,0.7-1.6,1l-1.5,0.8l-0.4,0.2c-0.3,0.1-0.3,0.2-0.5,0.2l-0.9,0.4
		c-0.6,0.2-1.1,0.6-1.7,0.8c-1.2,0.4-2.3,0.9-3.5,1.1l-1.7,0.5c-0.6,0.1-1.2,0.2-1.7,0.4l-1.7,0.4l-1.7,0.3
		c-9.2,1.4-18.4,1.3-27.5,0.9c-9.1-0.4-18.1-1.3-27-2.5c-17.9-2.3-35.7-5.5-53.3-9.2c-4.4-0.9-8.8-1.9-13.2-3l-6.6-1.6
		c-1.1-0.3-2.1-0.5-3.2-0.7c-1-0.3-2.1-0.4-3.2-0.6c-4.3-0.7-8.6-1.1-12.9-1.2c-4.3-0.1-8.7,0.2-13,0.8
		c-17.2,2.3-33.8,9.6-46.1,21.7c-6.3,5.9-11.4,13-15.4,20.6c-4,7.6-6.9,15.9-8.8,24.4c-0.9,4.3-1.7,8.6-2.2,12.9
		c-0.3,2.2-0.4,4.3-0.6,6.5l-0.2,3.2c0,1.1-0.1,2.2-0.1,3.4l-0.1,3.4l0,1.6l0.1,1.6c0.1,2.2,0.1,4.3,0.3,6.5l0.7,6.5
		c0.3,2.1,0.8,4.3,1.1,6.4c1.8,8.5,4.6,16.7,8.3,24.6c3.7,7.9,8.2,15.5,13.1,22.8c4.9,7.4,10.2,14.5,15.6,21.7
		c5.4,7.2,10.8,14.4,16,21.8c5.3,7.4,10.3,15,14.9,22.9c2.4,3.9,4.5,8,6.6,12c2,4.1,4.1,8.2,5.8,12.5c0.9,2.1,1.8,4.2,2.6,6.4
		l2.4,6.5c1.4,4.4,3,8.7,4,13.2c2.5,8.9,4.1,17.9,5.5,27l0.7,6.8l0.4,3.4c0.1,1.1,0.1,2.3,0.2,3.5c0.2,4.6,0.6,9.3,0.5,13.7l0.1,6.7
		l0,0.9l0,0.9l-0.1,1.7l-0.1,3.5c0,2.3-0.3,4.6-0.5,6.9c-0.2,2.3-0.4,4.6-0.7,6.9c-1.1,9.2-3.1,18.3-5.8,27.2
		c-2.7,8.9-5.9,17.6-9.9,25.9c-8,16.7-18.2,32.2-30,46.3c-5.9,7.1-12.1,13.8-18.6,20.3c-6.5,6.4-13.3,12.6-20.2,18.5
		c-7,5.9-14.2,11.5-21.5,16.9c-7.3,5.4-14.8,10.6-22.4,15.6c-30.5,19.9-62.7,36.6-95.6,51.7c-16.4,7.5-33.1,14.6-49.7,21.4
		l-24.9,10.2c-4.1,1.7-8.2,3.4-12.1,5.2c-2,0.9-3.9,1.8-5.7,2.7c-0.9,0.5-1.8,0.9-2.5,1.4l-0.6,0.3c-0.1,0.1-0.1,0.1-0.1,0.1
		c0,0,0,0-0.1,0c0,0-0.1,0-0.2,0.1c0,0-0.2,0.1-0.3,0.2l-0.3,0.3l-0.3,0.3c-0.2,0.2,0.6-0.6,0-0.1l-0.9,0.9c-0.6,0.6-1.3,1.2-2,1.7
		c-0.7,0.5-1.4,0.9-2.1,1.4c-0.7,0.4-1.4,0.7-2.1,1.1l-1.1,0.5c-0.4,0.2-0.7,0.3-1,0.4l-2.1,0.7c-0.7,0.2-1.4,0.4-2,0.5
		c-0.7,0.2-1.4,0.4-2,0.5c-5.3,1-10.2,1.1-15,1c-9.5-0.2-18.6-1.2-27.5-2.1c-9-0.9-17.8-1.9-26.6-2.6c-8.8-0.7-17.6-1.2-26.4-1.4
		c-8.8-0.2-17.5,0-26.2,0.5c-2.2,0.1-4.4,0.3-6.5,0.5c-2.2,0.2-4.3,0.4-6.5,0.6c-4.2,0.4-8.7,1.1-13.1,1.7
		c-18.2,2.5-36.6,3.8-55,3.6c-18.4-0.2-36.8-2-55-5.2c-18.1-3.4-36-8.1-53.3-14.5c-34.7-12.6-67-31.3-95.5-54.4
		c-14.3-11.5-27.7-24.1-40.1-37.5c-12.4-13.5-23.9-27.7-34.2-42.8c-10.4-15-19.7-30.8-27.4-47.4c-3.9-8.3-7.3-16.8-10.2-25.6
		c-1.4-4.4-2.6-8.9-3.5-13.5c-0.8-4.6-1.6-9.4-0.7-14.8l3.5,4h0c-8.4,0.6-16.8-1.6-24.1-5.6c-3.7-2-7.1-4.5-10.3-7.4
		c-1.6-1.5-3.1-3.1-4.5-5c-0.7-1-1.3-2-1.9-3.2c-0.6-1.2-1.2-2.5-1.5-4.3c-0.2-0.9-0.3-1.9-0.2-3.1c0.1-1.2,0.5-2.6,1.3-4
		c0.8-1.4,2-2.5,3.2-3.2c0.6-0.4,1.2-0.6,1.8-0.9c0.5-0.2,1.1-0.4,1.6-0.5c2-0.4,3.5-0.4,4.9-0.3c0.3,0,0.7,0.1,1.1,0.1l0.9,0.1
		l0.8,0.1l0.6,0.1l1.1,0.2l1.3,0.1c0.8,0.1,1.7,0.1,2.6,0.2c1.8,0.1,3.5,0.2,5.4,0.2c3.6,0.1,7.3,0.1,11,0c3.7,0,7.4-0.2,11.1-0.4
		c7.4-0.3,14.8-0.9,22.1-1.6c7.4-0.7,14.7-1.6,21.9-2.7c7.3-1.1,14.4-2.5,21.5-4.1c7-1.7,13.9-3.7,20.3-6.2c1.6-0.6,3.1-1.3,4.7-2
		l2.2-1.1l1.1-0.5l1-0.6l2-1.2c0.5-0.4,1.1-0.7,1.6-1.1c0.5-0.2,1.3-1,2-1.5l1.1-0.9l0.6-0.5l0.6-0.4l9.1-7l4.5-3.5
		c1.5-1.2,3.1-2.3,4.6-3.4l9.3-6.8c3.1-2.3,6.3-4.4,9.4-6.6c3.2-2.2,6.3-4.4,9.5-6.5l9.6-6.3c1.6-1,3.2-2.1,4.8-3.1l4.9-3l9.8-6
		l9.9-5.8c3.3-1.9,6.6-3.9,10-5.7l10-5.5c1.7-0.9,3.4-1.8,5.1-2.7l5.1-2.6c3.4-1.7,6.8-3.6,10.2-5.2l10.3-5
		c3.4-1.7,6.9-3.3,10.4-4.9c3.5-1.6,6.9-3.2,10.4-4.7c7-3,14-6.1,21.2-8.9c14.2-5.8,28.6-10.9,43.1-15.8c7.3-2.3,14.6-4.7,22-6.7
		c7.3-2.2,14.8-4,22.2-6c14.9-3.6,29.9-6.8,45-9.3c15.2-2.4,30.4-4.2,45.8-5.2c15.4-1,30.8-1.1,46.3-0.2l5.8,0.3l5.8,0.6l5.8,0.6
		c1.9,0.2,3.8,0.5,5.8,0.8l5.8,0.8c1.9,0.3,3.8,0.7,5.7,1.1l5.7,1.1c1.9,0.4,3.9,0.9,5.8,1.4l5.8,1.4c1.8,0.5,3.6,1.1,5.4,1.6
		l5.6,1.7c1.7,0.6,3.5,1.2,5.2,1.7c6.9,2.1,14,3.9,20.8,4.7c6.8,0.8,13.7,0.7,18.8-1.4c2.6-1,4.6-2.6,6.4-4.6c1.7-2.1,3-4.7,3.9-7.7
		c1.8-6.1,2.3-13.2,2.1-20.4c-0.1-7.2-0.9-14.6-1.7-21.9c-1.8-14.8-4.4-29.7-6.6-44.6c-2.3-15-4.3-30.1-5.4-45.4
		c-0.3-3.8-0.5-7.7-0.7-11.5c-0.1-2-0.1-3.9-0.1-5.9c0-2-0.1-3.9,0.1-5.9l0.3-5.9l0.1-1.5l0.2-1.5l0.3-2.9l0.3-2.9
		c0.1-1,0.2-1.9,0.4-2.9l1-5.8c0.3-1.9,0.8-3.8,1.2-5.7l0.7-2.9l0.3-1.4l0.4-1.4l1.6-5.6l0.4-1.4l0.5-1.4l1-2.8
		c1.2-3.7,2.7-7.3,4.2-10.9c0.7-1.8,1.6-3.5,2.4-5.3c0.8-1.8,1.6-3.5,2.5-5.2l2.7-5.2c0.9-1.7,1.9-3.4,2.9-5l1.5-2.5l1.6-2.4
		c1.1-1.6,2.1-3.3,3.1-4.9c4.4-6.4,9-12.6,14-18.4c10-11.7,21.2-22.4,33.2-32c12.1-9.5,25-18,38.7-24.9c6.9-3.5,14-6.5,21.4-9
		l2.7-0.8l0.7-0.2l0.3-0.1c0.1,0,0.4-0.1,0.4-0.1l1.5-0.4l2.9-0.7c1-0.2,2-0.4,2.9-0.5c1-0.2,2-0.4,2.9-0.5l3-0.3c2-0.3,4-0.2,6-0.3
		c8-0.1,15.8,1.2,23.4,3.4c7.5,2.2,14.8,5.2,21.6,8.8c13.7,7.3,26,16.7,37.3,27c11.3,10.3,21.6,21.6,31.2,33.5
		c1.2,1.5,2.4,3,3.5,4.5l0.4,0.6l0.2,0.3l0.2,0.3l0.9,1l1.7,2.1l1.9,1.9c0.6,0.6,1.2,1.3,1.9,1.9c1.4,1.2,2.6,2.5,4.1,3.6
		c5.6,4.6,11.9,8.5,18.4,12c6.6,3.4,13.4,6.3,20.4,8.9c7,2.6,14.1,4.8,21.3,6.7c7.2,2,14.5,3.6,21.9,5.1
		C1037.5,122.9,1044.9,124.1,1052.3,125L1052.3,125z"/>
	<path clip-path="url(#SVGID_2_)" fill="#282726" d="M871,48.9c0,0,1.1,2,1.9,5.3c0.2,0.8,0.3,1.7,0.4,2.7c0.1,1,0.1,2,0.1,3.1
		c-0.1,1.1-0.2,2.2-0.5,3.4c-0.3,1.2-0.8,2.4-1.5,3.5c-0.7,1.1-1.8,2.2-3,2.9c-1.3,0.7-2.6,1-3.8,1c-0.6,0-1.2-0.1-1.8-0.1
		c-0.6-0.1-1.1-0.2-1.6-0.3c-1-0.3-1.9-0.6-2.6-1.1c-0.4-0.2-0.8-0.4-1.1-0.6c-0.3-0.2-0.6-0.4-0.9-0.6c-0.3-0.2-0.5-0.4-0.8-0.6
		c-0.2-0.2-0.4-0.4-0.6-0.5c-0.7-0.6-1.1-1.1-1.1-1.1s0.6,0.1,1.5,0.2c0.5,0.1,1,0.2,1.7,0.3c0.6,0.1,1.4,0.2,2.1,0.3
		c0.8,0.1,1.6,0.2,2.4,0.2c0.4,0,0.8,0,1.2,0c0.4-0.1,0.8-0.1,1.2-0.2c0.4-0.1,0.8-0.1,1.1-0.3c0.4-0.1,0.6-0.3,1-0.5
		c0.6-0.4,1.1-0.9,1.5-1.5c0.5-0.6,0.8-1.5,1.1-2.3c0.3-0.8,0.5-1.8,0.8-2.7c0.2-0.9,0.4-1.8,0.5-2.7c0.1-0.9,0.2-1.7,0.3-2.5
		C870.8,51.1,871,48.9,871,48.9"/>
	<path clip-path="url(#SVGID_2_)" fill="#282726" d="M923.2,61.5c0,0,0.1,0.4,0.4,1c0.2,0.7,0.5,1.6,0.9,2.9
		c0.4,1.2,0.8,2.7,1.3,4.5c0.5,1.7,0.9,3.7,1.4,5.8c0.4,2.1,0.9,4.5,1.2,6.9c0.4,2.5,0.6,5.1,0.8,7.8c0.1,2.7,0.3,5.6,0.1,8.4
		c0,1.4-0.2,2.9-0.3,4.3c-0.2,1.4-0.3,2.9-0.6,4.4c-0.3,1.4-0.5,2.9-0.9,4.3c-0.2,0.7-0.4,1.4-0.6,2.1c-0.2,0.7-0.4,1.4-0.7,2.1
		c-0.4,1.4-1,2.7-1.5,4.1c-0.5,1.3-1.2,2.6-1.8,3.8c-0.7,1.2-1.3,2.4-2,3.6c-0.7,1.1-1.5,2.2-2.2,3.3c-0.8,1-1.6,2-2.3,2.9
		c-0.8,0.9-1.6,1.7-2.3,2.6c-0.7,0.9-1.5,1.5-2.3,2.3c-0.4,0.4-0.7,0.7-1.1,1c-0.3,0.3-0.7,0.7-1.1,0.9c-0.7,0.6-1.4,1.1-2,1.6
		c-0.6,0.5-1.2,1-1.7,1.3c-2.1,1.5-3.3,2.4-3.3,2.4c-1.6,1.1-3.8,0.8-4.9-0.8c-1.1-1.6-0.8-3.8,0.8-4.9c0.2-0.1,0.3-0.2,0.5-0.3
		l0.2-0.1c0,0,0.3-0.2,0.9-0.4c0.6-0.3,1.4-0.7,2.4-1.2c1.1-0.5,2.2-1.4,3.6-2.2c0.7-0.4,1.4-1,2.1-1.5c0.7-0.6,1.5-1.1,2.2-1.8
		c0.7-0.7,1.5-1.4,2.3-2.2c0.7-0.8,1.5-1.6,2.2-2.5c0.7-0.9,1.4-1.9,2.1-2.9c0.6-1,1.3-2.1,2-3.2c0.6-1.1,1.2-2.3,1.7-3.5
		c0.5-1.2,1-2.4,1.4-3.7c0.2-0.6,0.4-1.3,0.6-1.9c0.2-0.6,0.3-1.3,0.5-2c0.4-1.3,0.6-2.7,0.8-4c0.2-1.3,0.4-2.7,0.5-4.1
		c0.1-1.4,0.2-2.7,0.2-4.1c0-0.7,0-1.3,0-2c0-0.7-0.1-1.3-0.1-2c0-1.3-0.2-2.6-0.3-3.9c-0.3-2.6-0.7-5-1.1-7.3
		c-0.5-2.3-1-4.5-1.6-6.5c-1.2-4-2.4-7.2-3.3-9.4c-0.5-1.1-0.9-1.9-1.2-2.5c-0.3-0.5-0.4-0.8-0.4-0.8l0-0.1
		c-0.9-1.7-0.2-3.8,1.5-4.7c1.7-0.9,3.8-0.2,4.7,1.5C923.1,61.2,923.2,61.3,923.2,61.5"/>
	<path clip-path="url(#SVGID_2_)" fill="#282726" d="M742.6,453.8c-8.2-0.5-16.5-0.5-24.8-0.3c-8.3,0.2-16.6,0.6-24.9,1.2
		c-8.3,0.6-16.5,1.5-24.8,2.4c-4.1,0.5-8.2,1.1-12.3,1.7c-4.1,0.6-8.2,1.3-12.3,2c-4.1,0.7-8.1,1.5-12.2,2.3
		c-4.1,0.8-8.1,1.7-12.2,2.6l-3,0.7l-3,0.7l-6,1.5c-2,0.5-4,0.9-6,1.5l-6,1.7l-6,1.6c-2,0.6-4,1.2-5.9,1.8l-5.9,1.8l-3,0.9l-2.9,1
		l-11.7,4.1l-11.5,4.5l-2.9,1.1l-2.8,1.2l-5.7,2.4l-5.7,2.4c-1.9,0.9-3.7,1.8-5.6,2.6l-5.6,2.6c-1.9,0.9-3.7,1.7-5.5,2.7l-10.9,5.7
		c-1.8,0.9-3.6,2-5.4,3l-5.3,3.1l-5.3,3.1c-1.8,1-3.5,2.2-5.2,3.3l-10.4,6.7l-10.1,7.1l-2.5,1.8c-0.8,0.6-1.7,1.2-2.5,1.8l-4.9,3.8
		l-4.9,3.8c-1.6,1.3-3.3,2.5-4.8,3.9c-6.2,5.4-12.6,10.6-18.4,16.4l-4.5,4.2c-1.5,1.4-3,2.8-4.4,4.3l-8.5,8.9l-2.1,2.2
		c-0.7,0.7-1.4,1.5-2.1,2.3l-4,4.7l-8,9.4l-0.2,0.2c-0.1,0.1-0.2,0.3-0.4,0.4c-3.6,3.6-6.5,8.8-8.6,14.3c-1.1,2.7-2,5.6-2.7,8.5
		c-0.7,2.9-1.3,5.9-1.6,8.9c-0.2,1.5-0.3,3-0.5,4.5c-0.1,1.5-0.2,3-0.2,4.6c-0.1,3.1,0,6.1,0.3,9.1c0.5,6.1,1.6,12.1,3.5,17.9
		c1.8,5.8,4.3,11.3,7.4,16.4c3.1,5.1,6.9,9.7,11.2,13.9c4.3,4.1,9.2,7.6,14.5,10.5c5.3,2.9,11,5.2,16.9,6.9c5.9,1.8,12,3,18.3,3.7
		c1.6,0.2,3.1,0.4,4.7,0.5l4.7,0.3c3.2,0.1,6.3,0.2,9.5,0.2c3.2,0,6.4-0.2,9.6-0.3c1.6-0.1,3.2-0.2,4.8-0.4l2.4-0.2l2.4-0.3l4.8-0.5
		l4.8-0.7c3.2-0.4,6.4-1,9.6-1.5c3.2-0.6,6.4-1.2,9.6-1.9c3.2-0.7,6.4-1.4,9.5-2.2c6.3-1.6,12.7-3.2,19-5.1
		c6.3-1.9,12.6-3.8,18.8-5.9l9.4-3.2l9.3-3.3l0.1,0c1.8-0.6,3.8,0.3,4.5,2.1c0.6,1.7-0.2,3.6-1.8,4.3l-9.1,4.2c-3,1.4-6.1,2.7-9.2,4
		c-6.2,2.6-12.4,5.1-18.7,7.4c-6.3,2.3-12.7,4.5-19.2,6.4c-3.2,1-6.5,1.8-9.8,2.8c-3.3,0.8-6.6,1.7-9.9,2.4c-3.3,0.7-6.6,1.5-10,2.1
		l-5,0.9l-5.1,0.8l-2.5,0.4l-2.6,0.3c-1.7,0.2-3.4,0.4-5.1,0.6c-3.4,0.3-6.9,0.6-10.3,0.7c-6.9,0.3-13.9,0.1-20.8-0.6
		c-7-0.7-13.9-1.9-20.8-3.8c-6.9-1.9-13.6-4.5-20-7.9c-6.4-3.4-12.4-7.6-17.8-12.7c-5.3-5-10.1-10.7-13.9-17
		c-3.8-6.3-6.8-12.9-8.9-19.9c-2.2-6.9-3.5-14-4.1-21.2c-0.3-3.6-0.4-7.2-0.3-10.8c0-1.8,0.2-3.6,0.3-5.4c0.2-1.8,0.3-3.6,0.6-5.4
		c0.4-3.6,1.1-7.1,2-10.6c0.9-3.5,1.9-7,3.3-10.4c2.7-6.8,6.3-13.6,12.1-19.4l-0.5,0.6l8.4-9.7l4.2-4.8c0.7-0.8,1.4-1.6,2.2-2.4
		l2.2-2.3l8.9-9.2c1.4-1.6,3.1-3,4.6-4.4l4.7-4.4c6.1-6,12.8-11.3,19.3-16.9c1.6-1.4,3.3-2.7,5-4l5.1-3.9l5.1-3.9
		c0.8-0.7,1.7-1.3,2.6-1.9l2.6-1.8l10.5-7.3c3.6-2.3,7.2-4.5,10.9-6.8c1.8-1.1,3.6-2.3,5.5-3.3l5.6-3.1l5.6-3.1c1.9-1,3.7-2.1,5.6-3
		l11.4-5.8c1.9-1,3.8-1.8,5.8-2.7l5.8-2.6c1.9-0.9,3.9-1.8,5.8-2.6l5.9-2.4l5.9-2.4l3-1.2l3-1.1l12-4.3l12.1-3.9l3-1l3.1-0.9
		l6.1-1.8c2-0.6,4.1-1.2,6.1-1.7l6.2-1.6l6.2-1.6c2.1-0.5,4.1-0.9,6.2-1.4l6.2-1.4l3.1-0.7l3.1-0.6c4.2-0.8,8.3-1.6,12.5-2.3
		c4.2-0.7,8.4-1.4,12.5-2c4.2-0.5,8.4-1.2,12.6-1.7c4.2-0.4,8.4-1,12.6-1.3c4.2-0.3,8.4-0.8,12.6-1l6.3-0.4c2.1-0.1,4.2-0.2,6.3-0.3
		c8.4-0.4,16.9-0.5,25.4-0.3c8.5,0.2,16.9,0.5,25.4,1.3c1.9,0.2,3.3,1.9,3.1,3.8C746.2,452.6,744.6,454,742.6,453.8L742.6,453.8z"/>
	<path clip-path="url(#SVGID_2_)" fill="#282726" d="M572,771.3c2.6,4.7,5.1,9.3,7.6,14c2.5,4.7,5,9.4,7.4,14.1l7.3,14.2
		c2.4,4.7,4.8,9.5,7.2,14.3l3.6,7.1c1.2,2.4,2.3,4.8,3.5,7.2l7,14.3c2.3,4.8,4.6,9.6,6.9,14.4l6.8,14.4l-2-1.8l30.4,11.2l15.2,5.7
		l7.6,2.9l7.6,2.9l7.6,2.9c2.5,1,5,1.9,7.5,3l15.1,6l7.5,3.1c2.5,1,5,2,7.5,3.1c5,2.1,10,4.2,14.9,6.4c-5.2-1.5-10.4-3-15.6-4.6
		c-2.6-0.8-5.2-1.6-7.8-2.4l-7.7-2.4l-15.4-5c-2.6-0.8-5.1-1.7-7.7-2.5l-7.7-2.6l-7.7-2.6l-7.7-2.6l-15.3-5.3l-30.6-10.8
		c-0.9-0.3-1.6-1-2-1.8l-6.7-14.5c-2.2-4.8-4.5-9.6-6.7-14.5l-6.5-14.5c-1.1-2.4-2.2-4.8-3.3-7.3l-3.2-7.3
		c-2.1-4.9-4.3-9.7-6.4-14.6l-6.2-14.7c-2-4.9-4.1-9.8-6.1-14.8C575.9,781.3,573.9,776.3,572,771.3"/>
	<path clip-path="url(#SVGID_2_)" fill="#282726" d="M588,899.9c3.1-1.4,6.1-2.7,9.2-4c3.1-1.3,6.2-2.6,9.3-3.9
		c1.6-0.6,3.1-1.3,4.7-1.9l4.7-1.9c3.1-1.2,6.2-2.5,9.4-3.7c0.3-0.1,0.6-0.2,1-0.1l0.2,0c6.1,0.6,12.2,1,18.3,1.7
		c6.1,0.6,12.2,1.2,18.3,1.9l9.1,1.1l9.1,1.1c6.1,0.8,12.2,1.5,18.2,2.4l9.1,1.3l9.1,1.3c3,0.4,6.1,1,9.1,1.4l9.1,1.4l9.1,1.6
		c3,0.5,6,1.1,9.1,1.6c3,0.6,6,1.1,9,1.7c3,0.6,6,1.2,9,1.9c-3.1-0.1-6.2-0.2-9.2-0.3c-3.1-0.1-6.1-0.3-9.2-0.5
		c-3.1-0.2-6.1-0.4-9.2-0.6l-9.2-0.7l-9.2-0.8c-3.1-0.3-6.1-0.5-9.2-0.8l-9.2-0.9l-9.1-1c-6.1-0.7-12.2-1.4-18.3-2.1l-9.1-1.1
		l-9.1-1.2c-6.1-0.8-12.1-1.7-18.2-2.6c-6.1-0.9-12.1-1.9-18.2-2.8l1.1-0.1c-3.2,1-6.4,1.9-9.6,2.8l-4.8,1.4
		c-1.6,0.5-3.2,0.9-4.8,1.3c-3.2,0.9-6.5,1.8-9.7,2.6C594.6,898.3,591.3,899.1,588,899.9"/>
	<path clip-path="url(#SVGID_2_)" fill="#282726" d="M633,885.9c0,0,0.4-0.1,1.1-0.2c0.7-0.1,1.7-0.2,3-0.4
		c2.6-0.3,6.3-0.6,10.8-0.9c4.5-0.2,9.7-0.4,15.3-0.4c2.8,0,5.7,0,8.6,0.1c2.9,0,5.9,0.2,8.9,0.3c3,0.1,5.9,0.3,8.9,0.5
		c2.9,0.2,5.8,0.4,8.6,0.7c5.6,0.5,10.7,1.1,15.2,1.7c4.4,0.6,8.1,1.3,10.7,1.8c1.3,0.2,2.3,0.5,3,0.6c0.7,0.2,1.1,0.2,1.1,0.2
		s-0.4,0.1-1.1,0.2c-0.7,0.1-1.7,0.2-3,0.4c-2.6,0.3-6.3,0.6-10.8,0.9c-4.5,0.3-9.7,0.4-15.3,0.4c-2.8,0-5.7,0-8.6-0.1
		c-2.9,0-5.9-0.2-8.9-0.3c-3-0.1-5.9-0.3-8.9-0.5c-2.9-0.2-5.8-0.4-8.6-0.7c-5.6-0.5-10.7-1.1-15.2-1.7c-4.4-0.6-8.1-1.3-10.7-1.8
		c-1.3-0.2-2.3-0.5-3-0.6C633.4,886,633,885.9,633,885.9"/>
	<path clip-path="url(#SVGID_2_)" fill="#282726" d="M405,772.9c0.4,2.4,0.8,4.8,1.1,7.2c0.3,2.4,0.7,4.8,1,7.2l1,7.2
		c0.3,2.4,0.6,4.8,0.9,7.2l0.9,7.2l0.8,7.2c0.5,4.8,1,9.6,1.5,14.5l-2-2.7l7.5,2.6l7.5,2.6c5,1.8,10,3.6,14.9,5.4l7.4,2.8l7.4,2.8
		c4.9,1.9,9.9,3.8,14.8,5.7l7.4,2.9c2.5,1,4.9,2,7.4,3l7.3,3c2.5,1,4.9,2,7.3,3.1l7.3,3.1l7.3,3.2c2.4,1.1,4.8,2.2,7.2,3.3
		c2.4,1.1,4.8,2.2,7.2,3.4c-2.6-0.7-5.1-1.4-7.7-2.1c-2.5-0.7-5.1-1.4-7.6-2.2l-7.6-2.3l-7.6-2.4c-2.5-0.8-5.1-1.6-7.6-2.4l-7.5-2.5
		c-2.5-0.8-5-1.7-7.5-2.5l-7.5-2.6c-5-1.7-10-3.5-15-5.3l-7.5-2.7l-7.4-2.7c-5-1.8-9.9-3.7-14.8-5.6l-7.4-2.9l-7.4-2.9l-0.1,0
		c-1.1-0.4-1.8-1.5-1.9-2.6c-0.2-4.8-0.4-9.7-0.5-14.5l-0.2-7.3L405,802c0-2.4-0.1-4.8-0.1-7.3l0-7.3c0-2.4,0-4.9,0-7.3
		C404.9,777.8,405,775.3,405,772.9"/>
	<path clip-path="url(#SVGID_2_)" fill="#282726" d="M409,830.9c0,0,0.6,0.1,1.7,0.2c1.1,0.1,2.8,0.3,4.9,0.6c2.1,0.3,4.6,0.6,7.5,1
		c2.9,0.4,6.2,0.9,9.7,1.5c3.6,0.6,7.4,1.2,11.5,1.9c4.1,0.7,8.4,1.4,12.8,2.3c4.4,0.8,9,1.7,13.6,2.7c4.6,0.9,9.3,2,14,3
		c4.7,1,9.4,2.1,14,3.2c4.6,1.1,9.1,2.2,13.5,3.3c4.4,1.1,8.6,2.2,12.6,3.3c4,1,7.8,2.1,11.2,3.1c3.5,1,6.6,1.9,9.5,2.8
		c2.8,0.8,5.2,1.6,7.3,2.3c2,0.6,3.6,1.2,4.7,1.5c1.1,0.4,1.6,0.6,1.6,0.6s-0.6-0.1-1.7-0.2c-1.1-0.1-2.8-0.3-4.9-0.6
		c-2.1-0.3-4.6-0.6-7.5-1c-2.9-0.4-6.2-0.9-9.7-1.5c-3.6-0.6-7.4-1.2-11.5-1.9c-4.1-0.7-8.4-1.5-12.8-2.3c-4.4-0.8-9-1.7-13.6-2.7
		c-4.6-0.9-9.3-2-14-3c-4.7-1-9.4-2.1-14-3.2c-4.6-1.1-9.1-2.2-13.5-3.3c-4.4-1.1-8.6-2.2-12.6-3.3c-4-1-7.8-2.1-11.2-3.1
		c-3.5-1-6.6-1.9-9.5-2.8c-2.8-0.8-5.2-1.6-7.3-2.3c-2-0.6-3.6-1.2-4.7-1.5C409.6,831.1,409,830.9,409,830.9"/>
	<path clip-path="url(#SVGID_2_)" fill="#282726" d="M387,840.9c0.6-0.3,1.2-0.6,1.8-0.9c0.6-0.3,1.2-0.6,1.9-0.8l3.7-1.6
		c2.5-1,5-2.1,7.5-3c2.5-1,5-1.9,7.6-2.8c1.3-0.5,2.5-0.9,3.8-1.4l3.8-1.3c0.2-0.1,0.5-0.1,0.7-0.1l0.3,0c3.2,0.1,6.3,0.2,9.5,0.3
		c3.2,0.2,6.3,0.3,9.5,0.5c3.2,0.2,6.3,0.4,9.5,0.6l4.7,0.4c1.6,0.1,3.2,0.3,4.7,0.4c3.2,0.3,6.3,0.6,9.5,1c3.2,0.4,6.3,0.8,9.5,1.3
		c3.2,0.5,6.3,1,9.4,1.5c1.6,0.3,3.1,0.6,4.7,0.9c1.6,0.3,3.1,0.7,4.7,1c-1.6,0.2-3.2,0.3-4.8,0.4c-1.6,0.1-3.2,0.2-4.8,0.3
		c-3.2,0.1-6.4,0.2-9.6,0.3c-3.2,0-6.4,0-9.5,0c-3.2,0-6.4-0.1-9.5-0.2c-1.6-0.1-3.2-0.1-4.8-0.2l-4.8-0.2c-3.2-0.2-6.3-0.4-9.5-0.6
		c-3.2-0.2-6.3-0.5-9.5-0.8c-3.2-0.3-6.3-0.6-9.5-1l1-0.1l-3.9,0.9c-1.3,0.3-2.6,0.6-3.9,0.9c-2.6,0.6-5.3,1.1-7.9,1.7
		c-2.6,0.5-5.3,1-8,1.5l-4,0.6c-0.7,0.1-1.3,0.2-2,0.3C388.4,840.7,387.7,840.8,387,840.9"/>
	<path clip-path="url(#SVGID_2_)" fill="#282726" d="M807,288.8c0,0-0.5,0.3-1.3,0.8c-0.9,0.5-2.1,1.2-3.7,2
		c-3.2,1.7-7.7,4-13.3,6.4c-2.8,1.2-5.8,2.5-9.1,3.7c-3.3,1.3-6.7,2.5-10.4,3.6c-3.6,1.1-7.4,2.3-11.3,3.3c-3.9,1-7.8,1.9-11.8,2.6
		c-2,0.3-4,0.7-6,1c-2,0.3-4,0.6-6,0.8c-4,0.4-7.9,0.7-11.7,0.9c-3.8,0.2-7.5,0.2-11,0.1c-1.8-0.1-3.5-0.1-5.1-0.2
		c-1.6-0.1-3.2-0.3-4.8-0.4c-1.5-0.1-3-0.3-4.4-0.5c-1.4-0.2-2.7-0.3-3.9-0.5c-2.5-0.4-4.6-0.7-6.4-1.1c-3.5-0.7-5.5-1.1-5.5-1.1
		c-1.9-0.4-3.1-2.2-2.7-4.1c0.4-1.9,2.2-3.1,4.1-2.7c0.1,0,0.1,0,0.2,0l0.2,0c0,0,1.9,0.5,5.2,1.3c1.7,0.4,3.7,0.8,6,1.3
		c1.2,0.3,2.4,0.4,3.7,0.6c1.3,0.2,2.7,0.5,4.2,0.6c1.5,0.2,3,0.3,4.6,0.5c1.6,0.1,3.2,0.2,4.9,0.3c3.4,0.2,6.9,0.3,10.6,0.2
		c3.7,0,7.5-0.3,11.3-0.7c1.9-0.2,3.9-0.5,5.8-0.7c1.9-0.3,3.9-0.6,5.8-0.9c3.9-0.7,7.7-1.5,11.5-2.5c3.8-0.9,7.4-2.1,10.9-3.2
		c3.5-1.2,6.9-2.4,10-3.7c3.1-1.3,6-2.6,8.7-3.9c2.7-1.3,5.1-2.5,7.1-3.7c2.1-1.2,3.9-2.2,5.3-3.1c1.5-0.9,2.6-1.6,3.3-2.1
		c0.7-0.5,1.1-0.8,1.1-0.8l0.1-0.1c1.6-1.1,3.8-0.7,4.9,0.8c1.1,1.6,0.7,3.8-0.8,4.9C807.2,288.7,807.1,288.8,807,288.8"/>
	<path clip-path="url(#SVGID_2_)" fill="#282726" d="M819.6,314.2c0,0-0.5,0.4-1.6,1.2c-1,0.7-2.5,1.5-4.3,2.5
		c-0.9,0.5-2,0.9-3.1,1.4c-0.6,0.2-1.1,0.5-1.8,0.7c-0.6,0.2-1.3,0.4-1.9,0.7c-2.6,1-5.6,1.8-8.8,2.8c-3.3,0.7-6.8,1.7-10.6,2.3
		c-0.9,0.2-1.9,0.4-2.9,0.5c-1,0.2-1.9,0.4-2.9,0.5c-2,0.3-4,0.6-6.1,0.9c-1,0.2-2.1,0.3-3.1,0.5c-1,0.1-2.1,0.2-3.2,0.3
		c-2.1,0.2-4.3,0.5-6.4,0.7c-1.1,0.1-2.2,0.2-3.3,0.3c-1.1,0.1-2.2,0.1-3.3,0.2c-2.2,0.2-4.4,0.3-6.6,0.5c-4.4,0.2-8.9,0.3-13.2,0.4
		c-2.2,0.1-4.4,0.1-6.5,0c-2.1,0-4.3,0-6.3,0c-2.1,0-4.1,0-6.1,0c-2-0.1-4-0.1-5.9-0.2c-3.8-0.1-7.4-0.2-10.8-0.3
		c-1.7,0-3.3-0.1-4.8-0.2c-1.5-0.1-3-0.1-4.3-0.2c-2.7-0.1-5.1-0.2-7-0.3c-3.9-0.1-6.2-0.1-6.2-0.1c-1.9,0-3.5-1.6-3.5-3.6
		c0-1.9,1.6-3.5,3.6-3.5c0.2,0,0.5,0,0.7,0.1l0.1,0c0,0,2.2,0.5,5.9,1.2c1.9,0.4,4.2,0.8,6.9,1.3c1.3,0.2,2.7,0.5,4.2,0.8
		c1.5,0.3,3.1,0.6,4.7,0.8c3.3,0.4,6.8,0.9,10.6,1.4c1.9,0.2,3.8,0.5,5.8,0.7c2,0.1,4,0.3,6.1,0.4c2.1,0.1,4.2,0.3,6.3,0.4
		c2.1,0.1,4.3,0.3,6.5,0.3c2.2,0,4.4,0,6.6,0.1c2.2,0,4.4,0.1,6.6,0c4.4-0.2,8.9-0.3,13.2-0.7c2.2-0.2,4.3-0.5,6.4-0.7
		c1.1-0.1,2.1-0.2,3.2-0.4c1-0.1,2.1-0.4,3.1-0.6c2-0.4,4-0.8,6-1.1c2-0.4,3.8-1,5.7-1.5c0.9-0.3,1.8-0.5,2.7-0.8
		c0.9-0.2,1.7-0.6,2.6-0.9c1.7-0.6,3.3-1.2,4.8-1.8c1.5-0.7,2.9-1.4,4.3-2c1.4-0.6,2.5-1.4,3.7-2c0.6-0.3,1.1-0.7,1.6-1
		c0.5-0.3,1-0.7,1.4-1c0.9-0.7,1.8-1.2,2.4-1.9c0.7-0.6,1.3-1.1,1.8-1.6c0.4-0.5,0.9-0.9,1.1-1.3c0.2-0.3,0.4-0.5,0.5-0.7
		c0.1-0.2,0.2-0.3,0.2-0.3l0.1-0.1c1.1-1.6,3.3-2.1,4.9-1c1.6,1.1,2.1,3.3,1,4.9C820.3,313.7,820,314,819.6,314.2"/>
	<path clip-path="url(#SVGID_2_)" fill="#D9D9D8" d="M628,452.2c0,0-140.7-8.7-310.7,98.7c-72.7,63.3,54,138.7,54,138.7
		c-10.7-28-22.7-73.3,30.7-122.7C455.4,517.6,542,464.2,628,452.2"/>
	<path clip-path="url(#SVGID_2_)" fill="#282726" d="M938.5,98.4c0,0,0,0.2,0.1,0.6c0,0.2,0.1,0.4,0.2,0.6c0.1,0.2,0.2,0.5,0.3,0.7
		c0.1,0.2,0.3,0.5,0.5,0.7c0.2,0.2,0.4,0.4,0.8,0.6c0.3,0.2,0.6,0.3,0.9,0.5c0.3,0.1,0.7,0.2,1.1,0.4c0.4,0.1,0.8,0.2,1.1,0.3
		c0.4,0.1,0.8,0.1,1.2,0.2c0.4,0.1,0.8,0.1,1.1,0.2c0.4,0.1,0.7,0.1,1,0.2c1.3,0.2,2.2,0.5,2.2,0.5s-0.8,0.4-2.2,0.7
		c-0.3,0.1-0.7,0.1-1.1,0.1c-0.4,0-0.8,0.1-1.2,0.1c-0.4,0-0.9,0-1.3-0.1c-0.5-0.1-0.9-0.2-1.4-0.3c-0.5-0.2-0.9-0.3-1.3-0.6
		c-0.4-0.3-0.8-0.5-1.2-0.9c-0.4-0.3-0.6-0.7-0.9-1.1c-0.1-0.2-0.2-0.4-0.3-0.6c-0.1-0.2-0.1-0.4-0.1-0.6c-0.1-0.4-0.1-0.7,0-1
		c0-0.3,0.1-0.5,0.2-0.7C938.4,98.6,938.5,98.4,938.5,98.4"/>
	<path clip-path="url(#SVGID_2_)" fill="#D9D9D8" d="M770,329.6c0,0,130.7,215.3-0.7,336.7C796.7,649.6,902,586.9,888,462.9
		c-12-75.3-32-92.7-71.3-147.3C802.7,322.9,770,329.6,770,329.6"/>
</g>
</svg>
