<?xml version="1.0" encoding="utf-8"?>
<!-- Generator: Adobe Illustrator 17.1.0, SVG Export Plug-In . SVG Version: 6.00 Build 0)  -->
<!DOCTYPE svg PUBLIC "-//W3C//DTD SVG 1.1//EN" "http://www.w3.org/Graphics/SVG/1.1/DTD/svg11.dtd">
<svg version="1.1" id="Layer_1" xmlns="http://www.w3.org/2000/svg" xmlns:xlink="http://www.w3.org/1999/xlink" x="0px" y="0px"
	 viewBox="0 0 926.2 810.3" enable-background="new 0 0 926.2 810.3" xml:space="preserve">
<g>
	<defs>
		<rect id="SVGID_1_" width="926.2" height="810.3"/>
	</defs>
	<clipPath id="SVGID_2_">
		<use xlink:href="#SVGID_1_"  overflow="visible"/>
	</clipPath>
	<path clip-path="url(#SVGID_2_)" fill="#282726" d="M197.9,233.9c1.4-1.8,2.8-3.4,4.2-5.1c1.4-1.7,2.8-3.3,4.3-4.9
		c2.9-3.2,5.8-6.4,8.8-9.5c5.9-6.2,12.1-12.2,18.4-18.1c12.6-11.7,25.8-22.7,39.7-32.8c13.9-10.1,28.5-19.4,43.7-27.6
		c15.2-8.2,31.1-15.2,47.6-20.8c8.2-2.8,16.6-5.2,25.1-7.2c8.5-1.9,17.1-3.5,25.8-4.5c17.3-2.2,35-2.3,52.3-0.3
		c8.7,1,17.3,2.5,25.8,4.5c8.5,2,16.9,4.5,25.1,7.4c8.2,3,16.3,6.4,23.9,9.8c8,3.7,15.7,7.9,23.1,12.5c14.8,9.3,28.2,20.8,39.7,33.8
		c11.5,13.1,21,27.8,28.4,43.4c7.4,15.6,12.6,32.1,15.9,48.9c3.2,16.8,4.6,33.9,4,51c-0.3,8.5-1.1,17.1-2.3,25.5
		c-1.3,8.4-3,16.8-5.3,25.1c-4.5,16.5-10.8,32.6-19.1,47.7c-8.3,15.1-18.5,29.2-30.7,41.7c-6.1,6.3-12.6,12.1-19.6,17.4
		c-7,5.3-14.4,10.2-22.2,14.5l4.2-9.3l0,0c1.1,3.7,1.9,7.4,2.5,11.2c0.6,3.8,1,7.6,1.2,11.4c0.2,3.8,0,7.7-0.3,11.6
		c-0.2,1.9-0.4,3.9-0.8,5.8c-0.2,1-0.3,1.9-0.5,2.9l-0.7,2.9l-0.3,1.4l-0.4,1.4l-0.9,2.8c-0.3,0.9-0.7,1.8-1,2.8
		c-0.4,0.9-0.7,1.9-1.1,2.7c-0.8,1.8-1.6,3.6-2.6,5.3l-1.4,2.6c-0.5,0.8-1,1.7-1.6,2.5c-0.5,0.8-1,1.7-1.6,2.5l-1.8,2.4
		c-1.1,1.6-2.5,3-3.7,4.5c-2.6,2.9-5.4,5.6-8.4,8.1l-1.1,0.9l-1.2,0.9l-2.3,1.7c-1.5,1.2-3.2,2.2-4.8,3.2c-0.8,0.5-1.6,1.1-2.4,1.5
		l-2.5,1.4c-1.7,0.9-3.3,1.9-5,2.6c-1.7,0.8-3.4,1.7-5.1,2.4l-5.2,2.1c-1.7,0.7-3.5,1.3-5.2,1.9l-2.6,0.9c-0.9,0.3-1.8,0.5-2.7,0.8
		l-5.3,1.5c-1.8,0.5-3.6,0.9-5.3,1.3c-3.6,0.9-7.1,1.5-10.7,2.2c-1.8,0.4-3.6,0.6-5.4,0.9l-5.4,0.8c-3.6,0.4-7.2,0.8-10.8,1.2
		l6.9-5.9l0,0c-1.5,5.4-2.9,11.3-4.5,17.1c-1.6,5.8-3.4,11.7-5.5,17.5c-2.1,5.8-4.5,11.5-7.4,17.1c-2.9,5.5-6.1,10.9-9.9,16
		c-3.7,5.1-8,9.8-12.7,14.1c-4.7,4.3-9.8,8-15.2,11.2c-10.9,6.4-22.9,10.5-35,12.6c-6.1,1.1-12.2,1.7-18.2,2
		c-6.1,0.3-12.2,0.2-18.2-0.2c-6-0.3-12-1-18-1.8c-3-0.4-5.9-0.9-8.9-1.4c-3-0.5-5.9-1.1-8.8-1.7c-2.9-0.6-5.8-1.3-8.7-2l-8.7-2.2
		c-2.9-0.8-5.8-1.6-8.6-2.4c-2.8-0.9-5.7-1.7-8.5-2.6c-5.7-1.8-11.3-3.7-16.9-5.7l-8.4-3.1l-8.3-3.2l0.6,0.1l0,0
		c-9.8-0.7-19.5-2.1-29.2-4c-9.6-1.9-19.1-4.4-28.5-7.3c-18.7-5.8-36.8-13.6-54-23.1c-17.2-9.5-33.5-20.7-48.3-33.7
		c-14.8-13-28-27.9-38.8-44.4c-10.8-16.5-19.2-34.7-24.3-53.9c-5.2-19.1-7-39.1-5.9-58.9c0.5-9.9,1.8-19.7,3.6-29.4
		c1.9-9.7,4.4-19.3,7.3-28.7c2.9-9.4,6.5-18.6,10.3-27.7l3-6.8l3.2-6.7l1.6-3.3l1.7-3.3l3.4-6.6c0.2-0.3,0.4-0.6,0.7-0.9l0,0l0,0
		c10.5-10.6,21.8-20,33.2-29.3c11.4-9.2,22.9-18.2,34.2-27.4c11.3-9.2,22.4-18.5,32.4-28.7c5-5.1,9.7-10.4,13.7-16.1
		c1.9-2.8,3.8-5.7,5.3-8.7c1.6-3,2.6-6.1,3.3-9.1l0.4-2.3c0.1-0.8,0.1-1.5,0.2-2.3c0.1-1.8,0.2-3.8,0.2-5.2c0-3.3-0.4-6.7-1-10
		c-1.2-6.6-3.5-13.3-6.7-18.9c-0.8-1.4-1.7-2.7-2.6-3.8c-0.9-1.1-2-1.9-2.4-2.1c0,0-0.1,0-0.1-0.1c0,0,0,0,0,0c0,0,0.1,0,0.1,0
		c0.1,0,0.1,0,0.2,0c0.1,0,0.2,0,0.2-0.1c0.1,0,0.1,0,0.2-0.1c0.1-0.1,0.1,0,0.1,0c0,0,0-0.1,0,0c0,0.1-0.1,0.1-0.2,0.3
		c0,0.1-0.1,0.2-0.2,0.2c-0.1,0.1,0.1-0.1,0,0l-0.1,0.1l-0.2,0.3l-0.3,0.6c-0.1,0.2-0.1,0.3-0.2,0.5c-0.1,0.3-0.3,0.6-0.4,1
		c-1.2,2.9-2.2,6.2-3,9.6c-0.8,3.4-1.6,6.9-2.3,10.5c-0.7,3.6-1.4,7.2-2.2,10.8c-0.4,1.8-0.8,3.7-1.4,5.6c-0.3,1-0.6,1.9-0.9,2.9
		c-0.2,0.5-0.4,1-0.6,1.5c-0.2,0.6-0.4,1.1-0.7,1.6l-0.4,0.9c-0.2,0.3-0.4,0.6-0.6,0.9c-0.2,0.3-0.5,0.7-0.8,1l-0.4,0.5
		c-0.2,0.2-0.4,0.4-0.6,0.6c-0.2,0.2-0.4,0.4-0.7,0.6c-0.9,0.6-0.3,0.2-0.6,0.4l-0.1,0.1c-0.5,0.3-1.2,0.6-1.7,0.7
		c-0.5,0.1-1,0.2-1.4,0.2c-2,0.1-3.4-0.5-4.4-1.1c-1-0.6-1.7-1.2-2.2-1.7c-0.6-0.5-1-1.1-1.4-1.6c-0.8-1-1.4-2-2-3
		c-2.2-3.9-3.4-7.6-4.5-11.4c-2.1-7.6-3.2-15.3-3.4-23.1c-0.2-7.7,0.5-15.5,2.1-23.2c0.2-1,0.4-1.9,0.7-2.9l0.7-2.8
		c0.5-1.7,1-3.6,1.5-5.4c1-3.6,2.2-7.2,3.4-10.7c2.4-7.1,5.3-14.2,8.8-21c3.5-6.8,7.6-13.5,12.6-19.5c5-6.1,11-11.6,17.9-15.8
		c3.5-2.1,7.1-3.9,10.9-5.4c1.9-0.7,3.8-1.4,5.8-1.8c1-0.3,2-0.5,3-0.7l1.5-0.3l0.7-0.2l0.5-0.1l0.3-0.1l2.7-0.4
		c0.9-0.1,2-0.3,3-0.4c1-0.1,2-0.2,3-0.3c1-0.1,2-0.2,2.9-0.2c3.9-0.2,7.9-0.1,11.8,0.3c15.7,1.4,31.4,7.3,43.7,17.8
		c3.1,2.6,5.9,5.5,8.6,8.6c2.6,3.1,4.9,6.4,7,9.9c2,3.5,3.8,7.2,5.2,10.9l1,2.9l0.1,0.4c0.1,0.2,0-0.1,0.1,0.4l0,0.2l0.2,0.7
		l0.2,0.7c0.1,0.2,0.1,0.6,0.2,0.9c0.1,0.6,0.3,1.4,0.4,1.9l0.2,1.7c0.1,1.1,0.2,2.3,0.2,3.3c0.1,4.4-0.5,8.5-1.2,12.4
		c-0.8,3.9-1.8,7.7-3,11.4c-2.4,7.4-5.3,14.4-8.4,21.2c-6.3,13.6-13.6,26.6-21.3,39.2c-3.9,6.3-7.8,12.6-11.9,18.7
		c-4.1,6.2-8.2,12.2-12.6,18.4L197.9,233.9z M197.7,234.2c4.2-5.7,8.4-11.7,12.4-17.6c4-6,8-12,11.8-18.1
		c7.6-12.2,14.8-24.7,20.9-37.5c3-6.4,5.8-12.9,8-19.4c1.1-3.3,2-6.5,2.7-9.8c0.7-3.2,1.1-6.4,1.1-9.3c0-0.7-0.1-1.4-0.1-2.1l-0.1-1
		c0-0.3-0.1-0.5-0.1-0.8c0-0.1,0-0.2-0.1-0.4l-0.2-0.7l-0.2-0.7l0-0.2c0.1,0.5,0,0,0,0.1l-0.1-0.3l-0.8-2.3c-1.1-3.1-2.5-6-4.1-8.9
		c-1.6-2.8-3.4-5.5-5.5-8c-2.1-2.5-4.4-4.9-6.8-7c-9.9-8.6-22.7-13.8-36-15.1c-3.3-0.3-6.7-0.5-10.1-0.3c-0.8,0-1.7,0.1-2.5,0.1
		c-0.8,0-1.7,0.1-2.5,0.2c-0.8,0.1-1.6,0.1-2.5,0.3l-2.7,0.4l-0.3,0c0.2,0,0,0,0,0l-0.1,0l-0.6,0.1l-1.2,0.2
		c-0.8,0.1-1.6,0.3-2.4,0.6c-1.6,0.4-3.1,0.9-4.6,1.4c-3.1,1.1-6,2.5-8.8,4.2c-5.6,3.3-10.6,7.8-14.9,12.9c-4.4,5.1-8,11-11.3,17.1
		c-3.2,6.2-5.9,12.7-8.3,19.3c-1.2,3.3-2.3,6.7-3.3,10.1c-0.5,1.7-1,3.4-1.5,5.1l-0.7,2.5c-0.2,0.8-0.4,1.6-0.6,2.5
		c-1.5,6.6-2.2,13.5-2.1,20.4c0.1,6.9,1,13.7,2.7,20.2c0.9,3.2,2,6.4,3.4,8.9c0.3,0.6,0.7,1.2,1,1.6c0.2,0.2,0.3,0.4,0.4,0.5
		c0.1,0.1,0.1,0.1-0.1,0c-0.2-0.1-0.8-0.4-1.8-0.4c-0.2,0-0.5,0-0.8,0.1c-0.3,0.1-0.8,0.3-1.1,0.5l0.1-0.1c-0.1,0.1,0.5-0.3-0.3,0.2
		c-0.1,0-0.1,0.1-0.2,0.1c0,0-0.1,0.1-0.1,0.1l0,0c0,0,0,0,0.1-0.1l0.1-0.2l0.2-0.4c0.5-1,1.1-2.6,1.5-4.2c0.5-1.6,0.9-3.3,1.3-5
		c0.8-3.4,1.5-7,2.3-10.6c0.8-3.6,1.6-7.2,2.5-10.9c1-3.7,2-7.4,3.7-11.2c0.4-0.9,1.1-2.2,1.5-2.9l0.2-0.3l0.1-0.1
		c0,0,0.2-0.4,0.2-0.3l0.6-0.9c0.4-0.6,1-1.2,1.6-1.8c0.3-0.3,0.7-0.6,1.1-0.9c0.4-0.3,0.8-0.5,1.3-0.8c0.5-0.2,1-0.4,1.5-0.6
		c0.5-0.1,1.1-0.2,1.6-0.3c2.1-0.2,4.1,0.3,5.5,1l0.6,0.3l0.5,0.3l0.9,0.6c0.5,0.4,1.1,0.8,1.5,1.2c0.4,0.4,0.9,0.8,1.3,1.3l1.1,1.3
		c1.4,1.7,2.6,3.5,3.6,5.3c2,3.6,3.6,7.2,4.8,10.9c1.3,3.7,2.2,7.5,2.9,11.4c0.7,3.9,1.1,7.7,1.1,11.8c0,2.2-0.1,3.8-0.2,5.7
		c-0.1,1.1-0.1,2.1-0.3,3.2l-0.6,3.1c-1,4-2.4,7.9-4.2,11.4c-1.8,3.6-3.9,6.8-6.1,10c-4.5,6.2-9.6,11.8-14.9,17.1
		c-10.6,10.5-22,19.9-33.5,29c-11.5,9.1-23.1,18-34.5,27c-11.4,9.1-22.6,18.2-32.8,28.3l0,0l0.7-0.9l-3.4,6.4l-1.7,3.2l-1.6,3.2
		l-3.1,6.5l-3,6.6c-3.8,8.8-7.4,17.7-10.3,26.9c-2.9,9.1-5.5,18.4-7.3,27.8c-1.8,9.4-3.1,18.9-3.7,28.4c-1.2,19.1,0.5,38.3,5.3,56.8
		c4.8,18.5,12.7,36.2,23.1,52.3c10.4,16.1,23.1,30.7,37.5,43.5c14.3,12.8,30.2,23.9,47,33.4c16.8,9.4,34.6,17.2,53,23.1
		c9.2,3,18.5,5.4,28,7.4c9.4,1.9,19,3.3,28.6,4.1l0,0c0.2,0,0.3,0,0.5,0.1l0.1,0l8.4,2.8l8.4,2.7c5.6,1.7,11.3,3.4,16.9,5
		c2.8,0.8,5.7,1.5,8.5,2.2c2.8,0.7,5.7,1.4,8.6,2l8.6,1.8c2.9,0.5,5.7,1.1,8.6,1.6c2.9,0.5,5.8,0.9,8.7,1.3c2.9,0.4,5.8,0.7,8.7,1
		c5.8,0.6,11.6,1,17.4,1c5.8,0.1,11.5,0,17.3-0.6c5.7-0.5,11.4-1.3,16.9-2.5c11.1-2.4,21.7-6.5,30.9-12.5c4.6-3,9-6.4,12.9-10.3
		c3.9-3.9,7.4-8.1,10.5-12.7c3.1-4.6,5.8-9.4,8.2-14.5c2.3-5.1,4.3-10.3,6.1-15.7c1.7-5.4,3.2-10.9,4.5-16.5
		c1.3-5.6,2.4-11.3,3.8-17.4l0,0c0.8-3.2,3.5-5.5,6.7-5.8l0.2,0c3.4-0.4,6.8-0.7,10.1-1.1l5-0.7c1.7-0.3,3.4-0.5,5-0.8
		c3.3-0.7,6.7-1.2,9.9-2c1.6-0.4,3.3-0.8,4.9-1.2l4.8-1.4c0.8-0.2,1.6-0.4,2.4-0.7l2.3-0.8c1.6-0.6,3.2-1,4.7-1.7l4.6-1.9
		c1.5-0.6,2.9-1.4,4.4-2.1c1.5-0.7,2.9-1.5,4.3-2.3l2.1-1.2c0.7-0.4,1.3-0.9,2-1.3c1.3-0.9,2.7-1.7,4-2.7l1.9-1.4l1-0.7l0.9-0.8
		c2.4-2,4.7-4.2,6.7-6.5c1-1.2,2.1-2.3,3-3.6l1.4-1.9c0.5-0.6,0.8-1.3,1.3-1.9c0.4-0.7,0.8-1.3,1.2-2l1.1-2c0.8-1.3,1.3-2.8,2-4.2
		c0.3-0.7,0.6-1.4,0.9-2.1c0.3-0.7,0.6-1.4,0.8-2.2l0.7-2.2l0.3-1.1l0.3-1.1l0.5-2.3c0.2-0.8,0.3-1.5,0.4-2.3
		c0.3-1.5,0.4-3.1,0.6-4.7c0.2-3.1,0.4-6.3,0.2-9.5c-0.1-3.2-0.4-6.4-1-9.5c-0.5-3.2-1.2-6.3-2.1-9.3l0,0l-0.2-1.2
		c-0.7-3.5,1.2-6.8,4.4-8.1c7.5-3,14.7-6.7,21.5-10.9c6.9-4.3,13.4-9.2,19.5-14.6c12.2-10.8,22.8-23.7,31.4-37.8
		c8.6-14.1,15.3-29.4,20.1-45.4c4.7-15.9,7.5-32.5,8.1-49.2c0.7-16.6-0.7-33.4-4.3-49.6c-3.6-16.2-9.4-31.9-17.4-46.4
		c-7.9-14.5-17.9-27.8-29.4-39.4c-5.8-5.8-11.9-11.2-18.4-16.1l-2.4-1.9l-2.5-1.8c-1.7-1.2-3.3-2.4-5-3.5c-1.7-1.1-3.4-2.2-5.1-3.3
		l-5.2-3.1c-7.1-4.1-14.4-7.7-21.7-11c-7.9-3.3-15.3-6.4-23.1-9.1c-7.7-2.6-15.6-4.8-23.5-6.6c-8-1.7-16-3-24.1-3.8
		c-16.2-1.5-32.5-1.3-48.7,0.9c-8.1,1.1-16.1,2.6-24,4.4c-7.9,1.9-15.8,4.3-23.5,6.9c-15.5,5.3-30.5,12-45,19.9
		c-14.5,7.8-28.4,16.7-41.8,26.4c-13.4,9.7-26.2,20.2-38.5,31.4c-6.1,5.6-12.1,11.3-17.9,17.2c-2.9,3-5.8,5.9-8.6,9
		c-1.4,1.5-2.8,3-4.1,4.6c-1.3,1.5-2.7,3.1-3.9,4.6l-0.1,0.1c-2.8,3.3-7.7,3.8-11.1,1C195.8,242.2,195.3,237.5,197.7,234.2"/>
	<path clip-path="url(#SVGID_2_)" fill="#282726" d="M510.4,117c1.1-1.9,2.2-3.6,3.3-5.3c1.1-1.7,2.2-3.3,3.4-5
		c2.3-3.3,4.7-6.5,7.2-9.6C529.2,91,534.5,85,540,79.3c11-11.4,23.3-21.7,36.3-31c13-9.2,27-17.1,41.5-23.8
		c14.5-6.7,29.7-12.1,45.2-16c15.5-3.9,31.4-6.4,47.3-7.6l6-0.5c2-0.1,4-0.2,6-0.2l6-0.2l3-0.1l3.1,0l2.9,0l1.4,0l1.6,0.1
		c2.1,0.1,4.2,0.2,6.3,0.3l6.1,0.5c2,0.2,4.1,0.5,6.1,0.7c8.1,1,16.2,2.6,24.2,4.7c8,2.1,15.8,4.7,23.4,7.8
		c15.3,6.3,29.7,14.7,42.7,24.8c13,10.2,24.5,22.1,34.4,35.3c9.9,13.1,17.9,27.6,24.3,42.5c6.3,15,11,30.6,13.9,46.5
		c0.8,4,1.4,7.9,2,11.9c0.5,4,1,8,1.4,12c0.4,4,0.6,8,0.9,12c0.1,4,0.3,8,0.3,12c0.2,16-1.2,31.9-3.5,47.6
		c-2.4,15.7-5.9,31.2-10.2,46.3c-4.4,15.2-9.7,30-15.7,44.5c-6,14.5-12.8,28.6-20.2,42.4l-0.1,0.2c-0.2,0.3-0.4,0.6-0.6,0.9
		c-7.9,11-16.1,21.9-24.7,32.4c-8.6,10.5-17.5,20.8-26.8,30.7c-9.3,9.9-19.1,19.5-29.2,28.6c-10.2,9.1-20.8,17.7-32,25.7
		c-11.2,7.9-22.9,15.1-35.3,21.3c-12.3,6.2-25.3,11.3-38.8,14.7c-13.5,3.4-27.4,5.1-41.3,4.5c-6.9-0.3-13.9-1.1-20.6-2.5
		c-6.8-1.4-13.4-3.3-19.9-5.7l5-4.1l0,0c0.9,7.5,0.6,15-0.7,22.3c-1.2,7.3-3.3,14.4-6.1,21.2c-2.7,6.8-6,13.3-9.7,19.6
		c-3.7,6.3-7.8,12.3-12.2,18c-4.4,5.7-9.2,11.2-14.1,16.4c-5,5.2-10.2,10.2-15.7,15c-5.4,4.7-11.1,9.2-17,13.4
		c-5.8,4.2-11.9,8.2-18.1,11.9c-12.4,7.4-25.6,13.6-39.2,18.5c-13.7,4.9-27.9,8.3-42.4,10c-7.2,0.8-14.6,1.3-21.9,1.2
		c-7.3,0-14.7-0.5-22-1.5c-3.7-0.5-7.3-1.1-10.9-1.8c-1.8-0.3-3.6-0.7-5.4-1.2l-2.7-0.6l-2.7-0.7c-7.2-1.9-14.3-4.3-21.3-7l0,0
		c-4.1-1.6-6.1-6.1-4.5-10.2c1.6-4.1,6.1-6.1,10.2-4.5c0.5,0.2,0.9,0.4,1.4,0.7c5.7,3.6,11.9,6.6,18.2,9.1l2.4,0.9l2.4,0.8
		c1.6,0.6,3.2,1.1,4.9,1.6c3.3,1,6.6,1.8,10,2.5c6.7,1.5,13.6,2.3,20.5,2.7c6.9,0.3,13.8,0.2,20.8-0.5c13.8-1.3,27.5-4.3,40.8-8.8
		c13.3-4.4,26-10.3,38.2-17.3c12.1-7,23.7-15.1,34.3-24.3c10.6-9.1,20.4-19.3,29-30.4c4.3-5.5,8.2-11.3,11.7-17.4
		c3.5-6,6.6-12.3,9.1-18.7c2.5-6.4,4.3-13.1,5.4-19.9c1.1-6.7,1.1-13.6,0.2-20.2l0,0c-0.3-2.1,1.1-4,3.2-4.3c0.6-0.1,1.1,0,1.6,0.1
		l0.2,0c6.2,1.9,12.6,3.3,19,4.2c6.4,0.9,12.8,1.3,19.3,1.2c12.9-0.2,25.6-2.4,38-6.2c12.3-3.8,24.2-9,35.5-15.3
		c11.3-6.3,22.1-13.6,32.4-21.6c10.3-8,20.2-16.6,29.7-25.7c9.4-9.1,18.5-18.6,27.1-28.5c8.6-9.9,17-20,25-30.5
		c8-10.4,15.7-21.2,23.1-32.1l-0.7,1.1c6.7-13.4,12.8-27.1,18.2-41c5.4-13.9,10.1-28.1,14-42.4c3.8-14.4,6.8-28.9,8.7-43.5
		c1.9-14.6,2.8-29.3,2.5-44c0-3.7-0.3-7.3-0.4-11c-0.3-3.6-0.5-7.3-1-10.9c-0.3-3.6-0.9-7.2-1.4-10.8c-0.6-3.6-1.2-7.2-1.9-10.7
		c-2.8-14.2-7.1-28-12.8-41.2c-5.8-13.1-12.9-25.6-21.5-36.9c-8.6-11.3-18.6-21.5-29.7-30.2c-11.1-8.7-23.4-15.8-36.5-21.3
		c-13-5.5-26.9-9.1-41-11.1c-1.8-0.2-3.5-0.5-5.3-0.7l-5.3-0.5l-5.2-0.3l-1.3-0.1l-1.4,0l-2.9-0.1l-2.6-0.1l-2.7,0l-5.5,0.1
		c-1.8,0-3.7,0-5.5,0.1l-5.5,0.3c-14.6,0.8-29.2,2.8-43.4,6c-14.2,3.2-28.2,7.6-41.7,13.3C613.4,51,600.4,57.9,588,65.8
		c-12.3,8-24,17-34.9,27c-5.4,5-10.6,10.2-15.6,15.7c-2.5,2.7-4.9,5.5-7.2,8.3l-1.7,2.1l-1.7,2.2c-1.1,1.4-2.2,2.9-3.1,4.2l-0.1,0.1
		c-2.4,3.6-7.3,4.5-10.9,2.1C509.4,125.1,508.4,120.6,510.4,117"/>
	<path clip-path="url(#SVGID_2_)" fill="#282726" d="M158.4,125.1c0,0,0.7,0.2,1.9,0.4c1.2,0.3,2.7,0.6,4.5,1
		c1.8,0.3,3.8,0.6,5.7,0.6c1,0,1.9-0.1,2.8-0.3c0.9-0.2,1.8-0.4,2.6-0.8c0.4-0.1,0.8-0.4,1.3-0.6c0.4-0.3,0.8-0.4,1.2-0.7
		c0.8-0.5,1.6-1.1,2.4-1.7c0.4-0.3,0.8-0.6,1.2-1c0.4-0.3,0.8-0.7,1.1-1c0.7-0.7,1.4-1.4,2.1-2.1c0.7-0.7,1.3-1.3,1.8-1.9
		c0.6-0.6,1.1-1.1,1.5-1.5c0.8-0.8,1.4-1.3,1.4-1.3s0.1,0.7,0.1,1.9c0,0.6,0,1.4-0.2,2.2c-0.1,0.8-0.3,1.8-0.6,2.8
		c-0.1,0.5-0.3,1-0.5,1.6c-0.2,0.5-0.4,1.1-0.7,1.7c-0.2,0.6-0.6,1.1-0.9,1.7c-0.3,0.6-0.7,1.1-1.1,1.7c-0.2,0.3-0.4,0.6-0.6,0.9
		c-0.2,0.3-0.5,0.5-0.7,0.8c-0.5,0.6-1.1,1.1-1.7,1.6c-0.6,0.5-1.3,0.9-2,1.4c-0.7,0.4-1.4,0.8-2.2,1.1c-1.5,0.6-3.2,0.9-4.8,1
		c-1.6,0.1-3.2-0.1-4.6-0.5c-2.8-0.7-5.1-2.1-6.8-3.4c-1.7-1.4-2.8-2.8-3.4-3.8C158.7,125.8,158.4,125.1,158.4,125.1"/>
	<path clip-path="url(#SVGID_2_)" fill="#282726" d="M344.8,687.3c0.6,1.3,1.2,2.6,1.7,4c0.5,1.3,1,2.7,1.5,4c1,2.7,1.9,5.4,2.7,8.1
		c1.7,5.4,3.2,10.9,4.6,16.4c0.2,0.9,0.1,1.7-0.4,2.4l-0.1,0.2c-1.2,1.8-2.3,3.7-3.5,5.5c-1.2,1.8-2.4,3.6-3.6,5.5
		c-1.2,1.8-2.5,3.6-3.8,5.4c-1.3,1.8-2.6,3.6-3.9,5.3c-0.7,0.9-1.3,1.8-2,2.6c-0.7,0.9-1.3,1.7-2,2.6c-1.4,1.7-2.7,3.4-4.2,5.1
		c-1.4,1.7-2.9,3.4-4.3,5c-1.5,1.6-3,3.3-4.6,4.8c0.8-2.1,1.8-4.1,2.7-6.1c0.9-2,1.9-4,2.9-5.9c1-2,2.1-3.9,3.1-5.8
		c0.5-1,1.1-1.9,1.6-2.9c0.5-1,1.1-1.9,1.7-2.8c1.1-1.9,2.3-3.8,3.4-5.6c1.2-1.8,2.3-3.7,3.5-5.5c1.2-1.8,2.4-3.7,3.6-5.5
		c1.2-1.8,2.5-3.6,3.7-5.4l-0.5,2.6c-1-5.6-2-11.2-2.7-16.8c-0.3-2.8-0.7-5.7-0.9-8.5c-0.1-1.4-0.2-2.8-0.3-4.3
		C344.8,690.2,344.8,688.8,344.8,687.3"/>
	<path clip-path="url(#SVGID_2_)" fill="#282726" d="M362.6,718.1c0,0-0.3,0.2-0.8,0.5c-0.6,0.3-1.4,0.9-2.4,1.4
		c-2.1,1.2-5.1,2.9-8.8,4.7c-3.7,1.9-8,3.9-12.7,5.9c-2.3,1-4.8,2.1-7.3,3.1c-2.5,1-5,2-7.6,3c-2.6,0.9-5.1,1.9-7.7,2.8
		c-2.5,0.9-5,1.7-7.5,2.5c-4.9,1.6-9.5,2.9-13.5,3.9c-4,1-7.3,1.8-9.7,2.2c-1.2,0.3-2.1,0.4-2.8,0.5c-0.6,0.1-1,0.2-1,0.2
		s0.3-0.2,0.8-0.5c0.6-0.3,1.4-0.9,2.4-1.4c2.1-1.2,5.1-2.9,8.8-4.7c3.7-1.9,8-3.9,12.7-5.9c2.3-1,4.8-2.1,7.3-3c2.5-1,5-2,7.6-3
		c2.6-0.9,5.1-1.9,7.7-2.8c2.5-0.9,5-1.7,7.5-2.5c4.9-1.6,9.5-2.9,13.5-3.9c4-1,7.3-1.8,9.7-2.2c1.2-0.3,2.1-0.4,2.8-0.5
		C362.2,718.1,362.6,718.1,362.6,718.1"/>
	<path clip-path="url(#SVGID_2_)" fill="#282726" d="M305.2,727.8c0,0,0.7-0.4,1.9-1c1.2-0.6,3-1.4,5.1-2.1c2.1-0.8,4.6-1.5,7.3-2.2
		c1.4-0.3,2.8-0.7,4.2-1c1.4-0.3,2.9-0.5,4.4-0.8c1.5-0.2,2.9-0.4,4.4-0.6c1.5-0.2,2.9-0.3,4.3-0.4c2.8-0.2,5.4-0.2,7.7-0.1
		c2.3,0.1,4.2,0.3,5.5,0.5c1.3,0.2,2.1,0.4,2.1,0.4s-0.7,0.4-1.9,1c-1.2,0.6-3,1.4-5.1,2.1c-2.1,0.8-4.6,1.5-7.3,2.2
		c-1.4,0.3-2.8,0.7-4.2,0.9c-1.4,0.3-2.9,0.5-4.4,0.8c-1.5,0.2-2.9,0.4-4.4,0.6c-1.5,0.2-2.9,0.3-4.3,0.4c-2.8,0.2-5.4,0.2-7.7,0.1
		c-2.3-0.1-4.2-0.3-5.5-0.5C305.9,728,305.2,727.8,305.2,727.8"/>
	<path clip-path="url(#SVGID_2_)" fill="#282726" d="M384.4,697.8c0,0,0.1,0.3,0.1,1c0.1,0.7,0.2,1.6,0.3,2.8
		c0.3,2.4,0.6,5.9,0.8,10.1c0.2,4.2,0.3,9,0.3,14.2c0,2.6-0.1,5.3-0.1,8c-0.1,2.7-0.2,5.5-0.3,8.2c-0.2,2.8-0.3,5.5-0.6,8.2
		c-0.2,2.7-0.5,5.4-0.7,7.9c-0.5,5.2-1.2,10-1.9,14.1c-0.7,4.1-1.3,7.5-1.9,9.9c-0.2,1.2-0.5,2.1-0.6,2.8c-0.2,0.6-0.3,1-0.3,1
		s-0.1-0.3-0.1-1c-0.1-0.7-0.2-1.6-0.3-2.8c-0.3-2.4-0.6-5.9-0.8-10.1c-0.2-4.2-0.3-9-0.3-14.2c0-2.6,0.1-5.3,0.1-8
		c0.1-2.7,0.2-5.5,0.3-8.2c0.2-2.8,0.3-5.5,0.6-8.2c0.2-2.7,0.5-5.4,0.7-7.9c0.5-5.2,1.2-10,1.9-14.1c0.7-4.1,1.3-7.5,1.9-9.9
		c0.2-1.2,0.5-2.1,0.6-2.8C384.3,698.2,384.4,697.8,384.4,697.8"/>
	<path clip-path="url(#SVGID_2_)" fill="#282726" d="M391.7,784.4c0,0-0.3,0.1-0.9,0.4c-0.6,0.3-1.4,0.7-2.5,1.1
		c-2.2,0.9-5.3,2.2-9,3.6c-3.8,1.4-8.2,2.8-13,4.3c-2.4,0.7-4.9,1.4-7.4,2.1c-2.5,0.7-5.1,1.3-7.7,2c-2.6,0.6-5.2,1.2-7.7,1.8
		c-2.6,0.6-5.1,1.1-7.5,1.5c-4.9,0.9-9.5,1.7-13.5,2.2c-4,0.5-7.3,0.8-9.7,1c-1.2,0.1-2.1,0.1-2.7,0.2c-0.6,0-1,0-1,0
		s0.3-0.1,0.9-0.4c0.6-0.3,1.4-0.7,2.5-1.1c2.2-0.9,5.3-2.2,9-3.6c3.8-1.4,8.2-2.8,13-4.3c2.4-0.7,4.9-1.4,7.4-2.1
		c2.5-0.7,5.1-1.3,7.7-2c2.6-0.6,5.2-1.2,7.7-1.8c2.6-0.6,5.1-1.1,7.5-1.5c4.9-0.9,9.5-1.7,13.5-2.2c4-0.5,7.3-0.8,9.7-1
		c1.2-0.1,2.1-0.1,2.7-0.2C391.4,784.4,391.7,784.4,391.7,784.4"/>
	<path clip-path="url(#SVGID_2_)" fill="#282726" d="M383.6,786c0,0,0.1,0.1,0.2,0.3c0.1,0.2,0.3,0.4,0.5,0.8
		c0.4,0.7,0.8,1.6,1.2,2.8c0.4,1.2,0.7,2.5,1,3.9c0.2,1.4,0.3,3,0.3,4.5c-0.1,1.5-0.2,3-0.5,4.4c-0.3,1.4-0.7,2.7-1.2,3.9
		c-0.5,1.1-1,2.1-1.4,2.7c-0.2,0.3-0.4,0.6-0.5,0.8c-0.1,0.2-0.2,0.3-0.2,0.3s-0.1-0.1-0.2-0.3c-0.1-0.2-0.3-0.4-0.5-0.8
		c-0.4-0.7-0.8-1.6-1.2-2.8c-0.4-1.2-0.7-2.5-0.9-3.9c-0.2-1.4-0.3-3-0.2-4.5c0.1-1.5,0.2-3,0.5-4.4c0.3-1.4,0.7-2.7,1.2-3.8
		c0.5-1.1,1-2.1,1.4-2.7c0.2-0.3,0.4-0.6,0.5-0.8C383.5,786.1,383.6,786,383.6,786"/>
	<path clip-path="url(#SVGID_2_)" fill="#282726" d="M332.7,501.3c0,0,0.8,0.2,2.4,0.4c1.5,0.3,3.8,0.6,6.7,1.1
		c2.9,0.5,6.4,0.9,10.5,1.5c4.1,0.5,8.6,1,13.6,1.4c5,0.4,10.4,0.8,16.1,1c5.7,0.2,11.8,0.3,18,0.1c6.2-0.2,12.6-0.5,19.1-1.2
		c6.5-0.7,13-1.7,19.4-3.1c6.4-1.4,12.8-3.2,18.8-5.4c6.1-2.2,11.8-4.8,17.2-7.7c5.4-2.9,10.3-6.2,14.7-9.7c1.1-0.9,2.2-1.7,3.2-2.7
		c1-0.9,2-1.8,3-2.7c1-0.9,1.9-1.8,2.8-2.7c0.9-0.9,1.8-1.8,2.6-2.7c1.6-1.8,3.2-3.6,4.6-5.4c1.5-1.7,2.7-3.5,3.9-5.1
		c2.3-3.3,4.2-6.3,5.7-8.9c0.7-1.3,1.4-2.4,1.9-3.4c0.5-1,1-1.9,1.3-2.6c0.7-1.4,1.1-2.1,1.1-2.1s-0.3,0.8-0.7,2.3
		c-0.3,0.8-0.5,1.7-0.9,2.8c-0.4,1.1-0.9,2.3-1.4,3.7c-0.5,1.4-1.3,2.9-2,4.5c-0.8,1.6-1.7,3.3-2.7,5.2c-1.1,1.8-2.1,3.7-3.4,5.7
		c-1.3,2-2.7,4-4.3,6c-0.8,1-1.6,2-2.5,3.1c-0.9,1-1.8,2-2.7,3.1c-0.9,1-2,2-3,3c-1,1-2.1,2-3.2,3c-1.1,1-2.3,1.9-3.4,2.9
		c-1.2,1-2.4,1.9-3.6,2.9c-1.3,0.9-2.6,1.8-3.9,2.7c-1.3,0.8-2.7,1.8-4.1,2.6c-5.6,3.3-11.6,6.3-18,8.7c-6.4,2.4-13,4.3-19.7,5.7
		c-6.7,1.4-13.5,2.4-20.2,3c-6.7,0.6-13.3,0.7-19.7,0.6c-6.4-0.1-12.5-0.6-18.3-1.1c-5.8-0.5-11.3-1.4-16.3-2.2
		c-5-0.8-9.6-1.8-13.6-2.8c-4-0.9-7.5-1.9-10.3-2.7c-2.8-0.8-5-1.5-6.5-2C333.4,501.6,332.7,501.3,332.7,501.3"/>
	<path clip-path="url(#SVGID_2_)" fill="#D9D9D8" d="M349.5,506.9c0,0,120,28,161.3-46C529.5,495.6,466.8,545.6,349.5,506.9"/>
	<path clip-path="url(#SVGID_2_)" fill="#D9D9D8" d="M528.8,118.9c0,0,131.3,44,124,199.3c-4.7,80.7-50,138.7-92.7,164.7
		c103.3-51.3,154.7-148,143.3-247.3C692.1,136.3,578.1,104.9,528.8,118.9"/>
	<path clip-path="url(#SVGID_2_)" fill="#D9D9D8" d="M560.1,482.9c0,0,27.3,90.7-102.7,106.7c56-2.7,120.7-13.3,125.3-58
		C587.5,486.9,560.1,482.9,560.1,482.9"/>
	<path clip-path="url(#SVGID_2_)" fill="#D9D9D8" d="M457.5,589.6c0,0-6.7,78.7-82,99.3c16.7,8,65.3,16.7,121.3-7.3
		C522.8,668.9,519.5,594.3,457.5,589.6"/>
	<path clip-path="url(#SVGID_2_)" fill="#282726" d="M201.5,242.3c0,0-0.5,0.6-1.5,1.6c-1,1.1-2.4,2.6-4.3,4.6
		c-3.7,4-9.1,9.6-15.7,16.2c-3.3,3.3-6.9,6.9-10.7,10.6c-3.8,3.7-7.9,7.7-12.1,11.7c-4.3,4-8.6,8.1-13.2,12.2
		c-4.6,4.1-9.2,8.2-14,12.3c-4.8,4.1-10,7.7-15.3,10.9c-5.3,3.2-10.8,6-16.1,8.4c-5.4,2.4-10.8,4.4-16,5.8c-5.2,1.5-10.3,2.5-15,2.9
		c-4.7,0.4-9.2,0.1-13-1.1c-1.9-0.6-3.6-1.4-4.9-2.4c-1.4-1-2.4-2.2-3.2-3.4c-1.5-2.4-1.9-4.6-2-6.1c-0.1-0.7-0.1-1.3-0.1-1.7
		c0-0.4,0-0.6,0-0.6s0,0.2,0.1,0.6c0,0.4,0.1,0.9,0.3,1.6c0.3,1.4,0.9,3.5,2.5,5.6c1.6,2.1,4.3,4,7.9,4.8c3.6,0.9,7.8,0.9,12.3,0.3
		c9.1-1.2,19.4-4.7,29.8-9.6c5.2-2.4,10.4-5.3,15.6-8.5c5.1-3.2,10.1-6.7,14.8-10.7c4.8-4,9.4-8,14-12.1c4.6-4.1,9.1-8,13.4-11.9
		c8.6-7.8,16.7-15.1,23.6-21.4c6.9-6.3,12.7-11.5,16.7-15.1C199.1,244.3,201.5,242.3,201.5,242.3"/>
	<path clip-path="url(#SVGID_2_)" fill="#282726" d="M528.8,118.9c1.1-0.9,2.2-1.8,3.4-2.6c1.2-0.8,2.4-1.5,3.6-2.3
		c1.3-0.7,2.5-1.4,3.8-2c1.3-0.6,2.6-1.3,3.9-1.8c1.3-0.5,2.6-1.1,4-1.5c1.4-0.4,2.7-0.9,4.1-1.3l4.2-1l4.2-0.7l1.1-0.2l1.1-0.1
		l2.1-0.2l2.1-0.2c0.7-0.1,1.4,0,2.2-0.1l4.3-0.1c1.4,0.1,2.9,0.2,4.3,0.3l2.2,0.2c0.7,0,1.4,0.2,2.1,0.3l4.3,0.7l1.1,0.2l1,0.3
		l2.1,0.5l4.2,1l-0.3,0l4.5-1.8c1.5-0.6,3-1.1,4.5-1.7c0.8-0.3,1.5-0.6,2.3-0.8l2.3-0.7l2.3-0.7c0.8-0.2,1.6-0.4,2.3-0.6
		c1.6-0.4,3.1-0.8,4.7-1c1.6-0.3,3.2-0.6,4.8-0.8c1.6-0.2,3.2-0.4,4.8-0.4c1.6-0.1,3.2-0.2,4.8-0.1l2.4,0.1c0.8,0,1.6,0.2,2.4,0.3
		l2.4,0.3l2.4,0.5c0.8,0.2,1.6,0.3,2.4,0.5l2.3,0.7c1.6,0.4,3,1.1,4.5,1.7c0.8,0.3,1.5,0.7,2.2,1l2.2,1.1c1.4,0.8,2.7,1.7,4.1,2.6
		c1.3,1,2.6,2,3.9,2.9l3.6,3.2l-1.1-0.1c3.4-2,7-3.8,10.7-5.3c1.8-0.8,3.7-1.5,5.6-2.2c1.9-0.7,3.8-1.3,5.7-1.8
		c1.9-0.5,3.8-1,5.8-1.4c2-0.4,3.9-0.7,5.9-1c2-0.2,4-0.4,6-0.5c2-0.1,4,0,6,0.1c1,0,2,0.2,3,0.3c1,0.1,2,0.3,3,0.5
		c0.5,0.1,1,0.2,1.5,0.3l1.5,0.4l1.5,0.4l1.4,0.5c1,0.3,1.9,0.6,2.8,1.1c0.9,0.4,1.9,0.8,2.7,1.3c0.9,0.5,1.8,0.9,2.7,1.5l2.5,1.7
		l2.4,1.9c0.8,0.6,1.5,1.3,2.3,2c0.4,0.3,0.8,0.7,1.1,1l1,1.1c0.7,0.8,1.4,1.5,2,2.3l1.9,2.4c0.6,0.8,1.1,1.7,1.7,2.5l0.8,1.3
		l0.7,1.3l1.5,2.6l-0.7-0.6c1.8,0.6,3.6,1.2,5.4,1.9c1.8,0.7,3.6,1.4,5.3,2.1c3.5,1.5,7,3.2,10.2,5.2c0.8,0.5,1.6,1,2.4,1.6
		c0.8,0.6,1.6,1.1,2.3,1.7c1.5,1.2,3,2.4,4.4,3.8l1,1l1,1.1c0.7,0.7,1.2,1.5,1.8,2.3c0.6,0.8,1.1,1.6,1.7,2.4c0.5,0.8,1,1.7,1.5,2.5
		c0.9,1.7,1.7,3.5,2.4,5.3l0.5,1.4l0.4,1.4c0.3,0.9,0.5,1.9,0.7,2.8c0.4,1.9,0.7,3.8,1,5.7c0.2,1.9,0.4,3.8,0.4,5.8c0,1,0,1.9,0,2.9
		c0,1,0,1.9-0.1,2.9c-0.1,1.9-0.2,3.8-0.4,5.7c-0.2,1.9-0.4,3.8-0.7,5.7c-0.3,1.9-0.6,3.8-0.9,5.6l-0.7-1.5l2.4,1.5
		c0.8,0.5,1.5,1.1,2.3,1.7c0.8,0.6,1.5,1.3,2.2,1.9c0.7,0.6,1.3,1.4,2,2.1c0.6,0.7,1.2,1.5,1.8,2.3c0.6,0.8,1.1,1.6,1.6,2.4
		c0.5,0.9,0.9,1.7,1.4,2.6c0.4,0.9,0.8,1.8,1.1,2.7c0.6,1.8,1.1,3.7,1.4,5.6c0.2,1,0.3,1.9,0.3,2.9l0.1,1.4l0,1.4c0,1,0,1.9-0.1,2.9
		c0,1-0.2,1.9-0.3,2.9c-0.3,1.9-0.7,3.8-1.2,5.6c-1,3.7-2.5,7.2-4.3,10.5c-0.9,1.7-1.9,3.3-2.9,4.9c-0.5,0.8-1.1,1.6-1.6,2.3
		c-0.5,0.8-1.1,1.5-1.7,2.2c-0.6,0.7-1.2,1.5-1.8,2.2l-0.9,1.1l-1,1c-0.7,0.7-1.3,1.4-2,2c-0.7,0.6-1.4,1.3-2.1,1.9
		c-1.4,1.2-2.9,2.4-4.5,3.5c-0.8,0.5-1.6,1.1-2.4,1.6l-2.4,1.5l0.5-2.1c1.4,2.3,2.8,4.5,4,6.9c0.6,1.2,1.2,2.4,1.8,3.5
		c0.6,1.2,1.1,2.4,1.7,3.6c0.5,1.2,1,2.4,1.5,3.7c0.5,1.2,0.9,2.5,1.3,3.8c0.4,1.3,0.8,2.6,1.1,3.8c0.3,1.3,0.6,2.6,0.9,3.9
		c0.5,2.6,0.9,5.3,1.1,7.9c0.2,2.7,0.1,5.4,0,8c-0.1,1.3-0.3,2.7-0.5,4c-0.3,1.3-0.5,2.6-0.8,3.9c-0.7,2.6-1.5,5.2-2.7,7.6l-0.8,1.8
		c-0.3,0.6-0.6,1.2-1,1.8l-1,1.8c-0.3,0.6-0.7,1.1-1.1,1.7l-1.1,1.7c-0.4,0.5-0.8,1.1-1.2,1.6l-1.2,1.6c-0.4,0.5-0.9,1-1.3,1.5
		c-1.7,2-3.6,3.9-5.6,5.7l-3,2.6l-3.1,2.4c-1,0.8-2.2,1.5-3.2,2.3c-1.1,0.7-2.2,1.5-3.3,2.2l-3.4,2.1c-1.1,0.7-2.3,1.3-3.5,1.9
		c-2.3,1.3-4.7,2.4-7.1,3.5c-2.4,1.1-4.8,2.1-7.2,3.2l0.8-1.4c0.4,2.3,0.8,4.5,1.1,6.8c0.3,2.3,0.6,4.5,0.8,6.8
		c0.2,2.3,0.4,4.6,0.5,6.9c0,1.1,0,2.3,0.1,3.5c0,1.2,0,2.3-0.1,3.5c-0.1,2.3-0.3,4.6-0.6,6.9l-0.3,1.7l-0.3,1.7
		c-0.2,1.1-0.5,2.3-0.8,3.4c-0.3,1.1-0.7,2.2-1,3.3c-0.4,1.1-0.8,2.2-1.3,3.3c-1,2.1-2.1,4.2-3.4,6.2c-0.6,1-1.3,2-2,2.9l-1.1,1.4
		l-1.2,1.3c-0.4,0.4-0.8,0.9-1.2,1.3l-1.3,1.2c-0.8,0.8-1.7,1.5-2.7,2.3c-0.9,0.8-1.8,1.4-2.8,2.1c-0.5,0.3-0.9,0.7-1.4,1l-1.5,0.9
		l-1.5,0.9l-1.5,0.8c-1,0.5-2,1.1-3.1,1.5c-1.1,0.4-2.1,1-3.2,1.4l-3.2,1.2c-1.1,0.4-2.2,0.7-3.3,1l-1.6,0.5l-1.7,0.4
		c-1.1,0.3-2.2,0.6-3.3,0.8l-3.4,0.7c-2.2,0.5-4.5,0.8-6.8,1.2l0.8-0.9c-0.3,2.3-0.8,4.6-1.6,6.9c-0.8,2.2-1.6,4.4-2.7,6.4
		c-1,2.1-2.3,4.1-3.5,6c-0.7,0.9-1.3,1.9-2,2.8c-0.7,0.9-1.4,1.8-2.2,2.7c-0.8,0.9-1.5,1.8-2.3,2.6c-0.8,0.8-1.6,1.7-2.5,2.4
		l-1.3,1.2l-1.3,1.1c-0.4,0.4-0.9,0.7-1.3,1.1l-1.4,1c-0.9,0.7-1.9,1.4-2.8,2c-0.9,0.7-1.9,1.2-2.9,1.8c-1,0.6-2,1.1-3,1.7
		c-1,0.6-2.1,1-3.1,1.5c-1,0.5-2.1,0.9-3.2,1.3c-1.1,0.4-2.2,0.8-3.3,1.1c-0.6,0.2-1.1,0.3-1.7,0.5l-1.7,0.4l-1.7,0.4l-1.7,0.3
		c-1.1,0.2-2.3,0.4-3.4,0.5c-1.1,0.1-2.3,0.3-3.4,0.3c-1.2,0-2.3,0.1-3.5,0.1l-3.5-0.1c-2.3-0.2-4.6-0.3-6.9-0.7l-1.7-0.2l-1.7-0.4
		c-1.1-0.3-2.3-0.4-3.4-0.7l-3.3-0.9c-1.1-0.3-2.2-0.7-3.3-1.1l-1.6-0.6c-0.5-0.2-1.1-0.4-1.6-0.6l-3.2-1.3l0.6-0.3
		c-0.1,1.1-0.3,2.2-0.6,3.2l-0.3,0.8l-0.4,0.7c-0.2,0.5-0.5,0.9-0.8,1.4c-0.3,0.5-0.7,0.8-1,1.3c-0.4,0.4-0.8,0.8-1.2,1.1
		c-0.8,0.7-1.7,1.3-2.6,1.9c-0.5,0.3-0.9,0.5-1.4,0.7c-0.5,0.2-1,0.4-1.5,0.6c-1,0.4-2,0.6-3.1,0.8c-1,0.2-2.1,0.3-3.2,0.4
		c-0.5,0-1.1,0-1.6,0c-0.5,0-1.1-0.1-1.6-0.1c-0.5-0.1-1.1-0.2-1.6-0.2c-0.5-0.1-1-0.2-1.6-0.3c-0.5-0.1-1-0.3-1.5-0.5
		c-0.5-0.2-1-0.4-1.5-0.6c-1-0.4-1.9-0.9-2.8-1.5c-0.9-0.6-1.8-1.2-2.6-1.9c-0.4-0.3-0.8-0.7-1.2-1.1c-0.4-0.4-0.8-0.7-1.1-1.2
		c-0.7-0.8-1.3-1.7-1.9-2.5c-0.5-0.9-1.1-1.8-1.5-2.8c-0.5-0.9-0.8-1.9-1.2-2.9c0.4,1,0.8,2,1.3,2.9c0.4,1,1,1.8,1.6,2.7
		c0.6,0.9,1.2,1.7,1.9,2.5c0.3,0.4,0.7,0.8,1.1,1.1c0.4,0.4,0.8,0.7,1.2,1.1c0.8,0.7,1.7,1.3,2.6,1.8c0.9,0.5,1.8,1,2.8,1.4
		c0.5,0.2,1,0.4,1.5,0.5c0.5,0.1,1,0.3,1.5,0.4c0.5,0.1,1,0.2,1.5,0.3c0.5,0.1,1,0.1,1.6,0.2c0.5,0,1,0.1,1.6,0.1c0.5,0,1,0,1.6,0
		c1-0.1,2.1-0.2,3.1-0.4c1-0.2,2-0.5,3-0.9c0.5-0.2,1-0.4,1.4-0.6c0.5-0.2,0.9-0.4,1.4-0.7c0.9-0.5,1.7-1.1,2.5-1.8
		c0.4-0.3,0.7-0.7,1.1-1.1c0.3-0.4,0.7-0.8,0.9-1.2c0.3-0.4,0.6-0.9,0.8-1.3l0.3-0.7l0.3-0.7c0.3-1,0.5-2,0.6-3
		c0-0.2,0.2-0.4,0.4-0.4c0,0,0.1,0,0.1,0l3.2,1.2c0.5,0.2,1.1,0.4,1.6,0.6l1.6,0.5c1.1,0.3,2.2,0.7,3.2,1l3.3,0.9
		c1.1,0.3,2.2,0.5,3.3,0.7l1.7,0.3l1.7,0.2c2.2,0.4,4.5,0.5,6.8,0.6l3.4,0c1.1,0,2.3-0.1,3.4-0.2c1.1,0,2.2-0.2,3.4-0.4
		c1.1-0.1,2.2-0.3,3.3-0.5l1.7-0.3l1.6-0.4l1.6-0.4l1.6-0.5c1.1-0.3,2.1-0.7,3.2-1.1c1.1-0.4,2.1-0.8,3.1-1.3c1-0.5,2.1-0.9,3-1.5
		c1-0.5,2-1,3-1.6c1-0.6,1.9-1.1,2.9-1.8c0.9-0.6,1.9-1.3,2.8-2l1.3-1c0.4-0.4,0.9-0.7,1.3-1.1l1.3-1.1l1.2-1.2
		c0.8-0.8,1.6-1.6,2.4-2.4c0.8-0.8,1.5-1.7,2.3-2.5c0.8-0.8,1.4-1.8,2.1-2.6c0.7-0.9,1.3-1.8,2-2.7c1.2-1.9,2.4-3.8,3.4-5.8
		c1-2,1.8-4.1,2.6-6.2c0.7-2.1,1.2-4.3,1.4-6.5c0.1-0.4,0.4-0.8,0.8-0.9l0,0c2.2-0.4,4.5-0.7,6.7-1.2l3.3-0.7
		c1.1-0.3,2.2-0.6,3.3-0.8l1.6-0.4l1.6-0.5c1.1-0.3,2.1-0.7,3.2-1l3.1-1.2c1-0.4,2-0.9,3.1-1.3c1-0.4,2-1,3-1.5l1.5-0.8l1.4-0.9
		l1.4-0.9c0.5-0.3,0.9-0.6,1.4-0.9c0.9-0.6,1.8-1.3,2.7-2c0.9-0.7,1.7-1.4,2.5-2.2l1.2-1.1c0.4-0.4,0.7-0.8,1.1-1.2l1.1-1.2l1-1.3
		c0.7-0.9,1.3-1.8,1.9-2.7c1.2-1.8,2.2-3.8,3.1-5.8c0.4-1,0.8-2.1,1.2-3.1c0.3-1.1,0.7-2.1,1-3.2c0.3-1.1,0.6-2.1,0.7-3.2l0.3-1.6
		l0.2-1.7c0.3-2.2,0.5-4.4,0.6-6.7c0-1.1,0-2.2,0.1-3.4c0-1.1,0-2.2-0.1-3.4c-0.1-2.2-0.3-4.5-0.5-6.7c-0.2-2.2-0.5-4.5-0.8-6.7
		c-0.3-2.2-0.7-4.5-1.1-6.7c-0.1-0.6,0.2-1.2,0.8-1.4l0,0c2.4-1,4.8-2,7.1-3.1c2.3-1.1,4.7-2.2,6.9-3.5c1.1-0.6,2.3-1.2,3.4-1.9
		l3.3-2c1.1-0.6,2.2-1.4,3.2-2.1c1.1-0.7,2.1-1.4,3.1-2.2l3-2.4l2.9-2.5c1.9-1.8,3.7-3.5,5.3-5.5c0.4-0.5,0.9-0.9,1.2-1.5l1.2-1.5
		c0.4-0.5,0.8-1,1.1-1.5l1-1.6c0.3-0.5,0.7-1.1,1-1.6l0.9-1.7c0.3-0.6,0.6-1.1,0.9-1.7l0.8-1.7c1.1-2.3,1.8-4.7,2.5-7.2
		c0.3-1.2,0.5-2.5,0.8-3.7c0.2-1.3,0.4-2.5,0.5-3.8c0.2-2.5,0.2-5.1,0-7.6c-0.1-2.5-0.6-5.1-1-7.6c-0.3-1.2-0.6-2.5-0.9-3.7
		c-0.4-1.2-0.7-2.5-1.1-3.7c-0.4-1.2-0.8-2.4-1.3-3.6c-0.4-1.2-1-2.4-1.5-3.6c-0.5-1.2-1.1-2.3-1.6-3.5c-0.6-1.1-1.1-2.3-1.8-3.4
		c-1.2-2.3-2.5-4.5-3.9-6.7c-0.4-0.7-0.2-1.6,0.5-2.1l0,0l0,0l2.3-1.4c0.8-0.5,1.5-1,2.2-1.5c1.5-1.1,2.9-2.1,4.3-3.3
		c0.7-0.6,1.4-1.2,2-1.8c0.7-0.6,1.3-1.2,1.9-1.9l0.9-1l0.9-1c0.6-0.7,1.2-1.3,1.8-2.1c0.6-0.7,1.1-1.4,1.7-2.1
		c0.5-0.7,1.1-1.4,1.6-2.2c1-1.5,1.9-3,2.8-4.6c1.7-3.2,3.1-6.5,4.1-9.9c0.5-1.7,0.9-3.5,1.1-5.2c0.1-0.9,0.3-1.8,0.3-2.7
		c0.1-0.9,0.1-1.8,0.1-2.7l0-1.3l-0.1-1.3c0-0.9-0.2-1.8-0.3-2.6c-0.3-1.7-0.7-3.4-1.3-5.1c-0.3-0.8-0.7-1.6-1-2.4
		c-0.4-0.8-0.8-1.6-1.2-2.3c-0.5-0.7-0.9-1.5-1.5-2.2c-0.6-0.7-1.1-1.4-1.7-2.1c-0.6-0.6-1.2-1.3-1.8-1.9c-0.7-0.6-1.3-1.2-2-1.7
		c-0.7-0.5-1.4-1.1-2.1-1.6l-2.3-1.4l0,0c-0.5-0.3-0.7-0.9-0.6-1.4c0.3-1.8,0.7-3.7,0.9-5.5c0.3-1.8,0.5-3.7,0.7-5.5
		c0.2-1.9,0.3-3.7,0.4-5.6c0.1-0.9,0.1-1.9,0.1-2.8c0-0.9,0-1.9,0-2.8c0-1.9-0.2-3.7-0.4-5.5c-0.2-1.8-0.5-3.6-0.9-5.4
		c-0.2-0.9-0.4-1.8-0.7-2.7l-0.4-1.3l-0.5-1.3c-0.6-1.7-1.4-3.4-2.2-5c-0.4-0.8-0.9-1.6-1.4-2.4c-0.5-0.7-1-1.5-1.6-2.2
		c-0.6-0.7-1.1-1.5-1.7-2.1l-0.9-1l-1-1c-1.3-1.3-2.7-2.5-4.1-3.6c-0.7-0.5-1.5-1.1-2.2-1.6c-0.8-0.5-1.5-1-2.3-1.5
		c-3.1-1.9-6.5-3.6-9.9-5.1c-1.7-0.7-3.4-1.4-5.2-2.1c-1.7-0.7-3.5-1.3-5.3-1.8c-0.3-0.1-0.6-0.3-0.7-0.6l0,0l-1.4-2.5l-0.7-1.3
		l-0.8-1.2c-0.5-0.8-1.1-1.6-1.6-2.4l-1.8-2.3c-0.6-0.8-1.3-1.4-1.9-2.2l-1-1.1c-0.3-0.4-0.7-0.7-1-1c-0.7-0.6-1.4-1.3-2.1-1.9
		l-2.3-1.8l-2.4-1.6c-0.8-0.5-1.7-0.9-2.5-1.4c-0.8-0.5-1.7-0.8-2.6-1.2c-0.9-0.4-1.8-0.7-2.7-1l-1.4-0.5l-1.4-0.4l-1.4-0.4
		c-0.5-0.1-0.9-0.2-1.4-0.3c-0.9-0.2-1.9-0.4-2.8-0.5c-1-0.1-1.9-0.3-2.9-0.3c-1.9-0.2-3.8-0.2-5.8-0.2c-1.9,0-3.9,0.2-5.8,0.4
		c-1.9,0.2-3.8,0.5-5.7,0.9c-1.9,0.4-3.8,0.8-5.7,1.3c-1.9,0.5-3.7,1.1-5.6,1.7c-1.8,0.6-3.7,1.3-5.5,2.1c-3.6,1.5-7.1,3.2-10.5,5.1
		c-0.4,0.2-0.8,0.1-1.1-0.1l0,0l-3.5-3.2c-1.2-1-2.5-1.9-3.7-2.9c-1.3-0.8-2.6-1.7-4-2.5l-2.1-1.1c-0.7-0.4-1.4-0.7-2.1-1
		c-1.5-0.6-2.9-1.3-4.4-1.7l-2.2-0.7c-0.7-0.2-1.5-0.4-2.3-0.5l-2.3-0.5l-2.3-0.3c-0.8-0.1-1.6-0.2-2.3-0.3l-2.4-0.1
		c-1.6-0.1-3.1,0-4.7,0c-1.6,0-3.1,0.2-4.7,0.4c-1.6,0.1-3.1,0.4-4.7,0.7c-1.6,0.2-3.1,0.6-4.6,1c-0.8,0.2-1.5,0.3-2.3,0.6l-2.3,0.7
		l-2.3,0.7c-0.8,0.2-1.5,0.5-2.3,0.8c-1.5,0.5-3,1-4.5,1.6l-4.4,1.7c-0.1,0-0.2,0-0.3,0l0,0l-4.1-1.1l-2.1-0.5l-1-0.3l-1-0.2
		l-4.2-0.7c-0.7-0.1-1.4-0.3-2.1-0.3l-2.1-0.2c-1.4-0.1-2.8-0.3-4.3-0.3l-4.3,0c-0.7,0-1.4,0-2.1,0l-2.1,0.2l-2.1,0.2l-1.1,0.1
		l-1.1,0.2l-4.2,0.7l-4.2,1c-1.4,0.3-2.7,0.8-4.1,1.2c-1.4,0.4-2.7,0.9-4,1.4c-1.3,0.5-2.6,1.1-3.9,1.7c-1.3,0.6-2.6,1.3-3.8,1.9
		c-1.2,0.7-2.5,1.4-3.7,2.2C531.1,117.2,529.9,118,528.8,118.9"/>
	<path clip-path="url(#SVGID_2_)" fill="#282726" d="M559.5,84.9c2.2-1.9,4.5-3.6,6.9-5.4c2.4-1.7,4.8-3.3,7.2-4.9
		c4.9-3.1,10-6,15.3-8.3c1.3-0.6,2.7-1.2,4-1.7c1.4-0.5,2.7-1,4.1-1.5c0.7-0.2,1.4-0.4,2.1-0.6l2.1-0.6c1.4-0.3,2.8-0.7,4.3-0.9
		c1.4-0.3,2.9-0.4,4.4-0.6l2.2-0.1c0.7,0,1.5,0,2.2,0c0.7,0,1.5,0.1,2.2,0.1c0.7,0.1,1.5,0.1,2.2,0.3c0.7,0.1,1.5,0.2,2.2,0.4
		l2.1,0.6l-0.3,0c5.5-2.6,11-5.1,16.7-7.4c1.4-0.6,2.8-1.1,4.3-1.6c1.4-0.5,2.9-1,4.4-1.4c1.5-0.4,2.9-0.9,4.4-1.2
		c1.5-0.4,3-0.7,4.5-0.9c1.5-0.2,3-0.4,4.6-0.5c1.5-0.1,3.1-0.1,4.6-0.1l2.3,0.2c0.8,0.1,1.5,0.2,2.3,0.3c1.5,0.3,3,0.6,4.5,1.1
		c1.5,0.5,2.9,1.1,4.3,1.7c0.7,0.3,1.4,0.7,2.1,1.1c0.7,0.4,1.3,0.8,2,1.2c1.3,0.8,2.5,1.8,3.7,2.8c0.6,0.5,1.2,1,1.7,1.5l1.7,1.6
		l-0.9-0.2c6.4-2.6,12.8-4.9,19.5-6.6c1.7-0.4,3.4-0.8,5.1-1.1c1.7-0.3,3.4-0.5,5.2-0.7l2.6-0.2c0.9,0,1.7,0,2.6,0
		c1.7,0,3.5,0.2,5.2,0.4c0.9,0.1,1.7,0.3,2.6,0.5c0.9,0.2,1.7,0.4,2.5,0.7c1.7,0.5,3.3,1.2,4.9,2c0.8,0.4,1.5,0.9,2.3,1.4
		c0.7,0.5,1.5,1,2.1,1.6c1.4,1.1,2.7,2.3,3.9,3.6c1.2,1.3,2.3,2.7,3.3,4.1c0.5,0.7,1,1.4,1.4,2.2l1.3,2.3c0.8,1.5,1.6,3.1,2.3,4.7
		c0.7,1.6,1.3,3.2,1.9,4.8l-1.1-0.7c8.1-0.8,16.3-1.8,24.6-1.5c2.1,0.1,4.1,0.2,6.2,0.5c2.1,0.2,4.1,0.6,6.2,1.1c1,0.2,2,0.5,3,0.8
		c1,0.3,2,0.7,3,1c2,0.8,3.9,1.6,5.7,2.7c0.9,0.5,1.8,1,2.7,1.7l1.3,0.9c0.4,0.3,0.8,0.7,1.2,1l1.2,1l1.2,1.1
		c0.4,0.4,0.8,0.7,1.1,1.1l1.1,1.2c0.4,0.4,0.7,0.8,1.1,1.2l1,1.2l1,1.2l0.9,1.3l0.9,1.3c0.3,0.4,0.5,0.9,0.8,1.3
		c0.5,0.9,1.1,1.8,1.5,2.7c0.5,0.9,1,1.8,1.4,2.8l1.3,2.9c0.4,1,0.7,1.9,1.1,2.9l0.5,1.5l0.5,1.5c0.3,1,0.6,2,0.9,3l0.8,3
		c0.5,2,0.9,4,1.3,6l-0.5-0.8l2.5,2.2l2.5,2.3c0.8,0.8,1.6,1.6,2.4,2.4c0.8,0.8,1.5,1.7,2.3,2.5c1.5,1.7,2.9,3.4,4.3,5.2
		c1.3,1.8,2.6,3.6,3.8,5.5c2.4,3.8,4.5,7.8,6.3,11.9c0.9,2.1,1.6,4.2,2.3,6.3c0.3,1.1,0.6,2.2,1,3.2c0.3,1.1,0.5,2.2,0.8,3.3
		l0.7,3.3l0.5,3.3l0.3,3.4l0.2,3.4c0,1.1,0,2.3,0,3.4c0,1.1-0.1,2.3-0.1,3.4c-0.1,1.1-0.2,2.3-0.3,3.4c-0.2,1.1-0.3,2.2-0.5,3.4
		c-0.4,2.2-0.8,4.4-1.4,6.6c-0.6,2.2-1.3,4.3-2,6.5c-0.4,1-0.8,2.1-1.2,3.1c-0.5,1-0.9,2.1-1.4,3.1l-1.5,3l-1.6,3l-0.1-1.6
		c1.4,2,2.7,4,3.8,6.2c1.2,2.1,2.1,4.3,3.1,6.5c0.4,1.1,0.9,2.2,1.3,3.4c0.4,1.1,0.8,2.3,1.1,3.4c0.7,2.3,1.3,4.6,1.8,7
		c0.5,2.3,0.9,4.7,1.1,7.1c0.1,1.2,0.3,2.4,0.3,3.6c0.1,1.2,0.2,2.4,0.2,3.6c0,1.2,0,2.4,0,3.6c0,1.2-0.1,2.4-0.2,3.6
		c-0.1,1.2-0.2,2.4-0.4,3.6c-0.2,1.2-0.3,2.4-0.6,3.6c-0.2,1.2-0.5,2.4-0.8,3.5l-0.5,1.8c-0.2,0.6-0.4,1.2-0.6,1.7l-0.6,1.7
		c-0.2,0.6-0.4,1.1-0.7,1.7c-0.4,1.1-0.9,2.2-1.5,3.3c-0.5,1.1-1.1,2.2-1.7,3.2c-0.6,1-1.2,2.1-1.9,3.1c-0.7,1-1.3,2-2.1,2.9
		c-0.8,0.9-1.5,1.9-2.3,2.8c-1.6,1.8-3.4,3.4-5.3,5l-2.9,2.2l-3,2c-1,0.7-2.1,1.2-3.1,1.8c-1,0.6-2.1,1.1-3.2,1.6
		c-2.2,1.1-4.4,1.8-6.7,2.7l0.9-1.7c0.8,3.2,1.6,6.3,2.3,9.5c0.7,3.2,1.3,6.4,1.8,9.6c0.3,1.6,0.5,3.2,0.7,4.9l0.3,2.4l0.2,2.4
		c0.2,1.6,0.3,3.3,0.4,4.9c0.1,1.6,0.1,3.3,0.2,4.9c0.1,3.3,0,6.5-0.2,9.8c-0.2,3.3-0.6,6.5-1.1,9.8c-0.3,1.6-0.6,3.2-0.9,4.8
		c-0.4,1.6-0.8,3.2-1.2,4.8c-0.5,1.6-1,3.1-1.5,4.7c-0.6,1.5-1.1,3.1-1.8,4.6c-1.4,3-2.9,6-4.7,8.7c-0.9,1.4-1.8,2.8-2.8,4.1l-1.5,2
		c-0.5,0.6-1.1,1.2-1.6,1.9l-1.7,1.8l-1.8,1.7c-0.6,0.6-1.2,1.1-1.8,1.7l-1.9,1.6c-0.6,0.5-1.3,1.1-1.9,1.5l-2,1.4
		c-0.7,0.5-1.4,0.9-2.1,1.4l-2.1,1.2l-2.1,1.2l-2.2,1.1c-1.5,0.7-3,1.4-4.5,2l-2.3,0.9l-1.2,0.4l-1.2,0.4l-4.7,1.4l-4.8,1.1
		l-1.2,0.3l-1.2,0.2l-2.4,0.4l-2.4,0.4c-0.8,0.1-1.6,0.2-2.4,0.3l-4.9,0.5l1.1-1.3c0,2.2-0.1,4.4-0.4,6.6c-0.3,2.2-0.8,4.3-1.3,6.4
		c-0.3,1-0.6,2.1-1,3.1c-0.4,1-0.7,2.1-1.1,3.1c-0.8,2-1.7,4-2.7,6c-0.5,1-1,1.9-1.6,2.9c-0.5,1-1.1,1.9-1.7,2.8l-0.9,1.4l-0.9,1.3
		l-0.9,1.3l-1,1.3l-1,1.3l-1.1,1.3l-1.1,1.3l-1.1,1.2l-1.1,1.2l-1.2,1.1c-0.8,0.8-1.6,1.5-2.4,2.2c-0.8,0.7-1.6,1.5-2.5,2.1
		c-0.8,0.7-1.7,1.4-2.6,2c-0.9,0.6-1.8,1.3-2.7,1.9c-0.9,0.6-1.8,1.2-2.8,1.7c-1.9,1.1-3.8,2.1-5.8,3c-1,0.4-2,0.9-3,1.3
		c-1,0.4-2.1,0.7-3.1,1.1l-3.1,0.9l-3.2,0.7c-2.1,0.4-4.3,0.7-6.5,0.8c-1.1,0.1-2.2,0.1-3.3,0.1l-1.6,0c-0.5,0-1.1,0-1.6-0.1
		c-2.2,0-4.3-0.3-6.5-0.6l0.9-0.5c-1,1.9-2.1,3.8-3.4,5.5c-1.3,1.7-2.7,3.3-4.2,4.8c-1.5,1.5-3.1,2.9-4.8,4.2
		c-1.7,1.3-3.4,2.6-5.2,3.7c-0.9,0.6-1.8,1.1-2.7,1.7c-0.9,0.5-1.8,1.1-2.8,1.5c-0.9,0.5-1.9,1-2.8,1.4c-1,0.5-1.9,0.9-2.9,1.3
		c-1,0.4-2,0.8-3,1.2c-1,0.4-2,0.7-3,1c-1,0.3-2,0.6-3,0.9c-1,0.3-2,0.6-3.1,0.8c-2.1,0.5-4.1,0.8-6.2,1.1c-2.1,0.3-4.2,0.4-6.3,0.5
		c-1.1,0-2.1,0-3.2,0l-3.2-0.1l-3.2-0.3c-1-0.1-2.1-0.3-3.1-0.5c-2.1-0.4-4.1-0.9-6.2-1.5c-1-0.3-2-0.7-3-1c-1-0.3-2-0.8-2.9-1.2
		l-1.5-0.6l-1.4-0.7c-0.9-0.5-1.9-0.9-2.8-1.5c-0.9-0.6-1.8-1.1-2.7-1.7l-2.6-1.8l0.3,0.1c-4.7,0.7-9.4,1.8-14.1,2.9
		c-2.3,0.5-4.7,1-7.1,1.4c-1.2,0.2-2.4,0.3-3.6,0.4c-1.2,0.1-2.4,0.1-3.6,0c-1.2-0.1-2.4-0.2-3.6-0.6c-1.2-0.3-2.3-0.8-3.4-1.3
		c-1-0.6-2.1-1.3-2.9-2.1c-0.5-0.4-0.9-0.8-1.3-1.3c-0.4-0.4-0.8-0.9-1.2-1.4c-0.4-0.5-0.7-1-1-1.5c-0.3-0.5-0.6-1-0.9-1.6
		c-0.3-0.5-0.6-1.1-0.8-1.6c-0.3-0.5-0.5-1.1-0.8-1.6l-0.7-1.7l-0.6-1.7c-0.4-1.1-0.7-2.3-1.1-3.4c0.4,1.1,0.7,2.3,1.1,3.4l0.6,1.7
		l0.7,1.7c0.2,0.6,0.5,1.1,0.8,1.6c0.3,0.5,0.5,1.1,0.8,1.6c0.3,0.5,0.6,1,0.9,1.5c0.3,0.5,0.7,1,1,1.5c0.4,0.5,0.7,0.9,1.2,1.4
		c0.4,0.4,0.8,0.9,1.3,1.3c0.9,0.8,1.9,1.5,2.9,2c1.1,0.5,2.2,1,3.3,1.3c1.2,0.3,2.3,0.4,3.5,0.5c1.2,0,2.4,0,3.6-0.1
		c1.2-0.1,2.4-0.3,3.6-0.5c2.4-0.4,4.7-0.9,7-1.5c4.7-1.1,9.4-2.3,14.1-3c0.1,0,0.2,0,0.3,0.1l0,0l2.6,1.8c0.9,0.6,1.8,1.1,2.7,1.6
		c0.9,0.6,1.8,1,2.7,1.5l1.4,0.7l1.4,0.6c1,0.4,1.9,0.8,2.9,1.1c1,0.3,2,0.7,3,1c2,0.6,4,1,6.1,1.4c1,0.1,2.1,0.3,3.1,0.4l3.1,0.3
		l3.1,0.1c1,0,2.1,0,3.1-0.1c2.1-0.1,4.1-0.3,6.2-0.6c2.1-0.3,4.1-0.7,6.1-1.2c1-0.2,2-0.5,3-0.8c1-0.3,2-0.6,3-0.9
		c1-0.3,2-0.7,2.9-1c1-0.3,1.9-0.8,2.9-1.2c1-0.4,1.9-0.8,2.8-1.3c0.9-0.4,1.9-0.9,2.8-1.4c0.9-0.5,1.8-1,2.7-1.5
		c0.9-0.5,1.8-1.1,2.6-1.6c1.7-1.1,3.4-2.3,5-3.6c1.6-1.3,3.1-2.7,4.6-4.1c1.4-1.5,2.8-3,4-4.7c1.3-1.6,2.3-3.4,3.2-5.2
		c0.2-0.3,0.5-0.5,0.9-0.5l0,0c2.1,0.2,4.2,0.5,6.3,0.5c0.5,0,1.1,0.1,1.6,0l1.6,0c1.1,0,2.1,0,3.2-0.2c2.1-0.1,4.2-0.5,6.3-0.9
		l3.1-0.7l3-0.9c1-0.3,2-0.7,3-1.1c1-0.4,1.9-0.8,2.9-1.2c1.9-0.9,3.8-1.8,5.6-2.9c0.9-0.5,1.8-1.1,2.7-1.7c0.9-0.6,1.7-1.2,2.6-1.8
		c0.9-0.6,1.7-1.3,2.5-2c0.8-0.7,1.6-1.4,2.4-2.1c0.8-0.7,1.5-1.4,2.3-2.2l1.1-1.1l1.1-1.2l1.1-1.2l1-1.2l1-1.2l1-1.3l1-1.3l0.9-1.3
		l0.9-1.3l0.8-1.3c0.6-0.9,1.1-1.8,1.6-2.7c0.5-0.9,1-1.9,1.5-2.8c1-1.9,1.8-3.8,2.6-5.8c0.4-1,0.7-2,1.1-3c0.3-1,0.6-2,0.9-3
		c0.5-2,1-4.1,1.2-6.2c0.3-2.1,0.4-4.2,0.4-6.2c0-0.6,0.5-1.2,1.1-1.3l0,0l4.8-0.6c0.8-0.1,1.6-0.2,2.4-0.3l2.4-0.4l2.4-0.4l1.2-0.2
		l1.2-0.3l4.7-1.1l4.6-1.4l1.1-0.4l1.1-0.4l2.2-0.9c1.5-0.5,2.9-1.2,4.4-1.9l2.1-1l2.1-1.2l2.1-1.2c0.7-0.4,1.3-0.9,2-1.3l2-1.3
		c0.6-0.5,1.2-1,1.9-1.5l1.8-1.5c0.6-0.5,1.2-1.1,1.7-1.6l1.7-1.6l1.6-1.8c0.5-0.6,1.1-1.2,1.6-1.8l1.4-1.9c1-1.2,1.8-2.6,2.7-3.9
		c1.7-2.7,3.2-5.5,4.4-8.4c0.7-1.4,1.2-3,1.8-4.4c0.5-1.5,1-3,1.5-4.5c0.4-1.5,0.8-3.1,1.2-4.6c0.3-1.6,0.6-3.1,0.9-4.7
		c0.5-3.2,0.9-6.3,1.1-9.5c0.2-3.2,0.3-6.4,0.2-9.6c0-1.6-0.1-3.2-0.2-4.8c-0.1-1.6-0.2-3.2-0.4-4.8l-0.2-2.4l-0.3-2.4
		c-0.2-1.6-0.4-3.2-0.7-4.8c-0.5-3.2-1.1-6.3-1.8-9.5c-0.7-3.1-1.5-6.3-2.3-9.3c-0.2-0.7,0.2-1.4,0.9-1.7l0.1,0
		c2.1-0.8,4.3-1.6,6.4-2.6c1-0.5,2.1-1,3.1-1.5c1-0.6,2-1.1,3-1.7l2.9-1.9l2.7-2.1c1.7-1.5,3.4-3,4.9-4.7c0.8-0.8,1.5-1.7,2.2-2.6
		c0.7-0.9,1.4-1.8,2-2.8c0.7-0.9,1.2-1.9,1.8-2.9c0.6-1,1.1-2,1.6-3c0.5-1,1-2.1,1.4-3.1c0.2-0.5,0.4-1.1,0.6-1.6l0.5-1.6
		c0.2-0.5,0.4-1.1,0.5-1.6l0.4-1.7c0.3-1.1,0.5-2.2,0.8-3.4c0.2-1.1,0.4-2.3,0.6-3.4c0.2-1.1,0.3-2.3,0.4-3.4
		c0.1-1.1,0.2-2.3,0.2-3.4c0.1-1.1,0-2.3,0-3.5c0-1.2-0.1-2.3-0.1-3.5c0-1.2-0.2-2.3-0.3-3.4c-0.2-2.3-0.6-4.6-1.1-6.8
		c-0.5-2.3-1-4.5-1.7-6.7c-0.3-1.1-0.7-2.2-1.1-3.3c-0.4-1.1-0.8-2.2-1.2-3.2c-0.9-2.1-1.8-4.2-2.9-6.3c-1-2-2.3-4-3.6-5.8
		c-0.3-0.5-0.3-1.1-0.1-1.6l1.6-2.8l1.5-2.9c0.5-1,0.9-2,1.3-3c0.4-1,0.8-2,1.2-3c0.7-2,1.4-4.1,2-6.2c0.6-2.1,1-4.2,1.4-6.3
		c0.2-1.1,0.3-2.1,0.5-3.2c0.1-1.1,0.2-2.2,0.3-3.2c0.1-1.1,0.1-2.2,0.1-3.2c0-1.1,0-2.2,0-3.2l-0.2-3.2l-0.3-3.2l-0.5-3.2l-0.6-3.2
		c-0.3-1.1-0.5-2.1-0.8-3.2c-0.3-1-0.6-2.1-0.9-3.1c-0.7-2.1-1.4-4.1-2.2-6.1c-1.7-4-3.7-7.9-6-11.5c-1.2-1.8-2.4-3.6-3.7-5.4
		c-1.3-1.7-2.7-3.4-4.1-5.1c-0.7-0.8-1.4-1.6-2.2-2.4c-0.8-0.8-1.5-1.6-2.3-2.3l-2.4-2.2l-2.5-2.1c-0.2-0.2-0.4-0.5-0.4-0.7l0,0
		c-0.4-2-0.8-4-1.3-5.9l-0.8-2.9c-0.3-1-0.6-1.9-0.9-2.9l-0.4-1.4l-0.5-1.4c-0.4-0.9-0.7-1.9-1.1-2.8l-1.2-2.7
		c-0.4-0.9-0.9-1.8-1.3-2.7c-0.4-0.9-1-1.7-1.5-2.6c-0.3-0.4-0.5-0.9-0.8-1.3l-0.8-1.2l-0.8-1.2l-0.9-1.2l-0.9-1.2
		c-0.3-0.4-0.7-0.7-1-1.1l-1-1.1c-0.3-0.4-0.7-0.7-1.1-1l-1.1-1l-1.2-0.9c-0.4-0.3-0.8-0.6-1.2-0.9l-1.2-0.8
		c-0.8-0.6-1.7-1.1-2.5-1.6c-1.7-1-3.5-1.8-5.3-2.6c-0.9-0.3-1.9-0.7-2.8-1c-1-0.3-1.9-0.6-2.9-0.8c-1.9-0.5-3.9-0.8-5.9-1.1
		c-2-0.3-4-0.4-6-0.5c-2-0.1-4-0.1-6-0.1c-2,0.1-4,0.1-6.1,0.3c-4,0.3-8.1,0.7-12.1,1.1c-0.5,0-1-0.3-1.1-0.7l0,0
		c-0.6-1.6-1.1-3.2-1.8-4.7c-0.6-1.6-1.4-3.1-2.1-4.5l-1.2-2.2c-0.4-0.7-0.9-1.4-1.4-2.1c-1-1.4-2-2.7-3.1-3.9
		c-1.1-1.2-2.3-2.4-3.6-3.4c-0.6-0.5-1.3-1-2-1.5c-0.7-0.4-1.4-0.9-2.1-1.3c-1.5-0.8-3-1.4-4.5-1.9c-0.8-0.3-1.6-0.5-2.4-0.7
		c-0.8-0.2-1.6-0.4-2.4-0.5c-1.6-0.3-3.3-0.4-5-0.5c-0.8,0-1.7,0-2.5,0l-2.5,0.2c-1.7,0.2-3.3,0.4-5,0.6c-1.7,0.3-3.3,0.6-5,1
		c-6.6,1.6-13,3.9-19.3,6.4c-0.3,0.1-0.7,0-0.9-0.2l0,0l-1.6-1.6c-0.5-0.5-1.1-1-1.7-1.5c-1.1-1-2.3-1.9-3.6-2.7
		c-0.6-0.4-1.3-0.8-1.9-1.2c-0.6-0.4-1.3-0.7-2-1.1c-1.3-0.7-2.7-1.2-4.1-1.7c-1.4-0.5-2.8-0.8-4.3-1.1c-0.7-0.1-1.5-0.2-2.2-0.3
		l-2.2-0.2c-1.5-0.1-3-0.1-4.5,0c-1.5,0.1-3,0.2-4.5,0.5c-1.5,0.2-3,0.5-4.4,0.8c-1.5,0.3-2.9,0.7-4.4,1.1c-1.5,0.4-2.9,0.9-4.3,1.4
		c-1.4,0.5-2.9,1-4.3,1.5c-5.7,2.2-11.2,4.7-16.7,7.2c-0.1,0-0.2,0-0.3,0l0,0l-2.1-0.6c-0.7-0.2-1.4-0.3-2.1-0.4
		c-0.7-0.2-1.4-0.2-2.1-0.3c-0.7-0.1-1.4-0.2-2.1-0.2c-0.7,0-1.4-0.1-2.2,0l-2.2,0.1c-1.4,0.1-2.9,0.2-4.3,0.5
		c-1.4,0.2-2.8,0.5-4.3,0.8l-2.1,0.5c-0.7,0.2-1.4,0.4-2.1,0.6c-1.4,0.4-2.8,0.9-4.1,1.4c-1.4,0.5-2.7,1-4,1.6
		c-5.3,2.3-10.4,5.1-15.4,8.1c-2.5,1.5-4.9,3.1-7.3,4.8C564,81.4,561.7,83.1,559.5,84.9"/>
	<path clip-path="url(#SVGID_2_)" fill="#282726" d="M141.8,157.3c0,0,0-0.6-0.1-1.6c0-1-0.1-2.6,0-4.5c0.1-3.9,0.4-9.5,1.7-16.1
		c0.7-3.3,1.6-6.9,3.1-10.5c1.5-3.6,3.6-7.5,7-10.5c1.7-1.5,3.8-2.8,6.1-3.5c2.1-0.7,4.3-1.3,6.4-1.7c4.3-1,8.7-1.8,13.1-2.6
		c4.4-0.8,8.7-1.6,13-2.4c4.3-0.9,8.5-1.7,12.5-2.6c4-1,7.9-2,11.4-3.2c3.5-1.2,6.8-2.5,9.6-4.1c2.8-1.6,5.1-3.4,6.5-5.5
		c0.7-1.1,1.2-2.2,1.4-3.2c0.2-1.1,0.3-2.1,0.2-3c-0.2-1.9-0.8-3.3-1.2-4.3c-0.4-0.9-0.7-1.4-0.7-1.4s0.3,0.4,0.9,1.3
		c0.5,0.9,1.3,2.3,1.7,4.2c0.2,1,0.3,2.1,0.2,3.4c-0.1,1.2-0.6,2.6-1.2,3.8c-1.4,2.6-3.8,4.8-6.7,6.7c-2.9,1.9-6.2,3.5-9.8,4.9
		c-3.6,1.4-7.5,2.7-11.6,3.8c-4.1,1.1-8.3,2.1-12.6,3c-4.3,0.9-8.7,1.7-13,2.5c-4.4,0.8-8.7,1.5-13,2.4c-2.1,0.5-4.2,0.9-6.1,1.5
		c-1.8,0.6-3.4,1.5-4.9,2.7c-2.9,2.4-5,5.7-6.6,9c-1.6,3.3-2.7,6.7-3.6,9.9c-1.7,6.3-2.6,11.8-3.1,15.7
		C142,155,141.8,157.3,141.8,157.3"/>
	<path clip-path="url(#SVGID_2_)" fill="#E8AE4A" d="M44.8,326.9c0,0,1.3,30.7,72.7-7.3c29.3-23.3,88.7-79.3,88.7-79.3
		s-39.3,77.3-144.7,115.3c-18,4.7-26.7-6.7-24-17.3C40.1,332.3,44.8,326.9,44.8,326.9"/>
	<path clip-path="url(#SVGID_2_)" fill="#E8AE4A" d="M584.8,66.3c0,0,59.3-39.3,132-41.3s181.3,32.7,184.7,196.7
		c-0.7,34-12.7,135.3-70.7,200c-58,64.7-120,129.3-204.7,118.7c64-10,218-62,260.7-278.7c6-71.3,2-210-148.7-230.7
		C679.5,26.3,610.8,46.9,584.8,66.3"/>
</g>
</svg>
