<?xml version="1.0" encoding="utf-8"?>
<!-- Generator: Adobe Illustrator 21.0.0, SVG Export Plug-In . SVG Version: 6.00 Build 0)  -->
<svg version="1.1" id="Calque_1" xmlns="http://www.w3.org/2000/svg" xmlns:xlink="http://www.w3.org/1999/xlink" x="0px" y="0px"
	 viewBox="0 0 255.4 356.4" style="enable-background:new 0 0 255.4 356.4;" xml:space="preserve">
<style type="text/css">
	.st0{fill:#FFFFFF;}
	.st1{fill:#C5B9B2;}
	.st2{fill:#E2001A;}
</style>
<g>
	<g>
		<path class="st0" d="M252.9,343.5c0,5.5-4.5,10-10,10H12.5c-5.5,0-10-4.5-10-10v-331c0-5.5,4.5-10,10-10h230.4c5.5,0,10,4.5,10,10
			V343.5z"/>
		<g>
			<path class="st1" d="M250.4,343.5c-0.6,9.3-11.3,7.5-17.7,7.5c-10.5,0-21,0-31.5,0c-31.4,0-62.9,0-94.3,0c-26.8,0-53.5,0-80.3,0
				c-4.7,0-9.3,0-14,0c-8.5,0-7.5-8.5-7.5-14.2c0-50.8,0-101.6,0-152.3C5,130.9,5,77.3,5,23.8c0-3.7,0-7.4,0-11.2
				C5,3.7,14.7,5,20.6,5c24.5,0,49,0,73.5,0c49.5,0,98.9,0,148.4,0c8.1,0,7.8,7.2,7.8,12.7c0,7.2,0,14.4,0,21.6
				c0,26.2,0,52.3,0,78.5c0,61.4,0,122.8,0,184.2C250.4,315.9,250.4,329.7,250.4,343.5c0,3.2,5,3.2,5,0c0-39.2,0-78.5,0-117.7
				c0-60.2,0-120.3,0-180.5c0-8.2,0-16.4,0-24.6c0-3.8,0.3-7.9-0.4-11.6C253-0.1,243.5,0,236.3,0c-9.4,0-18.9,0-28.3,0
				C149.1,0,90.3,0,31.5,0c-6.1,0-12.2,0-18.3,0C4.8,0,0,6.4,0,14.2c0,15.9,0,31.7,0,47.6C0,124,0,186.2,0,248.4
				c0,24.8,0,49.5,0,74.3c0,6.1,0,12.2,0,18.2c0,7.7,3.8,15.1,12.7,15.1c49.2,0,98.3,0,147.5,0c21.2,0,42.4,0,63.7,0
				c11.1,0,30.4,3.5,31.5-12.5C255.6,340.3,250.6,340.3,250.4,343.5z"/>
		</g>
	</g>
	<path class="st2" d="M234.1,218c0,8.7-7.1,15.8-15.8,15.8H36.9c-8.7,0-15.8-7.1-15.8-15.8V37c0-8.7,7.1-15.8,15.8-15.8h181.3
		c8.7,0,15.8,7.1,15.8,15.8V218z"/>
	<path class="st0" d="M19.8,192.8v41.7h39.7h102.7v-9c0,0-1.3-44.3,6.7-66.7s15.3-32.3,19.3-37.7c4-5.3,45.7-56.3,47.3-64.7
		c0,0,0-22.3-1.3-29c0,0-32.7,25.7-84.7,48s-47,22.7-47,22.7s3-5.7,2.7-11.3c-0.3-5.7-17-41-32.3-45.7c0,0-7.7-2.3-15.3,2
		c-7.7,4.3-18.3,15-17.7,24.7c0.7,9.7,8.7,28.3,17,34.3c8.3,6,9.3,6.7,28,6c0,0-29.6,18.2-45.8,38.5C39,146.7,23,163.8,19.8,192.8z"
		/>
	<path class="st1" d="M115,170.9c0,0,0-1.8,2.2-3s3.5-12.8,1-20.8s-6.8-27.3-18.2-27.5s-25.8,3.2-31.8,14.8s5.5,37,20.5,43.2l2,0.8
		c0,0-34.5,34.2-31.6,55.4h108.2c0,0-11.6-24.4-24.1-39.4c0,0-13.8-16.8-26.8-19.5L115,170.9z"/>
	<g>
		<path class="st2" d="M23.1,269.5V324h37.8c3.7-1.9,7.1-7,6.7-12.5H38.8v-61.4l-9.7,0C29.1,250.1,23.1,257.4,23.1,269.5"/>
		<path class="st2" d="M106.4,250.1H90.9c0,0-7.6,7.3-7.6,19.4V324h23c12.2,0,21.1-2.5,28.8-8.5c9.2-6.9,14.6-17.5,14.6-28.4
			C149.7,265.2,132,250.1,106.4,250.1 M124.8,305.6c-5,4.1-11.4,5.9-21.6,5.9H99v-48.9h4.2c10.2,0,16.4,1.7,21.6,6
			c5.5,4.4,8.7,11.3,8.7,18.4C133.6,294.1,130.3,301.2,124.8,305.6"/>
		<path class="st2" d="M219.3,252.1c-6.1-2.6-11.3-3.7-17.5-3.7c-23.8,0-42.9,17.1-42.9,38.6c0,21.7,18.6,38.5,42.5,38.5
			c6.8,0,12.6-1.2,19.7-4.3c0,0-3.6-9.9-4.9-13.1c-4.5,3-8.9,4.2-14.1,4.2c-15.9,0-27.1-10.5-27.1-25.5c0-14.2,11.6-25.4,26.4-25.4
			c3.4,0,6.5,0.5,9.4,1.6C213.9,261.9,218.4,257.2,219.3,252.1"/>
		<rect x="70.3" y="316.8" class="st2" width="7.1" height="7.1"/>
		<rect x="142.6" y="316.8" class="st2" width="7.1" height="7.1"/>
		<rect x="225" y="316.8" class="st2" width="7.1" height="7.1"/>
	</g>
</g>
</svg>
