<?xml version="1.0" encoding="utf-8"?>
<!-- Generator: Adobe Illustrator 17.1.0, SVG Export Plug-In . SVG Version: 6.00 Build 0)  -->
<!DOCTYPE svg PUBLIC "-//W3C//DTD SVG 1.1//EN" "http://www.w3.org/Graphics/SVG/1.1/DTD/svg11.dtd">
<svg version="1.1" id="Layer_1" xmlns="http://www.w3.org/2000/svg" xmlns:xlink="http://www.w3.org/1999/xlink" x="0px" y="0px"
	 viewBox="0 0 748.3 681.7" enable-background="new 0 0 748.3 681.7" xml:space="preserve">
<g>
	<defs>
		<rect id="SVGID_1_" width="748.3" height="681.7"/>
	</defs>
	<clipPath id="SVGID_2_">
		<use xlink:href="#SVGID_1_"  overflow="visible"/>
	</clipPath>
	<path clip-path="url(#SVGID_2_)" fill="#282726" d="M583.5,122.3c0.5,0.6,0.8,1.2,1.1,1.9c0.2,0.7,0.2,1.5-0.2,2.2
		c-0.2,0.4-0.5,0.6-0.8,0.9c-0.3,0.2-0.6,0.5-1,0.6c-0.3,0.1-0.7,0.3-1,0.5l-1.1,0.4c-2.9,0.9-6,1.4-9,2c-1.5,0.2-3.1,0.5-4.6,0.6
		c-1.5,0.2-3.1,0.4-4.6,0.4c-1.5,0.1-3.1,0.1-4.6,0.1c-1.5,0-3-0.1-4.5-0.3c-3-0.3-5.8-1-8.7-1.7c-2.9-0.7-5.7-1.3-8.6-2.1
		c-2.8-0.7-5.7-1.4-8.5-2.2c-2.8-0.7-5.7-1.5-8.5-2.3c-2.8-0.8-5.6-1.6-8.4-2.4c-2.8-0.8-5.6-1.6-8.4-2.5l-8.4-2.5l-8.3-2.6
		l-4.2-1.2c-1.4-0.4-2.7-0.7-4-1.1c-2.6-0.8-5.4-1.4-8.2-2.1c-5.5-1.3-11.1-2.5-16.7-3.5c-11.2-2.1-22.5-3.7-33.9-4.9
		c-11.4-1.2-22.8-2.1-34.2-2.6c-22.9-1-45.9-0.8-68.8,0.7c-22.9,1.5-45.7,4.4-68.2,8.8c-22.5,4.4-44.7,10.3-66.1,18.4
		c-21.4,8-42.1,18-61,30.6c-18.9,12.5-36.2,27.7-50.1,45.5c-14,17.7-24.5,38-30.9,59.5c-3.2,10.8-5.6,21.8-7,32.9
		c-0.6,5.6-1.2,11.1-1.6,17l-1.4,17.3l-2.8,34.7l-2.8,34.6c-1.9,23.1-3.9,46.1-5.5,69.1c-0.9,11.5-2.2,22.9-3.3,34.3
		c-0.6,5.7-1,11.4-1.2,17c-0.2,5.6,0,11.3,0.8,16.6c0.4,2.7,1,5.3,1.9,7.6c0.9,2.3,2.1,4.4,3.6,5.7c0.7,0.7,1.5,1.2,2.4,1.5
		c0.9,0.4,1.9,0.6,2.9,0.6c2.1,0.1,4.6-0.3,7.1-1.1c2.5-0.8,5-1.8,7.5-3c1.2-0.6,2.5-1.2,3.7-1.9l2-1.1l1.9-1c0.6-0.3,1.5-0.7,2.2-1
		l1.2-0.5l1.1-0.4c0.7-0.3,1.5-0.5,2.2-0.8l2.2-0.7c1.5-0.5,3-0.8,4.5-1.2c1.5-0.3,3-0.7,4.5-0.9c11.9-2.2,23.7-2.9,35.4-3.3
		c11.7-0.4,23.4-0.4,35-0.4c23.3,0,46.4,0,69.4-0.9l0,0.6c17.1,0.1,34.1-0.3,51-1.4c16.9-1.1,33.8-2.9,50.4-5.8
		c16.6-2.9,33-6.8,49-11.9c15.9-5.2,31.4-11.7,46.1-19.6l5.5-3c1.8-1,3.6-2.1,5.4-3.2c1.8-1,3.5-2.2,5.3-3.3
		c1.7-1.1,3.6-2.3,5.4-3.5l10.9-7l11-6.9c14.6-9.2,29.3-18.2,43.9-27.3c14.6-9.1,29.1-18.2,43.2-27.8c14.2-9.5,28-19.4,41.2-30
		c13.2-10.6,25.7-22,36.9-34.4c11.2-12.4,21.1-25.9,28.8-40.5c7.7-14.6,13.2-30.3,16-46.5c2.8-16.2,3.2-32.9,1.4-49.5
		c-0.9-8.3-2.2-16.5-4-24.7c-1.8-8.2-4-16.3-6.5-24.3c-0.6-2-1.3-4-2-6c-0.7-2-1.3-4-2.1-6l-2.2-5.9l-1.1-3.1
		c-0.3-0.8-0.8-2.6-1.1-4.1l-0.1-0.6l-0.1-0.5l-0.1-1c-0.1-0.7-0.2-1.4-0.2-2.1l0-2c0-0.7,0-1.4,0.1-2c0.1-1.3,0.2-2.7,0.5-3.9
		l0.4-1.9c0.1-0.6,0.3-1.2,0.5-1.8c1.4-4.9,3.5-9.3,6-13.4c5-8.2,11.3-15,18-21c6.8-6,14.2-11.3,21.9-15.9c3.8-2.3,7.8-4.4,11.8-6.4
		c4-1.9,8.1-3.8,12.3-5.4c8.3-3.3,16.8-6,25.5-8.1l-2.1,0.9l0,0c1.1-0.8,2-1.6,2.7-2.2c0.3-0.3,0.5-0.6,0.6-0.7
		c0.1-0.1-0.1,0-0.2,0.6c-0.1,0.6,0.1,1.6,0.4,1.9c0.2,0.4,0.3,0.3,0,0.2c-0.4-0.3-1.4-0.8-2.6-1.2c-2.3-0.8-5.2-1.4-8.1-1.9
		c-2.9-0.5-5.9-0.8-8.9-1.1l-1.4-0.1l-1.2-0.1l-1.2-0.1c-0.4-0.1-0.7-0.1-1.2-0.2c-1.9-0.3-3.8-0.7-5.4-1.1
		c-3.4-0.8-6.7-1.9-9.9-3.2c-3.2-1.2-6.2-2.6-9.2-4.1c-2.9-1.5-5.9-3-8.7-4.5c-5.7-3.1-11.1-6.2-16.6-9.1c-2.7-1.4-5.4-2.9-8.1-4.1
		c-2.7-1.3-5.4-2.4-8.2-3.4c-2.7-1-5.5-1.8-8.2-2.4l-2.1-0.4l-1-0.2l-1-0.1c-0.7-0.1-1.4-0.2-2-0.2l-2-0.1c-0.7-0.1-1.4,0-2,0
		c-0.7,0-1.4,0-2,0.1c-1.3,0.1-2.7,0.2-4,0.5c-2.7,0.4-5.3,1.3-7.9,2.2l-0.8,0.3c0,0,0,0,0,0c0,0,0,0,0,0c0.1,0,0.3,0,1.2-0.8
		c0.4-0.4,0.8-0.9,0.9-1.4c0.1-0.3,0.1-0.4,0.2-0.6c0-0.1,0-0.2,0-0.3l0-0.1c0-0.4,0-0.1,0,0.2c0,0.2,0.1,0.4,0.1,0.7
		c0.1,0.2,0.1,0.5,0.2,0.8c0.6,2.4,1.5,5.5,1.8,9c0.2,3.5-0.3,7.4-1.9,10.7c-1.5,3.4-3.7,6.1-6.1,8.4c-0.6,0.5-1.2,1.1-1.8,1.6
		l-1.8,1.4l-1.6,1.2l-1.4,1.1c-1.9,1.6-3.8,3.2-5.5,4.9c-1.8,1.7-3.4,3.5-5,5.4c-1.6,1.9-3,3.8-4.3,5.9c-1.3,2-2.5,4.1-3.5,6.3
		c-1,2.2-1.9,4.4-2.6,6.7c-0.7,2.3-1.2,4.6-1.5,7c-0.4,2.4-0.5,4.8-0.8,7.2c-0.2,2.4-0.4,5-0.4,7.5c-0.1,2.6,0.1,5.2,0.4,7.8
		c0.2,1.3,0.4,2.6,0.7,3.9c0.3,1.3,0.7,2.6,1.1,3.8c0.4,1.2,0.9,2.5,1.5,3.7C582.3,119.9,582.9,121.1,583.5,122.3 M583.5,122.3
		c-0.6-1.2-1.3-2.3-2-3.5c-0.7-1.2-1.3-2.3-2-3.5c-0.7-1.2-1.3-2.3-2-3.5c-0.6-1.2-1.4-2.4-2-3.6c-1.3-2.4-2.6-5-3.6-7.6
		c-1.1-2.6-1.8-5.5-2.3-8.3c-0.4-2.9-0.5-5.8-0.2-8.7c0.3-2.9,0.7-5.8,1.5-8.6c0.7-2.8,1.6-5.6,2.8-8.3c1.1-2.7,2.4-5.3,3.9-7.8
		c1.5-2.5,3.1-4.9,4.8-7.2c1.8-2.3,3.6-4.5,5.6-6.5c2-2.1,4-4,6.2-5.9l1.7-1.4l1.5-1.3l1.3-1.1c0.4-0.4,0.8-0.7,1.2-1.1
		c1.5-1.5,2.5-3,3.2-4.5c0.6-1.5,0.8-3,0.6-4.9c-0.2-1.8-0.8-3.8-1.6-6.5c-0.1-0.3-0.2-0.7-0.3-1.1c-0.1-0.4-0.2-0.8-0.3-1.3
		c-0.2-1-0.4-2-0.3-3.7c0-0.2,0-0.4,0-0.6c0-0.3,0.1-0.5,0.1-0.8c0.1-0.5,0.2-1,0.5-1.6c0.2-0.6,0.5-1.1,0.8-1.6
		c0.4-0.5,0.8-1,1.2-1.4c0.4-0.4,0.9-0.8,1.3-1.1c0.4-0.3,0.8-0.5,1.2-0.7c0.2-0.1,0.4-0.2,0.6-0.3l0.5-0.2c0.3-0.1,0.7-0.2,1-0.3
		l-0.8,0.3c3.3-1.3,6.8-2.5,10.3-3.1c1.8-0.4,3.6-0.6,5.4-0.8c0.9-0.1,1.8-0.1,2.7-0.2c0.9,0,1.8-0.1,2.7,0l2.7,0.1
		c0.9,0.1,1.8,0.2,2.7,0.3l1.3,0.1l1.3,0.2l2.6,0.4c3.4,0.7,6.8,1.6,10.1,2.8c3.2,1.1,6.4,2.4,9.4,3.8c3,1.4,6,2.9,8.9,4.4
		c5.7,3,11.3,6.2,16.7,9.2c2.7,1.5,5.4,2.9,8.2,4.3c1.4,0.6,2.7,1.3,4.1,1.9l2,0.9l2,0.8c2.7,1.1,5.4,2,8.2,2.7
		c1.4,0.4,2.6,0.6,3.9,0.9c0.3,0.1,0.7,0.1,1.1,0.2l1.2,0.2l1.2,0.2l0.1,0l0,0c-0.1,0,0.3,0-0.2,0l0.2,0l0.3,0l0.6,0.1
		c3.3,0.3,6.6,0.8,9.9,1.4c1.7,0.3,3.4,0.7,5.1,1.1c0.8,0.2,1.7,0.5,2.6,0.7c0.9,0.3,1.8,0.5,2.7,0.9c1.8,0.7,3.7,1.5,5.9,3.1
		l0.8,0.7c0.3,0.2,0.6,0.5,0.9,0.8l0.4,0.4c0.1,0.2,0.3,0.4,0.4,0.5c0.3,0.4,0.5,0.7,0.8,1.2c0.3,0.5,0.5,0.9,0.7,1.4
		c0.2,0.5,0.4,1.1,0.5,1.6c0.1,0.6,0.2,1.2,0.2,1.7c0,0.6,0,1.1-0.1,1.7c-0.3,2.2-1.1,3.8-1.9,5c-0.8,1.2-1.6,2.1-2.4,2.9
		c-1.6,1.5-3.2,2.7-4.7,3.7l0,0c-0.6,0.4-1.3,0.7-1.9,0.9l-0.1,0c-8.1,2-16,4.5-23.6,7.7c-3.8,1.5-7.6,3.3-11.3,5.1
		c-3.7,1.9-7.3,3.8-10.8,6c-7.1,4.2-13.7,9.1-19.8,14.5c-3,2.7-5.8,5.6-8.5,8.6c-2.6,3-4.9,6.2-6.9,9.5c-2,3.3-3.6,6.7-4.5,10.1
		c-0.1,0.4-0.3,0.8-0.3,1.3l-0.2,1.3c-0.2,0.8-0.2,1.7-0.3,2.5c-0.1,0.4-0.1,0.8,0,1.2l0,1.2c0,0.4,0.1,0.8,0.1,1.1l0.1,0.6l0,0.3
		l0.1,0.2c0.2,0.6,0.1,0.9,0.6,2.1l1.1,2.9l2.3,6.2c0.8,2,1.5,4.1,2.2,6.2c0.7,2.1,1.5,4.1,2.1,6.3c2.7,8.4,5,16.9,7,25.5
		c2,8.6,3.4,17.4,4.4,26.2c2.1,17.6,1.8,35.7-1.2,53.4c-3,17.7-8.9,35-17.2,50.9c-8.3,15.9-18.9,30.5-30.7,43.6
		c-11.8,13.2-24.9,25.1-38.4,36.2c-13.6,11.1-27.7,21.3-42.1,31.1c-14.4,9.8-28.9,19.1-43.5,28.3c-14.6,9.2-29.2,18.3-43.7,27.5
		l-10.8,6.9l-10.7,7c-1.8,1.2-3.6,2.4-5.5,3.6c-1.9,1.2-3.7,2.4-5.6,3.6c-1.9,1.1-3.8,2.3-5.7,3.4l-5.8,3.3
		c-15.6,8.5-32,15.4-48.7,21c-16.8,5.5-34,9.7-51.2,12.8c-17.3,3.1-34.7,5.1-52.1,6.3c-17.4,1.2-34.9,1.7-52.2,1.8l0,0.6
		c-23.4-1-46.6-2.8-69.8-4.3c-11.6-0.7-23.1-1.4-34.5-1.6c-11.4-0.2-22.9-0.1-33.9,1.5c-1.4,0.2-2.7,0.5-4.1,0.7
		c-1.3,0.3-2.7,0.6-4,0.9l-2,0.5c-0.6,0.2-1.3,0.4-1.9,0.6l-0.9,0.3l-0.9,0.3c-0.6,0.2-1.1,0.4-1.8,0.7l-2,0.9c0,0-0.3,0.2-0.1,0
		l-0.3,0.1l-0.5,0.3l-1,0.5c-1.3,0.7-2.7,1.4-4.1,2c-2.8,1.3-5.6,2.4-8.7,3.3c-3.1,0.9-6.4,1.6-10,1.3c-3.6-0.1-7.7-1.7-10.4-4.3
		c-1.4-1.3-2.6-2.7-3.5-4.2c-1-1.5-1.7-3-2.4-4.5c-1.3-3-2.2-6-2.9-9.1c-1.5-6-2.4-12-3.1-17.9c-0.8-5.9-1.3-11.9-1.7-17.8
		c-0.9-11.8-0.9-23.6-0.4-35.2c1.4-23.3,3.5-46.5,5.9-69.6c1.2-11.6,2.5-23.1,3.8-34.6c1.3-11.5,2.6-23.1,4-34.6l2.1-17.3
		c0.6-5.7,1.5-11.7,2.4-17.6c2-11.8,4.9-23.4,8.8-34.8c3.9-11.3,8.7-22.3,14.5-32.8c5.8-10.5,12.5-20.4,20-29.7
		c7.5-9.3,15.8-17.9,24.6-25.8c8.9-7.9,18.3-15.1,28.2-21.6c19.7-13.1,41-23.6,62.9-32c11-4.2,22.1-7.9,33.4-11.3
		c11.3-3.3,22.7-6.1,34.2-8.5c23-4.9,46.2-8.2,69.6-10.2c23.4-1.9,46.9-2.6,70.3-1.7c23.5,0.9,46.9,3.1,70.1,7.4
		c5.8,1.1,11.6,2.4,17.4,3.7c2.9,0.7,5.7,1.4,8.7,2.3c1.4,0.4,3,0.8,4.3,1.2l4.2,1.3l8.3,2.7l8.2,2.6c2.7,0.9,5.5,1.7,8.3,2.5
		c2.8,0.8,5.5,1.7,8.3,2.5c2.8,0.8,5.5,1.6,8.3,2.4c2.8,0.8,5.5,1.5,8.3,2.3c2.8,0.8,5.5,1.4,8.3,2.1c2.8,0.7,5.5,1.3,8.3,2.1
		c1.4,0.4,2.7,0.9,4,1.4c0.7,0.3,1.3,0.5,2,0.8c0.7,0.3,1.3,0.5,2,0.8c2.7,1.2,5.3,2.3,8,3.4c2.7,1,5.5,1.8,8.3,1.9
		c0.3,0,0.7,0,1-0.1c0.3,0,0.7-0.1,1-0.2c0.3-0.1,0.6-0.2,1-0.4c0.3-0.2,0.6-0.4,0.8-0.6c0.4-0.5,0.6-1.3,0.4-2
		C584.3,123.5,584,122.8,583.5,122.3"/>
	<path clip-path="url(#SVGID_2_)" fill="#282726" d="M318.2,530.8c0,0,0.2,0.4,0.5,1.1c0.3,0.7,0.8,1.7,1.3,3
		c1.1,2.6,2.6,6.4,4.2,11c1.6,4.6,3.4,9.9,5.1,15.7c0.9,2.9,1.8,5.9,2.6,9c0.9,3.1,1.7,6.2,2.5,9.3c0.8,3.1,1.6,6.3,2.3,9.3
		c0.7,3.1,1.4,6.1,2,9.1c1.2,5.9,2.3,11.5,3,16.3c0.8,4.8,1.3,8.8,1.6,11.6c0.2,1.4,0.3,2.5,0.3,3.3c0.1,0.8,0.1,1.2,0.1,1.2
		s-0.2-0.4-0.5-1.1c-0.3-0.7-0.8-1.7-1.3-3c-1.1-2.6-2.6-6.4-4.2-11c-1.6-4.6-3.4-9.9-5.1-15.7c-0.9-2.9-1.8-5.9-2.6-9
		c-0.9-3.1-1.7-6.2-2.5-9.3c-0.8-3.1-1.6-6.3-2.3-9.3c-0.7-3.1-1.4-6.1-2-9.1c-1.2-5.9-2.3-11.5-3-16.3c-0.8-4.8-1.3-8.8-1.6-11.6
		c-0.2-1.4-0.3-2.5-0.3-3.3C318.2,531.2,318.2,530.8,318.2,530.8"/>
	<path clip-path="url(#SVGID_2_)" fill="#282726" d="M278.2,537.4c0,0,0,0.4,0.1,1.2c0,0.8,0.1,1.9,0.1,3.3
		c0.1,2.8,0.2,6.8,0.1,11.6c-0.1,4.8-0.3,10.3-0.7,16.3c-0.2,3-0.4,6-0.7,9.2c-0.3,3.1-0.6,6.3-0.9,9.4c-0.4,3.2-0.7,6.3-1.1,9.4
		c-0.4,3.1-0.8,6.1-1.3,9.1c-0.9,5.9-1.9,11.4-2.8,16.1c-1,4.7-1.9,8.6-2.6,11.3c-0.3,1.4-0.7,2.4-0.8,3.2c-0.2,0.7-0.3,1.1-0.3,1.1
		s0-0.4-0.1-1.2c0-0.8-0.1-1.9-0.1-3.3c-0.1-2.8-0.2-6.8-0.1-11.6c0.1-4.8,0.3-10.3,0.7-16.3c0.2-3,0.4-6,0.7-9.2
		c0.3-3.1,0.6-6.3,0.9-9.4c0.4-3.2,0.7-6.3,1.1-9.4c0.4-3.1,0.8-6.1,1.3-9.1c0.9-5.9,1.9-11.4,2.8-16.1c0.9-4.7,1.9-8.6,2.6-11.3
		c0.3-1.4,0.7-2.4,0.8-3.2C278.1,537.8,278.2,537.4,278.2,537.4"/>
	<path clip-path="url(#SVGID_2_)" fill="#282726" d="M306,640.7c0,0,0.4-0.1,1.3-0.3c0.8-0.2,2.1-0.6,3.6-0.9
		c3.1-0.8,7.6-1.8,13.1-2.8c5.4-1.1,11.7-2.2,18.5-3.2c3.4-0.5,6.9-1,10.5-1.5c3.6-0.5,7.2-0.9,10.9-1.3c3.6-0.4,7.3-0.8,10.9-1.1
		c3.6-0.4,7.1-0.6,10.6-0.9c6.9-0.5,13.3-0.9,18.8-1.1c5.5-0.2,10.1-0.2,13.4-0.2c1.6,0,2.9,0.1,3.8,0.1c0.9,0,1.3,0.1,1.3,0.1
		s-0.4,0.1-1.3,0.3c-0.8,0.2-2.1,0.6-3.6,0.9c-3.1,0.8-7.6,1.8-13.1,2.8c-5.4,1.1-11.7,2.2-18.5,3.2c-3.4,0.5-6.9,1-10.5,1.5
		c-3.6,0.5-7.2,0.9-10.9,1.3c-3.6,0.4-7.3,0.8-10.9,1.1c-3.6,0.4-7.1,0.6-10.6,0.9c-6.9,0.5-13.3,0.9-18.8,1.1
		c-5.5,0.2-10.1,0.2-13.4,0.2c-1.6,0-2.9-0.1-3.8-0.1C306.5,640.7,306,640.7,306,640.7"/>
	<path clip-path="url(#SVGID_2_)" fill="#282726" d="M337.1,638.4c0,0,0.4-0.1,1.1-0.2c0.7-0.1,1.8-0.3,3.2-0.4
		c2.7-0.3,6.7-0.7,11.3-1.1c4.7-0.3,10.2-0.6,16-0.7c2.9-0.1,6-0.1,9-0.1c3.1,0,6.2,0,9.3,0.1c3.1,0.1,6.2,0.2,9.3,0.3
		c3.1,0.1,6.1,0.3,9,0.5c5.8,0.4,11.3,0.9,16,1.4c4.7,0.5,8.6,1.1,11.3,1.6c1.4,0.2,2.4,0.4,3.2,0.6c0.7,0.1,1.1,0.2,1.1,0.2
		s-0.4,0.1-1.1,0.2c-0.7,0.1-1.8,0.3-3.2,0.4c-2.7,0.3-6.7,0.8-11.3,1.1c-4.7,0.3-10.2,0.6-16,0.7c-2.9,0.1-6,0.1-9,0.1
		c-3.1,0-6.2-0.1-9.3-0.1c-3.1-0.1-6.2-0.2-9.3-0.3c-3.1-0.1-6.1-0.3-9-0.5c-5.8-0.4-11.3-0.9-16-1.4c-4.7-0.5-8.6-1.1-11.3-1.6
		c-1.4-0.2-2.4-0.4-3.2-0.6C337.5,638.5,337.1,638.4,337.1,638.4"/>
	<path clip-path="url(#SVGID_2_)" fill="#282726" d="M331.5,637.3c0,0,0.3,0,0.9,0c0.6,0,1.5,0,2.6,0.1c2.2,0.1,5.4,0.4,9.1,0.8
		c3.7,0.5,8.1,1.1,12.7,2c2.3,0.4,4.7,0.9,7.1,1.4c2.4,0.5,4.8,1.1,7.3,1.7c2.4,0.6,4.9,1.2,7.2,1.9c2.4,0.6,4.7,1.3,7,2
		c4.5,1.4,8.7,2.8,12.2,4.1c3.5,1.3,6.5,2.5,8.5,3.4c1,0.4,1.8,0.8,2.3,1.1c0.5,0.3,0.8,0.4,0.8,0.4s-0.3,0-0.9,0
		c-0.6,0-1.5,0-2.6-0.1c-2.2-0.1-5.4-0.4-9.1-0.8c-3.7-0.5-8.1-1.1-12.7-2c-2.3-0.4-4.7-0.9-7.1-1.4c-2.4-0.5-4.8-1.1-7.3-1.7
		c-2.4-0.6-4.8-1.2-7.2-1.9c-2.4-0.6-4.7-1.3-7-2c-4.5-1.4-8.7-2.8-12.2-4.1c-3.5-1.3-6.5-2.5-8.5-3.4c-1-0.4-1.8-0.8-2.4-1.1
		C331.8,637.5,331.5,637.3,331.5,637.3"/>
	<path clip-path="url(#SVGID_2_)" fill="#282726" d="M236.1,629.6c0,0,0.4,0.1,1.2,0.4c0.8,0.3,2,0.7,3.5,1.2
		c3,1.1,7.2,2.7,12.2,4.7c5,2.1,10.7,4.6,16.8,7.4c3.1,1.4,6.2,2.9,9.4,4.5c3.2,1.5,6.4,3.2,9.6,4.8c3.2,1.6,6.4,3.3,9.5,5
		c3.1,1.6,6.2,3.3,9.1,5c5.9,3.3,11.3,6.5,15.9,9.3c4.6,2.8,8.4,5.3,11,7.1c1.3,0.9,2.3,1.6,3,2.1c0.7,0.5,1.1,0.8,1.1,0.8
		s-0.4-0.1-1.2-0.4c-0.8-0.3-2-0.7-3.5-1.2c-3-1.1-7.2-2.7-12.2-4.7c-5-2.1-10.7-4.6-16.8-7.4c-3-1.4-6.2-2.9-9.4-4.5
		c-3.2-1.5-6.4-3.2-9.6-4.8c-3.2-1.6-6.4-3.3-9.5-5c-3.1-1.7-6.2-3.3-9.1-5c-5.9-3.3-11.3-6.5-15.9-9.3c-4.6-2.8-8.4-5.3-11-7.1
		c-1.3-0.9-2.3-1.6-3-2.1C236.4,629.8,236.1,629.6,236.1,629.6"/>
	<path clip-path="url(#SVGID_2_)" fill="#282726" d="M259.4,641.8c0,0,0.3,0,1,0c0.6,0,1.6,0.1,2.8,0.2c2.4,0.2,5.8,0.5,9.9,1
		c4.1,0.5,8.8,1.2,13.8,2.2c2.5,0.5,5.1,1,7.7,1.5c2.6,0.5,5.3,1.2,7.9,1.8c2.6,0.6,5.3,1.3,7.8,2c2.6,0.7,5.1,1.4,7.6,2.1
		c4.9,1.4,9.4,2.9,13.3,4.2c3.9,1.4,7,2.6,9.3,3.6c1.1,0.4,2,0.9,2.6,1.1c0.6,0.3,0.9,0.4,0.9,0.4s-0.3,0-1,0
		c-0.6,0-1.6-0.1-2.8-0.2c-2.4-0.2-5.8-0.5-9.9-1c-4.1-0.5-8.8-1.2-13.8-2.2c-2.5-0.5-5.1-1-7.7-1.5c-2.6-0.5-5.3-1.2-7.9-1.8
		c-2.6-0.6-5.3-1.3-7.8-2c-2.6-0.7-5.1-1.4-7.6-2.1c-4.9-1.4-9.4-2.9-13.3-4.2c-3.9-1.4-7-2.6-9.3-3.6c-1.1-0.4-2-0.9-2.6-1.1
		C259.7,641.9,259.4,641.8,259.4,641.8"/>
	<path clip-path="url(#SVGID_2_)" fill="#282726" d="M667.9,41.2c0,0,0.3,0.1,0.7,0.3c0.4,0.2,1,0.6,1.7,1.1
		c0.7,0.5,1.4,1.2,2.2,2.2c0.8,0.9,1.5,2.1,2,3.6c0.5,1.5,0.9,3.4,0.7,5.6c-0.2,2.2-1.2,4.7-2.8,6.8c-1.6,2.1-3.8,3.7-5.9,4.7
		c-0.5,0.3-1.1,0.5-1.6,0.7c-0.5,0.2-1.1,0.4-1.6,0.5c-1,0.2-2.1,0.5-3.1,0.6c-2,0.3-3.9,0.3-5.6,0.1c-0.9-0.1-1.7-0.2-2.6-0.4
		c-0.8-0.2-1.6-0.4-2.4-0.6c-1.5-0.5-2.9-1.1-4.2-1.8c-1.3-0.7-2.5-1.4-3.5-2.2c-1-0.8-1.9-1.6-2.7-2.3c-0.8-0.8-1.4-1.5-1.9-2.2
		c-0.5-0.6-0.9-1.2-1.1-1.6c-0.3-0.4-0.4-0.6-0.4-0.6s0.2-0.1,0.6-0.4c0.4-0.2,1-0.5,1.8-0.8c0.7-0.3,1.6-0.7,2.6-1
		c1-0.4,2.1-0.7,3.2-1c1.1-0.3,2.3-0.6,3.6-0.9c1.2-0.3,2.5-0.5,3.7-0.7c0.6-0.1,1.2-0.2,1.8-0.3c0.6-0.1,1.2-0.2,1.7-0.2
		c1-0.1,2.1-0.3,3.1-0.4c0.3,0,0.5,0,0.7-0.1c0.2,0,0.4,0,0.6-0.1c0.2,0,0.3-0.1,0.5-0.1c0.2,0,0.4,0,0.5,0c0.6,0,0.9,0,1.2,0.1
		c0.3,0.1,0.8,0.3,1.3,0c0.6-0.2,1.2-0.8,1.7-1.5c0.5-0.7,1-1.5,1.5-2.4c0.4-0.8,0.8-1.6,1.1-2.4c0.3-0.7,0.6-1.3,0.7-1.7
		C667.8,41.5,667.9,41.2,667.9,41.2"/>
	<path clip-path="url(#SVGID_2_)" fill="#282726" d="M329.3,151.1c0,0-0.8,0.1-2.3,0.3c-1.5,0.2-3.8,0.6-6.7,1.4
		c-2.9,0.7-6.5,1.7-10.6,3.2c-4.1,1.5-8.8,3.3-13.9,5.6c-5.1,2.3-10.6,5.2-16.4,8.6c-5.8,3.4-12,7.4-18.3,11.9
		c-3.2,2.2-6.3,4.7-9.6,7.3c-3.2,2.6-6.5,5.3-9.8,8.2c-3.3,2.8-6.6,5.9-10,9c-1.7,1.6-3.3,3.2-5,4.8c-1.7,1.6-3.4,3.3-5,5
		c-1.7,1.7-3.4,3.5-5.1,5.2c-1.7,1.8-3.3,3.6-5,5.5c-0.8,0.9-1.7,1.8-2.5,2.8c-0.8,1-1.7,1.9-2.5,2.9c-1.7,1.9-3.3,3.9-5,5.8
		c-1.6,2-3.3,4-5,6c-0.8,1-1.7,2-2.5,3.1c-0.8,1-1.6,2.1-2.5,3.1c-1.6,2.1-3.3,4.2-5,6.4c-1.6,2.2-3.2,4.4-4.9,6.6
		c-6.5,8.8-12.9,18.2-19.4,27.8c-6.5,9.6-13.1,19.4-19.7,29.5c-13.3,20.1-26.7,41.1-39.3,62.8c-3.2,5.4-6.2,11-9.2,16.5
		c-2.9,5.6-5.8,11.2-8.2,17c-1.2,2.9-2.4,5.8-3.4,8.7c-1,2.9-1.7,5.9-2.1,8.6c-0.1,1.4-0.1,2.7,0.1,3.6c0.1,0.5,0.3,0.8,0.4,1.1
		c0.2,0.2,0.3,0.4,0.6,0.5c0.4,0.3,1.5,0.5,2.7,0.3c1.2-0.1,2.6-0.4,4-0.8c2.8-0.8,5.6-2.1,8.4-3.4c1.4-0.7,2.8-1.4,4.1-2.2l2.1-1.2
		l1.1-0.6l1.1-0.6c1.3-0.8,3-1.5,4.5-2.2c1.5-0.6,3.1-1.3,4.6-1.9c1.5-0.6,3.1-1.2,4.7-1.7c1.6-0.5,3.1-1,4.7-1.5
		c12.5-3.8,25.1-6.3,37.7-8.5c12.5-2.2,25-4,37.3-5.7c12.3-1.7,24.5-3.2,36.4-4.8c23.9-3.1,47-6.1,68.8-9.4
		c21.8-3.4,42.3-7,61.1-11.2c18.8-4.2,35.8-8.9,50.5-14c14.7-5.1,27.2-10.7,36.9-16.3c4.9-2.7,9.1-5.5,12.7-7.9
		c1.7-1.3,3.4-2.4,4.9-3.6c1.4-1.2,2.8-2.2,3.9-3.2c1.1-1,2.1-1.9,3-2.6c0.8-0.8,1.5-1.5,2.1-2c1.1-1.1,1.7-1.7,1.7-1.7
		s-0.6,0.6-1.6,1.7c-0.5,0.6-1.2,1.3-2,2.1c-0.8,0.8-1.8,1.7-2.9,2.8c-1.1,1.1-2.4,2.1-3.8,3.3c-1.4,1.2-3,2.4-4.7,3.8
		c-3.5,2.6-7.6,5.6-12.5,8.4c-9.6,5.9-22,11.9-36.7,17.6c-7.3,2.8-15.3,5.5-23.7,8.1c-8.4,2.6-17.4,5-26.8,7.3
		c-18.8,4.6-39.3,8.8-61.2,12.4c-21.8,3.7-44.9,7.1-68.8,10.4c-23.9,3.3-48.6,6.7-73.4,11c-12.4,2.3-24.8,4.8-36.8,8.4
		c-6,1.9-11.9,4-17.2,6.8l-1.1,0.6l-1,0.5l-2.1,1.2c-1.4,0.8-2.9,1.6-4.4,2.3c-3,1.5-6.1,2.9-9.4,3.9c-1.7,0.5-3.5,0.9-5.4,1.1
		c-0.5,0-1,0.1-1.5,0.1c-0.5,0-1.1,0-1.6-0.1c-1.1-0.2-2.3-0.5-3.5-1.1c-1.2-0.6-2.2-1.7-3-2.7c-0.7-1.1-1.1-2.3-1.4-3.4
		c-0.5-2.2-0.4-4.1-0.2-5.9c0.4-3.6,1.4-6.9,2.4-10.1c1.1-3.2,2.3-6.2,3.6-9.2c2.6-6,5.5-11.8,8.5-17.5c3-5.7,6.2-11.3,9.4-16.7
		c6.4-11,13.1-21.7,19.8-32.1c6.7-10.5,13.5-20.7,20.3-30.7c6.8-10,13.4-19.8,20.1-29.3c6.6-9.5,13.2-18.8,19.9-27.7
		c1.7-2.2,3.4-4.4,5-6.6c1.7-2.1,3.4-4.2,5.1-6.3c0.8-1,1.7-2.1,2.5-3.1c0.9-1,1.7-2,2.6-3c1.7-2,3.4-4,5.1-6
		c1.8-1.9,3.5-3.9,5.2-5.8c0.9-1,1.7-1.9,2.6-2.8c0.9-0.9,1.8-1.8,2.6-2.7c1.7-1.8,3.5-3.6,5.2-5.4c1.8-1.7,3.5-3.5,5.2-5.2
		c7-6.8,13.8-13,20.7-18.6c3.4-2.8,6.9-5.4,10.2-8c3.4-2.4,6.7-4.9,10-7c6.5-4.4,12.8-8.3,18.8-11.5c6-3.2,11.6-6,16.8-8.2
		c10.4-4.4,19-6.7,24.9-7.9c3-0.6,5.3-0.9,6.8-1.1C328.5,151.2,329.3,151.1,329.3,151.1"/>
	<path clip-path="url(#SVGID_2_)" fill="#D9D9D8" d="M472.4,341.1c0,0-43.3,34.7-127.3,52c-66.7,11.3-186,26-202,32
		s-27.3,7.3-45.3,16.7c-8,4-12.7,7.3-18,5.3c-0.7,8,94.7,32,168-6.7C320.4,408.4,471.7,384.4,472.4,341.1"/>
	<path clip-path="url(#SVGID_2_)" fill="#E8AE4A" d="M701.7,44.4c0,0,0.7,12-0.7,17.3c12.7-3.3,31.3-10.7,31.3-10.7
		S729.7,45.1,701.7,44.4"/>
	<path clip-path="url(#SVGID_2_)" fill="#E8AE4A" d="M613.7,15.1c0,0,22.7-7.3,47.3,8.7c-12.7-3.3-42.7-4.7-45.3,2.7
		C614.4,21.1,613.7,15.1,613.7,15.1"/>
	<path clip-path="url(#SVGID_2_)" fill="#282726" d="M244.4,215.1c-0.3,1.3-0.4,2.6-0.3,4c0.1,1.3,0.4,2.6,1.1,3.8
		c0.3,0.6,0.7,1.1,1.1,1.6c0.2,0.2,0.5,0.5,0.7,0.7c0.2,0.2,0.5,0.4,0.8,0.6l0.8,0.5l0.9,0.4c0.6,0.2,1.2,0.5,1.8,0.6
		c0.6,0.2,1.3,0.3,1.9,0.4c0.7,0.1,1.3,0.2,2,0.2c0.7,0,1.3,0.1,2,0c0.7,0,1.3,0,2-0.1c0.7,0,1.3-0.1,2-0.2c0.7-0.1,1.3-0.2,2-0.3
		c0.6-0.1,1.3-0.2,1.9-0.4l1.9-0.4c0.3-0.1,0.5,0.1,0.7,0.3l0,0l2.6,3.9l2.7,3.8l2.8,3.7c1,1.2,2,2.4,3,3.5c1.1,1.1,2.1,2.3,3.3,3.3
		l1.7,1.5l0.9,0.8c0.3,0.2,0.6,0.5,0.9,0.7c1.2,0.9,2.4,1.9,3.8,2.6l2,1.2c0.7,0.4,1.4,0.7,2.1,1c0.7,0.3,1.4,0.7,2.1,1l2.1,0.8
		c1.4,0.6,2.9,0.9,4.4,1.3l1.1,0.3c0.4,0.1,0.8,0.1,1.1,0.2l2.3,0.4l1.1,0.2c0.4,0.1,0.8,0.1,1.1,0.1l2.3,0.2
		c1.5,0.2,3.1,0.1,4.6,0.1c0.8,0,1.5,0,2.3,0l2.3-0.2c1.5-0.1,3.1-0.2,4.6-0.4l4.6-0.6l0,0c0.6-0.1,1.2,0.3,1.5,0.8
		c1.3,2.7,2.6,5.5,4,8.1c0.7,1.3,1.4,2.6,2.2,3.9c0.8,1.3,1.6,2.5,2.4,3.7c0.9,1.2,1.8,2.3,2.8,3.4c0.5,0.5,1,1,1.5,1.5
		c0.6,0.5,1.1,1,1.7,1.4c1.1,0.9,2.4,1.6,3.6,2.3c1.3,0.6,2.6,1.2,4,1.6c1.4,0.5,2.8,0.8,4.2,1.1l2.2,0.4l2.2,0.3l2.2,0.2l2.2,0.2
		c1.5,0.1,3,0.1,4.5,0.2c6,0.1,12.1-0.2,18.2-0.6c0.8,0,1.4,0.5,1.5,1.2l0,0.1l0.3,2.2c0.1,0.7,0.3,1.4,0.5,2.2l0.3,1.1l0.4,1
		c0.3,0.7,0.5,1.4,0.8,2.1c0.7,1.3,1.2,2.7,2.1,3.9c0.4,0.6,0.7,1.3,1.2,1.9l1.4,1.8c0.4,0.6,1,1.1,1.5,1.6l1.6,1.6l1.8,1.4
		c0.6,0.4,1.1,1,1.8,1.3l1.9,1.2l1,0.6c0.3,0.2,0.7,0.3,1,0.5l2,1l1,0.5c0.3,0.2,0.7,0.3,1.1,0.4l2.1,0.7c0.7,0.2,1.4,0.5,2.2,0.7
		l4.4,1c1.5,0.2,3,0.4,4.5,0.6c1.5,0.3,3,0.3,4.6,0.3l2.3,0.1l1.1,0l1.2,0l4.6-0.2c1.5,0,3.1-0.3,4.6-0.4l4.6-0.5l0,0
		c0.2,0,0.3,0,0.4,0.1c3,1.5,5.9,3.1,8.9,4.7l4.4,2.3c1.5,0.8,3,1.5,4.5,2.2c1.5,0.7,3,1.3,4.6,1.9c1.6,0.6,3.2,1,4.8,1.4
		c0.8,0.2,1.6,0.3,2.4,0.5l2.5,0.4c1.6,0.2,3.3,0.5,5,0.6c-1.7-0.1-3.3-0.2-5-0.4c-1.7-0.2-3.3-0.4-5-0.7c-1.6-0.3-3.3-0.7-4.9-1.2
		c-1.6-0.5-3.2-1.1-4.7-1.7c-1.5-0.6-3.1-1.3-4.6-2.1l-4.5-2.2l-9-4.4l0.5,0.1l-4.7,0.6c-1.6,0.2-3.1,0.5-4.7,0.5l-4.7,0.3l-1.2,0.1
		l-1.2,0l-2.4-0.1c-1.6-0.1-3.1,0-4.7-0.2c-1.6-0.2-3.1-0.3-4.7-0.5l-4.7-1c-0.8-0.1-1.5-0.4-2.3-0.7l-2.3-0.7
		c-0.4-0.1-0.8-0.2-1.1-0.4l-1.1-0.5l-2.2-1c-0.4-0.2-0.7-0.3-1.1-0.5l-1-0.6l-2.1-1.2c-0.7-0.4-1.3-0.9-2-1.4l-1.9-1.5l-1.7-1.7
		c-0.6-0.6-1.2-1.1-1.7-1.8l-1.5-1.9c-0.5-0.6-0.9-1.3-1.4-2c-0.9-1.3-1.6-2.8-2.3-4.3c-0.3-0.7-0.6-1.5-0.9-2.3l-0.4-1.1l-0.3-1.2
		c-0.2-0.8-0.5-1.6-0.5-2.4l-0.4-2.4l1.5,1.3c-6.1,0.4-12.2,0.7-18.4,0.6c-1.5,0-3.1-0.1-4.6-0.1l-2.3-0.2l-2.3-0.2l-2.3-0.3
		l-2.3-0.4c-1.5-0.3-3.1-0.7-4.6-1.2c-1.5-0.5-3-1.1-4.4-1.8c-1.4-0.8-2.8-1.6-4.1-2.6c-0.7-0.5-1.2-1-1.9-1.6
		c-0.6-0.6-1.2-1.1-1.7-1.7c-1.1-1.2-2.1-2.4-3-3.7c-3.6-5.2-6.2-10.8-8.8-16.3l1.5,0.8l-4.7,0.6c-1.6,0.2-3.2,0.3-4.8,0.4l-2.4,0.1
		c-0.8,0-1.6,0-2.4,0c-1.6,0-3.2,0-4.8-0.2l-2.4-0.2c-0.4,0-0.8-0.1-1.2-0.1l-1.2-0.2l-2.4-0.5c-0.4-0.1-0.8-0.1-1.2-0.2l-1.2-0.3
		c-1.5-0.5-3.1-0.8-4.6-1.5l-2.2-0.9c-0.7-0.3-1.4-0.7-2.2-1.1c-0.7-0.4-1.4-0.7-2.1-1.1l-2-1.3c-1.4-0.8-2.6-1.9-3.9-2.9
		c-0.3-0.3-0.6-0.5-0.9-0.7l-0.9-0.8l-1.8-1.6c-1.2-1.1-2.2-2.3-3.3-3.5c-1-1.2-2-2.5-3-3.7l-2.8-3.8c-0.9-1.3-1.8-2.6-2.6-3.9
		l-2.5-4l0.7,0.3l-2,0.4c-0.7,0.1-1.3,0.2-2,0.3c-0.7,0.1-1.3,0.2-2,0.2c-0.7,0.1-1.3,0.1-2,0.1c-0.7,0-1.4,0.1-2,0
		c-0.7,0-1.4,0-2-0.1c-0.7,0-1.4-0.2-2-0.3c-0.7-0.1-1.3-0.3-2-0.5c-0.7-0.2-1.3-0.4-1.9-0.7l-0.9-0.5l-0.9-0.6
		c-0.3-0.2-0.5-0.4-0.8-0.7c-0.2-0.3-0.5-0.5-0.7-0.8c-0.4-0.5-0.8-1.1-1.1-1.7c-0.6-1.2-0.9-2.6-0.9-3.9
		C243.9,217.7,244,216.3,244.4,215.1"/>
	<path clip-path="url(#SVGID_2_)" fill="#282726" d="M579.4,114.7c0.8,1.2,1.6,2.4,2.4,3.6c0.8,1.2,1.6,2.4,2.3,3.6
		c0.8,1.2,1.6,2.4,2.3,3.6c0.8,1.2,1.5,2.4,2.3,3.5c0.8,1.1,1.6,2.3,2.4,3.3c0.2,0.2,0.4,0.5,0.6,0.6c0,0,0.1,0.1,0.1,0.1
		c0,0,0,0,0,0c0,0-0.1-0.1-0.2-0.1c0,0-0.1,0-0.1,0l-0.1,0l-0.3-0.1l0.3,0l0.1,0c0,0,0,0,0,0c0,0,0,0-0.1,0c-0.1,0,0.1-0.1,0.2-0.1
		c0.2-0.1,0.5-0.2,0.7-0.3c1.1-0.5,2.2-1.2,3.2-2c0.5-0.4,1-0.8,1.4-1.2c0.1-0.1,0.2-0.2,0.3-0.3c0.1-0.1,0.2-0.2,0.2-0.2l0.1-0.1
		c0,0,0,0,0,0l0,0l0,0l-0.1,0.1c-0.1,0.2-0.1,0.4-0.1,0.6l4.6-0.9c0.1,0.2,0.2,0.5,0.4,0.7c0.1,0.2,0.3,0.4,0.4,0.6
		c0.1,0.2,0.4,0.4,0.5,0.6c0.2,0.2,0.4,0.4,0.6,0.5c0.2,0.2,0.4,0.3,0.7,0.5c0.2,0.2,0.5,0.3,0.7,0.4c0.3,0.1,0.5,0.2,0.8,0.3
		c0.3,0.1,0.5,0.2,0.8,0.2c0.3,0.1,0.6,0.1,0.8,0.1c0.3,0,0.6,0.1,0.8,0c0.3,0,0.6,0,0.8-0.1c0.3,0,0.5-0.1,0.7-0.2l0.3-0.1l0.3-0.1
		c0.2-0.1,0.4-0.2,0.5-0.3c0.2-0.1,0.2-0.3,0.4-0.4c0.1-0.1,0.2-0.3,0.3-0.4l0.7-0.8c0.8-0.9,2.2-1,3.1-0.1c0,0,0.1,0.1,0.1,0.1
		c0.3,0.3,0.8,0.7,1.3,1c0.6,0.3,1.2,0.6,1.8,0.8c1.3,0.5,2.7,0.8,4.1,1c0.7,0.1,1.4,0.1,2.1,0.1c0.7,0,1.3-0.1,1.9-0.2
		c0.3-0.1,0.5-0.2,0.8-0.3c0.2-0.1,0.4-0.2,0.6-0.4c0.2-0.1,0.3-0.3,0.4-0.4c0.1-0.2,0.2-0.4,0.2-0.6l0.1-0.3c0.2-0.9,1.1-1.4,2-1.1
		c0.6,0.2,1,0.6,1.1,1.2c0.1,0.3,0.1,0.5,0.2,0.8c0.1,0.2,0.1,0.5,0.3,0.7l0.2,0.4l0.2,0.3c0.1,0.2,0.3,0.4,0.4,0.6
		c0.2,0.2,0.3,0.3,0.5,0.5c0.2,0.1,0.4,0.3,0.6,0.3c0.2,0.1,0.5,0.1,0.7,0.2c0.2,0,0.5,0,0.8,0l0.8-0.2c0.3-0.1,0.5-0.2,0.8-0.4
		l0.8-0.5c0.3-0.1,0.5-0.4,0.8-0.6c0.5-0.4,1-0.9,1.5-1.3c0.3-0.2,0.5-0.5,0.7-0.7l0.7-0.7l-0.5,0.9c-0.2,0.3-0.3,0.6-0.5,0.9
		l-0.6,0.9c-0.2,0.3-0.4,0.6-0.6,0.8c-0.2,0.3-0.4,0.6-0.7,0.8c-0.3,0.2-0.5,0.5-0.8,0.7c-0.3,0.2-0.6,0.4-0.9,0.6
		c-0.3,0.2-0.7,0.3-1.1,0.5c-0.4,0.1-0.8,0.2-1.2,0.3c-0.4,0-0.8,0.1-1.3,0c-0.4,0-0.8-0.2-1.3-0.3c-0.4-0.2-0.8-0.4-1.1-0.6
		c-0.3-0.3-0.7-0.5-0.9-0.9l-0.4-0.5l-0.3-0.5c-0.2-0.3-0.4-0.7-0.6-1.1c-0.2-0.4-0.3-0.8-0.4-1.1l3.2-0.2c0,0.6-0.1,1.1-0.3,1.7
		c-0.2,0.6-0.5,1.1-0.9,1.5c-0.4,0.5-0.8,0.8-1.3,1.1c-0.5,0.3-0.9,0.5-1.4,0.7c-0.9,0.4-1.9,0.5-2.8,0.6c-0.9,0.1-1.8,0.1-2.7,0.1
		c-1.8-0.1-3.5-0.4-5.2-0.9c-0.9-0.3-1.7-0.6-2.6-1c-0.9-0.4-1.7-0.9-2.6-1.8l4-0.8c-0.3,0.5-0.5,1.1-0.8,1.5
		c-0.4,0.4-0.7,0.9-1.2,1.3c-0.4,0.4-0.9,0.7-1.4,0.9c-0.2,0.1-0.5,0.2-0.7,0.4l-0.7,0.2c-0.5,0.2-1,0.3-1.5,0.3
		c-0.5,0.1-1,0.1-1.4,0.1c-0.5,0-0.9,0-1.4-0.1c-0.5,0-0.9-0.1-1.4-0.2c-0.5-0.1-0.9-0.2-1.3-0.4c-0.4-0.1-0.9-0.3-1.3-0.5
		c-0.4-0.2-0.8-0.4-1.2-0.7c-0.4-0.2-0.8-0.5-1.2-0.8c-0.4-0.3-0.7-0.6-1.1-1c-0.3-0.4-0.7-0.7-0.9-1.1c-0.3-0.4-0.6-0.8-0.8-1.2
		l-0.6-1.3l4.6-0.9c0,0.4-0.1,0.7-0.2,1.1c0,0.1-0.1,0.2-0.1,0.2l-0.1,0.1l-0.1,0.3c-0.1,0.2-0.2,0.3-0.3,0.5l-0.3,0.3
		c-0.2,0.2-0.4,0.4-0.5,0.5c-0.2,0.2-0.3,0.3-0.5,0.4c-0.7,0.6-1.3,1-2,1.4c-1.3,0.8-2.7,1.5-4.2,2.1c-0.4,0.1-0.8,0.3-1.3,0.4
		c-0.3,0.1-0.4,0.1-0.8,0.1c-0.2,0-0.4,0-0.6,0c-0.1,0-0.2,0-0.3,0l-0.1,0l-0.3,0l-0.3,0l0,0l-0.1,0l-0.1,0l-0.2-0.1
		c-0.1-0.1-0.4-0.2-0.4-0.2c-0.1-0.1-0.3-0.2-0.4-0.4c-0.1-0.1-0.2-0.2-0.3-0.3c-0.3-0.4-0.6-0.7-0.8-1c-0.9-1.3-1.5-2.6-2.2-3.9
		c-0.6-1.3-1.2-2.6-1.8-3.9c-0.6-1.3-1.1-2.6-1.7-4c-0.5-1.3-1.1-2.7-1.6-4C580.3,117.5,579.8,116.1,579.4,114.7"/>
</g>
</svg>
