<?xml version="1.0" encoding="utf-8"?>
<!-- Generator: Adobe Illustrator 17.1.0, SVG Export Plug-In . SVG Version: 6.00 Build 0)  -->
<!DOCTYPE svg PUBLIC "-//W3C//DTD SVG 1.1//EN" "http://www.w3.org/Graphics/SVG/1.1/DTD/svg11.dtd">
<svg version="1.1" id="Layer_1" xmlns="http://www.w3.org/2000/svg" xmlns:xlink="http://www.w3.org/1999/xlink" x="0px" y="0px"
	 viewBox="0 0 719.7 864.7" enable-background="new 0 0 719.7 864.7" xml:space="preserve">
<g>
	<defs>
		<rect id="SVGID_1_" width="719.7" height="864.7"/>
	</defs>
	<clipPath id="SVGID_2_">
		<use xlink:href="#SVGID_1_"  overflow="visible"/>
	</clipPath>
	<path clip-path="url(#SVGID_2_)" fill="#282726" d="M636.2,102.2c-5.1-2-11.2-3.2-16.1-2.3c-1.2,0.2-2.3,0.6-3.3,1.1
		c-0.9,0.5-1.7,1.2-2.4,1.9c-1.3,1.5-2,3.6-2.3,6c-0.3,2.4-0.2,5.1,0.2,7.8c0.1,0.7,0.2,1.4,0.3,2.1c0.1,0.7,0.2,1.4,0.4,2.1
		l0.5,2.1l0.1,0.5l0.2,0.9l0.2,1.1c0.3,2,0.5,3.8,0.4,6c0,0.6-0.1,1.1-0.2,1.7l-0.1,0.9c-0.1,0.3-0.1,0.6-0.2,0.9
		c-0.3,1.3-0.9,2.7-1.7,4c-0.8,1.3-1.9,2.5-3,3.3c-1.1,0.8-2,1.4-2.8,1.9c-1.5,0.9-2.3,1.4-2.6,1.7c-0.3,0.3-0.4,0.5-0.6,1.2
		c-0.2,0.6-0.4,1.6-0.5,2.7l0,0.4l0,0.2c0-1.2,0-0.2,0-0.3l0,0.6c0,0.1,0,0,0,0c0,0,0-0.1,0-0.1c0-0.1,0-0.2,0-0.2l0.1,0.3
		c0.1,0.2,0.1,0.4,0.2,0.7c0.3,1,0.9,2.3,1.5,3.6c2.5,5.2,5.5,10.5,8.6,15.8l18.8,32.1c12.5,21.6,24.5,43.5,35.4,66
		c10.9,22.5,20.8,45.6,29,69.4c8.2,23.7,14.8,48.1,18.9,73.1c2,12.5,3.5,25.1,4.1,37.7l0.2,4.7l0,0.6l0,0.5l0,0.3l0,1.2l0,2.3
		c0.1,3-0.2,6.5-0.3,9.8c-0.1,1.7-0.3,3.3-0.5,4.9l-0.3,2.4c-0.1,0.8-0.3,1.6-0.4,2.4l-0.8,4.8l-1.1,4.8c-1.5,6.3-3.4,12.6-5.9,18.6
		c-1.1,3.1-2.6,6-3.9,8.9l-2.2,4.3c-0.4,0.7-0.7,1.4-1.1,2.2l-1.2,2.1c-3.2,5.7-6.8,11-10.6,16.2c-2,2.5-3.9,5.1-6,7.6
		c-1,1.2-2,2.5-3.1,3.7l-3.2,3.6c-17.4,18.8-37.9,34.1-59.6,47c-21.6,13-44.5,23.6-67.9,32.5c-23.4,9-47.4,16.3-71.7,22.3
		c-24.3,6-48.9,10.5-73.7,13.6c-24.8,3.1-49.8,4.9-74.8,4.8c-3.1,0-6.3,0-9.4-0.1c-3.1-0.1-6.3-0.2-9.4-0.3
		c-3.1-0.1-6.3-0.3-9.4-0.5l-0.6,0l-0.7-0.1l-1.2-0.1l-2.3-0.2c-1.6-0.1-3.1-0.2-4.7-0.4c-3.2-0.4-6.4-0.7-9.5-1.3
		c-3.1-0.4-6.3-1.1-9.4-1.7c-6.2-1.4-12.4-2.9-18.4-4.9c-6-2-12-4.3-17.8-7c-5.8-2.7-11.4-5.8-16.8-9.2
		c-10.8-6.9-20.6-15.2-29.2-24.5c-8.7-9.4-16-19.8-22.3-30.8c-6.3-11-11.4-22.6-15.5-34.5c-4.1-11.9-7.3-24.1-9.5-36.5
		c-1.1-6.2-2.1-12.4-2.8-18.7c-0.4-3.1-0.6-6.3-0.9-9.4c-0.2-3.2-0.4-6.3-0.4-9.5l2.2,3.2l0,0c-5.9-2-11.3-4.7-16.6-7.7
		c-5.2-3-10.2-6.4-15-10c-4.8-3.6-9.4-7.4-13.9-11.3c-4.5-3.9-8.9-8-13.1-12.1c-16.9-16.7-32.2-35-45.9-54.4
		c-6.8-9.7-13.3-19.7-19.2-30.2c-2.9-5.2-5.8-10.6-8.3-16c-2.6-5.5-5-11.1-7-17c-2-5.9-3.7-12.1-4.2-19c-0.1-0.9-0.1-1.7-0.1-2.6
		c0-0.9,0-1.8,0-2.7l0.1-1.4l0.2-1.4l0.1-0.7l0-0.4l0.1-0.7l0.2-1.1l0.1-0.3c0-0.1,0-0.2,0.1-0.3l0.3-0.9c0.2-0.6,0.4-1.2,0.6-1.8
		c0.5-1.1,0.9-2.2,1.7-3.2c0.6-1.1,1.5-2.1,2.4-3c0.9-0.9,1.9-1.8,3-2.4c1.1-0.7,2.1-1.2,3.2-1.7c0.5-0.2,1.1-0.4,1.6-0.6l0.8-0.3
		l0.8-0.2c0.5-0.1,1-0.2,1.6-0.3l1.5-0.2c1-0.2,1.9-0.2,2.9-0.2c3.8-0.1,7.1,0.3,10.4,0.9c6.4,1.2,12.3,3,18,5
		c11.4,4,22.3,8.7,33.1,13.4c10.8,4.7,21.4,9.5,32.1,14.1c21.3,9.2,42.8,18,64.7,24.1c5.5,1.5,11,2.9,16.5,4
		c2.8,0.6,5.5,1.1,8.3,1.5l4.1,0.6l4.3,0.5c5.5,0.6,11.3,1.1,17,1.4c5.7,0.3,11.5,0.5,17.2,0.6c23,0.4,46.2-0.8,69.2-3.3
		c23-2.5,45.8-6.3,68.1-12c11.1-2.9,22.1-6.2,32.8-10.2c10.7-4.1,21.1-8.8,30.7-14.6c9.6-5.8,18.6-12.6,25.6-20.9
		c7.1-8.2,11.9-18.1,13.3-28.6c0.1-1.3,0.4-2.6,0.4-4c0.1-1.3,0.2-2.7,0.1-4c0-1.3,0-2.7-0.2-4c-0.1-1.4-0.2-2.6-0.4-4.1l-2.1-17.4
		c-1.4-11.6-2.7-23.3-3.7-35.1c-1-11.7-1.7-23.5-1.8-35.4c0-1.5,0-3,0-4.5l0.1-4.5c0-3,0.3-6,0.4-8.9c0.4-6,1-11.9,2.1-17.9
		c0.4-3,1.2-5.9,1.8-8.9c0.4-1.5,0.8-2.9,1.2-4.4l0.6-2.2l0.8-2.2c0.5-1.4,1-2.9,1.6-4.3l1.8-4.3c0.6-1.4,1.4-2.8,2.1-4.1
		c0.4-0.7,0.7-1.4,1.1-2l1.2-2c1.6-2.7,3.5-5.1,5.5-7.6l3.2-3.5c0.5-0.6,1.1-1.1,1.7-1.6l1.7-1.6c0.6-0.5,1.1-1.1,1.8-1.6l1.9-1.4
		c1.3-0.9,2.5-1.9,3.8-2.7l4-2.5l4.1-2.1c0.7-0.3,1.4-0.7,2.1-1l2.1-0.9c1.4-0.6,2.8-1.2,4.3-1.7c2.9-0.9,5.8-1.9,8.8-2.6
		c1.5-0.3,3-0.7,4.4-1l4.5-0.8l2.2-0.4l0.6-0.1l0.5-0.1l1.1-0.1l2.2-0.3l2.3-0.2c11.9-1.2,24.1-1.2,36.1,1
		c11.9,2.2,23.8,6.6,33.8,14.1c5,3.8,9.5,8.3,13,13.6c1.7,2.7,3.3,5.6,4.2,9c0.4,1.7,0.9,3.5,0.6,5.9c-0.1,0.6-0.2,1.3-0.5,2
		c-0.2,0.4-0.3,0.8-0.6,1.2c-0.2,0.4-0.6,0.8-1,1.2c-0.4,0.4-0.9,0.7-1.5,0.9c-0.3,0.1-0.5,0.2-0.8,0.3c-0.3,0.1-0.5,0.1-0.8,0.1
		c-0.5,0.1-0.9,0-1.4,0c-0.4,0-0.8-0.1-1.2-0.2c-0.1,0-0.2-0.1-0.3-0.1L636.2,102.2z M636.6,94.2c-0.1-0.3-0.1-0.7-0.2-1.1
		c-0.7-2.3-1.9-4.6-3.3-6.8c-2.9-4.4-6.8-8.3-11.2-11.6c-8.8-6.6-19.5-10.5-30.5-12.5c-11-1.9-22.5-2-33.8-0.7l-2.1,0.2l-2.2,0.3
		l-1.1,0.1l-0.5,0.1l-0.5,0.1l-2.1,0.4l-4.2,0.7c-1.4,0.3-2.7,0.7-4.1,1c-2.8,0.6-5.4,1.6-8,2.4c-1.3,0.4-2.6,1-3.9,1.5l-1.9,0.8
		c-0.6,0.2-1.2,0.6-1.8,0.9l-3.7,1.9l-3.5,2.2c-1.2,0.7-2.2,1.6-3.3,2.4l-1.6,1.2c-0.5,0.4-1,0.9-1.5,1.4l-1.5,1.4
		c-0.5,0.5-1,0.9-1.5,1.4l-2.7,3c-1.6,2.2-3.4,4.3-4.7,6.7l-1.1,1.7c-0.4,0.6-0.6,1.2-1,1.8c-0.6,1.2-1.3,2.4-1.8,3.7l-1.6,3.8
		c-0.5,1.3-0.9,2.6-1.4,3.9l-0.7,2l-0.6,2c-0.4,1.4-0.8,2.7-1.1,4.1c-0.6,2.8-1.2,5.5-1.6,8.3c-1.8,11.2-2.3,22.7-2,34.2
		c0.2,11.5,1.1,23.1,2.2,34.6c1.2,11.6,2.6,23.1,4.1,34.7l2.4,17.4c0.2,1.4,0.4,3.1,0.5,4.6c0.2,1.6,0.2,3.2,0.3,4.7
		c0.1,1.6,0,3.2-0.1,4.8c0,1.6-0.3,3.2-0.4,4.8c-0.8,6.3-2.6,12.6-5.2,18.4c-2.6,5.8-6.1,11.2-10.1,16c-8,9.7-17.9,17.3-28.2,23.7
		c-10.3,6.4-21.3,11.5-32.4,15.9c-11.1,4.4-22.5,8-34,11.1c-23,6.2-46.3,10.4-69.8,13.2c-23.5,2.8-47.1,4.3-70.9,4.2
		c-5.9,0-11.9-0.2-17.8-0.4c-6-0.3-11.9-0.7-18-1.3l-4.4-0.5l-4.5-0.6c-3-0.5-6-1-9-1.5c-5.9-1.2-11.8-2.6-17.6-4.1
		c-11.6-3.2-22.9-7-34-11.1c-11.1-4.1-22-8.7-32.8-13.3c-10.8-4.6-21.5-9.4-32.2-14.1c-10.7-4.6-21.3-9.2-32-12.9
		c-5.3-1.8-10.6-3.4-15.7-4.4c-2.5-0.4-5-0.7-7.1-0.6c-2.1,0.1-3.7,0.5-4.3,1c-0.3,0.2-0.5,0.4-0.7,0.8c-0.1,0.1-0.2,0.4-0.4,0.7
		c0,0.1,0,0.2-0.1,0.2c0,0,0,0.1-0.1,0.1c0,0,0,0.1-0.1,0.2l-0.1,0.3l-0.2,1.1c0-0.1-0.1,0.6,0-0.1l0,0.2l0,0.4l-0.1,0.7l0,0.8
		c0,0.5,0,1.1,0,1.7c0,0.6,0,1.2,0.1,1.8c0.4,4.8,1.7,10,3.4,15.2c1.7,5.2,3.8,10.4,6.2,15.5c2.3,5.1,4.9,10.2,7.6,15.2
		c5.4,10,11.4,19.8,17.8,29.4c12.8,19.1,26.9,37.4,42.5,54.4c7.8,8.4,15.9,16.6,24.6,24c4.3,3.7,8.8,7.2,13.5,10.4
		c2.3,1.6,4.7,3.1,7.1,4.5c2.4,1.4,4.9,2.7,7.4,3.8l0,0l0,0c1.4,0.6,2.2,1.9,2.2,3.2c0,2.9,0.2,6,0.4,9c0.2,3,0.5,6.1,0.9,9.1
		c0.7,6.1,1.6,12.1,2.8,18.1c2.3,12,5.4,23.9,9.5,35.4c8.1,23,20.1,44.7,36.7,62.4c8.3,8.8,17.6,16.6,27.8,23
		c5.1,3.2,10.4,6,15.9,8.6c5.5,2.5,11.1,4.7,16.9,6.5c5.7,1.9,11.6,3.3,17.5,4.5c3,0.6,5.9,1.1,9,1.5c3,0.5,6,0.8,9,1.1
		c1.5,0.2,3.1,0.3,4.6,0.4l2.3,0.2l1.2,0.1l0.5,0l0.6,0c3.1,0.1,6.1,0.3,9.2,0.4c3.1,0.1,6.1,0.2,9.2,0.2c3.1,0.1,6.1,0.1,9.2,0
		c24.6-0.1,49.2-2.1,73.6-5.4c24.4-3.3,48.6-8,72.5-14.1c23.9-6.1,47.4-13.5,70.2-22.5c22.8-9,45.1-19.6,65.9-32.2
		c20.8-12.7,40.4-27.5,56.6-45.3l3-3.4c1-1.1,1.9-2.3,2.9-3.4c1.9-2.3,3.7-4.7,5.5-7.1c3.5-4.8,6.8-9.8,9.7-15l1.1-1.9
		c0.4-0.7,0.7-1.3,1-2l2-4c1.2-2.7,2.5-5.4,3.5-8.1c2.2-5.5,3.9-11.1,5.2-16.9l0.9-4.3l0.7-4.4c0.1-0.7,0.2-1.4,0.3-2.2l0.2-2.2
		c0.1-1.5,0.3-2.9,0.4-4.4c0.1-2.9,0.3-5.6,0.2-8.8l0-2.3l0-1.2l0-0.3c0,0.3,0-0.1,0-0.1l0-0.6l-0.2-4.5
		c-0.7-12.1-2.2-24.2-4.2-36.2c-4.1-24-10.6-47.7-18.7-70.8c-8.1-23.1-17.9-45.7-28.6-67.8c-10.8-22.1-22.6-43.7-35-65.1L601,178
		c-3.1-5.5-6.3-10.8-9.2-16.9c-0.7-1.6-1.4-3.1-2.1-5c-0.2-0.4-0.3-1-0.5-1.5l-0.2-0.8c-0.1-0.4-0.2-0.9-0.2-1.3l-0.1-0.7
		c0-0.2-0.1-0.5-0.1-0.6l0-0.6c0-0.4,0,0.4,0-0.9l0-0.4l0.1-0.7c0.2-2,0.5-4,1.4-6.3c0.8-2.2,2.4-4.8,4.4-6.5c2-1.8,4.1-2.7,5.2-3.3
		c0.6-0.3,0.9-0.5,1.1-0.6c0.2-0.1,0.2-0.1,0.2-0.1c0.1,0.1,0.3-0.4,0.5-1.3c0.2-0.9,0.2-2.2,0.1-3.3l-0.1-1.2l0-0.3
		c0,0-0.1-0.5,0,0l-0.1-0.6l-0.3-2.5c-0.1-0.8-0.1-1.7-0.2-2.5c0-0.9-0.1-1.7-0.1-2.6c0-3.5,0.2-7,1.1-10.7c0.2-0.9,0.5-1.8,0.9-2.7
		l0.5-1.4c0.2-0.5,0.5-0.9,0.7-1.3c0.9-1.8,2.2-3.5,3.7-5c1.6-1.4,3.4-2.6,5.2-3.4c1.9-0.7,3.8-1.2,5.6-1.4
		c3.7-0.4,7.2-0.1,10.6,0.6c1.7,0.3,3.3,0.8,4.9,1.2C635.1,93.7,635.9,93.9,636.6,94.2"/>
	<path clip-path="url(#SVGID_2_)" fill="#282726" d="M578.2,75.2c0,0,0.4,0.5,0.7,1.4c0.4,1,0.8,2.4,0.8,4.2c0,0.9-0.1,1.9-0.3,2.9
		c-0.2,1-0.6,2.1-1.1,3.2c-0.5,1.1-1.2,2.1-2.1,3.1c-0.9,1-1.9,1.8-3,2.5c-0.6,0.3-1.1,0.7-1.7,0.9c-0.6,0.3-1.1,0.5-1.7,0.7
		c-0.6,0.2-1.2,0.3-1.7,0.5c-0.6,0.1-1.1,0.2-1.7,0.3c-0.6,0.1-1.1,0.1-1.6,0.1c-0.5,0-1,0-1.5,0c-0.5-0.1-1-0.1-1.4-0.2
		c-0.5-0.1-0.9-0.2-1.3-0.3c-0.8-0.2-1.6-0.4-2.2-0.7c-0.7-0.2-1.2-0.5-1.7-0.7c-0.9-0.5-1.4-0.8-1.4-0.8s0.6-0.3,1.5-0.6
		c0.5-0.2,1-0.3,1.6-0.6c0.6-0.2,1.3-0.4,2-0.7c0.7-0.2,1.5-0.5,2.3-0.8c0.4-0.1,0.8-0.3,1.2-0.4c0.4-0.2,0.8-0.3,1.2-0.4
		c0.8-0.3,1.6-0.6,2.3-1c0.4-0.2,0.8-0.4,1.1-0.6c0.4-0.2,0.7-0.4,1-0.6c0.7-0.4,1.3-0.9,1.9-1.4c0.6-0.5,1.1-1,1.7-1.6
		c1-1.1,1.9-2.4,2.7-3.7c0.7-1.2,1.3-2.4,1.8-3.3C577.9,75.7,578.2,75.2,578.2,75.2"/>
	<path clip-path="url(#SVGID_2_)" fill="#282726" d="M607.7,62.7c-0.7-5-1.8-9.8-3.1-14.6c-0.7-2.4-1.4-4.7-2.2-7.1
		c-0.8-2.3-1.8-4.6-2.7-6.8c-0.5-1.1-1-2.2-1.6-3.3l-0.8-1.6l-0.9-1.6c-1.2-2.1-2.6-4.1-4-6c-0.7-0.9-1.5-1.8-2.3-2.7l-1.2-1.3
		c-0.4-0.4-0.8-0.9-1.3-1.2c-0.9-0.8-1.7-1.6-2.7-2.3l-1.4-1c-0.5-0.3-1-0.6-1.5-0.9c-0.5-0.3-1-0.6-1.5-0.9l-1.5-0.8
		c-1-0.6-2.1-0.9-3.1-1.4c-2.1-0.8-4.3-1.4-6.6-1.8c-1.1-0.3-2.3-0.3-3.4-0.4c-1.1-0.2-2.3-0.1-3.5-0.2l-1.7,0l-1.8,0.1L557.2,7
		l-0.4,0l-0.1,0l-0.1,0l0,0c0,0,0.3,0,0.1,0l-0.2,0l-0.5,0.1l-0.2,0l-0.1,0c-0.2,0.1-0.6,0.2-1,0.4c-0.3,0.2-0.7,0.3-1,0.6
		c-0.6,0.5-1.2,1.1-1.7,1.8c-1,1.5-1.6,3.5-1.8,5.5c-0.5,4.1,0.7,8.5,3.1,11.4l0,0c1.2,1.5,1,3.6-0.4,4.8c-0.9,0.8-2.1,1-3.2,0.7
		c-0.8-0.2-1.6-0.5-2.5-0.7c-0.8-0.2-1.7-0.4-2.5-0.6c-0.8-0.2-1.7-0.3-2.5-0.5c-0.8-0.1-1.6-0.3-2.5-0.3c-0.8-0.1-1.6-0.1-2.4-0.1
		c-0.8,0-1.6,0-2.4,0.1c-0.8,0.1-1.5,0.2-2.3,0.4c-0.7,0.2-1.4,0.4-2.1,0.7c-0.7,0.3-1.3,0.6-1.9,1c-0.6,0.4-1.1,0.9-1.6,1.4
		c-0.5,0.5-1,1.1-1.4,1.7c-0.4,0.6-0.8,1.3-1.1,2c-0.3,0.7-0.6,1.4-0.8,2.2c-0.2,0.8-0.4,1.5-0.5,2.4c-0.1,0.8-0.2,1.6-0.2,2.5
		c0,0.8,0,1.7,0,2.5l0,0.1c0,1.4-1,2.5-2.4,2.5c-0.2,0-0.4,0-0.6,0c-0.7-0.1-1.4-0.3-2.2-0.3c-0.7,0-1.5,0-2.2,0.2
		c-0.8,0.1-1.5,0.3-2.3,0.6c-0.7,0.3-1.5,0.6-2.2,1c-0.4,0.2-0.7,0.4-1,0.6l-1,0.7l-1,0.8c-0.3,0.3-0.6,0.5-0.9,0.8
		c-0.6,0.6-1.1,1.2-1.6,1.8c-0.5,0.7-1,1.3-1.3,2.1c-0.4,0.7-0.7,1.5-1,2.3c-0.1,0.4-0.3,0.8-0.3,1.2c-0.1,0.4-0.2,0.8-0.2,1.2
		c-0.1,0.4-0.1,0.8-0.1,1.2c0,0.4-0.1,0.8,0,1.3c0,0.4,0,0.8,0.1,1.3c0,0.4,0.1,0.8,0.2,1.3c0.1,0.4,0.2,0.8,0.3,1.2
		c0.1,0.4,0.2,0.8,0.4,1.2c0.3,0.8,0.7,1.6,1.1,2.4c0.5,0.7,0.9,1.5,1.5,2.2c0.5,0.7,1.1,1.4,1.7,2.1c-0.7-0.6-1.4-1.1-2.1-1.8
		c-0.7-0.6-1.3-1.3-1.9-2l-0.8-1.1c-0.3-0.4-0.5-0.8-0.7-1.2c-0.3-0.4-0.4-0.8-0.6-1.3c-0.2-0.4-0.4-0.9-0.5-1.3
		c-0.2-0.4-0.3-0.9-0.4-1.4c-0.1-0.5-0.2-0.9-0.3-1.4c-0.1-0.5-0.1-1-0.2-1.4c0-0.5,0-1,0-1.5c0-0.5,0.1-1,0.1-1.5
		c0-0.5,0.1-1,0.3-1.4c0.2-1,0.5-1.9,0.9-2.8c0.7-1.8,1.8-3.5,3-5.1c0.3-0.4,0.7-0.7,1-1.1l1.1-1l1.1-1c0.4-0.3,0.8-0.6,1.2-0.9
		c0.8-0.5,1.7-1,2.6-1.5c0.9-0.4,1.9-0.8,2.9-1c1-0.3,2.1-0.4,3.1-0.5c1.1-0.1,2.1,0,3.2,0.2l-2.9,2.6c-0.1-1-0.2-2-0.2-3
		c0-1,0-2,0.1-3c0.1-1,0.2-2,0.4-3c0.2-1,0.5-2,0.9-3c0.4-1,0.8-2,1.4-2.9c0.5-0.9,1.2-1.8,1.9-2.7c0.7-0.8,1.6-1.6,2.4-2.3
		c0.9-0.7,1.8-1.2,2.8-1.7c1-0.5,2-0.9,3-1.2c1-0.3,2.1-0.5,3.1-0.7c1-0.2,2.1-0.2,3.1-0.3c1,0,2,0,3,0.1c1,0,2,0.2,3,0.3
		c1,0.1,1.9,0.3,2.9,0.5c1,0.2,1.9,0.4,2.8,0.6c0.9,0.2,1.9,0.5,2.8,0.8l-3.6,5.5c-2.1-2.3-3.4-5.1-4.2-8c-0.8-2.8-1-5.8-0.7-8.7
		c0.3-2.9,1.2-5.9,2.9-8.6c0.9-1.3,2-2.6,3.4-3.6c0.7-0.5,1.4-0.9,2.2-1.3c0.8-0.3,1.6-0.6,2.6-0.8l0.3-0.1l0.2,0l0.5-0.1l0.2,0
		l0.2,0l0,0l0.1,0l0.1,0l0.5,0l2-0.1l2-0.1l2,0.1c1.3,0.1,2.7,0,4,0.3c1.3,0.2,2.7,0.3,4,0.6c2.6,0.6,5.3,1.3,7.7,2.4
		c1.2,0.6,2.5,1.1,3.6,1.8l1.8,1c0.6,0.4,1.1,0.8,1.7,1.1c0.5,0.4,1.1,0.8,1.6,1.2l1.5,1.3c1,0.8,1.9,1.8,2.9,2.8
		c0.5,0.5,0.9,1,1.3,1.5l1.3,1.5c0.8,1,1.6,2.1,2.3,3.2c0.7,1.1,1.4,2.2,2.1,3.3c0.6,1.2,1.3,2.3,1.8,3.5l0.8,1.8l0.7,1.8
		c0.5,1.2,0.9,2.4,1.4,3.6c0.4,1.2,0.8,2.4,1.2,3.7c0.3,1.2,0.7,2.5,1,3.7c0.6,2.5,1.1,5,1.5,7.5c0.4,2.5,0.6,5,0.8,7.5
		C607.7,57.6,607.8,60.1,607.7,62.7"/>
	<path clip-path="url(#SVGID_2_)" fill="#282726" d="M585.7,396.2c0,0-0.8,1.6-2.5,4.7c-1.7,3-4.3,7.4-7.8,12.8
		c-3.5,5.4-8,11.9-13.5,19.1c-5.5,7.2-11.9,15.1-19.5,23.2c-7.5,8.2-16.1,16.7-25.7,25.1c-9.7,8.4-20.3,16.7-32,24.3
		c-11.7,7.6-24.3,14.8-37.8,20.7c-13.4,6-27.6,10.8-42.2,14.4c-7.3,1.7-14.6,3.1-22,4.2c-7.4,1.1-14.8,1.7-22.1,2.2
		c-7.3,0.4-14.7,0.4-21.9,0.1c-1.8-0.1-3.6-0.2-5.4-0.3c-1.8-0.1-3.6-0.2-5.3-0.4c-1.8-0.2-3.5-0.3-5.3-0.5l-0.7-0.1
		c-0.2,0,0.2,0-0.5-0.1l-0.2,0l-0.3-0.1l-1.3-0.3c-0.9-0.2-1.7-0.3-2.5-0.5c-1.7-0.4-3.5-0.9-5.3-1.4c-0.8-0.3-1.7-0.6-2.5-0.9
		c-0.8-0.3-1.7-0.6-2.5-1c-1.6-0.7-3.3-1.4-4.8-2.3c-0.8-0.4-1.6-0.8-2.3-1.3c-0.7-0.5-1.5-1-2.2-1.5c-0.4-0.3-0.7-0.5-1.1-0.8
		l-1-0.8c-0.7-0.6-1.4-1.1-2.1-1.7c-0.6-0.6-1.3-1.2-1.9-1.9c-0.3-0.3-0.6-0.6-0.9-0.9l-0.8-1c-2.3-2.6-4.1-5.7-5.4-8.9
		c-0.3-0.8-0.6-1.6-0.9-2.4c-0.3-0.8-0.5-1.6-0.7-2.4c-0.5-1.6-0.6-3.3-0.9-4.9c-0.1-0.8-0.1-1.6-0.1-2.5c0-0.8-0.1-1.6,0-2.4
		c0.1-1.6,0.1-3.2,0.4-4.8c1-6.2,3.1-11.9,5.8-16.9c2.6-5,5.7-9.5,9-13.5c1.6-2,3.3-3.8,4.9-5.6c1.6-1.8,3.4-3.4,5-5
		c6.6-6.3,12.9-11,18.2-14.7c1.3-0.9,2.6-1.8,3.8-2.6c1.2-0.8,2.4-1.5,3.4-2.2c1.1-0.7,2-1.3,2.9-1.9c0.9-0.5,1.8-1,2.5-1.5
		c3-1.7,4.6-2.7,4.6-2.7s-1.5,1-4.4,3c-0.7,0.5-1.5,1-2.4,1.6c-0.9,0.6-1.8,1.3-2.8,2.1c-1,0.7-2.1,1.5-3.2,2.4
		c-1.1,0.9-2.3,1.8-3.6,2.8c-5,4-11,9-17.2,15.5c-1.5,1.7-3.1,3.3-4.6,5.1c-1.5,1.8-3.1,3.7-4.5,5.7c-0.7,1-1.5,2-2.2,3.1
		c-0.7,1.1-1.4,2.1-2.1,3.2c-1.3,2.2-2.7,4.5-3.8,6.9c-2.3,4.8-4.1,10.2-4.7,15.7c-0.2,1.4-0.2,2.8-0.3,4.2
		c-0.1,0.7,0.1,1.4,0.1,2.1c0.1,0.7,0,1.4,0.2,2.1c0.3,1.4,0.4,2.8,0.9,4.2c0.2,0.7,0.3,1.4,0.6,2.1c0.3,0.7,0.5,1.3,0.8,2
		c1.3,2.6,2.8,5.2,4.8,7.3l0.7,0.8c0.2,0.3,0.5,0.5,0.8,0.8l1.7,1.5c0.6,0.5,1.2,0.9,1.8,1.4l0.9,0.7c0.3,0.2,0.7,0.4,1,0.6
		c0.7,0.4,1.3,0.8,2,1.2c0.7,0.4,1.4,0.7,2.1,1.1c1.4,0.8,2.9,1.3,4.3,2c0.7,0.3,1.5,0.6,2.3,0.8c0.8,0.3,1.5,0.5,2.3,0.8
		c1.6,0.4,3.1,0.8,4.7,1.2c0.9,0.2,1.7,0.3,2.6,0.5l1.3,0.2l0.3,0.1l0.2,0c-0.6-0.1-0.1,0-0.1,0l0.6,0c1.7,0.1,3.4,0.2,5.2,0.4
		c1.7,0.1,3.5,0.2,5.2,0.3c1.7,0.1,3.5,0.2,5.2,0.2c3.5,0,7,0.1,10.6,0c3.6,0,7.1-0.2,10.7-0.4c7.1-0.5,14.3-1.1,21.5-2.2
		c7.2-1.1,14.3-2.5,21.4-4.2c14.1-3.4,28-8,41.1-13.8c6.6-2.9,13-5.9,19.2-9.2c6.2-3.3,12.2-6.8,18-10.4c11.6-7.3,22.3-15.2,32-23.1
		c4.9-4,9.4-8,13.8-12c4.4-4,8.5-8,12.4-11.9c7.7-7.8,14.5-15.3,20.3-22.2c5.8-6.8,10.6-13,14.4-18.2c3.8-5.2,6.7-9.3,8.6-12.2
		C584.7,397.7,585.7,396.2,585.7,396.2"/>
	<path clip-path="url(#SVGID_2_)" fill="#282726" d="M559.2,625.7c0,0-0.3,0.8-1,2.3c-0.7,1.5-1.7,3.7-3.1,6.3
		c-1.4,2.7-3.2,5.9-5.4,9.5c-2.2,3.6-4.9,7.6-8,11.8c-3.1,4.2-6.7,8.7-10.8,13c-4.1,4.4-8.7,8.9-13.9,13
		c-5.1,4.2-10.8,8.1-16.9,11.5c-1.6,0.8-3.1,1.7-4.7,2.4c-1.6,0.7-3.2,1.5-4.8,2.2c-1.7,0.6-3.3,1.3-5,1.9c-1.7,0.6-3.4,1.1-5.1,1.7
		c-6.9,2-14,3.2-21.1,3.5c-1.8,0-3.5,0.1-5.3,0.1c-1.7-0.1-3.4-0.1-5-0.2c-3.4-0.2-6.8-0.4-10.1-0.8c-6.6-0.7-12.9-1.9-18.7-3.5
		c-5.9-1.6-11.3-3.7-16-6.2c-4.7-2.5-8.7-5.4-11.8-8.4c-3.1-3-5.4-6-6.9-8.7c-1.6-2.7-2.3-5-2.8-6.5c-0.4-1.6-0.5-2.4-0.5-2.4
		s0.2,0.8,0.9,2.3c0.6,1.5,1.8,3.5,3.6,5.9c1.8,2.4,4.3,4.9,7.5,7.5c3.3,2.5,7.3,4.8,11.8,6.8c4.6,2,9.9,3.6,15.5,4.8
		c5.7,1.2,11.7,2,18,2.4c3.2,0.2,6.3,0.3,9.6,0.4c1.7,0,3.3,0,5,0c1.6,0,3.2-0.1,4.8-0.2c6.5-0.4,13.1-1.5,19.5-3.4
		c6.4-1.8,12.6-4.4,18.4-7.5c5.8-3.1,11.3-6.6,16.3-10.4c5-3.8,9.7-7.8,14-11.8c1-1,2.1-2,3.1-3c1-1,2-2,2.9-3
		c1.9-2,3.7-3.9,5.4-5.9c3.4-3.9,6.4-7.5,8.9-10.8c2.5-3.3,4.7-6.3,6.4-8.7c1.7-2.5,3.1-4.4,3.9-5.8
		C558.7,626.4,559.2,625.7,559.2,625.7"/>
	<path clip-path="url(#SVGID_2_)" fill="#282726" d="M447.7,701.7c0,0,0.2,0.4,0.6,1.3c0.4,0.8,1,2,1.7,3.6
		c1.4,3.1,3.3,7.5,5.5,12.9c2.2,5.4,4.6,11.7,7,18.5c1.2,3.4,2.5,6.9,3.7,10.5c1.2,3.6,2.4,7.3,3.6,10.9c1.2,3.7,2.3,7.4,3.4,11
		c1.1,3.6,2.1,7.2,3.1,10.7c2,7,3.6,13.5,5,19.1c1.3,5.6,2.3,10.4,3,13.7c0.3,1.7,0.6,3,0.7,3.9c0.1,0.9,0.2,1.4,0.2,1.4
		s-0.2-0.4-0.6-1.3c-0.4-0.8-1-2-1.7-3.6c-1.4-3.1-3.3-7.5-5.5-12.9c-2.2-5.4-4.6-11.7-7-18.5c-1.2-3.4-2.5-6.9-3.7-10.5
		c-1.2-3.6-2.4-7.3-3.6-10.9c-1.2-3.7-2.3-7.4-3.4-11c-1.1-3.6-2.1-7.2-3.1-10.7c-2-7-3.6-13.5-5-19.1c-1.3-5.6-2.3-10.4-3-13.7
		c-0.3-1.7-0.6-3-0.7-3.9C447.7,702.1,447.7,701.7,447.7,701.7"/>
	<path clip-path="url(#SVGID_2_)" fill="#282726" d="M437.2,828.7c0,0,0.5-0.1,1.4-0.4c0.9-0.3,2.2-0.7,3.9-1.1
		c3.4-0.9,8.2-2.2,13.9-3.6c5.8-1.4,12.6-2.8,19.9-4.3c3.6-0.7,7.4-1.4,11.2-2.1c3.8-0.7,7.7-1.3,11.6-2c3.9-0.6,7.8-1.2,11.7-1.8
		c3.9-0.6,7.7-1.1,11.3-1.5c7.4-0.9,14.3-1.6,20.2-2.1c5.9-0.5,10.9-0.8,14.4-1c1.7-0.1,3.1-0.1,4-0.1c0.9,0,1.4,0,1.4,0
		s-0.5,0.1-1.4,0.4c-0.9,0.3-2.2,0.7-3.9,1.1c-3.4,0.9-8.2,2.2-14,3.6c-5.8,1.4-12.6,2.8-19.8,4.3c-3.6,0.7-7.4,1.4-11.2,2.1
		c-3.8,0.7-7.7,1.3-11.6,2c-3.9,0.6-7.8,1.2-11.7,1.8c-3.9,0.6-7.7,1.1-11.3,1.5c-7.4,0.9-14.3,1.6-20.2,2.1
		c-5.9,0.5-10.9,0.8-14.4,1c-1.7,0.1-3.1,0.1-4,0.1C437.7,828.6,437.2,828.7,437.2,828.7"/>
	<path clip-path="url(#SVGID_2_)" fill="#282726" d="M488.2,820.7c0,0,0.4,0,1.2-0.1c0.8,0,1.9-0.1,3.4-0.1c2.9-0.1,7.1-0.1,12,0
		c5,0.1,10.8,0.4,16.9,0.8c3.1,0.2,6.3,0.5,9.5,0.7c3.2,0.3,6.5,0.6,9.8,1c3.3,0.4,6.6,0.7,9.8,1.2c3.2,0.4,6.4,0.9,9.5,1.3
		c6.1,0.9,11.8,1.9,16.7,2.9c4.9,1,8.9,1.9,11.7,2.6c1.4,0.3,2.5,0.7,3.3,0.9c0.8,0.2,1.2,0.3,1.2,0.3s-0.4,0-1.2,0.1
		c-0.8,0-1.9,0.1-3.4,0.1c-2.9,0.1-7.1,0.1-12,0c-5-0.1-10.8-0.4-16.9-0.8c-3.1-0.2-6.3-0.4-9.5-0.7c-3.2-0.3-6.5-0.6-9.8-1
		c-3.3-0.4-6.6-0.7-9.8-1.2c-3.2-0.4-6.4-0.9-9.5-1.3c-6.1-0.9-11.8-1.9-16.7-2.9c-4.9-1-8.9-1.9-11.8-2.6c-1.4-0.3-2.5-0.7-3.3-0.9
		C488.6,820.8,488.2,820.7,488.2,820.7"/>
	<path clip-path="url(#SVGID_2_)" fill="#282726" d="M486.2,821.2c0,0,0.3,0.1,0.9,0.3c0.6,0.2,1.4,0.5,2.5,1
		c2.1,0.8,5.1,2.1,8.6,3.8c3.5,1.7,7.5,3.7,11.8,6.1c2.1,1.2,4.3,2.4,6.5,3.7c2.2,1.3,4.4,2.6,6.6,4c2.2,1.4,4.4,2.7,6.5,4.1
		c2.1,1.4,4.2,2.8,6.2,4.2c4,2.8,7.6,5.5,10.6,7.9c3.1,2.4,5.5,4.5,7.2,6.1c0.9,0.7,1.5,1.4,2,1.8c0.4,0.4,0.7,0.7,0.7,0.7
		s-0.3-0.1-0.9-0.3c-0.6-0.2-1.4-0.5-2.5-1c-2.1-0.8-5.1-2.1-8.6-3.8c-3.5-1.7-7.5-3.7-11.8-6.1c-2.1-1.2-4.3-2.4-6.5-3.7
		c-2.2-1.3-4.4-2.6-6.6-4c-2.2-1.4-4.4-2.7-6.5-4.1c-2.1-1.4-4.2-2.8-6.2-4.2c-4-2.8-7.6-5.5-10.6-7.9c-3.1-2.4-5.5-4.5-7.2-6.1
		c-0.9-0.7-1.5-1.4-2-1.8C486.4,821.4,486.2,821.2,486.2,821.2"/>
	<path clip-path="url(#SVGID_2_)" fill="#282726" d="M376.7,668.7c0,0-0.1,0.4-0.4,1.2c-0.3,0.8-0.6,1.9-1.1,3.4
		c-1,2.9-2.4,7-4.3,11.9c-1.9,4.9-4.2,10.5-6.8,16.5c-1.3,3-2.7,6.1-4.1,9.2c-1.4,3.1-2.9,6.2-4.4,9.4c-1.5,3.1-3.1,6.2-4.6,9.3
		c-1.5,3.1-3.1,6-4.6,8.9c-3.1,5.7-6.1,11-8.7,15.5c-2.7,4.5-5,8.2-6.7,10.7c-0.8,1.3-1.5,2.3-2,3c-0.5,0.7-0.7,1-0.7,1
		s0.1-0.4,0.4-1.2c0.3-0.8,0.6-1.9,1.1-3.4c1-2.9,2.4-7,4.3-11.9c1.9-4.9,4.2-10.5,6.8-16.5c1.3-3,2.7-6.1,4.1-9.2
		c1.4-3.1,2.9-6.2,4.4-9.4c1.5-3.1,3.1-6.2,4.6-9.3c1.5-3.1,3.1-6,4.6-8.9c3.1-5.7,6.1-11,8.7-15.5c2.7-4.5,5-8.2,6.7-10.7
		c0.8-1.3,1.5-2.3,2-3C376.4,669,376.7,668.7,376.7,668.7"/>
	<path clip-path="url(#SVGID_2_)" fill="#282726" d="M301.2,756.2c0,0,0.5,0.2,1.5,0.5c1,0.4,2.4,0.8,4.2,1.5
		c3.6,1.3,8.8,3.3,14.9,5.8c6.1,2.5,13.2,5.6,20.7,9c3.7,1.7,7.6,3.5,11.5,5.3c3.9,1.8,7.9,3.8,11.8,5.7c3.9,2,7.9,3.9,11.7,5.9
		c3.9,2,7.6,3.9,11.3,5.9c7.3,3.9,14,7.6,19.7,10.9c5.7,3.3,10.4,6.2,13.7,8.2c1.6,1,2.9,1.9,3.8,2.4c0.9,0.6,1.3,0.9,1.3,0.9
		s-0.5-0.2-1.5-0.5c-1-0.4-2.4-0.8-4.2-1.5c-3.6-1.3-8.8-3.3-14.9-5.8c-6.1-2.5-13.2-5.6-20.7-9c-3.7-1.7-7.6-3.5-11.5-5.3
		c-3.9-1.8-7.9-3.8-11.8-5.7c-3.9-2-7.9-3.9-11.7-5.9c-3.9-2-7.6-3.9-11.3-5.9c-7.3-3.9-14-7.6-19.7-10.9
		c-5.7-3.3-10.4-6.2-13.7-8.2c-1.6-1-2.9-1.9-3.8-2.4C301.6,756.5,301.2,756.2,301.2,756.2"/>
	<path clip-path="url(#SVGID_2_)" fill="#282726" d="M326.2,768.2c0,0,0.3,0.2,1,0.5c0.6,0.4,1.6,0.9,2.7,1.6
		c2.3,1.4,5.5,3.4,9.3,5.9c3.8,2.5,8.1,5.6,12.7,8.9c2.3,1.7,4.6,3.4,7,5.3c2.4,1.8,4.7,3.7,7.1,5.6c2.3,1.9,4.7,3.8,6.9,5.8
		c2.3,1.9,4.5,3.9,6.6,5.7c4.2,3.8,8.1,7.4,11.3,10.6c3.2,3.2,5.9,6,7.7,7.9c0.9,1,1.6,1.8,2.1,2.3c0.5,0.5,0.7,0.8,0.7,0.8
		s-0.3-0.2-1-0.5c-0.6-0.4-1.6-0.9-2.7-1.6c-2.3-1.4-5.5-3.4-9.3-5.9c-3.8-2.5-8.1-5.6-12.7-8.9c-2.3-1.7-4.6-3.4-7-5.3
		c-2.4-1.8-4.7-3.7-7.1-5.6c-2.3-1.9-4.7-3.8-6.9-5.8c-2.3-1.9-4.5-3.8-6.6-5.7c-4.2-3.8-8.1-7.4-11.3-10.6c-3.2-3.2-5.9-6-7.7-7.9
		c-0.9-1-1.6-1.8-2.1-2.3C326.4,768.4,326.2,768.2,326.2,768.2"/>
	<path clip-path="url(#SVGID_2_)" fill="#282726" d="M322.7,766.7c0,0,0.3,0.2,0.8,0.6c0.5,0.4,1.3,1,2.2,1.8
		c1.8,1.6,4.4,3.9,7.4,6.8c3,2.9,6.3,6.3,9.8,10.1c1.7,1.9,3.5,3.9,5.3,5.9c1.8,2,3.5,4.1,5.3,6.2c1.7,2.1,3.5,4.2,5.1,6.4
		c1.7,2.1,3.3,4.2,4.8,6.3c3.1,4.1,5.9,8.1,8.1,11.5c2.3,3.4,4.1,6.4,5.3,8.5c0.6,1,1.1,1.9,1.4,2.5c0.3,0.6,0.5,0.9,0.5,0.9
		s-0.3-0.2-0.8-0.6c-0.5-0.4-1.3-1-2.2-1.8c-1.8-1.6-4.4-3.9-7.4-6.8c-3-2.9-6.3-6.3-9.8-10.1c-1.7-1.9-3.5-3.9-5.3-5.9
		c-1.8-2-3.5-4.1-5.3-6.2c-1.7-2.1-3.5-4.2-5.1-6.4c-1.7-2.1-3.3-4.2-4.8-6.3c-3.1-4.1-5.9-8.1-8.1-11.5c-2.3-3.4-4.1-6.4-5.3-8.5
		c-0.6-1-1.1-1.9-1.4-2.5C322.8,767,322.7,766.7,322.7,766.7"/>
	<path clip-path="url(#SVGID_2_)" fill="#E8AE4A" d="M552.6,634.5c0,0-46.3,84.7-134.7,60.3c-16.3-4.7-28.3-12-34.3-22.3
		C426.3,666.8,473.9,662.8,552.6,634.5"/>
	<path clip-path="url(#SVGID_2_)" fill="#E8AE4A" d="M606.8,58.2c0,0-4.5-38-29.3-48.5c-13.5-5-28.8-7.5-27.8,6.8
		c0,6.5,1.5,8.5,3.5,11s-1.3,4.8-8.5,3.5s-19.8-4.8-22,13.5c-0.3,2.5,0.5,4.5-4.5,4.5s-23,6.8-12.3,24.5
		C519.5,63.2,550.3,44.4,606.8,58.2"/>
	<path clip-path="url(#SVGID_2_)" fill="#D9D9D8" d="M307.6,542.2c0,0,161.3,39.3,270-134c-60,110.7-136,179.3-215.3,182
		C282.9,592.8,307.6,542.2,307.6,542.2"/>
	<path clip-path="url(#SVGID_2_)" fill="#282726" d="M490.9,222.8c0.7,1.6,1.7,3.1,2.7,4.5c0.5,0.7,1.1,1.4,1.7,2
		c0.6,0.6,1.2,1.2,1.9,1.7c0.7,0.5,1.4,1,2.1,1.4c0.7,0.4,1.5,0.8,2.3,1c0.4,0.1,0.8,0.3,1.2,0.3c0.4,0.1,0.8,0.2,1.2,0.2
		c0.4,0.1,0.8,0.1,1.2,0.1c0.4,0,0.8,0,1.2,0c0.8,0,1.6-0.2,2.4-0.3c0.8-0.2,1.6-0.4,2.4-0.8c0.8-0.3,1.5-0.7,2.3-1
		c0.7-0.4,1.5-0.8,2.2-1.3c0.7-0.5,1.4-0.9,2.1-1.4c0.7-0.5,1.4-1,2-1.6c0.6-0.6,1.3-1.1,1.9-1.7l1.9-1.8c0.4-0.4,1-0.5,1.6-0.4
		l0.1,0c3.2,0.9,6.5,1.5,9.9,1.8c1.7,0.1,3.3,0.2,5,0.1c0.8,0,1.6-0.1,2.4-0.2c0.8-0.1,1.6-0.2,2.4-0.4l1.2-0.3l1.1-0.4l1.1-0.4
		l1-0.5c0.3-0.2,0.7-0.4,1-0.6c0.3-0.2,0.6-0.4,0.9-0.6c0.3-0.2,0.6-0.5,0.8-0.7c0.3-0.3,0.5-0.5,0.8-0.8c0.2-0.3,0.5-0.6,0.7-0.9
		l0.6-0.9l0.5-1l0.4-1c0.3-0.7,0.5-1.4,0.7-2.2c0.2-0.7,0.3-1.5,0.4-2.3l0-0.1c0.2-1.1,1.2-1.8,2.3-1.7c0.2,0,0.4,0.1,0.6,0.2
		l2.2,1.1c0.7,0.3,1.5,0.6,2.2,0.9c0.7,0.3,1.5,0.5,2.3,0.8c0.8,0.3,1.5,0.4,2.3,0.6c0.8,0.2,1.5,0.3,2.3,0.4c0.4,0,0.8,0.1,1.2,0.1
		l1.2,0c0.8,0.1,1.5,0,2.3-0.1c0.8,0,1.5-0.2,2.3-0.3l0.6-0.1l0.5-0.2l1.1-0.3c0.7-0.3,1.3-0.6,2-0.9c0.6-0.4,1.2-0.8,1.8-1.3
		l0.8-0.8c0.3-0.3,0.6-0.5,0.8-0.8l0.7-0.9l0.4-0.4l0.3-0.5l0.6-1l0.3-0.5l0.2-0.5c0.3-0.7,0.7-1.4,0.9-2.2l0.7-2.3l0-0.1
		c0.2-0.7,1-1.1,1.7-0.9c0.2,0.1,0.3,0.1,0.5,0.3l1.4,1.2l0.7,0.6c0.2,0.2,0.5,0.3,0.8,0.5c0.5,0.3,1,0.7,1.5,1l1.6,0.8
		c0.5,0.3,1.1,0.4,1.7,0.6c0.6,0.2,1.2,0.3,1.7,0.4c0.3,0.1,0.6,0.1,0.9,0.2l0.9,0c0.3,0,0.6,0,0.9,0l0.9-0.1c0.3,0,0.6,0,0.9-0.1
		l0.9-0.2c0.6-0.1,1.2-0.3,1.7-0.6c0.6-0.2,1.1-0.5,1.6-0.8c0.5-0.3,1-0.7,1.5-1c0.4-0.4,0.9-0.8,1.3-1.3c0.4-0.5,0.8-0.9,1.2-1.5
		l0.5-0.8l0.4-0.8c0.3-0.6,0.4-1.2,0.7-1.8c-0.1,0.6-0.2,1.3-0.4,1.9l-0.3,0.9l-0.4,0.9c-0.3,0.6-0.7,1.1-1,1.7
		c-0.4,0.5-0.8,1-1.3,1.5c-0.5,0.4-1,0.9-1.5,1.3c-0.6,0.4-1.1,0.8-1.7,1.1c-0.6,0.3-1.2,0.6-1.9,0.8l-1,0.3c-0.3,0.1-0.7,0.1-1,0.2
		l-1,0.2c-0.3,0-0.7,0-1,0l-1,0c-0.3,0-0.7-0.1-1-0.1c-0.7-0.1-1.4-0.1-2-0.3c-0.6-0.2-1.3-0.3-2-0.6l-1.9-0.8
		c-0.6-0.3-1.2-0.6-1.8-1c-0.3-0.2-0.6-0.3-0.9-0.5l-0.8-0.6l-1.6-1.2l2.2-0.8L591,205c-0.2,0.9-0.6,1.7-0.9,2.5l-0.2,0.6l-0.3,0.6
		l-0.6,1.2l-0.3,0.6l-0.4,0.6l-0.8,1.1c-0.3,0.4-0.6,0.7-0.9,1l-1,1c-0.7,0.6-1.5,1.1-2.2,1.7c-0.8,0.4-1.6,0.9-2.5,1.3l-1.3,0.5
		l-0.7,0.2l-0.7,0.2c-0.9,0.2-1.8,0.4-2.7,0.5c-0.9,0.1-1.8,0.2-2.7,0.1l-1.4,0c-0.5,0-0.9-0.1-1.3-0.1l-1.3-0.2
		c-0.4-0.1-0.9-0.2-1.3-0.3c-0.9-0.2-1.8-0.4-2.6-0.6c-0.8-0.3-1.7-0.5-2.5-0.8c-0.8-0.3-1.7-0.6-2.5-1l-2.4-1.1l2.9-1.5
		c-0.1,0.9-0.2,1.9-0.5,2.8c-0.2,0.9-0.5,1.9-0.8,2.8c-0.2,0.5-0.4,0.9-0.6,1.3l-0.7,1.3c-0.3,0.4-0.5,0.8-0.8,1.2
		c-0.3,0.4-0.6,0.8-0.9,1.2c-0.3,0.4-0.7,0.7-1,1.1c-0.4,0.3-0.8,0.6-1.1,1c-0.4,0.3-0.8,0.6-1.2,0.8c-0.4,0.3-0.8,0.5-1.3,0.7
		c-0.4,0.2-0.9,0.4-1.3,0.6l-1.3,0.5l-1.4,0.4l-1.4,0.3c-0.9,0.2-1.8,0.3-2.8,0.4c-0.9,0.1-1.8,0.1-2.7,0.2c-1.8,0-3.6-0.1-5.4-0.3
		c-1.8-0.2-3.6-0.5-5.3-0.9c-1.7-0.4-3.5-0.8-5.2-1.4l1.6-0.4l-2.1,1.8c-0.7,0.6-1.4,1.1-2.1,1.7c-0.7,0.6-1.5,1.1-2.2,1.6
		c-0.8,0.5-1.6,1-2.4,1.4c-0.8,0.4-1.6,0.9-2.5,1.2c-0.9,0.3-1.7,0.7-2.6,1c-0.9,0.3-1.8,0.5-2.7,0.7c-0.9,0.1-1.9,0.2-2.8,0.2
		c-0.5,0-0.9,0-1.4-0.1c-0.5,0-0.9-0.1-1.4-0.2c-0.5-0.1-0.9-0.2-1.4-0.4c-0.5-0.1-0.9-0.3-1.3-0.5c-0.9-0.4-1.7-0.8-2.4-1.4
		c-0.8-0.5-1.5-1.1-2.1-1.7c-0.6-0.6-1.3-1.3-1.8-2c-0.6-0.7-1.1-1.5-1.5-2.2C492.2,226.1,491.5,224.5,490.9,222.8"/>
</g>
</svg>
