####
#
#	OBJ File Generated by LightWave3D
#	LightWave3D OBJ Export v2.3
#
####
o ecran.obj
mtllib ecran.mtl
g default
v -0.89 -0.36 -1.08994e-16
v -0.89 -0.257143 -0.06
v -0.89 -0.154286 -0.085
v -0.89 -0.0514286 -0.095
v -0.89 0.0514286 -0.095
v -0.89 0.154286 -0.085
v -0.89 0.257143 -0.06
v -0.89 0.36 -1.08994e-16
v -0.785294 -0.36 -0.03
v -0.785294 -0.257143 -0.14
v -0.785294 -0.154286 -0.165
v -0.785294 -0.0514286 -0.185
v -0.785294 0.0514286 -0.185
v -0.785294 0.154286 -0.165
v -0.785294 0.257143 -0.14
v -0.785294 0.36 -0.03
v -0.680588 -0.36 -0.07
v -0.680588 -0.257143 -0.2
v -0.680588 -0.154286 -0.24
v -0.680588 -0.0514286 -0.26
v -0.680588 0.0514286 -0.26
v -0.680588 0.154286 -0.24
v -0.680588 0.257143 -0.2
v -0.680588 0.36 -0.07
v -0.575882 -0.36 -0.1
v -0.575882 -0.257143 -0.26
v -0.575882 -0.154286 -0.31
v -0.575882 -0.0514286 -0.335
v -0.575882 0.0514286 -0.335
v -0.575882 0.154286 -0.31
v -0.575882 0.257143 -0.26
v -0.575882 0.36 -0.1
v -0.471176 -0.36 -0.125
v -0.471176 -0.257143 -0.29
v -0.471176 -0.154286 -0.34
v -0.471176 -0.0514286 -0.365
v -0.471176 0.0514286 -0.365
v -0.471176 0.154286 -0.34
v -0.471176 0.257143 -0.29
v -0.471176 0.36 -0.125
v -0.366471 -0.36 -0.14
v -0.366471 -0.257143 -0.31
v -0.366471 -0.154286 -0.36
v -0.366471 -0.0514286 -0.385
v -0.366471 0.0514286 -0.385
v -0.366471 0.154286 -0.36
v -0.366471 0.257143 -0.31
v -0.366471 0.36 -0.14
v -0.261765 -0.36 -0.15
v -0.261765 -0.257143 -0.33
v -0.261765 -0.154286 -0.38
v -0.261765 -0.0514286 -0.405
v -0.261765 0.0514286 -0.405
v -0.261765 0.154286 -0.38
v -0.261765 0.257143 -0.33
v -0.261765 0.36 -0.15
v -0.157059 -0.36 -0.155
v -0.157059 -0.257143 -0.34
v -0.157059 -0.154286 -0.39
v -0.157059 -0.0514286 -0.415
v -0.157059 0.0514286 -0.415
v -0.157059 0.154286 -0.39
v -0.157059 0.257143 -0.34
v -0.157059 0.36 -0.155
v -0.052353 -0.36 -0.155
v -0.052353 -0.257143 -0.35
v -0.052353 -0.154286 -0.4
v -0.052353 -0.0514286 -0.425
v -0.052353 0.0514286 -0.425
v -0.052353 0.154286 -0.4
v -0.052353 0.257143 -0.35
v -0.052353 0.36 -0.155
v 0.0523529 -0.36 -0.155
v 0.0523529 -0.257143 -0.35
v 0.0523529 -0.154286 -0.4
v 0.0523529 -0.0514286 -0.425
v 0.0523529 0.0514286 -0.425
v 0.0523529 0.154286 -0.4
v 0.0523529 0.257143 -0.35
v 0.0523529 0.36 -0.155
v 0.157059 -0.36 -0.155
v 0.157059 -0.257143 -0.34
v 0.157059 -0.154286 -0.39
v 0.157059 -0.0514286 -0.415
v 0.157059 0.0514286 -0.415
v 0.157059 0.154286 -0.39
v 0.157059 0.257143 -0.34
v 0.157059 0.36 -0.155
v 0.261765 -0.36 -0.15
v 0.261765 -0.257143 -0.33
v 0.261765 -0.154286 -0.38
v 0.261765 -0.0514286 -0.405
v 0.261765 0.0514286 -0.405
v 0.261765 0.154286 -0.38
v 0.261765 0.257143 -0.33
v 0.261765 0.36 -0.15
v 0.366471 -0.36 -0.14
v 0.366471 -0.257143 -0.31
v 0.366471 -0.154286 -0.36
v 0.366471 -0.0514286 -0.385
v 0.366471 0.0514286 -0.385
v 0.366471 0.154286 -0.36
v 0.366471 0.257143 -0.31
v 0.366471 0.36 -0.14
v 0.471176 -0.36 -0.125
v 0.471176 -0.257143 -0.29
v 0.471176 -0.154286 -0.34
v 0.471176 -0.0514286 -0.365
v 0.471176 0.0514286 -0.365
v 0.471176 0.154286 -0.34
v 0.471176 0.257143 -0.29
v 0.471176 0.36 -0.125
v 0.575882 -0.36 -0.1
v 0.575882 -0.257143 -0.26
v 0.575882 -0.154286 -0.31
v 0.575882 -0.0514286 -0.335
v 0.575882 0.0514286 -0.335
v 0.575882 0.154286 -0.31
v 0.575882 0.257143 -0.26
v 0.575882 0.36 -0.1
v 0.680588 -0.36 -0.07
v 0.680588 -0.257143 -0.2
v 0.680588 -0.154286 -0.24
v 0.680588 -0.0514286 -0.26
v 0.680588 0.0514286 -0.26
v 0.680588 0.154286 -0.24
v 0.680588 0.257143 -0.2
v 0.680588 0.36 -0.07
v 0.785294 -0.36 -0.03
v 0.785294 -0.257143 -0.14
v 0.785294 -0.154286 -0.165
v 0.785294 -0.0514286 -0.185
v 0.785294 0.0514286 -0.185
v 0.785294 0.154286 -0.165
v 0.785294 0.257143 -0.14
v 0.785294 0.36 -0.03
v 0.89 -0.36 1.08994e-16
v 0.89 -0.257143 -0.06
v 0.89 -0.154286 -0.085
v 0.89 -0.0514286 -0.095
v 0.89 0.0514286 -0.095
v 0.89 0.154286 -0.085
v 0.89 0.257143 -0.06
v 0.89 0.36 1.08994e-16
vt 0 0
vt 0 0.142857
vt 0 0.285714
vt 0 0.428571
vt 0 0.571429
vt 0 0.714286
vt 0 0.857143
vt 0 1
vt 0.0588235 0
vt 0.0588235 0.142857
vt 0.0588235 0.285714
vt 0.0588235 0.428571
vt 0.0588235 0.571429
vt 0.0588235 0.714286
vt 0.0588235 0.857143
vt 0.0588235 1
vt 0.117647 0
vt 0.117647 0.142857
vt 0.117647 0.285714
vt 0.117647 0.428571
vt 0.117647 0.571429
vt 0.117647 0.714286
vt 0.117647 0.857143
vt 0.117647 1
vt 0.176471 0
vt 0.176471 0.142857
vt 0.176471 0.285714
vt 0.176471 0.428571
vt 0.176471 0.571429
vt 0.176471 0.714286
vt 0.176471 0.857143
vt 0.176471 1
vt 0.235294 0
vt 0.235294 0.142857
vt 0.235294 0.285714
vt 0.235294 0.428571
vt 0.235294 0.571429
vt 0.235294 0.714286
vt 0.235294 0.857143
vt 0.235294 1
vt 0.294118 0
vt 0.294118 0.142857
vt 0.294118 0.285714
vt 0.294118 0.428571
vt 0.294118 0.571429
vt 0.294118 0.714286
vt 0.294118 0.857143
vt 0.294118 1
vt 0.352941 0
vt 0.352941 0.142857
vt 0.352941 0.285714
vt 0.352941 0.428571
vt 0.352941 0.571429
vt 0.352941 0.714286
vt 0.352941 0.857143
vt 0.352941 1
vt 0.411765 0
vt 0.411765 0.142857
vt 0.411765 0.285714
vt 0.411765 0.428571
vt 0.411765 0.571429
vt 0.411765 0.714286
vt 0.411765 0.857143
vt 0.411765 1
vt 0.470588 0
vt 0.470588 0.142857
vt 0.470588 0.285714
vt 0.470588 0.428571
vt 0.470588 0.571429
vt 0.470588 0.714286
vt 0.470588 0.857143
vt 0.470588 1
vt 0.529412 0
vt 0.529412 0.142857
vt 0.529412 0.285714
vt 0.529412 0.428571
vt 0.529412 0.571429
vt 0.529412 0.714286
vt 0.529412 0.857143
vt 0.529412 1
vt 0.588235 0
vt 0.588235 0.142857
vt 0.588235 0.285714
vt 0.588235 0.428571
vt 0.588235 0.571429
vt 0.588235 0.714286
vt 0.588235 0.857143
vt 0.588235 1
vt 0.647059 0
vt 0.647059 0.142857
vt 0.647059 0.285714
vt 0.647059 0.428571
vt 0.647059 0.571429
vt 0.647059 0.714286
vt 0.647059 0.857143
vt 0.647059 1
vt 0.705882 0
vt 0.705882 0.142857
vt 0.705882 0.285714
vt 0.705882 0.428571
vt 0.705882 0.571429
vt 0.705882 0.714286
vt 0.705882 0.857143
vt 0.705882 1
vt 0.764706 0
vt 0.764706 0.142857
vt 0.764706 0.285714
vt 0.764706 0.428571
vt 0.764706 0.571429
vt 0.764706 0.714286
vt 0.764706 0.857143
vt 0.764706 1
vt 0.823529 0
vt 0.823529 0.142857
vt 0.823529 0.285714
vt 0.823529 0.428571
vt 0.823529 0.571429
vt 0.823529 0.714286
vt 0.823529 0.857143
vt 0.823529 1
vt 0.882353 0
vt 0.882353 0.142857
vt 0.882353 0.285714
vt 0.882353 0.428571
vt 0.882353 0.571429
vt 0.882353 0.714286
vt 0.882353 0.857143
vt 0.882353 1
vt 0.941176 0
vt 0.941176 0.142857
vt 0.941176 0.285714
vt 0.941176 0.428571
vt 0.941176 0.571429
vt 0.941176 0.714286
vt 0.941176 0.857143
vt 0.941176 1
vt 1 0
vt 1 0.142857
vt 1 0.285714
vt 1 0.428571
vt 1 0.571429
vt 1 0.714286
vt 1 0.857143
vt 1 1
vn -0.651647 -0.0245245 0.758125
vn -0.635377 0.0744619 0.768603
vn -0.616352 -0.138835 0.775135
vn -0.615947 0.076659 0.784049
vn -0.608899 -0.0639311 0.790667
vn -0.600035 0.152314 0.78534
vn -0.585805 -0.173062 0.791759
vn -0.584848 -0.268362 0.765463
vn -0.580529 -0.0783091 0.810465
vn -0.579512 0.18013 0.794807
vn -0.575856 0.0852495 0.813094
vn -0.546017 -0.222582 0.807665
vn -0.542789 0.24583 0.803086
vn -0.476665 0.467935 0.744195
vn -0.448366 0.457797 0.767717
vn -0.442664 -0.48999 0.750971
vn -0.433457 0.110399 0.894386
vn -0.428177 -0.0987884 0.898279
vn -0.407881 0.305993 0.860233
vn -0.406499 0.550801 0.728956
vn -0.392754 -0.577743 0.715512
vn -0.39164 -0.299554 0.869992
vn -0.382044 -0.584928 0.715473
vn -0.323124 0.623502 0.711924
vn -0.31739 0.630377 0.708441
vn -0.266223 -0.645465 0.715891
vn -0.254934 0.74148 0.620658
vn -0.254934 -0.74148 0.620658
vn -0.240239 0.489115 0.838482
vn -0.230402 0.116228 0.966129
vn -0.230029 -0.11543 0.966314
vn -0.222363 -0.712137 0.665894
vn -0.219268 0.330881 0.917845
vn -0.218296 -0.330331 0.918275
vn -0.200423 -0.806233 0.556614
vn -0.200423 0.806233 0.556614
vn -0.186333 0.116908 0.975506
vn -0.186333 -0.116908 0.975506
vn -0.176885 0.333403 0.926042
vn -0.176885 -0.333403 0.926042
vn -0.172402 0.662755 0.72872
vn -0.15838 -0.663715 0.731026
vn -0.140735 0.118042 0.982985
vn -0.140313 -0.117538 0.983106
vn -0.133868 0.335847 0.932355
vn -0.132782 -0.335504 0.932634
vn -0.130564 0.672443 0.728542
vn -0.130564 -0.672443 0.728542
vn -0.117886 -0.840257 0.529217
vn -0.117886 0.840257 0.529217
vn -0.102847 0.681951 0.72413
vn -0.094404 0.118418 0.988466
vn -0.094404 -0.118418 0.988466
vn -0.0895016 0.337295 0.937135
vn -0.0895015 -0.337295 0.937135
vn -0.0881819 -0.682508 0.725539
vn -0.0744656 0.850909 0.520008
vn -0.0744656 -0.850909 0.520008
vn -0.0608394 -0.689137 0.722073
vn -0.0608394 0.689137 0.722073
vn -0.0558312 0.862732 0.502569
vn -0.0558312 -0.862732 0.502569
vn -0.0474808 0.118895 0.991771
vn -0.0470317 -0.118722 0.991813
vn -0.0453705 0.338357 0.939923
vn -0.0442228 -0.338241 0.94002
vn -0.0378492 0.695127 0.717889
vn -0.0273352 -0.646768 0.762197
vn -0.0233527 -0.871855 0.489207
vn -0.0233527 0.871855 0.489207
vn -0.014842 0.880946 0.472984
vn -0.011131 -0.881857 0.471386
vn 0.011131 0.881857 0.471386
vn 0.014842 -0.880946 0.472984
vn 0.0233527 -0.871855 0.489207
vn 0.0233527 0.871855 0.489207
vn 0.0273352 0.646768 0.762197
vn 0.0378492 -0.695128 0.717889
vn 0.0442228 0.338241 0.94002
vn 0.0453705 -0.338357 0.939923
vn 0.0470317 0.118722 0.991813
vn 0.0474808 -0.118895 0.991771
vn 0.0558312 -0.862732 0.502569
vn 0.0558312 0.862732 0.502569
vn 0.0608394 0.689137 0.722073
vn 0.0608394 -0.689137 0.722073
vn 0.0744656 -0.850909 0.520008
vn 0.0744656 0.850909 0.520008
vn 0.0881819 0.682508 0.725539
vn 0.0895015 -0.337295 0.937135
vn 0.0895016 0.337295 0.937135
vn 0.094404 -0.118418 0.988466
vn 0.094404 0.118418 0.988466
vn 0.102847 -0.681951 0.72413
vn 0.117886 -0.840257 0.529217
vn 0.117886 0.840257 0.529217
vn 0.130564 0.672443 0.728542
vn 0.130564 -0.672443 0.728542
vn 0.132782 0.335504 0.932634
vn 0.133868 -0.335847 0.932355
vn 0.140313 0.117538 0.983106
vn 0.140735 -0.118042 0.982985
vn 0.15838 0.663715 0.731026
vn 0.172402 -0.662755 0.72872
vn 0.176885 -0.333403 0.926042
vn 0.176885 0.333403 0.926042
vn 0.186333 -0.116908 0.975506
vn 0.186333 0.116908 0.975506
vn 0.200424 -0.806233 0.556614
vn 0.200424 0.806233 0.556614
vn 0.218296 0.330331 0.918275
vn 0.219268 -0.330881 0.917845
vn 0.222363 0.712137 0.665894
vn 0.230029 0.11543 0.966314
vn 0.230402 -0.116228 0.966129
vn 0.240239 -0.489115 0.838482
vn 0.254934 -0.74148 0.620658
vn 0.254934 0.74148 0.620658
vn 0.266223 0.645465 0.715891
vn 0.31739 -0.630377 0.708441
vn 0.323124 -0.623502 0.711924
vn 0.382044 0.584928 0.715473
vn 0.39164 0.299554 0.869992
vn 0.392754 0.577743 0.715512
vn 0.406499 -0.550801 0.728956
vn 0.407881 -0.305993 0.860233
vn 0.428177 0.0987884 0.898279
vn 0.433457 -0.110399 0.894386
vn 0.442664 0.48999 0.750971
vn 0.448366 -0.457797 0.767717
vn 0.476665 -0.467935 0.744195
vn 0.542789 -0.24583 0.803086
vn 0.546017 0.222582 0.807665
vn 0.575856 -0.0852495 0.813094
vn 0.579512 -0.18013 0.794807
vn 0.58053 0.0783091 0.810465
vn 0.584848 0.268362 0.765463
vn 0.585805 0.173062 0.791759
vn 0.600035 -0.152314 0.78534
vn 0.608899 0.0639311 0.790667
vn 0.615947 -0.076659 0.784049
vn 0.616353 0.138835 0.775135
vn 0.635377 -0.0744619 0.768603
vn 0.651647 0.0245245 0.758125
g group_ECRAN
usemtl ECRAN
s off
f 138/138/15 129/129/24 137/137/29
f 138/138/15 130/130/14 129/129/24
f 130/130/14 121/121/27 129/129/24
f 130/130/14 122/122/20 121/121/27
f 122/122/20 113/113/36 121/121/27
f 122/122/20 114/114/25 113/113/36
f 114/114/25 105/105/50 113/113/36
f 114/114/25 106/106/41 105/105/50
f 106/106/41 97/97/57 105/105/50
f 106/106/41 98/98/47 97/97/57
f 98/98/47 89/89/61 97/97/57
f 98/98/47 90/90/51 89/89/61
f 90/90/51 81/81/70 89/89/61
f 90/90/51 82/82/60 81/81/70
f 81/81/70 82/82/60 73/73/71
f 82/82/60 74/74/67 73/73/71
f 74/74/67 65/65/73 73/73/71
f 74/74/67 66/66/77 65/65/73
f 58/58/85 57/57/76 65/65/73
f 66/66/77 58/58/85 65/65/73
f 57/57/76 50/50/89 49/49/84
f 58/58/85 50/50/89 57/57/76
f 49/49/84 42/42/97 41/41/88
f 50/50/89 42/42/97 49/49/84
f 41/41/88 34/34/103 33/33/96
f 42/42/97 34/34/103 41/41/88
f 33/33/96 26/26/119 25/25/110
f 34/34/103 26/26/119 33/33/96
f 25/25/110 18/18/124 17/17/118
f 26/26/119 18/18/124 25/25/110
f 17/17/118 10/10/129 9/9/113
f 18/18/124 10/10/129 17/17/118
f 9/9/113 10/10/129 1/1/122
f 10/10/129 2/2/137 1/1/122
f 139/139/6 130/130/14 138/138/15
f 139/139/6 131/131/10 130/130/14
f 131/131/10 122/122/20 130/130/14
f 131/131/10 123/123/13 122/122/20
f 123/123/13 114/114/25 122/122/20
f 123/123/13 115/115/19 114/114/25
f 115/115/19 106/106/41 114/114/25
f 115/115/19 107/107/33 106/106/41
f 107/107/33 98/98/47 106/106/41
f 107/107/33 99/99/39 98/98/47
f 99/99/39 90/90/51 98/98/47
f 99/99/39 91/91/45 90/90/51
f 91/91/45 82/82/60 90/90/51
f 91/91/45 83/83/54 82/82/60
f 83/83/54 74/74/67 82/82/60
f 83/83/54 75/75/65 74/74/67
f 75/75/65 66/66/77 74/74/67
f 75/75/65 67/67/79 66/66/77
f 66/66/77 67/67/79 58/58/85
f 67/67/79 59/59/91 58/58/85
f 58/58/85 59/59/91 50/50/89
f 59/59/91 51/51/99 50/50/89
f 50/50/89 51/51/99 42/42/97
f 51/51/99 43/43/106 42/42/97
f 42/42/97 43/43/106 34/34/103
f 43/43/106 35/35/111 34/34/103
f 34/34/103 35/35/111 26/26/119
f 35/35/111 27/27/123 26/26/119
f 26/26/119 27/27/123 18/18/124
f 27/27/123 19/19/133 18/18/124
f 18/18/124 19/19/133 10/10/129
f 19/19/133 11/11/138 10/10/129
f 10/10/129 11/11/138 2/2/137
f 11/11/138 3/3/142 2/2/137
f 140/140/2 131/131/10 139/139/6
f 140/140/2 132/132/4 131/131/10
f 132/132/4 123/123/13 131/131/10
f 132/132/4 124/124/11 123/123/13
f 124/124/11 115/115/19 123/123/13
f 124/124/11 116/116/17 115/115/19
f 116/116/17 107/107/33 115/115/19
f 116/116/17 108/108/30 107/107/33
f 108/108/30 99/99/39 107/107/33
f 108/108/30 100/100/37 99/99/39
f 100/100/37 91/91/45 99/99/39
f 100/100/37 92/92/43 91/91/45
f 92/92/43 83/83/54 91/91/45
f 92/92/43 84/84/52 83/83/54
f 84/84/52 75/75/65 83/83/54
f 84/84/52 76/76/63 75/75/65
f 76/76/63 67/67/79 75/75/65
f 76/76/63 68/68/81 67/67/79
f 67/67/79 68/68/81 59/59/91
f 68/68/81 60/60/93 59/59/91
f 59/59/91 60/60/93 51/51/99
f 60/60/93 52/52/101 51/51/99
f 51/51/99 52/52/101 43/43/106
f 52/52/101 44/44/108 43/43/106
f 43/43/106 44/44/108 35/35/111
f 44/44/108 36/36/114 35/35/111
f 35/35/111 36/36/114 27/27/123
f 36/36/114 28/28/127 27/27/123
f 27/27/123 28/28/127 19/19/133
f 28/28/127 20/20/136 19/19/133
f 19/19/133 20/20/136 11/11/138
f 20/20/136 12/12/140 11/11/138
f 11/11/138 12/12/140 3/3/142
f 12/12/140 4/4/144 3/3/142
f 141/141/1 132/132/4 140/140/2
f 141/141/1 133/133/5 132/132/4
f 133/133/5 124/124/11 132/132/4
f 133/133/5 125/125/9 124/124/11
f 125/125/9 116/116/17 124/124/11
f 125/125/9 117/117/18 116/116/17
f 117/117/18 108/108/30 116/116/17
f 117/117/18 109/109/31 108/108/30
f 109/109/31 100/100/37 108/108/30
f 109/109/31 101/101/38 100/100/37
f 101/101/38 92/92/43 100/100/37
f 101/101/38 93/93/44 92/92/43
f 93/93/44 84/84/52 92/92/43
f 93/93/44 85/85/53 84/84/52
f 85/85/53 76/76/63 84/84/52
f 85/85/53 77/77/64 76/76/63
f 77/77/64 68/68/81 76/76/63
f 77/77/64 69/69/82 68/68/81
f 68/68/81 69/69/82 60/60/93
f 69/69/82 61/61/92 60/60/93
f 60/60/93 61/61/92 52/52/101
f 61/61/92 53/53/102 52/52/101
f 52/52/101 53/53/102 44/44/108
f 53/53/102 45/45/107 44/44/108
f 44/44/108 45/45/107 36/36/114
f 45/45/107 37/37/115 36/36/114
f 36/36/114 37/37/115 28/28/127
f 37/37/115 29/29/128 28/28/127
f 28/28/127 29/29/128 20/20/136
f 29/29/128 21/21/134 20/20/136
f 20/20/136 21/21/134 12/12/140
f 21/21/134 13/13/141 12/12/140
f 12/12/140 13/13/141 4/4/144
f 13/13/141 5/5/143 4/4/144
f 142/142/3 133/133/5 141/141/1
f 142/142/3 134/134/7 133/133/5
f 134/134/7 125/125/9 133/133/5
f 134/134/7 126/126/12 125/125/9
f 126/126/12 117/117/18 125/125/9
f 126/126/12 118/118/22 117/117/18
f 118/118/22 109/109/31 117/117/18
f 118/118/22 110/110/34 109/109/31
f 110/110/34 101/101/38 109/109/31
f 110/110/34 102/102/40 101/101/38
f 102/102/40 93/93/44 101/101/38
f 102/102/40 94/94/46 93/93/44
f 94/94/46 85/85/53 93/93/44
f 94/94/46 86/86/55 85/85/53
f 86/86/55 77/77/64 85/85/53
f 86/86/55 78/78/66 77/77/64
f 78/78/66 69/69/82 77/77/64
f 78/78/66 70/70/80 69/69/82
f 69/69/82 70/70/80 61/61/92
f 70/70/80 62/62/90 61/61/92
f 61/61/92 62/62/90 53/53/102
f 62/62/90 54/54/100 53/53/102
f 53/53/102 54/54/100 45/45/107
f 54/54/100 46/46/105 45/45/107
f 45/45/107 46/46/105 37/37/115
f 46/46/105 38/38/112 37/37/115
f 37/37/115 38/38/112 29/29/128
f 38/38/112 30/30/126 29/29/128
f 29/29/128 30/30/126 21/21/134
f 30/30/126 22/22/132 21/21/134
f 21/21/134 22/22/132 13/13/141
f 22/22/132 14/14/135 13/13/141
f 13/13/141 14/14/135 5/5/143
f 14/14/135 6/6/139 5/5/143
f 143/143/8 134/134/7 142/142/3
f 143/143/8 135/135/16 134/134/7
f 135/135/16 126/126/12 134/134/7
f 135/135/16 127/127/21 126/126/12
f 127/127/21 118/118/22 126/126/12
f 127/127/21 119/119/26 118/118/22
f 119/119/26 110/110/34 118/118/22
f 119/119/26 111/111/42 110/110/34
f 111/111/42 102/102/40 110/110/34
f 111/111/42 103/103/48 102/102/40
f 103/103/48 94/94/46 102/102/40
f 103/103/48 95/95/56 94/94/46
f 95/95/56 86/86/55 94/94/46
f 95/95/56 87/87/59 86/86/55
f 87/87/59 78/78/66 86/86/55
f 87/87/59 79/79/68 78/78/66
f 79/79/68 70/70/80 78/78/66
f 79/79/68 71/71/78 70/70/80
f 70/70/80 71/71/78 62/62/90
f 71/71/78 63/63/86 62/62/90
f 62/62/90 63/63/86 54/54/100
f 63/63/86 55/55/94 54/54/100
f 54/54/100 55/55/94 46/46/105
f 55/55/94 47/47/98 46/46/105
f 46/46/105 47/47/98 38/38/112
f 47/47/98 39/39/104 38/38/112
f 38/38/112 39/39/104 30/30/126
f 39/39/104 31/31/120 30/30/126
f 30/30/126 31/31/120 22/22/132
f 31/31/120 23/23/125 22/22/132
f 22/22/132 23/23/125 14/14/135
f 23/23/125 15/15/131 14/14/135
f 14/14/135 15/15/131 6/6/139
f 15/15/131 7/7/130 6/6/139
f 144/144/23 135/135/16 143/143/8
f 144/144/23 136/136/32 135/135/16
f 128/128/28 127/127/21 135/135/16
f 136/136/32 128/128/28 135/135/16
f 120/120/35 119/119/26 127/127/21
f 128/128/28 120/120/35 127/127/21
f 112/112/49 111/111/42 119/119/26
f 120/120/35 112/112/49 119/119/26
f 104/104/58 103/103/48 111/111/42
f 112/112/49 104/104/58 111/111/42
f 96/96/62 95/95/56 103/103/48
f 104/104/58 96/96/62 103/103/48
f 88/88/69 87/87/59 95/95/56
f 96/96/62 88/88/69 95/95/56
f 80/80/72 79/79/68 87/87/59
f 88/88/69 80/80/72 87/87/59
f 80/80/72 71/71/78 79/79/68
f 80/80/72 72/72/74 71/71/78
f 71/71/78 72/72/74 63/63/86
f 72/72/74 64/64/75 63/63/86
f 63/63/86 64/64/75 55/55/94
f 64/64/75 56/56/83 55/55/94
f 55/55/94 56/56/83 47/47/98
f 56/56/83 48/48/87 47/47/98
f 47/47/98 48/48/87 39/39/104
f 48/48/87 40/40/95 39/39/104
f 39/39/104 40/40/95 31/31/120
f 40/40/95 32/32/109 31/31/120
f 31/31/120 32/32/109 23/23/125
f 32/32/109 24/24/117 23/23/125
f 23/23/125 24/24/117 15/15/131
f 24/24/117 16/16/121 15/15/131
f 15/15/131 16/16/121 7/7/130
f 16/16/121 8/8/116 7/7/130
