<svg xmlns="http://www.w3.org/2000/svg" viewBox="0 0 907.1 540"><style>.st0{fill-rule:evenodd;clip-rule:evenodd}.st1{display:none}.st2{display:inline}.st3{fill:#5a5b5d}.st4{font-family:&amp;apos;DIN-Regular&amp;apos;}.st5{font-size:10px}</style><g id="Calque_1"><path d="M283.6 279.9c-.2-.5-.4-1.1-.7-1.6v-.9l-.6-.4c-.2-.3-.4-.7-.6-1-.6-1.1-1.2-2.1-1.5-3.1-1.2-2.5-2.3-5.1-3.2-7.7-1-2.7-1.9-5.4-2.9-7.9-1.7-4.1-3.7-8.1-5.9-11.8-2.2-3.5-4.3-7.4-6.5-11.4-.8-1.4-1.7-3-2.8-5-1.2-2.2-1.6-3.3-1.7-3.9l-.1-.3-.2-.3c-.9-1.7-1.9-3.3-3-5-1.1-1.6-2.1-3.3-2.9-5.1-.3-.5-.5-1.1-.9-1.9-.5-1.1-1.2-2-2-2.7l-3.7-3v4.7c0 4.5-.1 9-.2 13.5-.1 4.6-.1 9.3.2 13.9.1 2.8.3 5.8.7 8.9.3 3 .5 5.9.5 8.6 0 1.1-.1 2.5-.3 4.2-.2 1.8-.4 3.7-.5 5.6-.1 1.9-.1 3.7-.1 5.5 0 1.5.3 2.9.7 4.1-.1.5 0 1.1 0 1.6.1.8.1 1.2.1 1.5 0 .3 0 .5-.1.7-.1.2-.1.3-.2.5h-.2v2.7c-.2.5-.3 1.1-.3 1.8v.8h-4l.4.4-4 1.8-3.9-1.1h-4.1c-.1-.3-.1-.6-.2-.8.1-.3.1-.6.1-.8l.2-2.7c.1-1 .1-2.1 0-3.1 0-.5-.1-.9-.1-1.1.1-.5.1-1-.1-1.5v-.1c.1-.8.2-1.8.2-2.8.1-2.4.2-5.4.2-8.8 0-3.5 0-7.3-.1-11.5s-.1-8.1-.2-11.8c-.1-3.7-.2-6.9-.2-9.6-.1-2.7-.1-4.3-.1-5 0-4.1 0-8.2.2-12.4.1-4.2.1-8.6-.2-12.9-.3-2.7-.5-5.2-.6-7.7-.1-2.6-.1-5.1-.1-7.7v-.4c0-.1-.1-.7 0-2.2.1-1.3.1-2.7.1-4 0-1.3 0-2.6-.1-3.7 0-.7-.1-1.5-.4-2.2 0-.2 0-.3.1-.5.1-.7.1-1.4.2-2.2 0-.5.1-1 .1-1.4l.3-.3h.2c1.6-.1 2.7-.5 3.5-1.1l.9-.7c.4 0 .7-.1 1.1-.1.4 0 .8-.1 1.2-.1.4.6 1.1 1 2 1.1v.5l1.6-.8c.1.1.1.3.2.4l.7 1.1h1.3c.5 0 .9-.1 1.4-.4.2-.1.3-.2.5-.3l.5.1c.1.1 1.7 2.6 1.7 2.6l1.7-1.7c.4.8.7 1.8 1 2.7l1.4 4.4c.5 1.6 1 2.7 1.8 3.4.9 1.9 1.7 3.6 2.4 5.2.6 1.5 1.3 2.9 1.9 4.2.6 1.3 1 2 1.3 2.4 1 2.5 2 5 3 7.4 1.1 2.5 2.1 4.8 3.1 7l.1.2.1.2c1.5 2.1 2.8 4.1 3.9 6 1.1 2 2.4 4.1 3.7 6.3l.2.2c1.7 2.2 3 4.5 4 6.8 1.1 2.7 2.6 5.4 4.4 8l4.1 5.9v-8.8c.2-3.2.7-6.6 1.3-10 .7-3.6 1.2-7.2 1.4-10.7.1-3.3.3-6.5.5-9.6.2-3.2.5-6.3.8-9.5 0-.4 0-1.1.3-3.2.2-1.7.4-3.5.6-5.3.2-1.8.3-3.5.3-5.1 0-1.1 0-1.9-.1-2.6 0-.2.1-.4.1-.6.1-.7.1-1.4 0-2.2l-.2-1.9c.4-.5.7-1.2.9-2.1.2 0 .5.1.8.2.7.2 1.5.5 2.5.7l2.8.7v-1.1h.1c.8.2 1.7.3 2.6.3h1.6v1.4l2.4.2h.5l.2-.1.9 5.4s.1.6-.3 2.7c-.3 1.8-.5 3.7-.7 5.8-.2 2-.4 3.9-.5 5.6-.1 1.9.1 3.2.6 4.1 0 .4 0 .9-.1 1.6-.1 1.7-.3 3.9-.5 6.5l-.7 8.7c-.3 3.2-.5 6.2-.8 9.1-.3 2.9-.5 5.5-.7 7.7-.2 2-.3 3.5-.3 4.3-.4 2.3-.5 4.6-.3 6.9.2 2.1.3 4.3.3 6.4 0 .4 0 .9.1 1.5 0 .5.1 1 .1 1.5 0 .8.1 1.6.2 2.2.1.4.2.7.4 1l-.5 5c-.2 1.7-.4 3.5-.6 5.5-.2 2-.4 3.9-.5 5.7-.1 1.8-.2 3.3-.2 4.6 0 .8 0 1.6.2 2.2 0 .2-.1.3-.1.5 0 .4-.2 1.5.6 2.4l.1.1c.4.8.7 1.5 1 2.1l-.6-.6-.1 3.6-.1-.1-1.3 1.3-.7-.7-.5.3-2.9-2.9v4.8l-1 .7h-1l.2.5-1.4.9h-.2v.1l-.2.2c-.3 0-1.7-.2-2.2-.2l.3-.7h-1.8l3.4-3.4h-4.2c0-.1-.1-.2-.1-.3-.2-.7-.5-1.2-.8-1.7-.2-.2-.3-.4-.5-.6-.1-.3-.1-.6-.2-.8l-.9-.6zM490.4 291c-2.2 0-4.4-.2-6.6-.4-5.2-.8-10-2.4-14.2-4.7-2.5-1.4-4.6-3.1-6.3-5.1v-2.7l-1.5.6c-.4-.7-.8-1.4-1.2-2.2-1.2-2.6-1.7-5.4-1.6-8.2.2-3.1.2-6.2.2-9.1 0-.1 0-.5.3-2.2.2-1.3.4-2.6.6-4.1.2-1.4.3-2.8.3-4 0-1-.1-2.3-1-3.1 0-.2 0-.6.1-1.2.2-1.5.3-3.2.6-5.1.2-1.9.4-3.7.4-5.4 0-1.1 0-2.3-.5-3.2.1-.4.1-.7.2-1.1.2-1.1.3-2.6.3-4.3.1-1.7.1-3.5.2-5.5s.1-3.9.1-5.7V207l-.1-.3s-.1-.3-.3-1.5c-.2-.9-.3-1.9-.4-3-.1-.8-.2-1.6-.2-2.3h.1v-2.6h1.2s-.3-1.1 0-1.3c.3-.2 2.8 1.4 2.8 1.4s-.1-.4 0-.5c.1-.1 2.3.2 2.3.2h.9l.7-.6 1.1-.8-.2-.4h1.3c.4 0 .9 0 1.3.1.2 0 .5.1.8.1.4.2.8.3 1.4.3 0 .4.1.7.4 1.1l.2.2v.6c0 4.2 0 8.5.1 12.7-.4-.4-2.3 2.9-1.7 2.9 0 0 1.6-.2 1.8 0 0 0 0 2.6.1 3.9-.4-.5-1.1-.8-2.1-.8l2.4 5.6.3 2.4c.3 1-1.1 5.1-1.1 5.1s.7-1.2.7-1.3c.1 7.5.1 15.1-.1 22.6 0 2.7-.1 5.5-.4 8.2-.3 2.8-.4 5.6-.4 8.4 0 1.6.3 3.3 1 5 .7 2 2.3 3.6 4.6 4.7 1.2.7 2.8 1.2 4.7 1.7 1.9.4 3.8.7 5.7.7h.6c1.8 0 3.4-.2 4.9-.6 1.6-.4 2.9-1.1 4-2.1l2 2.1v-5.3c0-.4.2-1 .5-1.6.6-1 .9-1.8.9-2.6.4-1.8.5-3.7.3-5.6-.2-1.7-.3-3.4-.3-5 0-.6-.1-1.4-.3-2.5-.2-1-.3-2.1-.5-3.2-.2-1-.2-2-.2-2.9 0-.6.1-.9.2-1l.5.2v-2.8s.1-.2.1-.5c.1-.5.1-.9 0-1.3v-.2c0-.3-.1-.5-.1-.7 0-.6 0-1.3.1-2.1.1-1.5.1-3.2.2-5.2l.3-6.1c.1-2.1.2-4 .3-5.8.1-1.8.2-3.2.3-4.3v-.1h.3v-3c0-.5-.1-1.3-.2-2.3v-.5c1-1 1-2.6.9-3.2-.1-1.1-.1-1.8-.1-2.2 0-.2 0-.3.1-.4l.2-.4v-1.1l.3.1-.2-2h.1v-1.8c0-.3.1-.8.1-1.5l.2-1.2.4-.3-.3-.3.1-.6h.6l.7-.4c.4-.3.7-.6.9-.9 0-.1.1-.2.1-.3h.2v-.6c.2-.2.3-.4.4-.7l.6-1.3c.2 0 .3 0 .5-.1.7-.1 1.4-.1 2.1-.2h1.2c.2 0 .6 0 1-.2.9.2 1.8.3 2.9.5l3.3.6c-.1.2-.2.4-.2.6l-.7.4v.7c0 .4.1.8.3 1v.1c0 .4.2.7.4 1.1.1.2.1.3.2.4-.4 1.2-.5 2.6-.4 4.1.1 1.6 0 3.1-.2 4.5-.2 1.6-.4 3.1-.5 4.6-.1 1.5-.2 3.1-.2 4.7-.4 3.3-.7 6.8-.7 10.2-.1 3.3-.2 6.7-.4 10-.2 3.6-.5 7.3-1 11-.4 3.7-.2 7.4.6 10.9-.3.6-.1 1.2-.1 1.4.1.3.1.4.1.6v5.2c0 .4-.1 1.2-.5 2.8-.4 1.4-.8 2.8-1.2 4.3-.4 1.6-.9 3.3-1.5 5.1l-2.3 2.5c-.7.7-1.3 1.4-1.9 2.1-.4.5-.6.8-.8.9-.6.6-1.3 1.1-2 1.6-.7.4-1.3.8-1.8 1.2-.2 0-.3.1-.5.2-.4.2-.8.3-1.2.6-.4.2-.7.4-1.1.6-.9.1-1.9.3-2.9.7-1.1.4-2.1.6-3.1.8-1.4.1-3 .2-4.7.2-.3-.1-.8-.1-1.2-.1zm-251.7 23.2c.4 0 .8.1 1.3.1h5.2c1.9 0 3.8-.1 5.6-.2 1.8-.1 3-.1 3.6 0 5.7.5 10.6 2.3 14.6 5.7 1.6 1.6 3 3.3 4.3 5 1.3 1.8 2.4 3.7 3.4 5.7.7 2.1 1.2 4.3 1.7 6.6.2.8.2 2 .3 3.4 0 1.4.2 2.5.6 3.3 0 5.8-.1 11.6-.3 17.3-.2 5.7-.7 11.6-1.6 17.5-.2 2.2-.5 4.3-1 6.3s-1.3 4-2.3 6c-.8 1.3-1.7 2.4-2.7 3.4-1 1-3.2 4-3.8 4.5-.7.5-1.5.9-2.3 1.4-.9.4-1.7.8-2.5 1.1-.8.3-1.4.5-1.7.7-1.4.4-2.7.7-4.1 1.1-1.4.3-2.8.7-4.3 1.1v-.3s-3.6.1-5.5.2c-1.8.1-3.7.2-5.5.2-.7 0-1.7-.1-2.9-.2-1.3-.2-2.3 0-3.2.3h-.9c-.4 0-.8.1-1.1.2 0 0-1.8 0-2.5-.5 0 0-.2-.6.1-.6.3-.1-.4-.2-1-.2s-1.8-1.2-1.5-1.5c0 0 .9-1 .5-1.2s-1.9-1.4-1.9-1.4-.4-2.3.3-2.9c.7-.5 2-2 2-2l-1.6-.4.5-.6.5-.9-1.4-2.2v-.2c0-1.1 0-2.7.1-4.7s0-3.8-.1-5.4c-.1-5.1-.1-10 0-14.8.2-2.3.3-4.6.3-7 .1-2.4 0-4.7-.3-7.1 0-1.8-.1-3.6-.3-5.5-.2-1.9-.3-3.7-.2-5.6.3-3.6.6-7.2.8-10.7.2-3.5.3-7.2.3-11h-.3c0-.1 0-.2.1-.5 0-.3.1-.5.2-.8 0-.1 0-.1.1-.2l.1-.7v-.9c0-.1.2-.6.2-.6s.4-.2.4-.1.4.1.5.2c.1.1.7-.1.9-.1.2 0 .5 1 .6 1 .2 0 .2-.9.4-1 .1-.1.9-.5 1.1-.3.2.2 1 .2 1 .2s1.3.7 1.8.8c0 0-.3-.5-.5-.8-.2-.3.7-.3 1.1-.1.4.2 2.8.3 2.8.3l.4.4-.4-.8zm26.6 36.8c.1-2.7.1-5.4 0-8.1-.1-2.7-.7-5.3-1.9-7.8-1.1-2.3-2.5-4-4.1-5.1-1.6-1.1-3.3-1.8-5.3-2.1-1.9-.3-4-.5-6.2-.4-2.2.1-4.5 0-6.8-.1 0 .4.1.5.4.5.3 0 .5 0 .6.2-.5 0-.8.2-1 .7-.2.5-.4 1.1-.4 1.8s-.1 1.4-.1 2.1v1.8c0 1.3-.1 2.8-.3 4.2-.2 1.5-.2 3-.1 4.5 0 2.2.1 4.2.2 6 .1 1.8.2 3.9.2 6.3.2 5.7.3 11.3.2 17-.1 5.7-.2 11.4-.2 17 2.6 0 5.1.1 7.5.5 2.4.3 4.8.2 7.4-.5 1.8-.6 3.2-1.5 4.3-2.8 1.1-1.3 1.8-2.7 2.4-4.3.5-1.6.9-3.3 1.1-5 .2-1.8.4-3.4.5-5 .3-3.5.6-7.1.8-10.7.5-3.7.7-7.3.8-10.7zm-25-11c.1.2.2.2.1.2 0 0-.1 0-.1-.2zm78.6-50.9c-.6 0-1.1-.1-1.6-.2l.1-1.7v-1l-.3-.2c.2-.3.3-.6.3-.9l.7-.6 4.9-2.9h-4.2s-.2-1 .2-1.5c.3-.5.3-2.2 0-2.4-.3-.2 0-.7 0-.7l1-.6-1-.9v-1.6l.2-.2c.8-.9 1.4-2 1.9-3.3.5-1.2.8-2.5 1-3.8.2-1.1.3-2 .5-2.8.1-.2.3-.4.4-.6.4-.7.6-1.5.6-2.1 0-1 .3-2.1 1-3.3.8-1.4 1.3-2.8 1.6-4 .6-.7 1.1-1.7 1.5-3.1.4-1.3.6-2.3.5-3.1.2-.6.3-1.3-.1-1.9l.1-.1c.8-1.1 1.4-2.3 1.7-3.3 0 0-.2-.7 0-.9l.8-1-.5-.9c.2-.5.5-.9.8-1.4.9-1.2 1.5-2.5 1.8-4 .4-.6.7-1.3 1-2.1.4-1.1.7-2.1.9-3l.1-.5c.2-.3.3-.5.5-.8.2-.4.5-.8.6-1.2.2-.3.2-.6.3-.9.3-.4.5-.7.6-.9.5-.9.9-1.9 1.3-2.9s.7-2 .9-2.9c.1-.3.1-.5.2-.8.6-.7.9-1.6 1.2-2.4l.4-1c.3-.5.4-1 .6-1.6.2-.4.3-1 .6-1.5.6-.5.8-1 1-1.4 0-.1.1-.1.1-.2.4-.5.5-1.2.7-1.8 0-.2.1-.5.2-.7.7-.7 1.4-2 1.7-2.5.2-.5.4-.9.5-1 .6-.5.9-1.1 1.2-1.6.1-.2.2-.4.3-.5.2-.2.5-.5.8-.9.4-.4.7-.9 1.4-1.4.7-.6 1.1-.9 1.3-1.2 0 0 .1 0 .2-.1.9-.4 1.4-.8 1.7-1.1 1-.2 1.8-.6 2.5-1s1.3-.7 2-.8c1.2-.1 2.7-.5 4-.9.5-.1 1.2-.4 1.6-.4.4.1.9.3 1.7.3.5 0 1-.1 1.6-.2.6-.2 1.1-.3 1.4-.5h.9c1.4 5.5 3 10.8 4.8 15.8 2.9 8.1 5.9 16.4 9 24.7l3.7 9c1.2 3 2.5 6 3.8 8.8.2.5.6 1.8 1.3 3.9.8 2.3 1.6 4.8 2.5 7.4.9 2.6 1.9 5 2.8 7.2.6 1.5 1.3 2.8 2.2 3.6.2.5.4 1.2.8 1.9.2.3.4.8.8 1.3v.5H398l3.6 3.2c.1.1.2.4.3.8 0 .1 0 .1.1.2-.2.4-.2.7-.2.9v1.1l-3.9-3.2 1.3 3.7h-.2v.7c-1.3.3-1.8 1-2 1.4l-.3.6h-.4l.2.4-1 1.8c-.3 0-.7-.1-1.1-.1-.7-.1-1.3-.1-1.8-.1-.7 0-1.3.1-1.8.2v-.1c-.3 0-.5 0-.8.1-.3-.1-.6-.1-1-.1h-.4v-.2l.3-.3h1.8l-.9-.8.8-.7H389l-.6-.5 1.9-1.7h-3.7c-.1-.1-.1-.2-.2-.3-.2-.3-.3-.6-.5-.8 0-.3-.1-.6-.2-.8-.1-.2-.2-.3-.3-.5 0-.2-.1-.4-.2-.6-.2-.7-.6-1.4-1-2.2-.4-.8-.9-1.5-1.3-2.2-.1-.2-.2-.3-.3-.5l-.2-.4c-.4-.7-.7-1.2-.9-1.7-.3-.7-.7-1.3-1.1-1.8-.5-.6-1.1-1.1-1.9-1.5-.7-.3-1.6-.6-2.8-.8-4.2-.9-8.6-1.3-13.1-1.4-4.3 0-8.5-.1-12.6-.1h-7c-1.7.1-2.8.3-3.6.5-1.5.5-2.2 1.3-2.5 2-.3.7-.5 1.5-.5 2.4 0 .5-.1 1.3-.3 2.2v.4s0 .4-.2.6c-.2.2-4.1 0-4.1 0s3 2.5 3.1 2.7c.1.2-.1.2-.1.4 0 0-1.7 3-1.5 3.2.2.3.1 2.1 0 2.4-.1.3-.8.2-.6.6.1.3-1 1.5-1.1 1.7 0 .2.1.5.1.5l-.3.3c-.4 0-.8 0-1.2.1-1.2.1-2.5.2-3.5.7h-.3c-1.2-.1-2.3-.2-3.3-.2s-1.8-.1-2.6-.2c-.3 0-.5-.1-.6-.1.3-.3-1-.6-1-.6zm31.4-60.4v1.6c0 .8-.2 1.7-.5 2.7-.4 1.1-.9 2.3-1.4 3.5-.5 1.2-1.1 2.5-1.6 3.7-.5 1.3-.9 2.5-1.3 3.7-.6 1.3-1.2 3-1.9 4.7-.7 1.8-1.2 3.6-1.4 5.2l-.2 1.5 1.7.5c.9.3 2 .4 3.3.4.9 0 1.8-.1 2.9-.2l5.4-.7h4c1.2 0 2.5.1 3.9.3h.4c.3 0 .7 0 1.2.1.7.1 1.5.2 2.3.3.9.1 1.8.2 2.5.2 1.2 0 2.1-.2 2.8-.6l1.9-1.1-1.3-1.5c-1.6-2.1-2.8-4.4-3.5-6.8-.8-2.7-1.7-5.3-2.7-7.5-1.3-2.9-2.5-6.2-3.7-9.5-1.2-3.6-2.9-6.9-4.9-9.9l-1.9-2.9-1.9 2.9c-.5.7-.8 1.6-1.1 3-.2 1.1-.5 2.1-.7 3.3-.3 1.1-.5 2-.8 2.7 0 .1-.1.1-.1.2l-1.4.2zm186.4 3.8c-.1.8-.2 2.4-.4 4.8s-.1 4.4.4 6l1-9.3c.1-.9-.3-1.4-1-1.5zm-.1 12.2c-.2 1.5-.3 2.9-.4 4.4-.3 4.3-.4 8.5-.4 12.8h.6c.2-2.7.3-5.7.3-8.9-.1-3-.1-5.7-.1-8.3z"/><path d="M536.1 253.8v.3c.1-.1.1-.2 0-.3.1 0 .1 0 0 0zm.6-81.5v5.2c0-.8.1-1.9.4-3.2.3-1.3.1-2-.4-2zm-.1 15.2c.4-1.1.7-2.3.8-3.6.1-1.3.2-2.5.2-3.6s-.1-1.8-.4-2c0 1.9-.3 3.8-.8 5.6-.6 1.9-.8 3.6-.8 5.2.2 0 .6-.5 1-1.6zm.2 29.1c.2 2.6 0 4.9.5 7.9.3.1.2-1.1.1-3.1-.1-1.6.1-3.3.2-5.2.1-1.9 0-3.6-.1-5.1-.1-1.5-.3-2.5-.7-2.8.1 2.9-.1 5.7 0 8.3zm68.9 143.8c-.2 1.3-.3 2.7-.4 4.1-.3 3.9-.4 7.9-.4 11.8h1.1c.2-2.5-.3-5.3-.3-8.2v-7.7zM587 378.5c-.6 1.7-.9 3.7-1 5.9-.1 2.2-.1 4.1 0 5.8.1 1.7.4 2.8.8 3.2-.2-3 .1-6 .8-9.1.7-3.1 1-5.9.9-8.4-.4-.1-.9.8-1.5 2.6zm47.6-87.9c-5.7 0-11.3-.1-17-.2h-2.8c-.2 0-.6-.1-1-.1-.8-.1-1-.2-1.4-.3l-1-.2c-.7-.1-1-.3-1.4-.4l-.7-.3c-.7-.2-1.2-.3-1.8-.5-.3-.1-.7-.1-1.2-.3-.7-.2-1-.3-1.4-.5-.3-.1-.6-.3-.9-.4-.5-.2-.9-.3-1.4-.3h-.1c-.1-.3-.3-.6-.6-.8l-.2-.2-.3-.2s-3.1-1.6-3.9-1.9c-.3-.1-.9-.5-1.2-.8-.6-.7-1.4-1.5-2.3-2-.5-.3-1-.7-1.4-1-.2-.2-.4-.3-.6-.4-.4-.3-.8-.7-1.1-1-.1-.1-.1-.2-.2-.3-.2-.3-.4-.6-.7-.8-.2-.2-.5-.8-.5-.8-.1-.2-.7-1-.9-1.4l-.6-1.7-.4.1c-.2-.5-.4-.8-.5-1.1v-.1c0-.3 0-.6-.1-.8-.1-.3-.2-.7-.5-1.1-.1-.4-.3-.9-.5-1.9-.3-1.1-.7-2-1.2-2.7-.1-.8-.4-2.1-1.3-4.7-.8-2.3-1.9-4.9-3.1-7.8-1.3-2.9-2.7-6-4.2-9.1-1.5-3.2-3-6-4.3-8.6-1.4-2.6-2.6-4.7-3.6-6.4-.4-.7-.8-1.2-1.2-1.7v-1.2l-1.2-.6c-.8-.4-1.8-.6-2.9-.6h-1c-1.1.1-1.9.2-2.4.2h-2.2v.2h-.4v2.2c0 5.6-.1 11.2-.4 16.7-.3 5.5-.4 11.1-.4 16.8 0 .8-.1 1.6-.3 2.3-.3 1.1-.4 2.1-.4 3.2 0 .4-.1 1.2-.2 2.4-.1 1.3-.2 2.7-.3 4.2-.1 1.5-.1 2.9 0 4.1v.7c-.1.1-.2.2-.2.4l-.5 1 .5 1.2c.1.1.1.3.2.4-.1.2-.1.5-.1.7h-.5v.4l-3.5 2 3.5.1v1.3l-1.6.8.2 1.2-1.6 2.4h.8v.2c-.8.1-2 .1-3.5.1-.5 0-1.3 0-2.5-.1s-2.4-.1-3.7-.1h-1.8l1.6-1.6h-1.2l.2-.3.8-.8h-.4l.7-1.5h-2.3c.1-.5-.1-.9-.2-1.2 0-.3-.1-.5-.2-.7l-.6-1.2-.1-.5h-.3v-1.2h-.6v-.9c0-.4 0-.7.1-1.1.3-.4.5-.8.6-1.1l.5-.5-.4-1.1v-.3c.1-.6.1-1.4.1-2.4 0-1.5-.1-2.7-.3-3.7v-3.9h.3l.2-2.2c0-.5 0-1.4.2-3 .2-1.4.3-2.9.4-4.5.1-1.6.1-3.2.1-4.6-.1-1.3-.3-2.4-.6-3.3.1-1.1.3-2.2.5-3.3v-.4c0-.8.1-1.8.1-2.7h.4c0-1.3.1-2.9.3-4.7.2-2 .1-3.6-.3-5.1.3-2.1.5-4.3.5-6.5.1-2.4.1-4.7.1-7v-.3l-.1-.3c-.1-.5-.2-1.3-.2-2.8.1-1.4.1-2.9.1-4.5s0-3.1-.1-4.5c-.1-1.5-.3-2.6-.6-3.5v-1.8c-.1-.9-.2-1.8-.3-2.5h.3v-10.8c0-4.5.2-9.1.7-13.7l.6.6v-4.9h.5c0 .2-.1.4-.2.5 0 0 .1-.1.4-.2.5-.1 1-.3 1.7-.5.3.1.6.2.9.2h1.5l.3-.8h.6c.9 0 1.6-.2 2.3-.5 3-.3 6.2-.5 9.6-.5 3.5 0 6.9 0 10.2.1 3.2.1 6.2.2 8.8.4 2.6.2 4.5.4 5.5.5 6 .7 11.3 2.4 15.8 5 4.3 2.5 7.5 6.6 9.6 12.3.9 2.3 1.6 4.6 2.1 6.7.4 2 .4 4.1-.1 6.3l-.1.2v.2c0 .7-.1 1.4-.3 2.1l-.7 2.6-.1.3c-.4.4-.6 1-.8 1.7l-.2.2v.2l-.7 1.2c-.2.3-.4.6-.6 1l-.3.6c-.4.7-.7 1.4-1.1 2l-1.7 2c-.6.7-1.1 1.4-1.6 1.9-.5.6-.8 1-1.4 1.5L598 214l1 1.6c0 .4-.1 1.2-.1 1.2l1.6 1.3c-.4.4-.7.6-.9.8-.9.8-2.1 1.5-3.5 2l-.2.1-.2.1s-.3.2-1.2.4c-.9.3-1.9.6-3 .9-1 .3-2 .6-2.9.9-1.2.3-2.6.9-3 2.3l-.4 1.2s.9 1 .9 1.1v.4l.4.6s.1.2.3.8c.2.7.3 1.2.6 1.6.1.7.4 1.4.7 2.2.4.8.9 1.7 1.5 2.6.5.8 1 1.7 1.5 2.5l1.1 1.8c.5 1.6 1.1 3 1.6 4.3.6 1.4 1.3 3 2.2 4.6.5 1.2 1.2 3 1.8 5.1.7 2.2 1.5 4.1 2.4 5.6.1.3.2.7.4 1 .3.7.6 1.4 1 2.1.3.6.5 1.1.7 1.6v.3l.1.3c.1.3.7 2 1.6 2.9 0 0 .1.2.2.3.3.6.7 1.3 1.4 1.7.1.2.2.3.4.5.7.7 1.5.9 2 1.1.2.1.4.1.5.1.1.2.2.5.4.8.4.9 1.4 1.3 1.8 1.4.5.2 1.1.3 1.6.4.3.1.8.2.9.2l.4.2.6.2c.1 0 .3 0 .9.2.9.2 1.8.4 2.4.6.5.1.9.2 1.2.3l.5.2s.7.1.8.1c1.4 0 3-.1 4.1-1h.1c.4 0 .9 0 1.4.1 1.9.2 4.1.3 6.5.6 2.5.2 4.8.4 6.9.4h.6c1.1 0 2.4-.1 3.4-.5.5.1.9.1 1.4.2 1.5.2 3.3.3 5.5.3l7 .2c2.5.1 5 .1 7.3.1h9.3l.3-.1s.4-.1 1.9-.3c1.2-.2 2.5-.3 3.8-.4 1.3-.1 2.5-.2 3.5-.3l2 .1h.8v1.2s1.5-.2 1.7 0l-1.8 2.8h1.4s-1.1.9-.8 1.4c.3.5-.6 1.4-.6 1.4l1.1 1.2.7.7s.8-.2.9 0c.2.3 0 1.4 0 1.4 0 .4 0 .9-.1 1.3 0 .2-.1.5-.2.8-.1.2-.3.6-.4 1l-.1.4c-.5 0-1.1.2-1.5.6h-.8c-8.3 0-16.6.1-25 .2.6-.4 1.1-1.1 1.1-2.1v-5.4s-1.9 2.6-2.6 2.6c-.7 0 0-2.6 0-2.6s-1.9 2.5-3.2 3.1c-1.2.7-8.5 0-8.5 0-1.7 0-2.6 1.2-2.6 2.4v2.2c-3.1.1-6.5.1-9.9.1zM564.9 210c.8 0 1.1.2 1.1.2l3.4 2v-1.7h.2c.9 0 1.7.1 2.6.3.7.2 1.5.3 2.2.3.5 0 1-.1 1.5-.1h.3l.1.4 2.3-.6 1.7-.3h.7c.7 0 1.4 0 2.1-.1 1.1-.1 2.1-.3 3-.5.8-.2 1.5-.6 2.2-1.1l.2-.2.2-.3c.2-.3.5-.7.9-1.1.5-.6.9-1.2 1.4-1.9 1.2-2 2.1-4 2.6-6.1.5-2.2.5-4.3-.1-6.3s-1.8-3.7-3.4-5.1c-.5-.4-1-.8-1.6-1.2v-1s-1.8.2-2.1 0c-.3-.2-1.9-.7-2.9-.9-1.8-.4-3.5-.6-5.3-.6-1.6-.1-3.4-.1-5.3-.1h-10.8l-1.8-7.7-1.2 7.6c-.5-.2-.9-.2-1-.2h-.9l-.8.7-.9.9-.1.8c-.2 3.6-.3 7.3-.1 11 .2 3.6.4 7.3.7 10.9l.2 2h2.1l.5.5 1-.1c.3 0 .5 0 .7-.1.4-.1.8-.2 1.3-.4h3.1z"/><path d="M635.1 382.9l4.2 8.1-.4 1.1c.6 2.1 3.3 8.6 3.3 8.6l1.2 3.3-3.2.1-2.2-.4-2.2-.7-1.1-1.9.1 2.5-3.2.8-1.5-.4-1.8-3.3-1-3.5s-.4-3.2-.6-3.6c-.1-.4-1.1-2.2-1.5-3.1-.4-.8-.6-2.5-.6-2.5l1.3-2.2-2.3.8c-.1-.6-.4-1.6-.9-3.1-.6-1.7-1.4-3.6-2.3-5.7-.9-2.1-2-4.4-3.1-6.7s-2.2-4.4-3.2-6.3c-1-1.9-1.9-3.5-2.7-4.7-.3-.5-.6-.9-.9-1.3v-.8l-.9-.5c-.6-.3-1.3-.4-2.1-.4h-.8c-.8.1-1.4.1-1.8.1h-1.7v.1h-.2v1.7c0 4.1-.1 8.3-.3 12.3-.2 4-.3 8.2-.3 12.3 0 .6-.1 1.2-.2 1.7-.2.8-.3 1.6-.3 2.3 0 .3 0 .9-.1 1.8-.1 1-.1 2-.2 3.1v3.5c-.1.1-.1.2-.2.3l-.4.7.4.9c.1.1.1.2.2.3-.1.2-.1.3-.1.5h-.4v.3l-2.5 1.5 2.5.1v.9l-1.2.6.1.9-1.2 1.8h.6v.2c-.6.1-1.5.1-2.6.1-.4 0-1 0-1.8-.1-.9 0-1.8-.1-2.7-.1H591l1.2-1.2h-.9l.1-.2.6-.6h-.3l.5-1.1h-1.7c0-.4 0-.7-.1-.9 0-.2-.1-.4-.2-.5l-.5-.9-.1-.4h-.2v-.9h-.4v-1.4c.2-.3.4-.6.4-.8l.4-.4-.3-.8v-.2c.1-.5.1-1 .1-1.8 0-1.1-.1-2-.2-2.7v-2.9h.2l.1-1.7c0-.3 0-1 .2-2.2.1-1 .2-2.1.3-3.3.1-1.2.1-2.3.1-3.4 0-1-.2-1.8-.5-2.4.1-.8.2-1.6.4-2.4v-2.2h.3c0-1 .1-2.1.2-3.4.2-1.5.1-2.7-.2-3.7.2-1.5.3-3.1.4-4.8 0-1.8.1-3.5.1-5.2v-.2l-.1-.2c-.1-.3-.2-1-.1-2 0-1.1.1-2.2.1-3.3 0-1.2 0-2.3-.1-3.3 0-1.1-.2-1.9-.5-2.6v-1.3c-.1-.7-.2-1.3-.2-1.9h.2v-7.9c0-3.3.2-6.7.5-10.1l.4.4v-3.6h.4c0 .1-.1.3-.2.3 0 0 .1-.1.3-.1.3-.1.8-.2 1.2-.3.2.1.4.1.6.1h1.1l.3-.6h.4c.7 0 1.2-.1 1.7-.3 2.2-.2 4.5-.4 7.1-.4 2.6 0 5.1 0 7.5.1 2.4 0 4.5.1 6.4.3 1.9.2 3.3.3 4.1.4 4.4.5 8.3 1.8 11.6 3.7 3.2 1.8 5.5 4.9 7.1 9.1.7 1.7 1.2 3.4 1.5 4.9.3 1.5.3 3-.1 4.6v.4c0 .5-.1 1-.2 1.6l-.5 1.9-.1.2c-.3.3-.5.7-.6 1.2l-.1.1v.2l-.5.9c-.1.2-.3.5-.4.7-.1.1-.2.4-.2.4-.3.5-.5 1-.8 1.5l-1.2 1.5c-.4.5-.8 1-1.2 1.4-.4.4-.6.7-1 1.1l-4.3-3.9 1.8 2.6c0 .3-.1 1.4-.1 1.4l1.9.6c-.3.3-.5.5-.7.6-.7.6-1.6 1.1-2.6 1.5l-.2.1-.1.1s-.2.1-.9.3c-.7.2-1.4.4-2.2.7l-2.1.6c-.9.3-1.9.7-2.2 1.7l-.3.9s.6.8.7.8v.3l.3.4s.1.1.2.6.2.9.4 1.2c.1.5.3 1 .5 1.6.3.6.7 1.2 1.1 1.9.4.6.8 1.2 1.1 1.8l.8 1.3c.4 1.2.8 2.2 1.2 3.2.4 1.1 1 2.2 1.6 3.4.4.9.9 2.2 1.4 3.7.5 1.6 1.1 3 1.8 4.1m-25.4-37.1c.6 0 .8.1.8.1l2.8 2.6-.3-2.3h.1c.6 0 1.3.1 1.9.2.5.1 1.1.2 1.6.2.4 0 .7 0 1.1-.1h.2l.1.3 1.7-.4 1.3-.2h.5c.5 0 1 0 1.6-.1.8-.1 1.5-.2 2.2-.4.6-.2 1.1-.4 1.6-.8l.2-.1.1-.2c.1-.2.3-.5.6-.8.3-.4.7-.9 1-1.4.9-1.4 1.5-2.9 1.9-4.5.4-1.6.4-3.2-.1-4.6-.4-1.4-1.3-2.7-2.5-3.8-.3-.3-.7-.6-1.2-.9 0 0 .2-.5 0-.7-.2-.3-1.3.2-1.5 0-.2-.2-1.4-.5-2.2-.7-1.3-.3-2.6-.4-3.9-.5-1.2 0-2.5-.1-3.9-.1h-7.9s-.6-1.7-1.1-1.7c-.5 0-1.1 1.6-1.1 1.6-.4-.2-.7-.2-.8-.2h-.7l-.6.5-.7.7v.6c-.2 2.6-.2 5.4-.1 8.1.1 2.7.3 5.4.5 8l.1 1.5h1.5l.4.4h.8c.2 0 .3 0 .5-.1.3 0 .6-.1 1-.3h2.5zm-321.2-30c.6 0 2.3.6 3 .8.6.2-.6-.4.6.2 1.3.6 1.7.4 2.6.6l.9.2s-.2 1.3-.4 1.9c-.2.6-.8 1.1-1.3 1.9-.4.8-.8.4-1.5 1.9-.6 1.5.4-.2-.6 1.5-1.1 1.7-.2.4-1.7 2.3s0 .2-1.5 1.9-1.7 2.1-2.3 3c-.6.8-1.7 1.5-1.7 1.5l-.2-1.3-.9-2.3-.8-.2s-1.3-1.1-.9-1.7c.4-.6 1.5-5.7 3-7.7 1.5-1.9 1.3-3.6 2.1-4l.9-.4M477 239.8c.3 4 .4 8.2.4 12.4 0-.7 0-2.3.1-4.8s.2-5.2.3-8.1c.1-2.9.1-5.6-.1-8-.2-2.4-.6-3.9-1.1-4.4 0 4.5.1 8.9.4 12.9zm79.1 164c-1.8 0-3.6-.2-5.4-.4-4.2-.7-8.1-2.2-11.6-4.4-2-1.3-3.8-2.9-5.1-4.8v-2.5l-1.2.5c-.4-.6-.7-1.3-1-2-1-2.4-1.4-5-1.3-7.7.1-2.9.2-5.8.2-8.5 0-.1 0-.5.2-2 .2-1.2.3-2.5.5-3.8.1-1.3.2-2.6.2-3.8 0-1-.1-2.1-.8-2.9 0-.2 0-.6.1-1.1.1-1.4.3-3 .5-4.8.2-1.8.3-3.5.3-5 0-1 0-2.1-.4-2.9.1-.3.1-.7.2-1 .1-1.1.2-2.4.3-4 0-1.6.1-3.3.1-5.1 0-1.9.1-3.6.1-5.3v-6.8l-.1-.3s-.1-.3-.2-1.4c-.1-.9-.2-1.8-.3-2.8-.1-.8-.1-1.5-.2-2.1h.1v-2.5h.9s-.2-1 0-1.2c.2-.2 2.2 1.3 2.2 1.3v-.5c.1-.1 1.9.2 1.9.2h.8l.6-.5.9-.8-.2-.4h2c.2 0 .4.1.6.1.3.2.7.3 1.1.3 0 .3.1.7.3 1 0 .1.1.1.2.2v.6c0 3.9 0 7.9.1 11.9-.3-.4-1.9 2.7-1.4 2.7 0 0 1.3-.2 1.5 0 0 0 0 2.4.1 3.7-.3-.4-.9-.8-1.7-.8l2 5.2.3 2.3c.2.9-.9 4.8-.9 4.8s.6-1.1.6-1.2c.1 7 .1 14.1-.1 21 0 2.6-.1 5.1-.3 7.6-.2 2.6-.3 5.2-.3 7.9 0 1.5.3 3.1.8 4.7.6 1.8 1.9 3.3 3.7 4.4 1 .6 2.3 1.2 3.8 1.6 1.5.4 3 .6 4.6.7h.5c1.4 0 2.8-.2 4-.6 1.3-.4 2.4-1 3.2-2l1.6 2v-4.9c0-.4.2-.9.4-1.5.5-.9.7-1.7.7-2.4.4-1.7.4-3.4.3-5.2-.2-1.6-.3-3.2-.3-4.6 0-.5-.1-1.3-.2-2.3-.1-.9-.3-1.9-.4-2.9-.1-1-.2-1.9-.2-2.7 0-.6.1-.8.1-.9l.4.2v-2.6s0-.2.1-.5c.1-.5.1-.9 0-1.2v-.2c0-.3 0-.5-.1-.7 0-.5 0-1.2.1-2 0-1.4.1-3 .2-4.8l.3-5.7c.1-2 .2-3.8.3-5.4.1-1.6.2-3 .3-4v-.1h.3v-2.8c0-.5 0-1.2-.1-2.1v-.5c.8-.9.8-2.4.8-3 0-1-.1-1.7-.1-2 0-.1 0-.3.1-.3l.2-.3v-1l.2.1-.2-1.8h.1v-1.6c0-.3 0-.7.1-1.4l.1-1.2.3-.3-.3-.3s.1-.5.1-.6h.5l.6-.4c.4-.2.6-.5.7-.8 0-.1.1-.2.1-.3h.1v-.6c.1-.2.2-.4.3-.7l.5-1.2h.4c.5-.1 1.1-.1 1.7-.2h1c.2 0 .5 0 .8-.2.7.2 1.5.3 2.4.5l2.7.5c-.1.2-.1.4-.2.6l-.3.3v.7c0 .4.1.7.3 1v.1c0 .3.1.7.3 1 0 .1.1.3.1.4-.3 1.1-.4 2.4-.3 3.8.1 1.5 0 2.9-.1 4.2-.2 1.5-.3 2.9-.4 4.3-.1 1.4-.1 2.9-.1 4.4-.3 3.1-.5 6.3-.6 9.5 0 3.1-.2 6.2-.3 9.3-.2 3.4-.4 6.8-.8 10.3-.4 3.5-.2 6.9.5 10.2-.2.6-.1 1.1 0 1.3.1.2.1.4.1.5v4.8c0 .3-.1 1.1-.4 2.6-.3 1.3-.6 2.6-1 4-.3 1.5-.7 3.1-1.2 4.7l-1.9 2.3c-.5.6-1.1 1.3-1.5 2-.3.5-.5.7-.6.9-.5.6-1 1.1-1.6 1.5-.6.4-1.1.8-1.5 1.1-.1 0-.3.1-.4.1-.3.2-.7.3-1 .5-.3.2-.6.4-.9.5-.8.1-1.5.3-2.3.6-.9.3-1.7.6-2.5.7-1.1.1-2.5.2-3.9.2-.8-.3-1.1-.3-1.5-.3z"/><path d="M545.2 358.6c.1 3.8.2 7.6.1 11.6 0-.7.1-2.2.2-4.5s.3-4.8.4-7.6c.1-2.7.2-5.2.1-7.5-.1-2.2-.4-3.6-.8-4.1-.2 4.3-.1 8.3 0 12.1zM435.6 251.9c0 .7 0 2.1.1 4.3.1 2.2.4 3.9.9 5.3v-8.3c.1-.9-.3-1.3-1-1.3zm-211.8 107c0 1.1.1 3.2.2 6.5s.6 6 1.4 8.1v-12.6c0-1.4-.6-2-1.6-2zm.7 25.5c0-.7-.1-2.1-.1-4.3 0-2.2.2-3.9.6-5.4l.5 8.3c0 .9-.3 1.3-1 1.4zM437.3 221c-.3 2.3-.5 4.7-.7 7.1-.5 6.8-.7 13.6-.7 20.4h.9c.3-4.3.5-9 .5-14.1V221zm-212.4 93.8c-.2 1.5-.3 3-.4 4.5-.3 4.3-.4 8.7-.4 13h.6c.2-2.8.3-5.8.3-9-.1-3-.1-5.9-.1-8.5zm132.7-93.3c.4 1.2.7 2.4 1.2 3.6 1.2 3.5 2.6 6.9 4 10.3l.5-.2c-.8-2.2-1.7-4.6-2.8-7.1-1.1-2.4-2-4.6-2.9-6.6zm35.5 32.6c.4 1.4.9 2.9 1.4 4.4 1.5 4.2 3.1 8.2 4.8 12.3l.6-.2c-.9-2.6-2-5.5-3.4-8.5-1.2-3-2.3-5.6-3.4-8zm-55-42.4c.3-.4.5-.8.7-1.3.2-.5.4-.9.5-1.4.1-.4.2-.7.1-.8-.2.7-.6 1.4-1 2.1-.4.7-.7 1.3-.9 1.9.2 0 .3-.1.6-.5zm-3.6 9.7c-.6 2.3-1.4 4.6-2.2 6.9.1-.4.5-1.3 1-2.6.5-1.4 1.1-2.8 1.7-4.4.6-1.6 1.1-3.1 1.5-4.4.4-1.4.5-2.2.3-2.7-.9 2.5-1.7 4.9-2.3 7.2zm227.8 162.3V377c0-3.4-.4-6.1-1.2-8.3l-.4 12.9c.1 1.4.6 2 1.6 2.1zm-260-109.4l.2-8c0 1.2-.3 2.9-.8 4.9-.4 2.1-.2 3.1.6 3.1zm1.6-22.2c-.6 1.6-1.1 3.5-1.4 5.5-.3 2-.4 3.9-.5 5.5 0 1.7.1 2.7.5 3.1.1-2.9.6-5.7 1.5-8.6.9-2.9 1.4-5.5 1.5-8-.4.1-1 .9-1.6 2.5zm12.6 83.2c-.2 1.1-.3 2.3-.2 3.7.1 1.3.2 2.5.4 3.6s.4 1.7.7 1.9c-.3-1.8-.4-3.7-.2-5.6.2-2 .2-3.7-.1-5.3-.1 0-.4.6-.6 1.7zM297.2 354c-.1-2.4.9-6.1 0-7.3 0 0-.4 1.4-.5 2.8-.1 1.5-.1 3.8-.2 5.5-.1 1.7.2 2.5.3 3.9.1 1.4.3 2.3.6 2.6-.1-2.6-.1-5.1-.2-7.5zm193.1 31.7c4.6-.3 9.4-.5 14.2-.6-.8 0-2.7 0-5.5-.1s-6-.2-9.3-.3c-3.4-.1-6.4 0-9.2.2-2.7.2-4.4.7-5.1 1.3 5.3 0 10.2-.1 14.9-.5z"/><path class="st0" d="M525.5 178.4c0-.2.1-.8 0-2.4v-4.8c-6.7.2-30.2.3-50.8.3h-15.9c-1.3-1.2-1.7-.9-2.3-1.3-1.2-.8-3.5-.6-5.2-.6-2.6-.1-5.2-.4-7.6-.6-4.1-.3-2.6-1.5-4.9-4.2-.5-.6-1.2-1.1-1.8-1.8-1-1.4-2-4.9-3.1-7-.7-1.3-.8-1.7-1.2-3 3.5.2 7.5 0 10-1.8s.6-5.6 2.4-7c2.9-2.2 12.7-3.2 18.2-6.7.9-.6 1.8-1.3 2.7-1.9 4.5-3.1 6-1.4 7.6-8.9 1.2-.2 1.4-.5 1.8-.9.5-.6 1.4-1.5 1.8-2.3.4-.7 1.6-5.2 1.9-6.4.5-2.9 1-10.7 1.3-14 .7-7.3 1.1-12.7-1.1-20-.4-1.2-.8-1.9-1-2.7-.2-.8-.1-1.5-.2-2.2-.1-1.2-.8-1.8-.4-2.3.2-.2.7-.4.9-.7.6-.6 1.8-3 2.8-3.5.7-.3 4.4 1.6 4.2-.1-.3-2.4-1-3.1-3-4.1 0-.3-.3-4.5-.3-4.6-.2-.5-.7-1-.7-1.2 0-.2.2-.9.1-1.4-.2-.9-.9.7-1.3.3-.3-.3.9-1.9.8-2.3-.1-.7-1.1 1.3-1.5 1-.5-.3 1.6-3.5 1-4-.6-.6-1.8 2.8-2.4 2.4-.4-.2 0-3.9-.8-3.5-.5.3-.7 1.8-1 1.6-.4-.2 0-2.7-.4-3-.7-.4-1.2 1.8-1.4 1.4-.3-.6 0-1.2-1.3-.3-2.6 1.7-.1 4.5.8 6.5-.5 0-1 0-1.4.1-.6 0-1.2-.1-2.1-.1-4.6 0-8.9 4.1-11.8 7.7-6.3 7.8-4.7 11.7-7.3 15.7-3.1 4.8-3.6 4.2-9.1 4.3-3.4.1-11.9.3-15 1-1.1-.8-3-1.7-4.3-2.2-3.9-1.4-6.2-.1-9.6-.8-2.9-.6-.7-.4-3.3-.3-2 .1-2.6-.8-6.5-.5-1.4.1-1.7.5-2.1.4-1.3-.2-2-2.3-5.1-1.7-.8-.7-.7-1.3-1-1.9-.1-.2-.3 0-.7-.6-.8-1.2-2.6-5.2-3.4-6.5-1.3-2.1-.9 2.5-1.6.5-1.3-3.9-4.8-2.6-5.8-2.8-.9-.2-6.7-3.5-8.2-4.1-1.9-.8-2.4-1-3.4-.4-.9.5-1-.1-1.8.8-.3.3-.3.5-.4.6-.5.4-1.2 0-1.8.1-1.7.1-1 .8-.9 1.1.4 1.3-.7.4-.9 1.8-.1.6-.5.4-.8.6-.1.1-.4 1.4-.3 1.5 1.4.9.1.3-.3 1-.3.4.2.9 0 1.6-.2.6.2 2.1-.3 2.5-.8.7-.8 0-1.2.8-.2.3-.7.5-.1 1.2.5.5 1.8 1.3 2.3 1.5.4.1 0 .5 0 .7 0 .5 1.1.7-.9 1-3.3.6-1.8 1.7-2.3 2.4l-.1.4c-.4 1.7.3 2.2 1.2 3.7.5.7.8 1.5 1.1 2 .5 1 1.7 1.5 1.5 1.7-.5.7-2.2 1.5.1 2 .7.2.4.6.2 1.1-.2.8 1.7.4 1.4 1.9-.1.6.8.2.9.9.3 1-.2.8.8 1.1.3.1-.6.8.6 1.6 0 0-.3.6 0 1 .6.8 2.2-.6 2.9-.9 1.5-.7 2.7 0 4.7-.1-.1.4.1.9.1 1.1 0 .4-.5.1-.9.4-.4.3-.2 1-.2 1.3 0 .2-.2.2-.1.4 0 .4 1.2 1.7 1.8 1.9 1.4.6 1.8.5 2.9.8 1 .2.1.6.3 1.1.2.5 2.1 1.3 2 3-.1.6-.5.5-.6.7-.5.7 1.3 1.7 1.7 2.1.7.7.3 1 .5 1.3.3.4 1.5.6 2.6 1.8.6.7 1.1 1.8 1.8 2.8 2.6 4.4 1.2 3.2 2.8 7.8 1.6 4.7 4.7 9.9 7.9 13.5 2.7 3.1 5.3 6 9.5 6.8-.3 2.4 1 2.9 0 5.8-.3.9-.1 1.8-1.1 1.8-1.1 0-1.3.4-1.8.7-.7.3-1.6.5-2.1 1.1-1.1-.2-2.2 2-.8 1.7-.1.8 1.1.9 1.6.8.7-.1.8-1 1.2-1 .7-.1 1 0 1.5-.5.4-.4.3.1.4.3.2.3.8.3.9.4.2.2-.2.7-.3 1.1-.1.6.1 1.2 0 1.6 0 .2-.2.4-.2.6-.1.6.1 1.2.2 1.6.1.5-.3 1.4-.3 1.9 0 .9 1.1 2.2 2 1.3 1.6-1.6.1-3.1 1.8-3.8.7-.3.5.4.7.8.1.3 1.1 1 1.3 1.1 1.2.4 1.1 1 1.8 1.4.3.2.6.2.9.4.3.2.6.5.9.7.3.2.7.2.9.4.1 0 .2.1.3.2-5.3.2-10.7.5-16 .7-5.6.3-70.8.4-74.8.4h-.9c-.2.1.3.2.1.2h.3l1.5 3.2c-.3.6-1.1 1.6-2.9 1.6h-.3v1.3h-2.5c0 .6-.3 1.1-.6 1.5.1.5.1 1.1.2 1.6.2 1.6.1 2.9-.2 4h3.1c.3 0 .6 0 .8.1v-.1h9.7l-1.1.6c5.7 0 16-.1 34.7-.1 9.5 0 18.5-.1 19-.1.7-.1 1.4-.1 2.1-.1.5 0 1 .1 1.3.1.5 0 1.2-.1 2.1-.2 1.4-.2 3-.3 4.6-.4 1.1-.1 2.1-.1 3.1-.1h1.4c1.2 0 9.3.2 10.3 1.3.7.6 1.1-6.8 1.4-5.6.2.9.3 1.8.4 2.9.1 1.1 0 2.1-.1 3.1-.1.8-.2 1.4-.3 1.9 0 2.7-.1 3.2-.3 4.9-.2 1.1-.2 2.2-.3 3.2.3.6.5 1.4.6 2.3.1 1 .2 2.1.3 3.3.1 1.2.1 2.3.1 3.3 0 .9.1 1.2.1 1.2l.2.5v.5c0 1.1.1 2.1.2 3.1.2 1.2.3 2.4.3 3.6 0 2.5-.1 5.1-.2 7.8s-.2 5.2-.2 7.7v12c0 2.9 0 6-.1 9.3-.1 3.3-.1 6.3-.2 9-.1 2.8-.2 5.1-.4 6.9-.1.8-.2 1.7-.4 2.6 0 .2.1.3.1.5v1.3l2 2h-3.7c0 .1 0 .1-.1.2.2.4.3.8.2 1.3l.1.7h1v2.2c0 .7-.3 1.4-.8 2 .2.3.4.5.5.8 0 0 3.1-.3 3.2 0 .1.3-1.1.8-1 1 .1.2 1.9-.3 1.9 0-.1.3-2.9 1.6-3 2.1-.1.5 5.2 3.4 5.2 3.4s-.1.2.1.2 1.8 0 2.7.1h.2c.5 0 .9-.1 1.7-.3.4-.1.7-.2.9-.4 0 0-2.3.2-2.4 0-.1-.2 3.9-3.8 3.9-3.8.5-.5 1.2-.9 1.9-1l.3-.1h.2V278h.1c-.1-.6-.2-1.3-.2-2 0-.6.2-1.2.4-1.7l-.9-.9.9-.9v-.5h.5l.1-.1c-.1-.3-.1-.6-.1-.9-.1-1.3-.1-2.7 0-4.3.1-1.6.3-3.1.5-4.6.2-1.3.4-2.3.5-2.9 0-3.5-.1-7-.2-10.3-.2-3.5-.1-7.1.2-10.4v-4c0-2 0-4.3-.1-6.8-.1-2.6-.1-5.3-.2-8.1s-.2-5.5-.3-7.9c-.1-2.4-.2-4.4-.3-5.9 0-.6-.1-1-.1-1.2-.8-1-.8-2.3-.8-3.5.1-1.3.2-2.7.4-4.1.2-1.4.4-2.8.6-4.1.2-1.2.3-2.1.5-2.7 0-.7-.3-1.5.5-2.1.8-1 3-1.6 4.8-1.9l-1.7-1.1c.7 0 2 .2 2.7.2 1.3.1 1.8.5 2.6.5h2.3v.5c4.3-.4 18.5-.8 69.3-.8h3.1s.3 0 1.1-.2c.6-.2 1.2-.2 1.7-.2.4 0 .9.1 1.3.2h1l.2.1c.4-.2.8-.2 1.2-.2h.2c.4-.2.8-.3 1.2-.3h.4l.1-.3c.1-.6.5-1.2 1-1.6h-.7v-2.2c0-1.1.2-1.8.5-2.4zm-89.9-7.8c.2.2.2.4.2.6-.5 0-.9 0-1.4-.1.5-.5.8-1 1.2-.5zm-8.1.4h-.9c-.5-.4-1.2-.9-1.3-.9-.2-1.2-2.5-1-4.1-2.4-2.7-2.3-1.8-.7-3.5-3.7-.6-1.1-1.2-1.5-1.3-2.6-.2-3.8-1.5-6.5-1.6-10.6 1-.1 1.9-.3 2.6-.4 3.4-.6 4.9 1 8.8 1.8.6 2.6 2.6 4.4 3.8 6.7.5.9.9 2 1.4 3.1.5 1.1 1.1 2.2 1.5 2.9.6 1.3.4 1.9.8 3 .3 1-1.6 1.3-1.9 3v.3c-1.4-.2-2.9-.2-4.3-.2z"/><path class="st0" d="M434.9 198.2l1.7-7s-1.2-1.4-1.7-.3c-.5 1.1 0 7.3 0 7.3zm-61.6 187.2c-.2-1.1-.2-2.2-.2-3.2 0-2.3 0-4.6.1-7.1.1-2.4.1-4.7.1-6.9v-10.8c0-2.6 0-5.4.1-8.4 0-2.9.1-5.7.2-8.2.1-2.6.2-4.6.4-6.3.1-.7.1-1.6.4-2.4v-1.6l-1.8-1.9h3.4c0-.1 0-.1.1-.2-.1-.3-.3-.8-.2-1.2l-.1-.6h-.9v-2c0-.6.2-1.3.7-1.8-.2-.2-.4-.5-.5-.7 0 0-2.8.2-2.9 0-.1-.2 1-.7.9-.9-.1-.2-1.7.3-1.7 0s2.7-1.4 2.7-1.9c.1-.5-4.7-3.1-4.7-3.1s.1-.2-.1-.2-1.6 0-2.5-.1h-.2c-.4 0-.9.1-1.5.3-.4.1-.6.2-.8.4 0 0 2.1-.2 2.2 0 .1.2-3.5 3.5-3.5 3.5-.5.5-1.1.8-1.7.9h-.5v4h-.1c.1.5.2 1.1.1 1.8 0 .6-.1 1.1-.3 1.5l.8.8-.8.8v.5h-.5l-.1.1c.1.2.1.5.1.8.1 1.1.1 2.5 0 3.9s-.3 2.8-.5 4.1c-.2 1.2-.3 2-.4 2.6 0 3.2.1 6.3.2 9.3.1 3.2.1 6.4-.2 9.4v3.6c0 1.8 0 3.9.1 6.2.1 2.3.1 4.8.2 7.4.1 2.6.2 5 .3 7.2.1 2.2.2 4 .3 5.4 0 .5.1.9.1 1.1.7.9.8 2.1.7 3.2-.1 1.2-.2 2.4-.4 3.7l1.3 1-.7 1 1 .3 1 1s4.8-.2 5.7-.2c.9 0 5.8-.1 7.4-.2 1.6-.1 6.9.6 9 .4l2.1-.2h10.4s15.9.4 18.9.3 9.3-.5 10.6-.4 3.9-1 5-.5 5 .4 5 .4l1.3-.5 1 .9s5.3.4 7.1.1 10.8-.5 13.1-.4 11.5.3 14.1.1 12.9-.6 16-.3 9-.1 11.4.1 6.5-.9 7.6-.6 3-.1 3.1.4c.1.5 1 1.2 1 1.2s.2-1.8 1.5-1.5c1.3.3 2.6.2 2.6.2l1.5-.6-.5-1.5-1.5-1.3 1.5-.8s-.7-.4 0-1.6c.7-1.2.9-2.7.9-2.7s.5-2.2-.5-2.6c-.9-.4-.8-2.4-.8-2.4s-2.8-1-4.3-.3-5.4.4-7.3.8-8.1 0-10.6.3-7.6.4-10.9.3-10.1.4-13.8-.1-12.4-.5-15.5-.3-10.3.8-13 .4-9.8-.3-14 0l-.4-.5s-5.6-.4-8.1 0-11.9.3-15 .3-9.6 0-12.1.1-8.5-.6-11-.1-6.1 1.1-7-.1-1.2-2.9-1.2-2.9z"/><path d="M304.8 204.6c.3-1.2.2-4 .5-6.3s.2-6.2.3-8.2c.2-2-.2-6.3.2-7.2.3-.9.8-.3.8-.3s-.5.5-.2 2.2c.3 1.7.2 4.3.3 4.8.2.5-.2 2.2-.3 4.2s-.8 4.8-.5 5.2c.3.4-1.1 5.6-1.1 5.6zM297 335.7c-.3 1.1-.4 2.3-.4 3.7 0 1.3.1 2.5.2 3.6s.3 1.7.6 1.9c-.2-1.8-.2-3.7.1-5.6.3-1.9.4-3.7.2-5.3-.1 0-.4.6-.7 1.7zm.3-3c.2-.7.1-2.2.3-3.4.2-1.3.1-3.3.2-4.4.1-1.1-.1-3.4.1-3.9s.4-.2.4-.2-.2.2-.1 1.2.1 2.3.2 2.6c.1.3-.1 1.2-.2 2.3-.1 1.1-.4 2.6-.3 2.8s-.6 3-.6 3zm-51.6-95.6c.3-1.3.2-4.3.5-6.7.3-2.5.2-6.6.3-8.7.2-2.1-.2-6.7.2-7.7.3-1 .8-.3.8-.3s-.5.5-.2 2.3c.3 1.8.2 4.6.3 5.1.2.5-.2 2.3-.3 4.4-.2 2.1-.8 5.1-.5 5.6.4.4-1.1 6-1.1 6zm85.3-7.8s-.9 1.5-1.5 3.3-1.6 3.9-1.5 4.3.4 1.1-.3 2.5-1.1 3.5-1.1 3.5.4-.8 1.1-1.9.6-2.1 1.1-3.4 1.1-3.5 1.1-3.5l.9-2.9.2-1.9zm145.4 34.5s-1 6.8 2.1 9.1l.9-.6s-.5 1.8 1.7 3c0 0-.6-2.7-1.2-3.2-.6-.4-1.9-2.7-1.9-2.7s-1.1-1.6-1.6-5.6zm169.4-55.2s1-3.5.5-7-.5-6-.3-7.3.5-4 .5-4-1.3 2-1.5 4.5-.8 7.3-.8 7.3l1.6 6.5zM298.5 394.1s.6-.3.6-1.8v-1.8l-.1-1.5s.3-.9.5-2.1.6-3.6.4-5 .3-4.8.3-6.3-.1-1.5-.1-3.8.3-3.7.3-4.9c0-1.3.7-3.1-.4-3.5 0 0 .6-4.8.6-6.9s0-3.1.2-4.1.3-.7 0-2.1c-.2-1.4-.3-5.8-.2-7.8s0-2.3 0-4.4-.3-3.4.1-4.6 0-2.7 0-3.4c0-.7.3-1.4.7-1.5s.5-.8.2-1.1l-.9-.9s.1-.3.5-.7-.3-1.3-.3-1.3.9-5.3-.2-6.7l6.2-.4s3.3-.3 4.4 0 4.7 0 6.7-.1 6.1-.2 7.4-.4 4.8-.4 6.7-.4 6.2-.1 6.2-.1l3.1 1 2.7.2 2.3-.3 1.8.6-2.5 2 2.9 2.3.6 7.1-1.2.7-.8 1.1-1.6-.8-.7.8h-1.2s-2.9-.6-4.6-.3-5.8.4-7.6.2-6.2-.1-6.2-.1-.7.9-2.1.7c-1.4-.2-1.4-1.2-2.7-.7s-1.7.7-2.8.5-2.1-.3-2.1-.3l-.8.6-.5.1.2.7s-.7 1.5-.6 3.5c.1 2-.1 7.6.1 9.2s.4 3.2.2 5c-.2 1.9-1.1 4.3-.6 5.1.5.8.8 2.2.8 2.2l-.7 1.2s2.7.3 4.5.1c1.8-.2 3-.6 3-.6s2.1.5 3.9.3 3.1.8 3.1.8 1-.6 1.5-.3 1.3 1.2 1.3 1.2-1 10.3-.8 10.9l.2.6-.7.4s-.3-.3-1.4-.3c-1-.1-1.5-.4-3.6 0-2.2.4-3.5.4-5.7.4s-4.8-.1-4.8-.1-1.1 2.2-.7 3.9.6 2.7 0 4.6c-.6 1.9-1.3 4.6-.8 5.6s.3 2.3.3 2.3l2.3.5s2.1.5 3.5.3 4.5-.1 5.5-.2c1 0 4.2.4 5 .2s3.8.2 5 .2c1.3-.1 5.1.1 5.4.2s2.8.9 3.7.4l-.4 1.2 1.8 1-.8 1.2.6.7.6 1.2-3.4 1.7 3.5 2.1-1.2 1.5-1 .5-1.3.8s-.9-.6-1.8-.1-3.4.3-5.6.5c-2.2.3-5.2-.2-7.3-.1s-4.8.2-6.9-.1-2.7-.5-5.3-.2c-2.6.3-5.4-.1-7.5.3-2.1.3-7.5.3-9 .1.3-.1.7-7.4.1-8.4z"/><path d="M624.7 256.1s.7-.4.7-2v-2l-.1-1.6s.3-1 .5-2.3.6-4 .5-5.5c-.1-1.5.3-5.2.3-6.8.1-1.6-.1-1.6-.1-4.2.1-2.5.3-4 .4-5.4.1-1.4.7-3.4-.4-3.8 0 0 .7-5.3.6-7.5-.1-2.3 0-3.4.2-4.5.2-1.2.3-.8 0-2.3-.2-1.5-.3-6.4-.2-8.5.1-2.1 0-2.5 0-4.8s-.3-3.8.1-5.1c.4-1.3 0-2.9 0-3.7 0-.8.3-1.5.8-1.6.5-.1.5-.9.2-1.2l-1-1s.1-.3.5-.7c.4-.4-.3-1.4-.3-1.4s1-5.8-.3-7.3l6.8-.4s3.6-.3 4.8 0c1.2.3 5.1 0 7.3-.1s6.6-.2 8.1-.5 5.2-.4 7.3-.4c2.1 0 6.8-.1 6.8-.1l3.4 1.1 3 .2 2.5-.3 2 .6-2.7 2.2 3.2 2.5.7 7.7-1.3.7-.8 1.2-1.7-.9-.8.8h-1.4s-3.2-.6-5.1-.4c-1.9.3-6.3.5-8.3.2-2-.3-6.8-.1-6.8-.1s-.8 1-2.3.8c-1.5-.2-1.6-1.4-2.9-.7-1.4.6-1.8.7-3.1.5-1.3-.2-2.3-.4-2.3-.4l-.8.6-.5.1.2.8s-.7 1.6-.6 3.8c.1 2.2-.1 8.3.1 10 .2 1.7.4 3.5.2 5.5s-1.2 4.7-.6 5.6c.5.9.9 2.4.9 2.4l-.7 1.3s3 .4 4.9.1c1.9-.3 3.3-.7 3.3-.7s2.4.5 4.3.3 3.4.8 3.4.8 1.1-.6 1.6-.4c.5.3 1.4 1.3 1.4 1.3s-1.1 11.3-.9 12l.2.6-.8.5s-.4-.3-1.5-.4c-1.1-.1-1.6-.5-4 0s-3.8.5-6.3.5-5.2-.1-5.2-.1-1.3 2.4-.8 4.3.6 2.9 0 5-1.4 5-.8 6.1c.5 1.1.4 2.5.4 2.5l2.5.5s2.3.5 3.8.4c1.6-.2 5-.2 6-.2 1.1 0 4.5.4 5.5.3.9-.2 4.1.3 5.5.2 1.4-.1 5.6.1 5.9.2.4.1 3.1.9 4 .4l-.4 1.3 1.9 1.1-.8 1.3.7.8.6 1.4-3.8 1.9 3.8 2.3-1.3 1.7-1.1.5-1.4.8s-1-.6-2-.1-3.7.3-6.1.5c-2.4.3-5.7-.2-8-.1-2.4.1-5.3.2-7.5-.1s-3-.6-5.8-.2c-2.8.4-5.9-.1-8.2.3-2.3.4-8.2.3-9.9.1.2.2.6-7.8-.1-8.8zM316.5 387s1.6-.1 3.6.4 5.6-.1 7.7.1c2.1.2 5.9-.1 5.9-.1l.1-.9c-.4 0-1.8-.5-3.3-.1s-4.7.6-7 .5c-6.5-.3-7 .1-7 .1zm178.4-29.7l-.2.5s-.4 2.8-.7 4.8c-.4 2-.7 2.7-.4 3.9 0 0 .5-1.8 1.2-3.9.9-2.1.1-5.3.1-5.3zm-118.6-8c-.1.9-.2 2.9-.3 5.8-.1 2.9.1 5.3.6 7.3l1-11.2c.1-1.2-.4-1.8-1.3-1.9zm.1 14.5c-.1 1.8-.3 3.5-.3 5.4-.1 5.1-.1 10.3.2 15.4h.7c.1-3.3.1-6.8-.1-10.7-.2-3.7-.4-7-.5-10.1zm59.8-16.8l-.9-5.4c-1.1-5.2-2.3-10.3-3.7-15.4l-.7.2c.7 3.3 1.5 6.9 2.6 10.7 1 3.5 1.9 6.8 2.7 9.9zm186-107.3c.1 5-.1 10.1-.4 15.3.1-.9.2-2.9.5-5.9.3-3 .6-6.4.9-10 .3-3.6.5-6.9.4-9.8-.1-2.9-.4-4.8-1-5.5-.3 5.6-.5 10.9-.4 15.9zm-115.4 86.8c-3.8.3-7.8.5-11.8.6h4.6c2.4 0 4.9.1 7.7.1s5.3-.1 7.6-.3c2.3-.2 3.7-.6 4.2-1.1-4.4.1-8.5.3-12.3.7zm-76.2-12.1l1.4-.2.6 1 .2-1.2 1.6-.5 2.5.2.3 2.7 1.1-2-.3-1 2-.7 1.6 2.5s1.7 4.1 2 5.3c.3 1.2 1.3 5.7 1.8 7.8.5 2.1 2.1 7 2.3 7.9.2.9-.2.3-.2.3l-.5.6s1 3.4 1.4 4.7c.4 1.3 1.6 5.5 1.8 7.2.2 1.7 1.5 4.2 1.9 5.2.4 1 1.4 4.4 1.4 4.4s.4-2.2 1.7-4.4c1.3-2.2 2.4-4.8 2.7-6.3s.1-2.9.1-2.9.9-2.1 1.3-3.4c.4-1.3.6-4.2.6-4.2l-.5-.6s1.7-3.9 2.2-6.2c.4-2.3 1.4-4.6 2.1-6.7.7-2.1 1.9-5.8 1.9-6.9 0-1.1-.1-2.8-.1-2.8s2.2-.4 3-.3l.2.8 1.4-1.3 2.3.3.7-.8 2.6.3 1.4 1.3s-.7 1.4-1 3.1c-.4 1.7-.9 3.8-1.1 5.5l-.1 1.7-.9 2.8.3-3.7s-1.2 2.5-1.3 4c-.1 1.5-.9 5.2-1.4 6.6l-.5 1.4s-.7 1.4-1 3.3c-.3 1.8-2.3 7.1-1.9 8.5 0 0-.8 2-1.1 4-.3 2-1.4 2.4-1.9 4-.5 1.5-1.9 5.5-2.2 7.7-.3 2.2-1.2 4.2-1.9 6.2s-1.1 3.6-1.4 4.6c-.3 1-1.4 3.6-1.5 3.9s-.6-.7-.6-.7l-.8.9s-1-.9-2.1 0l-.7-1.3s-.9 1.1-1.6 1.2c-.7 0-.9-1-2.1-.7-1.2.3-1.3-.4-1.3-.4s-.6-1-.5-1.9c.1-.9-.7-2-1.4-3.2-.7-1.2-1.7-3.5-1.9-5.6-.2-2.2-.8-2.9-1.7-5.9-.9-3-2-6-2-6l-.9-.7-1-4.1s.6-2.3-.1-4-1.6-4.8-1.6-4.8l1-.1-1.5-1.8s-.6-1.9-1.2-5.7l-.7-3.8s-.5-2.1-1.2-4.2-1-4.2-1.8-5.8c-.8-1.7-1.3-4-1.3-4l-.6-1.1zm-36.4 63.7c-1.3 0-2.4-.1-3-.1h-2.5l1.1-1.4-.8-.7-1.2-1.1-.2-.5v-1.1c0-.3-.1-.6-.2-.8l-.1-.4.1-.4c.1-.2.1-.5.2-.8v-2.4l-.1-.4.1-.4c.1-.2.1-.4.2-.7.1-.7.2-1.5.3-2.5.1-.9.1-1.8.1-2.7 0-.9.1-1.5.1-1.7v-5.6c0-.3 0-.7.1-1.3.1-.6.1-1.2.1-1.8v-1.7c0-.3-.1-.6-.2-.8l-.1-.3v-.3c.2-1.7.3-3.1.3-4.2.1-1.2.1-2.3.2-3.4.1-1 .1-1.6.1-1.9-.1-1.4-.2-2.6-.2-3.8v-7.3c0-.4 0-1.1.1-2 .1-.9.1-1.6 0-2.2l-.1-1.1.1-.2v-.4l.1-.3v-.2l.2-.2.1-.3v-1l.1-.1c0-.3-.1-.3-.1-.3l1-.5-1.1.1v-.6c0-.2 0-.4.1-.5v-.6l.1-.1.4-.8.6-.1c.4-.1.4-.3.4-.3l.2-.7.7-.1c.1 0 .2-.1.3-.1l.3-.2.6.1h.6c.4 0 .7-.1 1-.2l.3-.2h3.7c1.5 0 3.1-.1 4.7-.2h.2c.5 0 1.7 0 3.3-.1 1.7-.1 3.5-.2 5.3-.3 1.8-.1 3.5-.1 5.1-.1h2.1l.4.3c.1.1.3.2.5.2h1.3v.1h.2c.5 0 1 0 1.4.4.2.2.3.3.3.5.5-.2 1-.4 1.4-.6l.4-.2s.8.3.9.4l.7.3v.5l.1.2.9-.2-.4 1.8c-.1.3-.1.5-.1.8v.3l-.1.3c0 .1-.1.2-.1.4v4.4l-1.2-.7v.3l-1.3.9-.8-.1c-1.4-.1-3-.2-4.7-.2h-5c-1.5 0-2.2.2-3.7.3l-1 .1-.4-6.8s-1.4 6.6-1.5 6.7l-.3.3h-.9l-.3-.1h-.7l-.3.1-.2-.1c-.2 0-.7-.1-.7-.1h-.7l-.1-.3c-.1 0-.2-.1-.3-.1h-.4v.3l-1.2-.1h-.3c-.5 0-.6 0-.7.1l-.2.1-.2.1c-.6.2-.6.3-.6.4v.3l-.1.4c-.2.4-.2.8-.3 1.3v1.7l.1 1.5v1.4c0 1.2 0 2.4.1 3.8.1 1.3.1 2.5.1 3.6 0 .3 0 .8-.1 1.4-.1.6-.2 1.2-.2 1.9 0 .6 0 1.2.1 1.7 0 .2.1.3.1.5l.2.3-.1.4v.4h5.3c.4 0 .6-.1.9-.1l.2-.1.5.1h3.8l1 .2v.2h.2l.2.2.5.5c.1.1.2.1.3.2l.6.3v1.7c0 .4.1.7.2 1v4.2h-.3v.7l-1.3-.1c-.1 0-.3 0-.4.1-.3.1-.6.2-.9.2H408c-1.1 0-2.4.1-3.8.3-.7.1-1.4.1-2 .1-.6 0-1.2 0-1.8-.1H399v.3c0 .3-.1.8-.2 1.5s-.2 1.4-.2 2c0 1.3-.2 2.7-.5 4.4-.3 1.7-.4 3.1 0 4.4l.2.9h2.1c2.5 0 5 0 7.3.1 2.4.1 4.9.1 7.3.1h2.8c.8 0 1.7 0 2.6.1h.2c.3.1.6.1.9.2l.9.2v2.2c.3.2.6.3.9.5l.6.3v4.7l-1-.6c-.4.4-.9.4-1.5.4h-.6v1l-4.2.1h-8.7c-1.1 0-2.2 0-3.4-.1-1.2-.1-2.4-.1-3.6-.1-.2 0-.6 0-1.3.1-1.7.2-3.5.4-5.4.4z"/><path d="M493.8 342.6h4.5c.4 0 .6-.1.9-.1l.2-.1.5.1h3.8l1 .2v.2h.2l.2.2.5.5c.1.1.2.1.3.2l.6.3v1.7c0 .4.1.7.2 1v4.2h-.3v.7l-1.3-.1c-.1 0-.3 0-.4.1-.3.1-.6.2-.9.2H502c-1.1 0-2.4.1-3.8.3-.7.1-1.4.1-2 .1-.6 0-1.2 0-1.8-.1H493v.3c0 .3-.1.8-.2 1.5s-.2 4.1-.2 4.8c0 1.3-.2 2.7-.5 4.4-.3 1.7-.4 3.1 0 4.4l.2.9h2.1c2.5 0 5 0 7.3.1 2.4.1 4.9.1 7.3.1h2.8c.8 0 1.7 0 2.6.1h.2c.3.1.6.1.9.2l.9.2v2.2c.3.2.6.3.9.5l.6.3v4.7l-1-.6c-.4.4-.9.4-1.5.4h-.6v1l-4.2.1h-8.7c-1.1 0-2.2 0-3.4-.1-1.2-.1-2.4-.1-3.6-.1-.2 0-.6 0-1.3.1-1.6.3-3.4.4-5.4.4-1.3 0-2.4-.1-3-.1h-2.5l-.4-1.7.7-.5-1.2-1.1-.2-.5v-1.1c0-.3-.1-.6-.2-.8l-.1-.4.1-.4c.1-.2.1-.5.2-.8v-2.4l-.1-.4.1-.4c.1-.2.1-.4.2-.7.1-.7.2-1.5.3-2.5.1-.9.1-1.8.1-2.7 0-.9.1-1.5.1-1.7v-5.6c0-.3 0-.7.1-1.3.1-.6.1-1.2.1-1.8v-1.7c0-.3-.1-.6-.2-.8l-.1-.3v-.3c.2-1.7.3-3.1.3-4.2.1-1.2.1-2.3.2-3.4.1-1 .1-1.6.1-1.9-.1-1.4-.2-2.6-.2-3.8v-7.3c0-.4 0-1.1.1-2 .1-.9.1-1.6 0-2.2l-.1-1.1.1-.2v-.4l.1-.3v-.2l-.1-.3.1-.3v-1l.1-.1c0-.3-.1-.3-.1-.3l1-.5-1.1.1v-.6c0-.2 0-.4.1-.5v-.6l.2-.1.4-.8.6-.1c.4-.1.4-.3.4-.3l.2-.7.7-.1c.1 0 .2-.1.3-.1l.3-.2.6.1h.6c.4 0 .7-.1 1-.2l.3-.2h3.7c1.5 0 3.1-.1 4.7-.2h.2c.5 0 1.7 0 3.3-.1 1.7-.1 3.5-.2 5.3-.3 1.8-.1 3.5-.1 5.1-.1h2.1l.4.3c.1.1.3.2.5.2h1.3v.1h.2c.5 0 1 0 1.4.4.2.2.3.3.3.5.5-.2 1-.4 1.4-.6l.4-.2s.8.3.9.4l.7.3v.5l.1.2.9-.2-.4 1.8c-.1.3-.1.5-.1.8v.3l-.1.3c0 .1-.1.2-.1.4v4.4l-1.2-.7v.3l-1.3.9-.8-.1c-1.4-.1-3-.2-4.7-.2h-5c-1.5 0-3 .1-4.5.2l-1.2.1.3-2.2-1.1 2.2-.3.3h-1l-.3-.1h-.7l-.3.1-.2-.1c-.2 0-.7-.1-.7-.1h-.6l-.2-.1c-.1 0-.2-.1-.3-.1h-.4v.3l-1.2-.1h-.3c-.5 0-.6 0-.7.1l-.2.1-.2.1c-.6.2-.6.3-.6.4v.3l-.1.4c-.2.4-.2.8-.3 1.3v1.7l.1 1.5v1.4c0 1.2 0 2.4.1 3.8.1 1.3.1-.3.1.8 0 .3 0 .8-.1 1.4-.1.6-.2 1.2-.2 1.9 0 .6 0 1.2.1 1.7 0 .2.1 3.1.1 3.2l.2 1.3.9-2.9zm-92.2-5.2s.7-2.3.4-4.6c-.4-2.3-.4-4-.2-4.8.2-.8.4-2.6.4-2.6s-.9 1.3-1.1 3c-.2 1.6-.5 4.8-.5 4.8l1 4.2z"/><path class="st0" d="M662.2 375.2l-1.2-.9-.8.8-.7-1.1-1.6.7-3.1-.6-.2 1.4-.5 1-.9-2.1-3.6.1-.1 4.9.9.9s-.3 1.8-.5 3.1-.7 4.1 0 4.6 1.3 1.8 1.3 1.8l-.6 1.2s2.3 3.8 3.6 4.8 3.4 3.6 4.7 4.3c1.3.8 4.2 3.4 5.7 3.9s3.1 1.4 5.4 1.2 8.1-.7 10.6-.7 5.2-1 8.3-2.6c3.1-1.6 6.2-4.1 6.2-4.1v-2.1s1.1-.9 2.1-2.9 1.8-4.4 1.9-6.9.3-6.3-.8-9.1-1.5-6-3.8-8.6-5-5.9-7.1-7.3-4.1-4.3-7.4-4.9-7.5-1.6-10.3-3.3c-2.7-1.7-5.5-2.9-6.9-6.8s-2.4-6.4-1.6-8h.9s-.1-3.6 1-5.1 2-4.3 4.1-4.9 4.1-1.4 4.1-1.4.4.5.5.7 1.4-.2 2.1-.1 2.5 0 3.3.3 2.6.1 3.5.7 1.6 1.1 1.5 1.8c0 0 .9.9 1 1.8.1.8.8 3.1.8 3.9s0 3.4.2 4 .3 1.8.3 2.6-.3 1.7-.3 1.7l1.7.7-.1-1.5.8-.1.7-.7.1 2s.7-.5 1-.1c.3.4 1.6.8 1.9.7.2-.1 1.2-.9 1.2-.9v1.1l1.2.2 1.7.2-.1.5 2.4-.2s.1-.8 0-1.6.4-1.4.2-2.6-.2-3.4-.2-3.4l-.9-.4s.3-1.3.4-2.1-.2-2.9-.6-4.8-.5-3.6-1.6-5.7-2.4-4.3-4.5-5.6l.2-.6s-2-1.3-3.5-1.8-3.3-1.5-5.1-1.9-2.6-.8-4.6-.8c-2 0-3.2.4-4.5.6s-3.3.1-5.3.5-3.3.8-4.9 1.2-2.4 1.1-3.2 1.6c-.8.5-2.6 2.3-2.6 2.3l.3.4s-.8.7-1.4 1.4-1.9 1.8-2.8 3c-.9 1.2-1.7 2.7-2.2 3.8s-1.2 3.3-1.5 4.9-.7 3.8-.6 5.4c.1 1.7-.2 2.8.3 3.5.5.7.5 1.3.4 2.1s-.7 1.3-.4 1.4.8 1.8 1.1 2.4 2 4.2 2.7 5.5c.6 1.3 3.4 4.9 4.3 5.4l.6-.3s1.7 1.3 2.7 2.1 2.8 1.6 3.9 1.9 1.9.6 1.9.6l-.2.6s1.8.2 2.5.6c.7.4 1.5.9 1.5.9s1.4.2 2.3.4c.8.2 1.7.8 2.3.9l.5-.4s2.1 1 2.5 2.1 1.3 2.1 2.1 2.4 1.4.5 1.4.5l.1.6s1.3.9 1.8 1.9.4 1.8 1.1 2.3 1.3.6 1 1.4-.2.8-.2.8l.2 1.7v.9h.3s-.3.8-.3 1.4-.2 1.4-.2 1.4l-.3.6.4.4s.1.9-.3 1.6-.7.9-1.2 1.5c-.5.7-.8 1.7-1.9 1.9s-2.6.3-3.8.4-2.5.3-3.7.3-2.1.6-2.8 0c-.7-.6-2.2-2.3-3.4-2.7-1.2-.4-1.4-1.2-2-1.6-.6-.4-1.1-1.1-1.1-1.1l.2-.3s-1.4-1.6-1.6-3.2-.9-2.7-.4-4 .1-3.2.1-3.2z"/><path d="M695.6 319.8s4 6.3 3.9 14.8l1.3-.2c-.1 0-.7-9.1-5.2-14.6zM647.4 381s-1.6 4.8 0 7.1c0 0-2.1-2.6-1.3-6.9l1.3-.2zM235 430.4l.1-.6.6-.3s.5.1.9.2 2.5-.1 2.8 0c.4.1.5-.4.5-.4s1.1-.1 1.6 0 2.7 0 3.2.1l.5.1h2.1l1.6.1.1-1.3s.3-1.3.1-1.8c-.1-.5-.2-2-.2-2l-.2-.7s-2.5-.3-3.4-.3c-.9 0-3.8.1-4.8.2s-3.2.4-4.3.3c-1.1-.1-3.9-.2-3.9-.2v.3l-2.4-.1-.5.1s.1 2 .1 2.9v3.4c0 .7-.1 3.8-.1 4.7.1 1 0 3.1 0 4.4-.1 1.2-.3 2.6-.3 2.6s.3.2.3.7-.2 4.3-.2 5.3-.4 4.1-.4 4.9v3c0 .6-.1 1.5-.1 1.5l.5.3-.4.4s2.3.3 3.2.1c.9-.2 3.1-.2 4-.2 1-.1 2.4.4 3.4.2s2.6.1 3.6 0 2.4.2 3.1 0c.7-.1 1.2-.2 1.2-.2v-1.8l-.4-.3s.4-.5.4-1.1c.1-.6-.2-1.9-.2-1.9s-1.4-.1-2.2.1c-.8.1-3.3-.1-3.3-.1l-.6-.3s-1.6.2-2.1.3c-.5.1-2.2 0-2.9.1-.7.1-1.7-.2-1.7-.2s-.5-1.4-.2-2.3c.3-.9.4-1.5.4-2.4l.2-2s1.2.1 2 .1c.8-.1 1.9-.3 2.6-.2.7.2 2 .1 2 .1s.4-.6.4-1.2c0-.7-.2-1.8-.2-1.8s-.3-.9-.1-1.3c.1-.4 0-.9 0-.9s-.8-.5-1.7-.4c-.9.1-2.1-.1-3 .1-.9.2-2 .1-2 .1s-.3-.8-.2-1.6c.2-.8.2-2 .1-3.1s-.2-3.7-.1-4.1c.5-.7.5-1.6.5-1.6zm97 0l.1-.6.6-.3s.5.1.9.2 2.5-.1 2.8 0c.4.1.5-.4.5-.4s1.1-.1 1.6 0 2.7 0 3.2.1l.5.1h2.1l1.6.1.1-1.3s.3-1.3.1-1.8c-.1-.5-.2-2-.2-2l-.2-.7s-2.5-.3-3.4-.3-3.8.1-4.8.2-3.2.4-4.3.3c-1.1-.1-3.9-.2-3.9-.2v.3l-2.4-.1-.5.1s.1 2 .1 2.9v3.4c0 .7-.1 3.8-.1 4.7.1 1 0 3.1 0 4.4-.1 1.2-.3 2.6-.3 2.6s.3.2.3.7-.2 4.3-.2 5.3-.4 4.1-.4 4.9v3c0 .6-.1 1.5-.1 1.5l.5.3-.4.4s2.3.3 3.2.1c.9-.2 3.1-.2 4-.2 1-.1 2.4.4 3.4.2s2.6.1 3.6 0 2.4.2 3.1 0c.7-.1 1.2-.2 1.2-.2v-1.8l-.3-.3s.4-.5.4-1.1c.1-.6-.2-1.9-.2-1.9s-1.4-.1-2.2.1c-.8.1-3.3-.1-3.3-.1l-.6-.3s-1.6.2-2.1.3c-.5.1-2.2 0-2.9.1-.7.1-1.7-.2-1.7-.2s-.5-1.4-.2-2.3c.3-.9.4-1.5.4-2.4l.2-2s1.2.1 2 .1c.8-.1 1.9-.3 2.6-.2.7.2 2 .1 2 .1s.4-.6.4-1.2c0-.7-.2-1.8-.2-1.8s-.3-.9-.1-1.3c.1-.4 0-.9 0-.9s-.8-.5-1.7-.4c-.9.1-2.1-.1-3 .1-.9.2-2 .1-2 .1s-.3-.8-.2-1.6c.2-.8.2-2 .1-3.1s-.2-3.7-.1-4.1c.4-.7.4-1.6.4-1.6zm170.9 0l.1-.6.6-.3s.5.1.9.2 2.5-.1 2.8 0c.4.1.5-.4.5-.4s1.1-.1 1.6 0 2.7 0 3.2.1l.5.1h2.1l1.6.1.1-1.3s.3-1.3.1-1.8c-.1-.5-.2-2-.2-2l-.2-.7s-2.5-.3-3.4-.3c-.9 0-3.8.1-4.8.2s-3.2.4-4.3.3c-1.1-.1-3.9-.2-3.9-.2v.3l-2.4-.1-.5.1s.1 2 .1 2.9v3.4c0 .7-.1 3.8-.1 4.7.1 1 0 3.1 0 4.4-.1 1.2-.3 2.6-.3 2.6s.3.2.3.7-.2 4.3-.2 5.3-.4 4.1-.4 4.9v3c0 .6-.1 1.5-.1 1.5l.5.3-.4.4s2.3.3 3.2.1c.9-.2 3.1-.2 4-.2 1-.1 2.4.4 3.4.2s2.6.1 3.6 0 2.4.2 3.1 0c.7-.1 1.2-.2 1.2-.2v-1.8l-.2-.3s.4-.5.4-1.1c.1-.6-.2-1.9-.2-1.9s-1.4-.1-2.2.1c-.8.1-3.3-.1-3.3-.1l-.6-.3s-1.6.2-2.1.3c-.5.1-2.2 0-2.9.1-.7.1-1.7-.2-1.7-.2s-.5-1.4-.2-2.3c.3-.9.4-1.5.4-2.4l.2-2s1.2.1 2 .1c.8-.1 1.9-.3 2.6-.2.7.2 2 .1 2 .1s.4-.6.4-1.2c0-.7-.2-1.8-.2-1.8s-.3-.9-.1-1.3c.1-.4 0-.9 0-.9s-.8-.5-1.7-.4c-.9.1-2.1-.1-3 .1-.9.2-2 .1-2 .1s-.3-.8-.2-1.6.2-2 .1-3.1-.2-3.7-.1-4.1c.3-.7.3-1.6.3-1.6zm177.5 0l.1-.6.6-.3s.5.1.9.2 2.5-.1 2.8 0c.4.1.5-.4.5-.4s1.1-.1 1.6 0 2.7 0 3.2.1l.5.1h2.1l1.6.1.1-1.3s.3-1.3.1-1.8c-.1-.5-.2-2-.2-2l-.2-.7s-2.5-.3-3.4-.3c-.9 0-3.8.1-4.8.2s-3.2.4-4.3.3c-1.1-.1-3.9-.2-3.9-.2v.3l-2.4-.1-.5.1s.1 2 .1 2.9v3.4c0 .7-.1 3.8-.1 4.7.1 1 0 3.1 0 4.4-.1 1.2-.3 2.6-.3 2.6s.3.2.3.7-.2 4.3-.2 5.3-.4 4.1-.4 4.9v3c0 .6-.1 1.5-.1 1.5l.5.3-.4.4s2.3.3 3.2.1c.9-.2 3.1-.2 4-.2 1-.1 2.4.4 3.4.2s2.6.1 3.6 0 2.4.2 3.1 0c.7-.1 1.2-.2 1.2-.2v-1.8l-.4-.3s.4-.5.4-1.1c.1-.6-.2-1.9-.2-1.9s-1.4-.1-2.2.1c-.8.1-3.3-.1-3.3-.1l-.6-.3s-1.6.2-2.1.3c-.5.1-2.2 0-2.9.1-.7.1-1.7-.2-1.7-.2s-.5-1.4-.2-2.3c.3-.9.4-1.5.4-2.4l.2-2s1.2.1 2 .1c.8-.1 1.9-.3 2.6-.2.7.2 2 .1 2 .1s.4-.6.4-1.2c0-.7-.2-1.8-.2-1.8s-.3-.9-.1-1.3c.1-.4 0-.9 0-.9s-.8-.5-1.7-.4c-.9.1-2.1-.1-3 .1-.9.2-2 .1-2 .1s-.3-.8-.2-1.6c.2-.8.2-2 .1-3.1s-.2-3.7-.1-4.1c.5-.7.5-1.6.5-1.6zm-268.9 0l.1-.6.6-.3s.5.1.9.2 2.5-.1 2.8 0c.4.1.5-.4.5-.4s1.1-.1 1.6 0 2.7 0 3.2.1l.5.1h2.1l1.6.1.1-1.3s.3-1.3.1-1.8c-.1-.5-.2-2-.2-2l-.2-.7s-2.5-.3-3.4-.3c-.9 0-3.8.1-4.8.2s-3.2.4-4.3.3c-1.1-.1-3.9-.2-3.9-.2v.3l-2.4-.1-.5.1s.1 2 .1 2.9v3.4c0 .7-.1 3.8-.1 4.7.1 1 0 3.1 0 4.4-.1 1.2-.3 2.6-.3 2.6s.3.2.3.7-.2 4.3-.2 5.3-.4 4.1-.4 4.9v3c0 .6-.1 1.5-.1 1.5l.5.3-.4.4s2.3.3 3.2.1c.9-.2 3.1-.2 4-.2 1-.1 2.4.4 3.4.2s2.6.1 3.6 0 2.4.2 3.1 0c.7-.1 1.2-.2 1.2-.2v-1.8l-.4-.3s.4-.5.4-1.1c.1-.6-.2-1.9-.2-1.9s-1.4-.1-2.2.1c-.8.1-3.3-.1-3.3-.1l-.6-.3s-1.6.2-2.1.3c-.5.1-2.2 0-2.9.1-.7.1-1.7-.2-1.7-.2s-.5-1.4-.2-2.3c.3-.9.4-1.5.4-2.4l.2-2s1.2.1 2 .1c.8-.1 1.9-.3 2.6-.2.7.2 2 .1 2 .1s.4-.6.4-1.2c0-.7-.2-1.8-.2-1.8s-.3-.9-.1-1.3c.1-.4 0-.9 0-.9s-.8-.5-1.7-.4c-.9.1-2.1-.1-3 .1-.9.2-2 .1-2 .1s-.3-.8-.2-1.6c.2-.8.2-2 .1-3.1s-.2-3.7-.1-4.1c.5-.7.5-1.6.5-1.6zm-156.4-7.1l1.2-.2v-.5l2.3.1 1.5.2h1.1l1 2.5c.4 1 .8 2.2 1.2 2.9.3.7 1.6 3.5 2 4.6.5 1.1 1.8 3.1 2 3.7.3.5 3.1 5.4 3.1 5.4s.2-2.2.4-3.4c.2-1.2.4-2.7.5-4 .1-1.4.2-3.6.3-4.9.1-1.3.3-3.2.3-4.2s.1-2.3.1-2.3l1.8.3.4-.4s2 .4 2.1.5h1l.3 2.4s-.4.9-.4 1.7v3.2l.1.4s-.3 3.1-.4 4.2c-.1 1-.3 4.4-.5 5.3-.2.9-.1 2.5-.1 3.3 0 .8.3 2.5.2 3.2-.1.7-.3 3.2-.4 4.1-.1.9-.1 3-.1 3l.6 1.9-.1 1.4.3.3-3.8.5-1.4-.4s-.3-1.4-.8-2.4-1.7-3.9-2.2-5c-.4-1.1-1.7-3.5-2.2-4.6-.5-1.2-2-4-2.6-5-.6-1-2.9-4.9-2.9-4.9s-.2 7.2 0 8.8c.2 1.6.4 4 .3 4.9-.1.9-.2 3.6-.1 4.4.1.9 0 3.6 0 3.6l-.3.9-1 .2-1.1.3-1.1-.2-2.2-.3s-.2-.9-.2-1.9c0-1.1.2-3.9.1-5.9-.1-2-.1-5.6-.1-7.6-.1-2-.1-4.3 0-6.4.1-2.1-.2-4.4-.1-6.2.1-2.3-.1-7.5-.1-7.5zm43.4-.3s2.1-.1 3.2-.1c1 0 2.1-.1 3.1-.1 1.1 0 2.6-.2 3.7-.2s3-.2 3.9-.1c.8.1 2.6 0 3.4.1.8.1 3.7 0 4.4.1.6.1 1.1 0 1.1 0v1.5l-.3 1.2v1c0 .6-.3 1.4-.3 1.4s-.2.3-.8.2c-.6-.1-1.3 0-2 .1-.7 0-1.9-.1-2.7-.1-.8.1-2 .2-2.2.2-.2 0-1.1.3-1.1 1.5.1 1.2.1 1.6 0 2.1s-.4 1.4-.3 2c.1.6.1 4 .4 5 .2 1 0 4.1.1 5.1s-.1 4.4 0 5.2c.1.8-.1 3.7-.1 4.3.1.5-.2 2.3-.1 2.6.1.3 0 1.4 0 1.4l.1.7-.7.1.3.5s-1 .2-1.9.4c-.9.2-2.4.2-3.2.1-.8-.1-.9-.6-.9-.6s-.1-1.6.1-2.6.6-3.3.6-4.9-.1-4.2.1-5.6c.2-1.3.2-3.9.2-5.1-.1-1.3-.2-3.6-.2-4.7.1-1.1-.4-2.7-.3-4 .1-1.2.6-3.5-.1-3.7-.7-.2-2.2-.2-3.4-.2-1.2.1-2.6.1-2.6.1l-1.7.1.2-1.8v-1.6l.4-.4-.4-1.2zm74.3 34.8s-1-2.8-1.3-3.2c-.3-.4-.5-1.3-.7-2-.2-.7-1.3-3.2-1.7-3.7-.3-.5-.9-2.5-1.2-3.1-.3-.6-1.1-2.2-1.5-3.1-.4-.9-1.1-2.4-1.1-2.4s.9-.4 1.7-.6c.8-.2 1.6-.7 2.7-1.6 1.1-.9 1.8-2.2 2.5-3.8.7-1.6.4-4-.7-6.4-1.2-2.3-4.1-3.5-5.3-4-1.2-.5-3.5-.6-4.5-.7-1-.1-3.5.1-4.4 0-.8-.1-2.5.3-3.5.3s-2.2.7-2.2.7-.2 2.3-.2 3.3-.2 3-.3 3.8c-.1.8.2 3.3.4 4.7.3 1.3.1 3 0 3.9-.1.8-.3 2.8-.3 3.8s-.2 3.7 0 5.1c.3 1.3-.3 1.9-.3 3.3s.1 1.7-.1 3.1c-.1 1.5.1 2.4.1 2.4l.1 1.2s1.6.1 2.1.1c.5-.1 2.3.1 2.9-.2.6-.3 1-.1 1-.1s0-1.3-.1-1.5c-.1-.2 0-1.6-.1-2.4-.1-.8.2-3.1.3-4.5 0-1.4.1-3.4.1-4.7 0-1.3.1-4.8.1-4.8l1.6.1s1 1.6 1.3 2.3c.3.7 1.1 2 1.7 3.2.6 1.2 1.1 2.5 1.4 4 .3 1.5 1 2.8 1.5 3.8s1.2 2.9 1.2 2.9h.2l.2 1.6s.4.5.8.3c.5-.2 2.6.3 3.6.3.9 0 2.1-.4 2.1-.4l-.1-1zm-8.4-22.9c-1 .1-2.2.1-2.2.1l-1.8-.1h-3.3v-.3s-.2-4.4-.2-6c0 0 2.2-.1 3.3-.1 1.2.1 2.6 0 3.4.3.8.2 1.7 0 2.2 1 .5.9.7 2 .1 3.3-.5 1.3-.5 1.7-1.5 1.8zm35.8 22.9s-1-2.8-1.3-3.2c-.3-.4-.5-1.3-.7-2-.2-.7-1.3-3.2-1.7-3.7-.3-.5-.9-2.5-1.2-3.1-.3-.6-1.1-2.2-1.5-3.1-.4-.9-1.1-2.4-1.1-2.4s.9-.4 1.7-.6c.8-.2 1.6-.7 2.7-1.6 1.1-.9 1.8-2.2 2.5-3.8.7-1.6.4-4-.7-6.4-1.2-2.3-4.1-3.5-5.3-4-1.2-.5-3.5-.6-4.5-.7-1-.1-3.5.1-4.4 0-.8-.1-2.5.3-3.5.3s-2.2.7-2.2.7-.2 2.3-.2 3.3-.2 3-.3 3.8c-.1.8.2 3.3.4 4.7.3 1.3.1 3 0 3.9-.1.8-.3 2.8-.3 3.8s-.2 3.7 0 5.1c.3 1.3-.3 1.9-.3 3.3s.1 1.7-.1 3.1c-.1 1.5.1 2.4.1 2.4l.1 1.2s1.6.1 2.1.1c.5-.1 2.3.1 2.9-.2.6-.3 1-.1 1-.1s0-1.3-.1-1.5c-.1-.2 0-1.6-.1-2.4-.1-.8.2-3.1.3-4.5 0-1.4.1-3.4.1-4.7 0-1.3.1-4.8.1-4.8l1.6.1s1 1.6 1.3 2.3c.3.7 1.1 2 1.7 3.2.6 1.2 1.1 2.5 1.4 4 .3 1.5 1 2.8 1.5 3.8s1.2 2.9 1.2 2.9h.2l.2 1.6s.4.5.8.3c.5-.2 2.6.3 3.6.3.9 0 2.1-.4 2.1-.4l-.1-1zm-8.5-22.9c-1 .1-2.2.1-2.2.1l-1.8-.1h-3.3v-.3s-.2-4.4-.2-6c0 0 2.2-.1 3.3-.1 1.2.1 2.6 0 3.4.3.8.2 1.7 0 2.2 1 .5.9.7 2 .1 3.3-.5 1.3-.5 1.7-1.5 1.8zm193.2 22.9s-1-2.8-1.3-3.2c-.3-.4-.5-1.3-.7-2-.2-.7-1.3-3.2-1.7-3.7-.3-.5-.9-2.5-1.2-3.1-.3-.6-1.1-2.2-1.5-3.1-.4-.9-1.1-2.4-1.1-2.4s.9-.4 1.7-.6c.8-.2 1.6-.7 2.7-1.6 1.1-.9 1.8-2.2 2.5-3.8.7-1.6.4-4-.7-6.4-1.2-2.3-4.1-3.5-5.3-4-1.2-.5-3.5-.6-4.5-.7-1-.1-3.5.1-4.4 0-.8-.1-2.5.3-3.5.3s-2.2.7-2.2.7-.2 2.3-.2 3.3-.2 3-.3 3.8c-.1.8.2 3.3.4 4.7.3 1.3.1 3 0 3.9-.1.8-.3 2.8-.3 3.8s-.2 3.7 0 5.1c.3 1.3-.3 1.9-.3 3.3s.1 1.7-.1 3.1c-.1 1.5.1 2.4.1 2.4l.1 1.2s1.6.1 2.1.1c.5-.1 2.3.1 2.9-.2.6-.3 1-.1 1-.1s0-1.3-.1-1.5c-.1-.2 0-1.6-.1-2.4-.1-.8.2-3.1.3-4.5 0-1.4.1-3.4.1-4.7 0-1.3.1-4.8.1-4.8l1.6.1s1 1.6 1.3 2.3c.3.7 1.1 2 1.7 3.2.6 1.2 1.1 2.5 1.4 4 .3 1.5 1 2.8 1.5 3.8s1.2 2.9 1.2 2.9h.2l.2 1.6s.4.5.8.3c.5-.2 2.6.3 3.6.3.9 0 2.1-.4 2.1-.4l-.1-1zm-8.5-22.9c-1 .1-2.2.1-2.2.1l-1.8-.1h-3.3v-.3s-.2-4.4-.2-6c0 0 2.2-.1 3.3-.1 1.2.1 2.6 0 3.4.3.8.2 1.7 0 2.2 1 .5.9.7 2 .1 3.3-.5 1.3-.5 1.7-1.5 1.8zm-133.2.2l1.2-.2 1.1.1 1.2.3 1.2.2s.2-1.1.2-1.4c0-.3-.1-1.6-.2-2.1s-.1-.6-.1-.9c0-.3.1-2-.5-2.9-.5-1-.9-2.3-1.7-3s-1.8-1.2-2.5-1.5c-.7-.3-2-1.1-3.2-1-1.2.1-2.4.5-3.6.6-1.2.1-2.2.2-3.1.7-.8.5-1.3 1.3-1.7 1.6-.4.3-1 1-1.5 1.8-.5.7-1.8 3.1-1.7 4.2.1 1.1.4 2.8.5 3.6.1.8 0 2 .9 3.1s1.5 2.6 2.3 2.8c.8.3 1.5 1 2.4 1.5.9.5 2 1 2.9 1.2 1 .3 1.8.3 1.8.3l.1.3s.8.6 1.4 1.4c.6.7 1.3.8 1.8 1.9.5 1.1.9 2.3.7 3.2-.1.9-.3 1.4-.8 1.9-.5.6-.7.7-1.7.9-1 .2-1.8.4-2.8.2-1-.2-1.9-.6-2.3-1.3-.4-.7-1.4-1.6-1.4-2.7s.5-2.4.5-2.4v-1l-.9.1s-1-.1-1.4.3c-.4.4-.5.2-1 .4s-1.7 0-1.7 0l-.6.3h-.7s0 2.6.4 4.2 1.5 3.3 2.4 4.2c.9 1 1.9 2.1 2.9 2.6.9.5 3.1 1.5 5.4 1 2.4-.6 4.1-.4 5.3-1.3 1.2-.9 3.3-2.5 3.7-4.6.5-2.1.5-4 .1-5-.3-1-.5-2.7-1.6-4-1.1-1.3-1.5-2.6-3.2-3.5-1.7-.9-2.7-1.8-4.4-2.2-1.7-.4-4.1-1.5-4.6-2.3-.5-.8-1.4-2-1.3-3.1h.3s.2-.9.3-1.3c.1-.4-.1-1.1.3-1.7.4-.6.7-1.1 1-1.4.3-.4 1.2-1.2 1.8-1.2.5 0 1.1-.1 1.1-.1v.3s.9 0 1.4.2c.5.1 1.4.1 1.8.3.4.2.9.4 1 1.3.1.9.5 2.6.4 3.2.1.3.4 1.9.4 1.9zm49.5 2.7c-.1-.6 0-3.1 0-3.1l-.3-.1v-.6s-.3-2.5-.5-3.6c-.2-1.2-1.4-2.7-1.8-3.6-.5-.9-2.1-1.9-2.7-2.5-.6-.6-2.1-.8-2.9-1.2-.8-.5-2.9-.3-3.7-.4-.8-.1-1.9.2-2.7.1-.8-.1-2.3 0-2.4-.2-.1-.2-.1.6-.1.6l-1.4-.1s-1 .2-1.2-.1c-.2-.3-1 .3-1 .3s-.1.8 0 2c.1 1.1-.1 2.6-.1 3.5 0 .9-.2 3.1-.3 4.3-.1 1.3.1 1.9.2 3.3s.2 2.2.2 3c0 .8-.1 2.4-.2 3.3-.1.9 0 2.8-.1 3.8-.1 1.1 0 3.1 0 3.8s.2 2.5 0 3.3c-.2.9.2 1.5.2 2.3 0 .8.2 1.4 0 1.9-.2.6-.1 1.4-.1 1.4s1.2.2 1.9 0c.6-.2 1.4 0 1.8-.1.4-.1 1.4.2 2.1 0 .7-.1 2.1.1 2.8-.1.6-.2 1.2-.2 1.2-.2s.5.3.7.1c.2-.1 2.5-.4 3.2-.7.7-.4 2.1-1 2.7-1.3.5-.3.5-.6.5-.6l.3-.5.3-.4c.3-.4 1.2-1.2 1.8-2.1.5-.9.9-2.4 1-3.2.1-.8.4-2.9.5-3.8.1-.9.3-3.7.3-4.5-.4-.7-.2-3.3-.2-4zm-5.7.9c-.1 1-.1 3.9-.3 5-.2 1.1-.2 3.9-.5 5s-.8 3.2-1.7 3.6c-.9.5-1.7 1.2-3.7 1.1-2-.2-3.8-.2-3.8-.2v-4.8c.1-2.1.2-3.9.1-5.5-.1-1.5-.3-3.9-.2-5.5.1-1.6-.4-2.6-.2-3.9.2-1.2-.1-3.1.2-3.8.2-.7.3-1.6.3-1.6s.5 0 1.2.1c.6.1 1.5-.1 2.1-.1.6.1 1.9-.2 2.6.3.6.5 2.2.6 2.5 1.5.3.8 1.4 2.1 1.4 3.7v5.1zm56.7 19.4l-.9.3-.3-.5s-.6.5-.9.5h-1.8l-.9-.1s-.3-1.2-.3-1.9 0-1.5.1-2.3c.1-.8-.1-2.3-.1-2.3s-.3-2.4-.1-3.5c.3-1.1-.2-5.3.2-5.7.4-.5.6-1.9.3-2.2 0 0-.1-3.6.1-5.1.2-1.6.3-3.4.4-4.3.1-1 .2-1-.1-2.5-.3-1.6-.5-2.6-.5-2.6h.3l-.1-1.3-.1-.8s1.3.3 2.3.1c1-.2 2.4-.1 3.4 0 1.1.1 2.1 0 3.2.1s2.6.1 3.6.1c.9 0 2.8-.5 3.6-.4.8.1 2.6 0 2.6 0l.7.1s0 2.9.1 3.4c.1.4-.3.8-.3.8l-.9.3.5.5s-.9.1-1.9.3c-1 .3-2.7.5-3.8.3-1.1-.1-3.4-.2-4.3-.3-1-.1-3.5.1-3.5.1l.4.3s-.5.3-.6.7c-.1.4-.1 1-.1 1.4.1.4.2 1.9.2 2.1 0 .1-.3 1.3-.3 1.7s-.3 1.6-.2 2.2c.1.6.2 1.7.2 1.7l-.2.4h.7c.4 0 1.1.4 1.3.3.2-.1 1.3 0 1.5 0 .2 0 1.4-.3 1.4-.3l.5.1h.3v.8s-.2 1.1-.1 1.5c.1.4.2 1.4.2 1.7-.1.3-.3 1-.3 1l-.4.1s-.6.1-1.1.4c-.5.2-1.4.2-2 .1-.7-.1-1.3-.2-1.9-.2 0 0 0 2.5.2 3.8.1 1.3.2 3.9.2 4.8 0 .9-.3 3.1-.3 3.5 0 .4-.2.4-.2.4m72.8-.7s-.3-1.5-.6-2.1c-.3-.6-1.3-3.6-1.9-4.7-.6-1.1-1.3-4.1-1.7-5.4-.4-1.3-1.6-3.9-1.9-5.5-.4-1.6-1.5-4.3-1.9-5.7-.4-1.4-1.1-4-1.6-5.4-.4-1.4-.9-4.6-.9-4.6l-1.1-.3-1.5.4-1.4-.1h-1.3l-.8.3s-.4 1.5-.5 2.3c-.1.8-.4 1.5-.8 2.6-.3 1.1-.5 2.8-.8 3.5-.3.8-.6 2-.9 2.9-.3.9-.8 2.1-1.3 3-.5.9-.8 2.3-1.2 3.4-.4 1.1-.9 2.3-.9 2.3l.4.2s0 .8-.4 1.8-.6 1.8-.9 2.8c-.3 1.1-.2 1.4-.6 2.5-.4 1.1-.9 2.7-1 3.6 0 .9-.4 3.6-.4 3.6s.4.1.9.1c.6 0 1.5.2 1.5.2l.7-.2.6.2 1.8-.3.5-.6s.2-.9.3-.7c.1.2.3-.8.2-1.4-.1-.5.2-1.5.4-2.7.2-1.3 1.7-1 2.8-1.2 1.1-.1 4.2.1 5.4.1s2.9.7 2.9.7.4.8.6 1.4c.3.6.6 1.2.7 1.9.1.7.7 1.1.7 1.1l.3 1.5.5-.1c.5-.1 1.6 0 1.6 0s1.3.1 2 .1c.6-.1.8-.3.8-.3l-.3-.9 1-.3zm-12.3-10.7c-.7-.3-1.4 0-2.3 0-.9 0-2.7.1-2.7.1s.5-2.1.7-2.8.6-1.8 1.2-3.1.4-1.9.4-1.9.5-.5.6-1.4c.1-1 .4-1.8.4-1.8s1 2.5 1.3 3.1c.3.6.7 2.5 1.1 3.1.3.7.6 2.4.9 3.1.3.7.9 1.7.9 1.7s-1.8.1-2.5-.1zm17.6 12.4s1.1-.3 2 0 1.6.2 1.6.7c0 0 .3-.5.6-.5s1-.1 1-.1l-.3-.8.8-.1s0-1.6.1-2.5c0-.9-.2-2-.2-3s.6-3.1.3-4.3c-.3-1.2-.3-3.4-.4-4.4-.1-1 .2-3.7.1-4.6-.1-.9-.1-3.1-.1-3.1s.9 1.9 1.5 2.6c.6.7 1 2.1 1.4 2.6.4.5 1 1.8 1.4 2.6.4.8 1.7 2.3 2 3.4.3 1.1 1.1 2.9 1.5 3.9.4 1 1 2.4 1.5 3.4s1.1 2.3 1.1 2.3l.5 1.3.3.4 1.7-.2s-.2-1-.1-.8c.1.2 1.2 0 1.2 0h1l.4-.5h.9l-.3-1.2s-.6-1.4-.7-2c-.1-.6 0-3.1.1-4.2l.1-1.1.2-1.4-.5-.5s.4-1.5.3-2.4c-.1-.9 0-3.5.1-4.6.1-1.2.4-3.9.4-5.2.1-1.3.3-3.6.3-3.6l-.3-.4s0-1.4.3-2.4.5-2.7.5-2.7l-.1-1.6h-.9l-1.5-.1s-1.4-.2-1.8-.4c-.4-.1-1.3 0-1.3 0s-.1 3.5-.2 4.7c-.1 1.2-.4 3.1-.4 4.3 0 1.2-.1 3.9-.3 4.9-.2 1.1-.8 2.6-.6 3.3.1.7-.1 1.7-.1 1.7s-1.1-1.7-1.7-2.8c-.6-1.1-1.3-2.5-1.7-3.2-.5-.7-.8-1-1.2-2-.4-.9-1.8-3.2-1.9-4.1-.1-.9-1.3-3.2-1.3-3.2l-1-2.5c-.2-.5-.6-1.4-.6-1.4s-1.3-.6-1.9-.3c-.6.3-1.6.5-1.6.5l-1.1-.4-1.4.2s.3 2.9.2 4.2c-.1 1.3 0 3.3.1 4.5.1 1.2.1 4.9.1 6.4-.1 1.4-.1 4.1 0 5.6s.2 4 .1 5.3c-.1 1.3-.2 4.2-.1 5.7-.1 1.3-.1 4.1-.1 4.1zm42.4-21.7l2.2.1s0-.8.3-.6c.2.2.6.2 1.4.2.9 0 1.2-.6 1.2-.6l.4.2v-2.8c0-.8-.1-2.4-.1-3.5s-.6-2.4-.7-2.9c-.2-.5-.9-1.6-1.1-1.9-.2-.3-1.8-1.4-3-1.8-1.2-.5-3.9-.8-5.4-.8-1.5 0-3.6 0-4.9.8-1.3.8-2 1.7-2.5 2.2-.5.5-1.8 2-2.3 3-.5 1-.7 3.5-.7 3.5l.4.3s-.3 1.6-.2 2.3.3 1.7.3 1.7-.3 2.1-.1 2.7c.2.6.1 1.7.1 3.2-.1 1.5-.3 5.1-.2 6.4.1 1.3.3 4 .8 5.1.5 1.1 1.1 1.6 1.1 1.6l.4-.1s.5.9 1.4 1.6c.9.7 2.2 1.7 3.4 1.8 1.2.1 2.6.1 2.6.1s.7 0 1 .1 2-.1 2.9-.3c.9-.2 2.1 0 3.3-1.2s1.7-2 2-2.9c.3-1 .6-1.5.6-1.5s-.5-.3-1-.8-1.5-.9-1.5-.9l-.9-.1-.7-.6s-.5.5-1.1 1.2c-.6.7-1.7 1.2-2.8 1.4-1.1.2-2.4 0-3.8-.9s-1.6-2-1.6-3.3c0-1.3-.1-4.4 0-6.3.1-1.9 0-4.9 0-6.6 0-1.6-.8-5.1.1-6 .9-.9 1.9-2.3 4.4-2.1 2.6.1 4.3.2 4.5 1.8.2 1.6.4 3.3.3 4-.1.7-.2 1.3-.2 1.8-.3.5-.3 1.4-.3 1.4zM522 211.8c0-3.4.2-6.9.5-10.4 0 .6-.2 2-.4 4-.2 2.1-.5 4.3-.8 6.8-.3 2.5-.4 4.7-.4 6.7s.2 3.3.6 3.8c.2-3.9.4-7.5.5-10.9zm81.8 45.3c.3.6 1 1.9 2.1 3.7 1.1 1.9 2.2 3.3 3.3 4.3l-3.8-7.4c-.5-.7-1-1-1.6-.6zM591 228.9c.8 2.2 1.7 4.4 2.6 6.6 2.7 6.2 5.6 12.4 8.8 18.4l.8-.4c-1.7-4-3.7-8.2-6.1-12.8-2.1-4.3-4.2-8.2-6.1-11.8zm-291.1 73.6s1.3 0 3.1-.2 1.9 0 3.1-.2c1.2-.1.7-.6 2.5-.3s1.8.5 2.8.5 1-.5 2.3-.5c1.3 0 1.5-.3 2.8-.2 1.3.2 3-.2 3.5 0s2.7.2 2.7.2l-.3 1.2 2.1-1.4s1.4-.4 2.7-.3c1.3.2 1.7.1 2.8 0 1.1-.1 1.7-.7 2.7-.3s2.3.5 3.5.3c1.2-.2 2.2-.5 2.8-.2.7.3 1 .7 1.8.2.8-.5 2.2-.3 2.2-.3l.8.7 1.5-.7s2.3-.5 2.3 0-1 2-.5 2.5.7 1 .5 1.5c-.2.5 0 1.9 0 1.9l-.5.8s0 .3-1.8.3-3.5.3-3.5.3 1.5.5-1 .2-3-.3-3.7-.2c-.7.2-2.3.2-2.3.2l-.3-1-.8.5-1.5.7-1.7.2s-2.2-.3-3.7-.2c-1.5.2-2.8-.7-4.5 0-1.7.7-2 .8-3.3.5-1.3-.3-2.5 0-3-.2s-3.2-.8-5.2 0-3.3.8-4.2.8c-.8 0-2-.2-2.5-.2s-2.8.2-2.8.2l-1.4-.6s.5-.2.4-1.7c0-1.5-.4-5-.4-5z"/></g><g id="logotype_NE_version" class="st1"><text transform="translate(25 24)" class="st2"><tspan x="0" y="0" class="st3 st4 st5">LOGOTYPE NATURE DLEVEURS - LDC</tspan><tspan x="0" y="15" class="st3 st4 st5">VERSION MONOCHROME NOIR - FOND BLANC - 00/00/00/100</tspan></text></g></svg>