<svg xmlns="http://www.w3.org/2000/svg" xmlns:xlink="http://www.w3.org/1999/xlink" viewBox="0 0 1067.3 930.9"><defs><path id="a" d="M0 0h1067.3v930.9H0z"/></defs><clipPath id="b"><use xlink:href="#a" overflow="visible"/></clipPath><path clip-path="url(#b)" fill="#E8AE4A" d="M139.3 74.4s-11.5 48.5 20 77.5c-5.5 4-119.5 31.5-149.5 5-11-9.5-18.5-30 10.5-28s107-29.5 119-54.5"/><path clip-path="url(#b)" fill="#282726" d="M15.7 130.8h-.3c-1.3 0-2.6.7-3.7 1.9s-1.8 2.8-2.1 4.5c-.1.9-.2 1.7-.1 2.6.1.9.3 1.8.6 2.7.6 1.7 1.5 3.4 2.7 5 1.2 1.5 2.7 2.9 4.3 4.2l1.2.9c.4.3.8.6 1.3.9.4.3.8.5 1.3.8l1.5.8.4.2s.2.1.3.1l.7.3c.5.2.9.4 1.4.6 1 .3 1.9.7 2.9 1l1.5.4c.5.1 1 .2 1.6.3l1.6.3 1.6.2c8.5 1.3 17.5 1.2 26.3.8 8.9-.4 17.7-1.3 26.6-2.5 17.7-2.3 35.3-5.5 52.8-9.3 4.4-.9 8.7-1.9 13.1-3l6.5-1.6c1.1-.3 2.3-.5 3.4-.8 1.1-.3 2.3-.5 3.4-.7 2.3-.4 4.6-.7 6.9-.9 2.3-.2 4.6-.4 7-.4 4.6-.1 9.3.1 13.9.8 2.3.2 4.6.7 6.9 1.1 2.3.5 4.5 1 6.8 1.7 4.5 1.2 8.9 2.9 13.1 4.8l3.2 1.5c1 .5 2.1 1.1 3.1 1.7 2.1 1.1 4 2.4 6 3.6 1 .7 1.9 1.4 2.9 2l1.4 1c.5.3.9.7 1.4 1.1l2.7 2.2c.9.8 1.7 1.6 2.6 2.4 6.8 6.4 12.5 14 16.9 22.2 4.4 8.2 7.5 17 9.6 26 1 4.5 1.8 9.1 2.4 13.6.3 2.3.5 4.6.7 6.9l.3 3.5c.1 1.1.1 2.2.1 3.4l.1 3.4v1.8l-.1 1.7c-.1 2.3-.1 4.6-.3 6.9l-.7 6.9c-.3 2.3-.8 4.6-1.2 6.9-1.8 9.1-4.8 18-8.6 26.4-3.8 8.4-8.4 16.4-13.4 24-5 7.6-10.3 15-15.6 22.2-5.3 7.3-10.6 14.5-15.7 21.8-5.1 7.3-9.9 14.8-14.2 22.4-2.2 3.8-4.2 7.7-6.3 11.6-1.9 4-3.8 7.9-5.4 12l-1.3 3c-.4 1-.8 2.1-1.2 3.1l-2.2 6.2c-1.3 4.2-2.7 8.3-3.7 12.6-2.3 8.5-3.7 17.1-4.9 25.8l-.6 6.6-.3 3.3c-.1 1.1-.1 2.2-.2 3.3-.2 4.4-.5 8.6-.4 13.2v8.2l.1 1.6.2 3.3c.1 2.2.3 4.3.5 6.5s.4 4.3.8 6.5c1.1 8.6 3.1 17.1 5.7 25.4 2.6 8.3 5.8 16.4 9.7 24.2 7.7 15.6 17.6 30.2 29 43.5 5.7 6.7 11.7 13.1 18.1 19.2 6.3 6.1 12.9 12 19.7 17.6 6.8 5.6 13.9 11 21 16.1 7.2 5.1 14.6 10.1 22 14.9 29.9 19 61.8 35.2 94.4 49.6 16.3 7.2 32.8 14 49.5 20.7l25 10c4.2 1.7 8.4 3.4 12.6 5.3 2.1.9 4.3 1.9 6.5 3 1.1.6 2.2 1.1 3.4 1.9l.9.5c.1.1.4.3.6.4l.6.4 1.2.9c.2.2.3.2.4.3l.3.3.3.3s1 1 .7.6c.1.1.2.2.3.2.2.2.3.4.6.5.2.1.5.3.7.5.3.2.6.3.9.4l.4.2c.2.1.4.1.5.2l1.1.4 1.2.3c.4.1.8.2 1.3.3 3.5.6 7.6.8 11.8.7 8.4-.2 17.3-1.3 26.1-2.2 17.8-2 36-4 54.3-4.5 9.2-.3 18.4-.2 27.6.4 2.3.1 4.6.3 6.9.5l6.9.6c4.8.5 9.1 1.2 13.6 1.7 17.4 2.4 34.9 3.5 52.5 3.2 17.5-.2 35-2 52.2-5 17.2-3.2 34.1-7.7 50.5-13.8 32.9-12 63.6-29.5 91.3-51 3.5-2.7 6.9-5.5 10.3-8.2 3.3-2.8 6.7-5.7 10-8.6 6.5-5.9 12.9-11.9 19.1-18.2 12.3-12.6 23.8-26 34.4-40.1 10.6-14.1 20.3-29 28.7-44.5 4.2-7.8 8-15.7 11.2-23.8 1.6-4.1 3-8.2 4.1-12.3.3-1 .5-2.1.8-3.1.2-1 .4-2 .6-3.1.3-2 .5-4 .3-5.8v-.7c0-1.9 1.6-3.4 3.5-3.3 6.8-.6 13.2-3.4 18.7-7.3 2.7-2 5.3-4.3 7.3-6.7 1-1.2 1.9-2.5 2.7-3.8.4-.6.6-1.2.8-1.7.2-.5.3-1 .2-1.1 0 0-.1 0-.1.3s.1.8.4 1.3c.3.6.8 1.1 1.2 1.3.2.1.3.2.5.3.1.1.2.1.2.1.1.1-.3.1-.7.2l-2.2.5c-4.3 1-8.2 1.5-12.1 1.9-7.8.8-15.5 1.1-23.3 1.3-15.4.2-30.8-.5-46.3-2.4-7.7-1-15.4-2.1-23.1-3.8-7.7-1.7-15.4-3.8-23.1-6.7-1.9-.7-3.8-1.6-5.8-2.4l-2.9-1.4-1.4-.7-1.4-.8c-1-.5-1.9-1.1-2.9-1.7-1-.7-2-1.4-3.1-2.1-1.1-.8-1.7-1.3-2.5-1.9l-1.1-.9-.5-.4-.6-.4-8.8-6.9-4.4-3.4-4.5-3.3-9-6.6c-3-2.2-6.1-4.3-9.1-6.4-3.1-2.1-6.1-4.3-9.2-6.3l-9.3-6.2c-24.9-16.4-51-31-77.7-44.1-3.3-1.7-6.7-3.2-10.1-4.8-3.4-1.6-6.7-3.2-10.1-4.7-6.8-3-13.6-6.1-20.5-8.8-13.7-5.8-27.8-10.9-41.8-15.7-7.1-2.3-14.1-4.7-21.3-6.8-7.1-2.2-14.3-4.1-21.5-6.1-14.4-3.7-28.9-6.9-43.6-9.5-14.6-2.5-29.4-4.5-44.1-5.7-14.8-1.2-29.6-1.5-44.3-.8l-5.5.3-5.5.5-5.5.5c-1.8.2-3.6.5-5.5.7l-5.5.7c-1.8.2-3.6.6-5.4.9l-5.4 1c-1.8.3-3.5.8-5.2 1.2l-5.2 1.2-5.4 1.5-5.3 1.5c-1.9.6-3.7 1.2-5.6 1.7-7.5 2.1-15.2 4-23.4 4.9-4.1.4-8.3.6-12.6.3-4.3-.3-8.8-1.2-13.2-3.1-4.4-1.8-8.5-5-11.6-8.8-3-3.9-4.9-8.2-6.2-12.4-1.2-4.2-1.8-8.4-2.1-12.5-.3-4.1-.3-8.1-.2-12 .3-7.9 1.2-15.6 2.2-23.2 2.1-15.2 4.9-30 7.4-44.9 2.5-14.8 4.7-29.6 6.1-44.5.3-3.7.6-7.3.8-11.1.1-1.8.1-3.6.2-5.4 0-1.8.2-3.6 0-5.5l-.2-5.5v-1.4l-.1-1.4-.3-2.7-.3-2.7-.3-2.7-.8-5.4c-.2-1.8-.7-3.6-1-5.4l-.6-2.7-.3-1.3-.4-1.3-1.4-5.3-.4-1.3-.4-1.3-.9-2.6c-1.1-3.5-2.5-6.9-3.8-10.3-.7-1.7-1.5-3.4-2.2-5-.7-1.7-1.5-3.4-2.3-5l-2.5-4.9-2.7-4.8-1.4-2.4-1.5-2.3c-1-1.6-1.9-3.1-2.9-4.7-4.1-6.1-8.4-12.1-13.1-17.8-9.4-11.4-20-21.9-31.5-31.2-5.8-4.7-11.7-9.1-17.9-13.2-6.2-4.1-12.6-7.9-19.1-11.3-6.6-3.4-13.3-6.4-20.2-8.7l-2.7-.9-.7-.2-.3-.1c-.1 0-.1 0-.2-.1l-1.3-.3-2.6-.7c-.9-.2-1.8-.3-2.6-.5-.9-.2-1.8-.3-2.6-.5l-2.7-.3c-1.8-.3-3.6-.2-5.3-.3-7.2-.2-14.4 1-21.4 2.9-7 1.9-13.8 4.7-20.3 8.1-13.1 6.8-25 15.8-36.1 25.7-11.1 10-21.3 21-30.7 32.6-1.2 1.4-2.3 2.9-3.5 4.4l-.4.6-.2.3-.2.3-1 1.1-1.9 2.3-2.1 2.1-2.1 2.1c-1.5 1.3-2.9 2.7-4.4 3.9-6.1 4.9-12.7 9-19.6 12.6-6.8 3.6-13.9 6.5-21.1 9.2-7.2 2.6-14.5 4.9-21.9 6.8-7.4 2-14.8 3.7-22.3 5.1-7.6.9-15.1 2.1-22.7 3zm-.6-5.8c7.3-.9 14.8-2.1 22.1-3.5 7.3-1.4 14.6-3.1 21.9-5.1 7.2-2 14.4-4.2 21.3-6.7 7-2.6 13.8-5.5 20.4-8.9 6.5-3.4 12.8-7.4 18.4-12 1.5-1.1 2.7-2.4 4.1-3.6.7-.6 1.3-1.3 1.9-1.9l1.9-1.9 1.7-2.1.9-1 .2-.3.2-.3.4-.6c1.2-1.5 2.3-3 3.5-4.5 9.5-11.9 19.9-23.2 31.2-33.5s23.6-19.7 37.3-27c6.8-3.6 14.1-6.7 21.6-8.8 7.5-2.1 15.4-3.5 23.4-3.4 2 .1 4 0 6 .3l3 .3c1 .1 2 .3 2.9.5 1 .2 2 .3 2.9.5l2.9.7 1.5.4s.3.1.4.1l.3.1.7.2 2.7.8c7.5 2.4 14.6 5.5 21.4 9 13.8 6.9 26.7 15.4 38.7 24.9 12.1 9.5 23.2 20.2 33.2 32 5 5.9 9.6 12.1 14 18.4 1.1 1.6 2.1 3.3 3.1 4.9l1.6 2.4 1.5 2.5c1 1.7 2 3.3 2.9 5l2.7 5.2c.9 1.7 1.7 3.5 2.5 5.2.8 1.8 1.7 3.5 2.4 5.3 1.5 3.6 3 7.2 4.2 10.9l1 2.8.5 1.4.4 1.4 1.6 5.6.4 1.4.3 1.4.7 2.9c.4 1.9.9 3.8 1.2 5.7l1 5.8c.2 1 .3 1.9.4 2.9l.3 2.9.3 2.9.2 1.5.1 1.5.3 5.9c.2 2 0 3.9.1 5.9 0 2 0 3.9-.1 5.9-.2 3.7-.4 7.7-.7 11.5-1.1 15.3-3.2 30.4-5.4 45.4s-4.8 29.9-6.6 44.6c-.9 7.4-1.6 14.7-1.7 21.9-.1 7.2.3 14.3 2.1 20.4.9 3 2.3 5.6 3.9 7.7 1.7 2 3.8 3.6 6.4 4.6 5.2 2.1 12 2.3 18.8 1.4 6.9-.8 13.9-2.6 20.8-4.7 1.7-.5 3.5-1.1 5.2-1.7l5.6-1.7c1.8-.5 3.6-1.1 5.4-1.6l5.8-1.4c1.9-.5 3.9-1 5.8-1.4l5.7-1.1c1.9-.4 3.8-.8 5.7-1.1l5.8-.8c1.9-.3 3.8-.6 5.8-.8l5.8-.6 5.8-.6 5.8-.3c15.4-.9 30.9-.8 46.3.2 15.4 1 30.6 2.8 45.8 5.2 15.2 2.4 30.1 5.7 45 9.3 7.4 1.9 14.8 3.8 22.2 6 7.4 2 14.7 4.4 22 6.7 14.5 4.9 29 10 43.1 15.8 7.1 2.8 14.1 5.9 21.2 8.9 3.5 1.5 7 3.2 10.4 4.7 3.5 1.6 7 3.2 10.4 4.9l10.3 5c3.4 1.7 6.8 3.5 10.2 5.2l5.1 2.6 5.1 2.7 10 5.5c3.4 1.8 6.7 3.8 10 5.7l9.9 5.8 9.8 6 4.9 3c1.6 1 3.2 2.1 4.8 3.1l9.6 6.3c3.2 2.1 6.3 4.3 9.5 6.5 3.1 2.2 6.3 4.3 9.4 6.6l9.3 6.8c1.5 1.1 3.1 2.2 4.6 3.4l4.5 3.5 9.1 7 .6.4.6.5 1.1.9c.7.6 1.5 1.3 2 1.5.5.4 1.1.7 1.6 1.1l2 1.2 1 .6 1.1.5 2.2 1.1c1.6.7 3.1 1.4 4.7 2 6.4 2.5 13.3 4.5 20.3 6.2 7 1.6 14.2 3 21.5 4.1 7.3 1.1 14.6 2 21.9 2.7 7.4.7 14.7 1.2 22.1 1.6 3.7.2 7.4.3 11.1.4 3.7.1 7.4.1 11 0 1.8 0 3.6-.1 5.4-.2.9-.1 1.8-.1 2.6-.2l1.3-.1 1.1-.2.6-.1.8-.1.9-.1c.4-.1.7-.1 1.1-.1 1.4-.1 2.9-.2 4.9.3.5.1 1.1.3 1.6.5.6.2 1.1.5 1.8.9 1.2.7 2.4 1.9 3.2 3.2.8 1.4 1.2 2.8 1.3 4 .1 1.2 0 2.2-.2 3.1-.3 1.8-.9 3.1-1.5 4.3-.6 1.2-1.3 2.2-1.9 3.2-1.4 1.9-2.9 3.5-4.5 5-3.1 3-6.6 5.4-10.3 7.4-7.3 4-15.7 6.3-24.1 5.6l3.5-4c.8 5.4.1 10.1-.7 14.8-.9 4.6-2.1 9.1-3.5 13.5-2.8 8.8-6.3 17.3-10.2 25.6-7.8 16.6-17.1 32.3-27.4 47.4-10.4 15-21.8 29.3-34.2 42.8-12.5 13.4-25.8 26-40.1 37.5-28.6 23-60.9 41.7-95.5 54.4-17.3 6.4-35.2 11.1-53.3 14.5-18.2 3.2-36.6 5-55 5.2-18.4.2-36.8-1.1-55-3.6-4.4-.6-9-1.3-13.1-1.7-2.1-.3-4.3-.4-6.5-.6-2.2-.2-4.3-.4-6.5-.5-8.7-.5-17.5-.7-26.2-.5-8.8.2-17.6.7-26.4 1.4-8.8.7-17.7 1.7-26.6 2.6-9 .9-18 1.9-27.5 2.1-4.8.1-9.7 0-15-1-.6-.1-1.4-.3-2-.5-.7-.2-1.3-.3-2-.5l-2.1-.7c-.4-.1-.7-.2-1-.4l-1.1-.5c-.7-.4-1.4-.7-2.1-1.1-.7-.5-1.4-.9-2.1-1.4-.7-.4-1.3-1.1-2-1.7l-.9-.9c-.6-.6.2.2 0 .1l-.3-.3-.3-.3c-.1-.1-.3-.2-.3-.2-.1 0-.1 0-.2-.1h-.1l-.1-.1-.6-.3c-.7-.4-1.6-.9-2.5-1.4-1.8-.9-3.7-1.8-5.7-2.7-3.9-1.8-8-3.5-12.1-5.2L443 756.1c-16.6-6.8-33.3-13.9-49.7-21.4-32.9-15-65.1-31.8-95.6-51.7-7.6-5-15.1-10.2-22.4-15.6-7.3-5.4-14.5-11.1-21.5-16.9-7-5.9-13.7-12.1-20.2-18.5s-12.7-13.2-18.6-20.3c-11.8-14.1-22-29.6-30-46.3-4-8.3-7.3-17-9.9-25.9-2.6-8.9-4.7-18-5.8-27.2-.4-2.3-.5-4.6-.7-6.9-.2-2.3-.4-4.6-.5-6.9l-.1-3.5-.1-1.7v-1.8l.1-6.7c-.1-4.4.3-9.1.5-13.7.1-1.2.1-2.3.2-3.5l.4-3.4.7-6.8c1.3-9.1 2.9-18.2 5.5-27 1.1-4.5 2.7-8.8 4-13.2l2.4-6.5c.8-2.2 1.7-4.3 2.6-6.4 1.7-4.3 3.8-8.3 5.8-12.5 2.2-4 4.3-8.1 6.6-12 4.6-7.9 9.6-15.5 14.9-22.9 5.2-7.4 10.7-14.6 16-21.8 5.4-7.2 10.7-14.3 15.6-21.7 4.9-7.4 9.4-14.9 13.1-22.8 3.7-7.9 6.6-16.1 8.3-24.6.4-2.1.8-4.3 1.1-6.4l.7-6.5c.1-2.2.2-4.3.3-6.5l.1-1.6v-1.6l-.1-3.4c0-1.1 0-2.3-.1-3.4l-.2-3.2c-.2-2.2-.3-4.3-.6-6.5-.5-4.4-1.2-8.7-2.2-12.9-1.9-8.5-4.8-16.8-8.8-24.4-4-7.6-9.1-14.7-15.4-20.6-12.4-12-29-19.4-46.1-21.7-4.3-.6-8.6-.8-13-.8-4.3 0-8.7.4-12.9 1.2-1.1.2-2.1.3-3.2.6-1.1.2-2.1.4-3.2.7l-6.6 1.6-13.2 3c-17.6 3.8-35.4 7-53.3 9.2-9 1.1-18 2-27 2.5-9.1.4-18.2.5-27.5-.9l-1.7-.3-1.7-.4c-.6-.1-1.2-.2-1.7-.4l-1.7-.5c-1.2-.3-2.3-.7-3.5-1.1-.6-.2-1.1-.5-1.7-.8l-.9-.4c-.2-.1-.2-.1-.5-.2l-.4-.2-1.5-.8c-.5-.3-1-.6-1.6-1-.5-.3-1-.7-1.5-1-.5-.4-1-.7-1.5-1.1-1.9-1.5-3.7-3.2-5.3-5.2-1.6-2-2.9-4.3-3.7-6.8-.4-1.3-.7-2.6-.8-3.9-.1-1.3-.1-2.7.1-4.1.4-2.7 1.6-5.4 3.5-7.5 1-1.1 2.1-2 3.5-2.7 1.3-.6 2.7-1 4.3-1z"/><path clip-path="url(#b)" fill="#282726" d="M196.3 48.9s-1.1 2-1.9 5.3c-.2.8-.3 1.7-.4 2.7-.1 1-.1 2-.1 3.1.1 1.1.2 2.2.5 3.4.3 1.2.8 2.4 1.5 3.5s1.8 2.2 3 2.9c1.3.7 2.6 1 3.8 1 .6 0 1.2-.1 1.8-.1.6-.1 1.1-.2 1.6-.3 1-.3 1.9-.6 2.6-1.1.4-.2.8-.4 1.1-.6l.9-.6c.3-.2.5-.4.8-.6.2-.2.4-.4.6-.5.7-.6 1.1-1.1 1.1-1.1s-.6.1-1.5.2c-.5.1-1 .2-1.7.3-.6.1-1.4.2-2.1.3-.8.1-1.6.2-2.4.2h-1.2c-.4-.1-.8-.1-1.2-.2-.4-.1-.8-.1-1.1-.3-.4-.1-.6-.3-1-.5-.6-.4-1.1-.9-1.5-1.5-.5-.6-.8-1.5-1.1-2.3-.3-.8-.5-1.8-.8-2.7-.2-.9-.4-1.8-.5-2.7-.1-.9-.2-1.7-.3-2.5-.3-3.1-.5-5.3-.5-5.3m-52.2 12.6s-.1.4-.4 1c-.2.7-.5 1.6-.9 2.9-.4 1.2-.8 2.7-1.3 4.5-.5 1.7-.9 3.7-1.4 5.8-.4 2.1-.9 4.5-1.2 6.9-.4 2.5-.6 5.1-.8 7.8-.1 2.7-.3 5.6-.1 8.4 0 1.4.2 2.9.3 4.3.2 1.4.3 2.9.6 4.4.3 1.4.5 2.9.9 4.3l.6 2.1c.2.7.4 1.4.7 2.1.4 1.4 1 2.7 1.5 4.1.5 1.3 1.2 2.6 1.8 3.8.7 1.2 1.3 2.4 2 3.6.7 1.1 1.5 2.2 2.2 3.3.8 1 1.6 2 2.3 2.9.8.9 1.6 1.7 2.3 2.6.7.9 1.5 1.5 2.3 2.3.4.4.7.7 1.1 1 .3.3.7.7 1.1.9.7.6 1.4 1.1 2 1.6.6.5 1.2 1 1.7 1.3 2.1 1.5 3.3 2.4 3.3 2.4 1.6 1.1 3.8.8 4.9-.8 1.1-1.6.8-3.8-.8-4.9-.2-.1-.3-.2-.5-.3l-.2-.1s-.3-.2-.9-.4l-2.4-1.2c-1.1-.5-2.2-1.4-3.6-2.2-.7-.4-1.4-1-2.1-1.5-.7-.6-1.5-1.1-2.2-1.8-.7-.7-1.5-1.4-2.3-2.2-.7-.8-1.5-1.6-2.2-2.5-.7-.9-1.4-1.9-2.1-2.9-.6-1-1.3-2.1-2-3.2-.6-1.1-1.2-2.3-1.7-3.5-.5-1.2-1-2.4-1.4-3.7-.2-.6-.4-1.3-.6-1.9-.2-.6-.3-1.3-.5-2-.4-1.3-.6-2.7-.8-4-.2-1.3-.4-2.7-.5-4.1-.1-1.4-.2-2.7-.2-4.1v-2c0-.7.1-1.3.1-2 0-1.3.2-2.6.3-3.9.3-2.6.7-5 1.1-7.3.5-2.3 1-4.5 1.6-6.5 1.2-4 2.4-7.2 3.3-9.4.5-1.1.9-1.9 1.2-2.5.3-.5.4-.8.4-.8V64c.9-1.7.2-3.8-1.5-4.7-1.7-.9-3.8-.2-4.7 1.5-.2.4-.3.5-.3.7m180.6 392.3c8.2-.5 16.5-.5 24.8-.3s16.6.6 24.9 1.2c8.3.6 16.5 1.5 24.8 2.4 4.1.5 8.2 1.1 12.3 1.7 4.1.6 8.2 1.3 12.3 2 4.1.7 8.1 1.5 12.2 2.3 4.1.8 8.1 1.7 12.2 2.6l3 .7 3 .7 6 1.5c2 .5 4 .9 6 1.5l6 1.7 6 1.6c2 .6 4 1.2 5.9 1.8l5.9 1.8 3 .9 2.9 1 11.7 4.1 11.5 4.5 2.9 1.1 2.8 1.2 5.7 2.4 5.7 2.4c1.9.9 3.7 1.8 5.6 2.6l5.6 2.6c1.9.9 3.7 1.7 5.5 2.7l10.9 5.7c1.8.9 3.6 2 5.4 3l5.3 3.1 5.3 3.1c1.8 1 3.5 2.2 5.2 3.3l10.4 6.7 10.1 7.1 2.5 1.8c.8.6 1.7 1.2 2.5 1.8l4.9 3.8 4.9 3.8c1.6 1.3 3.3 2.5 4.8 3.9 6.2 5.4 12.6 10.6 18.4 16.4l4.5 4.2c1.5 1.4 3 2.8 4.4 4.3l8.5 8.9 2.1 2.2c.7.7 1.4 1.5 2.1 2.3l4 4.7 8 9.4.2.2c.1.1.2.3.4.4 3.6 3.6 6.5 8.8 8.6 14.3 1.1 2.7 2 5.6 2.7 8.5.7 2.9 1.3 5.9 1.6 8.9.2 1.5.3 3 .5 4.5.1 1.5.2 3 .2 4.6.1 3.1 0 6.1-.3 9.1-.5 6.1-1.6 12.1-3.5 17.9-1.8 5.8-4.3 11.3-7.4 16.4-3.1 5.1-6.9 9.7-11.2 13.9-4.3 4.1-9.2 7.6-14.5 10.5-5.3 2.9-11 5.2-16.9 6.9-5.9 1.8-12 3-18.3 3.7-1.6.2-3.1.4-4.7.5l-4.7.3c-3.2.1-6.3.2-9.5.2s-6.4-.2-9.6-.3c-1.6-.1-3.2-.2-4.8-.4l-2.4-.2-2.4-.3-4.8-.5-4.8-.7c-3.2-.4-6.4-1-9.6-1.5-3.2-.6-6.4-1.2-9.6-1.9-3.2-.7-6.4-1.4-9.5-2.2-6.3-1.6-12.7-3.2-19-5.1-6.3-1.9-12.6-3.8-18.8-5.9l-9.4-3.2-9.3-3.3h-.1c-1.8-.6-3.8.3-4.5 2.1-.6 1.7.2 3.6 1.8 4.3l9.1 4.2c3 1.4 6.1 2.7 9.2 4 6.2 2.6 12.4 5.1 18.7 7.4 6.3 2.3 12.7 4.5 19.2 6.4 3.2 1 6.5 1.8 9.8 2.8 3.3.8 6.6 1.7 9.9 2.4 3.3.7 6.6 1.5 10 2.1l5 .9 5.1.8 2.5.4 2.6.3 5.1.6c3.4.3 6.9.6 10.3.7 6.9.3 13.9.1 20.8-.6 7-.7 13.9-1.9 20.8-3.8s13.6-4.5 20-7.9c6.4-3.4 12.4-7.6 17.8-12.7 5.3-5 10.1-10.7 13.9-17 3.8-6.3 6.8-12.9 8.9-19.9 2.2-6.9 3.5-14 4.1-21.2.3-3.6.4-7.2.3-10.8 0-1.8-.2-3.6-.3-5.4-.2-1.8-.3-3.6-.6-5.4-.4-3.6-1.1-7.1-2-10.6-.9-3.5-1.9-7-3.3-10.4-2.7-6.8-6.3-13.6-12.1-19.4l.5.6-8.4-9.7-4.2-4.8c-.7-.8-1.4-1.6-2.2-2.4l-2.2-2.3-8.9-9.2c-1.4-1.6-3.1-3-4.6-4.4l-4.7-4.4c-6.1-6-12.8-11.3-19.3-16.9-1.6-1.4-3.3-2.7-5-4l-5.1-3.9-5.1-3.9c-.8-.7-1.7-1.3-2.6-1.9l-2.6-1.8-10.5-7.3c-3.6-2.3-7.2-4.5-10.9-6.8-1.8-1.1-3.6-2.3-5.5-3.3l-5.6-3.1-5.6-3.1c-1.9-1-3.7-2.1-5.6-3l-11.4-5.8c-1.9-1-3.8-1.8-5.8-2.7l-5.8-2.6c-1.9-.9-3.9-1.8-5.8-2.6l-5.9-2.4-5.9-2.4-3-1.2-3-1.1-12-4.3-12.1-3.9-3-1-3.1-.9-6.1-1.8c-2-.6-4.1-1.2-6.1-1.7L475 460l-6.2-1.6c-2.1-.5-4.1-.9-6.2-1.4l-6.2-1.4-3.1-.7-3.1-.6c-4.2-.8-8.3-1.6-12.5-2.3-4.2-.7-8.4-1.4-12.5-2-4.2-.5-8.4-1.2-12.6-1.7-4.2-.4-8.4-1-12.6-1.3-4.2-.3-8.4-.8-12.6-1l-6.3-.4-6.3-.3c-8.4-.4-16.9-.5-25.4-.3s-16.9.5-25.4 1.3c-1.9.2-3.3 1.9-3.1 3.8.2 2.5 1.8 3.9 3.8 3.7zm170.7 317.5c-2.6 4.7-5.1 9.3-7.6 14-2.5 4.7-5 9.4-7.4 14.1l-7.3 14.2c-2.4 4.7-4.8 9.5-7.2 14.3l-3.6 7.1c-1.2 2.4-2.3 4.8-3.5 7.2l-7 14.3-6.9 14.4-6.8 14.4 2-1.8-30.4 11.2-15.2 5.7-7.6 2.9-7.6 2.9-7.6 2.9c-2.5 1-5 1.9-7.5 3l-15.1 6-7.5 3.1c-2.5 1-5 2-7.5 3.1-5 2.1-10 4.2-14.9 6.4 5.2-1.5 10.4-3 15.6-4.6l7.8-2.4 7.7-2.4 15.4-5c2.6-.8 5.1-1.7 7.7-2.5l7.7-2.6 7.7-2.6 7.7-2.6 15.3-5.3 30.6-10.8c.9-.3 1.6-1 2-1.8l6.7-14.5c2.2-4.8 4.5-9.6 6.7-14.5l6.5-14.5c1.1-2.4 2.2-4.8 3.3-7.3l3.2-7.3c2.1-4.9 4.3-9.7 6.4-14.6l6.2-14.7c2-4.9 4.1-9.8 6.1-14.8 2-4.6 3.9-9.6 5.9-14.6"/><path clip-path="url(#b)" fill="#282726" d="M479.3 899.9c-3.1-1.4-6.1-2.7-9.2-4l-9.3-3.9c-1.6-.6-3.1-1.3-4.7-1.9l-4.7-1.9c-3.1-1.2-6.2-2.5-9.4-3.7-.3-.1-.6-.2-1-.1h-.2c-6.1.6-12.2 1-18.3 1.7-6.1.6-12.2 1.2-18.3 1.9l-9.1 1.1-9.1 1.1c-6.1.8-12.2 1.5-18.2 2.4l-9.1 1.3-9.1 1.3c-3 .4-6.1 1-9.1 1.4l-9.1 1.4-9.1 1.6c-3 .5-6 1.1-9.1 1.6-3 .6-6 1.1-9 1.7-3 .6-6 1.2-9 1.9 3.1-.1 6.2-.2 9.2-.3 3.1-.1 6.1-.3 9.2-.5 3.1-.2 6.1-.4 9.2-.6l9.2-.7 9.2-.8c3.1-.3 6.1-.5 9.2-.8l9.2-.9 9.1-1 18.3-2.1 9.1-1.1 9.1-1.2c6.1-.8 12.1-1.7 18.2-2.6 6.1-.9 12.1-1.9 18.2-2.8l-1.1-.1c3.2 1 6.4 1.9 9.6 2.8l4.8 1.4c1.6.5 3.2.9 4.8 1.3 3.2.9 6.5 1.8 9.7 2.6 3.3.9 6.6 1.7 9.9 2.5"/><path clip-path="url(#b)" fill="#282726" d="M434.3 885.9s-.4-.1-1.1-.2c-.7-.1-1.7-.2-3-.4-2.6-.3-6.3-.6-10.8-.9-4.5-.2-9.7-.4-15.3-.4-2.8 0-5.7 0-8.6.1-2.9 0-5.9.2-8.9.3-3 .1-5.9.3-8.9.5-2.9.2-5.8.4-8.6.7-5.6.5-10.7 1.1-15.2 1.7-4.4.6-8.1 1.3-10.7 1.8-1.3.2-2.3.5-3 .6-.7.2-1.1.2-1.1.2s.4.1 1.1.2c.7.1 1.7.2 3 .4 2.6.3 6.3.6 10.8.9 4.5.3 9.7.4 15.3.4 2.8 0 5.7 0 8.6-.1 2.9 0 5.9-.2 8.9-.3 3-.1 5.9-.3 8.9-.5 2.9-.2 5.8-.4 8.6-.7 5.6-.5 10.7-1.1 15.2-1.7 4.4-.6 8.1-1.3 10.7-1.8 1.3-.2 2.3-.5 3-.6.7-.1 1.1-.2 1.1-.2m228-113c-.4 2.4-.8 4.8-1.1 7.2-.3 2.4-.7 4.8-1 7.2l-1 7.2-.9 7.2-.9 7.2-.8 7.2c-.5 4.8-1 9.6-1.5 14.5l2-2.7-7.5 2.6-7.5 2.6c-5 1.8-10 3.6-14.9 5.4l-7.4 2.8-7.4 2.8c-4.9 1.9-9.9 3.8-14.8 5.7l-7.4 2.9c-2.5 1-4.9 2-7.3 3l-7.3 3c-2.5 1-4.9 2-7.3 3.1L561 865l-7.3 3.2-7.2 3.3c-2.4 1.1-4.8 2.2-7.2 3.4 2.6-.7 5.1-1.4 7.7-2.1 2.5-.7 5.1-1.4 7.6-2.2l7.6-2.3 7.6-2.4c2.5-.8 5.1-1.6 7.6-2.4l7.5-2.5c2.5-.8 5-1.7 7.5-2.5l7.5-2.6c5-1.7 10-3.5 15-5.3l7.5-2.7 7.4-2.7c5-1.8 9.9-3.7 14.8-5.6l7.4-2.9 7.4-2.9h.1c1.1-.4 1.8-1.5 1.9-2.6.2-4.8.4-9.7.5-14.5l.2-7.3.1-7.3c0-2.4.1-4.8.1-7.3v-14.6c.1-2.4 0-4.9 0-7.3"/><path clip-path="url(#b)" fill="#282726" d="M658.3 830.9s-.6.1-1.7.2-2.8.3-4.9.6c-2.1.3-4.6.6-7.5 1-2.9.4-6.2.9-9.7 1.5-3.6.6-7.4 1.2-11.5 1.9s-8.4 1.4-12.8 2.3c-4.4.8-9 1.7-13.6 2.7-4.6.9-9.3 2-14 3-4.7 1-9.4 2.1-14 3.2s-9.1 2.2-13.5 3.3c-4.4 1.1-8.6 2.2-12.6 3.3-4 1-7.8 2.1-11.2 3.1-3.5 1-6.6 1.9-9.5 2.8-2.8.8-5.2 1.6-7.3 2.3-2 .6-3.6 1.2-4.7 1.5-1.1.4-1.6.6-1.6.6s.6-.1 1.7-.2 2.8-.3 4.9-.6c2.1-.3 4.6-.6 7.5-1 2.9-.4 6.2-.9 9.7-1.5 3.6-.6 7.4-1.2 11.5-1.9s8.4-1.5 12.8-2.3c4.4-.8 9-1.7 13.6-2.7 4.6-.9 9.3-2 14-3 4.7-1 9.4-2.1 14-3.2s9.1-2.2 13.5-3.3c4.4-1.1 8.6-2.2 12.6-3.3 4-1 7.8-2.1 11.2-3.1 3.5-1 6.6-1.9 9.5-2.8 2.8-.8 5.2-1.6 7.3-2.3 2-.6 3.6-1.2 4.7-1.5 1-.4 1.6-.6 1.6-.6"/><path clip-path="url(#b)" fill="#282726" d="M680.3 840.9l-1.8-.9c-.6-.3-1.2-.6-1.9-.8l-3.7-1.6c-2.5-1-5-2.1-7.5-3-2.5-1-5-1.9-7.6-2.8-1.3-.5-2.5-.9-3.8-1.4l-3.8-1.3c-.2-.1-.5-.1-.7-.1h-.3c-3.2.1-6.3.2-9.5.3-3.2.2-6.3.3-9.5.5s-6.3.4-9.5.6l-4.7.4c-1.6.1-3.2.3-4.7.4-3.2.3-6.3.6-9.5 1s-6.3.8-9.5 1.3-6.3 1-9.4 1.5c-1.6.3-3.1.6-4.7.9-1.6.3-3.1.7-4.7 1 1.6.2 3.2.3 4.8.4l4.8.3 9.6.3h9.5c3.2 0 6.4-.1 9.5-.2 1.6-.1 3.2-.1 4.8-.2l4.8-.2c3.2-.2 6.3-.4 9.5-.6 3.2-.2 6.3-.5 9.5-.8 3.2-.3 6.3-.6 9.5-1l-1-.1 3.9.9 3.9.9c2.6.6 5.3 1.1 7.9 1.7 2.6.5 5.3 1 8 1.5l4 .6c.7.1 1.3.2 2 .3.4 0 1.1.1 1.8.2m-420-552.1s.5.3 1.3.8c.9.5 2.1 1.2 3.7 2 3.2 1.7 7.7 4 13.3 6.4 2.8 1.2 5.8 2.5 9.1 3.7 3.3 1.3 6.7 2.5 10.4 3.6 3.6 1.1 7.4 2.3 11.3 3.3 3.9 1 7.8 1.9 11.8 2.6 2 .3 4 .7 6 1 2 .3 4 .6 6 .8 4 .4 7.9.7 11.7.9 3.8.2 7.5.2 11 .1 1.8-.1 3.5-.1 5.1-.2 1.6-.1 3.2-.3 4.8-.4 1.5-.1 3-.3 4.4-.5 1.4-.2 2.7-.3 3.9-.5 2.5-.4 4.6-.7 6.4-1.1l5.5-1.1c1.9-.4 3.1-2.2 2.7-4.1-.4-1.9-2.2-3.1-4.1-2.7h-.4s-1.9.5-5.2 1.3c-1.7.4-3.7.8-6 1.3-1.2.3-2.4.4-3.7.6-1.3.2-2.7.5-4.2.6-1.5.2-3 .3-4.6.5-1.6.1-3.2.2-4.9.3-3.4.2-6.9.3-10.6.2-3.7 0-7.5-.3-11.3-.7-1.9-.2-3.9-.5-5.8-.7-1.9-.3-3.9-.6-5.8-.9-3.9-.7-7.7-1.5-11.5-2.5-3.8-.9-7.4-2.1-10.9-3.2-3.5-1.2-6.9-2.4-10-3.7-3.1-1.3-6-2.6-8.7-3.9-2.7-1.3-5.1-2.5-7.1-3.7-2.1-1.2-3.9-2.2-5.3-3.1-1.5-.9-2.6-1.6-3.3-2.1-.7-.5-1.1-.8-1.1-.8l-.1-.1c-1.6-1.1-3.8-.7-4.9.8-1.1 1.6-.7 3.8.8 4.9.2.2.2.3.3.3m-12.6 25.4s.5.4 1.6 1.2c1 .7 2.5 1.5 4.3 2.5.9.5 2 .9 3.1 1.4.6.2 1.1.5 1.8.7.6.2 1.3.4 1.9.7 2.6 1 5.6 1.8 8.8 2.8 3.3.7 6.8 1.7 10.6 2.3.9.2 1.9.4 2.9.5 1 .2 1.9.4 2.9.5 2 .3 4 .6 6.1.9 1 .2 2.1.3 3.1.5 1 .1 2.1.2 3.2.3 2.1.2 4.3.5 6.4.7l3.3.3c1.1.1 2.2.1 3.3.2 2.2.2 4.4.3 6.6.5 4.4.2 8.9.3 13.2.4 2.2.1 4.4.1 6.5 0h12.4c2-.1 4-.1 5.9-.2 3.8-.1 7.4-.2 10.8-.3 1.7 0 3.3-.1 4.8-.2s3-.1 4.3-.2c2.7-.1 5.1-.2 7-.3 3.9-.1 6.2-.1 6.2-.1 1.9 0 3.5-1.6 3.5-3.6 0-1.9-1.6-3.5-3.6-3.5-.2 0-.5 0-.7.1h-.1s-2.2.5-5.9 1.2c-1.9.4-4.2.8-6.9 1.3-1.3.2-2.7.5-4.2.8-1.5.3-3.1.6-4.7.8-3.3.4-6.8.9-10.6 1.4-1.9.2-3.8.5-5.8.7-2 .1-4 .3-6.1.4-2.1.1-4.2.3-6.3.4-2.1.1-4.3.3-6.5.3s-4.4 0-6.6.1c-2.2 0-4.4.1-6.6 0-4.4-.2-8.9-.3-13.2-.7-2.2-.2-4.3-.5-6.4-.7-1.1-.1-2.1-.2-3.2-.4-1-.1-2.1-.4-3.1-.6-2-.4-4-.8-6-1.1-2-.4-3.8-1-5.7-1.5-.9-.3-1.8-.5-2.7-.8-.9-.2-1.7-.6-2.6-.9-1.7-.6-3.3-1.2-4.8-1.8-1.5-.7-2.9-1.4-4.3-2-1.4-.6-2.5-1.4-3.7-2-.6-.3-1.1-.7-1.6-1-.5-.3-1-.7-1.4-1-.9-.7-1.8-1.2-2.4-1.9-.7-.6-1.3-1.1-1.8-1.6-.4-.5-.9-.9-1.1-1.3-.2-.3-.4-.5-.5-.7-.1-.2-.2-.3-.2-.3l-.1-.1c-1.1-1.6-3.3-2.1-4.9-1-1.6 1.1-2.1 3.3-1 4.9.2.5.5.8.8 1"/><path clip-path="url(#b)" fill="#D9D9D8" d="M439.3 452.2S580 443.5 750 550.9c72.7 63.3-54 138.7-54 138.7 10.7-28 22.7-73.3-30.7-122.7-53.4-49.3-140-102.7-226-114.7"/><path clip-path="url(#b)" fill="#282726" d="M128.8 98.4s0 .2-.1.6c0 .2-.1.4-.2.6-.1.2-.2.5-.3.7-.1.2-.3.5-.5.7-.2.2-.4.4-.8.6-.3.2-.6.3-.9.5-.3.1-.7.2-1.1.4-.4.1-.8.2-1.1.3-.4.1-.8.1-1.2.2-.4.1-.8.1-1.1.2-.4.1-.7.1-1 .2-1.3.2-2.2.5-2.2.5s.8.4 2.2.7c.3.1.7.1 1.1.1.4 0 .8.1 1.2.1.4 0 .9 0 1.3-.1.5-.1.9-.2 1.4-.3.5-.2.9-.3 1.3-.6s.8-.5 1.2-.9c.4-.3.6-.7.9-1.1l.3-.6c.1-.2.1-.4.1-.6.1-.4.1-.7 0-1 0-.3-.1-.5-.2-.7-.2-.3-.3-.5-.3-.5"/><path clip-path="url(#b)" fill="#D9D9D8" d="M297.3 329.6s-130.7 215.3.7 336.7C270.7 649.6 165.3 587 179.3 463c12-75.3 32-92.7 71.3-147.3 14 7.2 46.7 13.9 46.7 13.9"/></svg>