<svg xmlns="http://www.w3.org/2000/svg" xmlns:xlink="http://www.w3.org/1999/xlink" viewBox="0 0 926.2 810.3"><defs><path id="a" d="M0 0h926.2v810.3H0z"/></defs><clipPath id="b"><use xlink:href="#a" overflow="visible"/></clipPath><path clip-path="url(#b)" fill="#282726" d="M197.9 233.9c1.4-1.8 2.8-3.4 4.2-5.1 1.4-1.7 2.8-3.3 4.3-4.9 2.9-3.2 5.8-6.4 8.8-9.5 5.9-6.2 12.1-12.2 18.4-18.1 12.6-11.7 25.8-22.7 39.7-32.8 13.9-10.1 28.5-19.4 43.7-27.6 15.2-8.2 31.1-15.2 47.6-20.8 8.2-2.8 16.6-5.2 25.1-7.2 8.5-1.9 17.1-3.5 25.8-4.5 17.3-2.2 35-2.3 52.3-.3 8.7 1 17.3 2.5 25.8 4.5s16.9 4.5 25.1 7.4c8.2 3 16.3 6.4 23.9 9.8 8 3.7 15.7 7.9 23.1 12.5 14.8 9.3 28.2 20.8 39.7 33.8 11.5 13.1 21 27.8 28.4 43.4 7.4 15.6 12.6 32.1 15.9 48.9 3.2 16.8 4.6 33.9 4 51-.3 8.5-1.1 17.1-2.3 25.5-1.3 8.4-3 16.8-5.3 25.1-4.5 16.5-10.8 32.6-19.1 47.7-8.3 15.1-18.5 29.2-30.7 41.7-6.1 6.3-12.6 12.1-19.6 17.4-7 5.3-14.4 10.2-22.2 14.5l4.2-9.3c1.1 3.7 1.9 7.4 2.5 11.2.6 3.8 1 7.6 1.2 11.4.2 3.8 0 7.7-.3 11.6-.2 1.9-.4 3.9-.8 5.8-.2 1-.3 1.9-.5 2.9l-.7 2.9-.3 1.4-.4 1.4-.9 2.8c-.3.9-.7 1.8-1 2.8-.4.9-.7 1.9-1.1 2.7-.8 1.8-1.6 3.6-2.6 5.3l-1.4 2.6c-.5.8-1 1.7-1.6 2.5-.5.8-1 1.7-1.6 2.5l-1.8 2.4c-1.1 1.6-2.5 3-3.7 4.5-2.6 2.9-5.4 5.6-8.4 8.1l-1.1.9-1.2.9-2.3 1.7c-1.5 1.2-3.2 2.2-4.8 3.2-.8.5-1.6 1.1-2.4 1.5l-2.5 1.4c-1.7.9-3.3 1.9-5 2.6-1.7.8-3.4 1.7-5.1 2.4l-5.2 2.1c-1.7.7-3.5 1.3-5.2 1.9l-2.6.9c-.9.3-1.8.5-2.7.8l-5.3 1.5c-1.8.5-3.6.9-5.3 1.3-3.6.9-7.1 1.5-10.7 2.2-1.8.4-3.6.6-5.4.9l-5.4.8-10.8 1.2 6.9-5.9c-1.5 5.4-2.9 11.3-4.5 17.1-1.6 5.8-3.4 11.7-5.5 17.5-2.1 5.8-4.5 11.5-7.4 17.1-2.9 5.5-6.1 10.9-9.9 16-3.7 5.1-8 9.8-12.7 14.1-4.7 4.3-9.8 8-15.2 11.2-10.9 6.4-22.9 10.5-35 12.6-6.1 1.1-12.2 1.7-18.2 2-6.1.3-12.2.2-18.2-.2-6-.3-12-1-18-1.8-3-.4-5.9-.9-8.9-1.4-3-.5-5.9-1.1-8.8-1.7-2.9-.6-5.8-1.3-8.7-2l-8.7-2.2c-2.9-.8-5.8-1.6-8.6-2.4-2.8-.9-5.7-1.7-8.5-2.6-5.7-1.8-11.3-3.7-16.9-5.7l-8.4-3.1-8.3-3.2.6.1c-9.8-.7-19.5-2.1-29.2-4-9.6-1.9-19.1-4.4-28.5-7.3-18.7-5.8-36.8-13.6-54-23.1-17.2-9.5-33.5-20.7-48.3-33.7-14.8-13-28-27.9-38.8-44.4-10.8-16.5-19.2-34.7-24.3-53.9C1.1 480-.7 460 .4 440.2c.5-9.9 1.8-19.7 3.6-29.4 1.9-9.7 4.4-19.3 7.3-28.7 2.9-9.4 6.5-18.6 10.3-27.7l3-6.8 3.2-6.7 1.6-3.3 1.7-3.3 3.4-6.6c.2-.3.4-.6.7-.9 10.5-10.6 21.8-20 33.2-29.3 11.4-9.2 22.9-18.2 34.2-27.4 11.3-9.2 22.4-18.5 32.4-28.7 5-5.1 9.7-10.4 13.7-16.1 1.9-2.8 3.8-5.7 5.3-8.7 1.6-3 2.6-6.1 3.3-9.1l.4-2.3c.1-.8.1-1.5.2-2.3.1-1.8.2-3.8.2-5.2 0-3.3-.4-6.7-1-10-1.2-6.6-3.5-13.3-6.7-18.9-.8-1.4-1.7-2.7-2.6-3.8-.9-1.1-2-1.9-2.4-2.1 0 0-.1 0-.1-.1h.3c.1 0 .2 0 .2-.1.1 0 .1 0 .2-.1s.1 0 .1 0 0-.1 0 0-.1.1-.2.3c0 .1-.1.2-.2.2-.1.1.1-.1 0 0l-.1.1-.2.3-.3.6c-.1.2-.1.3-.2.5-.1.3-.3.6-.4 1-1.2 2.9-2.2 6.2-3 9.6-.8 3.4-1.6 6.9-2.3 10.5-.7 3.6-1.4 7.2-2.2 10.8-.4 1.8-.8 3.7-1.4 5.6-.3 1-.6 1.9-.9 2.9l-.6 1.5c-.2.6-.4 1.1-.7 1.6l-.4.9-.6.9c-.2.3-.5.7-.8 1l-.4.5-.6.6c-.2.2-.4.4-.7.6l-.6.4-.1.1c-.5.3-1.2.6-1.7.7-.5.1-1 .2-1.4.2-2 .1-3.4-.5-4.4-1.1-1-.6-1.7-1.2-2.2-1.7-.6-.5-1-1.1-1.4-1.6-.8-1-1.4-2-2-3-2.2-3.9-3.4-7.6-4.5-11.4-2.1-7.6-3.2-15.3-3.4-23.1-.2-7.7.5-15.5 2.1-23.2.2-1 .4-1.9.7-2.9l.7-2.8c.5-1.7 1-3.6 1.5-5.4 1-3.6 2.2-7.2 3.4-10.7 2.4-7.1 5.3-14.2 8.8-21 3.5-6.8 7.6-13.5 12.6-19.5 5-6.1 11-11.6 17.9-15.8 3.5-2.1 7.1-3.9 10.9-5.4 1.9-.7 3.8-1.4 5.8-1.8 1-.3 2-.5 3-.7l1.5-.3.7-.2.5-.1.3-.1 2.7-.4c.9-.1 2-.3 3-.4l3-.3c1-.1 2-.2 2.9-.2 3.9-.2 7.9-.1 11.8.3 15.7 1.4 31.4 7.3 43.7 17.8 3.1 2.6 5.9 5.5 8.6 8.6 2.6 3.1 4.9 6.4 7 9.9 2 3.5 3.8 7.2 5.2 10.9l1 2.9.1.4c.1.2 0-.1.1.4v.2l.2.7.2.7c.1.2.1.6.2.9.1.6.3 1.4.4 1.9l.2 1.7c.1 1.1.2 2.3.2 3.3.1 4.4-.5 8.5-1.2 12.4-.8 3.9-1.8 7.7-3 11.4-2.4 7.4-5.3 14.4-8.4 21.2-6.3 13.6-13.6 26.6-21.3 39.2-3.9 6.3-7.8 12.6-11.9 18.7-4.1 6.2-8.2 12.2-12.6 18.4l-12.8-8.9zm-.2.3c4.2-5.7 8.4-11.7 12.4-17.6 4-6 8-12 11.8-18.1 7.6-12.2 14.8-24.7 20.9-37.5 3-6.4 5.8-12.9 8-19.4 1.1-3.3 2-6.5 2.7-9.8.7-3.2 1.1-6.4 1.1-9.3 0-.7-.1-1.4-.1-2.1l-.1-1c0-.3-.1-.5-.1-.8 0-.1 0-.2-.1-.4l-.2-.7-.2-.7v-.2c.1.5 0 0 0 .1l-.1-.3-.8-2.3c-1.1-3.1-2.5-6-4.1-8.9-1.6-2.8-3.4-5.5-5.5-8s-4.4-4.9-6.8-7c-9.9-8.6-22.7-13.8-36-15.1-3.3-.3-6.7-.5-10.1-.3-.8 0-1.7.1-2.5.1s-1.7.1-2.5.2-1.6.1-2.5.3l-2.7.4h-.3c.2 0 0 0 0 0h-.1l-.6.1-1.2.2c-.8.1-1.6.3-2.4.6-1.6.4-3.1.9-4.6 1.4-3.1 1.1-6 2.5-8.8 4.2-5.6 3.3-10.6 7.8-14.9 12.9-4.4 5.1-8 11-11.3 17.1-3.2 6.2-5.9 12.7-8.3 19.3-1.2 3.3-2.3 6.7-3.3 10.1l-1.5 5.1-.7 2.5c-.2.8-.4 1.6-.6 2.5-1.5 6.6-2.2 13.5-2.1 20.4.1 6.9 1 13.7 2.7 20.2.9 3.2 2 6.4 3.4 8.9.3.6.7 1.2 1 1.6.2.2.3.4.4.5.1.1.1.1-.1 0s-.8-.4-1.8-.4c-.2 0-.5 0-.8.1-.3.1-.8.3-1.1.5l.1-.1c-.1.1.5-.3-.3.2-.1 0-.1.1-.2.1l-.1.1.1-.1.1-.2.2-.4c.5-1 1.1-2.6 1.5-4.2.5-1.6.9-3.3 1.3-5 .8-3.4 1.5-7 2.3-10.6.8-3.6 1.6-7.2 2.5-10.9 1-3.7 2-7.4 3.7-11.2.4-.9 1.1-2.2 1.5-2.9l.2-.3.1-.1s.2-.4.2-.3l.6-.9c.4-.6 1-1.2 1.6-1.8.3-.3.7-.6 1.1-.9.4-.3.8-.5 1.3-.8l1.5-.6c.5-.1 1.1-.2 1.6-.3 2.1-.2 4.1.3 5.5 1l.6.3.5.3.9.6c.5.4 1.1.8 1.5 1.2.4.4.9.8 1.3 1.3l1.1 1.3c1.4 1.7 2.6 3.5 3.6 5.3 2 3.6 3.6 7.2 4.8 10.9 1.3 3.7 2.2 7.5 2.9 11.4.7 3.9 1.1 7.7 1.1 11.8 0 2.2-.1 3.8-.2 5.7-.1 1.1-.1 2.1-.3 3.2l-.6 3.1c-1 4-2.4 7.9-4.2 11.4-1.8 3.6-3.9 6.8-6.1 10-4.5 6.2-9.6 11.8-14.9 17.1-10.6 10.5-22 19.9-33.5 29-11.5 9.1-23.1 18-34.5 27-11.4 9.1-22.6 18.2-32.8 28.3l.7-.9-3.4 6.4-1.7 3.2-1.6 3.2-3.1 6.5-3 6.6c-3.8 8.8-7.4 17.7-10.3 26.9-2.9 9.1-5.5 18.4-7.3 27.8-1.8 9.4-3.1 18.9-3.7 28.4-1.2 19.1.5 38.3 5.3 56.8s12.7 36.2 23.1 52.3c10.4 16.1 23.1 30.7 37.5 43.5 14.3 12.8 30.2 23.9 47 33.4 16.8 9.4 34.6 17.2 53 23.1 9.2 3 18.5 5.4 28 7.4 9.4 1.9 19 3.3 28.6 4.1.2 0 .3 0 .5.1h.1l8.4 2.8 8.4 2.7c5.6 1.7 11.3 3.4 16.9 5 2.8.8 5.7 1.5 8.5 2.2 2.8.7 5.7 1.4 8.6 2l8.6 1.8c2.9.5 5.7 1.1 8.6 1.6 2.9.5 5.8.9 8.7 1.3 2.9.4 5.8.7 8.7 1 5.8.6 11.6 1 17.4 1 5.8.1 11.5 0 17.3-.6 5.7-.5 11.4-1.3 16.9-2.5 11.1-2.4 21.7-6.5 30.9-12.5 4.6-3 9-6.4 12.9-10.3 3.9-3.9 7.4-8.1 10.5-12.7 3.1-4.6 5.8-9.4 8.2-14.5 2.3-5.1 4.3-10.3 6.1-15.7 1.7-5.4 3.2-10.9 4.5-16.5 1.3-5.6 2.4-11.3 3.8-17.4.8-3.2 3.5-5.5 6.7-5.8h.2c3.4-.4 6.8-.7 10.1-1.1l5-.7c1.7-.3 3.4-.5 5-.8 3.3-.7 6.7-1.2 9.9-2 1.6-.4 3.3-.8 4.9-1.2l4.8-1.4c.8-.2 1.6-.4 2.4-.7l2.3-.8c1.6-.6 3.2-1 4.7-1.7l4.6-1.9c1.5-.6 2.9-1.4 4.4-2.1 1.5-.7 2.9-1.5 4.3-2.3l2.1-1.2c.7-.4 1.3-.9 2-1.3 1.3-.9 2.7-1.7 4-2.7l1.9-1.4 1-.7.9-.8c2.4-2 4.7-4.2 6.7-6.5 1-1.2 2.1-2.3 3-3.6l1.4-1.9c.5-.6.8-1.3 1.3-1.9.4-.7.8-1.3 1.2-2l1.1-2c.8-1.3 1.3-2.8 2-4.2l.9-2.1c.3-.7.6-1.4.8-2.2l.7-2.2.3-1.1.3-1.1.5-2.3c.2-.8.3-1.5.4-2.3.3-1.5.4-3.1.6-4.7.2-3.1.4-6.3.2-9.5-.1-3.2-.4-6.4-1-9.5-.5-3.2-1.2-6.3-2.1-9.3l-.2-1.2c-.7-3.5 1.2-6.8 4.4-8.1 7.5-3 14.7-6.7 21.5-10.9 6.9-4.3 13.4-9.2 19.5-14.6 12.2-10.8 22.8-23.7 31.4-37.8 8.6-14.1 15.3-29.4 20.1-45.4 4.7-15.9 7.5-32.5 8.1-49.2.7-16.6-.7-33.4-4.3-49.6-3.6-16.2-9.4-31.9-17.4-46.4-7.9-14.5-17.9-27.8-29.4-39.4-5.8-5.8-11.9-11.2-18.4-16.1l-2.4-1.9-2.5-1.8c-1.7-1.2-3.3-2.4-5-3.5l-5.1-3.3-5.2-3.1c-7.1-4.1-14.4-7.7-21.7-11-7.9-3.3-15.3-6.4-23.1-9.1-7.7-2.6-15.6-4.8-23.5-6.6-8-1.7-16-3-24.1-3.8-16.2-1.5-32.5-1.3-48.7.9-8.1 1.1-16.1 2.6-24 4.4-7.9 1.9-15.8 4.3-23.5 6.9-15.5 5.3-30.5 12-45 19.9-14.5 7.8-28.4 16.7-41.8 26.4-13.4 9.7-26.2 20.2-38.5 31.4-6.1 5.6-12.1 11.3-17.9 17.2-2.9 3-5.8 5.9-8.6 9-1.4 1.5-2.8 3-4.1 4.6-1.3 1.5-2.7 3.1-3.9 4.6l-.1.1c-2.8 3.3-7.7 3.8-11.1 1-3.6-2.5-4.1-7.2-1.7-10.5"/><path clip-path="url(#b)" fill="#282726" d="M510.4 117c1.1-1.9 2.2-3.6 3.3-5.3 1.1-1.7 2.2-3.3 3.4-5 2.3-3.3 4.7-6.5 7.2-9.6C529.2 91 534.5 85 540 79.3c11-11.4 23.3-21.7 36.3-31 13-9.2 27-17.1 41.5-23.8 14.5-6.7 29.7-12.1 45.2-16 15.5-3.9 31.4-6.4 47.3-7.6l6-.5c2-.1 4-.2 6-.2l6-.2 3-.1h7.4l1.6.1 6.3.3 6.1.5c2 .2 4.1.5 6.1.7 8.1 1 16.2 2.6 24.2 4.7s15.8 4.7 23.4 7.8c15.3 6.3 29.7 14.7 42.7 24.8 13 10.2 24.5 22.1 34.4 35.3 9.9 13.1 17.9 27.6 24.3 42.5 6.3 15 11 30.6 13.9 46.5.8 4 1.4 7.9 2 11.9.5 4 1 8 1.4 12 .4 4 .6 8 .9 12 .1 4 .3 8 .3 12 .2 16-1.2 31.9-3.5 47.6-2.4 15.7-5.9 31.2-10.2 46.3-4.4 15.2-9.7 30-15.7 44.5s-12.8 28.6-20.2 42.4l-.1.2-.6.9c-7.9 11-16.1 21.9-24.7 32.4-8.6 10.5-17.5 20.8-26.8 30.7-9.3 9.9-19.1 19.5-29.2 28.6-10.2 9.1-20.8 17.7-32 25.7-11.2 7.9-22.9 15.1-35.3 21.3-12.3 6.2-25.3 11.3-38.8 14.7-13.5 3.4-27.4 5.1-41.3 4.5-6.9-.3-13.9-1.1-20.6-2.5-6.8-1.4-13.4-3.3-19.9-5.7l5-4.1c.9 7.5.6 15-.7 22.3-1.2 7.3-3.3 14.4-6.1 21.2-2.7 6.8-6 13.3-9.7 19.6-3.7 6.3-7.8 12.3-12.2 18-4.4 5.7-9.2 11.2-14.1 16.4-5 5.2-10.2 10.2-15.7 15-5.4 4.7-11.1 9.2-17 13.4-5.8 4.2-11.9 8.2-18.1 11.9-12.4 7.4-25.6 13.6-39.2 18.5-13.7 4.9-27.9 8.3-42.4 10-7.2.8-14.6 1.3-21.9 1.2-7.3 0-14.7-.5-22-1.5-3.7-.5-7.3-1.1-10.9-1.8-1.8-.3-3.6-.7-5.4-1.2l-2.7-.6-2.7-.7c-7.2-1.9-14.3-4.3-21.3-7-4.1-1.6-6.1-6.1-4.5-10.2 1.6-4.1 6.1-6.1 10.2-4.5.5.2.9.4 1.4.7 5.7 3.6 11.9 6.6 18.2 9.1l2.4.9 2.4.8c1.6.6 3.2 1.1 4.9 1.6 3.3 1 6.6 1.8 10 2.5 6.7 1.5 13.6 2.3 20.5 2.7 6.9.3 13.8.2 20.8-.5 13.8-1.3 27.5-4.3 40.8-8.8 13.3-4.4 26-10.3 38.2-17.3 12.1-7 23.7-15.1 34.3-24.3 10.6-9.1 20.4-19.3 29-30.4 4.3-5.5 8.2-11.3 11.7-17.4 3.5-6 6.6-12.3 9.1-18.7 2.5-6.4 4.3-13.1 5.4-19.9 1.1-6.7 1.1-13.6.2-20.2-.3-2.1 1.1-4 3.2-4.3.6-.1 1.1 0 1.6.1h.2c6.2 1.9 12.6 3.3 19 4.2 6.4.9 12.8 1.3 19.3 1.2 12.9-.2 25.6-2.4 38-6.2 12.3-3.8 24.2-9 35.5-15.3 11.3-6.3 22.1-13.6 32.4-21.6 10.3-8 20.2-16.6 29.7-25.7 9.4-9.1 18.5-18.6 27.1-28.5 8.6-9.9 17-20 25-30.5 8-10.4 15.7-21.2 23.1-32.1l-.7 1.1c6.7-13.4 12.8-27.1 18.2-41 5.4-13.9 10.1-28.1 14-42.4 3.8-14.4 6.8-28.9 8.7-43.5 1.9-14.6 2.8-29.3 2.5-44 0-3.7-.3-7.3-.4-11-.3-3.6-.5-7.3-1-10.9-.3-3.6-.9-7.2-1.4-10.8-.6-3.6-1.2-7.2-1.9-10.7-2.8-14.2-7.1-28-12.8-41.2-5.8-13.1-12.9-25.6-21.5-36.9-8.6-11.3-18.6-21.5-29.7-30.2-11.1-8.7-23.4-15.8-36.5-21.3-13-5.5-26.9-9.1-41-11.1-1.8-.2-3.5-.5-5.3-.7l-5.3-.5-5.2-.3-1.3-.1h-1.4l-2.9-.1-2.6-.1h-2.7l-5.5.1c-1.8 0-3.7 0-5.5.1l-5.5.3c-14.6.8-29.2 2.8-43.4 6s-28.2 7.6-41.7 13.3C613.4 51 600.4 57.9 588 65.8c-12.3 8-24 17-34.9 27-5.4 5-10.6 10.2-15.6 15.7-2.5 2.7-4.9 5.5-7.2 8.3l-1.7 2.1-1.7 2.2c-1.1 1.4-2.2 2.9-3.1 4.2l-.1.1c-2.4 3.6-7.3 4.5-10.9 2.1-3.4-2.4-4.4-6.9-2.4-10.5m-352 8.1s.7.2 1.9.4c1.2.3 2.7.6 4.5 1 1.8.3 3.8.6 5.7.6 1 0 1.9-.1 2.8-.3.9-.2 1.8-.4 2.6-.8.4-.1.8-.4 1.3-.6.4-.3.8-.4 1.2-.7.8-.5 1.6-1.1 2.4-1.7.4-.3.8-.6 1.2-1 .4-.3.8-.7 1.1-1l2.1-2.1c.7-.7 1.3-1.3 1.8-1.9l1.5-1.5c.8-.8 1.4-1.3 1.4-1.3s.1.7.1 1.9c0 .6 0 1.4-.2 2.2-.1.8-.3 1.8-.6 2.8-.1.5-.3 1-.5 1.6-.2.5-.4 1.1-.7 1.7-.2.6-.6 1.1-.9 1.7-.3.6-.7 1.1-1.1 1.7l-.6.9c-.2.3-.5.5-.7.8-.5.6-1.1 1.1-1.7 1.6-.6.5-1.3.9-2 1.4-.7.4-1.4.8-2.2 1.1-1.5.6-3.2.9-4.8 1-1.6.1-3.2-.1-4.6-.5-2.8-.7-5.1-2.1-6.8-3.4-1.7-1.4-2.8-2.8-3.4-3.8-.5-1.1-.8-1.8-.8-1.8"/><path clip-path="url(#b)" fill="#282726" d="M344.8 687.3c.6 1.3 1.2 2.6 1.7 4 .5 1.3 1 2.7 1.5 4 1 2.7 1.9 5.4 2.7 8.1 1.7 5.4 3.2 10.9 4.6 16.4.2.9.1 1.7-.4 2.4l-.1.2c-1.2 1.8-2.3 3.7-3.5 5.5-1.2 1.8-2.4 3.6-3.6 5.5-1.2 1.8-2.5 3.6-3.8 5.4-1.3 1.8-2.6 3.6-3.9 5.3-.7.9-1.3 1.8-2 2.6-.7.9-1.3 1.7-2 2.6-1.4 1.7-2.7 3.4-4.2 5.1-1.4 1.7-2.9 3.4-4.3 5-1.5 1.6-3 3.3-4.6 4.8.8-2.1 1.8-4.1 2.7-6.1.9-2 1.9-4 2.9-5.9 1-2 2.1-3.9 3.1-5.8.5-1 1.1-1.9 1.6-2.9s1.1-1.9 1.7-2.8c1.1-1.9 2.3-3.8 3.4-5.6 1.2-1.8 2.3-3.7 3.5-5.5 1.2-1.8 2.4-3.7 3.6-5.5 1.2-1.8 2.5-3.6 3.7-5.4l-.5 2.6c-1-5.6-2-11.2-2.7-16.8-.3-2.8-.7-5.7-.9-8.5-.1-1.4-.2-2.8-.3-4.3.1-1.5.1-2.9.1-4.4"/><path clip-path="url(#b)" fill="#282726" d="M362.6 718.1s-.3.2-.8.5c-.6.3-1.4.9-2.4 1.4-2.1 1.2-5.1 2.9-8.8 4.7-3.7 1.9-8 3.9-12.7 5.9-2.3 1-4.8 2.1-7.3 3.1s-5 2-7.6 3c-2.6.9-5.1 1.9-7.7 2.8-2.5.9-5 1.7-7.5 2.5-4.9 1.6-9.5 2.9-13.5 3.9s-7.3 1.8-9.7 2.2c-1.2.3-2.1.4-2.8.5-.6.1-1 .2-1 .2s.3-.2.8-.5c.6-.3 1.4-.9 2.4-1.4 2.1-1.2 5.1-2.9 8.8-4.7 3.7-1.9 8-3.9 12.7-5.9 2.3-1 4.8-2.1 7.3-3 2.5-1 5-2 7.6-3 2.6-.9 5.1-1.9 7.7-2.8 2.5-.9 5-1.7 7.5-2.5 4.9-1.6 9.5-2.9 13.5-3.9s7.3-1.8 9.7-2.2c1.2-.3 2.1-.4 2.8-.5.6-.3 1-.3 1-.3"/><path clip-path="url(#b)" fill="#282726" d="M305.2 727.8s.7-.4 1.9-1 3-1.4 5.1-2.1c2.1-.8 4.6-1.5 7.3-2.2 1.4-.3 2.8-.7 4.2-1 1.4-.3 2.9-.5 4.4-.8 1.5-.2 2.9-.4 4.4-.6 1.5-.2 2.9-.3 4.3-.4 2.8-.2 5.4-.2 7.7-.1s4.2.3 5.5.5c1.3.2 2.1.4 2.1.4s-.7.4-1.9 1-3 1.4-5.1 2.1c-2.1.8-4.6 1.5-7.3 2.2-1.4.3-2.8.7-4.2.9-1.4.3-2.9.5-4.4.8-1.5.2-2.9.4-4.4.6-1.5.2-2.9.3-4.3.4-2.8.2-5.4.2-7.7.1s-4.2-.3-5.5-.5c-1.4-.1-2.1-.3-2.1-.3m79.2-30s.1.3.1 1c.1.7.2 1.6.3 2.8.3 2.4.6 5.9.8 10.1.2 4.2.3 9 .3 14.2 0 2.6-.1 5.3-.1 8-.1 2.7-.2 5.5-.3 8.2-.2 2.8-.3 5.5-.6 8.2-.2 2.7-.5 5.4-.7 7.9-.5 5.2-1.2 10-1.9 14.1s-1.3 7.5-1.9 9.9c-.2 1.2-.5 2.1-.6 2.8-.2.6-.3 1-.3 1s-.1-.3-.1-1c-.1-.7-.2-1.6-.3-2.8-.3-2.4-.6-5.9-.8-10.1-.2-4.2-.3-9-.3-14.2 0-2.6.1-5.3.1-8 .1-2.7.2-5.5.3-8.2.2-2.8.3-5.5.6-8.2.2-2.7.5-5.4.7-7.9.5-5.2 1.2-10 1.9-14.1s1.3-7.5 1.9-9.9c.2-1.2.5-2.1.6-2.8.2-.6.3-1 .3-1"/><path clip-path="url(#b)" fill="#282726" d="M391.7 784.4s-.3.1-.9.4c-.6.3-1.4.7-2.5 1.1-2.2.9-5.3 2.2-9 3.6-3.8 1.4-8.2 2.8-13 4.3-2.4.7-4.9 1.4-7.4 2.1-2.5.7-5.1 1.3-7.7 2-2.6.6-5.2 1.2-7.7 1.8-2.6.6-5.1 1.1-7.5 1.5-4.9.9-9.5 1.7-13.5 2.2-4 .5-7.3.8-9.7 1-1.2.1-2.1.1-2.7.2h-1s.3-.1.9-.4c.6-.3 1.4-.7 2.5-1.1 2.2-.9 5.3-2.2 9-3.6 3.8-1.4 8.2-2.8 13-4.3 2.4-.7 4.9-1.4 7.4-2.1 2.5-.7 5.1-1.3 7.7-2 2.6-.6 5.2-1.2 7.7-1.8 2.6-.6 5.1-1.1 7.5-1.5 4.9-.9 9.5-1.7 13.5-2.2 4-.5 7.3-.8 9.7-1 1.2-.1 2.1-.1 2.7-.2h1"/><path clip-path="url(#b)" fill="#282726" d="M383.6 786s.1.1.2.3c.1.2.3.4.5.8.4.7.8 1.6 1.2 2.8.4 1.2.7 2.5 1 3.9.2 1.4.3 3 .3 4.5-.1 1.5-.2 3-.5 4.4-.3 1.4-.7 2.7-1.2 3.9-.5 1.1-1 2.1-1.4 2.7-.2.3-.4.6-.5.8-.1.2-.2.3-.2.3s-.1-.1-.2-.3c-.1-.2-.3-.4-.5-.8-.4-.7-.8-1.6-1.2-2.8-.4-1.2-.7-2.5-.9-3.9-.2-1.4-.3-3-.2-4.5.1-1.5.2-3 .5-4.4.3-1.4.7-2.7 1.2-3.8.5-1.1 1-2.1 1.4-2.7.2-.3.4-.6.5-.8-.1-.3 0-.4 0-.4m-50.9-284.7s.8.2 2.4.4c1.5.3 3.8.6 6.7 1.1 2.9.5 6.4.9 10.5 1.5 4.1.5 8.6 1 13.6 1.4 5 .4 10.4.8 16.1 1 5.7.2 11.8.3 18 .1 6.2-.2 12.6-.5 19.1-1.2 6.5-.7 13-1.7 19.4-3.1 6.4-1.4 12.8-3.2 18.8-5.4 6.1-2.2 11.8-4.8 17.2-7.7 5.4-2.9 10.3-6.2 14.7-9.7 1.1-.9 2.2-1.7 3.2-2.7l3-2.7c1-.9 1.9-1.8 2.8-2.7.9-.9 1.8-1.8 2.6-2.7 1.6-1.8 3.2-3.6 4.6-5.4 1.5-1.7 2.7-3.5 3.9-5.1 2.3-3.3 4.2-6.3 5.7-8.9.7-1.3 1.4-2.4 1.9-3.4s1-1.9 1.3-2.6c.7-1.4 1.1-2.1 1.1-2.1s-.3.8-.7 2.3c-.3.8-.5 1.7-.9 2.8-.4 1.1-.9 2.3-1.4 3.7-.5 1.4-1.3 2.9-2 4.5-.8 1.6-1.7 3.3-2.7 5.2-1.1 1.8-2.1 3.7-3.4 5.7-1.3 2-2.7 4-4.3 6-.8 1-1.6 2-2.5 3.1-.9 1-1.8 2-2.7 3.1-.9 1-2 2-3 3s-2.1 2-3.2 3-2.3 1.9-3.4 2.9c-1.2 1-2.4 1.9-3.6 2.9l-3.9 2.7c-1.3.8-2.7 1.8-4.1 2.6-5.6 3.3-11.6 6.3-18 8.7-6.4 2.4-13 4.3-19.7 5.7-6.7 1.4-13.5 2.4-20.2 3-6.7.6-13.3.7-19.7.6-6.4-.1-12.5-.6-18.3-1.1-5.8-.5-11.3-1.4-16.3-2.2-5-.8-9.6-1.8-13.6-2.8-4-.9-7.5-1.9-10.3-2.7-2.8-.8-5-1.5-6.5-2s-2.2-.8-2.2-.8"/><path clip-path="url(#b)" fill="#D9D9D8" d="M349.5 506.9s120 28 161.3-46c18.7 34.7-44 84.7-161.3 46m179.3-388s131.3 44 124 199.3c-4.7 80.7-50 138.7-92.7 164.7 103.3-51.3 154.7-148 143.3-247.3-11.3-99.3-125.3-130.7-174.6-116.7m31.3 364s27.3 90.7-102.7 106.7c56-2.7 120.7-13.3 125.3-58 4.8-44.7-22.6-48.7-22.6-48.7M457.5 589.6s-6.7 78.7-82 99.3c16.7 8 65.3 16.7 121.3-7.3 26-12.7 22.7-87.3-39.3-92"/><path clip-path="url(#b)" fill="#282726" d="M201.5 242.3s-.5.6-1.5 1.6c-1 1.1-2.4 2.6-4.3 4.6-3.7 4-9.1 9.6-15.7 16.2-3.3 3.3-6.9 6.9-10.7 10.6-3.8 3.7-7.9 7.7-12.1 11.7-4.3 4-8.6 8.1-13.2 12.2s-9.2 8.2-14 12.3c-4.8 4.1-10 7.7-15.3 10.9-5.3 3.2-10.8 6-16.1 8.4-5.4 2.4-10.8 4.4-16 5.8-5.2 1.5-10.3 2.5-15 2.9-4.7.4-9.2.1-13-1.1-1.9-.6-3.6-1.4-4.9-2.4-1.4-1-2.4-2.2-3.2-3.4-1.5-2.4-1.9-4.6-2-6.1-.1-.7-.1-1.3-.1-1.7v-.6s0 .2.1.6c0 .4.1.9.3 1.6.3 1.4.9 3.5 2.5 5.6 1.6 2.1 4.3 4 7.9 4.8 3.6.9 7.8.9 12.3.3 9.1-1.2 19.4-4.7 29.8-9.6 5.2-2.4 10.4-5.3 15.6-8.5 5.1-3.2 10.1-6.7 14.8-10.7 4.8-4 9.4-8 14-12.1s9.1-8 13.4-11.9c8.6-7.8 16.7-15.1 23.6-21.4 6.9-6.3 12.7-11.5 16.7-15.1 3.7-3.5 6.1-5.5 6.1-5.5m327.3-123.4c1.1-.9 2.2-1.8 3.4-2.6 1.2-.8 2.4-1.5 3.6-2.3 1.3-.7 2.5-1.4 3.8-2 1.3-.6 2.6-1.3 3.9-1.8 1.3-.5 2.6-1.1 4-1.5 1.4-.4 2.7-.9 4.1-1.3l4.2-1 4.2-.7 1.1-.2 1.1-.1 2.1-.2 2.1-.2c.7-.1 1.4 0 2.2-.1l4.3-.1c1.4.1 2.9.2 4.3.3l2.2.2c.7 0 1.4.2 2.1.3l4.3.7 1.1.2 1 .3 2.1.5 4.2 1h-.3l4.5-1.8c1.5-.6 3-1.1 4.5-1.7.8-.3 1.5-.6 2.3-.8l2.3-.7 2.3-.7c.8-.2 1.6-.4 2.3-.6 1.6-.4 3.1-.8 4.7-1 1.6-.3 3.2-.6 4.8-.8 1.6-.2 3.2-.4 4.8-.4 1.6-.1 3.2-.2 4.8-.1l2.4.1c.8 0 1.6.2 2.4.3l2.4.3 2.4.5c.8.2 1.6.3 2.4.5l2.3.7c1.6.4 3 1.1 4.5 1.7.8.3 1.5.7 2.2 1l2.2 1.1c1.4.8 2.7 1.7 4.1 2.6 1.3 1 2.6 2 3.9 2.9l3.6 3.2-1.1-.1c3.4-2 7-3.8 10.7-5.3 1.8-.8 3.7-1.5 5.6-2.2 1.9-.7 3.8-1.3 5.7-1.8 1.9-.5 3.8-1 5.8-1.4 2-.4 3.9-.7 5.9-1 2-.2 4-.4 6-.5 2-.1 4 0 6 .1 1 0 2 .2 3 .3 1 .1 2 .3 3 .5l1.5.3 1.5.4 1.5.4 1.4.5c1 .3 1.9.6 2.8 1.1.9.4 1.9.8 2.7 1.3.9.5 1.8.9 2.7 1.5l2.5 1.7 2.4 1.9c.8.6 1.5 1.3 2.3 2 .4.3.8.7 1.1 1l1 1.1c.7.8 1.4 1.5 2 2.3l1.9 2.4c.6.8 1.1 1.7 1.7 2.5l.8 1.3.7 1.3 1.5 2.6-.7-.6c1.8.6 3.6 1.2 5.4 1.9 1.8.7 3.6 1.4 5.3 2.1 3.5 1.5 7 3.2 10.2 5.2.8.5 1.6 1 2.4 1.6.8.6 1.6 1.1 2.3 1.7 1.5 1.2 3 2.4 4.4 3.8l1 1 1 1.1c.7.7 1.2 1.5 1.8 2.3.6.8 1.1 1.6 1.7 2.4.5.8 1 1.7 1.5 2.5.9 1.7 1.7 3.5 2.4 5.3l.5 1.4.4 1.4c.3.9.5 1.9.7 2.8.4 1.9.7 3.8 1 5.7.2 1.9.4 3.8.4 5.8v2.9c0 1 0 1.9-.1 2.9-.1 1.9-.2 3.8-.4 5.7-.2 1.9-.4 3.8-.7 5.7-.3 1.9-.6 3.8-.9 5.6l-.7-1.5 2.4 1.5c.8.5 1.5 1.1 2.3 1.7.8.6 1.5 1.3 2.2 1.9.7.6 1.3 1.4 2 2.1.6.7 1.2 1.5 1.8 2.3.6.8 1.1 1.6 1.6 2.4.5.9.9 1.7 1.4 2.6.4.9.8 1.8 1.1 2.7.6 1.8 1.1 3.7 1.4 5.6.2 1 .3 1.9.3 2.9l.1 1.4v1.4c0 1 0 1.9-.1 2.9 0 1-.2 1.9-.3 2.9-.3 1.9-.7 3.8-1.2 5.6-1 3.7-2.5 7.2-4.3 10.5-.9 1.7-1.9 3.3-2.9 4.9-.5.8-1.1 1.6-1.6 2.3-.5.8-1.1 1.5-1.7 2.2-.6.7-1.2 1.5-1.8 2.2l-.9 1.1-1 1c-.7.7-1.3 1.4-2 2-.7.6-1.4 1.3-2.1 1.9-1.4 1.2-2.9 2.4-4.5 3.5-.8.5-1.6 1.1-2.4 1.6l-2.4 1.5.5-2.1c1.4 2.3 2.8 4.5 4 6.9.6 1.2 1.2 2.4 1.8 3.5.6 1.2 1.1 2.4 1.7 3.6.5 1.2 1 2.4 1.5 3.7.5 1.2.9 2.5 1.3 3.8.4 1.3.8 2.6 1.1 3.8l.9 3.9c.5 2.6.9 5.3 1.1 7.9.2 2.7.1 5.4 0 8-.1 1.3-.3 2.7-.5 4-.3 1.3-.5 2.6-.8 3.9-.7 2.6-1.5 5.2-2.7 7.6l-.8 1.8c-.3.6-.6 1.2-1 1.8l-1 1.8c-.3.6-.7 1.1-1.1 1.7l-1.1 1.7c-.4.5-.8 1.1-1.2 1.6l-1.2 1.6c-.4.5-.9 1-1.3 1.5-1.7 2-3.6 3.9-5.6 5.7l-3 2.6-3.1 2.4c-1 .8-2.2 1.5-3.2 2.3-1.1.7-2.2 1.5-3.3 2.2l-3.4 2.1c-1.1.7-2.3 1.3-3.5 1.9-2.3 1.3-4.7 2.4-7.1 3.5-2.4 1.1-4.8 2.1-7.2 3.2l.8-1.4c.4 2.3.8 4.5 1.1 6.8.3 2.3.6 4.5.8 6.8.2 2.3.4 4.6.5 6.9 0 1.1 0 2.3.1 3.5 0 1.2 0 2.3-.1 3.5-.1 2.3-.3 4.6-.6 6.9l-.3 1.7-.3 1.7c-.2 1.1-.5 2.3-.8 3.4-.3 1.1-.7 2.2-1 3.3-.4 1.1-.8 2.2-1.3 3.3-1 2.1-2.1 4.2-3.4 6.2-.6 1-1.3 2-2 2.9l-1.1 1.4-1.2 1.3c-.4.4-.8.9-1.2 1.3l-1.3 1.2c-.8.8-1.7 1.5-2.7 2.3-.9.8-1.8 1.4-2.8 2.1-.5.3-.9.7-1.4 1l-1.5.9-1.5.9-1.5.8c-1 .5-2 1.1-3.1 1.5-1.1.4-2.1 1-3.2 1.4l-3.2 1.2c-1.1.4-2.2.7-3.3 1l-1.6.5-1.7.4c-1.1.3-2.2.6-3.3.8l-3.4.7c-2.2.5-4.5.8-6.8 1.2l.8-.9c-.3 2.3-.8 4.6-1.6 6.9-.8 2.2-1.6 4.4-2.7 6.4-1 2.1-2.3 4.1-3.5 6-.7.9-1.3 1.9-2 2.8-.7.9-1.4 1.8-2.2 2.7-.8.9-1.5 1.8-2.3 2.6-.8.8-1.6 1.7-2.5 2.4l-1.3 1.2-1.3 1.1c-.4.4-.9.7-1.3 1.1l-1.4 1c-.9.7-1.9 1.4-2.8 2-.9.7-1.9 1.2-2.9 1.8-1 .6-2 1.1-3 1.7-1 .6-2.1 1-3.1 1.5s-2.1.9-3.2 1.3-2.2.8-3.3 1.1c-.6.2-1.1.3-1.7.5l-1.7.4-1.7.4-1.7.3c-1.1.2-2.3.4-3.4.5-1.1.1-2.3.3-3.4.3-1.2 0-2.3.1-3.5.1l-3.5-.1c-2.3-.2-4.6-.3-6.9-.7l-1.7-.2-1.7-.4c-1.1-.3-2.3-.4-3.4-.7l-3.3-.9c-1.1-.3-2.2-.7-3.3-1.1l-1.6-.6c-.5-.2-1.1-.4-1.6-.6l-3.2-1.3.6-.3c-.1 1.1-.3 2.2-.6 3.2l-.3.8-.4.7c-.2.5-.5.9-.8 1.4-.3.5-.7.8-1 1.3-.4.4-.8.8-1.2 1.1-.8.7-1.7 1.3-2.6 1.9-.5.3-.9.5-1.4.7l-1.5.6c-1 .4-2 .6-3.1.8-1 .2-2.1.3-3.2.4h-1.6c-.5 0-1.1-.1-1.6-.1-.5-.1-1.1-.2-1.6-.2-.5-.1-1-.2-1.6-.3-.5-.1-1-.3-1.5-.5l-1.5-.6c-1-.4-1.9-.9-2.8-1.5-.9-.6-1.8-1.2-2.6-1.9-.4-.3-.8-.7-1.2-1.1-.4-.4-.8-.7-1.1-1.2-.7-.8-1.3-1.7-1.9-2.5-.5-.9-1.1-1.8-1.5-2.8-.5-.9-.8-1.9-1.2-2.9.4 1 .8 2 1.3 2.9.4 1 1 1.8 1.6 2.7.6.9 1.2 1.7 1.9 2.5.3.4.7.8 1.1 1.1.4.4.8.7 1.2 1.1.8.7 1.7 1.3 2.6 1.8.9.5 1.8 1 2.8 1.4.5.2 1 .4 1.5.5.5.1 1 .3 1.5.4l1.5.3c.5.1 1 .1 1.6.2.5 0 1 .1 1.6.1h1.6c1-.1 2.1-.2 3.1-.4s2-.5 3-.9c.5-.2 1-.4 1.4-.6.5-.2.9-.4 1.4-.7.9-.5 1.7-1.1 2.5-1.8.4-.3.7-.7 1.1-1.1.3-.4.7-.8.9-1.2.3-.4.6-.9.8-1.3l.3-.7.3-.7c.3-1 .5-2 .6-3 0-.2.2-.4.4-.4h.1l3.2 1.2c.5.2 1.1.4 1.6.6l1.6.5c1.1.3 2.2.7 3.2 1l3.3.9c1.1.3 2.2.5 3.3.7l1.7.3 1.7.2c2.2.4 4.5.5 6.8.6h3.4c1.1 0 2.3-.1 3.4-.2 1.1 0 2.2-.2 3.4-.4 1.1-.1 2.2-.3 3.3-.5l1.7-.3 1.6-.4 1.6-.4 1.6-.5c1.1-.3 2.1-.7 3.2-1.1 1.1-.4 2.1-.8 3.1-1.3s2.1-.9 3-1.5c1-.5 2-1 3-1.6 1-.6 1.9-1.1 2.9-1.8.9-.6 1.9-1.3 2.8-2l1.3-1c.4-.4.9-.7 1.3-1.1l1.3-1.1 1.2-1.2 2.4-2.4c.8-.8 1.5-1.7 2.3-2.5.8-.8 1.4-1.8 2.1-2.6.7-.9 1.3-1.8 2-2.7 1.2-1.9 2.4-3.8 3.4-5.8s1.8-4.1 2.6-6.2c.7-2.1 1.2-4.3 1.4-6.5.1-.4.4-.8.8-.9 2.2-.4 4.5-.7 6.7-1.2l3.3-.7c1.1-.3 2.2-.6 3.3-.8l1.6-.4 1.6-.5c1.1-.3 2.1-.7 3.2-1l3.1-1.2c1-.4 2-.9 3.1-1.3 1-.4 2-1 3-1.5l1.5-.8 1.4-.9 1.4-.9c.5-.3.9-.6 1.4-.9.9-.6 1.8-1.3 2.7-2 .9-.7 1.7-1.4 2.5-2.2l1.2-1.1c.4-.4.7-.8 1.1-1.2l1.1-1.2 1-1.3c.7-.9 1.3-1.8 1.9-2.7 1.2-1.8 2.2-3.8 3.1-5.8.4-1 .8-2.1 1.2-3.1.3-1.1.7-2.1 1-3.2.3-1.1.6-2.1.7-3.2l.3-1.6.2-1.7c.3-2.2.5-4.4.6-6.7 0-1.1 0-2.2.1-3.4 0-1.1 0-2.2-.1-3.4-.1-2.2-.3-4.5-.5-6.7s-.5-4.5-.8-6.7c-.3-2.2-.7-4.5-1.1-6.7-.1-.6.2-1.2.8-1.4 2.4-1 4.8-2 7.1-3.1s4.7-2.2 6.9-3.5c1.1-.6 2.3-1.2 3.4-1.9l3.3-2c1.1-.6 2.2-1.4 3.2-2.1 1.1-.7 2.1-1.4 3.1-2.2l3-2.4 2.9-2.5c1.9-1.8 3.7-3.5 5.3-5.5.4-.5.9-.9 1.2-1.5l1.2-1.5c.4-.5.8-1 1.1-1.5l1-1.6c.3-.5.7-1.1 1-1.6l.9-1.7c.3-.6.6-1.1.9-1.7l.8-1.7c1.1-2.3 1.8-4.7 2.5-7.2.3-1.2.5-2.5.8-3.7.2-1.3.4-2.5.5-3.8.2-2.5.2-5.1 0-7.6-.1-2.5-.6-5.1-1-7.6-.3-1.2-.6-2.5-.9-3.7-.4-1.2-.7-2.5-1.1-3.7-.4-1.2-.8-2.4-1.3-3.6-.4-1.2-1-2.4-1.5-3.6-.5-1.2-1.1-2.3-1.6-3.5-.6-1.1-1.1-2.3-1.8-3.4-1.2-2.3-2.5-4.5-3.9-6.7-.4-.7-.2-1.6.5-2.1l2.3-1.4c.8-.5 1.5-1 2.2-1.5 1.5-1.1 2.9-2.1 4.3-3.3.7-.6 1.4-1.2 2-1.8.7-.6 1.3-1.2 1.9-1.9l.9-1 .9-1c.6-.7 1.2-1.3 1.8-2.1.6-.7 1.1-1.4 1.7-2.1.5-.7 1.1-1.4 1.6-2.2 1-1.5 1.9-3 2.8-4.6 1.7-3.2 3.1-6.5 4.1-9.9.5-1.7.9-3.5 1.1-5.2.1-.9.3-1.8.3-2.7.1-.9.1-1.8.1-2.7v-1.3l-.1-1.3c0-.9-.2-1.8-.3-2.6-.3-1.7-.7-3.4-1.3-5.1-.3-.8-.7-1.6-1-2.4-.4-.8-.8-1.6-1.2-2.3-.5-.7-.9-1.5-1.5-2.2-.6-.7-1.1-1.4-1.7-2.1-.6-.6-1.2-1.3-1.8-1.9-.7-.6-1.3-1.2-2-1.7s-1.4-1.1-2.1-1.6l-2.3-1.4c-.5-.3-.7-.9-.6-1.4.3-1.8.7-3.7.9-5.5.3-1.8.5-3.7.7-5.5.2-1.9.3-3.7.4-5.6.1-.9.1-1.9.1-2.8v-2.8c0-1.9-.2-3.7-.4-5.5-.2-1.8-.5-3.6-.9-5.4-.2-.9-.4-1.8-.7-2.7l-.4-1.3-.5-1.3c-.6-1.7-1.4-3.4-2.2-5-.4-.8-.9-1.6-1.4-2.4-.5-.7-1-1.5-1.6-2.2-.6-.7-1.1-1.5-1.7-2.1l-.9-1-1-1c-1.3-1.3-2.7-2.5-4.1-3.6-.7-.5-1.5-1.1-2.2-1.6-.8-.5-1.5-1-2.3-1.5-3.1-1.9-6.5-3.6-9.9-5.1-1.7-.7-3.4-1.4-5.2-2.1-1.7-.7-3.5-1.3-5.3-1.8-.3-.1-.6-.3-.7-.6L745 128l-.7-1.3-.8-1.2c-.5-.8-1.1-1.6-1.6-2.4l-1.8-2.3c-.6-.8-1.3-1.4-1.9-2.2l-1-1.1c-.3-.4-.7-.7-1-1-.7-.6-1.4-1.3-2.1-1.9l-2.3-1.8-2.4-1.6c-.8-.5-1.7-.9-2.5-1.4-.8-.5-1.7-.8-2.6-1.2-.9-.4-1.8-.7-2.7-1l-1.4-.5-1.4-.4-1.4-.4c-.5-.1-.9-.2-1.4-.3-.9-.2-1.9-.4-2.8-.5-1-.1-1.9-.3-2.9-.3-1.9-.2-3.8-.2-5.8-.2-1.9 0-3.9.2-5.8.4s-3.8.5-5.7.9c-1.9.4-3.8.8-5.7 1.3-1.9.5-3.7 1.1-5.6 1.7-1.8.6-3.7 1.3-5.5 2.1-3.6 1.5-7.1 3.2-10.5 5.1-.4.2-.8.1-1.1-.1l-3.5-3.2c-1.2-1-2.5-1.9-3.7-2.9-1.3-.8-2.6-1.7-4-2.5l-2.1-1.1c-.7-.4-1.4-.7-2.1-1-1.5-.6-2.9-1.3-4.4-1.7l-2.2-.7c-.7-.2-1.5-.4-2.3-.5l-2.3-.5-2.3-.3c-.8-.1-1.6-.2-2.3-.3l-2.4-.1c-1.6-.1-3.1 0-4.7 0s-3.1.2-4.7.4c-1.6.1-3.1.4-4.7.7-1.6.2-3.1.6-4.6 1-.8.2-1.5.3-2.3.6l-2.3.7-2.3.7c-.8.2-1.5.5-2.3.8-1.5.5-3 1-4.5 1.6l-4.4 1.7h-.3l-4.1-1.1-2.1-.5-1-.3-1-.2-4.2-.7c-.7-.1-1.4-.3-2.1-.3l-2.1-.2c-1.4-.1-2.8-.3-4.3-.3h-6.4l-2.1.2-2.1.2-1.1.1-1.1.2-4.2.7-4.2 1c-1.4.3-2.7.8-4.1 1.2-1.4.4-2.7.9-4 1.4-1.3.5-2.6 1.1-3.9 1.7-1.3.6-2.6 1.3-3.8 1.9-1.2.7-2.5 1.4-3.7 2.2-1.2.2-2.4 1-3.5 1.9"/><path clip-path="url(#b)" fill="#282726" d="M559.5 84.9c2.2-1.9 4.5-3.6 6.9-5.4 2.4-1.7 4.8-3.3 7.2-4.9 4.9-3.1 10-6 15.3-8.3 1.3-.6 2.7-1.2 4-1.7 1.4-.5 2.7-1 4.1-1.5l2.1-.6 2.1-.6c1.4-.3 2.8-.7 4.3-.9 1.4-.3 2.9-.4 4.4-.6l2.2-.1h2.2c.7 0 1.5.1 2.2.1.7.1 1.5.1 2.2.3.7.1 1.5.2 2.2.4l2.1.6h-.3c5.5-2.6 11-5.1 16.7-7.4 1.4-.6 2.8-1.1 4.3-1.6 1.4-.5 2.9-1 4.4-1.4 1.5-.4 2.9-.9 4.4-1.2 1.5-.4 3-.7 4.5-.9 1.5-.2 3-.4 4.6-.5 1.5-.1 3.1-.1 4.6-.1l2.3.2c.8.1 1.5.2 2.3.3 1.5.3 3 .6 4.5 1.1 1.5.5 2.9 1.1 4.3 1.7.7.3 1.4.7 2.1 1.1.7.4 1.3.8 2 1.2 1.3.8 2.5 1.8 3.7 2.8.6.5 1.2 1 1.7 1.5l1.7 1.6-.9-.2c6.4-2.6 12.8-4.9 19.5-6.6 1.7-.4 3.4-.8 5.1-1.1 1.7-.3 3.4-.5 5.2-.7l2.6-.2h2.6c1.7 0 3.5.2 5.2.4.9.1 1.7.3 2.6.5.9.2 1.7.4 2.5.7 1.7.5 3.3 1.2 4.9 2 .8.4 1.5.9 2.3 1.4.7.5 1.5 1 2.1 1.6 1.4 1.1 2.7 2.3 3.9 3.6 1.2 1.3 2.3 2.7 3.3 4.1.5.7 1 1.4 1.4 2.2l1.3 2.3c.8 1.5 1.6 3.1 2.3 4.7.7 1.6 1.3 3.2 1.9 4.8l-1.1-.7c8.1-.8 16.3-1.8 24.6-1.5 2.1.1 4.1.2 6.2.5 2.1.2 4.1.6 6.2 1.1 1 .2 2 .5 3 .8 1 .3 2 .7 3 1 2 .8 3.9 1.6 5.7 2.7.9.5 1.8 1 2.7 1.7l1.3.9c.4.3.8.7 1.2 1l1.2 1 1.2 1.1c.4.4.8.7 1.1 1.1l1.1 1.2c.4.4.7.8 1.1 1.2l1 1.2 1 1.2.9 1.3.9 1.3c.3.4.5.9.8 1.3.5.9 1.1 1.8 1.5 2.7.5.9 1 1.8 1.4 2.8l1.3 2.9c.4 1 .7 1.9 1.1 2.9l.5 1.5.5 1.5.9 3 .8 3c.5 2 .9 4 1.3 6l-.5-.8 2.5 2.2 2.5 2.3 2.4 2.4c.8.8 1.5 1.7 2.3 2.5 1.5 1.7 2.9 3.4 4.3 5.2 1.3 1.8 2.6 3.6 3.8 5.5 2.4 3.8 4.5 7.8 6.3 11.9.9 2.1 1.6 4.2 2.3 6.3.3 1.1.6 2.2 1 3.2.3 1.1.5 2.2.8 3.3l.7 3.3.5 3.3.3 3.4.2 3.4v3.4c0 1.1-.1 2.3-.1 3.4-.1 1.1-.2 2.3-.3 3.4-.2 1.1-.3 2.2-.5 3.4-.4 2.2-.8 4.4-1.4 6.6-.6 2.2-1.3 4.3-2 6.5-.4 1-.8 2.1-1.2 3.1-.5 1-.9 2.1-1.4 3.1l-1.5 3-1.6 3-.1-1.6c1.4 2 2.7 4 3.8 6.2 1.2 2.1 2.1 4.3 3.1 6.5.4 1.1.9 2.2 1.3 3.4.4 1.1.8 2.3 1.1 3.4.7 2.3 1.3 4.6 1.8 7 .5 2.3.9 4.7 1.1 7.1.1 1.2.3 2.4.3 3.6.1 1.2.2 2.4.2 3.6v3.6c0 1.2-.1 2.4-.2 3.6-.1 1.2-.2 2.4-.4 3.6-.2 1.2-.3 2.4-.6 3.6-.2 1.2-.5 2.4-.8 3.5l-.5 1.8c-.2.6-.4 1.2-.6 1.7l-.6 1.7c-.2.6-.4 1.1-.7 1.7-.4 1.1-.9 2.2-1.5 3.3-.5 1.1-1.1 2.2-1.7 3.2-.6 1-1.2 2.1-1.9 3.1s-1.3 2-2.1 2.9c-.8.9-1.5 1.9-2.3 2.8-1.6 1.8-3.4 3.4-5.3 5l-2.9 2.2-3 2c-1 .7-2.1 1.2-3.1 1.8-1 .6-2.1 1.1-3.2 1.6-2.2 1.1-4.4 1.8-6.7 2.7l.9-1.7c.8 3.2 1.6 6.3 2.3 9.5.7 3.2 1.3 6.4 1.8 9.6.3 1.6.5 3.2.7 4.9l.3 2.4.2 2.4c.2 1.6.3 3.3.4 4.9.1 1.6.1 3.3.2 4.9.1 3.3 0 6.5-.2 9.8-.2 3.3-.6 6.5-1.1 9.8l-.9 4.8-1.2 4.8c-.5 1.6-1 3.1-1.5 4.7-.6 1.5-1.1 3.1-1.8 4.6-1.4 3-2.9 6-4.7 8.7-.9 1.4-1.8 2.8-2.8 4.1l-1.5 2c-.5.6-1.1 1.2-1.6 1.9l-1.7 1.8-1.8 1.7c-.6.6-1.2 1.1-1.8 1.7l-1.9 1.6c-.6.5-1.3 1.1-1.9 1.5l-2 1.4c-.7.5-1.4.9-2.1 1.4l-2.1 1.2-2.1 1.2-2.2 1.1c-1.5.7-3 1.4-4.5 2l-2.3.9-1.2.4-1.2.4-4.7 1.4-4.8 1.1-1.2.3-1.2.2-2.4.4-2.4.4-2.4.3-4.9.5 1.1-1.3c0 2.2-.1 4.4-.4 6.6-.3 2.2-.8 4.3-1.3 6.4-.3 1-.6 2.1-1 3.1s-.7 2.1-1.1 3.1c-.8 2-1.7 4-2.7 6-.5 1-1 1.9-1.6 2.9-.5 1-1.1 1.9-1.7 2.8l-.9 1.4-.9 1.3-.9 1.3-1 1.3-1 1.3-1.1 1.3-1.1 1.3-1.1 1.2-1.1 1.2-1.2 1.1c-.8.8-1.6 1.5-2.4 2.2-.8.7-1.6 1.5-2.5 2.1-.8.7-1.7 1.4-2.6 2-.9.6-1.8 1.3-2.7 1.9-.9.6-1.8 1.2-2.8 1.7-1.9 1.1-3.8 2.1-5.8 3-1 .4-2 .9-3 1.3s-2.1.7-3.1 1.1l-3.1.9-3.2.7c-2.1.4-4.3.7-6.5.8-1.1.1-2.2.1-3.3.1H700c-.5 0-1.1 0-1.6-.1-2.2 0-4.3-.3-6.5-.6l.9-.5c-1 1.9-2.1 3.8-3.4 5.5a48.1 48.1 0 0 1-4.2 4.8 48.1 48.1 0 0 1-4.8 4.2c-1.7 1.3-3.4 2.6-5.2 3.7-.9.6-1.8 1.1-2.7 1.7-.9.5-1.8 1.1-2.8 1.5-.9.5-1.9 1-2.8 1.4-1 .5-1.9.9-2.9 1.3l-3 1.2c-1 .4-2 .7-3 1l-3 .9c-1 .3-2 .6-3.1.8-2.1.5-4.1.8-6.2 1.1-2.1.3-4.2.4-6.3.5h-3.2l-3.2-.1-3.2-.3c-1-.1-2.1-.3-3.1-.5-2.1-.4-4.1-.9-6.2-1.5-1-.3-2-.7-3-1-1-.3-2-.8-2.9-1.2l-1.5-.6-1.4-.7c-.9-.5-1.9-.9-2.8-1.5-.9-.6-1.8-1.1-2.7-1.7l-2.6-1.8.3.1c-4.7.7-9.4 1.8-14.1 2.9-2.3.5-4.7 1-7.1 1.4-1.2.2-2.4.3-3.6.4-1.2.1-2.4.1-3.6 0-1.2-.1-2.4-.2-3.6-.6-1.2-.3-2.3-.8-3.4-1.3-1-.6-2.1-1.3-2.9-2.1-.5-.4-.9-.8-1.3-1.3-.4-.4-.8-.9-1.2-1.4-.4-.5-.7-1-1-1.5-.3-.5-.6-1-.9-1.6-.3-.5-.6-1.1-.8-1.6-.3-.5-.5-1.1-.8-1.6l-.7-1.7-.6-1.7c-.4-1.1-.7-2.3-1.1-3.4.4 1.1.7 2.3 1.1 3.4l.6 1.7.7 1.7c.2.6.5 1.1.8 1.6.3.5.5 1.1.8 1.6l.9 1.5c.3.5.7 1 1 1.5.4.5.7.9 1.2 1.4.4.4.8.9 1.3 1.3.9.8 1.9 1.5 2.9 2 1.1.5 2.2 1 3.3 1.3 1.2.3 2.3.4 3.5.5 1.2 0 2.4 0 3.6-.1 1.2-.1 2.4-.3 3.6-.5 2.4-.4 4.7-.9 7-1.5 4.7-1.1 9.4-2.3 14.1-3 .1 0 .2 0 .3.1l2.6 1.8c.9.6 1.8 1.1 2.7 1.6.9.6 1.8 1 2.7 1.5l1.4.7 1.4.6c1 .4 1.9.8 2.9 1.1 1 .3 2 .7 3 1 2 .6 4 1 6.1 1.4 1 .1 2.1.3 3.1.4l3.1.3 3.1.1c1 0 2.1 0 3.1-.1 2.1-.1 4.1-.3 6.2-.6 2.1-.3 4.1-.7 6.1-1.2 1-.2 2-.5 3-.8l3-.9c1-.3 2-.7 2.9-1 1-.3 1.9-.8 2.9-1.2 1-.4 1.9-.8 2.8-1.3.9-.4 1.9-.9 2.8-1.4l2.7-1.5c.9-.5 1.8-1.1 2.6-1.6 1.7-1.1 3.4-2.3 5-3.6 1.6-1.3 3.1-2.7 4.6-4.1 1.4-1.5 2.8-3 4-4.7 1.3-1.6 2.3-3.4 3.2-5.2.2-.3.5-.5.9-.5 2.1.2 4.2.5 6.3.5.5 0 1.1.1 1.6 0h1.6c1.1 0 2.1 0 3.2-.2 2.1-.1 4.2-.5 6.3-.9l3.1-.7 3-.9c1-.3 2-.7 3-1.1 1-.4 1.9-.8 2.9-1.2 1.9-.9 3.8-1.8 5.6-2.9.9-.5 1.8-1.1 2.7-1.7.9-.6 1.7-1.2 2.6-1.8.9-.6 1.7-1.3 2.5-2l2.4-2.1c.8-.7 1.5-1.4 2.3-2.2l1.1-1.1 1.1-1.2 1.1-1.2 1-1.2 1-1.2 1-1.3 1-1.3.9-1.3.9-1.3.8-1.3c.6-.9 1.1-1.8 1.6-2.7.5-.9 1-1.9 1.5-2.8 1-1.9 1.8-3.8 2.6-5.8.4-1 .7-2 1.1-3l.9-3c.5-2 1-4.1 1.2-6.2.3-2.1.4-4.2.4-6.2 0-.6.5-1.2 1.1-1.3l4.8-.6 2.4-.3 2.4-.4 2.4-.4 1.2-.2 1.2-.3 4.7-1.1 4.6-1.4 1.1-.4 1.1-.4 2.2-.9c1.5-.5 2.9-1.2 4.4-1.9l2.1-1 2.1-1.2 2.1-1.2c.7-.4 1.3-.9 2-1.3l2-1.3c.6-.5 1.2-1 1.9-1.5l1.8-1.5c.6-.5 1.2-1.1 1.7-1.6l1.7-1.6 1.6-1.8c.5-.6 1.1-1.2 1.6-1.8l1.4-1.9c1-1.2 1.8-2.6 2.7-3.9 1.7-2.7 3.2-5.5 4.4-8.4.7-1.4 1.2-3 1.8-4.4l1.5-4.5c.4-1.5.8-3.1 1.2-4.6.3-1.6.6-3.1.9-4.7.5-3.2.9-6.3 1.1-9.5.2-3.2.3-6.4.2-9.6 0-1.6-.1-3.2-.2-4.8-.1-1.6-.2-3.2-.4-4.8l-.2-2.4-.3-2.4c-.2-1.6-.4-3.2-.7-4.8-.5-3.2-1.1-6.3-1.8-9.5-.7-3.1-1.5-6.3-2.3-9.3-.2-.7.2-1.4.9-1.7h.1c2.1-.8 4.3-1.6 6.4-2.6 1-.5 2.1-1 3.1-1.5 1-.6 2-1.1 3-1.7l2.9-1.9 2.7-2.1c1.7-1.5 3.4-3 4.9-4.7.8-.8 1.5-1.7 2.2-2.6.7-.9 1.4-1.8 2-2.8.7-.9 1.2-1.9 1.8-2.9.6-1 1.1-2 1.6-3s1-2.1 1.4-3.1c.2-.5.4-1.1.6-1.6l.5-1.6c.2-.5.4-1.1.5-1.6l.4-1.7c.3-1.1.5-2.2.8-3.4.2-1.1.4-2.3.6-3.4.2-1.1.3-2.3.4-3.4.1-1.1.2-2.3.2-3.4.1-1.1 0-2.3 0-3.5 0-1.2-.1-2.3-.1-3.5 0-1.2-.2-2.3-.3-3.4-.2-2.3-.6-4.6-1.1-6.8-.5-2.3-1-4.5-1.7-6.7-.3-1.1-.7-2.2-1.1-3.3-.4-1.1-.8-2.2-1.2-3.2-.9-2.1-1.8-4.2-2.9-6.3-1-2-2.3-4-3.6-5.8-.3-.5-.3-1.1-.1-1.6l1.6-2.8 1.5-2.9c.5-1 .9-2 1.3-3l1.2-3c.7-2 1.4-4.1 2-6.2.6-2.1 1-4.2 1.4-6.3.2-1.1.3-2.1.5-3.2.1-1.1.2-2.2.3-3.2.1-1.1.1-2.2.1-3.2v-3.2l-.2-3.2-.3-3.2-.5-3.2-.6-3.2c-.3-1.1-.5-2.1-.8-3.2-.3-1-.6-2.1-.9-3.1-.7-2.1-1.4-4.1-2.2-6.1-1.7-4-3.7-7.9-6-11.5-1.2-1.8-2.4-3.6-3.7-5.4-1.3-1.7-2.7-3.4-4.1-5.1-.7-.8-1.4-1.6-2.2-2.4-.8-.8-1.5-1.6-2.3-2.3l-2.4-2.2-2.5-2.1c-.2-.2-.4-.5-.4-.7-.4-2-.8-4-1.3-5.9l-.8-2.9c-.3-1-.6-1.9-.9-2.9l-.4-1.4-.5-1.4c-.4-.9-.7-1.9-1.1-2.8l-1.2-2.7c-.4-.9-.9-1.8-1.3-2.7-.4-.9-1-1.7-1.5-2.6-.3-.4-.5-.9-.8-1.3l-.8-1.2-.8-1.2-.9-1.2-.9-1.2c-.3-.4-.7-.7-1-1.1l-1-1.1c-.3-.4-.7-.7-1.1-1l-1.1-1-1.2-.9-1.2-.9-1.2-.8c-.8-.6-1.7-1.1-2.5-1.6-1.7-1-3.5-1.8-5.3-2.6-.9-.3-1.9-.7-2.8-1-1-.3-1.9-.6-2.9-.8-1.9-.5-3.9-.8-5.9-1.1-2-.3-4-.4-6-.5-2-.1-4-.1-6-.1-2 .1-4 .1-6.1.3-4 .3-8.1.7-12.1 1.1-.5 0-1-.3-1.1-.7-.6-1.6-1.1-3.2-1.8-4.7-.6-1.6-1.4-3.1-2.1-4.5l-1.2-2.2c-.4-.7-.9-1.4-1.4-2.1-1-1.4-2-2.7-3.1-3.9-1.1-1.2-2.3-2.4-3.6-3.4-.6-.5-1.3-1-2-1.5-.7-.4-1.4-.9-2.1-1.3-1.5-.8-3-1.4-4.5-1.9-.8-.3-1.6-.5-2.4-.7-.8-.2-1.6-.4-2.4-.5-1.6-.3-3.3-.4-5-.5h-2.5l-2.5.2c-1.7.2-3.3.4-5 .6-1.7.3-3.3.6-5 1-6.6 1.6-13 3.9-19.3 6.4-.3.1-.7 0-.9-.2l-1.6-1.6c-.5-.5-1.1-1-1.7-1.5-1.1-1-2.3-1.9-3.6-2.7-.6-.4-1.3-.8-1.9-1.2-.6-.4-1.3-.7-2-1.1-1.3-.7-2.7-1.2-4.1-1.7-1.4-.5-2.8-.8-4.3-1.1-.7-.1-1.5-.2-2.2-.3l-2.2-.2c-1.5-.1-3-.1-4.5 0s-3 .2-4.5.5c-1.5.2-3 .5-4.4.8-1.5.3-2.9.7-4.4 1.1-1.5.4-2.9.9-4.3 1.4-1.4.5-2.9 1-4.3 1.5-5.7 2.2-11.2 4.7-16.7 7.2h-.3l-2.1-.6c-.7-.2-1.4-.3-2.1-.4-.7-.2-1.4-.2-2.1-.3-.7-.1-1.4-.2-2.1-.2-.7 0-1.4-.1-2.2 0l-2.2.1c-1.4.1-2.9.2-4.3.5-1.4.2-2.8.5-4.3.8l-2.1.5-2.1.6c-1.4.4-2.8.9-4.1 1.4-1.4.5-2.7 1-4 1.6-5.3 2.3-10.4 5.1-15.4 8.1-2.5 1.5-4.9 3.1-7.3 4.8-3.4 1.6-5.7 3.3-7.9 5.1m-417.7 72.4s0-.6-.1-1.6c0-1-.1-2.6 0-4.5.1-3.9.4-9.5 1.7-16.1.7-3.3 1.6-6.9 3.1-10.5 1.5-3.6 3.6-7.5 7-10.5 1.7-1.5 3.8-2.8 6.1-3.5 2.1-.7 4.3-1.3 6.4-1.7 4.3-1 8.7-1.8 13.1-2.6s8.7-1.6 13-2.4c4.3-.9 8.5-1.7 12.5-2.6 4-1 7.9-2 11.4-3.2 3.5-1.2 6.8-2.5 9.6-4.1 2.8-1.6 5.1-3.4 6.5-5.5.7-1.1 1.2-2.2 1.4-3.2.2-1.1.3-2.1.2-3-.2-1.9-.8-3.3-1.2-4.3-.4-.9-.7-1.4-.7-1.4s.3.4.9 1.3c.5.9 1.3 2.3 1.7 4.2.2 1 .3 2.1.2 3.4-.1 1.2-.6 2.6-1.2 3.8-1.4 2.6-3.8 4.8-6.7 6.7-2.9 1.9-6.2 3.5-9.8 4.9-3.6 1.4-7.5 2.7-11.6 3.8-4.1 1.1-8.3 2.1-12.6 3-4.3.9-8.7 1.7-13 2.5-4.4.8-8.7 1.5-13 2.4-2.1.5-4.2.9-6.1 1.5-1.8.6-3.4 1.5-4.9 2.7-2.9 2.4-5 5.7-6.6 9-1.6 3.3-2.7 6.7-3.6 9.9-1.7 6.3-2.6 11.8-3.1 15.7-.4 3.6-.6 5.9-.6 5.9"/><path clip-path="url(#b)" fill="#E8AE4A" d="M44.8 326.9s1.3 30.7 72.7-7.3c29.3-23.3 88.7-79.3 88.7-79.3s-39.3 77.3-144.7 115.3c-18 4.7-26.7-6.7-24-17.3 2.6-6 7.3-11.4 7.3-11.4m540-260.6S644.1 27 716.8 25s181.3 32.7 184.7 196.7c-.7 34-12.7 135.3-70.7 200-58 64.7-120 129.3-204.7 118.7 64-10 218-62 260.7-278.7 6-71.3 2-210-148.7-230.7-58.6-4.7-127.3 15.9-153.3 35.3"/></svg>