<?xml version="1.0" encoding="utf-8"?>
<!-- Generator: Adobe Illustrator 17.1.0, SVG Export Plug-In . SVG Version: 6.00 Build 0)  -->
<!DOCTYPE svg PUBLIC "-//W3C//DTD SVG 1.1//EN" "http://www.w3.org/Graphics/SVG/1.1/DTD/svg11.dtd">
<svg version="1.1" id="Layer_1" xmlns="http://www.w3.org/2000/svg" xmlns:xlink="http://www.w3.org/1999/xlink" x="0px" y="0px"
	 viewBox="0 0 425.5 991" enable-background="new 0 0 425.5 991" xml:space="preserve">
<g>
	<defs>
		<rect id="SVGID_1_" width="425.5" height="991"/>
	</defs>
	<clipPath id="SVGID_2_">
		<use xlink:href="#SVGID_1_"  overflow="visible"/>
	</clipPath>
	
		<path clip-path="url(#SVGID_2_)" fill="none" stroke="red" stroke-width="5" stroke-linecap="round" stroke-miterlimit="10" d="
		M147.5,2.5C112.1,28.3,83,68.3,79,112.6c-3.9,43.7,4.5,88.4,23.3,128c21.2,44.5,55.6,84.3,103,101.1c7.7,2.7,15.6,4.8,23.7,6.3
		c25.5,5,45.5-12,38-25s-45-5.5-57,60.5c-10.2,56-29.9,111.9-54.7,163c-24.6,50.6-60.2,113-122.5,119.2c-9.9,1-21.4-0.2-27.2-8.3
		c-5.1-7.1-3.6-17.7,2.2-24.3c5.9-6.6,15.1-9.4,23.9-9c8.8,0.4,17.2,3.7,25,7.6c65.4,33.1,106.7,97.9,138.8,161.7
		c4.3,8.6,8.5,17.2,12.5,25.9c72,160,215,169,215,169"/>
</g>
</svg>
