<svg id="Calque_1" xmlns="http://www.w3.org/2000/svg" viewBox="0 0 255.4 356.4"><style>.st0{fill:#fff}.st1{fill:#c5b9b2}.st2{fill:#e2001a}</style><path class="st0" d="M252.9 343.5c0 5.5-4.5 10-10 10H12.5c-5.5 0-10-4.5-10-10v-331c0-5.5 4.5-10 10-10h230.4c5.5 0 10 4.5 10 10v331z"/><path class="st1" d="M250.4 343.5c-.6 9.3-11.3 7.5-17.7 7.5H12.6c-8.5 0-7.5-8.5-7.5-14.2V184.5C5 130.9 5 77.3 5 23.8V12.6C5 3.7 14.7 5 20.6 5h221.9c8.1 0 7.8 7.2 7.8 12.7V302c.1 13.9.1 27.7.1 41.5 0 3.2 5 3.2 5 0V20.7c0-3.8.3-7.9-.4-11.6C253-.1 243.5 0 236.3 0H13.2C4.8 0 0 6.4 0 14.2v326.7c0 7.7 3.8 15.1 12.7 15.1h211.2c11.1 0 30.4 3.5 31.5-12.5.2-3.2-4.8-3.2-5 0z"/><path class="st2" d="M234.1 218c0 8.7-7.1 15.8-15.8 15.8H36.9c-8.7 0-15.8-7.1-15.8-15.8V37c0-8.7 7.1-15.8 15.8-15.8h181.3c8.7 0 15.8 7.1 15.8 15.8v181z"/><path class="st0" d="M19.8 192.8v41.7h142.4v-9s-1.3-44.3 6.7-66.7 15.3-32.3 19.3-37.7c4-5.3 45.7-56.3 47.3-64.7 0 0 0-22.3-1.3-29 0 0-32.7 25.7-84.7 48s-47 22.7-47 22.7 3-5.7 2.7-11.3c-.3-5.7-17-41-32.3-45.7 0 0-7.7-2.3-15.3 2-7.7 4.3-18.3 15-17.7 24.7.7 9.7 8.7 28.3 17 34.3 8.3 6 9.3 6.7 28 6 0 0-29.6 18.2-45.8 38.5-.1.1-16.1 17.2-19.3 46.2z"/><path class="st1" d="M115 170.9s0-1.8 2.2-3 3.5-12.8 1-20.8-6.8-27.3-18.2-27.5-25.8 3.2-31.8 14.8 5.5 37 20.5 43.2l2 .8s-34.5 34.2-31.6 55.4h108.2s-11.6-24.4-24.1-39.4c0 0-13.8-16.8-26.8-19.5l-1.4-4z"/><path class="st2" d="M23.1 269.5V324h37.8c3.7-1.9 7.1-7 6.7-12.5H38.8v-61.4h-9.7s-6 7.3-6 19.4m83.3-19.4H90.9s-7.6 7.3-7.6 19.4V324h23c12.2 0 21.1-2.5 28.8-8.5 9.2-6.9 14.6-17.5 14.6-28.4 0-21.9-17.7-37-43.3-37m18.4 55.5c-5 4.1-11.4 5.9-21.6 5.9H99v-48.9h4.2c10.2 0 16.4 1.7 21.6 6 5.5 4.4 8.7 11.3 8.7 18.4.1 7.1-3.2 14.2-8.7 18.6m94.5-53.5c-6.1-2.6-11.3-3.7-17.5-3.7-23.8 0-42.9 17.1-42.9 38.6 0 21.7 18.6 38.5 42.5 38.5 6.8 0 12.6-1.2 19.7-4.3 0 0-3.6-9.9-4.9-13.1-4.5 3-8.9 4.2-14.1 4.2-15.9 0-27.1-10.5-27.1-25.5 0-14.2 11.6-25.4 26.4-25.4 3.4 0 6.5.5 9.4 1.6 3.1-1.1 7.6-5.8 8.5-10.9m-149 64.7h7.1v7.1h-7.1zm72.3 0h7.1v7.1h-7.1zm82.4 0h7.1v7.1H225z"/></svg>