<svg xmlns="http://www.w3.org/2000/svg" xmlns:xlink="http://www.w3.org/1999/xlink" viewBox="0 0 748.3 681.7"><defs><path id="a" d="M0 0h748.3v681.7H0z"/></defs><clipPath id="b"><use xlink:href="#a" overflow="visible"/></clipPath><path clip-path="url(#b)" fill="#282726" d="M583.5 122.3c.5.6.8 1.2 1.1 1.9.2.7.2 1.5-.2 2.2-.2.4-.5.6-.8.9-.3.2-.6.5-1 .6-.3.1-.7.3-1 .5l-1.1.4c-2.9.9-6 1.4-9 2-1.5.2-3.1.5-4.6.6-1.5.2-3.1.4-4.6.4-1.5.1-3.1.1-4.6.1-1.5 0-3-.1-4.5-.3-3-.3-5.8-1-8.7-1.7-2.9-.7-5.7-1.3-8.6-2.1-2.8-.7-5.7-1.4-8.5-2.2-2.8-.7-5.7-1.5-8.5-2.3l-8.4-2.4c-2.8-.8-5.6-1.6-8.4-2.5l-8.4-2.5-8.3-2.6-4.2-1.2c-1.4-.4-2.7-.7-4-1.1-2.6-.8-5.4-1.4-8.2-2.1-5.5-1.3-11.1-2.5-16.7-3.5-11.2-2.1-22.5-3.7-33.9-4.9-11.4-1.2-22.8-2.1-34.2-2.6-22.9-1-45.9-.8-68.8.7s-45.7 4.4-68.2 8.8-44.7 10.3-66.1 18.4c-21.4 8-42.1 18-61 30.6-18.9 12.5-36.2 27.7-50.1 45.5-14 17.7-24.5 38-30.9 59.5-3.2 10.8-5.6 21.8-7 32.9-.6 5.6-1.2 11.1-1.6 17l-1.4 17.3-2.8 34.7-2.8 34.6C21.6 421 19.6 444 18 467c-.9 11.5-2.2 22.9-3.3 34.3-.6 5.7-1 11.4-1.2 17-.2 5.6 0 11.3.8 16.6.4 2.7 1 5.3 1.9 7.6.9 2.3 2.1 4.4 3.6 5.7.7.7 1.5 1.2 2.4 1.5.9.4 1.9.6 2.9.6 2.1.1 4.6-.3 7.1-1.1s5-1.8 7.5-3c1.2-.6 2.5-1.2 3.7-1.9l2-1.1 1.9-1c.6-.3 1.5-.7 2.2-1l1.2-.5 1.1-.4c.7-.3 1.5-.5 2.2-.8l2.2-.7c1.5-.5 3-.8 4.5-1.2 1.5-.3 3-.7 4.5-.9 11.9-2.2 23.7-2.9 35.4-3.3 11.7-.4 23.4-.4 35-.4 23.3 0 46.4 0 69.4-.9v.6c17.1.1 34.1-.3 51-1.4 16.9-1.1 33.8-2.9 50.4-5.8s33-6.8 49-11.9c15.9-5.2 31.4-11.7 46.1-19.6l5.5-3c1.8-1 3.6-2.1 5.4-3.2 1.8-1 3.5-2.2 5.3-3.3 1.7-1.1 3.6-2.3 5.4-3.5l10.9-7 11-6.9c14.6-9.2 29.3-18.2 43.9-27.3 14.6-9.1 29.1-18.2 43.2-27.8 14.2-9.5 28-19.4 41.2-30 13.2-10.6 25.7-22 36.9-34.4 11.2-12.4 21.1-25.9 28.8-40.5 7.7-14.6 13.2-30.3 16-46.5 2.8-16.2 3.2-32.9 1.4-49.5-.9-8.3-2.2-16.5-4-24.7-1.8-8.2-4-16.3-6.5-24.3-.6-2-1.3-4-2-6s-1.3-4-2.1-6l-2.2-5.9-1.1-3.1c-.3-.8-.8-2.6-1.1-4.1l-.1-.6-.1-.5-.1-1c-.1-.7-.2-1.4-.2-2.1v-2c0-.7 0-1.4.1-2 .1-1.3.2-2.7.5-3.9l.4-1.9c.1-.6.3-1.2.5-1.8 1.4-4.9 3.5-9.3 6-13.4 5-8.2 11.3-15 18-21 6.8-6 14.2-11.3 21.9-15.9 3.8-2.3 7.8-4.4 11.8-6.4 4-1.9 8.1-3.8 12.3-5.4 8.3-3.3 16.8-6 25.5-8.1l-2.1.9c1.1-.8 2-1.6 2.7-2.2.3-.3.5-.6.6-.7.1-.1-.1 0-.2.6s.1 1.6.4 1.9c.2.4.3.3 0 .2-.4-.3-1.4-.8-2.6-1.2-2.3-.8-5.2-1.4-8.1-1.9-2.9-.5-5.9-.8-8.9-1.1l-1.4-.1-1.2-.1-1.2-.1c-.4-.1-.7-.1-1.2-.2-1.9-.3-3.8-.7-5.4-1.1-3.4-.8-6.7-1.9-9.9-3.2-3.2-1.2-6.2-2.6-9.2-4.1-2.9-1.5-5.9-3-8.7-4.5-5.7-3.1-11.1-6.2-16.6-9.1-2.7-1.4-5.4-2.9-8.1-4.1-2.7-1.3-5.4-2.4-8.2-3.4-2.7-1-5.5-1.8-8.2-2.4l-2.1-.4-1-.2-1-.1c-.7-.1-1.4-.2-2-.2l-2-.1c-.7-.1-1.4 0-2 0-.7 0-1.4 0-2 .1-1.3.1-2.7.2-4 .5-2.7.4-5.3 1.3-7.9 2.2l-.8.3c.1 0 .3 0 1.2-.8.4-.4.8-.9.9-1.4.1-.3.1-.4.2-.6V14v.2c0 .2.1.4.1.7.1.2.1.5.2.8.6 2.4 1.5 5.5 1.8 9 .2 3.5-.3 7.4-1.9 10.7-1.5 3.4-3.7 6.1-6.1 8.4-.6.5-1.2 1.1-1.8 1.6l-1.8 1.4-1.6 1.2-1.4 1.1c-1.9 1.6-3.8 3.2-5.5 4.9-1.8 1.7-3.4 3.5-5 5.4-1.6 1.9-3 3.8-4.3 5.9-1.3 2-2.5 4.1-3.5 6.3s-1.9 4.4-2.6 6.7c-.7 2.3-1.2 4.6-1.5 7-.4 2.4-.5 4.8-.8 7.2-.2 2.4-.4 5-.4 7.5-.1 2.6.1 5.2.4 7.8.2 1.3.4 2.6.7 3.9.3 1.3.7 2.6 1.1 3.8.4 1.2.9 2.5 1.5 3.7.8.7 1.4 1.9 2 3.1m0 0c-.6-1.2-1.3-2.3-2-3.5-.7-1.2-1.3-2.3-2-3.5-.7-1.2-1.3-2.3-2-3.5-.6-1.2-1.4-2.4-2-3.6-1.3-2.4-2.6-5-3.6-7.6-1.1-2.6-1.8-5.5-2.3-8.3-.4-2.9-.5-5.8-.2-8.7.3-2.9.7-5.8 1.5-8.6.7-2.8 1.6-5.6 2.8-8.3 1.1-2.7 2.4-5.3 3.9-7.8s3.1-4.9 4.8-7.2c1.8-2.3 3.6-4.5 5.6-6.5 2-2.1 4-4 6.2-5.9l1.7-1.4 1.5-1.3 1.3-1.1c.4-.4.8-.7 1.2-1.1 1.5-1.5 2.5-3 3.2-4.5.6-1.5.8-3 .6-4.9-.2-1.8-.8-3.8-1.6-6.5-.1-.3-.2-.7-.3-1.1-.1-.4-.2-.8-.3-1.3-.2-1-.4-2-.3-3.7v-.6c0-.3.1-.5.1-.8.1-.5.2-1 .5-1.6.2-.6.5-1.1.8-1.6.4-.5.8-1 1.2-1.4.4-.4.9-.8 1.3-1.1.4-.3.8-.5 1.2-.7l.6-.3.5-.2c.3-.1.7-.2 1-.3l-.8.3c3.3-1.3 6.8-2.5 10.3-3.1 1.8-.4 3.6-.6 5.4-.8.9-.1 1.8-.1 2.7-.2.9 0 1.8-.1 2.7 0l2.7.1 2.7.3 1.3.1 1.3.2 2.6.4c3.4.7 6.8 1.6 10.1 2.8 3.2 1.1 6.4 2.4 9.4 3.8s6 2.9 8.9 4.4c5.7 3 11.3 6.2 16.7 9.2 2.7 1.5 5.4 2.9 8.2 4.3 1.4.6 2.7 1.3 4.1 1.9l2 .9 2 .8c2.7 1.1 5.4 2 8.2 2.7 1.4.4 2.6.6 3.9.9.3.1.7.1 1.1.2l1.2.2 1.2.2h.1-.2.5l.6.1c3.3.3 6.6.8 9.9 1.4 1.7.3 3.4.7 5.1 1.1.8.2 1.7.5 2.6.7.9.3 1.8.5 2.7.9 1.8.7 3.7 1.5 5.9 3.1l.8.7c.3.2.6.5.9.8l.4.4c.1.2.3.4.4.5.3.4.5.7.8 1.2.3.5.5.9.7 1.4.2.5.4 1.1.5 1.6.1.6.2 1.2.2 1.7 0 .6 0 1.1-.1 1.7-.3 2.2-1.1 3.8-1.9 5-.8 1.2-1.6 2.1-2.4 2.9-1.6 1.5-3.2 2.7-4.7 3.7-.6.4-1.3.7-1.9.9h-.1c-8.1 2-16 4.5-23.6 7.7-3.8 1.5-7.6 3.3-11.3 5.1-3.7 1.9-7.3 3.8-10.8 6-7.1 4.2-13.7 9.1-19.8 14.5-3 2.7-5.8 5.6-8.5 8.6-2.6 3-4.9 6.2-6.9 9.5s-3.6 6.7-4.5 10.1c-.1.4-.3.8-.3 1.3l-.2 1.3c-.2.8-.2 1.7-.3 2.5-.1.4-.1.8 0 1.2v1.2c0 .4.1.8.1 1.1l.1.6v.3l.1.2c.2.6.1.9.6 2.1l1.1 2.9 2.3 6.2c.8 2 1.5 4.1 2.2 6.2.7 2.1 1.5 4.1 2.1 6.3 2.7 8.4 5 16.9 7 25.5 2 8.6 3.4 17.4 4.4 26.2 2.1 17.6 1.8 35.7-1.2 53.4-3 17.7-8.9 35-17.2 50.9-8.3 15.9-18.9 30.5-30.7 43.6-11.8 13.2-24.9 25.1-38.4 36.2-13.6 11.1-27.7 21.3-42.1 31.1-14.4 9.8-28.9 19.1-43.5 28.3-14.6 9.2-29.2 18.3-43.7 27.5l-10.8 6.9-10.7 7c-1.8 1.2-3.6 2.4-5.5 3.6-1.9 1.2-3.7 2.4-5.6 3.6-1.9 1.1-3.8 2.3-5.7 3.4l-5.8 3.3c-15.6 8.5-32 15.4-48.7 21-16.8 5.5-34 9.7-51.2 12.8-17.3 3.1-34.7 5.1-52.1 6.3-17.4 1.2-34.9 1.7-52.2 1.8v.6c-23.4-1-46.6-2.8-69.8-4.3-11.6-.7-23.1-1.4-34.5-1.6-11.4-.2-22.9-.1-33.9 1.5-1.4.2-2.7.5-4.1.7-1.3.3-2.7.6-4 .9l-2 .5c-.6.2-1.3.4-1.9.6l-.9.3-.9.3c-.6.2-1.1.4-1.8.7l-2 .9s-.3.2-.1 0l-.3.1-.5.3-1 .5c-1.3.7-2.7 1.4-4.1 2-2.8 1.3-5.6 2.4-8.7 3.3-3.1.9-6.4 1.6-10 1.3-3.6-.1-7.7-1.7-10.4-4.3-1.4-1.3-2.6-2.7-3.5-4.2-1-1.5-1.7-3-2.4-4.5-1.3-3-2.2-6-2.9-9.1-1.5-6-2.4-12-3.1-17.9-.8-5.9-1.3-11.9-1.7-17.8-.9-11.8-.9-23.6-.4-35.2 1.4-23.3 3.5-46.5 5.9-69.6 1.2-11.6 2.5-23.1 3.8-34.6 1.3-11.5 2.6-23.1 4-34.6l2.1-17.3c.6-5.7 1.5-11.7 2.4-17.6 2-11.8 4.9-23.4 8.8-34.8 3.9-11.3 8.7-22.3 14.5-32.8 5.8-10.5 12.5-20.4 20-29.7s15.8-17.9 24.6-25.8c8.9-7.9 18.3-15.1 28.2-21.6 19.7-13.1 41-23.6 62.9-32 11-4.2 22.1-7.9 33.4-11.3 11.3-3.3 22.7-6.1 34.2-8.5 23-4.9 46.2-8.2 69.6-10.2 23.4-1.9 46.9-2.6 70.3-1.7 23.5.9 46.9 3.1 70.1 7.4 5.8 1.1 11.6 2.4 17.4 3.7 2.9.7 5.7 1.4 8.7 2.3 1.4.4 3 .8 4.3 1.2l4.2 1.3 8.3 2.7 8.2 2.6c2.7.9 5.5 1.7 8.3 2.5 2.8.8 5.5 1.7 8.3 2.5 2.8.8 5.5 1.6 8.3 2.4 2.8.8 5.5 1.5 8.3 2.3 2.8.8 5.5 1.4 8.3 2.1 2.8.7 5.5 1.3 8.3 2.1 1.4.4 2.7.9 4 1.4.7.3 1.3.5 2 .8.7.3 1.3.5 2 .8 2.7 1.2 5.3 2.3 8 3.4 2.7 1 5.5 1.8 8.3 1.9.3 0 .7 0 1-.1.3 0 .7-.1 1-.2.3-.1.6-.2 1-.4.3-.2.6-.4.8-.6.4-.5.6-1.3.4-2-.8-.6-1.1-1.3-1.6-1.8"/><path clip-path="url(#b)" fill="#282726" d="M318.2 530.8s.2.4.5 1.1c.3.7.8 1.7 1.3 3 1.1 2.6 2.6 6.4 4.2 11s3.4 9.9 5.1 15.7c.9 2.9 1.8 5.9 2.6 9 .9 3.1 1.7 6.2 2.5 9.3.8 3.1 1.6 6.3 2.3 9.3.7 3.1 1.4 6.1 2 9.1 1.2 5.9 2.3 11.5 3 16.3.8 4.8 1.3 8.8 1.6 11.6.2 1.4.3 2.5.3 3.3.1.8.1 1.2.1 1.2s-.2-.4-.5-1.1c-.3-.7-.8-1.7-1.3-3-1.1-2.6-2.6-6.4-4.2-11s-3.4-9.9-5.1-15.7c-.9-2.9-1.8-5.9-2.6-9-.9-3.1-1.7-6.2-2.5-9.3-.8-3.1-1.6-6.3-2.3-9.3-.7-3.1-1.4-6.1-2-9.1-1.2-5.9-2.3-11.5-3-16.3-.8-4.8-1.3-8.8-1.6-11.6-.2-1.4-.3-2.5-.3-3.3-.1-.8-.1-1.2-.1-1.2m-40 6.6s0 .4.1 1.2c0 .8.1 1.9.1 3.3.1 2.8.2 6.8.1 11.6s-.3 10.3-.7 16.3c-.2 3-.4 6-.7 9.2-.3 3.1-.6 6.3-.9 9.4-.4 3.2-.7 6.3-1.1 9.4-.4 3.1-.8 6.1-1.3 9.1-.9 5.9-1.9 11.4-2.8 16.1-1 4.7-1.9 8.6-2.6 11.3-.3 1.4-.7 2.4-.8 3.2-.2.7-.3 1.1-.3 1.1s0-.4-.1-1.2c0-.8-.1-1.9-.1-3.3-.1-2.8-.2-6.8-.1-11.6s.3-10.3.7-16.3c.2-3 .4-6 .7-9.2.3-3.1.6-6.3.9-9.4.4-3.2.7-6.3 1.1-9.4.4-3.1.8-6.1 1.3-9.1.9-5.9 1.9-11.4 2.8-16.1.9-4.7 1.9-8.6 2.6-11.3.3-1.4.7-2.4.8-3.2.2-.7.3-1.1.3-1.1M306 640.7s.4-.1 1.3-.3c.8-.2 2.1-.6 3.6-.9 3.1-.8 7.6-1.8 13.1-2.8 5.4-1.1 11.7-2.2 18.5-3.2 3.4-.5 6.9-1 10.5-1.5 3.6-.5 7.2-.9 10.9-1.3 3.6-.4 7.3-.8 10.9-1.1 3.6-.4 7.1-.6 10.6-.9 6.9-.5 13.3-.9 18.8-1.1 5.5-.2 10.1-.2 13.4-.2 1.6 0 2.9.1 3.8.1.9 0 1.3.1 1.3.1s-.4.1-1.3.3c-.8.2-2.1.6-3.6.9-3.1.8-7.6 1.8-13.1 2.8-5.4 1.1-11.7 2.2-18.5 3.2-3.4.5-6.9 1-10.5 1.5-3.6.5-7.2.9-10.9 1.3-3.6.4-7.3.8-10.9 1.1-3.6.4-7.1.6-10.6.9-6.9.5-13.3.9-18.8 1.1-5.5.2-10.1.2-13.4.2-1.6 0-2.9-.1-3.8-.1-.8-.1-1.3-.1-1.3-.1"/><path clip-path="url(#b)" fill="#282726" d="M337.1 638.4s.4-.1 1.1-.2c.7-.1 1.8-.3 3.2-.4 2.7-.3 6.7-.7 11.3-1.1 4.7-.3 10.2-.6 16-.7 2.9-.1 6-.1 9-.1 3.1 0 6.2 0 9.3.1l9.3.3c3.1.1 6.1.3 9 .5 5.8.4 11.3.9 16 1.4 4.7.5 8.6 1.1 11.3 1.6 1.4.2 2.4.4 3.2.6.7.1 1.1.2 1.1.2s-.4.1-1.1.2c-.7.1-1.8.3-3.2.4-2.7.3-6.7.8-11.3 1.1-4.7.3-10.2.6-16 .7-2.9.1-6 .1-9 .1-3.1 0-6.2-.1-9.3-.1l-9.3-.3c-3.1-.1-6.1-.3-9-.5-5.8-.4-11.3-.9-16-1.4-4.7-.5-8.6-1.1-11.3-1.6-1.4-.2-2.4-.4-3.2-.6-.7-.1-1.1-.2-1.1-.2"/><path clip-path="url(#b)" fill="#282726" d="M331.5 637.3h.9c.6 0 1.5 0 2.6.1 2.2.1 5.4.4 9.1.8 3.7.5 8.1 1.1 12.7 2 2.3.4 4.7.9 7.1 1.4 2.4.5 4.8 1.1 7.3 1.7 2.4.6 4.9 1.2 7.2 1.9 2.4.6 4.7 1.3 7 2 4.5 1.4 8.7 2.8 12.2 4.1 3.5 1.3 6.5 2.5 8.5 3.4 1 .4 1.8.8 2.3 1.1.5.3.8.4.8.4h-.9c-.6 0-1.5 0-2.6-.1-2.2-.1-5.4-.4-9.1-.8-3.7-.5-8.1-1.1-12.7-2-2.3-.4-4.7-.9-7.1-1.4-2.4-.5-4.8-1.1-7.3-1.7-2.4-.6-4.8-1.2-7.2-1.9-2.4-.6-4.7-1.3-7-2-4.5-1.4-8.7-2.8-12.2-4.1-3.5-1.3-6.5-2.5-8.5-3.4-1-.4-1.8-.8-2.4-1.1-.4-.2-.7-.4-.7-.4m-95.4-7.7s.4.1 1.2.4c.8.3 2 .7 3.5 1.2 3 1.1 7.2 2.7 12.2 4.7 5 2.1 10.7 4.6 16.8 7.4 3.1 1.4 6.2 2.9 9.4 4.5 3.2 1.5 6.4 3.2 9.6 4.8 3.2 1.6 6.4 3.3 9.5 5 3.1 1.6 6.2 3.3 9.1 5 5.9 3.3 11.3 6.5 15.9 9.3 4.6 2.8 8.4 5.3 11 7.1 1.3.9 2.3 1.6 3 2.1.7.5 1.1.8 1.1.8s-.4-.1-1.2-.4c-.8-.3-2-.7-3.5-1.2-3-1.1-7.2-2.7-12.2-4.7-5-2.1-10.7-4.6-16.8-7.4-3-1.4-6.2-2.9-9.4-4.5-3.2-1.5-6.4-3.2-9.6-4.8-3.2-1.6-6.4-3.3-9.5-5-3.1-1.7-6.2-3.3-9.1-5-5.9-3.3-11.3-6.5-15.9-9.3-4.6-2.8-8.4-5.3-11-7.1-1.3-.9-2.3-1.6-3-2.1-.8-.6-1.1-.8-1.1-.8"/><path clip-path="url(#b)" fill="#282726" d="M259.4 641.8h1c.6 0 1.6.1 2.8.2 2.4.2 5.8.5 9.9 1 4.1.5 8.8 1.2 13.8 2.2 2.5.5 5.1 1 7.7 1.5 2.6.5 5.3 1.2 7.9 1.8 2.6.6 5.3 1.3 7.8 2 2.6.7 5.1 1.4 7.6 2.1 4.9 1.4 9.4 2.9 13.3 4.2 3.9 1.4 7 2.6 9.3 3.6 1.1.4 2 .9 2.6 1.1.6.3.9.4.9.4h-1c-.6 0-1.6-.1-2.8-.2-2.4-.2-5.8-.5-9.9-1-4.1-.5-8.8-1.2-13.8-2.2-2.5-.5-5.1-1-7.7-1.5-2.6-.5-5.3-1.2-7.9-1.8-2.6-.6-5.3-1.3-7.8-2-2.6-.7-5.1-1.4-7.6-2.1-4.9-1.4-9.4-2.9-13.3-4.2-3.9-1.4-7-2.6-9.3-3.6-1.1-.4-2-.9-2.6-1.1-.6-.3-.9-.4-.9-.4M667.9 41.2s.3.1.7.3c.4.2 1 .6 1.7 1.1.7.5 1.4 1.2 2.2 2.2.8.9 1.5 2.1 2 3.6s.9 3.4.7 5.6c-.2 2.2-1.2 4.7-2.8 6.8-1.6 2.1-3.8 3.7-5.9 4.7-.5.3-1.1.5-1.6.7-.5.2-1.1.4-1.6.5-1 .2-2.1.5-3.1.6-2 .3-3.9.3-5.6.1-.9-.1-1.7-.2-2.6-.4l-2.4-.6c-1.5-.5-2.9-1.1-4.2-1.8-1.3-.7-2.5-1.4-3.5-2.2-1-.8-1.9-1.6-2.7-2.3-.8-.8-1.4-1.5-1.9-2.2-.5-.6-.9-1.2-1.1-1.6-.3-.4-.4-.6-.4-.6s.2-.1.6-.4c.4-.2 1-.5 1.8-.8.7-.3 1.6-.7 2.6-1 1-.4 2.1-.7 3.2-1 1.1-.3 2.3-.6 3.6-.9 1.2-.3 2.5-.5 3.7-.7l1.8-.3c.6-.1 1.2-.2 1.7-.2 1-.1 2.1-.3 3.1-.4.3 0 .5 0 .7-.1.2 0 .4 0 .6-.1.2 0 .3-.1.5-.1h.5c.6 0 .9 0 1.2.1.3.1.8.3 1.3 0 .6-.2 1.2-.8 1.7-1.5s1-1.5 1.5-2.4c.4-.8.8-1.6 1.1-2.4.3-.7.6-1.3.7-1.7l.2-.6M329.3 151.1s-.8.1-2.3.3c-1.5.2-3.8.6-6.7 1.4-2.9.7-6.5 1.7-10.6 3.2-4.1 1.5-8.8 3.3-13.9 5.6s-10.6 5.2-16.4 8.6c-5.8 3.4-12 7.4-18.3 11.9-3.2 2.2-6.3 4.7-9.6 7.3-3.2 2.6-6.5 5.3-9.8 8.2-3.3 2.8-6.6 5.9-10 9-1.7 1.6-3.3 3.2-5 4.8-1.7 1.6-3.4 3.3-5 5-1.7 1.7-3.4 3.5-5.1 5.2-1.7 1.8-3.3 3.6-5 5.5-.8.9-1.7 1.8-2.5 2.8-.8 1-1.7 1.9-2.5 2.9-1.7 1.9-3.3 3.9-5 5.8-1.6 2-3.3 4-5 6-.8 1-1.7 2-2.5 3.1-.8 1-1.6 2.1-2.5 3.1-1.6 2.1-3.3 4.2-5 6.4-1.6 2.2-3.2 4.4-4.9 6.6-6.5 8.8-12.9 18.2-19.4 27.8-6.5 9.6-13.1 19.4-19.7 29.5-13.3 20.1-26.7 41.1-39.3 62.8-3.2 5.4-6.2 11-9.2 16.5-2.9 5.6-5.8 11.2-8.2 17-1.2 2.9-2.4 5.8-3.4 8.7-1 2.9-1.7 5.9-2.1 8.6-.1 1.4-.1 2.7.1 3.6.1.5.3.8.4 1.1.2.2.3.4.6.5.4.3 1.5.5 2.7.3 1.2-.1 2.6-.4 4-.8 2.8-.8 5.6-2.1 8.4-3.4 1.4-.7 2.8-1.4 4.1-2.2l2.1-1.2 1.1-.6 1.1-.6c1.3-.8 3-1.5 4.5-2.2 1.5-.6 3.1-1.3 4.6-1.9 1.5-.6 3.1-1.2 4.7-1.7s3.1-1 4.7-1.5c12.5-3.8 25.1-6.3 37.7-8.5 12.5-2.2 25-4 37.3-5.7 12.3-1.7 24.5-3.2 36.4-4.8 23.9-3.1 47-6.1 68.8-9.4 21.8-3.4 42.3-7 61.1-11.2 18.8-4.2 35.8-8.9 50.5-14 14.7-5.1 27.2-10.7 36.9-16.3 4.9-2.7 9.1-5.5 12.7-7.9 1.7-1.3 3.4-2.4 4.9-3.6 1.4-1.2 2.8-2.2 3.9-3.2s2.1-1.9 3-2.6c.8-.8 1.5-1.5 2.1-2l1.7-1.7s-.6.6-1.6 1.7c-.5.6-1.2 1.3-2 2.1s-1.8 1.7-2.9 2.8c-1.1 1.1-2.4 2.1-3.8 3.3-1.4 1.2-3 2.4-4.7 3.8-3.5 2.6-7.6 5.6-12.5 8.4-9.6 5.9-22 11.9-36.7 17.6-7.3 2.8-15.3 5.5-23.7 8.1-8.4 2.6-17.4 5-26.8 7.3-18.8 4.6-39.3 8.8-61.2 12.4-21.8 3.7-44.9 7.1-68.8 10.4-23.9 3.3-48.6 6.7-73.4 11-12.4 2.3-24.8 4.8-36.8 8.4-6 1.9-11.9 4-17.2 6.8l-1.1.6-1 .5-2.1 1.2c-1.4.8-2.9 1.6-4.4 2.3-3 1.5-6.1 2.9-9.4 3.9-1.7.5-3.5.9-5.4 1.1-.5 0-1 .1-1.5.1s-1.1 0-1.6-.1c-1.1-.2-2.3-.5-3.5-1.1-1.2-.6-2.2-1.7-3-2.7-.7-1.1-1.1-2.3-1.4-3.4-.5-2.2-.4-4.1-.2-5.9.4-3.6 1.4-6.9 2.4-10.1 1.1-3.2 2.3-6.2 3.6-9.2 2.6-6 5.5-11.8 8.5-17.5 3-5.7 6.2-11.3 9.4-16.7 6.4-11 13.1-21.7 19.8-32.1 6.7-10.5 13.5-20.7 20.3-30.7 6.8-10 13.4-19.8 20.1-29.3 6.6-9.5 13.2-18.8 19.9-27.7 1.7-2.2 3.4-4.4 5-6.6l5.1-6.3c.8-1 1.7-2.1 2.5-3.1.9-1 1.7-2 2.6-3l5.1-6c1.8-1.9 3.5-3.9 5.2-5.8.9-1 1.7-1.9 2.6-2.8.9-.9 1.8-1.8 2.6-2.7 1.7-1.8 3.5-3.6 5.2-5.4 1.8-1.7 3.5-3.5 5.2-5.2 7-6.8 13.8-13 20.7-18.6 3.4-2.8 6.9-5.4 10.2-8 3.4-2.4 6.7-4.9 10-7 6.5-4.4 12.8-8.3 18.8-11.5 6-3.2 11.6-6 16.8-8.2 10.4-4.4 19-6.7 24.9-7.9 3-.6 5.3-.9 6.8-1.1 1.4-.1 2.2-.2 2.2-.2"/><path clip-path="url(#b)" fill="#D9D9D8" d="M472.4 341.1s-43.3 34.7-127.3 52c-66.7 11.3-186 26-202 32s-27.3 7.3-45.3 16.7c-8 4-12.7 7.3-18 5.3-.7 8 94.7 32 168-6.7 72.6-32 223.9-56 224.6-99.3"/><path clip-path="url(#b)" fill="#E8AE4A" d="M701.7 44.4s.7 12-.7 17.3c12.7-3.3 31.3-10.7 31.3-10.7s-2.6-5.9-30.6-6.6m-88-29.3s22.7-7.3 47.3 8.7c-12.7-3.3-42.7-4.7-45.3 2.7-1.3-5.4-2-11.4-2-11.4"/><path clip-path="url(#b)" fill="#282726" d="M244.4 215.1c-.3 1.3-.4 2.6-.3 4 .1 1.3.4 2.6 1.1 3.8.3.6.7 1.1 1.1 1.6l.7.7c.2.2.5.4.8.6l.8.5.9.4c.6.2 1.2.5 1.8.6.6.2 1.3.3 1.9.4.7.1 1.3.2 2 .2s1.3.1 2 0c.7 0 1.3 0 2-.1.7 0 1.3-.1 2-.2s1.3-.2 2-.3c.6-.1 1.3-.2 1.9-.4l1.9-.4c.3-.1.5.1.7.3l2.6 3.9 2.7 3.8 2.8 3.7c1 1.2 2 2.4 3 3.5 1.1 1.1 2.1 2.3 3.3 3.3l1.7 1.5.9.8c.3.2.6.5.9.7 1.2.9 2.4 1.9 3.8 2.6l2 1.2c.7.4 1.4.7 2.1 1 .7.3 1.4.7 2.1 1l2.1.8c1.4.6 2.9.9 4.4 1.3l1.1.3c.4.1.8.1 1.1.2l2.3.4 1.1.2c.4.1.8.1 1.1.1l2.3.2c1.5.2 3.1.1 4.6.1h2.3l2.3-.2c1.5-.1 3.1-.2 4.6-.4l4.6-.6c.6-.1 1.2.3 1.5.8 1.3 2.7 2.6 5.5 4 8.1.7 1.3 1.4 2.6 2.2 3.9.8 1.3 1.6 2.5 2.4 3.7.9 1.2 1.8 2.3 2.8 3.4l1.5 1.5c.6.5 1.1 1 1.7 1.4 1.1.9 2.4 1.6 3.6 2.3 1.3.6 2.6 1.2 4 1.6 1.4.5 2.8.8 4.2 1.1l2.2.4 2.2.3 2.2.2 2.2.2c1.5.1 3 .1 4.5.2 6 .1 12.1-.2 18.2-.6.8 0 1.4.5 1.5 1.2v.1l.3 2.2c.1.7.3 1.4.5 2.2l.3 1.1.4 1c.3.7.5 1.4.8 2.1.7 1.3 1.2 2.7 2.1 3.9.4.6.7 1.3 1.2 1.9l1.4 1.8c.4.6 1 1.1 1.5 1.6l1.6 1.6 1.8 1.4c.6.4 1.1 1 1.8 1.3l1.9 1.2 1 .6c.3.2.7.3 1 .5l2 1 1 .5c.3.2.7.3 1.1.4l2.1.7c.7.2 1.4.5 2.2.7l4.4 1 4.5.6c1.5.3 3 .3 4.6.3l2.3.1h2.3l4.6-.2c1.5 0 3.1-.3 4.6-.4l4.6-.5c.2 0 .3 0 .4.1 3 1.5 5.9 3.1 8.9 4.7l4.4 2.3c1.5.8 3 1.5 4.5 2.2 1.5.7 3 1.3 4.6 1.9 1.6.6 3.2 1 4.8 1.4.8.2 1.6.3 2.4.5l2.5.4c1.6.2 3.3.5 5 .6-1.7-.1-3.3-.2-5-.4-1.7-.2-3.3-.4-5-.7-1.6-.3-3.3-.7-4.9-1.2-1.6-.5-3.2-1.1-4.7-1.7-1.5-.6-3.1-1.3-4.6-2.1l-4.5-2.2-9-4.4.5.1-4.7.6c-1.6.2-3.1.5-4.7.5l-4.7.3-1.2.1h-1.2l-2.4-.1c-1.6-.1-3.1 0-4.7-.2s-3.1-.3-4.7-.5l-4.7-1c-.8-.1-1.5-.4-2.3-.7l-2.3-.7c-.4-.1-.8-.2-1.1-.4l-1.1-.5-2.2-1c-.4-.2-.7-.3-1.1-.5l-1-.6-2.1-1.2c-.7-.4-1.3-.9-2-1.4l-1.9-1.5-1.7-1.7c-.6-.6-1.2-1.1-1.7-1.8l-1.5-1.9c-.5-.6-.9-1.3-1.4-2-.9-1.3-1.6-2.8-2.3-4.3-.3-.7-.6-1.5-.9-2.3l-.4-1.1-.3-1.2c-.2-.8-.5-1.6-.5-2.4l-.4-2.4 1.5 1.3c-6.1.4-12.2.7-18.4.6-1.5 0-3.1-.1-4.6-.1l-2.3-.2-2.3-.2-2.3-.3-2.3-.4c-1.5-.3-3.1-.7-4.6-1.2-1.5-.5-3-1.1-4.4-1.8-1.4-.8-2.8-1.6-4.1-2.6-.7-.5-1.2-1-1.9-1.6-.6-.6-1.2-1.1-1.7-1.7-1.1-1.2-2.1-2.4-3-3.7-3.6-5.2-6.2-10.8-8.8-16.3l1.5.8-4.7.6c-1.6.2-3.2.3-4.8.4l-2.4.1h-2.4c-1.6 0-3.2 0-4.8-.2l-2.4-.2c-.4 0-.8-.1-1.2-.1l-1.2-.2-2.4-.5c-.4-.1-.8-.1-1.2-.2l-1.2-.3c-1.5-.5-3.1-.8-4.6-1.5l-2.2-.9c-.7-.3-1.4-.7-2.2-1.1-.7-.4-1.4-.7-2.1-1.1l-2-1.3c-1.4-.8-2.6-1.9-3.9-2.9-.3-.3-.6-.5-.9-.7l-.9-.8-1.8-1.6c-1.2-1.1-2.2-2.3-3.3-3.5-1-1.2-2-2.5-3-3.7l-2.8-3.8c-.9-1.3-1.8-2.6-2.6-3.9l-2.5-4 .7.3-2 .4c-.7.1-1.3.2-2 .3-.7.1-1.3.2-2 .2-.7.1-1.3.1-2 .1s-1.4.1-2 0c-.7 0-1.4 0-2-.1-.7 0-1.4-.2-2-.3-.7-.1-1.3-.3-2-.5s-1.3-.4-1.9-.7l-.9-.5-.9-.6c-.3-.2-.5-.4-.8-.7-.2-.3-.5-.5-.7-.8-.4-.5-.8-1.1-1.1-1.7-.6-1.2-.9-2.6-.9-3.9.2-1.2.3-2.6.7-3.8m335-100.4l2.4 3.6c.8 1.2 1.6 2.4 2.3 3.6.8 1.2 1.6 2.4 2.3 3.6.8 1.2 1.5 2.4 2.3 3.5.8 1.1 1.6 2.3 2.4 3.3.2.2.4.5.6.6l.1.1s-.1-.1-.2-.1h-.2l-.3-.1h.3c-.1 0 .1-.1.2-.1.2-.1.5-.2.7-.3 1.1-.5 2.2-1.2 3.2-2 .5-.4 1-.8 1.4-1.2l.3-.3.2-.2.1-.1-.1.1c-.1.2-.1.4-.1.6l4.6-.9c.1.2.2.5.4.7.1.2.3.4.4.6.1.2.4.4.5.6.2.2.4.4.6.5.2.2.4.3.7.5.2.2.5.3.7.4.3.1.5.2.8.3.3.1.5.2.8.2.3.1.6.1.8.1.3 0 .6.1.8 0 .3 0 .6 0 .8-.1.3 0 .5-.1.7-.2l.3-.1.3-.1c.2-.1.4-.2.5-.3.2-.1.2-.3.4-.4.1-.1.2-.3.3-.4l.7-.8c.8-.9 2.2-1 3.1-.1l.1.1c.3.3.8.7 1.3 1 .6.3 1.2.6 1.8.8 1.3.5 2.7.8 4.1 1 .7.1 1.4.1 2.1.1.7 0 1.3-.1 1.9-.2.3-.1.5-.2.8-.3.2-.1.4-.2.6-.4.2-.1.3-.3.4-.4.1-.2.2-.4.2-.6l.1-.3c.2-.9 1.1-1.4 2-1.1.6.2 1 .6 1.1 1.2.1.3.1.5.2.8.1.2.1.5.3.7l.2.4.2.3c.1.2.3.4.4.6l.5.5c.2.1.4.3.6.3.2.1.5.1.7.2h.8l.8-.2c.3-.1.5-.2.8-.4l.8-.5c.3-.1.5-.4.8-.6.5-.4 1-.9 1.5-1.3.3-.2.5-.5.7-.7l.7-.7-.5.9c-.2.3-.3.6-.5.9l-.6.9c-.2.3-.4.6-.6.8-.2.3-.4.6-.7.8-.3.2-.5.5-.8.7l-.9.6c-.3.2-.7.3-1.1.5l-1.2.3c-.4 0-.8.1-1.3 0-.4 0-.8-.2-1.3-.3-.4-.2-.8-.4-1.1-.6-.3-.3-.7-.5-.9-.9l-.4-.5-.3-.5c-.2-.3-.4-.7-.6-1.1-.2-.4-.3-.8-.4-1.1l3.2-.2c0 .6-.1 1.1-.3 1.7-.2.6-.5 1.1-.9 1.5-.4.5-.8.8-1.3 1.1-.5.3-.9.5-1.4.7-.9.4-1.9.5-2.8.6-.9.1-1.8.1-2.7.1-1.8-.1-3.5-.4-5.2-.9-.9-.3-1.7-.6-2.6-1-.9-.4-1.7-.9-2.6-1.8l4-.8c-.3.5-.5 1.1-.8 1.5-.4.4-.7.9-1.2 1.3-.4.4-.9.7-1.4.9-.2.1-.5.2-.7.4l-.7.2c-.5.2-1 .3-1.5.3-.5.1-1 .1-1.4.1-.5 0-.9 0-1.4-.1-.5 0-.9-.1-1.4-.2-.5-.1-.9-.2-1.3-.4-.4-.1-.9-.3-1.3-.5s-.8-.4-1.2-.7c-.4-.2-.8-.5-1.2-.8-.4-.3-.7-.6-1.1-1-.3-.4-.7-.7-.9-1.1-.3-.4-.6-.8-.8-1.2l-.6-1.3 4.6-.9c0 .4-.1.7-.2 1.1 0 .1-.1.2-.1.2l-.1.1-.1.3c-.1.2-.2.3-.3.5l-.3.3-.5.5c-.2.2-.3.3-.5.4-.7.6-1.3 1-2 1.4-1.3.8-2.7 1.5-4.2 2.1-.4.1-.8.3-1.3.4-.3.1-.4.1-.8.1h-1.8l-.2-.1c-.1-.1-.4-.2-.4-.2-.1-.1-.3-.2-.4-.4l-.3-.3c-.3-.4-.6-.7-.8-1-.9-1.3-1.5-2.6-2.2-3.9l-1.8-3.9c-.6-1.3-1.1-2.6-1.7-4-.5-1.3-1.1-2.7-1.6-4 0-1.1-.5-2.5-.9-3.9"/></svg>