<svg xmlns="http://www.w3.org/2000/svg" xmlns:xlink="http://www.w3.org/1999/xlink" viewBox="0 0 719.7 864.7"><defs><path id="a" d="M0 0h719.7v864.7H0z"/></defs><clipPath id="b"><use xlink:href="#a" overflow="visible"/></clipPath><path clip-path="url(#b)" fill="#282726" d="M636.2 102.2c-5.1-2-11.2-3.2-16.1-2.3-1.2.2-2.3.6-3.3 1.1-.9.5-1.7 1.2-2.4 1.9-1.3 1.5-2 3.6-2.3 6-.3 2.4-.2 5.1.2 7.8l.3 2.1c.1.7.2 1.4.4 2.1l.5 2.1.1.5.2.9.2 1.1c.3 2 .5 3.8.4 6 0 .6-.1 1.1-.2 1.7l-.1.9c-.1.3-.1.6-.2.9-.3 1.3-.9 2.7-1.7 4-.8 1.3-1.9 2.5-3 3.3-1.1.8-2 1.4-2.8 1.9-1.5.9-2.3 1.4-2.6 1.7-.3.3-.4.5-.6 1.2-.2.6-.4 1.6-.5 2.7v.9c0 .1 0 0 0 0v-.3l.1.3c.1.2.1.4.2.7.3 1 .9 2.3 1.5 3.6 2.5 5.2 5.5 10.5 8.6 15.8l18.8 32.1c12.5 21.6 24.5 43.5 35.4 66 10.9 22.5 20.8 45.6 29 69.4 8.2 23.7 14.8 48.1 18.9 73.1 2 12.5 3.5 25.1 4.1 37.7l.2 4.7v4.9c.1 3-.2 6.5-.3 9.8-.1 1.7-.3 3.3-.5 4.9l-.3 2.4c-.1.8-.3 1.6-.4 2.4l-.8 4.8-1.1 4.8c-1.5 6.3-3.4 12.6-5.9 18.6-1.1 3.1-2.6 6-3.9 8.9l-2.2 4.3c-.4.7-.7 1.4-1.1 2.2l-1.2 2.1c-3.2 5.7-6.8 11-10.6 16.2-2 2.5-3.9 5.1-6 7.6-1 1.2-2 2.5-3.1 3.7l-3.2 3.6c-17.4 18.8-37.9 34.1-59.6 47-21.6 13-44.5 23.6-67.9 32.5-23.4 9-47.4 16.3-71.7 22.3-24.3 6-48.9 10.5-73.7 13.6-24.8 3.1-49.8 4.9-74.8 4.8-3.1 0-6.3 0-9.4-.1-3.1-.1-6.3-.2-9.4-.3-3.1-.1-6.3-.3-9.4-.5h-.6l-.7-.1-1.2-.1-2.3-.2c-1.6-.1-3.1-.2-4.7-.4-3.2-.4-6.4-.7-9.5-1.3-3.1-.4-6.3-1.1-9.4-1.7-6.2-1.4-12.4-2.9-18.4-4.9-6-2-12-4.3-17.8-7-5.8-2.7-11.4-5.8-16.8-9.2-10.8-6.9-20.6-15.2-29.2-24.5-8.7-9.4-16-19.8-22.3-30.8-6.3-11-11.4-22.6-15.5-34.5-4.1-11.9-7.3-24.1-9.5-36.5-1.1-6.2-2.1-12.4-2.8-18.7-.4-3.1-.6-6.3-.9-9.4-.2-3.2-.4-6.3-.4-9.5l2.2 3.2c-5.9-2-11.3-4.7-16.6-7.7-5.2-3-10.2-6.4-15-10-4.8-3.6-9.4-7.4-13.9-11.3-4.5-3.9-8.9-8-13.1-12.1-16.9-16.7-32.2-35-45.9-54.4-6.8-9.7-13.3-19.7-19.2-30.2-2.9-5.2-5.8-10.6-8.3-16-2.6-5.5-5-11.1-7-17S.5 317.9 0 311c-.1-.9-.1-1.7-.1-2.6v-2.7l.1-1.4.2-1.4.1-.7v-.4l.1-.7.2-1.1.1-.3c0-.1 0-.2.1-.3l.3-.9.6-1.8c.5-1.1.9-2.2 1.7-3.2.6-1.1 1.5-2.1 2.4-3 .9-.9 1.9-1.8 3-2.4 1.1-.7 2.1-1.2 3.2-1.7.5-.2 1.1-.4 1.6-.6l.8-.3.8-.2c.5-.1 1-.2 1.6-.3l1.5-.2c1-.2 1.9-.2 2.9-.2 3.8-.1 7.1.3 10.4.9 6.4 1.2 12.3 3 18 5 11.4 4 22.3 8.7 33.1 13.4 10.8 4.7 21.4 9.5 32.1 14.1 21.3 9.2 42.8 18 64.7 24.1 5.5 1.5 11 2.9 16.5 4 2.8.6 5.5 1.1 8.3 1.5l4.1.6 4.3.5c5.5.6 11.3 1.1 17 1.4 5.7.3 11.5.5 17.2.6 23 .4 46.2-.8 69.2-3.3s45.8-6.3 68.1-12c11.1-2.9 22.1-6.2 32.8-10.2 10.7-4.1 21.1-8.8 30.7-14.6 9.6-5.8 18.6-12.6 25.6-20.9 7.1-8.2 11.9-18.1 13.3-28.6.1-1.3.4-2.6.4-4 .1-1.3.2-2.7.1-4 0-1.3 0-2.7-.2-4-.1-1.4-.2-2.6-.4-4.1l-2.1-17.4c-1.4-11.6-2.7-23.3-3.7-35.1-1-11.7-1.7-23.5-1.8-35.4v-4.5l.1-4.5c0-3 .3-6 .4-8.9.4-6 1-11.9 2.1-17.9.4-3 1.2-5.9 1.8-8.9.4-1.5.8-2.9 1.2-4.4l.6-2.2.8-2.2c.5-1.4 1-2.9 1.6-4.3l1.8-4.3c.6-1.4 1.4-2.8 2.1-4.1.4-.7.7-1.4 1.1-2l1.2-2c1.6-2.7 3.5-5.1 5.5-7.6l3.2-3.5c.5-.6 1.1-1.1 1.7-1.6l1.7-1.6c.6-.5 1.1-1.1 1.8-1.6l1.9-1.4c1.3-.9 2.5-1.9 3.8-2.7l4-2.5 4.1-2.1c.7-.3 1.4-.7 2.1-1l2.1-.9c1.4-.6 2.8-1.2 4.3-1.7 2.9-.9 5.8-1.9 8.8-2.6 1.5-.3 3-.7 4.4-1l4.5-.8 2.2-.4.6-.1.5-.1 1.1-.1 2.2-.3 2.3-.2c11.9-1.2 24.1-1.2 36.1 1 11.9 2.2 23.8 6.6 33.8 14.1 5 3.8 9.5 8.3 13 13.6 1.7 2.7 3.3 5.6 4.2 9 .4 1.7.9 3.5.6 5.9-.1.6-.2 1.3-.5 2-.2.4-.3.8-.6 1.2-.2.4-.6.8-1 1.2-.4.4-.9.7-1.5.9-.3.1-.5.2-.8.3-.3.1-.5.1-.8.1-.5.1-.9 0-1.4 0-.4 0-.8-.1-1.2-.2-.1 0-.2-.1-.3-.1l.1.1zm.4-8c-.1-.3-.1-.7-.2-1.1-.7-2.3-1.9-4.6-3.3-6.8-2.9-4.4-6.8-8.3-11.2-11.6-8.8-6.6-19.5-10.5-30.5-12.5-11-1.9-22.5-2-33.8-.7l-2.1.2-2.2.3-1.1.1-.5.1-.5.1-2.1.4-4.2.7c-1.4.3-2.7.7-4.1 1-2.8.6-5.4 1.6-8 2.4-1.3.4-2.6 1-3.9 1.5l-1.9.8c-.6.2-1.2.6-1.8.9l-3.7 1.9-3.5 2.2c-1.2.7-2.2 1.6-3.3 2.4l-1.6 1.2c-.5.4-1 .9-1.5 1.4l-1.5 1.4c-.5.5-1 .9-1.5 1.4l-2.7 3c-1.6 2.2-3.4 4.3-4.7 6.7l-1.1 1.7c-.4.6-.6 1.2-1 1.8-.6 1.2-1.3 2.4-1.8 3.7l-1.6 3.8c-.5 1.3-.9 2.6-1.4 3.9l-.7 2-.6 2c-.4 1.4-.8 2.7-1.1 4.1-.6 2.8-1.2 5.5-1.6 8.3-1.8 11.2-2.3 22.7-2 34.2.2 11.5 1.1 23.1 2.2 34.6 1.2 11.6 2.6 23.1 4.1 34.7l2.4 17.4c.2 1.4.4 3.1.5 4.6.2 1.6.2 3.2.3 4.7.1 1.6 0 3.2-.1 4.8 0 1.6-.3 3.2-.4 4.8-.8 6.3-2.6 12.6-5.2 18.4-2.6 5.8-6.1 11.2-10.1 16-8 9.7-17.9 17.3-28.2 23.7-10.3 6.4-21.3 11.5-32.4 15.9-11.1 4.4-22.5 8-34 11.1-23 6.2-46.3 10.4-69.8 13.2-23.5 2.8-47.1 4.3-70.9 4.2-5.9 0-11.9-.2-17.8-.4-6-.3-11.9-.7-18-1.3l-4.4-.5-4.5-.6-9-1.5c-5.9-1.2-11.8-2.6-17.6-4.1-11.6-3.2-22.9-7-34-11.1-11.1-4.1-22-8.7-32.8-13.3-10.8-4.6-21.5-9.4-32.2-14.1-10.7-4.6-21.3-9.2-32-12.9-5.3-1.8-10.6-3.4-15.7-4.4-2.5-.4-5-.7-7.1-.6-2.1.1-3.7.5-4.3 1-.3.2-.5.4-.7.8-.1.1-.2.4-.4.7 0 .1 0 .2-.1.2 0 0 0 .1-.1.1 0 0 0 .1-.1.2l-.1.3-.2 1.1c0-.1-.1.6 0-.1v.6l-.1.7v2.5c0 .6 0 1.2.1 1.8.4 4.8 1.7 10 3.4 15.2 1.7 5.2 3.8 10.4 6.2 15.5 2.3 5.1 4.9 10.2 7.6 15.2 5.4 10 11.4 19.8 17.8 29.4C63.4 404.7 77.5 423 93.1 440c7.8 8.4 15.9 16.6 24.6 24 4.3 3.7 8.8 7.2 13.5 10.4 2.3 1.6 4.7 3.1 7.1 4.5 2.4 1.4 4.9 2.7 7.4 3.8 1.4.6 2.2 1.9 2.2 3.2 0 2.9.2 6 .4 9s.5 6.1.9 9.1c.7 6.1 1.6 12.1 2.8 18.1 2.3 12 5.4 23.9 9.5 35.4 8.1 23 20.1 44.7 36.7 62.4 8.3 8.8 17.6 16.6 27.8 23 5.1 3.2 10.4 6 15.9 8.6 5.5 2.5 11.1 4.7 16.9 6.5 5.7 1.9 11.6 3.3 17.5 4.5 3 .6 5.9 1.1 9 1.5 3 .5 6 .8 9 1.1 1.5.2 3.1.3 4.6.4l2.3.2 1.2.1h1.1c3.1.1 6.1.3 9.2.4 3.1.1 6.1.2 9.2.2 3.1.1 6.1.1 9.2 0 24.6-.1 49.2-2.1 73.6-5.4 24.4-3.3 48.6-8 72.5-14.1s47.4-13.5 70.2-22.5c22.8-9 45.1-19.6 65.9-32.2 20.8-12.7 40.4-27.5 56.6-45.3l3-3.4c1-1.1 1.9-2.3 2.9-3.4 1.9-2.3 3.7-4.7 5.5-7.1 3.5-4.8 6.8-9.8 9.7-15l1.1-1.9c.4-.7.7-1.3 1-2l2-4c1.2-2.7 2.5-5.4 3.5-8.1 2.2-5.5 3.9-11.1 5.2-16.9l.9-4.3.7-4.4c.1-.7.2-1.4.3-2.2l.2-2.2c.1-1.5.3-2.9.4-4.4.1-2.9.3-5.6.2-8.8v-4.5l-.2-4.5c-.7-12.1-2.2-24.2-4.2-36.2-4.1-24-10.6-47.7-18.7-70.8-8.1-23.1-17.9-45.7-28.6-67.8-10.8-22.1-22.6-43.7-35-65.1L601 178c-3.1-5.5-6.3-10.8-9.2-16.9-.7-1.6-1.4-3.1-2.1-5-.2-.4-.3-1-.5-1.5l-.2-.8c-.1-.4-.2-.9-.2-1.3l-.1-.7c0-.2-.1-.5-.1-.6v-1.9l.1-.7c.2-2 .5-4 1.4-6.3.8-2.2 2.4-4.8 4.4-6.5 2-1.8 4.1-2.7 5.2-3.3.6-.3.9-.5 1.1-.6l.2-.1c.1.1.3-.4.5-1.3s.2-2.2.1-3.3l-.1-1.2v-.3s-.1-.5 0 0l-.1-.6-.3-2.5c-.1-.8-.1-1.7-.2-2.5 0-.9-.1-1.7-.1-2.6 0-3.5.2-7 1.1-10.7.2-.9.5-1.8.9-2.7l.5-1.4c.2-.5.5-.9.7-1.3.9-1.8 2.2-3.5 3.7-5 1.6-1.4 3.4-2.6 5.2-3.4 1.9-.7 3.8-1.2 5.6-1.4 3.7-.4 7.2-.1 10.6.6 1.7.3 3.3.8 4.9 1.2 1.1.3 1.9.5 2.6.8"/><path clip-path="url(#b)" fill="#282726" d="M578.2 75.2s.4.5.7 1.4c.4 1 .8 2.4.8 4.2 0 .9-.1 1.9-.3 2.9-.2 1-.6 2.1-1.1 3.2-.5 1.1-1.2 2.1-2.1 3.1-.9 1-1.9 1.8-3 2.5-.6.3-1.1.7-1.7.9-.6.3-1.1.5-1.7.7-.6.2-1.2.3-1.7.5-.6.1-1.1.2-1.7.3-.6.1-1.1.1-1.6.1h-1.5c-.5-.1-1-.1-1.4-.2-.5-.1-.9-.2-1.3-.3-.8-.2-1.6-.4-2.2-.7-.7-.2-1.2-.5-1.7-.7-.9-.5-1.4-.8-1.4-.8s.6-.3 1.5-.6c.5-.2 1-.3 1.6-.6.6-.2 1.3-.4 2-.7.7-.2 1.5-.5 2.3-.8.4-.1.8-.3 1.2-.4.4-.2.8-.3 1.2-.4.8-.3 1.6-.6 2.3-1 .4-.2.8-.4 1.1-.6.4-.2.7-.4 1-.6.7-.4 1.3-.9 1.9-1.4.6-.5 1.1-1 1.7-1.6 1-1.1 1.9-2.4 2.7-3.7.7-1.2 1.3-2.4 1.8-3.3.3-.9.6-1.4.6-1.4m29.5-12.5c-.7-5-1.8-9.8-3.1-14.6-.7-2.4-1.4-4.7-2.2-7.1-.8-2.3-1.8-4.6-2.7-6.8-.5-1.1-1-2.2-1.6-3.3l-.8-1.6-.9-1.6c-1.2-2.1-2.6-4.1-4-6-.7-.9-1.5-1.8-2.3-2.7l-1.2-1.3c-.4-.4-.8-.9-1.3-1.2-.9-.8-1.7-1.6-2.7-2.3l-1.4-1-1.5-.9-1.5-.9-1.5-.8c-1-.6-2.1-.9-3.1-1.4-2.1-.8-4.3-1.4-6.6-1.8-1.1-.3-2.3-.3-3.4-.4-1.1-.2-2.3-.1-3.5-.2h-1.7l-1.8.1-1.7.1h-.6.1-.2l-.5.1h-.3c-.2.1-.6.2-1 .4-.3.2-.7.3-1 .6-.6.5-1.2 1.1-1.7 1.8-1 1.5-1.6 3.5-1.8 5.5-.5 4.1.7 8.5 3.1 11.4 1.2 1.5 1 3.6-.4 4.8-.9.8-2.1 1-3.2.7-.8-.2-1.6-.5-2.5-.7-.8-.2-1.7-.4-2.5-.6-.8-.2-1.7-.3-2.5-.5-.8-.1-1.6-.3-2.5-.3-.8-.1-1.6-.1-2.4-.1-.8 0-1.6 0-2.4.1-.8.1-1.5.2-2.3.4-.7.2-1.4.4-2.1.7-.7.3-1.3.6-1.9 1-.6.4-1.1.9-1.6 1.4-.5.5-1 1.1-1.4 1.7-.4.6-.8 1.3-1.1 2-.3.7-.6 1.4-.8 2.2-.2.8-.4 1.5-.5 2.4-.1.8-.2 1.6-.2 2.5v2.6c0 1.4-1 2.5-2.4 2.5h-.6c-.7-.1-1.4-.3-2.2-.3-.7 0-1.5 0-2.2.2-.8.1-1.5.3-2.3.6-.7.3-1.5.6-2.2 1-.4.2-.7.4-1 .6l-1 .7-1 .8c-.3.3-.6.5-.9.8-.6.6-1.1 1.2-1.6 1.8-.5.7-1 1.3-1.3 2.1-.4.7-.7 1.5-1 2.3-.1.4-.3.8-.3 1.2-.1.4-.2.8-.2 1.2-.1.4-.1.8-.1 1.2 0 .4-.1.8 0 1.3 0 .4 0 .8.1 1.3 0 .4.1.8.2 1.3l.3 1.2c.1.4.2.8.4 1.2.3.8.7 1.6 1.1 2.4.5.7.9 1.5 1.5 2.2.5.7 1.1 1.4 1.7 2.1-.7-.6-1.4-1.1-2.1-1.8-.7-.6-1.3-1.3-1.9-2l-.8-1.1c-.3-.4-.5-.8-.7-1.2-.3-.4-.4-.8-.6-1.3-.2-.4-.4-.9-.5-1.3-.2-.4-.3-.9-.4-1.4-.1-.5-.2-.9-.3-1.4-.1-.5-.1-1-.2-1.4v-1.5c0-.5.1-1 .1-1.5s.1-1 .3-1.4c.2-1 .5-1.9.9-2.8.7-1.8 1.8-3.5 3-5.1.3-.4.7-.7 1-1.1l1.1-1 1.1-1 1.2-.9c.8-.5 1.7-1 2.6-1.5.9-.4 1.9-.8 2.9-1 1-.3 2.1-.4 3.1-.5 1.1-.1 2.1 0 3.2.2l-2.9 2.6c-.1-1-.2-2-.2-3s0-2 .1-3 .2-2 .4-3 .5-2 .9-3 .8-2 1.4-2.9c.5-.9 1.2-1.8 1.9-2.7.7-.8 1.6-1.6 2.4-2.3.9-.7 1.8-1.2 2.8-1.7 1-.5 2-.9 3-1.2 1-.3 2.1-.5 3.1-.7 1-.2 2.1-.2 3.1-.3 1 0 2 0 3 .1 1 0 2 .2 3 .3 1 .1 1.9.3 2.9.5s1.9.4 2.8.6c.9.2 1.9.5 2.8.8l-3.6 5.5c-2.1-2.3-3.4-5.1-4.2-8-.8-2.8-1-5.8-.7-8.7.3-2.9 1.2-5.9 2.9-8.6.9-1.3 2-2.6 3.4-3.6.7-.5 1.4-.9 2.2-1.3.8-.3 1.6-.6 2.6-.8l.3-.1h.2l.5-.1h1.1l2-.1 2-.1 2 .1c1.3.1 2.7 0 4 .3 1.3.2 2.7.3 4 .6 2.6.6 5.3 1.3 7.7 2.4 1.2.6 2.5 1.1 3.6 1.8l1.8 1c.6.4 1.1.8 1.7 1.1.5.4 1.1.8 1.6 1.2l1.5 1.3c1 .8 1.9 1.8 2.9 2.8.5.5.9 1 1.3 1.5l1.3 1.5c.8 1 1.6 2.1 2.3 3.2l2.1 3.3c.6 1.2 1.3 2.3 1.8 3.5l.8 1.8.7 1.8c.5 1.2.9 2.4 1.4 3.6.4 1.2.8 2.4 1.2 3.7.3 1.2.7 2.5 1 3.7.6 2.5 1.1 5 1.5 7.5.4 2.5.6 5 .8 7.5.5 2.4.6 4.9.5 7.5m-22 333.5s-.8 1.6-2.5 4.7c-1.7 3-4.3 7.4-7.8 12.8s-8 11.9-13.5 19.1c-5.5 7.2-11.9 15.1-19.5 23.2-7.5 8.2-16.1 16.7-25.7 25.1-9.7 8.4-20.3 16.7-32 24.3-11.7 7.6-24.3 14.8-37.8 20.7-13.4 6-27.6 10.8-42.2 14.4-7.3 1.7-14.6 3.1-22 4.2s-14.8 1.7-22.1 2.2c-7.3.4-14.7.4-21.9.1l-5.4-.3c-1.8-.1-3.6-.2-5.3-.4-1.8-.2-3.5-.3-5.3-.5l-.7-.1c-.2 0 .2 0-.5-.1h-.2l-.3-.1-1.3-.3c-.9-.2-1.7-.3-2.5-.5-1.7-.4-3.5-.9-5.3-1.4-.8-.3-1.7-.6-2.5-.9-.8-.3-1.7-.6-2.5-1-1.6-.7-3.3-1.4-4.8-2.3-.8-.4-1.6-.8-2.3-1.3-.7-.5-1.5-1-2.2-1.5-.4-.3-.7-.5-1.1-.8l-1-.8c-.7-.6-1.4-1.1-2.1-1.7-.6-.6-1.3-1.2-1.9-1.9l-.9-.9-.8-1c-2.3-2.6-4.1-5.7-5.4-8.9l-.9-2.4c-.3-.8-.5-1.6-.7-2.4-.5-1.6-.6-3.3-.9-4.9-.1-.8-.1-1.6-.1-2.5 0-.8-.1-1.6 0-2.4.1-1.6.1-3.2.4-4.8 1-6.2 3.1-11.9 5.8-16.9 2.6-5 5.7-9.5 9-13.5 1.6-2 3.3-3.8 4.9-5.6 1.6-1.8 3.4-3.4 5-5 6.6-6.3 12.9-11 18.2-14.7 1.3-.9 2.6-1.8 3.8-2.6 1.2-.8 2.4-1.5 3.4-2.2 1.1-.7 2-1.3 2.9-1.9.9-.5 1.8-1 2.5-1.5 3-1.7 4.6-2.7 4.6-2.7s-1.5 1-4.4 3c-.7.5-1.5 1-2.4 1.6-.9.6-1.8 1.3-2.8 2.1-1 .7-2.1 1.5-3.2 2.4-1.1.9-2.3 1.8-3.6 2.8-5 4-11 9-17.2 15.5-1.5 1.7-3.1 3.3-4.6 5.1-1.5 1.8-3.1 3.7-4.5 5.7-.7 1-1.5 2-2.2 3.1-.7 1.1-1.4 2.1-2.1 3.2-1.3 2.2-2.7 4.5-3.8 6.9-2.3 4.8-4.1 10.2-4.7 15.7-.2 1.4-.2 2.8-.3 4.2-.1.7.1 1.4.1 2.1.1.7 0 1.4.2 2.1.3 1.4.4 2.8.9 4.2.2.7.3 1.4.6 2.1.3.7.5 1.3.8 2 1.3 2.6 2.8 5.2 4.8 7.3l.7.8c.2.3.5.5.8.8l1.7 1.5c.6.5 1.2.9 1.8 1.4l.9.7c.3.2.7.4 1 .6.7.4 1.3.8 2 1.2.7.4 1.4.7 2.1 1.1 1.4.8 2.9 1.3 4.3 2 .7.3 1.5.6 2.3.8.8.3 1.5.5 2.3.8 1.6.4 3.1.8 4.7 1.2.9.2 1.7.3 2.6.5l1.3.2.3.1h.2c-.6-.1-.1 0-.1 0h.6c1.7.1 3.4.2 5.2.4 1.7.1 3.5.2 5.2.3 1.7.1 3.5.2 5.2.2 3.5 0 7 .1 10.6 0 3.6 0 7.1-.2 10.7-.4 7.1-.5 14.3-1.1 21.5-2.2 7.2-1.1 14.3-2.5 21.4-4.2 14.1-3.4 28-8 41.1-13.8 6.6-2.9 13-5.9 19.2-9.2 6.2-3.3 12.2-6.8 18-10.4 11.6-7.3 22.3-15.2 32-23.1 4.9-4 9.4-8 13.8-12s8.5-8 12.4-11.9c7.7-7.8 14.5-15.3 20.3-22.2 5.8-6.8 10.6-13 14.4-18.2 3.8-5.2 6.7-9.3 8.6-12.2 1.7-2.5 2.7-4 2.7-4m-26.5 229.5s-.3.8-1 2.3c-.7 1.5-1.7 3.7-3.1 6.3-1.4 2.7-3.2 5.9-5.4 9.5-2.2 3.6-4.9 7.6-8 11.8-3.1 4.2-6.7 8.7-10.8 13-4.1 4.4-8.7 8.9-13.9 13-5.1 4.2-10.8 8.1-16.9 11.5-1.6.8-3.1 1.7-4.7 2.4s-3.2 1.5-4.8 2.2c-1.7.6-3.3 1.3-5 1.9-1.7.6-3.4 1.1-5.1 1.7-6.9 2-14 3.2-21.1 3.5-1.8 0-3.5.1-5.3.1-1.7-.1-3.4-.1-5-.2-3.4-.2-6.8-.4-10.1-.8-6.6-.7-12.9-1.9-18.7-3.5-5.9-1.6-11.3-3.7-16-6.2-4.7-2.5-8.7-5.4-11.8-8.4-3.1-3-5.4-6-6.9-8.7-1.6-2.7-2.3-5-2.8-6.5-.4-1.6-.5-2.4-.5-2.4s.2.8.9 2.3c.6 1.5 1.8 3.5 3.6 5.9 1.8 2.4 4.3 4.9 7.5 7.5 3.3 2.5 7.3 4.8 11.8 6.8 4.6 2 9.9 3.6 15.5 4.8 5.7 1.2 11.7 2 18 2.4 3.2.2 6.3.3 9.6.4h5c1.6 0 3.2-.1 4.8-.2 6.5-.4 13.1-1.5 19.5-3.4 6.4-1.8 12.6-4.4 18.4-7.5 5.8-3.1 11.3-6.6 16.3-10.4 5-3.8 9.7-7.8 14-11.8 1-1 2.1-2 3.1-3s2-2 2.9-3c1.9-2 3.7-3.9 5.4-5.9 3.4-3.9 6.4-7.5 8.9-10.8 2.5-3.3 4.7-6.3 6.4-8.7 1.7-2.5 3.1-4.4 3.9-5.8.9-1.4 1.4-2.1 1.4-2.1"/><path clip-path="url(#b)" fill="#282726" d="M447.7 701.7s.2.4.6 1.3c.4.8 1 2 1.7 3.6 1.4 3.1 3.3 7.5 5.5 12.9s4.6 11.7 7 18.5c1.2 3.4 2.5 6.9 3.7 10.5 1.2 3.6 2.4 7.3 3.6 10.9 1.2 3.7 2.3 7.4 3.4 11 1.1 3.6 2.1 7.2 3.1 10.7 2 7 3.6 13.5 5 19.1 1.3 5.6 2.3 10.4 3 13.7.3 1.7.6 3 .7 3.9.1.9.2 1.4.2 1.4s-.2-.4-.6-1.3c-.4-.8-1-2-1.7-3.6-1.4-3.1-3.3-7.5-5.5-12.9s-4.6-11.7-7-18.5c-1.2-3.4-2.5-6.9-3.7-10.5-1.2-3.6-2.4-7.3-3.6-10.9-1.2-3.7-2.3-7.4-3.4-11-1.1-3.6-2.1-7.2-3.1-10.7-2-7-3.6-13.5-5-19.1-1.3-5.6-2.3-10.4-3-13.7-.3-1.7-.6-3-.7-3.9-.2-1-.2-1.4-.2-1.4"/><path clip-path="url(#b)" fill="#282726" d="M437.2 828.7s.5-.1 1.4-.4c.9-.3 2.2-.7 3.9-1.1 3.4-.9 8.2-2.2 13.9-3.6 5.8-1.4 12.6-2.8 19.9-4.3 3.6-.7 7.4-1.4 11.2-2.1 3.8-.7 7.7-1.3 11.6-2l11.7-1.8c3.9-.6 7.7-1.1 11.3-1.5 7.4-.9 14.3-1.6 20.2-2.1 5.9-.5 10.9-.8 14.4-1 1.7-.1 3.1-.1 4-.1h1.4s-.5.1-1.4.4c-.9.3-2.2.7-3.9 1.1-3.4.9-8.2 2.2-14 3.6-5.8 1.4-12.6 2.8-19.8 4.3-3.6.7-7.4 1.4-11.2 2.1-3.8.7-7.7 1.3-11.6 2l-11.7 1.8c-3.9.6-7.7 1.1-11.3 1.5-7.4.9-14.3 1.6-20.2 2.1-5.9.5-10.9.8-14.4 1-1.7.1-3.1.1-4 .1-.9-.1-1.4 0-1.4 0"/><path clip-path="url(#b)" fill="#282726" d="M488.2 820.7s.4 0 1.2-.1c.8 0 1.9-.1 3.4-.1 2.9-.1 7.1-.1 12 0 5 .1 10.8.4 16.9.8 3.1.2 6.3.5 9.5.7 3.2.3 6.5.6 9.8 1 3.3.4 6.6.7 9.8 1.2 3.2.4 6.4.9 9.5 1.3 6.1.9 11.8 1.9 16.7 2.9 4.9 1 8.9 1.9 11.7 2.6 1.4.3 2.5.7 3.3.9l1.2.3s-.4 0-1.2.1c-.8 0-1.9.1-3.4.1-2.9.1-7.1.1-12 0-5-.1-10.8-.4-16.9-.8-3.1-.2-6.3-.4-9.5-.7-3.2-.3-6.5-.6-9.8-1-3.3-.4-6.6-.7-9.8-1.2-3.2-.4-6.4-.9-9.5-1.3-6.1-.9-11.8-1.9-16.7-2.9-4.9-1-8.9-1.9-11.8-2.6-1.4-.3-2.5-.7-3.3-.9-.7-.2-1.1-.3-1.1-.3m-2 .5l.9.3c.6.2 1.4.5 2.5 1 2.1.8 5.1 2.1 8.6 3.8 3.5 1.7 7.5 3.7 11.8 6.1 2.1 1.2 4.3 2.4 6.5 3.7 2.2 1.3 4.4 2.6 6.6 4 2.2 1.4 4.4 2.7 6.5 4.1 2.1 1.4 4.2 2.8 6.2 4.2 4 2.8 7.6 5.5 10.6 7.9 3.1 2.4 5.5 4.5 7.2 6.1.9.7 1.5 1.4 2 1.8l.7.7-.9-.3c-.6-.2-1.4-.5-2.5-1-2.1-.8-5.1-2.1-8.6-3.8-3.5-1.7-7.5-3.7-11.8-6.1-2.1-1.2-4.3-2.4-6.5-3.7-2.2-1.3-4.4-2.6-6.6-4-2.2-1.4-4.4-2.7-6.5-4.1-2.1-1.4-4.2-2.8-6.2-4.2-4-2.8-7.6-5.5-10.6-7.9-3.1-2.4-5.5-4.5-7.2-6.1-.9-.7-1.5-1.4-2-1.8l-.7-.7M376.7 668.7s-.1.4-.4 1.2c-.3.8-.6 1.9-1.1 3.4-1 2.9-2.4 7-4.3 11.9s-4.2 10.5-6.8 16.5c-1.3 3-2.7 6.1-4.1 9.2-1.4 3.1-2.9 6.2-4.4 9.4-1.5 3.1-3.1 6.2-4.6 9.3-1.5 3.1-3.1 6-4.6 8.9-3.1 5.7-6.1 11-8.7 15.5-2.7 4.5-5 8.2-6.7 10.7-.8 1.3-1.5 2.3-2 3-.5.7-.7 1-.7 1s.1-.4.4-1.2c.3-.8.6-1.9 1.1-3.4 1-2.9 2.4-7 4.3-11.9s4.2-10.5 6.8-16.5c1.3-3 2.7-6.1 4.1-9.2 1.4-3.1 2.9-6.2 4.4-9.4 1.5-3.1 3.1-6.2 4.6-9.3 1.5-3.1 3.1-6 4.6-8.9 3.1-5.7 6.1-11 8.7-15.5 2.7-4.5 5-8.2 6.7-10.7.8-1.3 1.5-2.3 2-3 .4-.7.7-1 .7-1"/><path clip-path="url(#b)" fill="#282726" d="M301.2 756.2s.5.2 1.5.5c1 .4 2.4.8 4.2 1.5 3.6 1.3 8.8 3.3 14.9 5.8s13.2 5.6 20.7 9c3.7 1.7 7.6 3.5 11.5 5.3 3.9 1.8 7.9 3.8 11.8 5.7 3.9 2 7.9 3.9 11.7 5.9 3.9 2 7.6 3.9 11.3 5.9 7.3 3.9 14 7.6 19.7 10.9 5.7 3.3 10.4 6.2 13.7 8.2 1.6 1 2.9 1.9 3.8 2.4.9.6 1.3.9 1.3.9s-.5-.2-1.5-.5c-1-.4-2.4-.8-4.2-1.5-3.6-1.3-8.8-3.3-14.9-5.8s-13.2-5.6-20.7-9c-3.7-1.7-7.6-3.5-11.5-5.3-3.9-1.8-7.9-3.8-11.8-5.7-3.9-2-7.9-3.9-11.7-5.9-3.9-2-7.6-3.9-11.3-5.9-7.3-3.9-14-7.6-19.7-10.9-5.7-3.3-10.4-6.2-13.7-8.2-1.6-1-2.9-1.9-3.8-2.4-.9-.6-1.3-.9-1.3-.9"/><path clip-path="url(#b)" fill="#282726" d="M326.2 768.2s.3.2 1 .5c.6.4 1.6.9 2.7 1.6 2.3 1.4 5.5 3.4 9.3 5.9 3.8 2.5 8.1 5.6 12.7 8.9 2.3 1.7 4.6 3.4 7 5.3 2.4 1.8 4.7 3.7 7.1 5.6 2.3 1.9 4.7 3.8 6.9 5.8 2.3 1.9 4.5 3.9 6.6 5.7 4.2 3.8 8.1 7.4 11.3 10.6 3.2 3.2 5.9 6 7.7 7.9.9 1 1.6 1.8 2.1 2.3.5.5.7.8.7.8s-.3-.2-1-.5c-.6-.4-1.6-.9-2.7-1.6-2.3-1.4-5.5-3.4-9.3-5.9-3.8-2.5-8.1-5.6-12.7-8.9-2.3-1.7-4.6-3.4-7-5.3-2.4-1.8-4.7-3.7-7.1-5.6-2.3-1.9-4.7-3.8-6.9-5.8-2.3-1.9-4.5-3.8-6.6-5.7-4.2-3.8-8.1-7.4-11.3-10.6-3.2-3.2-5.9-6-7.7-7.9-.9-1-1.6-1.8-2.1-2.3-.5-.6-.7-.8-.7-.8m-3.5-1.5s.3.2.8.6c.5.4 1.3 1 2.2 1.8 1.8 1.6 4.4 3.9 7.4 6.8s6.3 6.3 9.8 10.1c1.7 1.9 3.5 3.9 5.3 5.9 1.8 2 3.5 4.1 5.3 6.2 1.7 2.1 3.5 4.2 5.1 6.4 1.7 2.1 3.3 4.2 4.8 6.3 3.1 4.1 5.9 8.1 8.1 11.5 2.3 3.4 4.1 6.4 5.3 8.5.6 1 1.1 1.9 1.4 2.5.3.6.5.9.5.9s-.3-.2-.8-.6c-.5-.4-1.3-1-2.2-1.8-1.8-1.6-4.4-3.9-7.4-6.8s-6.3-6.3-9.8-10.1c-1.7-1.9-3.5-3.9-5.3-5.9-1.8-2-3.5-4.1-5.3-6.2-1.7-2.1-3.5-4.2-5.1-6.4-1.7-2.1-3.3-4.2-4.8-6.3-3.1-4.1-5.9-8.1-8.1-11.5-2.3-3.4-4.1-6.4-5.3-8.5-.6-1-1.1-1.9-1.4-2.5-.4-.6-.5-.9-.5-.9"/><path clip-path="url(#b)" fill="#E8AE4A" d="M552.6 634.5s-46.3 84.7-134.7 60.3c-16.3-4.7-28.3-12-34.3-22.3 42.7-5.7 90.3-9.7 169-38m54.2-576.3s-4.5-38-29.3-48.5c-13.5-5-28.8-7.5-27.8 6.8 0 6.5 1.5 8.5 3.5 11s-1.3 4.8-8.5 3.5-19.8-4.8-22 13.5c-.3 2.5.5 4.5-4.5 4.5s-23 6.8-12.3 24.5c13.6-10.3 44.4-29.1 100.9-15.3"/><path clip-path="url(#b)" fill="#D9D9D8" d="M307.6 542.2s161.3 39.3 270-134c-60 110.7-136 179.3-215.3 182-79.4 2.6-54.7-48-54.7-48"/><path clip-path="url(#b)" fill="#282726" d="M490.9 222.8c.7 1.6 1.7 3.1 2.7 4.5.5.7 1.1 1.4 1.7 2 .6.6 1.2 1.2 1.9 1.7s1.4 1 2.1 1.4c.7.4 1.5.8 2.3 1 .4.1.8.3 1.2.3.4.1.8.2 1.2.2.4.1.8.1 1.2.1h1.2c.8 0 1.6-.2 2.4-.3.8-.2 1.6-.4 2.4-.8.8-.3 1.5-.7 2.3-1 .7-.4 1.5-.8 2.2-1.3.7-.5 1.4-.9 2.1-1.4.7-.5 1.4-1 2-1.6.6-.6 1.3-1.1 1.9-1.7l1.9-1.8c.4-.4 1-.5 1.6-.4h.1c3.2.9 6.5 1.5 9.9 1.8 1.7.1 3.3.2 5 .1.8 0 1.6-.1 2.4-.2.8-.1 1.6-.2 2.4-.4l1.2-.3 1.1-.4 1.1-.4 1-.5c.3-.2.7-.4 1-.6l.9-.6c.3-.2.6-.5.8-.7l.8-.8c.2-.3.5-.6.7-.9l.6-.9.5-1 .4-1c.3-.7.5-1.4.7-2.2.2-.7.3-1.5.4-2.3v-.1c.2-1.1 1.2-1.8 2.3-1.7.2 0 .4.1.6.2l2.2 1.1c.7.3 1.5.6 2.2.9.7.3 1.5.5 2.3.8.8.3 1.5.4 2.3.6.8.2 1.5.3 2.3.4.4 0 .8.1 1.2.1h1.2c.8.1 1.5 0 2.3-.1.8 0 1.5-.2 2.3-.3l.6-.1.5-.2 1.1-.3c.7-.3 1.3-.6 2-.9.6-.4 1.2-.8 1.8-1.3l.8-.8c.3-.3.6-.5.8-.8l.7-.9.4-.4.3-.5.6-1 .3-.5.2-.5c.3-.7.7-1.4.9-2.2l.7-2.3v-.1c.2-.7 1-1.1 1.7-.9.2.1.3.1.5.3l1.4 1.2.7.6c.2.2.5.3.8.5.5.3 1 .7 1.5 1l1.6.8c.5.3 1.1.4 1.7.6.6.2 1.2.3 1.7.4.3.1.6.1.9.2h1.8l.9-.1c.3 0 .6 0 .9-.1l.9-.2c.6-.1 1.2-.3 1.7-.6.6-.2 1.1-.5 1.6-.8.5-.3 1-.7 1.5-1 .4-.4.9-.8 1.3-1.3s.8-.9 1.2-1.5l.5-.8.4-.8c.3-.6.4-1.2.7-1.8-.1.6-.2 1.3-.4 1.9l-.3.9-.4.9c-.3.6-.7 1.1-1 1.7-.4.5-.8 1-1.3 1.5-.5.4-1 .9-1.5 1.3-.6.4-1.1.8-1.7 1.1-.6.3-1.2.6-1.9.8l-1 .3c-.3.1-.7.1-1 .2l-1 .2h-2c-.3 0-.7-.1-1-.1-.7-.1-1.4-.1-2-.3-.6-.2-1.3-.3-2-.6l-1.9-.8c-.6-.3-1.2-.6-1.8-1-.3-.2-.6-.3-.9-.5l-.8-.6-1.6-1.2 2.2-.8-.7 2.9c-.2.9-.6 1.7-.9 2.5l-.2.6-.3.6-.6 1.2-.3.6-.4.6-.8 1.1c-.3.4-.6.7-.9 1l-1 1c-.7.6-1.5 1.1-2.2 1.7-.8.4-1.6.9-2.5 1.3l-1.3.5-.7.2-.7.2c-.9.2-1.8.4-2.7.5-.9.1-1.8.2-2.7.1h-1.4c-.5 0-.9-.1-1.3-.1l-1.3-.2c-.4-.1-.9-.2-1.3-.3-.9-.2-1.8-.4-2.6-.6-.8-.3-1.7-.5-2.5-.8-.8-.3-1.7-.6-2.5-1l-2.4-1.1 2.9-1.5c-.1.9-.2 1.9-.5 2.8-.2.9-.5 1.9-.8 2.8-.2.5-.4.9-.6 1.3l-.7 1.3c-.3.4-.5.8-.8 1.2l-.9 1.2c-.3.4-.7.7-1 1.1-.4.3-.8.6-1.1 1-.4.3-.8.6-1.2.8-.4.3-.8.5-1.3.7-.4.2-.9.4-1.3.6l-1.3.5-1.4.4-1.4.3c-.9.2-1.8.3-2.8.4-.9.1-1.8.1-2.7.2-1.8 0-3.6-.1-5.4-.3-1.8-.2-3.6-.5-5.3-.9-1.7-.4-3.5-.8-5.2-1.4l1.6-.4-2.1 1.8c-.7.6-1.4 1.1-2.1 1.7-.7.6-1.5 1.1-2.2 1.6-.8.5-1.6 1-2.4 1.4-.8.4-1.6.9-2.5 1.2-.9.3-1.7.7-2.6 1-.9.3-1.8.5-2.7.7-.9.1-1.9.2-2.8.2-.5 0-.9 0-1.4-.1-.5 0-.9-.1-1.4-.2-.5-.1-.9-.2-1.4-.4-.5-.1-.9-.3-1.3-.5-.9-.4-1.7-.8-2.4-1.4-.8-.5-1.5-1.1-2.1-1.7-.6-.6-1.3-1.3-1.8-2-.6-.7-1.1-1.5-1.5-2.2-1.4-1.7-2.1-3.3-2.7-5"/></svg>